<?xml version="1.0" encoding="UTF-8"?>
<svg width="22px" height="22px" viewBox="0 0 22 22" version="1.1" xmlns="http://www.w3.org/2000/svg" xmlns:xlink="http://www.w3.org/1999/xlink">
    <!-- Generator: Sketch 54.1 (76490) - https://sketchapp.com -->
    <title>facebook</title>
    <desc>Created with Sketch.</desc>
    <defs>
        <polygon id="path-1" points="0.0012890625 0.000864440079 22 0.000864440079 22 21.9952456 0.0012890625 21.9952456"></polygon>
    </defs>
    <g id="Screens" stroke="none" stroke-width="1" fill="none" fill-rule="evenodd">
        <g id="Change-Country" transform="translate(-777.000000, -529.000000)">
            <g id="facebook" transform="translate(777.000000, 529.000000)">
                <g id="Group-3">
                    <mask id="mask-2" fill="white">
                        <use xlink:href="#path-1"></use>
                    </mask>
                    <g id="Clip-2"></g>
                    <path d="M22,11.064833 C22,4.95388998 17.0751367,0 11,0 C4.92486328,0 0,4.95388998 0,11.064833 C0,16.587611 4.02254102,21.165167 9.28125,21.9952456 L9.28125,14.2632613 L6.48828125,14.2632613 L6.48828125,11.064833 L9.28125,11.064833 L9.28125,8.62711198 C9.28125,5.85398821 10.9234727,4.32220039 13.4361133,4.32220039 C14.6396035,4.32220039 15.8984375,4.53831041 15.8984375,4.53831041 L15.8984375,7.26129666 L14.5113633,7.26129666 C13.1448926,7.26129666 12.71875,8.11421807 12.71875,8.98924754 L12.71875,11.064833 L15.7695312,11.064833 L15.2818359,14.2632613 L12.71875,14.2632613 L12.71875,21.9952456 C17.977459,21.165167 22,16.587611 22,11.064833" id="Fill-1" fill="#0A0B09" mask="url(#mask-2)"></path>
                </g>
                <path d="M15.4017983,14.2012466 L15.8944698,11.0303248 L12.8125599,11.0303248 L12.8125599,8.97258945 C12.8125599,8.10508525 13.2430506,7.25949898 14.6234641,7.25949898 L16.0246914,7.25949898 L16.0246914,4.55993048 C16.0246914,4.55993048 14.7530129,4.34567901 13.5372428,4.34567901 C10.9989644,4.34567901 9.33998534,5.86429342 9.33998534,8.61356826 L9.33998534,11.0303248 L6.51851852,11.0303248 L6.51851852,14.2012466 L9.33998534,14.2012466 L9.33998534,21.8667356 C9.90573285,21.9543644 10.4855877,22 11.0762726,22 C11.6669576,22 12.2468124,21.9543644 12.8125599,21.8667356 L12.8125599,14.2012466 L15.4017983,14.2012466" id="Fill-4" fill="#FFFFFE"></path>
            </g>
        </g>
    </g>
</svg>