<svg viewBox="0 0 22 22" xmlns="http://www.w3.org/2000/svg" xmlns:xlink="http://www.w3.org/1999/xlink"><defs><path id="0" d="m0 .007h21.993v21.99h-21.993z"/><mask id="1" fill="#fff"><use xlink:href="#0"/></mask></defs><g fill="#0a0b09" fill-rule="evenodd"><path d="m10.997.007c-2.987 0-3.361.013-4.534.066-1.17.053-1.97.239-2.669.511-.723.281-1.336.657-1.948 1.268-.611.611-.987 1.225-1.268 1.948-.272.699-.458 1.499-.511 2.669-.054 1.173-.066 1.547-.066 4.534 0 2.986.013 3.361.066 4.534.053 1.17.239 1.97.511 2.669.281.723.657 1.336 1.268 1.948.611.611 1.225.987 1.948 1.268.699.272 1.499.458 2.669.511 1.173.054 1.547.066 4.534.066 2.986 0 3.361-.013 4.534-.066 1.17-.053 1.97-.239 2.669-.511.723-.281 1.336-.657 1.948-1.268.611-.611.987-1.225 1.268-1.948.272-.699.458-1.499.511-2.669.054-1.173.066-1.547.066-4.534 0-2.987-.013-3.361-.066-4.534-.053-1.17-.239-1.97-.511-2.669-.281-.723-.657-1.336-1.268-1.948-.611-.611-1.225-.987-1.948-1.268-.699-.272-1.499-.458-2.669-.511-1.173-.054-1.547-.066-4.534-.066m0 1.981c2.936 0 3.284.011 4.444.064 1.072.049 1.654.228 2.042.379.513.199.88.438 1.264.823.385.385.623.751.823 1.264.151.387.33.97.379 2.042.053 1.16.064 1.507.064 4.444 0 2.936-.011 3.284-.064 4.444-.049 1.072-.228 1.654-.379 2.042-.199.513-.438.88-.823 1.264-.385.385-.751.623-1.264.823-.387.151-.97.33-2.042.379-1.159.053-1.507.064-4.444.064-2.936 0-3.284-.011-4.444-.064-1.072-.049-1.654-.228-2.042-.379-.513-.199-.88-.438-1.264-.823-.385-.385-.623-.751-.823-1.264-.151-.387-.33-.97-.379-2.042-.053-1.16-.064-1.507-.064-4.444 0-2.936.011-3.284.064-4.444.049-1.072.228-1.654.379-2.042.199-.513.438-.88.823-1.264.385-.385.751-.623 1.264-.823.387-.151.97-.33 2.042-.379 1.16-.053 1.507-.064 4.444-.064" mask="url(#1)"/><path d="m10.997 14.669c-2.024 0-3.666-1.641-3.666-3.665 0-2.024 1.641-3.666 3.666-3.666 2.024 0 3.665 1.641 3.665 3.666 0 2.024-1.641 3.665-3.665 3.665m0-9.312c-3.119 0-5.647 2.528-5.647 5.647 0 3.119 2.528 5.647 5.647 5.647 3.119 0 5.647-2.528 5.647-5.647 0-3.119-2.528-5.647-5.647-5.647"/><path d="m18.19 5.134c0 .729-.591 1.32-1.32 1.32-.729 0-1.32-.591-1.32-1.32 0-.729.591-1.32 1.32-1.32.729 0 1.32.591 1.32 1.32"/></g></svg>