<svg viewBox="0 0 22 18" xmlns="http://www.w3.org/2000/svg"><g fill="none" fill-rule="evenodd"><path d="m19.395 4.952c0-.19 0-.38-.009-.57.864-.622 1.616-1.409 2.213-2.299-.795.354-1.651.588-2.55.7.916-.544 1.616-1.417 1.953-2.455-.856.51-1.806.873-2.818 1.072-.812-.864-1.962-1.4-3.232-1.4-2.446 0-4.434 1.988-4.434 4.434 0 .346.043.683.112 1.011-3.682-.182-6.949-1.953-9.136-4.633-.38.657-.596 1.417-.596 2.23 0 1.538.786 2.895 1.971 3.691-.726-.026-1.409-.225-2.01-.553 0 .017 0 .035 0 .06 0 2.143 1.53 3.941 3.552 4.347-.372.104-.761.156-1.167.156-.285 0-.562-.026-.83-.078.562 1.763 2.204 3.042 4.14 3.077-1.521 1.193-3.431 1.901-5.506 1.901-.354 0-.709-.017-1.054-.061 1.953 1.245 4.287 1.979 6.785 1.979 8.15 0 12.61-6.759 12.61-12.61" fill="#000" fill-rule="nonzero"/></g></svg>