<svg xmlns="http://www.w3.org/2000/svg" xmlns:xlink="http://www.w3.org/1999/xlink" viewBox="0 0 22 22"><defs><path id="0" d="m.007.005h21.993v15.495h-21.993"/><mask id="1" fill="#fff"><use xlink:href="#0" width="22" height="22"/></mask></defs><g transform="translate(0 3.25)" fill="none" fill-rule="evenodd"><path d="m21.54 2.42c-.253-.953-.998-1.703-1.945-1.958-1.716-.463-8.595-.463-8.595-.463 0 0-6.88 0-8.595.463-.946.255-1.692 1-1.945 1.958-.46 1.727-.46 5.33-.46 5.33 0 0 0 3.603.46 5.33.253.953.999 1.703 1.945 1.958 1.716.463 8.595.463 8.595.463 0 0 6.88 0 8.595-.463.947-.255 1.692-1.01 1.945-1.958.46-1.727.46-5.33.46-5.33 0 0 0-3.603-.46-5.33" mask="url(#1)" fill="#222321"/><path d="m8.75 11.02l5.75-3.27-5.75-3.271v6.541" fill="#fffffe"/></g></svg>