<?xml version="1.0" encoding="utf-8"?>
<svg version="1.1" id="Layer_1" xmlns="http://www.w3.org/2000/svg" xmlns:xlink="http://www.w3.org/1999/xlink" x="0px" y="0px"
	 viewBox="0 0 65.1 41.3" style="enable-background:new 0 0 65.1 41.3;" xml:space="preserve">
<style type="text/css">
	.st0{fill:#FFFFFF;}
	.st1{fill-rule:evenodd;clip-rule:evenodd;fill:#FFFFFF;}
</style>
<g id="XMLID_333_">
	<g id="XMLID_398_">
		<path id="XMLID_408_" class="st0" d="M21.8,26.7h0.3v0.9h0c0.1-0.2,0.4-0.3,0.7-0.3c0.5,0,1,0.3,1,0.9c0,0.6-0.4,0.9-1,0.9
			c-0.3,0-0.5-0.1-0.7-0.3h0v0.2h-0.3V26.7z M22.8,27.7c-0.4,0-0.7,0.3-0.7,0.7c0,0.3,0.2,0.7,0.7,0.7c0.5,0,0.7-0.3,0.7-0.7
			C23.4,27.9,23.2,27.7,22.8,27.7z"/>
		<path id="XMLID_406_" class="st0" d="M25.9,27.4h0.4l-0.9,2.1C25.2,29.9,25,30,24.7,30c-0.1,0-0.2,0-0.3,0v-0.3c0.1,0,0.1,0,0.2,0
			c0.2,0,0.3,0,0.4-0.3l0.1-0.2l-0.8-1.8h0.4l0.6,1.4L25.9,27.4z"/>
		<path id="XMLID_404_" class="st0" d="M28.3,26.8h0.5v1h1.5v-1h0.5v2.4h-0.5v-1.1h-1.5v1.1h-0.5V26.8z"/>
		<path id="XMLID_402_" class="st0" d="M31.7,26.8h0.5v2.4h-0.5V26.8z"/>
		<path id="XMLID_434_" class="st0" d="M33.1,26.8h0.5v2h1.5v0.4h-2V26.8z"/>
		<path id="XMLID_435_" class="st0" d="M36,27.1h-0.9v-0.4h2.4v0.4h-0.9v2.1H36V27.1z"/>
		<path id="XMLID_436_" class="st0" d="M37.9,28c0-0.7,0.4-1.3,1.4-1.3c1,0,1.4,0.6,1.4,1.3s-0.4,1.3-1.4,1.3
			C38.3,29.3,37.9,28.7,37.9,28z M40.2,28c0-0.5-0.3-0.9-0.9-0.9c-0.6,0-0.9,0.4-0.9,0.9s0.3,0.9,0.9,0.9
			C39.9,28.9,40.2,28.5,40.2,28z"/>
		<path id="XMLID_399_" class="st0" d="M41.5,26.8h0.6l1.5,1.8h0v-1.8H44v2.4h-0.6L42,27.4h0v1.8h-0.5V26.8z"/>
	</g>
	<g id="XMLID_334_">
		<path id="XMLID_395_" class="st0" d="M32.9,1.3L2.8,10.2v20.5l30.1,8.9L63,30.7V10.2L32.9,1.3z M61.4,29.5l-28.5,8.4L4.4,29.5
			V11.4L32.9,3l28.5,8.4V29.5z"/>
		<path id="XMLID_371_" class="st1" d="M40,15.7c-1-0.2-1.6,0.7-1.6,0.7l-0.1-0.5h-1.2L36,19.4c-0.4,0.8-1,1.4-1.6,1.7
			c-0.6,0.3-0.5-0.5-0.2-1.2c0.2-0.7,0.9-2.1,1.1-3c0.2-0.9-0.4-1.3-1.1-1.1c-0.8,0.2-1.9,1.6-1.9,1.6c0.2-1.6-0.6-1.7-1.1-1.5
			c-0.5,0.2-1.5,1.1-1.5,1.1c0.1-0.2,0.1-1.1,0.1-1.1h-1.3c0,0-1,3.4-1.2,3.8c-0.1,0.2-1.1,1.6-1.5,1.5c-0.4-0.1-0.2-0.7,0-1.4
			c0.2-0.6,1.2-3.9,1.2-3.9h-1.5l-0.2,0.4c-0.2-0.6-1.7-0.7-2.8,0.4c-1.1,1.1-1.5,2.7-1.6,3.7c-0.1,1,0,1.7,1,1.7c1,0,2-1.3,2-1.3
			c0,0.9,0.2,1.4,1,1.4c0.8,0,1.9-1.1,1.9-1.1l-0.3,1H28c0.3-1.1,1-2.8,1.3-3.5c0.3-0.7,0.8-1.3,1.1-1.4c0.4-0.1,0.5,0.2,0.5,0.5
			c-0.1,0.3-1.4,4.5-1.4,4.5l1.4,0c0,0,0.7-2,1.1-2.9c0.4-0.9,0.9-1.8,1.4-2.1c0.5-0.4,0.4,0.1,0.3,0.5c-0.1,0.4-1.1,3.1-1.2,3.5
			c-0.1,0.5,0.1,1.3,0.9,1.3c0.8,0,2.1-1.3,2.1-1.3l-1.1,3.4l1.5,0l0.9-2.6c0.2,0.2,0.2,0.3,1,0.4c0.8,0.1,2-1.1,2.6-2.4
			C40.9,18.3,41,15.9,40,15.7z M24.7,18.1c-0.3,0.8-0.7,1.7-1.1,2.1c-0.4,0.5-0.9,0.7-1.2,0.6c-0.2-0.1-0.1-1.1,0.2-2
			c0.3-0.9,0.8-1.8,1.2-2.1c0.4-0.3,0.8-0.3,0.9-0.3C24.9,16.6,25,17.3,24.7,18.1z M39,19.2c-0.5,1.3-1.3,2.1-1.7,2
			c-0.3-0.1-0.2-1.1,0.3-2.5c0.5-1.4,1.2-2.3,1.6-2.1C39.4,16.7,39.5,17.9,39,19.2z M58.9,17c-0.4,0.1-0.2,0.3-0.2,1.6
			c0,1.3-1.3,3.2-2.1,3.9c-0.8,0.7-2,1.1-2.8,0.4c-0.8-0.7-0.1-2.6,0.5-4.1c0.6-1.5,0.7-2,0.6-2.5c-0.1-0.6-1-0.5-1.4-0.4
			c-0.4,0.2-1.4,1-1.4,1l0.1-0.9L51,16c-0.1,0.3-0.5,1.1-1,1.6c-0.4,0.5-0.9,0.6-0.9,0.6s0-0.2,0-0.9c0-0.7-0.6-1.3-1.2-1.4
			c-0.5-0.1-1.6,0.1-2.5,1.3c-0.9,1.2-1.1,2.8-1.1,2.8c-0.2,0.4-0.9,1.1-1.3,1.3c-0.4,0.2-0.7,0.4-0.4-1c0.3-1.4,1.2-3.8,1.2-3.8
			h1.2l0.1-0.4l-1.2,0l0.7-2.3l-1.5,0.2l-0.7,2.1l-1.1,0v0.4h1c0,0-0.5,1.5-0.5,1.8c-0.1,0.2-0.8,2.1-0.7,3.2
			c0.1,1.3,1.4,0.8,1.9,0.5c0.5-0.3,1.4-1.3,1.4-1.3c0.2,1.5,1.6,1.9,2.9,1.2c1.3-0.7,1.7-3,1.7-3c0.5,0,1.3-0.8,1.3-0.8l-1.3,4h1.4
			c0.7-2.5,1.6-4,2-4.6c0.4-0.5,0.8-0.7,0.9-0.6c0.1,0.1-0.1,0.7-0.5,1.8c-0.4,1.1-0.8,2.3-0.6,3.5c0.2,1.2,0.9,1.7,2.2,1.8
			c1.3,0.1,3-0.8,4-2.4c1-1.6,1-2.6,1-3.4C59.5,17.3,59.2,17,58.9,17z M47.4,20.4c-0.3,0.6-0.8,1.2-1.2,1c-0.4-0.2-0.3-1.6-0.1-2.4
			c0.2-0.8,0.7-1.6,0.7-1.6s0.1,0.8,1.1,1.4C48,18.8,47.8,19.7,47.4,20.4z M48.2,18.2c0,0-0.4-0.1-0.6-0.7c-0.2-0.6-0.1-0.9-0.1-0.9
			s0.3-0.4,0.7-0.2C48.5,16.4,48.3,17.6,48.2,18.2z M14.3,17.5H13l0,0.6l1.2,0c0,0-0.5,2.2-1.3,3.7c-0.8,1.6-1.7,2.9-3.1,2.7
			c-1.4-0.2-2.6-1.5-2.6-3.4c0-1.9,0.1-2.6,1.1-3.7c0.4-0.4,0.4-1-0.3-0.8c-0.7,0.2-1.1,0.6-1.4,1.8c-0.3,1.2-0.4,3.2,0.8,5.3
			c1.1,1.8,3.6,1.8,4.9,0.7c0.9-0.8,2-2.2,2.6-3.7c0.6-1.6,1-2.5,1-2.5h2.4c0,0-2.3,5.6,0.6,7c0,0-0.6-1.4-0.2-3
			c0.4-1.6,1.1-3.8,1.3-4c0,0,0.3,0,0.4,0c0.1,0,0.3,0.1,0.4,0c0.1-0.1,0.1-0.5,0.1-0.5l-0.6-0.1c0,0,0.5-1.7,0.9-2.7
			c0.5-1.1,1-2,1.9-2.7c0,0-0.7-0.3-2,0.7c-1.3,1-2.6,4.7-2.6,4.7l-2.4,0c0,0,0.4-1.6,1-2.9c0.7-1.3,1.2-2.2,1.2-2.2s-2.6,0.6-3,0.7
			c-0.4,0.1-2,0.5-2.6,0.7c-0.6,0.3-0.9,1.1-0.7,1.3c0.2,0.1,0.7-0.3,1.1-0.6c0.4-0.3,2.3-1.3,3.4-1.3
			C16.6,13.4,15.4,14.6,14.3,17.5z"/>
		<g id="XMLID_335_">
			<path id="XMLID_369_" class="st0" d="M61,33.7v-1.1h-0.4v-0.1h1v0.1h-0.4v1.1H61z"/>
			<path id="XMLID_336_" class="st0" d="M61.7,32.4H62l0.4,1l0.4-1H63v1.2h-0.2v-1.1l-0.4,1.1h-0.2l-0.4-1.1v1.1h-0.2V32.4z"/>
		</g>
	</g>
</g>
</svg>
