<?xml version="1.0" encoding="utf-8" standalone="no"?><svg xmlns="http://www.w3.org/2000/svg" fill="none" style="" viewBox="-8.800 -2.800 193.600 61.600">
  <path d="M16.28 44.44C14.52 44.44 12.98 44.0733 11.66 43.34C10.34 42.5773 9.29867 41.5213 8.536 40.172V44H2.42V11.88H9.46V24.684C10.1933 23.364 11.2053 22.3373 12.496 21.604C13.7867 20.8413 15.2973 20.46 17.028 20.46C18.9933 20.46 20.724 21.0027 22.22 22.088C23.7453 23.1733 24.9333 24.6253 25.784 26.444C26.6347 28.2627 27.06 30.3013 27.06 32.56C27.06 34.7893 26.5907 36.8133 25.652 38.632C24.7133 40.4213 23.4227 41.844 21.78 42.9C20.1667 43.9267 18.3333 44.44 16.28 44.44ZM14.3 38.5C15.9427 38.5 17.2773 37.928 18.304 36.784C19.3307 35.64 19.844 34.232 19.844 32.56C19.844 31.4747 19.6093 30.4627 19.14 29.524C18.7 28.5853 18.084 27.8373 17.292 27.28C16.5293 26.7227 15.6493 26.444 14.652 26.444C13.5373 26.444 12.5107 26.8253 11.572 27.588C10.6333 28.3507 9.92933 29.304 9.46 30.448V35.288C9.92933 36.2853 10.604 37.0773 11.484 37.664C12.3933 38.2213 13.332 38.5 14.3 38.5ZM41.5645 44.44C38.9245 44.44 36.6805 43.8827 34.8325 42.768C33.0139 41.6533 31.6205 40.1867 30.6525 38.368C29.6845 36.5493 29.2005 34.584 29.2005 32.472C29.2005 30.3307 29.6845 28.3507 30.6525 26.532C31.6205 24.7133 33.0285 23.2467 34.8765 22.132C36.7245 21.0173 38.9539 20.46 41.5645 20.46C44.1752 20.46 46.4045 21.0173 48.2525 22.132C50.1005 23.2467 51.5085 24.7133 52.4765 26.532C53.4445 28.3507 53.9285 30.3307 53.9285 32.472C53.9285 34.584 53.4445 36.5493 52.4765 38.368C51.5085 40.1867 50.1005 41.6533 48.2525 42.768C46.4045 43.8827 44.1752 44.44 41.5645 44.44ZM36.4165 32.472C36.4165 34.2613 36.9005 35.7133 37.8685 36.828C38.8659 37.9427 40.0979 38.5 41.5645 38.5C43.0019 38.5 44.2045 37.9427 45.1725 36.828C46.1699 35.7133 46.6685 34.2613 46.6685 32.472C46.6685 30.6827 46.1699 29.2307 45.1725 28.116C44.2045 27.0013 43.0019 26.444 41.5645 26.444C40.0979 26.444 38.8659 27.0013 37.8685 28.116C36.9005 29.2307 36.4165 30.6827 36.4165 32.472ZM68.42 44.44C65.78 44.44 63.536 43.8827 61.688 42.768C59.8693 41.6533 58.476 40.1867 57.508 38.368C56.54 36.5493 56.056 34.584 56.056 32.472C56.056 30.3307 56.54 28.3507 57.508 26.532C58.476 24.7133 59.884 23.2467 61.732 22.132C63.58 21.0173 65.8093 20.46 68.42 20.46C71.0307 20.46 73.26 21.0173 75.108 22.132C76.956 23.2467 78.364 24.7133 79.332 26.532C80.3 28.3507 80.784 30.3307 80.784 32.472C80.784 34.584 80.3 36.5493 79.332 38.368C78.364 40.1867 76.956 41.6533 75.108 42.768C73.26 43.8827 71.0307 44.44 68.42 44.44ZM63.272 32.472C63.272 34.2613 63.756 35.7133 64.724 36.828C65.7213 37.9427 66.9533 38.5 68.42 38.5C69.8573 38.5 71.06 37.9427 72.028 36.828C73.0253 35.7133 73.524 34.2613 73.524 32.472C73.524 30.6827 73.0253 29.2307 72.028 28.116C71.06 27.0013 69.8573 26.444 68.42 26.444C66.9533 26.444 65.7213 27.0013 64.724 28.116C63.756 29.2307 63.272 30.6827 63.272 32.472ZM99.8075 44L93.7795 34.76L91.3155 37.268V44H84.2755V11.88H91.3155V30.448L99.1475 20.9H106.583L98.2675 30.844L107.287 44H99.8075ZM119.21 44.44C116.599 44.44 114.37 43.8973 112.522 42.812C110.674 41.7267 109.251 40.2893 108.254 38.5C107.286 36.7107 106.802 34.7747 106.802 32.692C106.802 30.4627 107.286 28.424 108.254 26.576C109.222 24.728 110.63 23.2467 112.478 22.132C114.326 21.0173 116.57 20.46 119.21 20.46C121.821 20.46 124.05 21.0173 125.898 22.132C127.746 23.2467 129.139 24.7133 130.078 26.532C131.046 28.3507 131.53 30.3013 131.53 32.384C131.53 33.2347 131.471 33.9827 131.354 34.628H114.282C114.399 36.1827 114.957 37.3707 115.954 38.192C116.981 38.984 118.139 39.38 119.43 39.38C120.457 39.38 121.439 39.1307 122.378 38.632C123.317 38.1333 123.962 37.4587 124.314 36.608L130.298 38.28C129.389 40.0987 127.966 41.58 126.03 42.724C124.123 43.868 121.85 44.44 119.21 44.44ZM114.106 30.316H124.138C123.991 28.8493 123.449 27.6907 122.51 26.84C121.601 25.96 120.471 25.52 119.122 25.52C117.773 25.52 116.629 25.96 115.69 26.84C114.781 27.72 114.253 28.8787 114.106 30.316ZM149.423 42.768C148.455 43.1787 147.34 43.56 146.079 43.912C144.847 44.264 143.6 44.44 142.339 44.44C141.166 44.44 140.095 44.2493 139.127 43.868C138.159 43.4573 137.382 42.7973 136.795 41.888C136.208 40.9787 135.915 39.776 135.915 38.28V26.224H132.967V20.9H135.915V13.552H142.955V20.9H147.663V26.224H142.955V35.86C142.955 36.6227 143.146 37.18 143.527 37.532C143.908 37.8547 144.392 38.016 144.979 38.016C145.507 38.016 146.05 37.928 146.607 37.752C147.164 37.576 147.648 37.3853 148.059 37.18L149.423 42.768ZM152.17 47.476C153.373 47.8573 154.385 48.048 155.206 48.048C156.028 48.048 156.673 47.7547 157.142 47.168C157.641 46.5813 158.081 45.5253 158.462 44L149.662 20.9H156.922L162.29 36.784L166.866 20.9H173.51L164.71 47.74C164.094 49.6467 162.98 51.1867 161.366 52.36C159.782 53.5627 157.92 54.164 155.778 54.164C154.546 54.164 153.344 53.944 152.17 53.504V47.476Z" fill="#050505"/>
</svg>