<?xml version="1.0" encoding="UTF-8" standalone="no"?><svg xmlns="http://www.w3.org/2000/svg" xmlns:cc="http://creativecommons.org/ns#" xmlns:dc="http://purl.org/dc/elements/1.1/" xmlns:inkscape="http://www.inkscape.org/namespaces/inkscape" xmlns:rdf="http://www.w3.org/1999/02/22-rdf-syntax-ns#" xmlns:sodipodi="http://sodipodi.sourceforge.net/DTD/sodipodi-0.dtd" xmlns:svg="http://www.w3.org/2000/svg" height="66.964844pt" id="svg49" inkscape:version="1.0.1 (c497b03c, 2020-09-10)" sodipodi:docname="mt-logo-may2017.svg" style="" version="1.2" viewBox="-19.975 -3.348 439.450 73.661" width="399.5pt">
  <sodipodi:namedview bordercolor="#666666" borderopacity="1" gridtolerance="10" guidetolerance="10" id="namedview142" inkscape:current-layer="svg49" inkscape:cx="332.21647" inkscape:cy="165.85352" inkscape:pageopacity="0" inkscape:pageshadow="2" inkscape:window-height="847" inkscape:window-maximized="0" inkscape:window-width="1451" inkscape:window-x="0" inkscape:window-y="23" inkscape:zoom="1.644" objecttolerance="10" pagecolor="#ffffff" showgrid="false"/>
  <metadata id="metadata55">
    <rdf:RDF>
      <cc:Work rdf:about="">
        <dc:format>image/svg+xml</dc:format>
        <dc:type rdf:resource="http://purl.org/dc/dcmitype/StillImage"/>
        <dc:title/>
      </cc:Work>
    </rdf:RDF>
  </metadata>
  <defs id="defs53"/>
  <g id="surface8843" transform="translate(-49.195312,-91.394531)">
    <path d="m 111.27344,91.394531 c -5.72656,0 -11.21485,1.59375 -15.828128,4.351563 7.117188,6.582036 11.476568,15.980466 11.476568,26.410156 v 10.79687 c 7.4375,-4.40234 24.92968,-9.34374 25.80468,-28.29296 V 91.394531 Z m 0,0" id="path28" style="fill:#87bae3;fill-opacity:1;fill-rule:nonzero;stroke:none"/>
    <path d="m 70.914062,91.394531 h -21.71875 v 13.265629 c 1.203126,20.35547 23.324219,25.27343 27.320313,29.26953 2.617187,2.61328 3.292969,4.92578 3.445313,7.07812 0.128906,1.85156 1.636718,3.30469 3.492187,3.30469 h 14.722656 c 1.933599,0 3.499999,-1.56641 3.499999,-3.5 v -18.66016 c 0,-16.91406 -13.843749,-30.757809 -30.761718,-30.757809" id="path30" style="fill:#4a78ab;fill-opacity:1;fill-rule:nonzero;stroke:none"/>
    <path d="m 199.92187,143.71875 c -2.23437,0 -4.08203,-1.84766 -4.08203,-4.08203 v -20.57813 c 0,-3.92968 -1.69531,-6.625 -6.01172,-6.625 -3.62109,0 -6.93359,2.54297 -8.55468,4.85547 v 22.34766 c 0,2.23437 -1.84766,4.08203 -4.16016,4.08203 -2.3125,0 -4.08203,-1.84766 -4.08203,-4.08203 v -20.57813 c 0,-3.92968 -1.77344,-6.625 -6.08984,-6.625 -3.54688,0 -6.85938,2.54297 -8.47657,4.92969 v 22.27344 c 0,2.23437 -1.84765,4.08203 -4.16015,4.08203 -2.3125,0 -4.08594,-1.84766 -4.08594,-4.08203 v -30.05469 c 0,-2.16015 1.77344,-4.00781 4.23828,-4.00781 2.16016,0 4.00781,1.84766 4.00781,4.00781 v 1.53906 c 1.54297,-2.3125 6.47266,-6.00781 12.09766,-6.00781 5.54687,0 8.94141,2.77344 10.17187,6.85547 2.16016,-3.39062 7.08985,-6.85547 12.71485,-6.85547 6.78125,0 10.71094,3.69531 10.71094,11.25 v 23.27344 c 0,2.23437 -1.84766,4.08203 -4.23829,4.08203" id="path32" style="fill:#4a78ab;fill-opacity:1;fill-rule:nonzero;stroke:none"/>
    <path d="m 229.37891,112.43359 c -6.85938,0 -10.63672,5.70313 -10.63672,12.17579 0,6.54687 3.77734,12.24999 10.63672,12.24999 6.78125,0 10.55468,-5.70312 10.55468,-12.24999 0,-6.47266 -3.77343,-12.17579 -10.55468,-12.17579 m 0,31.7461 c -11.94532,0 -19.19141,-8.85938 -19.19141,-19.57031 0,-10.63672 7.24609,-19.4961 19.19141,-19.4961 11.9414,0 19.1875,8.85938 19.1875,19.4961 0,10.71093 -7.2461,19.57031 -19.1875,19.57031" id="path34" style="fill:#4a78ab;fill-opacity:1;fill-rule:nonzero;stroke:none"/>
    <path d="m 272.19922,112.43359 c -3.69922,0 -7.62891,2.23438 -9.40235,5.00782 v 14.5625 c 1.77344,2.69921 5.70313,4.85546 9.40235,4.85546 6.39453,0 10.48047,-5.00781 10.48047,-12.17578 0,-7.16406 -4.08594,-12.25 -10.48047,-12.25 m 2.46484,31.7461 c -4.77734,0 -9.01562,-2.23438 -11.86719,-6.00782 v 1.46094 c 0,2.23828 -1.84765,4.08594 -4.16015,4.08594 -2.3125,0 -4.08594,-1.84766 -4.08594,-4.08594 V 95.402344 c 0,-2.15625 1.77344,-4.007813 4.23828,-4.007813 2.16016,0 4.00781,1.851563 4.00781,4.007813 v 15.718746 c 2.92969,-3.85156 7.24219,-6.00781 11.86719,-6.00781 9.55469,0 16.49219,7.55078 16.49219,19.57031 0,12.25391 -6.9375,19.4961 -16.49219,19.4961" id="path36" style="fill:#4a78ab;fill-opacity:1;fill-rule:nonzero;stroke:none"/>
    <path d="m 330.64453,111.12109 -15.875,38.76172 c -2.46484,6.08985 -6.85547,8.47656 -12.09766,8.47656 -2.85156,0 -5.46875,-1.07812 -5.46875,-3.69921 0,-2 1.61719,-3.69922 3.85157,-3.69922 0.53906,0 1.0039,0.0781 1.54297,0 1.84765,-0.15235 3.39062,-1 4.3125,-3.08203 l 1.85156,-4.16016 -13.33203,-32.67578 c -0.15625,-0.46094 -0.23047,-0.92188 -0.23047,-1.38281 0,-2.00391 1.61719,-4.08594 4.16015,-4.08594 1.61719,0 3.16016,1.00391 3.85157,2.69922 l 9.86328,25.42968 9.86719,-25.42968 c 0.53906,-1.6211 2.15625,-2.69922 3.92968,-2.69922 2.38672,0 4.08203,2.00391 4.08203,4.00781 0,0.53906 -0.0742,1.07813 -0.30859,1.53906" id="path38" style="fill:#4a78ab;fill-opacity:1;fill-rule:nonzero;stroke:none"/>
    <path d="m 351.83594,144.17969 c -6.32032,0 -9.63282,-3.39063 -9.63282,-9.63282 v -21.26562 h -3.08203 c -1.92968,0 -3.54687,-1.62109 -3.54687,-3.69922 0,-1.92969 1.61719,-3.54687 3.54687,-3.54687 h 3.08203 v -6.550785 c 0,-2.234375 1.84766,-4.082031 4.23829,-4.082031 2.23437,0 4.00781,1.847656 4.00781,4.082031 v 6.550785 h 4.54687 c 1.92578,0 3.46485,1.61718 3.46485,3.69922 0,1.92578 -1.53907,3.54687 -3.46485,3.54687 h -4.54687 v 19.1875 c 0,2.85156 1.61719,4.39062 3.54297,4.39062 0.53906,0 1.23437,-0.23046 1.69531,-0.23046 2.23437,0 3.62109,1.54296 3.62109,3.54687 0,2.46484 -2.23437,4.00391 -7.47265,4.00391" id="path40" style="fill:#87bae3;fill-opacity:1;fill-rule:nonzero;stroke:none"/>
    <path d="m 383.27344,113.43359 c -3.3125,0.3086 -6.47266,1.69532 -8.47657,4.54688 v 21.65625 c 0,2.23437 -1.84765,4.08203 -4.08203,4.08203 h -0.15625 c -2.23437,0 -4.00781,-1.84766 -4.00781,-4.08203 v -30.05469 c 0,-2.16015 1.77344,-4.00781 4.23828,-4.00781 2.16016,0 4.00781,1.84766 4.00781,4.00781 v 1.92578 c 2.00391,-2.69922 4.9336,-5.93359 8.86329,-5.93359 2.23437,0 3.62109,1.53906 3.62109,3.54297 0,2.46875 -1.69531,4.00781 -4.00781,4.3164" id="path42" style="fill:#87bae3;fill-opacity:1;fill-rule:nonzero;stroke:none"/>
    <path d="m 398.22266,143.71875 c -2.3125,0 -4.08594,-1.84766 -4.08594,-4.08203 v -30.05469 c 0,-2.16015 1.77344,-4.00781 4.23828,-4.00781 2.16016,0 4.00781,1.84766 4.00781,4.00781 v 30.05469 c 0,2.23437 -1.84765,4.08203 -4.16015,4.08203 m 5.08593,-47.3125 c 0,2.847656 -2.3125,5.08203 -5.08593,5.08203 -2.77344,0 -5.08594,-2.234374 -5.08594,-5.08203 0,-2.777344 2.3125,-5.011719 5.08594,-5.011719 2.77343,0 5.08593,2.234375 5.08593,5.011719" id="path44" style="fill:#87bae3;fill-opacity:1;fill-rule:nonzero;stroke:none"/>
    <path d="m 429.73828,112.43359 c -3.69922,0 -7.62891,2.23438 -9.40234,4.92969 v 14.56641 c 1.77343,2.61718 5.70312,4.92968 9.40234,4.92968 6.31641,0 10.40234,-5.08593 10.40234,-12.24999 0,-7.08985 -4.08593,-12.17579 -10.40234,-12.17579 m 2.46484,31.7461 c -4.625,0 -8.86328,-2.07813 -11.86718,-6.00782 v 15.71875 c 0,2.15625 -1.84766,4.00782 -4.16016,4.00782 -2.3125,0 -4.08594,-1.85157 -4.08594,-4.00782 v -44.30859 c 0,-2.16015 1.77344,-4.00781 4.23828,-4.00781 2.16016,0 4.00782,1.84766 4.00782,4.00781 v 1.46094 c 2.77343,-3.69531 7.08984,-5.92969 11.86718,-5.92969 9.63282,0 16.49219,7.24219 16.49219,19.4961 0,12.24999 -6.85937,19.57031 -16.49219,19.57031" id="path46" style="fill:#87bae3;fill-opacity:1;fill-rule:nonzero;stroke:none"/>
  </g>
</svg>