<svg xmlns="http://www.w3.org/2000/svg" viewBox="0 0 300.04 250"><defs><clipPath id="a" transform="translate(-.5)"><path fill="none" d="M0 135.2h135.92v105.03H0z"/></clipPath></defs><g data-name="Layer 2"><g data-name="Layer 1"><path d="M0 0h300v250H0z" data-name="Layer 1"/><path d="M300.04 219.56c-14.19-27.25-44.59-46.09-79.71-46.09-47.12 0-84.88 30.6-87.88 76.23h167.59z" fill="#e52823"/><g clip-path="url(#a)" fill="#fff"><path d="M32.15 176.24c13.79-4.21 20.75 6.35 20.75 6.35s-4.4-14.74-20.75-6.35M58.8 176.79v-.5a10.3 10.3 0 0 0-5.44 7.91 11 11 0 0 1 6.29-5.69 2.66 2.66 0 0 1-.85-1.72M41.21 182.94v3.14c-.53 0-2.82-.15-3.83-.18v1.7c1.21 0 2.46.17 3.66.16v2.89c-1.2 0-2.41-.1-3.61-.12v1.84c1.3 0 2.6.13 3.89.12v3.07c-2.57 0-5.61-.2-8.49-.44l.2-12.82c1.21.15 5 .55 8.25.64M42.31 183l-.05 3.35c1.21.06 2.29.06 2.29.06v9.29a28.71 28.71 0 0 0 4.63-.06l-.06-9.2 2.37-.12v-3.42a79.39 79.39 0 0 1-9.13.1M104.18 180.93v3.89c.78 0 1.67.2 2.46.27 0 3.23-.08 5.69-.09 8.92 2.18.27 3.73.52 4.33.63 0-3.24.13-5.8.13-9 0 0 2.31.35 2.35.39v-4a71.61 71.61 0 0 0-9.17-1.08M27.31 181l-5.49-1v13.45c1.4.27 2.69.51 4.06.66v-3.89c.49.06 1 .12 1.49.16 2.38.23 4.78-.67 4.81-4.56 0-3.45-2.27-4.45-4.82-4.83m-1 6.2h-.41v-2.64h.39a1.34 1.34 0 0 1 1.3 1.45c0 1.09-.68 1.3-1.34 1.23M73.12 193.48c.61-1.61 1.22-3.1 1.84-4.7.1 1.53.16 2.92.25 4.45 1.54-.17 2.77-.26 4.31-.36-.4-4.08-.74-8.46-1.14-12.54-1.32.11-2.64.23-3.95.36-.74 1.92-1.48 4.27-2.22 6.2-.72-1.79-1.43-3.88-2.14-5.67-1.34.19-3.72.61-4 .61-.46 4.17-1 8.79-1.43 13 1-.19 3.61-.6 4.39-.7.12-1.55.23-3.21.35-4.77l1.78 4.45c.34 0 1.52-.23 1.92-.29M101.29 189.2c1.17-.53 2-1.67 2-3.92 0-3.4-2.36-4.85-4.79-5q-2.76-.23-5.52-.3c-.06 4.32-.09 8.27-.14 12.59 1.37 0 2.88.15 4.09.25v-3.34l2.21 3.61c1.7.15 3.43.37 5.12.62-1.06-1.59-2-2.94-3.07-4.48m-3.69-2.8h-.4v-2.6h.39a1.3 1.3 0 0 1 1.34 1.37 1.12 1.12 0 0 1-1.33 1.23M88.22 179.86c-1.64 0-3 0-4.37.09-1.13 4.19-2.46 8.67-3.58 12.87 1.25 0 2.52-.1 3.77-.11.11-.44.25-1 .36-1.39h1.91l1.69-.05c0 .16.2.6.42 1.33h3.75c-1.35-4.43-2.72-8.7-4-12.72m-3 8.5c.29-1.07.58-2.2.86-3.27l1 3.23a15.8 15.8 0 0 1-1.85 0M111.85 193.44a.69.69 0 0 1 0 1.38.69.69 0 0 1 0-1.38zm0 .11a.58.58 0 0 0 0 1.16.58.58 0 0 0 0-1.16zm-.13 1h-.12v-.77h.22a.46.46 0 0 1 .24.06.19.19 0 0 1 .07.16.18.18 0 0 1-.15.18c.06 0 .11.07.12.19a.86.86 0 0 0 .05.19h-.12a.68.68 0 0 1-.06-.2c0-.1-.06-.13-.16-.13h-.09zm0-.43h.09c.1 0 .19 0 .19-.13s0-.13-.19-.13h-.09zM52.9 194.48a11.46 11.46 0 0 0 5.08 1.29c2.88 0 5.88-1.72 6-4.94 0-2.29-1.41-3.38-3.45-3.84l-1.08-.24c-.37-.09-1-.16-1-.67s.63-.71 1.05-.71a7.52 7.52 0 0 1 2.93.62l1.23-3.24a9.77 9.77 0 0 0-4.19-1c-2.89 0-5.79 1.75-5.86 5 0 2.11 1.52 3.27 3.4 3.61l1 .18c.44.09 1.08.15 1.06.76s-.76.67-1.23.67a5.65 5.65 0 0 1-3.3-1.09c-.5 1.13-1.09 2.52-1.59 3.64M63.3 172.57a3.24 3.24 0 1 0 3.2 3.28 3.24 3.24 0 0 0-3.19-3.28m1.17 1.2a3.86 3.86 0 0 0-3.47 2 2.32 2.32 0 0 1 .08-.9 2.2 2.2 0 0 1 2.69-1.57 2 2 0 0 1 .76.41"/></g><path d="M14.77 13.47H26a6.92 6.92 0 0 1 3.34.75 5.18 5.18 0 0 1 2.1 2 5.33 5.33 0 0 1 .7 2.7 5 5 0 0 1-1.05 3.26 4.47 4.47 0 0 1-2.59 1.63 4.42 4.42 0 0 1 2.92 1.76 5.45 5.45 0 0 1 1.18 3.48 5.58 5.58 0 0 1-1.63 4.13 6.18 6.18 0 0 1-4.58 1.63H14.77zm10.24 8.58a2.48 2.48 0 0 0 1.82-.66 2.28 2.28 0 0 0 .67-1.71 2.24 2.24 0 0 0-.68-1.68 2.53 2.53 0 0 0-1.81-.67h-5.7v4.71zm.16 8.89a2.82 2.82 0 0 0 2-.69 2.57 2.57 0 0 0 0-3.61 2.75 2.75 0 0 0-2-.72h-5.86v5zM36.99 34.16a4.24 4.24 0 0 1-1.1-3.16V13.47h4.06v16.45a1.85 1.85 0 0 0 .39 1.21 1.23 1.23 0 0 0 1 .48 2.73 2.73 0 0 0 .83-.12 1.33 1.33 0 0 0 .55-.32l.86 3.07a5 5 0 0 1-3.36 1 4.51 4.51 0 0 1-3.23-1.08zM56.05 32.83a6.35 6.35 0 0 1-2.13 1.78 5.83 5.83 0 0 1-2.64.62 6.6 6.6 0 0 1-3.52-1 6.44 6.44 0 0 1-2.45-2.79 9.92 9.92 0 0 1-.88-4.36 9.84 9.84 0 0 1 .88-4.31A6.73 6.73 0 0 1 47.74 20a6.47 6.47 0 0 1 3.54-1 6 6 0 0 1 2.62.61 6.06 6.06 0 0 1 2.15 1.76v-2h4.09v15.44h-4.09zm0-8.44a3.83 3.83 0 0 0-1.55-1.27 4.46 4.46 0 0 0-2-.5 3.61 3.61 0 0 0-2.82 1.24 4.77 4.77 0 0 0-1.09 3.26 4.77 4.77 0 0 0 1.09 3.24 3.56 3.56 0 0 0 2.82 1.25 4.44 4.44 0 0 0 2-.49 3.83 3.83 0 0 0 1.51-1.27zM64.24 22.9a7.46 7.46 0 0 1 2.91-2.9 8.45 8.45 0 0 1 4.23-1 8.13 8.13 0 0 1 3.71.79 6.54 6.54 0 0 1 2.4 2l-2.66 2.49a3.7 3.7 0 0 0-3.26-1.66 4 4 0 0 0-3 1.24 4.53 4.53 0 0 0-1.16 3.26 4.58 4.58 0 0 0 1.09 3.24 4.08 4.08 0 0 0 6.33-.36l2.67 2.41a6.54 6.54 0 0 1-2.39 2 7.93 7.93 0 0 1-3.72.8 8.55 8.55 0 0 1-4.23-1 7.55 7.55 0 0 1-2.91-2.89 8.85 8.85 0 0 1 0-8.4zM86.06 28.86l-1.85 2v4h-4.07V13.47h4.07v12.77l5.85-6.88h5l-6.12 7 6.31 8.44h-5.09zM105.55 13.47h15.1v3.9h-10.56V22h10.34v3.91h-10.34v8.89h-4.54zM123.73 19.36h4.06v2.11a6.91 6.91 0 0 1 2.18-1.78 5.73 5.73 0 0 1 2.75-.72v4a5.5 5.5 0 0 0-1.12-.13 5.45 5.45 0 0 0-2.18.52 3.62 3.62 0 0 0-1.63 1.25v10.2h-4.06zM135.55 16.37a2.41 2.41 0 1 1 1.71.72 2.34 2.34 0 0 1-1.71-.72zm-.3 3h4.06v15.44h-4.06zM153.97 32.83a6.35 6.35 0 0 1-2.13 1.78 5.83 5.83 0 0 1-2.64.62 6.6 6.6 0 0 1-3.52-1 6.44 6.44 0 0 1-2.45-2.79 9.92 9.92 0 0 1-.88-4.36 9.84 9.84 0 0 1 .88-4.31 6.73 6.73 0 0 1 2.43-2.77 6.47 6.47 0 0 1 3.54-1 6 6 0 0 1 2.62.61 6.14 6.14 0 0 1 2.15 1.76v-7.9h4.09v21.34h-4.09zm0-8.47a3.75 3.75 0 0 0-1.47-1.27 4.46 4.46 0 0 0-2-.5 3.57 3.57 0 0 0-2.82 1.25 4.81 4.81 0 0 0-1.18 3.28 4.72 4.72 0 0 0 1.09 3.24 3.54 3.54 0 0 0 2.91 1.25 4.44 4.44 0 0 0 2-.49 3.83 3.83 0 0 0 1.51-1.27zM172.72 32.83a6.35 6.35 0 0 1-2.13 1.78 5.83 5.83 0 0 1-2.64.62 6.62 6.62 0 0 1-3.52-1 6.44 6.44 0 0 1-2.45-2.79 10.06 10.06 0 0 1-.88-4.36 10 10 0 0 1 .88-4.31 6.73 6.73 0 0 1 2.43-2.77 6.47 6.47 0 0 1 3.54-1 6 6 0 0 1 2.62.61 6.06 6.06 0 0 1 2.15 1.76v-2h4.09v15.44h-4.09zm0-8.44a3.76 3.76 0 0 0-1.51-1.27 4.46 4.46 0 0 0-2-.5 3.61 3.61 0 0 0-2.82 1.24 4.77 4.77 0 0 0-1.09 3.26 4.77 4.77 0 0 0 1.09 3.24 3.56 3.56 0 0 0 2.82 1.25 4.44 4.44 0 0 0 2-.49 3.76 3.76 0 0 0 1.51-1.27zM182.5 35.84a4.83 4.83 0 0 0 2 1.44 7.13 7.13 0 0 0 2.59.48 4.29 4.29 0 0 0 3.07-1 3.82 3.82 0 0 0 1.09-2.94v-1.6a7.23 7.23 0 0 1-2.29 1.66 7.14 7.14 0 0 1-3.15.68 5 5 0 0 1-3.75-1.28 4.94 4.94 0 0 1-1.24-3.59V19.36h4.06v8.7a2.79 2.79 0 0 0 .74 2.19 3 3 0 0 0 2.11.66 4.09 4.09 0 0 0 2-.51 4.93 4.93 0 0 0 1.51-1.25v-9.79h4.06V33.6a7 7 0 0 1-2.22 5.52 8.73 8.73 0 0 1-6 2 9.45 9.45 0 0 1-6.47-2.31zM218.19 32.83a6.35 6.35 0 0 1-2.13 1.78 5.83 5.83 0 0 1-2.64.62 6.62 6.62 0 0 1-3.52-1 6.51 6.51 0 0 1-2.4-2.75 10.06 10.06 0 0 1-.88-4.36 10 10 0 0 1 .88-4.31 6.68 6.68 0 0 1 2.39-2.81 6.42 6.42 0 0 1 3.53-1 6 6 0 0 1 2.63.61 6.11 6.11 0 0 1 2.14 1.76v-7.9h4.1v21.34h-4.1zm0-8.47a3.72 3.72 0 0 0-1.5-1.27 4.53 4.53 0 0 0-2-.5 3.59 3.59 0 0 0-2.82 1.25 4.86 4.86 0 0 0-1.08 3.28 4.77 4.77 0 0 0 1.08 3.24 3.56 3.56 0 0 0 2.82 1.25 4.52 4.52 0 0 0 2-.49 3.8 3.8 0 0 0 1.5-1.27zM226.35 23a7.64 7.64 0 0 1 2.85-2.93 7.85 7.85 0 0 1 4.13-1.1 7.57 7.57 0 0 1 4 1.08 7.22 7.22 0 0 1 2.73 3 9.77 9.77 0 0 1 1 4.44v.89h-11.48a4 4 0 0 0 1.38 2.62 4.54 4.54 0 0 0 3.07 1 6.49 6.49 0 0 0 2.26-.42 5.24 5.24 0 0 0 1.87-1.12l1.79 2.63a7.71 7.71 0 0 1-2.82 1.58 11.32 11.32 0 0 1-3.55.56 8.83 8.83 0 0 1-4.22-1 7.32 7.32 0 0 1-3-2.85 8.32 8.32 0 0 1-1.07-4.28 8.3 8.3 0 0 1 1.06-4.1zm4.29.25a4.1 4.1 0 0 0-1.14 2.38h7.61a3.92 3.92 0 0 0-1-2.37 3.52 3.52 0 0 0-2.76-1.05 3.45 3.45 0 0 0-2.71 1.04zM254.64 32.83a6.35 6.35 0 0 1-2.14 1.78 5.83 5.83 0 0 1-2.64.62 6.6 6.6 0 0 1-3.52-1 6.44 6.44 0 0 1-2.45-2.79 9.92 9.92 0 0 1-.88-4.36 9.84 9.84 0 0 1 .88-4.31 6.73 6.73 0 0 1 2.44-2.77 6.47 6.47 0 0 1 3.54-1 6 6 0 0 1 2.62.61 6.06 6.06 0 0 1 2.15 1.76v-2h4.09v15.44h-4.09zm0-8.44a3.76 3.76 0 0 0-1.51-1.27 4.46 4.46 0 0 0-2-.5 3.61 3.61 0 0 0-2.82 1.24 4.77 4.77 0 0 0-1.09 3.26 4.77 4.77 0 0 0 1.09 3.24 3.56 3.56 0 0 0 2.82 1.25 4.44 4.44 0 0 0 2-.49 3.76 3.76 0 0 0 1.51-1.27zM263.87 34.16a4.2 4.2 0 0 1-1.1-3.16V13.47h4.06v16.45a1.9 1.9 0 0 0 .38 1.21 1.26 1.26 0 0 0 1 .48 2.78 2.78 0 0 0 .83-.12 1.22 1.22 0 0 0 .54-.32l.87 3.07a5 5 0 0 1-3.36 1 4.51 4.51 0 0 1-3.22-1.08zM272.72 30a7.87 7.87 0 0 0 2.43 1.47 7.48 7.48 0 0 0 2.91.64 3.65 3.65 0 0 0 1.94-.42 1.31 1.31 0 0 0 .65-1.16 1.22 1.22 0 0 0-.76-1.13 10.33 10.33 0 0 0-2.34-.71 21.64 21.64 0 0 1-3.05-.79 5 5 0 0 1-2.11-1.39 3.78 3.78 0 0 1-.9-2.67 4.25 4.25 0 0 1 .75-2.43 5.09 5.09 0 0 1 2.19-1.78 8.09 8.09 0 0 1 3.4-.66 9.76 9.76 0 0 1 6.24 2.12l-1.64 2.78a5.7 5.7 0 0 0-2-1.28 6.82 6.82 0 0 0-2.61-.51 3.59 3.59 0 0 0-1.78.38 1.17 1.17 0 0 0-.65 1.06 1.08 1.08 0 0 0 .72 1 11.19 11.19 0 0 0 2.22.65 21 21 0 0 1 3.17.83 5.34 5.34 0 0 1 2.18 1.47 4 4 0 0 1 .93 2.79 4.36 4.36 0 0 1-.79 2.56 5.12 5.12 0 0 1-2.3 1.78 9.16 9.16 0 0 1-3.6.64 11.62 11.62 0 0 1-3.86-.64 8.65 8.65 0 0 1-3.05-1.76zM17.36 69.17a14.31 14.31 0 0 0 4.44 3.12 13.6 13.6 0 0 0 5.7 1.2 6.87 6.87 0 0 0 4.1-1.07 3.07 3.07 0 0 0 1.46-2.56 2.66 2.66 0 0 0-1.56-2.48 20.81 20.81 0 0 0-4.9-1.62A54.69 54.69 0 0 1 20.5 64a10.25 10.25 0 0 1-4.11-2.82 7.62 7.62 0 0 1-1.75-5.27A8.65 8.65 0 0 1 16.16 51a10.06 10.06 0 0 1 4.25-3.48 15.12 15.12 0 0 1 6.41-1.28q7.62 0 12.48 4.46l-3.8 5a12.53 12.53 0 0 0-4.29-2.62 14.14 14.14 0 0 0-4.87-.89 5.77 5.77 0 0 0-3.48.9 2.8 2.8 0 0 0-1.23 2.39 2.31 2.31 0 0 0 1.49 2.2 28.67 28.67 0 0 0 4.9 1.52 43.73 43.73 0 0 1 6.07 1.8 10.52 10.52 0 0 1 4.17 2.91 7.58 7.58 0 0 1 1.76 5.24 9.38 9.38 0 0 1-3.29 7.46q-3.28 2.84-9.53 2.84-8.49 0-13.58-5.09zM51.68 52.8h-9.36v-6h25.54v6H58.5v26h-6.82zM89.55 73.29h-14.3l-2 5.52h-7.51l12.39-32h8.54l12.34 32h-7.44zm-12.48-5.9h10.61L82.4 52.7zM113.79 67.34h-5v11.47h-6.82v-32h15a11.83 11.83 0 0 1 5.71 1.32 9.15 9.15 0 0 1 3.75 3.67 10.89 10.89 0 0 1 1.29 5.33 9.63 9.63 0 0 1-2 6.38 9 9 0 0 1-5 3.12l7.2 12.19h-7.82zm5.59-13.46a4.93 4.93 0 0 0-3.43-1.23h-7.15v8.84h7.15a4.93 4.93 0 0 0 3.43-1.23 4.4 4.4 0 0 0 0-6.38zM139.76 52.8h-9.36v-6h25.54v6h-9.32v26h-6.86zM179.41 57.31v21.5h-6.82v-32h7l14.83 20.73V46.8h6.82v32h-6.58zM208.21 54.32a15.55 15.55 0 0 1 6-5.91 18.33 18.33 0 0 1 17.19 0 15.55 15.55 0 0 1 6 5.91 17.94 17.94 0 0 1 0 17.07 15.55 15.55 0 0 1-6 5.91 18.33 18.33 0 0 1-17.19 0 15.55 15.55 0 0 1-6-5.91 17.94 17.94 0 0 1 0-17.07zm23.09 3.15a9.06 9.06 0 0 0-3.44-3.78 10.18 10.18 0 0 0-10.2 0 9.12 9.12 0 0 0-3.41 3.78 12.78 12.78 0 0 0 0 10.77 9.12 9.12 0 0 0 3.41 3.76 10.18 10.18 0 0 0 10.2 0 9.06 9.06 0 0 0 3.44-3.78 12.68 12.68 0 0 0 0-10.77zM262.21 56.83l-5.57 22h-7.25l-9.17-32h7.64l5.64 23.1 6.1-23.13h5.33l6 23.13 5.57-23.13h7.68l-9.12 32h-7.25z" fill="#fff"/></g><path fill="none" d="M0 0h300v250H0z"/></g></svg>