<?xml version="1.0" encoding="utf-8"?>
<svg version="1.1" id="loyaltyVIP" xmlns="http://www.w3.org/2000/svg" xmlns:xlink="http://www.w3.org/1999/xlink" x="0px" y="0px"
	width="250px" height="250px" viewBox="0 0 250 250" style="enable-background:new 0 0 250 250;" xml:space="preserve">
<style type="text/css">
	.st0{fill:#F47920;}
</style>
<path class="st0" d="M125,0C56,0,0,56,0,125s56,125,125,125s125-56,125-125S194,0,125,0z M125,241.7C60.6,241.7,8.3,189.4,8.3,125
	S60.6,8.3,125,8.3S241.7,60.5,241.7,125C241.7,189.4,189.4,241.7,125,241.7z"/>
<path class="st0" d="M57.5,134.1L40,86.7h16.3l10.3,32l10.3-32h16.3l-17.5,47.5L57.5,134.1L57.5,134.1z"/>
<path class="st0" d="M95.8,134.1V86.7h14.4v47.5L95.8,134.1L95.8,134.1z"/>
<path class="st0" d="M115.2,134.1V86.7h25.4c11.1,0,17.1,7.4,17.1,16.3s-6,16.2-17.1,16.2h-11v15L115.2,134.1L115.2,134.1z
	 M143.1,103c0-2.6-1.9-3.8-4.3-3.8h-9.1v7.5h9.1C141.2,106.7,143.1,105.5,143.1,103L143.1,103z"/>
<path class="st0" d="M191.8,100.5V82.2h-20v18.3h-9.1c0.1,0.8,0.1,1.7,0.1,2.5c0,7.5-3.3,13.7-8.7,17.4h17.7v18.3h20v-18.3h18.3
	v-20L191.8,100.5z"/>
<path class="st0" d="M115.2,134.1V86.7h25.4c11.1,0,17.1,7.4,17.1,16.3s-6,16.2-17.1,16.2h-11v15L115.2,134.1L115.2,134.1z
	 M143.1,103c0-2.6-1.9-3.8-4.3-3.8h-9.1v7.5h9.1C141.2,106.7,143.1,105.5,143.1,103L143.1,103z"/>
<path class="st0" d="M56,167.4v-22.6h11.3c5.1,0,7.9,3.4,7.9,7.5s-2.8,7.5-7.9,7.5h-5.5v7.6H56z M69.2,152.2c0-1.6-1.3-2.4-2.8-2.4
	h-4.6v4.8h4.6C67.9,154.6,69.2,153.8,69.2,152.2z"/>
<path class="st0" d="M79.9,156.1c0-6.9,5.2-11.7,12.1-11.7s12.1,4.8,12.1,11.7s-5.2,11.7-12.1,11.7
	C85.2,167.8,79.9,162.9,79.9,156.1z M98.2,156.1c0-3.7-2.4-6.5-6.1-6.5s-6.2,2.8-6.2,6.5s2.4,6.5,6.2,6.5
	C95.8,162.6,98.2,159.8,98.2,156.1z"/>
<path class="st0" d="M110.4,167.4v-22.6h5.8v22.6H110.4z"/>
<path class="st0" d="M139.1,167.4l-9.6-13.1v13.1h-5.8v-22.6h6l9.1,12.4v-12.4h5.9v22.6H139.1z"/>
<path class="st0" d="M157.2,167.4v-17.5h-6.3v-5.1h18.5v5.1h-6.3v17.5H157.2z"/>
<path class="st0" d="M173.6,164.1l3.1-4.5c1.9,1.9,4.5,3,7.2,3c2,0,3.2-0.7,3.2-1.8c0-3-12.8-0.5-12.8-9.2c0-3.8,3.2-7.2,9-7.2
	c3.3-0.1,6.6,1,9.2,3.1l-3.2,4.4c-1.9-1.5-4.2-2.4-6.6-2.4c-1.7,0-2.4,0.6-2.4,1.6c0,2.8,12.8,0.7,12.8,9.1c0,4.5-3.4,7.6-9.4,7.6
	C179.1,167.8,175.9,166.4,173.6,164.1z"/>
</svg>
