<svg id="Layer_1" data-name="Layer 1" xmlns="http://www.w3.org/2000/svg" viewBox="0 0 43.21 69.89"><defs><style>.cls-1{fill:#4976e6;}</style></defs><circle class="cls-1" cx="5.57" cy="64.32" r="5.57"/><rect class="cls-1" x="26.48" y="60.45" width="0.33" height="4.85" transform="translate(-49.54 56.47) rotate(-68)"/><rect class="cls-1" x="24.21" y="62.72" width="4.85" height="0.33" transform="translate(-49.54 56.47) rotate(-68)"/><rect class="cls-1" x="24.22" y="62.71" width="4.84" height="0.34" transform="translate(-30.36 7.86) rotate(-23.01)"/><rect class="cls-1" x="26.47" y="60.46" width="0.34" height="4.84" transform="translate(-30.35 7.85) rotate(-23)"/><polygon class="cls-1" points="17.17 57.17 16.93 56.93 20.32 53.47 20.56 53.71 17.17 57.17"/><polygon class="cls-1" points="20.35 57.14 16.89 53.75 17.13 53.51 20.59 56.9 20.35 57.14"/><polygon class="cls-1" points="16.32 55.51 16.32 55.17 21.16 55.14 21.17 55.47 16.32 55.51"/><polygon class="cls-1" points="18.59 57.75 18.56 52.9 18.89 52.9 18.93 57.74 18.59 57.75"/><rect class="cls-1" x="48.52" y="7.55" width="0.33" height="4.85" transform="translate(13.29 43.82) rotate(-68)"/><rect class="cls-1" x="46.25" y="9.82" width="4.85" height="0.33" transform="translate(13.29 43.82) rotate(-68)"/><rect class="cls-1" x="46.26" y="9.81" width="4.84" height="0.34" transform="translate(-7.92 12.27) rotate(-23.01)"/><rect class="cls-1" x="48.51" y="7.56" width="0.34" height="4.84" transform="translate(-7.93 12.26) rotate(-23)"/><polygon class="cls-1" points="39.21 4.27 38.97 4.04 42.36 0.57 42.6 0.81 39.21 4.27"/><polygon class="cls-1" points="42.4 4.24 38.93 0.85 39.17 0.61 42.63 4 42.4 4.24"/><polygon class="cls-1" points="38.36 2.61 38.36 2.27 43.2 2.24 43.21 2.58 38.36 2.61"/><polygon class="cls-1" points="40.63 4.85 40.6 0 40.94 0 40.97 4.84 40.63 4.85"/><rect class="cls-1" x="44.62" y="22.21" width="0.51" height="7.58" transform="translate(-3.94 50.31) rotate(-68)"/><rect class="cls-1" x="41.08" y="25.75" width="7.58" height="0.51" transform="translate(-3.94 50.31) rotate(-68)"/><rect class="cls-1" x="41.09" y="25.74" width="7.56" height="0.53" transform="translate(-14.49 12.06) rotate(-23.01)"/><rect class="cls-1" x="44.61" y="22.22" width="0.53" height="7.56" transform="translate(-14.49 12.05) rotate(-23)"/><polygon class="cls-1" points="34.52 21.33 34.14 20.96 39.44 15.56 39.81 15.93 34.52 21.33"/><polygon class="cls-1" points="39.5 21.28 34.09 15.98 34.46 15.61 39.87 20.91 39.5 21.28"/><polygon class="cls-1" points="33.2 18.73 33.19 18.21 40.76 18.15 40.77 18.68 33.2 18.73"/><polygon class="cls-1" points="36.74 22.23 36.69 14.66 37.22 14.66 37.27 22.23 36.74 22.23"/><path class="cls-1" d="M46.79,37.72l1.22.6-1.22.62.75,1,1-.92.16,1.25L49.89,40l-.54-1.15,1.3.23V37.62l-1.3.24.54-1.17-1.21-.33-.16,1.22-1-.92Z" transform="translate(-7.9 -7.56)"/><path class="cls-1" d="M33.56,13.47l1.22.6-1.22.62.76,1.05,1-.92.16,1.24,1.22-.35-.55-1.16,1.3.23v-1.4l-1.3.23.55-1.16-1.22-.34-.16,1.23-1-.92Z" transform="translate(-7.9 -7.56)"/><rect class="cls-1" x="29.83" y="32.54" width="1.22" height="18.2" transform="translate(-27.46 46.71) rotate(-68)"/><rect class="cls-1" x="21.34" y="41.03" width="18.2" height="1.22" transform="translate(-27.46 46.71) rotate(-68)"/><rect class="cls-1" x="21.36" y="41" width="18.15" height="1.27" transform="translate(-21.75 7.66) rotate(-23.01)"/><rect class="cls-1" x="29.81" y="32.56" width="1.27" height="18.16" transform="translate(-21.75 7.65) rotate(-23)"/><polygon class="cls-1" points="16.64 41.01 15.74 40.13 28.45 27.15 29.35 28.04 16.64 41.01"/><polygon class="cls-1" points="28.59 40.89 15.61 28.18 16.5 27.27 29.48 39.99 28.59 40.89"/><polygon class="cls-1" points="13.47 34.78 13.45 33.51 31.62 33.38 31.64 34.65 13.47 34.78"/><polygon class="cls-1" points="21.98 43.17 21.85 25 23.11 24.99 23.24 43.16 21.98 43.17"/></svg>