<svg id="Layer_1" data-name="Layer 1" xmlns="http://www.w3.org/2000/svg" viewBox="0 0 450 228"><defs><style>.cls-1{fill:#ed1941;}</style></defs><title>Artboard 1</title><path class="cls-1" d="M4,169.41l-1.92,1.92L.15,169.41l1.92-1.93L4,169.41Zm3.4-1.93-1.92,1.93,1.92,1.92,1.93-1.92-1.93-1.93Zm7.1,1.93-1.92,1.92-1.92-1.92,1.92-1.93,1.92,1.93Zm3.4-1.93L16,169.41l1.92,1.92,1.93-1.92-1.93-1.93Zm7.25,1.93-1.92,1.92-1.93-1.92,1.93-1.93,1.92,1.93Zm3.4-1.93-1.92,1.93,1.92,1.92,1.92-1.92-1.92-1.93Zm7.25,1.93-1.93,1.92-1.92-1.92,1.92-1.93,1.93,1.93Zm3.4-1.93-1.92,1.93,1.92,1.92,1.92-1.92-1.92-1.93Zm7.24,1.93-1.92,1.92-1.92-1.92,1.92-1.93,1.92,1.93Zm3.41-1.93-1.93,1.93,1.93,1.92,1.92-1.92-1.92-1.93Zm7.24,1.93-1.92,1.92-1.92-1.92,1.92-1.93,1.92,1.93Zm3.4-1.93-1.92,1.93,1.92,1.92,1.93-1.92-1.93-1.93Zm7.25,1.93-1.92,1.92-1.93-1.92,1.93-1.93,1.92,1.93Zm3.4-1.93-1.92,1.93,1.92,1.92,1.92-1.92-1.92-1.93Zm7.25,1.93-1.93,1.92-1.92-1.92,1.92-1.93,1.93,1.93Zm3.4-1.93-1.92,1.93,1.92,1.92,1.92-1.92-1.92-1.93Zm7.1,1.93L87,171.33,85,169.41,87,167.48l1.93,1.93Zm3.4-1.93-1.93,1.93,1.93,1.92,1.92-1.92-1.92-1.93Zm7.24,1.93-1.92,1.92-1.92-1.92,1.92-1.93,1.92,1.93Zm3.4-1.93L101,169.41l1.92,1.92,1.93-1.92-1.93-1.93Zm7.25,1.93-1.92,1.92-1.92-1.92,1.92-1.93,1.92,1.93Zm3.4-1.93-1.92,1.93,1.92,1.92,1.92-1.92-1.92-1.93Zm7.25,1.93-1.92,1.92L117,169.41l1.93-1.93,1.92,1.93Zm3.4-1.93-1.92,1.93,1.92,1.92,1.92-1.92-1.92-1.93Zm7.25,1.93-1.93,1.92-1.92-1.92,1.92-1.93,1.93,1.93Zm3.4-1.93-1.93,1.93,1.93,1.92,1.92-1.92-1.92-1.93Zm7.24,1.93-1.92,1.92-1.92-1.92,1.92-1.93,1.92,1.93Zm3.4-1.93-1.92,1.93,1.92,1.92,1.93-1.92-1.93-1.93Zm7.1,1.93-1.92,1.92-1.92-1.92,1.92-1.93,1.92,1.93Zm3.55-1.93-1.92,1.93,1.92,1.92,1.92-1.92-1.92-1.93Zm7.1,1.93-1.92,1.92-1.92-1.92,1.92-1.93,1.92,1.93Zm3.4-1.93-1.92,1.93,1.92,1.92,1.92-1.92-1.92-1.93Zm7.25,1.93L172,171.33l-1.92-1.92,1.92-1.93,1.93,1.93Zm3.4-1.93-1.92,1.93,1.92,1.92,1.92-1.92-1.92-1.93Zm7.1,1.93-1.93,1.92-1.92-1.92,1.92-1.93,1.93,1.93Zm3.4-1.93-1.92,1.93,1.92,1.92,1.92-1.92-1.92-1.93Zm7.24,1.93-1.92,1.92-1.92-1.92,1.92-1.93,1.92,1.93Zm3.41-1.93-1.93,1.93,1.93,1.92,1.92-1.92-1.92-1.93Zm7.24,1.93-1.92,1.92-1.92-1.92,1.92-1.93,1.92,1.93Zm3.4-1.93-1.92,1.93,1.92,1.92,1.93-1.92-1.93-1.93Zm7.25,1.93-1.92,1.92-1.93-1.92,1.93-1.93,1.92,1.93Zm3.4-1.93-1.92,1.93,1.92,1.92,1.92-1.92-1.92-1.93Zm7.25,1.93-1.93,1.92-1.92-1.92,1.92-1.93,1.93,1.93Zm3.4-1.93-1.92,1.93,1.92,1.92,1.92-1.92-1.92-1.93Zm7.1,1.93-1.93,1.92-1.92-1.92,1.92-1.93,1.93,1.93Zm3.4-1.93L239,169.41l1.93,1.92,1.92-1.92-1.92-1.93Zm7.24,1.93-1.92,1.92-1.92-1.92,1.92-1.93,1.92,1.93Zm3.4-1.93-1.92,1.93,1.92,1.92,1.93-1.92-1.93-1.93Zm7.25,1.93-1.92,1.92L255,169.41l1.92-1.93,1.92,1.93Zm3.4-1.93-1.92,1.93,1.92,1.92,1.92-1.92-1.92-1.93Zm7.25,1.93-1.92,1.92-1.93-1.92,1.93-1.93,1.92,1.93Zm3.4-1.93-1.92,1.93,1.92,1.92,1.92-1.92-1.92-1.93Zm7.25,1.93-1.93,1.92-1.92-1.92,1.92-1.93,1.93,1.93Zm3.4-1.93-1.93,1.93,1.93,1.92,1.92-1.92-1.92-1.93Zm7.24,1.93-1.92,1.92-1.92-1.92,1.92-1.93,1.92,1.93Zm3.4-1.93-1.92,1.93,1.92,1.92,1.93-1.92-1.93-1.93Zm7.1,1.93-1.92,1.92-1.92-1.92,1.92-1.93,1.92,1.93Zm3.4-1.93-1.92,1.93,1.92,1.92,1.93-1.92-1.93-1.93Zm7.25,1.93L310,171.33,308,169.41l1.93-1.93,1.92,1.93Zm3.4-1.93-1.92,1.93,1.92,1.92,1.92-1.92-1.92-1.93Zm7.25,1.93-1.93,1.92-1.92-1.92,1.92-1.93,1.93,1.93Zm3.4-1.93L324,169.41l1.92,1.92,1.92-1.92-1.92-1.93Zm7.24,1.93-1.92,1.92-1.92-1.92,1.92-1.93,1.92,1.93Zm3.41-1.93-1.93,1.93,1.93,1.92,1.92-1.92-1.92-1.93Zm7.24,1.93-1.92,1.92L340,169.41l1.92-1.93,1.92,1.93Zm3.4-1.93-1.92,1.93,1.92,1.92,1.93-1.92-1.93-1.93Zm7.25,1.93-1.92,1.92-1.93-1.92,1.93-1.93,1.92,1.93Zm3.4-1.93L356,169.41l1.92,1.92,1.92-1.92-1.92-1.93Zm7.25,1.93-1.93,1.92-1.92-1.92,1.92-1.93,1.93,1.93Zm3.4-1.93-1.92,1.93,1.92,1.92,1.92-1.92-1.92-1.93Zm7.24,1.93-1.92,1.92-1.92-1.92,1.92-1.93,1.92,1.93Zm3.41-1.93-1.93,1.93,1.93,1.92,1.92-1.92-1.92-1.93Zm7.24,1.93-1.92,1.92-1.92-1.92,1.92-1.93,1.92,1.93Zm3.4-1.93-1.92,1.93,1.92,1.92,1.93-1.92-1.93-1.93Zm7.1,1.93L395,171.33l-1.92-1.92,1.92-1.93,1.92,1.93Zm3.4-1.93-1.92,1.93,1.92,1.92,1.92-1.92-1.92-1.93Zm7.25,1.93-1.92,1.92-1.93-1.92,1.93-1.93,1.92,1.93Zm3.4-1.93L409,169.41l1.92,1.92,1.92-1.92L411,167.48Zm7.25,1.93-1.93,1.92-1.92-1.92,1.92-1.93,1.93,1.93Zm3.4-1.93-1.93,1.93,1.93,1.92,1.92-1.92-1.92-1.93Zm7.24,1.93-1.92,1.92L425,169.41l1.92-1.93,1.92,1.93Zm3.4-1.93-1.92,1.93,1.92,1.92,1.93-1.92-1.93-1.93Zm7.25,1.93-1.92,1.92-1.92-1.92,1.92-1.93,1.92,1.93ZM0,216.43c1.18,7.54,7.54,11.39,16.56,11.39s16.27-4.58,16.27-12.72c0-6.21-3.4-10.2-11.09-12.42l-7.84-2.22c-5.62-1.62-8.72-3.4-8.72-8.72s5-8.43,11.68-8.43c7.54,0,10.79,3.25,11.83,8.28l3.7-.74c-1.48-6.51-6.36-11.09-15.68-11.09C8,179.76,1.18,184.34,1.18,192c0,6.81,4.14,9.91,10.65,11.69l8.87,2.51c5.77,1.63,8,4.58,8,8.87,0,6.07-5.62,9.17-12.42,9.17-7.69,0-11.83-3.1-12.72-8.43L0,216.43Zm43-19.67H37.41v-3.4H43v-8.57h3.85v8.57h8.58v3.4H46.88V219c0,3.69,1.62,5.32,4.73,5.32a9.52,9.52,0,0,0,4.14-1l.74,3.25A11.92,11.92,0,0,1,51,227.82c-5,0-8-2.66-8-8.43V196.76ZM90.5,210.22c0-10.35-5.91-17.45-14.79-17.45s-14.93,7.1-14.93,17.45,5.91,17.45,14.93,17.45c8.73.15,14.79-6.95,14.79-17.45Zm-3.84,0c0,8.43-4.44,14.05-11.09,14.05-6.81,0-11.09-5.62-11.09-14.05s4.28-14.05,11.09-14.05,11.09,5.62,11.09,14.05Zm26.76-13.46a7.26,7.26,0,0,0-2.66-.44c-4,0-7.39,3-8.87,7.25v23.51H98V193.36h3.85v5.33a10.39,10.39,0,0,1,9.32-6.07,7.3,7.3,0,0,1,3,.6l-.74,3.54Zm28,20.56c-.74,4.44-4.73,7.1-9.46,7.1-6.8,0-11.24-5.33-11.39-13.9h24.85v-1.33c0-9.62-4.74-16.42-13.76-16.42-9.17,0-14.78,7.54-14.78,17.45,0,10.5,5.91,17.45,15.23,17.45,6.65,0,12-4.14,13-9.91l-3.7-.44ZM131.61,196c6.66,0,9.62,5.61,9.76,11.38h-20.7c.74-6.8,4.88-11.38,10.94-11.38ZM142,80.83H66a11.4,11.4,0,0,0-3.25.44,18.64,18.64,0,0,0-3,1.18,16.4,16.4,0,0,0-2.51,1.93A8.26,8.26,0,0,0,55.46,87L39.63,124.3l-16.86-37a11.81,11.81,0,0,0-4.43-4.88,14.65,14.65,0,0,0-7.54-1.62H.15v1.33a11.58,11.58,0,0,1,6.5,1.77,10.66,10.66,0,0,1,4.15,5v46.58a9.45,9.45,0,0,1-.89,4.14,11.71,11.71,0,0,1-2.22,3.11,9.61,9.61,0,0,1-3.4,1.92,12.84,12.84,0,0,1-4.14.59v1.33H23.81V145.3a12.27,12.27,0,0,1-4.14-.59,9.52,9.52,0,0,1-3.4-1.92,7.47,7.47,0,0,1-2.22-3.11,9.45,9.45,0,0,1-.89-4.14V94l21,46.14h.74L55.6,91.47v44.07a9.45,9.45,0,0,1-.88,4.14,12.17,12.17,0,0,1-2.22,3.11,8.46,8.46,0,0,1-3.4,1.92,12.88,12.88,0,0,1-4.14.59v1.33H98.49l2.81-20.85h-.89a43.36,43.36,0,0,1-3.4,6.95,28.32,28.32,0,0,1-5,6.07,26.58,26.58,0,0,1-6.36,4.28,19.45,19.45,0,0,1-7.83,1.63H67V114.25c5.18,0,9.17,1.18,11.83,3.69,2.81,2.52,4.58,6.22,5.77,11.1h1L81.78,97.39h-1A29.11,29.11,0,0,1,80,104a10.36,10.36,0,0,1-2.36,4.59,9.73,9.73,0,0,1-4.29,2.66,20.42,20.42,0,0,1-6.51.89V82.6H73.2a21.45,21.45,0,0,1,8,1.33,15.31,15.31,0,0,1,5.62,3.85,19.57,19.57,0,0,1,3.54,5.91,31.33,31.33,0,0,1,1.78,7.54H93a39.66,39.66,0,0,1,1.62-7.54,19.89,19.89,0,0,1,3.26-6.06,14.15,14.15,0,0,1,5.17-4.14,16.47,16.47,0,0,1,7.4-1.48v64.62h21.88V145.3a12.3,12.3,0,0,1-4.14-.59,9.61,9.61,0,0,1-3.4-1.92,7.65,7.65,0,0,1-2.22-3.11,9.45,9.45,0,0,1-.88-4.14V82.16A14,14,0,0,1,129,84.08a31.31,31.31,0,0,1,6.21,4.73,33.69,33.69,0,0,1,4.73,6.36,36.42,36.42,0,0,1,3.11,6.51h.89L142,80.83Zm-1.19-32.68L138,69H86.36V67.67c3,0,5.33-.74,6.66-2.22,1.48-1.48,2.21-3.85,2.21-6.81V36.76H70.1V58.64c0,6.07,3,9,8.87,9V69H48.21V67.67a12,12,0,0,0,4.14-.6,9.52,9.52,0,0,0,3.4-1.92A7.5,7.5,0,0,0,58,62.05a9.52,9.52,0,0,0,.89-4.14V22.56A20.87,20.87,0,0,0,57.38,14a13.64,13.64,0,0,0-4.29-5.61,17.4,17.4,0,0,0-6.51-3,36.9,36.9,0,0,0-8.43-.89V69H16.27V67.67a12.58,12.58,0,0,0,4.14-.6,9.61,9.61,0,0,0,3.4-1.92A7.68,7.68,0,0,0,26,62.05a9.51,9.51,0,0,0,.88-4.14V4.52a14.23,14.23,0,0,0-7.09,1.92,29.88,29.88,0,0,0-6.51,4.88A35.06,35.06,0,0,0,8,17.53a34,34,0,0,0-3.41,6.36H3.7L6.51,3H79.12V4.37c-3,0-5.18.74-6.66,2.37a9.65,9.65,0,0,0-2.22,6.8V34.69H95.38V13.54a9.65,9.65,0,0,0-2.22-6.8c-1.47-1.63-3.69-2.37-6.65-2.37V3h49.1l2.81,20.85h-.89a43.77,43.77,0,0,0-3.4-6.95,28,28,0,0,0-5-6.06,22.13,22.13,0,0,0-6.36-4.14,19.49,19.49,0,0,0-7.84-1.63h-8.43V34.69A21,21,0,0,0,113,33.8a10.53,10.53,0,0,0,4.29-2.66,11.38,11.38,0,0,0,2.37-4.59,29.72,29.72,0,0,0,.73-6.65h1l3.84,31.65h-1c-1-5-3-8.73-5.62-11.09-2.81-2.52-6.65-3.7-11.83-3.7V67.22h10.79a20,20,0,0,0,7.84-1.63,25.79,25.79,0,0,0,6.36-4.14,28.77,28.77,0,0,0,5-6.06,33.59,33.59,0,0,0,3.4-7h.59ZM450,75.06c0-40.67-23.51-73.5-56.34-73.5-33,0-56.49,32.83-56.49,73.5s23.51,73.5,56.49,73.5c32.68,0,56.34-32.83,56.34-73.5M427.37,96.35c0,26-7.39,48.51-26.32,48.51-24.25,0-41.26-51.17-41.26-90.8C359.79,27.89,367.19,5,386,5c24.1.15,41.4,51.61,41.4,91.39M323.86,103.6c0-22.63-17.3-45.55-51-45.55-13.75,0-28.1,4.88-35.64,15.38l6.51-48.95c10.94,4.14,21,6.22,30.9,6.22C293.54,30.7,312,22,321.2,2.6l-1-.59c-6.06,5.47-16.71,7.24-28.54,7.24C273.73,9.25,254.21,5,244.89,1H244L233.65,80.38h1.92c5-10.64,16-16.41,27.51-16.41,24.25,0,34.75,22.48,34.75,44.07,0,18.93-8.28,38.3-24.55,38.3-15.52,0-35.78-19.37-45.1-44.66h-1.33l5.32,40.81c10.35,3.7,25.44,6.21,37.71,6.21,36.82,0,54-22.47,54-45.1m-101.6,41.85c-14.49-.44-24.1-9.91-24.1-23.07V.23h-.74c-9.32,15.09-26,27.8-46.29,28.39v1.93h5.33c9.31,0,19.22,2.51,19.22,13.45v78.38c0,13.16-9.61,22.48-24.1,23.07v1.33h70.54v-1.33Z"/></svg>