<?xml version="1.0" encoding="utf-8"?>
<!-- Generator: Adobe Illustrator 22.1.0, SVG Export Plug-In . SVG Version: 6.00 Build 0)  -->
<svg version="1.1" id="Layer_1" xmlns="http://www.w3.org/2000/svg" xmlns:xlink="http://www.w3.org/1999/xlink" x="0px" y="0px"
	 viewBox="0 0 505 115" style="enable-background:new 0 0 505 115;" xml:space="preserve">
<style type="text/css">
	.st0{fill:#FFFFFF;}
</style>
<g>
	<g>
		<path class="st0" d="M95.5,93.7h3.4v8.1h9.3v-8.1h3.4v19.5h-3.4V105h-9.3v8.2h-3.4V93.7z"/>
		<path class="st0" d="M118,103.5L118,103.5c0-5.5,4.2-10.1,10.2-10.1s10.2,4.5,10.2,10v0.1c0,5.5-4.2,10.1-10.2,10.1
			S118,109,118,103.5z M134.7,103.5L134.7,103.5c0-3.8-2.8-7-6.6-7c-3.9,0-6.6,3.1-6.6,6.9v0.1c0,3.8,2.8,6.9,6.6,6.9
			C132.1,110.3,134.7,107.3,134.7,103.5z"/>
		<path class="st0" d="M148.4,96.9h-6.2v-3.2H158v3.2h-6.2v16.3h-3.4L148.4,96.9L148.4,96.9z"/>
		<path class="st0" d="M163.9,93.7h14.4v3.1h-11v5.1h9.8v3.1h-9.8v5.2h11.2v3.1h-14.6L163.9,93.7L163.9,93.7z"/>
		<path class="st0" d="M184.8,93.7h3.4V110h10.2v3.1h-13.7V93.7H184.8z"/>
		<path class="st0" d="M202.9,110.3l2.1-2.4c1.9,1.6,3.8,2.5,6.2,2.5c2.1,0,3.4-1,3.4-2.4v-0.1c0-1.4-0.8-2.1-4.4-3
			c-4.1-1-6.5-2.2-6.5-5.8V99c0-3.3,2.8-5.6,6.6-5.6c2.8,0,5.1,0.9,7.1,2.4l-1.8,2.6c-1.8-1.3-3.5-2-5.3-2c-2,0-3.2,1-3.2,2.3v0.1
			c0,1.5,0.9,2.2,4.6,3.1c4.1,1,6.2,2.5,6.2,5.7v0.1c0,3.6-2.9,5.8-7,5.8C208.1,113.4,205.3,112.4,202.9,110.3z"/>
		<path class="st0" d="M245.7,110.9c-1.7,1.6-3.6,2.5-6,2.5c-3.6,0-6.4-2.2-6.4-5.6v-0.1c0-2.5,1.5-4.3,4.1-5.5
			c-1.1-1.4-1.6-2.6-1.6-4.1V98c0-2.6,2.1-4.9,5.6-4.9c3.1,0,5.2,2.1,5.2,4.7v0.1c0,2.6-1.7,4.1-4.3,5.1l3.3,3.4
			c0.8-1.1,1.4-2.4,2.1-3.8l2.6,1.4c-0.8,1.6-1.6,3.1-2.6,4.4l3.1,3.1l-2.6,1.8L245.7,110.9z M243.8,108.9l-4.3-4.4
			c-1.8,0.8-2.6,2-2.6,3.2v0.1c0,1.6,1.4,2.8,3.3,2.8C241.5,110.6,242.7,110,243.8,108.9z M243.7,98.3L243.7,98.3
			c0-1.4-0.9-2.3-2.2-2.3c-1.4,0-2.3,1-2.3,2.3v0.1c0,1,0.4,1.7,1.5,2.9C242.6,100.6,243.7,99.7,243.7,98.3z"/>
		<path class="st0" d="M267,93.7h8.7c2.4,0,4.4,0.7,5.6,1.9c1,1.1,1.6,2.5,1.6,4.2v0.1c0,3.2-1.9,5.1-4.6,5.9l5.3,7.4h-4.1l-4.8-6.8
			h-4.3v6.8H267V93.7z M275.4,103.3c2.4,0,4-1.3,4-3.3l0,0c0-2.1-1.5-3.2-4-3.2h-5v6.5H275.4z"/>
		<path class="st0" d="M289.3,93.7h14.4v3.1h-11v5.1h9.8v3.1h-9.8v5.2h11.2v3.1h-14.6V93.7z"/>
		<path class="st0" d="M308.9,110.3l2.1-2.4c1.9,1.6,3.8,2.5,6.2,2.5c2.1,0,3.4-1,3.4-2.4v-0.1c0-1.4-0.8-2.1-4.4-3
			c-4.1-1-6.5-2.2-6.5-5.8V99c0-3.3,2.8-5.6,6.6-5.6c2.8,0,5.1,0.9,7.1,2.4l-1.8,2.6c-1.8-1.3-3.5-2-5.3-2c-2,0-3.2,1-3.2,2.3v0.1
			c0,1.5,0.9,2.2,4.6,3.1c4.1,1,6.2,2.5,6.2,5.7v0.1c0,3.6-2.9,5.8-7,5.8C314,113.4,311.2,112.4,308.9,110.3z"/>
		<path class="st0" d="M329.4,103.5L329.4,103.5c0-5.5,4.2-10.1,10.2-10.1s10.2,4.5,10.2,10v0.1c0,5.5-4.2,10.1-10.2,10.1
			S329.4,109,329.4,103.5z M346.2,103.5L346.2,103.5c0-3.8-2.8-7-6.6-7c-3.9,0-6.6,3.1-6.6,6.9v0.1c0,3.8,2.8,6.9,6.6,6.9
			C343.5,110.3,346.2,107.3,346.2,103.5z"/>
		<path class="st0" d="M356.1,93.7h8.7c2.4,0,4.4,0.7,5.6,1.9c1,1.1,1.6,2.5,1.6,4.2v0.1c0,3.2-1.9,5.1-4.6,5.9l5.3,7.4h-4.1
			l-4.8-6.8h-4.3v6.8h-3.4L356.1,93.7L356.1,93.7z M364.5,103.3c2.4,0,4-1.3,4-3.3l0,0c0-2.1-1.5-3.2-4-3.2h-5v6.5H364.5z"/>
		<path class="st0" d="M383.2,96.9H377v-3.2h15.8v3.2h-6.2v16.3h-3.4L383.2,96.9L383.2,96.9z"/>
		<path class="st0" d="M396.9,110.3l2.1-2.4c1.9,1.6,3.8,2.5,6.2,2.5c2.1,0,3.4-1,3.4-2.4v-0.1c0-1.4-0.8-2.1-4.4-3
			c-4.1-1-6.5-2.2-6.5-5.8V99c0-3.3,2.8-5.6,6.6-5.6c2.8,0,5.1,0.9,7.1,2.4l-1.8,2.6c-1.8-1.3-3.5-2-5.3-2c-2,0-3.2,1-3.2,2.3v0.1
			c0,1.5,0.9,2.2,4.6,3.1c4.1,1,6.2,2.5,6.2,5.7v0.1c0,3.6-2.9,5.8-7,5.8C402.1,113.4,399.2,112.4,396.9,110.3z"/>
	</g>
	<g>
		<g>
			<g>
				<path class="st0" d="M53,2.7h9.6l12,37.4L87,2.6h7.5l12.4,37.5l12-37.4h9.3l-17.6,50.8H103L90.6,17.3L78.3,53.5h-7.6L53,2.7z"/>
				<path class="st0" d="M150.8,33.3l-20-30.6h10.4L155.3,25l14.3-22.3h10.2l-20,30.3v20.1h-8.9V33.3H150.8z"/>
				<path class="st0" d="M184.6,2.7h8.2l27,34.9V2.7h8.7v50.5h-7.4l-27.8-35.9v35.9h-8.7V2.7z"/>
				<path class="st0" d="M240.1,2.7H259c15.9,0,26.8,10.9,26.8,25.1v0.1c0,14.2-11,25.2-26.8,25.2h-18.8L240.1,2.7L240.1,2.7z
					 M259,45.1c10.6,0,17.5-7.1,17.5-17V28c0-9.9-6.9-17.2-17.5-17.2h-10v34.3H259z"/>
				<path class="st0" d="M295.1,2.7h8.9v21h24v-21h8.9v50.5H328V31.9h-24.1v21.3H295V2.7H295.1z"/>
				<path class="st0" d="M366.3,2.3h8.2l22.2,50.8h-9.4L382.2,41h-23.9l-5.2,12.2H344L366.3,2.3z M379,33.1l-8.7-20.2l-8.7,20.2H379
					z"/>
				<path class="st0" d="M402.5,2.7h9.4l15.3,23.9l15.4-23.9h9.4v50.5h-8.9V17l-15.9,23.8H427l-15.8-23.6v36h-8.7V2.7z"/>
			</g>
			<path class="st0" d="M2.7,82.7c0,0,67.9-21.2,249.5-21.2c182.9,0,250.5,21.1,250.5,21.1S420,68.1,252.2,68.1S2.7,82.7,2.7,82.7z"
				/>
		</g>
	</g>
</g>
</svg>
