<?xml version="1.0" encoding="utf-8"?>
<!-- Generator: Adobe Illustrator 21.1.0, SVG Export Plug-In . SVG Version: 6.00 Build 0)  -->
<svg version="1.1" id="Layer_1" xmlns="http://www.w3.org/2000/svg" xmlns:xlink="http://www.w3.org/1999/xlink" x="0px" y="0px"
	 viewBox="0 0 610.7 200" style="enable-background:new 0 0 610.7 200;" xml:space="preserve">
<style type="text/css">
	.st0{fill:#0032a0;}
</style>
<title>JetBlue_W</title>
<path class="st0" d="M19.3,45.9h22.8v122.3c0,19-13.9,31.8-33.1,31.8H0v-21.5h6.5c7.8,0,12.8-3.6,12.8-12.1L19.3,45.9 M19.3,0h22.8
	v22.8H19.3L19.3,0z"/>
<path class="st0" d="M79.6,92.5c0.5-17.2,10.5-26.4,24-26.4c13.4,0,23.3,9.2,23.9,26.4H79.6 M150.4,111.2V92.5
	c0-29.3-21.7-47.9-46.8-47.9c-21.9,0-46.8,14.3-46.8,58.4c0,46.6,27.1,57.7,50.4,57.7c15.2,0,29.8-5.4,41-18.4l-16.6-14.1
	c-6.7,6.9-16.1,11-24.9,11c-15.7,0-27.1-9.4-27.1-28L150.4,111.2z"/>
<path class="st0" d="M168.5,11.4h22.8v34.5h16.6v17.4h-16.6v66c0,6.3,2.5,8.5,8.1,8.5h8.5v21.5H196c-15.9,0-27.6-10.1-27.6-28V63.3
	h-11.4V45.9h11.4L168.5,11.4z"/>
<path class="st0" d="M283.8,88.6c17.9,0,26,11.4,26,24c0,12.5-8.1,23.9-26,23.9h-37.2V88.6H283.8 M222.4,159.4h67.2
	c24,0,44.3-17.7,44.3-45.2c0-16.1-8.5-32.7-26-36.7V77c18.6-8.3,23.5-21,23.5-34.2c0-25.1-16.1-42.8-47.2-42.8h-61.8V159.4
	 M281.5,21.5c17.5,0,25.7,10.5,25.7,22.8c0,12.5-8.3,22.8-25.7,22.8h-34.9V21.5H281.5z"/>
<path class="st0" d="M347,0h22.8v130c0,5.1,2.9,7.8,8.5,7.8h7.8v21.5h-10.1c-16.6,0-29.1-7.2-29.1-27.5L347,0z"/>
<path class="st0" d="M395.8,45.9h22.8v67.6c0,15.5,9.6,24.4,22.6,24.4c12.7,0,22.4-8.9,22.4-24.4V45.9h22.9v113.5h-22.9v-12.1h-0.4
	c-7.2,8.9-17.5,13.4-29.3,13.4c-17.9,0-38-13.7-38-39.4V45.9z"/>
<path class="st0" d="M521.6,92.5c0.5-17.2,10.5-26.4,24-26.4c13.4,0,23.3,9.2,24,26.4H521.6 M592.3,111.2V92.5
	c0-29.3-21.7-47.9-46.8-47.9c-21.9,0-46.8,14.3-46.8,58.4c0,46.6,27.1,57.7,50.4,57.7c15.2,0,29.8-5.4,41-18.4l-16.6-14.1
	c-6.7,6.9-16.1,11-24.9,11c-15.7,0-27.1-9.4-27.1-28L592.3,111.2z"/>
<path class="st0" d="M600.6,43.9c5.6,0,10.1,4.5,10.1,10.1c0,5.6-4.5,10.1-10.1,10.1c-5.6,0-10.1-4.5-10.1-10.1
	C590.5,48.5,595,43.9,600.6,43.9C600.6,43.9,600.6,43.9,600.6,43.9z M600.6,62.1c4.5,0,7.9-3.4,7.9-8.1c0-4.7-3.4-8.1-7.9-8.1
	c-4.6,0-7.9,3.4-7.9,8.1C592.7,58.7,596.1,62.1,600.6,62.1z M596.8,47.8h4.4c2.7,0,4,1.1,4,3.5c0,2.3-1.4,3.2-3,3.4l3.4,4.8h-2.3
	l-3.4-4.8h-1.2v4.8h-2L596.8,47.8z M598.8,53h1.4c1.6,0,3.1-0.1,3.1-1.6c0-1.4-1.3-1.7-2.7-1.7h-1.8L598.8,53z"/>
</svg>
