<svg fill="none" xmlns="http://www.w3.org/2000/svg" viewBox="0 0 24 24"><path d="M12 24c6.628 0 12-5.372 12-12 0-6.627-5.372-12-12-12C5.373 0 0 5.373 0 12c0 6.628 5.373 12 12 12z" fill="#003E74"/><path d="M6.455 14.39c.113-.056.244-.056.358-.114-.188-.21-.396-.403-.546-.652-.057-.078-.02-.096.019-.116.037 0 .018-.076.037-.116.075-.02.075-.114.113-.172 0-.02 0-.078.02-.096.018-.02.055-.04.093 0 .15.192.32.308.49.44.207.156.433.27.602.462.02 0 .075.04.075 0 .02-.192.094-.384.17-.538.02-.056.038-.134.076-.192.056-.114.188-.192.282-.268.17-.096.357 0 .489-.154.037-.039.113 0 .151 0 .113.058.264.02.357.116-.15.345-.15.71-.263 1.075-.02.077-.056.193-.02.23.17.057.605-.019.622-.038.226 0 .434 0 .66.058.169.037.282.115.432.25.246.191.246.538.208.845 0 .02-.114.134-.151.114-.019 0-.019-.076-.038-.096-.094.078-.263.25-.32.25-.02 0-.131-.115-.188-.154-.188-.134-.415-.096-.621-.076-.245.02-.49-.02-.735.096.095.172.246.268.396.403.226.23.451.403.678.634.15.173.301.288.395.48-.056.039 0 .057-.037.096-.038.02-.038-.058-.076-.058-.037 0-.056.058-.056.097.019.02-.038.134-.075.134a.376.376 0 01-.15.077c-.02 0-.134-.058-.134-.039.038.059.076.135.057.154-.094-.02-.15-.02-.207-.096-.301-.269-.584-.557-.904-.845-.113-.115-.188-.269-.338-.384-.226.537-.377.921-.603 1.46-.057.096-.076.345-.132.365-.038.02-.168-.174-.245-.327 0-.327.038-.442.057-.787v-.058c.02-.441.15-.826.131-1.287 0-.039-.056-.058-.112-.058-.565-.057-1.111-.134-1.675-.21-.133-.02-.265-.02-.397-.077a.316.316 0 00-.112-.06c-.02-.018-.02-.018-.038-.018.226-.23.414-.48.735-.614.15 0 .376-.096.47-.134v-.001zm5.253 3.113c-.038-.02-.019-.058-.019-.058.038-.057.113-.057.15-.057.151-.04.321 0 .472-.04.037-.018.056-.056.075-.056.113-.058.226-.077.357-.116.038-.02.113-.057.076-.115-.132-.153-.264-.288-.339-.46-.037-.097-.113-.173-.113-.27 0-.077.094-.096.17-.057.338.192.564.48.81.787.037.057.094-.077.112-.134.113-.25.188-.539.32-.787.038-.078.094-.174.17-.193.112-.039.188-.115.283-.173.075-.038.131 0 .206-.038.038-.02.113.058.17.04.094-.06.169-.02.263 0 .056.036.075.094.056.152-.094.23-.131.46-.282.692-.113.172-.188.345-.32.519 0 .018-.02.057.02.057.075.02.169 0 .225.039.226.076.453.057.697.095.113.04.113.212.226.308.056.039-.038.095-.113.115-.17.057-.339-.02-.509.038-.282.058-.564 0-.828.115.095.096.189.173.264.27l.226.345c.075.134.112.25.15.384.038.058.02.154.02.23-.039-.02-.039-.076-.058-.096-.037 0-.056.058-.112.058-.038-.02-.057-.059-.076-.077a.565.565 0 01-.131-.23c-.113-.25-.32-.404-.51-.557-.187.403-.32.806-.583 1.19-.018.04-.056.04-.112.04-.02-.02-.038.037-.057.037-.02-.038-.038-.038-.057-.057-.075-.059-.188-.135-.207-.231-.038-.096-.075-.172-.075-.268 0-.02-.038-.058-.038-.058.038-.058.038-.154.056-.192.038-.058.113-.116.113-.173.076-.192.208-.346.246-.539-.359-.056-.735-.037-1.092-.172-.075-.038-.17-.057-.246-.115-.037-.135-.018-.173-.056-.192zm.434-5.973c.112-.288.3-.46.32-.788-.602-.346-1.318-.134-1.77-.94-.114-.174 0-.98.057-1.076.131-.288.395-.288.64-.096.019-.02.207.038.245.057.244-.038.508.059.772.115.337.04.62.173.94.135a.323.323 0 00.057-.192c-.075-.48-.188-.903-.301-1.401-.056-.116-.038-.27-.075-.385-.02-.288-.208-.73-.038-.865.019-.02.056.058.075.04.057-.04.076-.117.132-.097.584.403 1.073 1.019 1.6 1.613.17.173.208-.288.34-.442.037-.077 0-.25.037-.307.132-.25.15-.557.263-.788.208-.288.321-.729.622-.844.207-.058.433.02.62.23.038.02.133 0 .189.058.208.192.376.44.604.672.074.096.112.27.074.345-.056.327-.338.346-.508.577-.32.537-.66 1.075-.98 1.613-.037.077-.13.25-.055.326.451.461.846.94 1.355 1.306.32.212.66.192.94.48.209.25.359.52.453.846-1.148.748-2.447-.48-3.671-.46-.094.018-.075.152-.075.21.056.538.15 1.056.207 1.575.018.365.208.73.263 1.075.02.136.132.48-.038.46-.188 0-.451-.056-.584-.364-.18-.413-.336-.836-.47-1.267-.019-.135-.075-.25-.019-.365.02-.212-.113-.404-.17-.557-.037-.077-.112.039-.168.077-.17.23-.339.44-.49.71-.243.36-.582.646-.98.826-.282.116-.695.174-.884-.268.094-.02.169-.23.113-.288-.433-.672.168-1.076.358-1.556z" fill="#fff"/></svg>