<?xml version="1.0" encoding="utf-8"?>
<svg id="Layer_1" data-name="Layer 1" xmlns="http://www.w3.org/2000/svg" viewBox="0 0 200 27.31">
	<defs>
		<style>.cls-1{fill:#a58520;}.cls-2{fill:#151415;}</style>
	</defs>
	<title>myNB_noTag</title>
	<path class="cls-1" d="M548.32,142.23l-2.27,3.92-12.55-.71,1.26-2.18Zm9.07-12.51,1.14,4.33-17.81-1.17,1.26-2.19Zm-11.8-5.31H556l.79,3-12.47-.79Zm-.92,24.18-1.81,3.13h-13l1.25-2.18Zm22.77-8.41-3.14,5.45h3c1.38,0,3.87-.69,4.63-2.67s-.59-2.79-1.5-2.79Zm3-5.22,2.61,0a4.41,4.41,0,0,0,4.2-2.42c.61-1.5-.2-2.77-1.29-2.77h-2.52Zm-11.8-.91,2.63-4.58,8.91-.57.31-.56-8.24-.58,1.93-3.35h15.29c4.7,0,8.17,1.68,6.82,6.64-.41,1.5-2.32,5.28-7.92,6.86a4.23,4.23,0,0,1,3.64,4.87c-.9,6.05-8.72,8.94-13.06,8.94H550.89l-.89-3.5,9.45-.67.32-.55-10.25-.63-1.1-4.15,14.58-.85.32-.55-26.21-1.66,1.26-2.18,28.21-1.84.32-.55Z" transform="translate(-494 -124.41)"/>
	<path class="cls-2" d="M594.26,137v9.22h-3.93V129.87h3.6v1.45H594a3.8,3.8,0,0,1,3.84-2v3.81C595.26,133.21,594.26,134.65,594.26,137Z" transform="translate(-494 -124.41)"/>
	<path class="cls-2" d="M614.74,139.82H602a3.42,3.42,0,0,0,.53,1.18,4.75,4.75,0,0,0,4,2.19,4.08,4.08,0,0,0,3.78-2.1h4.13a8.46,8.46,0,0,1-7.91,5.7,8.74,8.74,0,0,1,0-17.48,8.41,8.41,0,0,1,8.47,8.53A9.55,9.55,0,0,1,614.74,139.82Zm-8.21-6.91a4.56,4.56,0,0,0-4.64,3.75H611A4.21,4.21,0,0,0,606.53,132.91Z" transform="translate(-494 -124.41)"/>
	<path class="cls-2" d="M650.44,146.26v-2a8.07,8.07,0,0,1-5.72,2.57c-4.93,0-8-4.17-8-8.83s3.36-8.65,8.2-8.65a7.24,7.24,0,0,1,4.85,1.95,5,5,0,0,1,.59.68h.05v-2.07h3.61v16.39Zm-4.9-13.35a5.15,5.15,0,0,0,0,10.28c2.93,0,4.79-2.37,4.79-5.17A4.81,4.81,0,0,0,645.54,132.91Z" transform="translate(-494 -124.41)"/>
	<path class="cls-2" d="M660,137v9.22h-3.93V129.87h3.6v1.45h.06a3.8,3.8,0,0,1,3.84-2v3.81C661,133.21,660,134.65,660,137Z" transform="translate(-494 -124.41)"/>
	<path class="cls-2" d="M677.23,146.26v-2h-.06a6.09,6.09,0,0,1-5.22,2.54,8.52,8.52,0,0,1-8.35-8.71,8.63,8.63,0,0,1,5.13-8.06,8,8,0,0,1,3.22-.71,6.26,6.26,0,0,1,5,2v-6.91h3.92v21.85Zm-4.87-13.35a5.15,5.15,0,1,0,4.84,5.14A5.06,5.06,0,0,0,672.36,132.91Z" transform="translate(-494 -124.41)"/>
	<path class="cls-2" d="M688.27,146.79a6.27,6.27,0,0,1-4.9-2.16,6.17,6.17,0,0,1-1.24-3.54h4c.26,1.18.8,2.1,2.15,2.1a1.68,1.68,0,0,0,1.77-1.66,1.54,1.54,0,0,0-.23-.85c-.53-.74-2.63-1.3-3.45-1.6-2.19-.77-3.67-2.27-3.67-4.69a5.43,5.43,0,0,1,10.84-.06h-3.84a1.55,1.55,0,0,0-1.56-1.42,1.44,1.44,0,0,0-1.51,1.42c0,.86.68,1.09,1.36,1.36.47.17.94.32,1.42.47,2.53.8,4.57,1.86,4.57,4.9A5.62,5.62,0,0,1,688.27,146.79Z" transform="translate(-494 -124.41)"/>
	<path class="cls-2" d="M631.35,146.25h-2.42l-3.07-10.62h-.06l-3.1,10.62h-2.42l-5.9-16.38h4.19l3,10h.06l2.69-10h3.13l2.65,10h.06l3-10h4.2Z" transform="translate(-494 -124.41)"/>
	<polygon class="cls-2" points="38.29 5.47 32.7 15.45 29.48 5.47 24.99 5.47 30.18 19.95 26.07 27.31 30.41 27.31 42.95 5.47 38.29 5.47"/>
	<path class="cls-2" d="M512,129.31a6,6,0,0,0-5.29,2.57,5.46,5.46,0,0,0-4.72-2.57,4.88,4.88,0,0,0-4.28,1.95h-.06v-1.39H494v16.39h3.93v-8.18c0-2.22.17-5.17,3.13-5.17,2.48,0,3.27,2.1,3.27,4.25v9.1h3.93v-8.48a6.77,6.77,0,0,1,.59-3.33,3.18,3.18,0,0,1,2.71-1.54c2.54,0,3.1,2.16,3.1,4.25v9.1h3.93v-9.57a8.4,8.4,0,0,0-1.24-4.84A6.53,6.53,0,0,0,512,129.31Z" transform="translate(-494 -124.41)"/>
</svg>