<svg id="icon-pfflyers" xmlns="http://www.w3.org/2000/svg" viewBox="0 0 108 32">
	<title>pfflyers</title>
	<path d="M81.482 23.99c-2.531 0-2.575-4.226-2.575-4.226l8.761-0.022c0 0-0.308-6.934-5.613-6.912s-6.494 4.865-6.472 7.066 1.211 6.582 5.877 6.428 6.053-4.733 6.053-4.733l-3.5 0.022c0-0.044 0.022 2.355-2.531 2.377zM81.923 15.141c2.069 0 2.399 3.082 2.399 3.082l-5.261 0.022c0-0.022 0.814-3.104 2.862-3.104v0z"></path>
	<path d="M93.611 14.282l0.198-1.101h-3.434l-2.113 12.855 3.434-0.176 1.365-8.211c1.519-1.585 4.27-1.453 4.27-1.453l0.462-3.83c-0.022 0-2.575 0.66-4.182 1.915z"></path>
	<path d="M105.762 15.845l1.607-1.497c-0.88-1.365-2.421-2.201-4.072-2.179-2.157-0.044-3.94 1.651-4.006 3.808 0 1.453 1.453 2.994 2.289 3.83s1.805 2.267 1.101 2.972-1.695 0.11-2.355-0.528-1.343-1.453-1.343-1.453l-2.267 1.937c0 0 1.057 1.585 2.355 2.399s2.818 1.123 4.358 0.462 2.487-2.113 2.421-3.522-0.528-2.465-1.277-3.258-1.321-1.299-1.915-1.937-0.484-1.321 0.11-1.871c0.506-0.528 1.321-0.594 1.915-0.132 0.374 0.264 0.748 0.594 1.079 0.969z"></path>
	<path d="M55.882 12.389l0.462-3.17-4.336 0.11 0.308-1.761-3.654 0.022-0.286 1.849-1.563 0.044-0.33 1.827-8.013 0.022-0.22 1.101 9.641-0.022-0.792 4.997-1.629 0.022-0.374 2.223-8.299 0.022-0.22 1.101 9.972-0.044-0.66 4.050-11.667 0.044c0.198 0.374 0.396 0.726 0.572 1.101l14.484-0.044 0.836-5.173h2.553v-0.022h1.497l0.484-3.324-3.984 0.044 0.836-4.975 4.38-0.044z"></path>
	<path d="M59.998 7.524l-2.84 17.17-4.38 0.022 0.462 1.079 7.11-0.022 3.126-18.27z"></path>
	<path d="M75.957 13.468l-3.544 0.022-3.17 7.352-1.959-7.33h-3.456l3.236 12.569-1.211 2.752-20.383 0.066 0.44 1.101 22.651-0.088z"></path>
	<path d="M33.561 4.685c-0.616 0.044-4.447 0.418-7.77 0.748 0.286-1.013 0.484-1.673 0.528-1.783 0.176-0.572-0.11-0.748-0.793-0.66s-2.686 0.396-3.060 1.805c-0.022 0.132-0.132 0.484-0.264 0.969-0.594 0.044-1.035 0.11-1.233 0.11-1.277 0.11-1.365 0.594-1.563 1.255s-0.352 1.431 0.814 1.387c0.198-0.022 0.638-0.044 1.233-0.088-0.462 1.629-1.035 3.632-1.607 5.701-0.726 0.044-1.211 0.11-1.387 0.11-0.902 0.088-1.343 0.66-1.607 1.409s-0.132 1.541 0.814 1.541c0.176 0 0.638-0.022 1.277-0.044-1.189 4.16-2.201 7.748-2.267 7.902-0.11 0.352-0.374 1.277 0.66 1.012s2.862-0.902 3.302-2.642c0.154-0.616 0.902-3.302 1.805-6.472 3.082-0.176 6.604-0.396 7.352-0.418 1.321-0.088 1.321-0.352 2.003-1.651s0.022-1.673-1.123-1.585c-0.638 0.066-4.204 0.33-7.352 0.572 0.572-1.981 1.145-3.984 1.629-5.679 3.346-0.264 7.308-0.594 8.013-0.682 1.189-0.132 1.123-0.484 1.431-1.431s0.198-1.453-0.836-1.387z"></path>
	<path d="M11.857 4.289c-0.77-0.198-1.563-0.286-2.355-0.22 0.11-0.44 0.176-0.748 0.198-0.88 0.264-1.233-0.66-1.453-1.277-0.902s-1.959 1.739-2.135 2.377c0 0.022-0.022 0.066-0.044 0.132-0.925 0.33-1.783 0.793-2.553 1.365-0.462 0.44-0.264 2.091 0.484 1.761 0.286-0.132 0.792-0.374 1.409-0.616-0.462 1.805-1.145 4.292-1.805 6.846-0.33-0.264-0.616-0.55-0.902-0.858-0.506-0.484-2.047 0.616-1.893 1.321 0.088 0.418 0.594 1.673 1.959 2.708-0.991 3.764-1.849 7-1.981 7.462-0.286 1.123-0.022 1.629 0.814 1.431s2.553-1.277 2.796-2.267c0.088-0.33 0.638-2.487 1.321-5.305 0.352 0.088 0.704 0.132 1.057 0.176 4.513 0.506 8.475-2.686 9.047-6.692s-0.462-6.802-4.138-7.836zM12.98 10.738c-0.198 2.311-1.541 4.931-4.777 4.953-0.528 0-1.057-0.044-1.563-0.154l2.223-8.981c0.176 0 0.352-0.022 0.55 0 2.223 0.088 3.786 1.871 3.566 4.182z"></path>
	<path d="M11.989 24.628c0 0.947-0.77 1.695-1.717 1.695s-1.695-0.77-1.695-1.717c0-0.947 0.77-1.695 1.695-1.695 0.947 0 1.717 0.77 1.717 1.717v0z"></path>
	<path d="M29.709 24.562c0 0.947-0.77 1.717-1.695 1.717-0.947 0-1.717-0.77-1.717-1.695 0-0.947 0.748-1.695 1.695-1.717 0.947 0 1.695 0.748 1.717 1.673 0 0 0 0.022 0 0.022z"></path>
</svg>
