<?xml version="1.0" encoding="utf-8"?>
<!-- Generator: Adobe Illustrator 21.1.0, SVG Export Plug-In . SVG Version: 6.00 Build 0)  -->
<svg version="1.1" xmlns="http://www.w3.org/2000/svg" xmlns:xlink="http://www.w3.org/1999/xlink" x="0px" y="0px"
	 viewBox="0 0 244 244" style="enable-background:new 0 0 244 244;" xml:space="preserve">
<style type="text/css">
	.st0{display:none;}
	.st1{display:inline;fill:#231F20;stroke:#231F20;stroke-miterlimit:10;}
	.st2{display:none;fill:#FFFFFF;}
	.st3{fill:#FFFFFF;stroke:#231F20;stroke-miterlimit:10;}
</style>
<g id="Layer_2" class="st0">
	<rect y="-30" class="st1" width="254.4" height="286"/>
</g>
<g id="art">
	<circle class="st2" cx="122" cy="122" r="122"/>
	<g>
		<path class="st3" d="M122,0C54.6,0,0,54.6,0,122c0,51.7,32.2,95.8,77.5,113.6c-1.1-9.7-2-24.5,0.4-35c2.2-9.5,14.3-60.6,14.3-60.6
			s-3.6-7.3-3.6-18.1c0-17,9.8-29.6,22.1-29.6c10.4,0,15.4,7.8,15.4,17.2c0,10.5-6.7,26.1-10.1,40.6c-2.9,12.1,6.1,22,18.1,22
			c21.7,0,38.3-22.9,38.3-55.9c0-29.2-21-49.6-51-49.6c-34.7,0-55.1,26-55.1,52.9c0,10.5,4,21.7,9.1,27.8c1,1.2,1.1,2.3,0.8,3.5
			c-0.9,3.9-3,12.1-3.4,13.8c-0.5,2.2-1.8,2.7-4.1,1.6c-15.2-7.1-24.8-29.4-24.8-47.3c0-38.5,28-73.8,80.6-73.8
			c42.3,0,75.2,30.2,75.2,70.5c0,42-26.5,75.9-63.3,75.9c-12.4,0-24-6.4-28-14c0,0-6.1,23.3-7.6,29c-2.8,10.6-10.2,23.9-15.2,32
			c11.4,3.5,23.5,5.4,36.1,5.4c67.4,0,122-54.6,122-122C244,54.6,189.4,0,122,0z"/>
	</g>
</g>
</svg>
