<svg xmlns="http://www.w3.org/2000/svg" width="149" height="41">
    <path fill-rule="evenodd" d="M148.9 24.48c-.24.464-.458.954-.623 1.426a9.372 9.372 0 0 1-.684 1.502c-.271.479-.553.947-.836 1.388-.288.443-.587.874-.884 1.28a28.261 28.261 0 0 1-2.182 2.466 22.582 22.582 0 0 1-2.467 2.144c-3.909 2.925-8.223 4.688-12.817 5.246a27.459 27.459 0 0 1-6.437-.048c-16.712-3.056-18.421-16.399-18.421-16.399a14.794 14.794 0 0 1 .305-6.535 18.208 18.208 0 0 1 2.848-6.012 24.352 24.352 0 0 1 4.599-4.782 29.302 29.302 0 0 1 7.179-4.033 31.108 31.108 0 0 1 7.938-1.945 32.477 32.477 0 0 1 8.182.164 29.929 29.929 0 0 1 7.913 2.303.385.385 0 0 1 .242.242c.051.136.021.291-.083.458a2.073 2.073 0 0 1-.476.509 3.573 3.573 0 0 1-.652.413c-.324.163-.585.171-.789.036-2.279-1.01-4.817-1.752-7.496-2.18a30.477 30.477 0 0 0-8.055-.213 28.06 28.06 0 0 0-7.726 1.958 20.462 20.462 0 0 0-6.541 4.308 18.981 18.981 0 0 0-3.887 5.425 14.17 14.17 0 0 0-1.414 6.408s-.544 10.535 12.226 16.659c2.011.8 4.065 1.302 6.116 1.497 2.469.254 4.981.144 7.479-.333a21.399 21.399 0 0 0 7.082-2.72 27.545 27.545 0 0 0 2.858-2.076 17.408 17.408 0 0 0 2.474-2.534c.358-.469.711-.952 1.06-1.445.335-.478.642-.974.904-1.473.191-.377.373-.783.545-1.199.113-.275.223-.545.334-.811l-15.542.41c-.209.007-.301-.097-.345-.186-.044-.087-.076-.232.035-.437.083-.161.211-.315.388-.474.156-.135.325-.27.513-.408.231-.166.406-.246.557-.249l16.193-.429c.089-.001.361-.008.459.226.033.08.07.245-.072.453zM99.175 40.081a2.283 2.283 0 0 1-.526.273c-.209.074-.387.063-.532-.022a.349.349 0 0 1-.241-.234 1838.543 1838.543 0 0 1-10.155-9.815C84.334 26.99 80.93 23.68 77.5 20.35c-2.901-2.821-5.786-5.625-8.655-8.412a3048.465 3048.465 0 0 0-8.282-8.01v35.681c0 .24-.109.465-.329.667a3.833 3.833 0 0 1-.526.408 1.428 1.428 0 0 1-.588.224.729.729 0 0 1-.088.005.418.418 0 0 1-.276-.086.454.454 0 0 1-.152-.349V1.831c0-.194.086-.386.262-.591a2.52 2.52 0 0 1 .47-.424c.179-.126.361-.212.549-.255.234-.053.416-.016.564.099l.116.074c3.351 3.282 6.772 6.604 10.175 9.878 3.376 3.25 6.8 6.593 10.176 9.935 2.93 2.821 5.839 5.626 8.724 8.411 2.745 2.654 5.514 5.324 8.303 8.01V1.342c0-.241.112-.465.329-.667.17-.155.347-.293.529-.409.199-.126.398-.202.588-.224.381-.041.516.193.516.431v38.593c0 .193-.087.386-.261.591a2.69 2.69 0 0 1-.469.424zm-46.39.553a2.792 2.792 0 0 1-.636.242.818.818 0 0 1-.172.022c-.258 0-.437-.174-.437-.421V1.342c0-.232.118-.452.345-.656.184-.165.398-.306.635-.425a2.06 2.06 0 0 1 .67-.219c.428-.047.578.194.576.429v39.137c0 .2-.112.398-.342.604-.186.16-.395.303-.639.422zM13.778 31.8a23.567 23.567 0 0 0 6.77 4.716 28.33 28.33 0 0 0 7.938 2.363c1.401.202 2.826.304 4.237.304 1.352 0 2.726-.094 4.09-.276a28.732 28.732 0 0 0 7.916-2.228c.097-.05.255-.084.501-.107l.079-.003c.244 0 .348.125.391.199.075.134.065.291-.035.468a1.327 1.327 0 0 1-.539.666c-.233.155-.45.273-.655.354a31.25 31.25 0 0 1-10.562 2.652 30.41 30.41 0 0 1-10.852-1.123 28.635 28.635 0 0 1-4.175-1.534 25.941 25.941 0 0 1-3.911-2.225 23.568 23.568 0 0 1-3.439-2.886 18.718 18.718 0 0 1-2.738-3.528 17.615 17.615 0 0 1-2.297-6.128 14.795 14.795 0 0 1 .306-6.535 18.142 18.142 0 0 1 2.847-6.011 24.348 24.348 0 0 1 4.599-4.781 29.426 29.426 0 0 1 7.179-4.035A31.212 31.212 0 0 1 29.366.177a32.573 32.573 0 0 1 8.182.164 30.011 30.011 0 0 1 7.916 2.304.38.38 0 0 1 .236.241c.051.137.027.292-.08.46-.11.173-.271.343-.475.509a3.692 3.692 0 0 1-.653.413c-.324.162-.584.169-.786.035-2.281-1.009-4.819-1.752-7.497-2.18a30.635 30.635 0 0 0-8.059-.215 28.21 28.21 0 0 0-7.725 1.961 20.445 20.445 0 0 0-6.543 4.307 19.116 19.116 0 0 0-3.885 5.425 14.2 14.2 0 0 0-1.412 6.408c0 2.233.469 4.373 1.388 6.367a18.66 18.66 0 0 0 3.805 5.424zm-12.53 8.834a2.856 2.856 0 0 1-.641.242.78.78 0 0 1-.172.022c-.255 0-.435-.174-.435-.421V1.342C0 1.11.113.89.344.686.529.521.741.38.979.261c.248-.122.473-.197.671-.219.433-.047.577.194.577.429v39.137c0 .2-.112.398-.345.604-.181.16-.395.303-.634.422z"/>
</svg>
