<?xml version="1.0" encoding="UTF-8" standalone="no"?>
<svg width="22px" height="15px" viewBox="0 0 22 15" version="1.1" xmlns="http://www.w3.org/2000/svg" xmlns:xlink="http://www.w3.org/1999/xlink">
    <!-- Generator: Sketch 48.2 (47327) - http://www.bohemiancoding.com/sketch -->
    <title></title>
    <desc>Created with Sketch.</desc>
    <defs></defs>
    <g id="Shop-Row-Simplified" stroke="none" stroke-width="1" fill="none" fill-rule="evenodd" transform="translate(-276.000000, -253.000000)">
        <g id="Shop-Row" fill="#000000">
            <g id="Recommendations-Icons">
                <g id="1" transform="translate(222.000000, 1.000000)">
                    <g id="Group-5" transform="translate(28.000000, 234.000000)">
                        <g id="Group" transform="translate(26.000000, 0.000000)">
                            <path d="M21.4485808,24.8578322 C21.6244921,25.1342637 21.7124474,25.4358254 21.7124474,25.7625175 C21.7124474,26.0892096 21.6244921,26.3907714 21.4485808,26.6672028 C20.3679843,28.5017038 18.8978707,29.959252 17.03824,31.0398485 C15.1534789,32.1455748 13.0928066,32.6984382 10.8562237,32.6984382 C8.61964076,32.6984382 6.55896848,32.1455748 4.67420742,31.0398485 C2.8145767,29.959252 1.34446308,28.5017038 0.263866548,26.6672028 C0.0879553243,26.3907714 0,26.0892096 0,25.7625175 C0,25.4358254 0.0879553243,25.1342637 0.263866548,24.8578322 C1.34446308,23.0233313 2.8145767,21.5657831 4.67420742,20.4851866 C6.55896848,19.3794603 8.61964076,18.8265969 10.8562237,18.8265969 C13.0928066,18.8265969 15.1534789,19.3794603 17.03824,20.4851866 C18.8978707,21.5657831 20.3679843,23.0233313 21.4485808,24.8578322 Z M15.681212,24.7070513 C15.681212,23.8526261 15.4676055,23.0673092 15.0403932,22.3511 C14.6131809,21.6348908 14.028905,21.0694625 13.2875655,20.6548151 C12.5462259,20.2401676 11.7357787,20.0328439 10.8562237,20.0328439 C9.97666872,20.0328439 9.16622146,20.2401676 8.42488192,20.6548151 C7.68354238,21.0694625 7.09926646,21.6348908 6.67205414,22.3511 C6.24484183,23.0673092 6.03123538,23.8526261 6.03123538,24.7070513 C6.03123538,25.5614766 6.24484183,26.3467935 6.67205414,27.0630027 C7.09926646,27.7792119 7.68354238,28.3446402 8.42488192,28.7592876 C9.16622146,29.1739351 9.97666872,29.3812588 10.8562237,29.3812588 C11.7357787,29.3812588 12.5462259,29.1739351 13.2875655,28.7592876 C14.028905,28.3446402 14.6131809,27.7792119 15.0403932,27.0630027 C15.4676055,26.3467935 15.681212,25.5614766 15.681212,24.7070513 Z M20.4308099,26.0640793 C20.5564604,25.8630383 20.5564604,25.6619968 20.4308099,25.4609558 C19.8779464,24.5060104 19.1868676,23.6578679 18.3575727,22.9165283 C17.5282778,22.1751888 16.6110276,21.5657831 15.6058216,21.0883101 C16.4602468,22.1437763 16.8874591,23.3500234 16.8874591,24.7070513 C16.8874591,25.7625175 16.6173098,26.7425933 16.0770118,27.6472786 C15.5367138,28.5519639 14.8079392,29.2681731 13.890689,29.7959062 C12.9734388,30.3236393 11.96195,30.5875058 10.8562237,30.5875058 C9.75049739,30.5875058 8.73900858,30.3236393 7.82175839,29.7959062 C6.9045082,29.2681731 6.17573354,28.5519639 5.63543556,27.6472786 C5.09513758,26.7425933 4.82498831,25.7625175 4.82498831,24.7070513 C4.82498831,23.3500234 5.25220062,22.1437763 6.10662582,21.0883101 C5.10141974,21.5657831 4.18416955,22.1814715 3.35487468,22.935376 C2.52557982,23.6892804 1.83450095,24.5311401 1.28163752,25.4609558 C1.15598697,25.6619968 1.15598697,25.8630383 1.28163752,26.0640793 C2.26171327,27.722669 3.60617635,29.0420018 5.31502618,30.0220775 C7.02387601,31.0021533 8.87094185,31.4921912 10.8562237,31.4921912 C12.8415055,31.4921912 14.6885714,31.008436 16.3974212,30.0409251 C18.106271,29.0734143 19.4507341,27.7477994 20.4308099,26.0640793 Z" id=""></path>
                        </g>
                    </g>
                </g>
            </g>
        </g>
    </g>
</svg>