<?xml version="1.0" encoding="UTF-8" standalone="no"?>
<svg width="145px" height="39px" viewBox="0 0 145 39" version="1.1" xmlns="http://www.w3.org/2000/svg" xmlns:xlink="http://www.w3.org/1999/xlink">
    <!-- Generator: Sketch 48.2 (47327) - http://www.bohemiancoding.com/sketch -->
    <title>Page 1 Copy 2</title>
    <desc>Created with Sketch.</desc>
    <defs></defs>
    <g id="Desktop-Header-Active" stroke="none" stroke-width="1" fill="none" fill-rule="evenodd" transform="translate(-648.000000, -75.000000)">
        <g id="Page-1-Copy-2" transform="translate(648.000000, 75.000000)" fill="#FFFFFF">
            <path d="M3.0136274,2.18196089 L0,1.74548542 L0,0 L12.7122109,0 L12.7122109,1.74548542 L9.69858347,2.18196089 L9.69858347,36.0000641 C10.7395254,36.3270042 11.561652,36.4361231 12.4929771,36.4361231 C20.0000598,36.4361231 22.5752197,32.8905928 25.9176977,26.8361615 L28,27.3271964 L24.9863726,39 C24.4930966,38.7272028 23.7805869,38.5093816 22.9040703,38.3998462 C22.0271353,38.2361679 20.9861933,38.182025 19.8904429,38.182025 L0,38.182025 L0,36.4361231 L3.0136274,36.0000641 L3.0136274,2.18196089 Z" id="Fill-1"></path>
            <path d="M40.957274,21.6035752 C43.0850459,21.0511739 43.8827065,19.8367344 43.8827065,17.1852081 C43.8827065,14.4244665 42.2869791,12.9329829 39.8935911,12.9329829 C36.2237024,12.9329829 34.7875883,17.7376094 34.7875883,23.2603575 L40.957274,21.6035752 Z M35.3192267,25.5800214 C35.4788401,29.9979669 37.8190236,34.8578335 42.7126147,34.8578335 C45.9576801,34.8578335 46.8613435,33.2010512 48.563886,31.2128281 L50,32.3724492 C47.393388,36.2936552 44.6807733,39 39.7871822,39 C33.563886,39 30,32.70389 30,26.1872412 C30,19.2839114 33.4042726,11 40.6916579,11 C46.3297051,11 49.8935911,16.1913074 49.9467955,21.493095 L35.3192267,25.5800214 Z" id="Fill-3"></path>
            <path d="M62.5946509,18.3486152 C63.2448621,18.5658126 64.3830422,18.7830099 65.3047611,18.7830099 C70.6711766,18.7830099 74.8451932,16.1231716 74.8451932,10.0433042 C74.8451932,4.93999586 72.0804504,1.73757867 66.2802849,1.73757867 C65.0340812,1.73757867 63.6786122,1.95436151 62.5946509,2.28015751 L62.5946509,18.3486152 Z M55.981204,2.17197334 L53,1.73757867 L53,0 L67.0935662,0 C74.5736856,0 82,2.49735484 82,9.66320887 C82,18.5658126 73.3812868,20.5201741 65.1421048,20.5201741 L62.5946509,20.5201741 L62.5946509,35.8288557 L65.5758549,36.2628358 L65.5758549,38 L53,38 L53,36.2628358 L55.981204,35.8288557 L55.981204,2.17197334 Z" id="Fill-5"></path>
            <path d="M91.239738,11 C92.9110128,12.3184029 93.5792675,16.3791159 93.9136076,19.0690766 L94.0250542,19.0690766 C95.361989,16.1685097 97.3114552,11 101.266962,11 C103.774087,11 105,12.107394 105,14.1119784 C105,15.4827308 103.3283,17.2231515 101.211238,17.2231515 C99.7071334,17.2231515 98.3144753,16.6432797 97.9248373,16.6432797 C96.7546472,16.6432797 94.6375856,20.7039928 94.6375856,30.1442245 C94.6375856,31.7263885 94.6933089,33.4140569 94.9719256,35.0489731 L98.036284,35.5760927 L98.036284,37 L86.0025948,37 L86.0025948,35.5760927 L89.0669531,35.0489731 L89.0669531,20.8090946 C89.0669531,17.803426 88.1196563,14.4808413 85,14.4808413 L85,13.0565313 L91.239738,11 Z" id="Fill-7"></path>
            <path d="M113.000218,0 C114.943133,0 116.543104,1.40137115 116.543104,3.34188951 C116.543104,5.33632258 114.943133,6.68336745 113.000218,6.68336745 C111.057303,6.68336745 109.457332,5.33632258 109.457332,3.34188951 C109.457332,1.40137115 111.057303,0 113.000218,0 Z M107,38 L107,36.5447141 L110.142784,36.0055669 L110.142784,18.1647334 C110.142784,15.9007267 109.05723,15.4154943 107,15.4154943 L107,13.9602084 L115.857216,11.4270397 L115.857216,36.0055669 L119,36.5447141 L119,38 L107,38 Z" id="Fill-9"></path>
            <path d="M133.70876,38 L133.70876,36.5908308 L136.22942,36.0687687 L131.13557,27.5615475 L128.404388,31.8934674 C127.774423,32.9371931 127.45924,33.7202863 127.45924,34.3463623 C127.45924,35.3904865 128.299728,36.4864184 129.9799,36.5908308 L129.9799,38 L121,38 L121,36.5908308 C123.52066,36.0687687 124.518337,34.5033795 126.409032,31.3714053 L129.92737,25.5781101 L123.468129,14.9308327 L121.314782,14.4091692 L121.314782,13 L131.975656,13 L131.975656,14.4091692 L129.454997,14.9308327 L133.65623,22.0292833 L135.967168,18.4278518 C136.492072,17.5925524 136.859785,16.5488268 136.859785,15.9227507 C136.859785,15.1396576 135.914638,14.5131831 134.706438,14.4091692 L134.706438,13 L142.846653,13 L142.846653,14.4091692 C140.325993,14.9308327 139.643097,15.8705445 138.172645,18.4278518 L134.969491,23.9605146 L142.478939,36.0687687 L145,36.5908308 L145,38 L133.70876,38 Z" id="Fill-11"></path>
        </g>
    </g>
</svg>