<?xml version="1.0" encoding="UTF-8" standalone="no"?>
<svg width="84px" height="23px" viewBox="0 0 84 23" version="1.1" xmlns="http://www.w3.org/2000/svg" xmlns:xlink="http://www.w3.org/1999/xlink">
    <!-- Generator: Sketch 48.2 (47327) - http://www.bohemiancoding.com/sketch -->
    <title>Page 1</title>
    <desc>Created with Sketch.</desc>
    <defs></defs>
    <g id="NAV-Copy" stroke="none" stroke-width="1" fill="none" fill-rule="evenodd" transform="translate(-118.000000, -22.000000)">
        <g id="Page-1" transform="translate(118.000000, 22.000000)" fill="#FFFFFF">
            <path d="M1.69626379,1.38795495 L0,1.14115717 L0,0.154201517 L7.15525183,0.154201517 L7.15525183,1.14115717 L5.45898804,1.38795495 L5.45898804,20.509838 C6.04489729,20.6947008 6.50764314,20.7564002 7.03185294,20.7564002 C11.257323,20.7564002 12.706789,18.7516392 14.5881512,15.3282619 L15.7602052,15.6059094 L14.0639414,22.2061017 C13.7862939,22.0518531 13.3852475,21.9286897 12.8918874,21.8667548 C12.3982918,21.7742056 11.8123826,21.7435914 11.1956236,21.7435914 L0,21.7435914 L0,20.7564002 L1.69626379,20.509838 L1.69626379,1.38795495 Z" id="Fill-1"></path>
            <path d="M23.6954133,12.4600855 C24.9291668,12.1515882 25.3916771,11.4733653 25.3916771,9.99257858 C25.3916771,8.45079891 24.4664209,7.61785638 23.0786544,7.61785638 C20.95073,7.61785638 20.1180229,10.3010758 20.1180229,13.3853417 L23.6954133,12.4600855 Z M20.4262847,14.6807945 C20.5188338,17.1480659 21.8757507,19.8621351 24.7132187,19.8621351 C26.5948163,19.8621351 27.1187906,18.9368789 28.1059818,17.8265243 L28.9386888,18.474133 C27.4272879,20.6639924 25.854423,22.1753933 23.0169549,22.1753933 C19.4084793,22.1753933 17.3420188,18.6592314 17.3420188,15.019906 C17.3420188,11.1646326 19.3159301,6.53835156 23.5414002,6.53835156 C26.8105289,6.53835156 28.8769894,9.43751906 28.9078391,12.398386 L20.4262847,14.6807945 Z" id="Fill-3"></path>
            <path d="M36.0464179,10.5786527 C36.4163791,10.7020516 37.0639878,10.8254505 37.5884331,10.8254505 C40.6418492,10.8254505 43.0168069,9.31428501 43.0168069,5.86005799 C43.0168069,2.960655 41.4437065,1.14122781 38.1434926,1.14122781 C37.43442,1.14122781 36.6631769,1.26439121 36.0464179,1.44948955 L36.0464179,10.5786527 Z M32.2834582,1.3880256 L30.5871944,1.14122781 L30.5871944,0.154036671 L38.6062385,0.154036671 C42.8623228,0.154036671 47.0877929,1.57288844 47.0877929,5.64410993 C47.0877929,10.7020516 42.1838644,11.8124061 37.4958839,11.8124061 L36.0464179,11.8124061 L36.0464179,20.5099086 L37.7426817,20.7564709 L37.7426817,21.7434265 L30.5871944,21.7434265 L30.5871944,20.7564709 L32.2834582,20.5099086 L32.2834582,1.3880256 Z" id="Fill-5"></path>
            <path d="M51.9921689,6.53846931 C52.9174251,7.30947689 53.2873863,9.6841991 53.4724846,11.2572995 L53.534184,11.2572995 C54.2743419,9.5610357 55.3536112,6.53846931 57.5434706,6.53846931 C58.9314726,6.53846931 59.6101665,7.186078 59.6101665,8.35836748 C59.6101665,9.1599893 58.6846748,10.1777947 57.5126209,10.1777947 C56.6799138,10.1777947 55.9089062,9.83868321 55.6931937,9.83868321 C55.0453495,9.83868321 53.8732955,12.2134054 53.8732955,17.7340929 C53.8732955,18.6593491 53.9041452,19.6463047 54.0583938,20.6024107 L55.7548931,20.9106724 L55.7548931,21.7433794 L49.0927659,21.7433794 L49.0927659,20.9106724 L50.7892652,20.6024107 L50.7892652,12.2748694 C50.7892652,10.5171416 50.2648199,8.57408005 48.5377064,8.57408005 L48.5377064,7.74113753 L51.9921689,6.53846931 Z" id="Fill-7"></path>
            <path d="M64.3597522,4.7098814e-05 C65.4084073,4.7098814e-05 66.2719641,0.801904408 66.2719641,1.91225895 C66.2719641,3.05346321 65.4084073,3.8242353 64.3597522,3.8242353 C63.3110972,3.8242353 62.4475404,3.05346321 62.4475404,1.91225895 C62.4475404,0.801904408 63.3110972,4.7098814e-05 64.3597522,4.7098814e-05 Z M61.1212378,21.7434501 L61.1212378,20.9107431 L62.8175016,20.6022458 L62.8175016,10.3938134 C62.8175016,9.0983605 62.2315923,8.82071299 61.1212378,8.82071299 L61.1212378,7.98800596 L65.9017674,6.53853996 L65.9017674,20.6022458 L67.5980312,20.9107431 L67.5980312,21.7434501 L61.1212378,21.7434501 Z" id="Fill-9"></path>
            <path d="M76.5088678,21.7434736 L76.5088678,20.9107666 L77.9891835,20.6022694 L74.9977023,15.5751775 L73.3937522,18.134998 C73.023791,18.751757 72.8386927,19.2145028 72.8386927,19.584464 C72.8386927,20.2014585 73.3322883,20.8490672 74.3190084,20.9107666 L74.3190084,21.7434736 L69.0453542,21.7434736 L69.0453542,20.9107666 C70.5256699,20.6022694 71.1115792,19.6772487 72.2219337,17.8265008 L74.2881587,14.4031235 L70.4948202,8.1114284 L69.2302171,7.80316666 L69.2302171,6.97045963 L75.4910624,6.97045963 L75.4910624,7.80316666 L74.0107467,8.1114284 L76.4780181,12.3060488 L77.8351704,10.1778889 C78.1434321,9.6842933 78.3593802,9.06753433 78.3593802,8.69757314 C78.3593802,8.23482729 77.8043207,7.86463062 77.094777,7.80316666 L77.094777,6.97045963 L81.8753067,6.97045963 L81.8753067,7.80316666 C80.3949909,8.1114284 79.9939445,8.66672342 79.1303878,10.1778889 L77.2492611,13.447253 L81.6593586,20.6022694 L83.1399098,20.9107666 L83.1399098,21.7434736 L76.5088678,21.7434736 Z" id="Fill-11"></path>
        </g>
    </g>
</svg>