<?xml version="1.0" encoding="UTF-8" standalone="no"?>
<svg width="26px" height="26px" viewBox="0 0 26 26" version="1.1" xmlns="http://www.w3.org/2000/svg" xmlns:xlink="http://www.w3.org/1999/xlink">
    <!-- Generator: Sketch 48.2 (47327) - http://www.bohemiancoding.com/sketch -->
    <title>Page 1</title>
    <desc>Created with Sketch.</desc>
    <defs>
        <polygon id="path-1" points="26 0 0 0 0 26 26 26"></polygon>
    </defs>
    <g id="Desktop-Header" stroke="none" stroke-width="1" fill="none" fill-rule="evenodd" transform="translate(-1172.000000, -88.000000)">
        <g id="Page-1" transform="translate(1172.000000, 88.000000)">
            <mask id="mask-2" fill="white">
                <use xlink:href="#path-1"></use>
            </mask>
            <g id="Clip-2"></g>
            <path d="M4.37623762,16.9273743 C0.928971158,13.4860335 0.928971158,7.8547486 4.37623762,4.41340782 C6.1222557,2.67039106 8.36074042,1.82122905 10.6439948,1.82122905 C12.9272492,1.82122905 15.2105037,2.67039106 16.911752,4.41340782 C20.3590185,7.8547486 20.3590185,13.4860335 16.911752,16.9273743 C13.4644856,20.3687151 7.82350409,20.3687151 4.37623762,16.9273743 Z M26,24.7039106 L18.7920792,17.5083799 C22.3293328,13.3072626 22.1498063,7.05027933 18.2100732,3.11731844 C14.0469393,-1.03910615 7.28626776,-1.03910615 3.12268618,3.11731844 C-1.04089539,7.27374302 -1.04089539,14.0223464 3.12268618,18.1787709 C5.18209212,20.2346369 7.95781317,21.3072626 10.6887645,21.3072626 C13.1510977,21.3072626 15.5686612,20.4581006 17.5832975,18.8044693 L24.7916659,26 L26,24.7039106 Z" id="Fill-1" fill="#FFFFFF" mask="url(#mask-2)"></path>
        </g>
    </g>
</svg>