<?xml version="1.0" encoding="UTF-8" standalone="no"?>
<svg width="17px" height="9px" viewBox="0 0 17 9" version="1.1" xmlns="http://www.w3.org/2000/svg" xmlns:xlink="http://www.w3.org/1999/xlink">
    <!-- Generator: Sketch 48.2 (47327) - http://www.bohemiancoding.com/sketch -->
    <title>Page 1 Copy</title>
    <desc>Created with Sketch.</desc>
    <defs>
        <polygon id="path-1" points="0.000262297626 0.000157378576 16.209731 0.000157378576 16.209731 8.53689591 0.000262297626 8.53689591"></polygon>
    </defs>
    <g id="Desktop-Order-Confirmation" stroke="none" stroke-width="1" fill="none" fill-rule="evenodd" transform="translate(-567.000000, -1416.000000)">
        <g id="Newsletter" transform="translate(-1.000000, 1337.000000)">
            <g id="Group-2" transform="translate(318.000000, 28.000000)">
                <g id="Page-1-Copy" transform="translate(250.000000, 51.000000)">
                    <mask id="mask-2" fill="white">
                        <use xlink:href="#path-1"></use>
                    </mask>
                    <g id="Clip-2"></g>
                    <path d="M11.4332912,0.508018042 C11.4332912,0.634970093 11.484177,0.761922144 11.5859484,0.863693623 L14.4822388,3.7605086 L0.508070502,3.7605086 C0.228985827,3.7605086 0.000262297626,3.98870754 0.000262297626,4.26831681 C0.000262297626,4.54792608 0.228985827,4.77664961 0.508070502,4.77664961 L14.4822388,4.77664961 L11.5859484,7.67293999 C11.484177,7.77471147 11.4332912,7.90166352 11.4332912,8.02861557 C11.4332912,8.15609222 11.484177,8.28251968 11.5859484,8.38429116 C11.7889668,8.58783411 12.0942812,8.58783411 12.296775,8.38429116 L16.0570738,4.64969756 C16.2606167,4.4461546 16.2606167,4.14136476 16.0570738,3.93834639 L12.296775,0.152342461 C12.0942812,-0.0506759013 11.7889668,-0.0506759013 11.5859484,0.152342461 C11.484177,0.228408773 11.4332912,0.355360824 11.4332912,0.508018042" id="Fill-1" fill="#FFFFFF" mask="url(#mask-2)"></path>
                </g>
            </g>
        </g>
    </g>
</svg>