<?xml version="1.0" encoding="UTF-8" standalone="no"?>
<svg width="23px" height="28px" viewBox="0 0 23 28" version="1.1" xmlns="http://www.w3.org/2000/svg" xmlns:xlink="http://www.w3.org/1999/xlink">
    <!-- Generator: Sketch 48.2 (47327) - http://www.bohemiancoding.com/sketch -->
    <title>Fill 1</title>
    <desc>Created with Sketch.</desc>
    <defs></defs>
    <g id="Desktop-Header" stroke="none" stroke-width="1" fill="none" fill-rule="evenodd" transform="translate(-1292.000000, -85.000000)">
        <path d="M1308.45882,91.8428837 C1308.45882,95.3464182 1306.23503,98.1968596 1303.50155,98.1968596 C1300.76807,98.1968596 1298.54428,95.3464182 1298.54428,91.8428837 C1298.54428,88.5682966 1300.53635,86.3686679 1303.50155,86.3686679 C1306.4672,86.3686679 1308.45882,88.5687526 1308.45882,91.8428837 Z M1309.80602,91.8424276 C1309.80602,87.8139558 1307.21355,85 1303.50155,85 C1299.78955,85 1297.19707,87.8134997 1297.19707,91.8424276 C1297.19707,96.100759 1300.02531,99.5646154 1303.50155,99.5646154 C1306.97779,99.5646154 1309.80602,96.100303 1309.80602,91.8424276 Z M1303.50155,102.041079 C1297.01789,102.041079 1292.9884,104.61651 1292.15628,109.294882 C1292.04581,109.92654 1292,111.160667 1292,111.680588 C1292,112.059126 1292.30177,112.364694 1292.6736,112.364694 C1293.04543,112.364694 1293.34721,112.059126 1293.34721,111.680588 C1293.34721,111.108219 1293.3984,110.01365 1293.48238,109.535231 C1294.43036,104.205134 1300.16676,103.408835 1303.50155,103.408835 C1306.32215,103.408835 1312.95354,104.064208 1313.60604,110.13314 C1313.61951,110.274066 1313.63882,111.175261 1313.65274,112.324559 C1313.65723,112.699449 1313.95811,113 1314.32635,113 C1314.70671,112.994983 1315.00444,112.685311 1314.99995,112.307229 C1314.99097,111.545591 1314.97166,110.230739 1314.94516,109.986285 C1314.41032,105.011011 1310.13249,102.041079 1303.50155,102.041079 Z" id="Fill-1" fill="#FFFFFF"></path>
    </g>
</svg>