<?xml version="1.0" encoding="UTF-8"?><svg xmlns="http://www.w3.org/2000/svg" class="interstitial" enable-background="new 0 0 1014 151" height="47px" preserveAspectRatio="xMidYMid meet" viewBox="0 371 1014 151" width="310px" x="0px" y="0px"><style>
    .text{fill: #589bdc;} .invert .text, .header .text {fill: #FFF;}
  </style><g class="text"><g class="logotype"><path d="M271.5,414.8c-32.7,0-54.3,21-54.3,53.7s22.8,52.5,52.5,52.5c27.4,0,53.7-16.9,53.7-54.3    C323.4,436.4,302.4,414.8,271.5,414.8z M270.3,498.3c-13.4,0-21-12.8-21-30.4c0-15.2,5.8-30.4,21-30.4c14.6,0,20.4,15.2,20.4,30.4    C290.7,486,282.6,498.3,270.3,498.3z M890.3,459.7c-15.8,0-28.6,11.1-28.6,30.4c0,18.1,11.7,29.8,27.4,29.8    c13.4,0,28.6-9.3,29.2-30.4C918.3,472,906.6,459.7,890.3,459.7z M889.1,512.3c-9.9,0-16.9-9.3-17.5-22.8    c0-10.5,5.3-22.2,17.5-22.2c12.8,0,17.5,12.3,17.5,22.2C906.6,502.9,899.1,512.3,889.1,512.3z M794.6,501.8    c-5.3,0-8.8,4.1-8.8,9.3s3.5,9.3,8.2,9.3c5.3,0,8.8-4.1,9.3-9.3C803.3,505.3,799.8,501.8,794.6,501.8z M168.1,414.8    c-14,0-24.5,5.8-30.9,14.6h-0.6V371h-31.5v117.3c0,11.7-0.6,23.9-0.6,30.4h26.9l1.2-14h0.6c7,12.3,18.7,16.3,30.4,16.3    c23.4,0,46.7-18.1,46.7-54.9C210.2,434.6,192.1,414.8,168.1,414.8z M155.9,495.9c-9.3,0-16.3-6.4-18.7-15.2    c-0.6-1.8-0.6-3.5-0.6-5.8v-15.2c0-2.3,0-4.1,0.6-5.8c2.3-9.3,9.9-15.8,18.7-15.8c14.6,0,21.6,12.3,21.6,28.6    C177.5,485.4,169.3,495.9,155.9,495.9z M994.2,459.7c-5.8,0-9.3,1.8-12.8,4.1c-2.3,1.8-4.7,4.1-6.4,7.6c-2.9-7-8.8-11.7-16.3-11.7    c-9.3,0-14.6,5.3-18.1,10.5h-0.6l-0.6-9.3H930c0.6,4.7,0.6,9.9,0.6,15.8l0.6,42.6h10.5v-35c0-1.8,0-3.5,0.6-5.3    c1.8-5.3,6.4-10.5,12.8-10.5c8.2,0,12.3,6.4,12.3,15.8v34.4h10.5v-35.6c0-1.8,0-3.5,0.6-5.3c1.8-4.7,6.4-9.3,12.3-9.3    c8.2,0,12.3,6.4,12.3,17.5v32.7h10.5v-33.9C1013.5,465,1001.8,459.7,994.2,459.7z M51.4,414.8C15.8,414.8,0,443.4,0,469.1    c0,32.1,19.8,52,54.3,52c14,0,26.3-2.3,36.8-6.4L87,493c-8.8,2.9-17.5,4.1-28,4.1c-14.6,0-27.4-6.4-28.6-19.3h65.4    c0.6-2.3,1.2-7,1.2-12.3C96.3,440.5,84.1,414.8,51.4,414.8z M29.8,456.2c0.6-8.8,6.4-20.4,19.8-20.4c14.6,0,18.1,12.8,18.1,20.4    H29.8z M383.6,414.8c-32.7,0-54.3,21-54.3,53.7S352,521,381.8,521c27.4,0,53.7-16.9,53.7-54.3    C435.5,436.4,415.1,414.8,383.6,414.8z M383,498.3c-13.4,0-21-12.8-21-30.4c0-15.2,5.8-30.4,21-30.4c14.6,0,20.4,15.2,20.4,30.4    C402.8,486,395.2,498.3,383,498.3z M843,467.9c5.8,0,9.9,1.8,12.3,2.9l2.3-8.2c-2.9-1.2-8.2-2.9-14.6-2.9    c-18.7,0-30.9,13.4-30.9,30.9s11.1,29.2,28.6,29.2c7.6,0,13.4-2.3,16.3-3.5l-1.8-8.2c-2.9,1.8-7,2.9-12.8,2.9    c-11.1,0-19.8-8.2-19.8-21.6C822.6,477.8,829.6,467.9,843,467.9z M540.6,417.1h-37.9l-20.4,30.4c-2.3,4.1-5.3,8.2-7,12.3h-0.6V371    h-31.5v147.7h31.5v-32.1l8.2-9.9l24.5,42h39.1L505,458C503.8,458,540.6,417.1,540.6,417.1z M757.8,456.8    c-12.3-4.1-16.3-7-16.3-11.7c0-5.3,4.7-8.2,12.3-8.2c8.8,0,17.5,3.5,22.2,5.8l5.8-21.6c-6.4-2.9-16.9-5.8-28.6-5.8    c-25.1,0-41.4,14.6-41.4,33.3c0,12.3,8.2,23.4,29.2,30.4c11.7,4.1,15.2,6.4,15.2,11.7s-4.1,8.8-13.4,8.8s-21.6-4.1-27.4-7.6    l-5.8,22.8c7.6,4.1,19.8,7,32.7,7c29.2,0,44.4-14,44.4-32.7C785.2,473.2,777,463.2,757.8,456.8z M586.1,414.8    c-35.6,0-51.4,28.6-51.4,54.3c0,32.1,19.8,52,54.3,52c14,0,26.3-2.3,36.8-6.4l-4.1-21.6c-8.8,2.9-17.5,4.1-28,4.1    c-14.6,0-27.4-6.4-28.6-19.3h65.4c0.6-2.3,1.2-7,1.2-12.3C631.7,440.5,618.8,414.8,586.1,414.8z M564.5,456.2    c0.6-8.8,6.4-20.4,19.8-20.4c14.6,0,18.1,12.8,18.1,20.4H564.5z M669.6,435.8l-1.8-18.7h-27.4c0.6,8.8,0.6,18.7,0.6,33.3v68.3    h31.5v-51.4c0-2.3,0-5.3,0.6-7c2.3-9.9,9.9-15.8,21.6-15.8c3.5,0,6.4,0.6,8.8,0.6v-29.8c-2.3-0.6-3.5-0.6-6.4-0.6    C687.1,414.8,674.9,421.2,669.6,435.8z"/></g></g></svg>