<?xml version="1.0" encoding="UTF-8"?>
<svg width="75px" height="34px" viewBox="0 0 75 34" version="1.1" xmlns="http://www.w3.org/2000/svg" xmlns:xlink="http://www.w3.org/1999/xlink">
    <!-- Generator: Sketch 60.1 (88133) - https://sketch.com -->
    <title>aldo-lp-logo-2</title>
    <desc>Created with Sketch.</desc>
    <defs>
        <polygon id="path-1" points="0.426353926 0.1113184 7.83273709 0.1113184 7.83273709 9.97327303 0.426353926 9.97327303"></polygon>
        <polygon id="path-3" points="0.923076923 0 28.9230769 0 28.9230769 5 0.923076923 5"></polygon>
    </defs>
    <g id="aldo-lp-logo-2" stroke="none" stroke-width="1" fill="none" fill-rule="evenodd">
        <g id="Group-24" transform="translate(3.883721, 5.705604)">
            <g id="Group-16" transform="translate(0.009136, 8.294396)">
                <g id="Group-3" transform="translate(28.107143, 8.000000)">
                    <mask id="mask-2" fill="white">
                        <use xlink:href="#path-1"></use>
                    </mask>
                    <g id="Clip-2"></g>
                    <path d="M1.44624507,1.50363713 C0.0948647887,2.89942044 0.19255493,5.03797512 1.11965352,6.55248787 C1.19244225,6.67169223 1.27528732,6.77759889 1.38351268,6.86498376 C1.60762535,7.04592743 1.93996338,6.84598705 1.89734366,6.56246114 C1.78289296,5.80591715 1.67370986,5.0854669 1.56500563,4.36501665 C1.82024507,4.71170662 1.95049859,5.08214248 2.04770986,5.46160177 C2.30773803,6.47555119 2.56393521,8.06462603 2.47678028,9.10279626 C2.43559718,9.59006188 2.62762535,9.83844387 3.03083662,9.94720004 C3.38759718,10.0436083 3.77069577,9.86978845 3.96128732,9.48747965 C4.4305831,8.54571772 3.89137183,6.61850144 3.84444225,5.4625516 C4.45261127,5.30012973 5.0085831,5.1951729 5.53151268,5.00235629 C7.04810423,4.44290317 8.71745634,2.46867002 7.28945634,0.99405037 C5.83320282,-0.50906435 2.83210423,0.0722349918 1.44624507,1.50363713 M5.68906197,3.22426419 C5.11441408,3.76662027 4.42962535,4.0829155 3.61506197,4.224441 C3.34114648,3.51016468 3.08111831,2.83198211 2.80816056,2.12008039 C3.60931549,1.5696507 4.49283662,1.40437932 5.43047042,1.79096238 C6.24311831,2.12625432 6.32165352,2.62729256 5.68906197,3.22426419" id="Fill-1" fill="#000000" mask="url(#mask-2)"></path>
                </g>
                <path d="M2.78525727,3.18600103 C2.55141486,2.29103533 2.25384288,1.40839194 1.93971123,0.533507062 C1.77311107,0.0684534913 1.46550293,-0.0547697316 0.961186152,0.0205333491 C0.272204132,0.12367575 -0.0655124733,0.678636636 0.194925741,1.28334319 C1.13481163,3.46850168 1.24169668,4.06681888 1.24069306,6.400758 C1.23918764,8.44854541 1.0745947,11.6989002 1.31345518,13.3683467 C1.37818838,13.8192524 1.93017689,14.0939945 2.4114105,13.9703149 C2.81536573,13.8667162 2.93479597,13.5632219 2.91171282,12.9836164 C2.86454289,11.7833309 2.85049227,10.2727055 2.87758989,9.07196364 C2.93379236,6.61206301 3.41703321,5.60574002 2.78525727,3.18600103" id="Fill-4" fill="#000000"></path>
                <path d="M25.3834313,12.370409 C25.3834313,12.370409 22.2728457,12.5953737 21.4366401,12.338924 C22.2693719,11.9687224 23.2777812,11.4568387 23.4757907,10.2258803 C23.6499796,9.5113759 23.1095476,9 22.4400868,9 C20.6877771,9 19.0778952,9.82470154 18.5920523,11.6538733 C18.2198539,11.7559454 17.8848754,11.8026649 17.5881093,11.938761 C17.1846463,12.1231001 17.0461885,12.4826374 17.1310497,12.9269809 C17.2124371,13.3494881 17.4774423,13.5764842 17.8883493,13.5774998 C18.2471485,13.5774998 18.7399391,13.5074205 19.1850883,13.4028094 C19.3071693,13.3687853 19.5731671,13.4231222 19.9026867,13.5724216 C20.378108,13.7857065 20.9051409,13.9918819 21.4123231,13.9969601 C22.7507484,14.0116869 24.1169644,13.974616 25.4519158,13.8481685 C26.36802,13.7613311 26.3035056,12.370409 25.3834313,12.370409 M20.8431078,11.1689041 C20.6659414,11.2064829 20.541379,11.1775371 20.469917,11.1480835 C20.4307121,11.1318332 20.4217793,11.0830824 20.4470888,11.0480427 C20.8048955,10.5554562 21.6698844,9.93235963 21.922483,10.4107271 C22.1482833,10.8388204 21.4306849,11.0455036 20.8431078,11.1689041" id="Fill-6" fill="#000000"></path>
                <path d="M38.6335052,9.34336622 C38.4063781,7.20034034 37.6310647,4.69983949 36.9417315,2.63934291 C36.7876628,2.17882032 36.530716,1.99552321 36.051115,2 C35.4258943,2.00601036 35.0039449,2.44783846 35.1291878,3.02143986 C35.4706239,4.58676068 36.1515082,5.28028034 36.4606396,6.8807103 C36.8005847,8.63935942 37.0142929,10.9260136 37.6633694,12.5980298 C37.7915943,12.9295149 38.1002287,13.0293707 38.4784425,12.9928937 C39.2075354,12.9217635 39.1404409,12.090999 39.0584366,11.6053984 C38.9302117,10.8494119 38.7140185,10.1025445 38.6335052,9.34336622" id="Fill-8" fill="#000000"></path>
                <path d="M15.2964894,8.02386142 C14.9077082,8.11009221 14.6348873,8.50337762 14.626797,8.9203879 C14.6029758,10.1048066 14.4946564,10.8941149 14.1153139,12.0616524 C13.5597838,11.3298313 13.2460622,10.6103289 12.7763786,9.86527663 C12.4280487,9.31230457 11.7223997,9.17406155 11.2909201,9.72110239 C11.0338301,10.0477757 11.0675394,10.400455 11.2621547,10.7248471 C11.836562,11.6815982 12.4307454,12.9294353 13.2550513,13.6854376 C13.7723774,14.159935 14.4303839,14.0883042 14.8321993,13.5335071 C15.9010103,12.05709 16.1598981,10.3584803 16.0987718,8.58595843 C16.0830408,8.1310796 15.7374076,7.92622444 15.2964894,8.02386142" id="Fill-10" fill="#000000"></path>
                <path d="M10.1287998,9.58161318 C9.02533624,9.10236821 7.83585541,9.39932093 6.71661351,9.02129967 C6.5186212,8.95456369 6.18473184,9.05354793 6.00913454,9.19463406 C5.19986004,9.84631764 4.54785964,10.6417747 4.22313189,11.6378876 C3.81442281,12.8915387 4.516812,13.8697359 5.84269884,13.9687201 C6.22799494,13.9973852 6.42904112,14.0327687 6.96041382,13.9405029 C7.85010679,13.7855321 9.77455137,12.8973613 10.6052029,12.1045916 C11.4445071,11.3037598 11.1945991,10.044734 10.1287998,9.58161318 M9.51904458,11.7928584 C8.74438056,12.2841965 7.4760082,12.5162048 6.70490702,12.7083506 C5.64826937,12.6935702 5.34491868,12.1475892 5.72868785,11.4358881 C6.18931264,10.5831008 6.86574397,10.157155 7.8475619,10.3085427 C8.37435379,10.3891633 8.91641502,10.4469415 9.41266825,10.6234111 C10.0931714,10.8652731 10.1354165,11.4018483 9.51904458,11.7928584" id="Fill-12" fill="#000000"></path>
                <path d="M68.5735371,6.06130682 C66.9861366,5.87000752 66.4545488,6.08817209 64.8961083,6.32995958 C64.1510019,6.44575818 63.4098223,6.58703248 62.6102319,6.72691719 C62.5959973,4.4364208 62.7830101,2.79671256 61.901939,0.499268243 C61.725234,0.0374634077 61.0915499,-0.114464361 60.6301534,0.0874884049 C60.2281493,0.263502284 60.0740233,0.653511984 60.2252043,1.14032932 C60.91779,3.37153683 60.8421995,4.59066454 60.8088218,6.91960607 C60.8044042,7.25171647 60.6689303,7.42448799 60.3488978,7.56622548 C59.4899148,7.94697129 58.6520383,8.3694046 57.7729306,8.79091152 C57.642856,8.4356414 57.4671326,8.06740184 56.8722256,7.83997338 C56.2768276,7.61254492 54.5564075,7.60883937 53.5663682,8.46204349 C52.9513364,8.9919379 52.781994,10.3921746 51.7811562,10.4459052 C50.7547942,9.2323358 49.3652052,7.8802713 47.5839199,7.92844352 C46.6567091,7.95345601 46.2939729,8.22396155 46.1015607,9.0831872 C46.0053546,9.51395801 45.9621601,9.95955104 45.8232502,10.3768892 C45.6607797,10.8655593 45.3171865,10.938744 44.8656069,10.6696281 C44.4812734,10.44081 44.0782877,10.2397837 43.6625399,10.0155976 C43.7980138,9.19528025 43.6468328,8.93311221 42.8325169,8.64778445 C41.7492167,8.26842822 39.9021579,8.89929902 39.3337566,9.84328924 C38.9396061,10.4973198 39.0647722,11.176826 39.6690053,11.6636433 C40.4955924,12.3292537 41.6672452,12.2356884 42.6563027,12.0003856 C43.1446959,11.8841238 43.5324653,11.9188634 43.9830633,12.1416599 C44.8528449,12.5719676 45.659798,12.4311565 46.2159282,11.7831475 C46.8201613,11.0790919 47.1244867,10.1100892 47.5034209,9.23048303 C48.6618208,9.77705244 49.2984499,10.4713809 50.0391387,11.1684885 C50.6173569,11.7132051 51.2318979,12.0374412 52.1016795,11.8841238 C52.5365703,11.8076968 53.0239818,11.7599877 53.4559275,12.0457787 C54.2731885,12.5863266 55.2131613,12.7989328 56.1914202,12.780405 C57.7582051,12.7512238 59.2970118,12.5316696 60.8549615,12.3176738 C60.9801276,12.7447391 61.036575,13.0388675 61.1843201,13.4228557 C61.3124313,13.7568189 61.7806997,14.0250084 62.1674875,13.9981432 C62.48752,13.9759098 62.8178603,13.6201765 62.8492745,13.2241453 C62.8654725,13.0198766 62.8669451,12.7984696 62.8016623,12.6071703 C62.3824787,11.3750732 62.4723037,10.1068469 62.4561058,8.84325249 C62.4502156,8.40738654 62.6136678,8.17995808 63.0711376,8.07666573 C65.2696432,7.5810477 65.6588852,7.36797827 68.5745188,7.21049217 C68.837613,7.19659634 69.0452415,6.9918644 69.0943262,6.74729775 C69.0948171,6.74359219 69.0957988,6.74034983 69.0962896,6.73710747 C69.1620632,6.41194499 68.9215479,6.10299431 68.5735371,6.06130682 M41.07921,10.2509003 C41.2161564,10.0971198 41.8837089,9.6390205 42.0461794,9.97066771 C42.1625102,10.2073601 42.2709875,10.4292302 42.3833915,10.6589746 C41.9568451,10.7506871 40.5991612,10.790985 41.07921,10.2509003 M56.0937416,9.08226081 C55.7688006,9.80577049 55.0575627,9.77242049 54.3855926,9.98502673 C54.8244101,9.17675247 55.3152576,8.92431151 56.0937416,9.08226081 M55.7805809,11.1847003 C56.6753957,10.826651 57.3164425,10.3324225 57.7042119,9.43614135 C57.8112167,9.70433092 57.8750268,9.85764827 57.9344194,10.0123552 C58.1302675,10.5269642 58.4925129,10.7747732 59.0412803,10.6654593 C59.2307474,10.6274774 59.4486836,10.4051441 59.5164206,10.2221823 C59.5915202,10.0202295 59.508567,9.76686216 59.4904057,9.47041773 C59.8320355,9.31200524 60.1952626,9.14386567 60.6866008,8.91597402 C60.7283229,9.59548023 60.7651364,10.197633 60.8044042,10.8335989 C59.7687162,11.224535 57.2074743,11.4028648 55.7805809,11.1847003" id="Fill-14" fill="#000000"></path>
            </g>
            <g id="Group-23" transform="translate(19.000000, 0.000000)">
                <mask id="mask-4" fill="white">
                    <use xlink:href="#path-3"></use>
                </mask>
                <g id="Clip-22"></g>
                <path d="M27.8594888,0.682406296 C27.2467042,0.242363612 26.3906673,0 25.5396315,0 L25.3054092,0 C24.4539566,0 23.5979197,0.242363612 22.9855518,0.682406296 C22.3245613,1.15606242 21.9230769,1.80272109 21.9230769,2.50006669 C21.9230769,3.19727891 22.3265062,3.84287048 22.9881914,4.3175937 C23.6018095,4.75776977 24.4578465,5 25.309299,5 L25.5368531,5 C26.3884445,5 27.2444815,4.75776977 27.8579607,4.3175937 C28.5196458,3.84393758 28.9222416,3.19727891 28.9230769,2.50006669 C28.9237697,1.80272109 28.5208961,1.15672936 27.8594888,0.682406296 L27.8594888,0.682406296 Z M25.5368531,3.96785381 L25.309299,3.96785381 C24.1227668,3.96785381 23.1950461,3.27891156 23.1946292,2.50006669 C23.1942126,1.72108844 24.1212386,1.03214619 25.3073541,1.03214619 L25.5399094,1.03214619 C26.7264416,1.03214619 27.6530508,1.72108844 27.6526342,2.50006669 C27.6523562,3.27891156 26.7233853,3.96785381 25.5368531,3.96785381 Z" id="Fill-21" fill="#241F21" mask="url(#mask-4)"></path>
                <polygon id="Fill-17" fill="#241F21" mask="url(#mask-4)" points="10.0517716 0 8.92345979 0 8.92307692 5 13.9230769 5 13.9230769 3.89614712 10.0517716 3.89614712"></polygon>
                <path d="M19.9614126,0.630193906 C19.3932037,0.179224377 18.6055127,0.00152354571 17.819252,0 L14.9230769,0 L14.9230769,5 L17.8121007,5 C18.6020021,5 19.3956742,4.82174515 19.9642732,4.36897507 C20.5776007,3.88060942 20.9230769,3.21620499 20.9230769,2.49861496 C20.9230769,1.78102493 20.5751302,1.11703601 19.9614126,0.630193906 L19.9614126,0.630193906 Z M17.8746426,3.91426593 L16.1011027,3.91426593 L16.1011027,1.08421053 L17.8732124,1.08421053 C18.9741334,1.08421053 19.7490819,1.6966759 19.7493421,2.49792244 C19.749732,3.29903047 18.9751736,3.91274238 17.8746426,3.91274238 L17.8746426,3.91426593 Z" id="Fill-18" fill="#241F21" mask="url(#mask-4)"></path>
                <path d="M0.923076923,5 L2.38054712,5 L2.97265779,4.25547505 L6.81129655,4.25547505 L7.39711578,5 L8.92307692,5 L4.91943075,0 L0.923076923,5 Z M4.89254912,1.75974925 L6.06147082,3.258026 L3.72091066,3.258026 L4.89254912,1.75974925 Z" id="Fill-20" fill="#241F21" mask="url(#mask-4)"></path>
            </g>
        </g>
    </g>
</svg>