<?xml version="1.0" encoding="UTF-8"?>
<svg width="42px" height="26px" viewBox="0 0 42 26" version="1.1" xmlns="http://www.w3.org/2000/svg" xmlns:xlink="http://www.w3.org/1999/xlink">
    <!-- Generator: Sketch 58 (84663) - https://sketch.com -->
    <title>New Badge Group@1.5x</title>
    <desc>Created with Sketch.</desc>
    <g id="FINAL" stroke="none" stroke-width="1" fill="none" fill-rule="evenodd">
        <g id="SA_Desktop_1440_Nav_Home_FINAL" transform="translate(-1183.000000, -55.000000)">
            <g id="New-Badge-Group" transform="translate(1183.000000, 55.000000)">
                <path d="M28,6 C29.1045695,6 30,6.8954305 30,8 L30,24 C30,25.1045695 29.1045695,26 28,26 L2,26 C0.8954305,26 0,25.1045695 0,24 L0,8 C0,6.8954305 0.8954305,6 2,6 L28,6 Z M7.292,15 L1,15 L1,24 C1,24.5522847 1.44771525,25 2,25 L8,25 L8,15.706 L5.35355339,18.3535534 C5.17998704,18.5271197 4.91056264,18.5464049 4.7156945,18.4114088 L4.64644661,18.3535534 C4.47288026,18.179987 4.45359511,17.9105626 4.58859116,17.7156945 L4.64644661,17.6464466 L7.292,15 Z M29,15 L9.707,15 L12.3535534,17.6464466 C12.5271197,17.820013 12.5464049,18.0894374 12.4114088,18.2843055 L12.3535534,18.3535534 C12.179987,18.5271197 11.9105626,18.5464049 11.7156945,18.4114088 L11.6464466,18.3535534 L9,15.707 L9,25 L28,25 C28.5522847,25 29,24.5522847 29,24 L29,15 Z M26.5,22 C26.7761424,22 27,22.2238576 27,22.5 C27,22.7761424 26.7761424,23 26.5,23 L19.5,23 C19.2238576,23 19,22.7761424 19,22.5 C19,22.2238576 19.2238576,22 19.5,22 L26.5,22 Z M26.5,20 C26.7761424,20 27,20.2238576 27,20.5 C27,20.7761424 26.7761424,21 26.5,21 L16.5,21 C16.2238576,21 16,20.7761424 16,20.5 C16,20.2238576 16.2238576,20 16.5,20 L26.5,20 Z M8,7 L2,7 C1.44771525,7 1,7.44771525 1,8 L1,14 L5.07819459,14.0011888 C4.71739044,13.8189475 4.39279402,13.5999008 4.14644661,13.3535534 C2.99095956,12.1980663 2.71642373,10.5764695 3.64644661,9.64644661 C4.57646949,8.71642373 6.19806634,8.99095956 7.35355339,10.1464466 C7.5999008,10.392794 7.81894752,10.7173904 8.00118884,11.0781946 L8,7 Z M28,7 L9,7 L8.99981194,11.0762143 C9.18185421,10.7162028 9.40054998,10.3923432 9.64644661,10.1464466 C10.8019337,8.99095956 12.4235305,8.71642373 13.3535534,9.64644661 C14.2835763,10.5764695 14.0090404,12.1980663 12.8535534,13.3535534 C12.607206,13.5999008 12.2826096,13.8189475 11.9218054,14.0011888 L29,14 L29,8 C29,7.44771525 28.5522847,7 28,7 Z M4.35355339,10.3535534 C3.87611808,10.8309887 4.04691007,11.8398033 4.85355339,12.6464466 C5.55514266,13.3480359 7.40486884,13.766704 7.58578644,13.5857864 C7.76670404,13.4048688 7.34803588,11.5551427 6.64644661,10.8535534 C5.83980329,10.0469101 4.8309887,9.87611808 4.35355339,10.3535534 Z M12.6464466,10.3535534 C12.1690113,9.87611808 11.1601967,10.0469101 10.3535534,10.8535534 C9.65196412,11.5551427 9.23329596,13.4048688 9.41421356,13.5857864 C9.59513116,13.766704 11.4448573,13.3480359 12.1464466,12.6464466 C12.9530899,11.8398033 13.1238819,10.8309887 12.6464466,10.3535534 Z" id="Gift-Card" fill="#333333" fill-rule="nonzero"></path>
                <g id="New-Badge" transform="translate(18.500000, 0.000000)">
                    <rect id="Badge" fill="#00AEEF" x="0" y="0" width="23" height="12" rx="2"></rect>
                    <text id="NEW" font-family="Helvetica-Bold, Helvetica" font-size="8" font-weight="bold" fill="#FFFFFF">
                        <tspan x="2" y="9">NEW</tspan>
                    </text>
                </g>
            </g>
        </g>
    </g>
</svg>