<svg xmlns="http://www.w3.org/2000/svg" width="118" height="11" viewBox="0 0 118 11">
    <g fill="#1A1919" fill-rule="evenodd">
        <path d="M2.518 7.495c.22.8.99 1.27 2.186 1.27 1.008 0 1.621-.333 1.621-1.014 0-1.012-1.322-.951-2.675-1.269C2.155 6.135.3 5.47.3 3.234.299 1.073 1.999 0 4.469 0c2.25 0 3.854.876 4.468 2.765l-2.517.65c-.268-.77-.897-1.194-1.999-1.194-1.007 0-1.432.378-1.432.937 0 .892 1.054 1.028 2.596 1.33C7.206 4.79 9 5.455 9 7.737 9 9.912 7.41 11 4.72 11 2.8 11 .63 10.44 0 8.145l2.518-.65M17.086 4.589c-.33-.912-.57-1.603-.586-1.619h-.045c-.015.016-.255.692-.586 1.603l-.751 2.2h2.72l-.752-2.184zm-2.795 4.588L13.66 11H11l4.057-11h2.87L22 11h-2.705l-.63-1.823H14.29zM31.086 4.589c-.33-.912-.57-1.603-.586-1.619h-.045c-.015.016-.255.692-.586 1.603l-.751 2.2h2.72l-.752-2.184zm-2.795 4.588L27.66 11H25l4.058-11h2.87L36 11h-2.705l-.631-1.823H28.29zM42.768 2.452V11h-2.536V2.452H37V0h9v2.452h-3.232M59 7.661C58.178 9.716 56.14 11 53.737 11 50.434 11 48 8.78 48 5.47 48 2.252 50.434 0 53.737 0c2.545 0 4.41 1.345 5.152 3.053l-2.623.68c-.569-.847-1.47-1.345-2.655-1.345-1.802 0-2.94 1.269-2.94 3.112 0 1.874 1.217 3.098 2.924 3.098 1.454 0 2.354-.725 2.797-1.602L59 7.66M68.5 6.679h-4V11H62V0h2.5v4.149h4V0H71v11h-2.5V6.679M75 11h3V0h-3zM90.086 4.589c-.33-.912-.57-1.603-.586-1.619h-.045c-.015.016-.256.692-.586 1.603l-.751 2.2h2.72l-.752-2.184zm-2.795 4.588L86.66 11H84l4.057-11h2.87L95 11h-2.705l-.631-1.823H87.29zM102.35 5.264c.974 0 1.509-.486 1.509-1.414 0-.911-.503-1.461-1.524-1.461h-1.696v2.875h1.712zm-.533 2.106h-1.178V11H98V0h4.178c2.764 0 4.381 1.446 4.381 3.724 0 1.509-.737 2.625-2.072 3.127L107 11h-3.126l-2.057-3.63zM114.768 2.452V11h-2.537V2.452H109V0h9v2.452h-3.232"/>
    </g>
</svg>
