<?xml version="1.0" encoding="utf-8"?>
<!-- Generator: Adobe Illustrator 19.2.0, SVG Export Plug-In . SVG Version: 6.00 Build 0)  -->
<svg version="1.1" id="Layer_1" xmlns="http://www.w3.org/2000/svg" xmlns:xlink="http://www.w3.org/1999/xlink" x="0px" y="0px"
	 viewBox="0 0 85.7 59.3" style="enable-background:new 0 0 85.7 59.3;" xml:space="preserve">
<style type="text/css">
	.st0{fill:#FECC00;}
	.st1{fill:#D50029;}
</style>
<path class="st0" d="M79,56.1H5c-1.7,0-3-1.4-3-3v-48c0-1.6,1.3-3,3-3h74c1.7,0,3,1.3,3,3v48C82,54.7,80.7,56.1,79,56.1z"/>
<path class="st1" d="M27.8,27.2c-0.3,0.5-0.9,1.4-1.3,1.9c-0.2,0.3-0.5,0.7,0.6,0.7c1.1,0,5.7,0,5.7,0s0.9-1.3,1.7-2.4
	c1-1.5,0.1-4.7-3.7-4.7c-3.4,0-14.7,0-14.7,0l-2.6,3.7c0,0,13.3,0,13.9,0C28.1,26.4,28.1,26.7,27.8,27.2z M23.6,30.7
	c-1.1,0-0.8-0.5-0.6-0.7c0.4-0.5,1-1.4,1.3-1.9c0.3-0.5,0.4-0.8-0.4-0.8c-0.7,0-6.4,0-6.4,0l-5.1,7.4c0,0,9.2,0,12.5,0
	c4.1,0,6.4-3,7.1-4C32.1,30.7,24.8,30.7,23.6,30.7z M31.8,34.8h7.3l2.8-4l-7.3,0C34.5,30.7,31.8,34.8,31.8,34.8z M50.7,22.7
	l-2.8,4.1h-3.3l2.8-4.1h-7.3l-4.9,7.1h18l4.9-7.1H50.7z M42.4,34.8h7.3l2.8-4h-7.3C45.2,30.7,42.4,34.8,42.4,34.8z M2,32.3v0.9h10.2
	l0.6-0.9H2z M13.9,30.7H2v0.9h11.3L13.9,30.7z M2,34.8h9.1l0.6-0.9H2V34.8z M71.2,33.2H82v-0.9H71.8L71.2,33.2z M70.1,34.8H82v-0.9
	H70.7L70.1,34.8z M72.9,30.7l-0.6,0.9H82v-0.9H72.9z M63.3,29.8l4.9-7.1h-7.8c0,0-4.9,7.1-4.9,7.1H63.3z M54.9,30.7
	c0,0-0.5,0.8-0.8,1.2c-0.9,1.3-0.1,2.9,2.9,2.9c3.5,0,11.8,0,11.8,0l2.8-4L54.9,30.7L54.9,30.7z"/>
</svg>
