<?xml version="1.0" encoding="utf-8"?>
<!-- Generator: Adobe Illustrator 19.2.0, SVG Export Plug-In . SVG Version: 6.00 Build 0)  -->
<svg version="1.1" id="Layer_1" xmlns="http://www.w3.org/2000/svg" xmlns:xlink="http://www.w3.org/1999/xlink" x="0px" y="0px"
	 viewBox="0 0 85.7 59.3" style="enable-background:new 0 0 85.7 59.3;" xml:space="preserve">
<style type="text/css">
	.st0{fill:url(#SVGID_1_);stroke:#B5B5B5;stroke-miterlimit:10;}
	.st1{fill:#0460EF;}
	.st2{fill:#FB9125;}
	.st3{fill:#FB9124;}
	.st4{fill:#0460F0;}
	.st5{fill:#0460EE;}
	.st6{fill:#FB9123;}
	.st7{fill:#0560F0;}
	.st8{fill:#FB9225;}
	.st9{fill:#FAFCFE;}
	.st10{fill:#2373F1;}
	.st11{fill:#FB962D;}
</style>
<linearGradient id="SVGID_1_" gradientUnits="userSpaceOnUse" x1="42" y1="240.1" x2="42" y2="294.1" gradientTransform="matrix(1 0 0 1 0 -238)">
	<stop  offset="0" style="stop-color:#FFFFFF"/>
	<stop  offset="0.9704" style="stop-color:#D9D9D9"/>
	<stop  offset="1" style="stop-color:#E2E9F1"/>
</linearGradient>
<path class="st0" d="M79,56.1H5c-1.7,0-3-1.4-3-3v-48c0-1.6,1.3-3,3-3h74c1.7,0,3,1.3,3,3v48C82,54.7,80.7,56.1,79,56.1z"/>
<g>
	<path class="st1" d="M44,30.1c-1.4,2.1-2.4,4.3-3.6,6.5c-0.2,0.3-0.2,0.7-0.6,0.7c-0.4,0.1-1,0.2-1.2-0.1c-0.3-0.4-0.1-1-0.1-1.4
		c0.1-0.6,0.5-0.3,0.8-0.3c0.1,0,0.3,0,0.4,0c0.4,0,0.6-0.4,0.6-0.7c0-0.5-0.4-0.2-0.7-0.3c-0.5-0.1-1.2,0.4-1.3-0.7
		c0-1,0.2-1.4,1.2-1.2c0.5,0.1,1,0,1.5,0c0.5,0,0.7-0.4,0.7-0.8c0-0.4-0.4-0.3-0.7-0.3c-0.5,0-1-0.1-1.5,0c-1.1,0.2-1.3-0.4-1.2-1.3
		c0-0.5,0.2-0.7,0.7-0.7c1.1,0,2.1,0,3.2,0c0.6,0,0.9-0.2,1-0.9c-1.6,0-3.2,0-4.8,0c-0.5,0-0.5,0.4-0.6,0.7c-0.7,2.4-1.3,4.8-2,7.2
		c-0.1,0.6-0.4,0.8-1,0.8c-1.1,0-2.3,0-3.4,0c0-0.2,0-0.3,0-0.4c0.4-1.6,0.4-1.6,2.1-1.6c0.2,0,0.5,0,0.7,0c1,0,1,0,1.3-1.1
		c-1.1,0-2.2,0-3.2,0c-0.1-0.3,0.1-0.6,0.1-0.8c0-1,0.6-1.2,1.5-1.1c0.6,0.1,1.1,0,1.7,0c0.5,0,0.7-0.2,0.7-0.7
		c0-0.5-0.4-0.4-0.7-0.4c-0.8,0-1.6,0-2.5,0c0-0.2,0-0.3,0.1-0.5c0.1-1.2,0.7-1.6,1.9-1.4c0.5,0.1,1,0,1.5,0c0.4,0,0.6-0.3,0.6-0.6
		c0-0.4-0.4-0.2-0.6-0.2c-0.6,0-1.3,0-1.9,0c-0.7,0.1-0.8-0.3-0.6-0.8c0.1-0.4,0.3-0.7,0.4-1.1c1.9-0.1,3.8,0,5.6,0
		c0.7,0,0.7,0.6,1,0.9c0.4,0.3,0.7,0.2,0.9-0.2c0.1-0.2,0.2-0.5,0.5-0.6c1.6,0,3.1,0,4.7,0c0.2,0,0.5,0,0.7,0c0.4,0,0.5-0.3,0.5-0.7
		c0-0.5-0.4-0.3-0.6-0.3c-1.6,0-3.3,0-4.9,0c0.5-1.9,0.6-1.9,2.4-1.9c1,0,2.1,0,3.1,0c0.5,0,0.8-0.2,0.9-0.7c0-0.6-0.5-0.4-0.8-0.4
		c-1.3,0-2.6,0-3.9,0c0.5-1.7,0.5-1.7,2.2-1.7c1,0,2,0,3,0c0.7,0,0.9,0.1,0.7,0.9c-1.3,4.7-2.6,9.4-3.9,14c-0.4,1.6-0.4,1.5-2.1,1.5
		c-0.3,0-0.6,0.1-0.8,0c-0.4-0.2-1.2,0.5-1.2-0.4c0-1.1,0.4-1.5,1.4-1.5c0.6,0,1.1,0,1.7,0c0.5,0,0.6-0.4,0.6-0.7
		c0-0.5-0.4-0.3-0.6-0.3c-0.4,0-0.8,0.1-1.2,0c-0.4-0.1-1.2,0.4-1.1-0.4c0.1-0.6,0-1.6,1.2-1.5c0.6,0.1,1.2,0,1.8,0
		c0.4,0,0.6-0.1,0.6-0.5c0-0.5-0.2-0.5-0.6-0.5c-0.3,0-0.6,0-1,0c-1.1,0.2-1.4-0.3-1.2-1.3c0-0.8,0.6-0.9,1.2-0.9
		c0.6-0.1,1.2,0.1,1.7-0.2C46,28.8,44.7,28.8,44,30.1z"/>
	<path class="st1" d="M53.1,22.7c1.4-1.1,2.6-2,4.3-1.8c0.6,0.1,1.1,0.1,1.7,0c1.2-0.2,2.2,0.3,3.1,1.1c0.7,0.6,0.9,1.1,0.6,2
		c-0.5,1.6-0.5,1.6-2.3,1.6c-0.6,0-1.3,0-1.9,0c-0.4,0-0.7,0.1-0.6-0.5c0.1-0.3-0.2-0.3-0.4-0.3c-0.4,0.1-0.9-0.2-1.2,0.2
		c0,0,0,0.1,0,0.1c-0.8,1.5-0.6,2.2,1.1,2c1.8-0.2,2.5,1.1,3.5,2c0.3,0.3,0.1,0.6,0,0.9c-0.5,1.7-1,3.3-1.5,5
		c-0.1,0.3-0.2,0.5-0.5,0.8c-2,2.1-4.6,1.7-7.1,1.6c-0.8-0.1-1.3-1.1-2-1.6c0.2-0.4,0.5-0.2,0.8-0.2c2.2,0,4.3,0,6.5,0
		c0.3,0,0.7,0,0.9-0.1c0.3-0.1,0.8-0.2,0.7-0.7c-0.1-0.5-0.5-0.3-0.8-0.3c-2.8,0-5.7,0-8.5,0c0.4-1.9,0.4-1.9,2.1-1.9
		c0.6,0,1.3,0,1.9,0c0.3,0,0.5,0,0.6,0.4c0.1,0.5,1.4,0.7,1.5,0.2c0.3-0.7,0.7-0.6,1.2-0.6c0.7,0,1.4,0,2.1,0c0.5,0,0.6-0.3,0.6-0.7
		c0-0.4-0.3-0.4-0.5-0.4c-2,0.3-3.8-0.8-5.7-0.5c-0.9,0.1-1.1-0.7-1.7-1.1c0.2-0.4,0.6-0.2,0.9-0.2c2.2,0,4.5,0,6.7,0
		c0.3,0,0.8,0.2,0.8-0.2c0-0.4-0.3-0.7-0.8-0.8c-0.3-0.1-0.6,0-0.8,0c-2.1,0-4.3,0-6.4,0c-0.3,0-1,0.3-0.9-0.4
		c0.1-0.6-0.1-1.5,0.9-1.5c0.8,0,1.6,0,2.3,0c0.4,0,0.7-0.1,0.7-0.6c0-0.6-0.5-0.4-0.7-0.4c-0.5,0-1,0-1.5,0
		c-0.3-0.1-1.1,0.4-0.9-0.4c0.1-0.6-0.1-1.6,1-1.5c0.9,0,1.8,0,2.7,0c1.7,0,3.3,0,5,0c0.4,0,1,0.2,1-0.5c0-0.6-0.6-0.6-1.1-0.6
		c-2.3,0-4.5,0-6.8,0C53.8,22.7,53.6,22.7,53.1,22.7z"/>
	<path class="st2" d="M64.8,25.4c0.2-1.3,0.7-1.7,2-1.7c14.3,0.1-3.3,0,11,0c0.7,0,1.1,0.1,1,1c0,0.9-0.5,0.7-1,0.7
		c-7.1,0-2.3,0-9.4,0c-7.5,0,5.1,0-2.4,0C65.6,25.4,65.3,25.4,64.8,25.4z"/>
	<path class="st3" d="M67.5,26.7c7.5,0,2.9,0,10.4,0c0.6,0,1.1,0,1,0.9c-0.1,0.5-0.2,0.7-0.7,0.7c-1.3,0-2.7,0-4,0
		c-13.8,0,4.4,0.1-9.4,0.1c-0.4,0-1.1,0.4-1.1-0.3c0-0.6,0.2-1.4,1.3-1.4C72.4,26.7,59.9,26.7,67.5,26.7z"/>
	<path class="st4" d="M28.7,24.8C28.2,27,28.2,27,30.4,27c1.8,0,1.8,0,1.3,1.7C31.1,31,31.1,31,28.6,31c-1.7,0-1.8,0.1-2,1.7
		c-0.1,0.5,0.1,0.7,0.6,0.7c0.8,0,1.6,0,2.3,0c0.7,0,0.8,0.2,0.6,0.8c-0.4,1-0.3,2.4-1.1,3c-0.7,0.5-2,0.1-3,0.1c-1.7,0-3.3,0-5.2,0
		c0.1-0.5,0.3-0.9,0.3-1.3c0.1-0.6,0.4-0.6,0.8-0.6c2.1,0,4.2,0,6.3,0c0.4,0,0.9,0.2,0.9-0.6c0-0.8-0.6-0.5-0.9-0.5
		c-1.9,0-3.8,0-5.6,0c-0.3,0-1,0.3-0.8-0.3c0.1-0.6-0.1-1.6,1-1.6c0.9,0,1.7,0,2.6,0c0.4,0,0.7,0,0.7-0.6c0-0.6-0.3-0.5-0.7-0.5
		c-0.6,0-1.1,0.1-1.7,0c-0.3,0-0.9,0.4-1-0.3c-0.1-0.8,0.5-1.6,1.2-1.6c2,0,4,0,6,0c0.2,0,0.5,0,0.7-0.1c0.2-0.1,0.2-0.4,0.2-0.6
		c-0.1-0.4-0.4-0.2-0.6-0.2c-2.1,0-4.1,0-6.2,0c-0.1,0-0.3,0-0.4,0c-0.1-1.7,0.1-1.9,1.7-2c0.6,0,1.2-0.1,1.8-0.1
		c0.5,0,0.5-0.3,0.6-0.6c0-0.4-0.2-0.6-0.6-0.5c-0.5,0.1-0.9,0.1-1.4,0.1c-0.5,0-0.9,0-1.4,0c0.1-0.4,0.3-0.8,0.3-1.2
		c0.1-0.5,0.3-0.6,0.8-0.6c1.3,0,2.6,0,3.9,0C29,24.6,29,24.6,28.7,24.8z"/>
	<path class="st3" d="M66.2,22.3c0.1-1.1,0.7-1.4,1.7-1.4c14,0-4.1,0,9.9,0c0.4,0,1.1-0.4,1.1,0.6c0,0.8-0.4,0.9-1,0.9
		c-5.7,0,0.6,0-5.1,0C64,22.3,75.1,22.3,66.2,22.3z"/>
	<path class="st3" d="M23.3,21c0,1.1-0.5,1.5-1.6,1.4c-4.6-0.1-9.3-0.1-13.9,0c-1.2,0-1.9-0.4-2.5-1.4C11.3,21,17.3,21,23.3,21z"/>
	<path class="st2" d="M7.5,23.8c5,0,10,0,14.9,0c-0.3,1.6-0.3,1.6-1.8,1.6c-3.4,0-6.8-0.1-10.2,0C9.1,25.5,8.2,25,7.5,23.8z"/>
	<path class="st5" d="M28.7,24.8c0.1-0.3,0.3-0.7,0.4-1c0.7,0,1.5-0.1,2.2,0c0.5,0,1-0.1,1-0.7c0-0.7-0.6-0.4-0.9-0.4
		c-2.2,0-4.3,0-6.5,0c0.3-1.7,0.3-1.7,2-1.7c2.1,0,4.1,0,6.2,0c0.6,0,0.8,0.1,0.6,0.8c-0.3,1-0.3,2.2-0.9,2.9c-0.7,0.7-2,0.1-3,0.2
		C29.4,24.8,29.1,24.8,28.7,24.8z"/>
	<path class="st6" d="M10.1,26.8c3.9,0,7.7,0,11.5,0c0.1,1.2-0.5,1.5-1.6,1.5c-2.4-0.1-4.9,0-7.4,0C11,28.2,11,28.2,10.1,26.8z"/>
	<path class="st7" d="M41.3,27.8c-0.4-0.4-0.6-0.8-1.5-0.8c-1.7-0.1-3.4,0.2-5-0.2c1.3-0.4,2.7-0.1,4.1-0.2c0.5,0,1,0,1.5,0
		c0.4,0,0.6-0.1,0.6-0.5c0-0.4-0.3-0.4-0.6-0.4c-1.4,0-2.8,0-4.2,0c-0.3,0-1,0.4-0.9-0.4c0.1-0.6-0.1-1.5,1-1.5c1.6,0,3.1,0,4.7,0
		c0.4-0.1,0.4,0.3,0.4,0.5C41.3,25.4,41.5,26.6,41.3,27.8z"/>
	<path class="st8" d="M12.4,29.7c2.7,0,5.1,0,7.6,0c0.3,0,0.8-0.2,0.7,0.3c-0.1,0.5,0,1.3-0.8,1.3c-1.9,0.1-3.9,0.1-5.8,0
		C13.3,31.3,13.1,30.4,12.4,29.7z"/>
	<path class="st1" d="M40.9,22.7c-1.3,0-2.6,0-3.9,0c-0.3,0-1,0.4-0.9-0.4c0.1-0.5-0.1-1.4,0.9-1.3c1.4,0,2.8,0,4.1,0
		C41.3,21.6,41.7,22.2,40.9,22.7z"/>
	<path class="st6" d="M20,32.8c-0.4,0.5,0,1.2-0.8,1.4c-1.9,0.4-3.2,0-4.1-1.4C16.7,32.8,18.3,32.8,20,32.8z"/>
	<path class="st9" d="M44,30.1c0.3-0.5,0.3-1.3,0.8-1.4c0.9-0.2,1.9-0.1,2.9-0.1c0.2,0,0.3,0.1,0.3,0.3c0,0.3-0.1,0.5-0.5,0.6
		c-0.7,0-1.4,0-2.1,0c-0.5,0-0.8,0.2-1,0.6C44.2,30.1,44.1,30.1,44,30.1z"/>
	<path class="st10" d="M40.9,22.7c0.5-0.5,0.1-1.1,0.2-1.7c0.6,0,0.4,0.5,0.4,0.8c0,1.7,0,3.3,0,5c0,0.3-0.2,0.7,0.2,0.8
		c0.3,0.1,0.4-0.3,0.6-0.5c0.1-0.2,0.2-0.4,0.5-0.3c-0.4,0.4-0.3,1.7-1.5,1.1c-0.1-1.4,0.2-2.8-0.4-4.1C40.9,23.4,40.9,23,40.9,22.7
		z"/>
	<path class="st11" d="M18.6,37.1c-0.4-0.5-0.8-0.9-1.3-1.5c0.7-0.1,1.4-0.3,1.7,0C19.3,35.9,18.9,36.5,18.6,37.1z"/>
</g>
</svg>
