<?xml version="1.0" encoding="utf-8"?>
<!-- Generator: Adobe Illustrator 19.2.0, SVG Export Plug-In . SVG Version: 6.00 Build 0)  -->
<svg version="1.1" id="Layer_1" xmlns="http://www.w3.org/2000/svg" xmlns:xlink="http://www.w3.org/1999/xlink" x="0px" y="0px"
	 viewBox="0 0 85.7 59.3" style="enable-background:new 0 0 85.7 59.3;" xml:space="preserve">
<style type="text/css">
	.st0{fill:url(#SVGID_1_);stroke:#B5B5B5;stroke-miterlimit:10;}
	.st1{fill:#EEB944;}
	.st2{fill:#4F3529;}
</style>
<linearGradient id="SVGID_1_" gradientUnits="userSpaceOnUse" x1="42" y1="240.1" x2="42" y2="294.1" gradientTransform="matrix(1 0 0 1 0 -238)">
	<stop  offset="0" style="stop-color:#FFFFFF"/>
	<stop  offset="0.9704" style="stop-color:#D9D9D9"/>
	<stop  offset="1" style="stop-color:#E2E9F1"/>
</linearGradient>
<path class="st0" d="M79,56.1H5c-1.7,0-3-1.4-3-3v-48c0-1.6,1.3-3,3-3h74c1.7,0,3,1.3,3,3v48C82,54.7,80.7,56.1,79,56.1z"/>
<g>
	<path class="st1" d="M30.1,24.9c0,2.3,0,4.6,0,6.8c0,3.9-1.7,6.9-5.2,8.7c-2.3,1.2-4.7,2.3-7.1,3.5c-0.1,0.1-0.3,0.1-0.4,0
		c-2.7-1.2-5.5-2.4-8-4c-2.6-1.6-4-4-4.3-7C5,32.5,5,32,5,31.6c0-4.7,0-9.5,0-14.2c0-0.3,0.1-0.5,0.4-0.7c2.2-1.1,4.5-1.7,6.9-2.1
		c2.1-0.4,4.3-0.5,6.4-0.4c3.8,0.1,7.5,0.8,10.9,2.5c0.3,0.2,0.4,0.3,0.4,0.7C30.1,19.9,30.1,22.4,30.1,24.9z M29.1,24.9
		c0-2.5,0-4.9,0-7.4c0-0.4-0.1-0.5-0.5-0.5c-0.5,0-1-0.1-1.5-0.1c-3.2-0.2-6.4-0.1-9.6,0.5c-4.3,0.8-8.1,2.6-11.4,5.5
		c-0.2,0.2-0.3,0.4-0.3,0.7c0,1.8,0,3.6,0,5.4c0,1.3,0,2.5,0.1,3.8c0.2,2.6,1.4,4.8,3.6,6.2c2.4,1.6,5.1,2.7,7.7,3.9
		c0.1,0.1,0.3,0,0.4,0c2.3-1.1,4.7-2.3,7-3.5c0.8-0.4,1.5-1,2.1-1.6c1.6-1.6,2.3-3.6,2.3-5.8C29.2,29.7,29.1,27.3,29.1,24.9z"/>
	<path class="st2" d="M29.1,24.9c0,2.4,0,4.7,0,7.1c0,2.2-0.7,4.2-2.3,5.8c-0.6,0.6-1.3,1.2-2.1,1.6c-2.3,1.2-4.6,2.3-7,3.5
		c-0.1,0.1-0.3,0.1-0.4,0c-2.6-1.2-5.3-2.3-7.7-3.9c-2.2-1.5-3.4-3.6-3.6-6.2C5.9,31.5,6,30.3,5.9,29c0-1.8,0-3.6,0-5.4
		c0-0.3,0.1-0.5,0.3-0.7c3.3-2.9,7.1-4.7,11.4-5.5c3.2-0.6,6.4-0.7,9.6-0.5c0.5,0,1,0.1,1.5,0.1c0.4,0,0.5,0.1,0.5,0.5
		C29.1,20,29.1,22.5,29.1,24.9z M17.1,34.3c2.6,0.4,3.9-0.9,4.4-2.7c0.5-1.6,0.5-3.3,0-5c-0.4-1.3-1.2-2.3-2.6-2.7
		c-1.2-0.3-2.5-0.2-3.6,0.4c-0.3,0.1-0.4,0.3-0.4,0.7c0,3.3,0,6.6,0,10c0,1.2,0,2.4,0,3.6c0,0.3,0.1,0.4,0.4,0.4c0.4,0,0.8,0,1.2,0
		c0.5,0,0.5,0,0.5-0.5c0-1.2,0-2.4,0-3.6C17.1,34.7,17.1,34.5,17.1,34.3z M13.7,28.8c0-1.5,0-2.9,0-4.4c0-0.3-0.1-0.4-0.4-0.4
		c-0.5,0-0.9,0-1.4,0c-0.3,0-0.4,0.1-0.4,0.4c0,0.8,0,1.6,0,2.4c0,1.7,0,3.4,0,5.1c0,0.2-0.1,0.5-0.2,0.5c-0.9,0.4-1.9,0.3-2-1.1
		c0-0.1,0-0.3,0-0.4c0-2.1,0-4.3,0-6.4c0-0.4-0.1-0.5-0.5-0.5c-0.4,0-0.8,0-1.2,0c-0.4,0-0.5,0.1-0.5,0.5c0,1.1,0,2.2,0,3.3
		c0,1.3,0,2.6,0,3.9C7.3,33.1,8,34,9.3,34.3c1.4,0.3,2.8,0.1,4.1-0.6c0.2-0.1,0.3-0.3,0.3-0.5C13.7,31.7,13.7,30.3,13.7,28.8z
		 M22.6,31.8c0,0.6,0,1.1,0,1.6c0,0.3,0.1,0.4,0.3,0.5c0.9,0.4,1.8,0.6,2.7,0.4c1.2-0.2,2-0.8,2.4-1.9c0.4-1.2,0.3-2.3-0.6-3.2
		c-0.5-0.5-1.1-0.8-1.7-1.3c-0.3-0.2-0.7-0.4-0.9-0.8c-0.5-0.6-0.2-1.5,0.6-1.7c0.6-0.2,1.1,0,1.6,0.2c0.3,0.1,0.6,0.3,0.9,0.5
		c0-0.5,0-1,0-1.5c0-0.3-0.1-0.4-0.3-0.5c-0.7-0.4-1.4-0.5-2.2-0.5c-1.2,0.1-2.2,0.6-2.6,1.8c-0.4,0.9-0.3,2.4,0.7,3.2
		c0.4,0.4,0.9,0.7,1.4,1c0.3,0.2,0.6,0.4,0.9,0.7c0.4,0.4,0.4,0.9,0.2,1.4c-0.2,0.5-0.6,0.7-1.2,0.7c-0.4,0-0.8-0.1-1.2-0.3
		C23.2,32.2,23,32,22.6,31.8z"/>
	<path class="st1" d="M17.1,34.3c0,0.2,0,0.4,0,0.5c0,1.2,0,2.4,0,3.6c0,0.5,0,0.5-0.5,0.5c-0.4,0-0.8,0-1.2,0
		c-0.3,0-0.4-0.1-0.4-0.4c0-1.2,0-2.4,0-3.6c0-3.3,0-6.6,0-10c0-0.4,0.1-0.6,0.4-0.7c1.2-0.5,2.4-0.7,3.6-0.4
		c1.4,0.3,2.2,1.3,2.6,2.7c0.5,1.7,0.5,3.3,0,5C21,33.4,19.7,34.7,17.1,34.3z M19.8,29c-0.1-0.7-0.2-1.5-0.3-2.2
		c-0.2-1-0.9-1.4-1.9-1.3c-0.3,0-0.5,0.2-0.5,0.6c0,2,0,4,0,6c0,0.4,0.2,0.5,0.5,0.6c0.9,0.1,1.6-0.4,1.9-1.4
		C19.6,30.5,19.7,29.7,19.8,29z"/>
	<path class="st1" d="M13.7,28.8c0,1.5,0,2.9,0,4.4c0,0.3-0.1,0.4-0.3,0.5c-1.3,0.7-2.7,0.9-4.1,0.6C8,34,7.3,33.1,7.2,31.6
		c-0.1-1.3,0-2.6,0-3.9c0-1.1,0-2.2,0-3.3c0-0.4,0.1-0.5,0.5-0.5c0.4,0,0.8,0,1.2,0c0.4,0,0.5,0.1,0.5,0.5c0,2.1,0,4.3,0,6.4
		c0,0.1,0,0.3,0,0.4c0.1,1.4,1.1,1.5,2,1.1c0.1-0.1,0.2-0.3,0.2-0.5c0-1.7,0-3.4,0-5.1c0-0.8,0-1.6,0-2.4c0-0.3,0.1-0.4,0.4-0.4
		c0.5,0,0.9,0,1.4,0c0.3,0,0.4,0.1,0.4,0.4C13.7,25.9,13.7,27.3,13.7,28.8z"/>
	<path class="st1" d="M22.6,31.8c0.4,0.2,0.6,0.4,0.9,0.5c0.4,0.1,0.8,0.2,1.2,0.3c0.5,0,1-0.2,1.2-0.7c0.2-0.5,0.2-1-0.2-1.4
		c-0.3-0.3-0.6-0.5-0.9-0.7c-0.5-0.3-1-0.6-1.4-1c-1-0.8-1-2.3-0.7-3.2c0.5-1.2,1.4-1.7,2.6-1.8c0.8-0.1,1.5,0.1,2.2,0.5
		c0.2,0.1,0.3,0.3,0.3,0.5c0,0.5,0,1,0,1.5c-0.3-0.2-0.6-0.4-0.9-0.5c-0.5-0.2-1-0.4-1.6-0.2c-0.8,0.2-1.1,1.1-0.6,1.7
		c0.2,0.3,0.6,0.5,0.9,0.8c0.6,0.4,1.2,0.8,1.7,1.3c0.9,0.9,0.9,2.1,0.6,3.2c-0.4,1.1-1.2,1.7-2.4,1.9c-1,0.2-1.9-0.1-2.7-0.4
		c-0.2-0.1-0.3-0.2-0.3-0.5C22.6,32.9,22.6,32.4,22.6,31.8z"/>
	<path class="st2" d="M19.8,29c-0.1,0.7-0.2,1.5-0.3,2.2c-0.2,1-1,1.5-1.9,1.4c-0.4,0-0.5-0.2-0.5-0.6c0-2,0-4,0-6
		c0-0.4,0.2-0.5,0.5-0.6c1-0.1,1.6,0.3,1.9,1.3C19.6,27.5,19.7,28.2,19.8,29z"/>
</g>
<g>
	<path d="M43.8,19.8L42,26.3h-0.8l-1.5-5.6l-1.6,5.6h-0.8l-1.8-6.4h0.9l1.3,5.2l1.5-5.2h1l1.5,5.2l1.3-5.2H43.8z"/>
	<path d="M46.4,21.5c0.7,0,1.2,0.2,1.6,0.6c0.4,0.4,0.6,1,0.6,1.8c0,0.8-0.2,1.4-0.6,1.8c-0.4,0.4-0.9,0.6-1.6,0.6
		c-0.7,0-1.2-0.2-1.6-0.6c-0.4-0.4-0.6-1-0.6-1.8c0-0.8,0.2-1.4,0.6-1.8C45.2,21.7,45.7,21.5,46.4,21.5z M46.4,25.7
		c0.4,0,0.7-0.1,1-0.5c0.2-0.3,0.4-0.7,0.4-1.3c0-0.6-0.1-1-0.4-1.3c-0.2-0.3-0.6-0.5-1-0.5c-0.4,0-0.7,0.2-1,0.5
		c-0.2,0.3-0.4,0.7-0.4,1.3c0,0.6,0.1,1,0.4,1.3C45.7,25.6,46,25.7,46.4,25.7z"/>
	<path d="M51.9,22.3c-0.1,0-0.3-0.1-0.5-0.1c-0.4,0-0.8,0.2-1.1,0.7v3.3h-0.8v-4.7h0.8v0.7c0.3-0.5,0.8-0.8,1.2-0.8
		c0.1,0,0.2,0,0.4,0V22.3z"/>
	<path d="M53.3,26.3h-0.8v-6.4h0.8V26.3z"/>
	<path d="M57.5,25.7c-0.4,0.4-0.8,0.7-1.3,0.7c-0.6,0-1.1-0.2-1.4-0.7s-0.5-1-0.5-1.8c0-0.8,0.2-1.4,0.6-1.8
		c0.4-0.4,0.8-0.7,1.4-0.7c0.5,0,0.9,0.2,1.3,0.5v-2.1h0.8v6.4h-0.8V25.7z M57.5,24.9v-2.2c-0.4-0.4-0.8-0.6-1.2-0.6
		c-0.4,0-0.6,0.2-0.9,0.5c-0.2,0.3-0.3,0.8-0.3,1.4c0,0.6,0.1,1,0.3,1.3c0.2,0.3,0.5,0.4,0.8,0.4C56.7,25.7,57.1,25.4,57.5,24.9z"/>
	<path d="M65.4,21.6L64,26.3h-0.8l-1-3.4l-1,3.4h-0.8L59,21.6h0.9l0.9,3.6l1-3.6h0.8l1.1,3.6l0.9-3.6H65.4z"/>
	<path d="M66.9,20.7H66v-0.9h0.8V20.7z M66.9,26.3H66v-4.7h0.8V26.3z"/>
	<path d="M71,25.7c-0.4,0.4-0.8,0.7-1.3,0.7c-0.6,0-1.1-0.2-1.4-0.7s-0.5-1-0.5-1.8c0-0.8,0.2-1.4,0.6-1.8c0.4-0.4,0.8-0.7,1.4-0.7
		c0.5,0,0.9,0.2,1.3,0.5v-2.1h0.8v6.4H71V25.7z M71,24.9v-2.2c-0.4-0.4-0.8-0.6-1.2-0.6c-0.4,0-0.6,0.2-0.9,0.5
		c-0.2,0.3-0.3,0.8-0.3,1.4c0,0.6,0.1,1,0.3,1.3c0.2,0.3,0.5,0.4,0.8,0.4C70.2,25.7,70.7,25.4,71,24.9z"/>
	<path d="M75.1,26.4c-0.7,0-1.2-0.2-1.7-0.6c-0.4-0.4-0.6-1-0.6-1.8c0-0.8,0.2-1.4,0.6-1.8c0.4-0.4,0.9-0.6,1.6-0.6
		c0.7,0,1.2,0.2,1.6,0.6c0.4,0.4,0.6,1,0.6,1.8v0.2h-3.5c0,0.5,0.2,0.9,0.4,1.2c0.3,0.3,0.6,0.4,1,0.4c0.3,0,0.6-0.1,0.8-0.2
		c0.2-0.1,0.4-0.4,0.4-0.6h0.9c-0.1,0.5-0.3,0.9-0.7,1.1C76.1,26.2,75.6,26.4,75.1,26.4z M76.3,23.5c-0.1-0.4-0.2-0.8-0.5-1
		s-0.5-0.3-0.9-0.3c-0.3,0-0.6,0.1-0.9,0.3c-0.2,0.2-0.4,0.6-0.5,1H76.3z"/>
	<path d="M38.5,37.2c-0.9,0-1.6-0.2-2-0.6c-0.5-0.4-0.7-0.9-0.7-1.6h0.8c0,0.5,0.2,0.8,0.6,1.1c0.4,0.2,0.8,0.3,1.3,0.3
		c0.5,0,0.9-0.1,1.2-0.3c0.3-0.2,0.4-0.5,0.4-0.8c0-0.4-0.2-0.6-0.5-0.8c-0.3-0.2-0.8-0.3-1.6-0.5c-0.7-0.2-1.3-0.4-1.6-0.7
		c-0.3-0.3-0.5-0.6-0.5-1.1c0-0.5,0.2-0.9,0.6-1.3c0.4-0.3,1-0.5,1.7-0.5c0.7,0,1.3,0.2,1.8,0.5s0.7,0.8,0.7,1.4h-0.8
		c-0.1-0.8-0.6-1.2-1.6-1.2c-0.5,0-0.8,0.1-1.1,0.3s-0.4,0.4-0.4,0.7c0,0.3,0.1,0.5,0.3,0.6c0.2,0.1,0.6,0.3,1.2,0.4
		c0.6,0.1,1,0.3,1.4,0.4s0.6,0.3,0.9,0.6c0.2,0.3,0.4,0.6,0.4,1c0,0.6-0.2,1-0.7,1.4C39.8,37,39.2,37.2,38.5,37.2z"/>
	<path d="M44,37.2c-0.7,0-1.2-0.2-1.7-0.6c-0.4-0.4-0.6-1-0.6-1.8c0-0.8,0.2-1.4,0.6-1.8c0.4-0.4,0.9-0.6,1.6-0.6
		c0.7,0,1.2,0.2,1.6,0.6c0.4,0.4,0.6,1,0.6,1.8v0.2h-3.5c0,0.5,0.2,0.9,0.4,1.2c0.3,0.3,0.6,0.4,1,0.4c0.3,0,0.6-0.1,0.8-0.2
		c0.2-0.1,0.4-0.4,0.4-0.6H46c-0.1,0.5-0.3,0.9-0.7,1.1C45,37,44.5,37.2,44,37.2z M45.2,34.3c-0.1-0.4-0.2-0.8-0.5-1
		s-0.5-0.3-0.9-0.3c-0.3,0-0.6,0.1-0.9,0.3c-0.2,0.2-0.4,0.6-0.5,1H45.2z"/>
	<path d="M49.4,33.1c-0.1,0-0.3-0.1-0.5-0.1c-0.4,0-0.8,0.2-1.1,0.7V37H47v-4.7h0.8V33c0.3-0.5,0.8-0.8,1.2-0.8c0.1,0,0.2,0,0.4,0
		V33.1z"/>
	<path d="M53.8,32.4L52,37h-0.7l-1.8-4.7h0.9l1.2,3.6l1.2-3.6H53.8z"/>
	<path d="M55.3,31.5h-0.8v-0.9h0.8V31.5z M55.3,37h-0.8v-4.7h0.8V37z"/>
	<path d="M58.4,37.2c-0.7,0-1.2-0.2-1.6-0.6c-0.4-0.4-0.6-1-0.6-1.8c0-0.8,0.2-1.4,0.6-1.8c0.4-0.4,0.9-0.6,1.6-0.6
		c0.5,0,0.9,0.1,1.3,0.4c0.3,0.3,0.5,0.6,0.6,1.1h-0.9c0-0.3-0.1-0.5-0.3-0.6c-0.2-0.1-0.4-0.2-0.7-0.2c-0.4,0-0.7,0.2-1,0.5
		c-0.2,0.3-0.4,0.7-0.4,1.3c0,0.6,0.1,1,0.4,1.3c0.2,0.3,0.6,0.5,1,0.5c0.3,0,0.5-0.1,0.7-0.2c0.2-0.1,0.3-0.4,0.3-0.6h0.9
		c-0.1,0.5-0.3,0.9-0.6,1.1C59.4,37,58.9,37.2,58.4,37.2z"/>
	<path d="M63,37.2c-0.7,0-1.2-0.2-1.7-0.6c-0.4-0.4-0.6-1-0.6-1.8c0-0.8,0.2-1.4,0.6-1.8c0.4-0.4,0.9-0.6,1.6-0.6
		c0.7,0,1.2,0.2,1.6,0.6c0.4,0.4,0.6,1,0.6,1.8v0.2h-3.5c0,0.5,0.2,0.9,0.4,1.2c0.3,0.3,0.6,0.4,1,0.4c0.3,0,0.6-0.1,0.8-0.2
		c0.2-0.1,0.4-0.4,0.4-0.6H65c-0.1,0.5-0.3,0.9-0.7,1.1C64,37,63.6,37.2,63,37.2z M64.2,34.3c-0.1-0.4-0.2-0.8-0.5-1
		s-0.5-0.3-0.9-0.3c-0.3,0-0.6,0.1-0.9,0.3c-0.2,0.2-0.4,0.6-0.5,1H64.2z"/>
	<path d="M67.7,37.2c-1.3,0-1.9-0.5-2-1.5h0.8c0,0.6,0.4,0.9,1.2,0.9c0.3,0,0.6-0.1,0.8-0.2c0.2-0.1,0.3-0.3,0.3-0.5
		c0-0.2-0.1-0.4-0.3-0.4S68,35.1,67.4,35c-0.5-0.1-1-0.3-1.2-0.5c-0.3-0.2-0.4-0.5-0.4-0.9c0-0.4,0.2-0.7,0.5-1
		c0.3-0.3,0.7-0.4,1.3-0.4c1.2,0,1.8,0.4,1.9,1.3h-0.8c0-0.4-0.4-0.7-1-0.7c-0.3,0-0.5,0.1-0.7,0.2c-0.2,0.1-0.3,0.3-0.3,0.5
		c0,0.2,0.1,0.3,0.2,0.4c0.1,0.1,0.5,0.2,1.1,0.3c0.6,0.1,1,0.3,1.3,0.5c0.3,0.2,0.4,0.5,0.4,0.9c0,0.4-0.2,0.8-0.5,1.1
		C68.7,37,68.3,37.2,67.7,37.2z"/>
</g>
</svg>
