<svg xmlns="http://www.w3.org/2000/svg" viewBox="0 0 1792 1792" width="16" height="16">
  <path fill="#cc2127" d="M896 75a1 1 0 1 0 0 1642 1 1 0 0 0 0-1642m85 1004c-51 0-99-28-115-59l-33 130c-21 74-81 148-86 154-3 4-10 3-11-3-1-9-17-103 2-179l60-257s-15-30-15-74c0-70 41-123 91-123 43 0 64 33 64 71 0 43-28 108-42 168-12 50 25 90 75 90 89 0 149-114 149-250 0-104-70-181-196-181a223 223 0 0 0-232 226c0 41 12 70 31 92 8 11 10 15 7 27l-10 37c-3 12-13 17-24 12-66-27-96-99-96-180 0-134 113-295 337-295 180 0 298 131 298 271 0 185-102 323-254 323z"/>
</svg>
