<svg xmlns="http://www.w3.org/2000/svg" viewBox="0 0 11966 4000" width="96" height="32"><rect width="11886" height="3920" x="40" y="40" stroke="#a6a6a6" stroke-width="100" rx="650"/><path fill="#fff" d="M2477 2030a495 495 0 0 1 236-415 507 507 0 0 0-400-216c-167-18-330 100-416 100-87 0-219-98-360-95a532 532 0 0 0-448 273c-193 334-50 826 136 1097 93 133 201 280 343 275 139-5 190-88 358-88 166 0 214 88 359 85 149-2 243-133 332-267a1096 1096 0 0 0 152-309 478 478 0 0 1-292-440zm-273-809a487 487 0 0 0 111-349 496 496 0 0 0-320 166 464 464 0 0 0-115 336 410 410 0 0 0 324-153zm2026 1493h-473l-114 336h-200l448-1242h209l449 1242h-204zm-424-155h375l-185-545h-5zm1710 38c0 281-150 462-378 462a307 307 0 0 1-285-158h-4v448h-186V2144h180v150h3a321 321 0 0 1 289-160c230 0 381 182 381 463zm-191 0c0-183-95-304-240-304-141 0-237 123-237 304 0 182 96 305 238 305 144 0 239-120 239-305zm1187 0c0 281-150 462-377 462a307 307 0 0 1-285-158h-5v448h-185V2144h180v150h3a321 321 0 0 1 288-160c230 0 381 182 381 463zm-190 0c0-183-95-304-240-304-142 0-237 123-237 304 0 182 95 305 237 305 145 0 240-120 240-305zm849 107c14 123 133 204 297 204 157 0 270-81 270-192 0-97-69-154-230-194l-160-39c-229-55-334-161-334-334 0-215 186-362 451-362 263 0 443 147 449 362h-188c-11-124-114-200-263-200s-252 76-252 187c0 87 65 140 225 179l137 33c255 60 360 163 360 344 0 233-185 378-479 378-275 0-461-142-473-366zm1164-774v214h172v147h-172v500c0 77 34 113 110 113a580 580 0 0 0 60-4v146a510 510 0 0 1-102 9c-184 0-255-70-255-245v-519h-132v-147h132v-214zm271 667c0-285 168-464 430-464s430 180 430 464c0 286-167 464-430 464s-430-178-430-464zm670 0c0-195-90-310-240-310s-240 115-240 310c0 196 90 310 240 310s240-114 240-310zm343-453h177v154h4a216 216 0 0 1 218-163 287 287 0 0 1 64 7v174a260 260 0 0 0-84-12 187 187 0 0 0-194 209v537h-184zm1319 640c-25 164-185 277-390 277-263 0-426-177-426-460 0-284 164-468 419-468 250 0 408 172 408 447v63h-640v12a236 236 0 0 0 244 256 205 205 0 0 0 209-127zm-628-270h453a218 218 0 0 0-222-230 230 230 0 0 0-230 230zM3783 873a264 264 0 0 1 280 297c0 190-103 300-280 300h-216V873zm-123 512h112a188 188 0 0 0 197-214 188 188 0 0 0-197-214h-112zm508-141a213 213 0 1 1 425 0 213 213 0 1 1-425 0zm333 0c0-97-43-154-120-154-78 0-121 57-121 154 0 99 43 155 120 155 78 0 121-57 121-155zm656 226h-92l-93-332h-7l-93 332h-90l-125-450h90l80 343h7l93-344h85l93 344h7l80-344h89zm228-450h86v71h7a135 135 0 0 1 134-80 146 146 0 0 1 156 167v292h-90v-270c0-72-30-108-96-108a103 103 0 0 0-108 114v264h-89zm525-176h88v626h-89zm212 400a213 213 0 1 1 425 0 213 213 0 1 1-425 0zm333 0c0-97-44-154-120-154-78 0-121 57-121 154 0 99 43 155 120 155s121-57 121-155zm185 98c0-80 60-127 168-134l122-7v-39c0-47-32-74-93-74-50 0-84 18-93 50h-87c10-78 82-127 184-127 113 0 177 56 177 151v308h-86v-64h-7a151 151 0 0 1-135 71 136 136 0 0 1-150-135zm290-38v-38l-110 7c-62 4-90 26-90 65 0 40 35 64 83 64a106 106 0 0 0 117-98zm205-60c0-142 73-232 187-232a148 148 0 0 1 138 79h6V844h90v626h-86v-71h-7a156 156 0 0 1-141 78c-115 0-187-90-187-233zm92 0c0 96 45 153 120 153s121-58 121-152-47-153-121-153c-75 0-120 58-120 152zm696 0a213 213 0 1 1 425 0 213 213 0 1 1-425 0zm333 0c0-97-44-154-120-154-78 0-121 57-121 154 0 99 43 155 120 155s121-57 121-155zm211-224h85v71h7a135 135 0 0 1 135-80 146 146 0 0 1 155 167v292h-88v-270c0-72-32-108-98-108a103 103 0 0 0-107 114v264h-90zm885-113v115h97v74h-97v232c0 47 19 68 63 68a297 297 0 0 0 34-2v74a292 292 0 0 1-48 4c-100 0-138-35-138-121v-255h-72v-74h72V907zm218-63h89v248h7a139 139 0 0 1 137-80 148 148 0 0 1 155 167v290h-89v-268c0-72-34-108-96-108a105 105 0 0 0-114 114v263h-89zm906 504a183 183 0 0 1-195 130 205 205 0 0 1-208-232 208 208 0 0 1 208-235c125 0 200 85 200 227v30h-317v6a119 119 0 0 0 120 129 108 108 0 0 0 107-55zm-312-145h227a109 109 0 0 0-110-117 115 115 0 0 0-117 117z"/></svg>
