<svg xmlns="http://www.w3.org/2000/svg" viewBox="0 0 1792 1792" width="16" height="16">
  <path fill="#ee3138" d="M995 576h47v175c0 6 1 10 3 12 2 3 5 4 9 4s8-2 14-5l14-12V576h47v229h-47v-26c-9 10-18 17-27 22s-18 7-27 7c-11 0-19-3-25-10-5-7-8-17-8-31zm-85 175c0 6-2 11-6 15-4 3-9 5-15 5s-11-2-14-5c-4-4-5-9-5-15V627c0-6 1-10 5-13s8-4 14-4 11 1 15 4 6 7 6 13zm29-164c12 11 18 25 18 42v119c0 19-6 35-18 46a72 72 0 0 1-50 17c-20 0-37-6-49-18a60 60 0 0 1-18-46V628a52 52 0 0 1 18-42c13-11 30-16 51-16a69 69 0 0 1 48 17zm-245-92l34 124h4l32-124h54l-62 181v129h-52V682l-63-187zm296 668c0 7-1 11-4 14-2 3-6 5-11 5-4 0-7-1-10-3l-10-7v-129l9-7 8-2c6 0 10 2 13 6 3 3 5 9 5 16zm2-162c-6 0-13 2-19 5s-12 8-18 15v-91h-42v282h42v-16a49 49 0 0 0 40 19c12-1 21-5 28-13 6-7 10-19 10-33v-116c0-17-4-30-11-39-7-8-17-13-30-13zm-391-30h49v241h47V971h48v-41H601zm239 191l-13 11c-4 3-8 4-11 4-4 0-7-1-9-3l-2-11v-159h-42v173c0 13 3 22 8 28 5 7 12 10 21 10 8 0 16-3 24-7 9-4 17-11 24-19v23h42v-208h-42zm294-82h-37v-21c0-8 2-15 4-18 3-4 8-6 15-6 6 0 11 2 14 6 2 3 4 10 4 18zm-17-81c-18 0-33 5-45 17a59 59 0 0 0-18 44v93c0 20 6 36 16 47 11 12 26 17 44 17 21 0 37-5 47-16s16-27 16-48v-11h-43v10c0 12-2 20-4 23-3 4-8 6-15 6-6 0-11-2-14-6-2-5-4-12-4-23v-39h80v-53c0-20-5-35-16-46-10-10-24-15-44-15zm190 149c0 82-68 150-150 150H636c-83 0-150-68-150-150v-121c0-83 67-150 150-150h521c82 0 150 67 150 150zM896 75a821 821 0 0 0 0 1642 821 821 0 0 0 0-1642z"/>
</svg>
