<svg xmlns="http://www.w3.org/2000/svg" width="108" height="32" viewBox="0 0 10450 4020"><linearGradient id="a" x1="3021" x2="3953" y1="2801" y2="2801" gradientTransform="matrix(1.089 0 0 .9183 -2526 -991)" gradientUnits="userSpaceOnUse"><stop offset=".1" stop-color="#ffbd00"/><stop offset="1" stop-color="#ffe000"/></linearGradient><rect width="13430" height="3930" x="-1490" y="45" stroke="#a6a6a6" stroke-width="90" rx="500"/><path fill="#fff" stroke="#fff" stroke-width="20" d="M3216 1033a271 271 0 0 1-75 200 291 291 0 0 1-220 89 315 315 0 0 1-221-537 300 300 0 0 1 221-90 310 310 0 0 1 123 25 247 247 0 0 1 94 67l-53 53a200 200 0 0 0-164-71 232 232 0 0 0-233 240 236 236 0 0 0 400 173 189 189 0 0 0 50-122h-217v-72h291a254 254 0 0 1 4 45zm458-250h-270v190h246v72h-246v190h270v74h-350V709h350zm328 526h-77V783h-168v-74h417v74h-172zm466 0V709h77v600zm419 0h-77V783h-168v-74h412v74h-167zm948-78a312 312 0 0 1-440 0 324 324 0 0 1 0-445 310 310 0 0 1 440 0 323 323 0 0 1 0 445zm-383-50a231 231 0 0 0 326 0 256 256 0 0 0 0-344 231 231 0 0 0-326 0 256 256 0 0 0 0 344zm580 128V709h94l292 467V709h77v600h-80l-305-489v489z"/><path fill="#fff" d="M5288 2184a425 425 0 1 0 427 425 419 419 0 0 0-427-425zm0 683a258 258 0 1 1 240-258 246 246 0 0 1-240 258zm-931-683a425 425 0 1 0 426 425 419 419 0 0 0-427-425zm0 683a258 258 0 1 1 239-258 246 246 0 0 1-240 258zm-1109-552v180h432a377 377 0 0 1-100 227 442 442 0 0 1-333 132 480 480 0 0 1 0-960 460 460 0 0 1 327 129l127-127a629 629 0 0 0-453-187 661 661 0 1 0 0 1321 600 600 0 0 0 461-185 600 600 0 0 0 156-422 587 587 0 0 0-10-113zm4536 140a400 400 0 0 0-369-271 400 400 0 0 0-400 425 416 416 0 0 0 422 425 423 423 0 0 0 357-188l-150-100a243 243 0 0 1-207 118 216 216 0 0 1-206-129l573-235zm-585 142a233 233 0 0 1 222-248 165 165 0 0 1 163 90zm-462 412h187V1759h-187zm-306-730h-7a300 300 0 0 0-224-100 426 426 0 0 0 0 851 290 290 0 0 0 224-100h6v61c0 163-87 250-227 250a235 235 0 0 1-214-151l-163 68a405 405 0 0 0 377 251c219 0 400-129 400-443v-757h-172zm-214 588a259 259 0 0 1 0-516 240 240 0 0 1 227 258 238 238 0 0 1-228 258zm2437-1108h-450v1250h190v-474h260a389 389 0 1 0 0-776zm0 600h-260v-426h270a214.5 214.5 0 1 1 0 429zm1150-180a350 350 0 0 0-330 191l170 69a177 177 0 0 1 170-92 180 180 0 0 1 196 161v13a413 413 0 0 0-196-48c-180 0-360 100-360 281a289 289 0 0 0 310 275 263 263 0 0 0 236-120h10v100h180v-481c0-219-170-346-376-346zm-20 685c-60 0-140-31-140-106 0-100 100-133 200-133a332 332 0 0 1 166 42 226 226 0 0 1-216 200zm1066-655l-220 542h-10l-220-542h-200l340 758-190 421h190l520-1179zm-1686 800h190V1759h-190z"/><path fill="#00e3ff" d="M-483 763a200 200 0 0 0-46 140v2212a200 200 0 0 0 46 140l7 7L763 2024v-29z"/><path fill="url(#a)" d="M1173 2437l-410-413v-29l410-414 9 5 491 279c141 79 141 209 0 289l-489 278z"/><path fill="#ff3a44" d="M1185 2431l-422-422-1246 1246a163 163 0 0 0 208 6L1186 2431"/><path fill="#00f076" d="M1185 1587L-276 757a163 163 0 0 0-208 6L763 2009z"/></svg>
