<svg id="Layer_1" data-name="Layer 1" xmlns="http://www.w3.org/2000/svg" viewBox="0 0 1739.74 546.79"><defs><style>.cls-1{fill:#134b97;}</style></defs><title>Kroger_Logo_Tagline_RGB</title><path class="cls-1" d="M263.17-163.68h49.39v8.85H272.94v35.39h38.17v8.85H272.94V-66h-9.77Z" transform="translate(761.87 165.4)"/><path class="cls-1" d="M329.85-163.68h24.83c13.07,0,19.55,1.59,24,3.7a30.27,30.27,0,0,1,17.43,27.87c0,14.13-10.17,28.53-29.05,29.72L394.7-66H382.42l-33.15-44.24c12.41,0,16.64-.13,21-1.45a21.45,21.45,0,0,0,16.11-20.73c0-7.66-4.36-15.58-10.7-18.75-5.81-3-10.83-3.7-19-3.7h-17V-66h-9.77Z" transform="translate(761.87 165.4)"/><path class="cls-1" d="M412.65-163.68h53.49v8.85H422.43v35.13h42.26v8.85H422.43V-74.8h43.71V-66H412.65Z" transform="translate(761.87 165.4)"/><path class="cls-1" d="M489.51-93.29C490-81,497.83-73.08,509.85-73.08A19.41,19.41,0,0,0,529.53-92.5c0-15.06-15.19-18.89-21.79-20.87-8.85-2.64-25.36-6.34-25.36-25.75,0-15.19,12-26.28,27.47-26.28,16,0,27.07,12.28,27.07,26.54h-9.77a17.62,17.62,0,0,0-17.3-17.7c-11.23,0-17.7,8.59-17.7,17,0,11.89,10.43,14.66,23.24,18.36,23.77,6.34,23.9,25,23.9,28.13v.13c0,15.06-12.15,28.66-29.45,28.66-12.68,0-29.71-7.53-30.11-29.05Z" transform="translate(761.87 165.4)"/><path class="cls-1" d="M555.28-163.68H565v43.05h50.58v-43.05h9.77V-66h-9.77v-45.83H565V-66h-9.77Z" transform="translate(761.87 165.4)"/><path class="cls-1" d="M263.17-32.91h49.39v8.85H272.94V11.34h38.17v8.85H272.94V64.82h-9.77Z" transform="translate(761.87 165.4)"/><path class="cls-1" d="M377.93-34.62c27.47,0,51.77,21.79,51.77,50.58s-24.43,50.58-51.77,50.58c-27.73,0-51.64-22.58-51.64-50.05C326.29-14.28,351.91-34.62,377.93-34.62Zm0,92.31c22.58,0,42-18.36,42-41.6a41.93,41.93,0,1,0-83.86.4C336.06,38.81,355.21,57.69,377.93,57.69Z" transform="translate(761.87 165.4)"/><path class="cls-1" d="M444.61-32.91h24.83c13.07,0,19.55,1.59,24,3.7A30.27,30.27,0,0,1,510.91-1.34c0,14.13-10.17,28.53-29.05,29.72l27.6,36.45H497.17L464,20.58c12.41,0,16.64-.13,21-1.45A21.45,21.45,0,0,0,501.14-1.61c0-7.66-4.36-15.58-10.7-18.75-5.81-3-10.83-3.7-19-3.7h-17V64.82h-9.77Z" transform="translate(761.87 165.4)"/><path class="cls-1" d="M263.17,97.87h53.49v8.85H272.94v35.13H315.2v8.85H272.94v36.05h43.71v8.85H263.17Z" transform="translate(761.87 165.4)"/><path class="cls-1" d="M331,97.87h10.83l34.47,85.58,34.6-85.58h10.57L381,195.6h-9.64Z" transform="translate(761.87 165.4)"/><path class="cls-1" d="M431.94,97.87h53.49v8.85H441.71v35.13H484v8.85H441.71v36.05h43.71v8.85H431.94Z" transform="translate(761.87 165.4)"/><path class="cls-1" d="M502.72,97.87h24.83c13.07,0,19.55,1.59,24,3.7A30.27,30.27,0,0,1,569,129.43c0,14.13-10.17,28.53-29.05,29.72l27.6,36.45H555.28l-33.15-44.24c12.41,0,16.64-.13,21-1.45a21.45,21.45,0,0,0,16.11-20.73c0-7.66-4.36-15.58-10.7-18.75-5.81-3-10.83-3.7-19-3.7h-17V195.6h-9.77Z" transform="translate(761.87 165.4)"/><path class="cls-1" d="M605.07,163,571.13,97.87H582l27.87,54.81,28.66-54.81h10.7L614.84,163V195.6h-9.77Z" transform="translate(761.87 165.4)"/><path class="cls-1" d="M701.2,96.15c27.47,0,51.77,21.79,51.77,50.58s-24.43,50.58-51.77,50.58c-27.73,0-51.64-22.58-51.64-50.05C649.57,116.49,675.19,96.15,701.2,96.15Zm0,92.31c22.58,0,42-18.36,42-41.6a41.93,41.93,0,1,0-83.86.4C659.34,169.58,678.49,188.47,701.2,188.47Z" transform="translate(761.87 165.4)"/><path class="cls-1" d="M768.55,97.87h13.21L836.3,179h.26V97.87h9.77V195.6h-9.77l-58-86h-.26v86h-9.77Z" transform="translate(761.87 165.4)"/><path class="cls-1" d="M865.61,97.87H919.1v8.85H875.38v35.13h42.26v8.85H875.38v36.05H919.1v8.85H865.61Z" transform="translate(761.87 165.4)"/><path class="cls-1" d="M952.43,175.71V179h-6.36v16.59h-3.95V179h-6.36v-3.29Zm21.49,19.88-.73-11.7c-.07-1.54-.07-3.44-.15-5.56h-.22c-.51,1.75-1.1,4.09-1.68,5.92l-3.58,11h-4.09L959.89,184c-.37-1.53-1-3.87-1.39-5.63h-.22c0,1.83-.07,3.73-.15,5.56l-.73,11.7h-3.8l1.46-19.88H961l3.44,9.72c.44,1.54.8,3,1.32,5h.07c.51-1.83,1-3.51,1.39-5l3.43-9.8h5.7l1.53,19.88Z" transform="translate(761.87 165.4)"/><path class="cls-1" d="M-496.82,63.71V38.12h-46.45V195h47.56V108.07q12.24-27.25,41.3-27.25a81.66,81.66,0,0,1,16.83,1.67V37.43a43.79,43.79,0,0,0-14.88-2.23Q-476.66,35.2-496.82,63.71Z" transform="translate(761.87 165.4)"/><path class="cls-1" d="M-285.26,174.34q23-23.43,23-57.92,0-34.21-23-57.71t-57.16-23.5q-34.14,0-57.09,23.61t-22.95,57.61q0,34,22.95,57.67t57.09,23.68Q-308.28,197.77-285.26,174.34Zm-82.33-30.85q-9.8-11-9.8-27.07,0-15.76,9.8-26.86t25.17-11.1q15.37,0,25.24,11.1t9.87,26.86q0,15.9-9.87,27t-25.24,11.1Q-357.78,154.52-367.59,143.49Z" transform="translate(761.87 165.4)"/><path class="cls-1" d="M15.32,35.2q-33.1,0-56,23.09t-22.95,58.13q0,35.88,22,58.62t57.58,22.74q23.92,0,40.89-8.93a112.42,112.42,0,0,0,31.15-24.7L53.42,144.85Q40.07,157,18.65,157q-30.73,0-36.16-27.26H90.41a35.4,35.4,0,0,1,.28-3.82q.27-2.43.42-4.45c.09-1.34.14-2.48.14-3.41Q91.25,83.6,70,59.4T15.32,35.2Zm-32.26,66.34q3.47-13.06,11.82-20.16a29.13,29.13,0,0,1,19.47-7.1q10.57,0,19.12,8.23a33,33,0,0,1,10.22,19Z" transform="translate(761.87 165.4)"/><path class="cls-1" d="M202.11,35.2q-24.2,0-44.36,28.51V38.12H111.3V195h47.56V108.07q12.24-27.25,41.3-27.25A81.64,81.64,0,0,1,217,82.49V37.43A43.78,43.78,0,0,0,202.11,35.2Z" transform="translate(761.87 165.4)"/><path class="cls-1" d="M-589.12,8.53a155.84,155.84,0,0,0,1.27-16.27h0A111.44,111.44,0,0,1-476.5-119.05,111.44,111.44,0,0,1-365.19-7.74h44.86c0-86.11-70.06-156.17-156.17-156.17-85.21,0-154.66,68.61-156.1,153.49h-.08a105.84,105.84,0,0,1-.93,13.21c-2.05,15.94-8,38.92-24.67,57.87-13,14.83-30.89,24.87-53.24,30.1V-13.47h-50.34V195h50.34V136.58a167.06,167.06,0,0,0,42.77-13.26l45.4,71.67h60.22l-66.42-99.4c1.69-1.72,3.35-3.48,5-5.3C-600.45,62.83-592,30.67-589.12,8.53Z" transform="translate(761.87 165.4)"/><path class="cls-1" d="M-83.77,240.87V38.12h-45.34V51.48q-16-16.27-40.47-16.27-30.18,0-52.29,22.7T-244,114.19q0,33.44,22.67,55.73t51.73,22.29q23.64-.14,41-13c0,.31,0,47.28,0,61.68h0a95.78,95.78,0,0,1-95.67,95.67,95.78,95.78,0,0,1-95.67-95.67h-44.86c0,77.49,63,140.53,140.53,140.53C-148.16,381.4-86,320.6-83.83,245h.05v-2.14c0-.68.05-1.34.05-2ZM-138.49,140.8q-9.67,10.67-25.38,10.67-15.44,0-25.24-10.67t-9.8-26.54q0-15.86,9.8-26.53t25.24-10.67q15.57,0,25.31,10.67t9.73,26.53Q-128.83,130.13-138.49,140.8Z" transform="translate(761.87 165.4)"/><path class="cls-1" d="M-46.8,314.23a16.88,16.88,0,0,1-17.21,17,17,17,0,0,1-17.31-17A17,17,0,0,1-64,297.43,16.84,16.84,0,0,1-46.8,314.23Zm-30.22,0c0,7.48,5.53,13.42,13.11,13.42,7.38,0,12.8-5.94,12.8-13.32S-56.53,300.81-64,300.81-77,306.86-77,314.23ZM-66.67,323h-3.89v-16.8a34.14,34.14,0,0,1,6.45-.51c3.18,0,4.61.51,5.84,1.23a4.66,4.66,0,0,1,1.64,3.69c0,1.84-1.43,3.28-3.48,3.89v.2c1.64.61,2.56,1.84,3.07,4.1.51,2.56.82,3.58,1.23,4.2H-60c-.51-.61-.82-2.15-1.33-4.1-.31-1.84-1.33-2.66-3.48-2.66h-1.84Zm.1-9.53h1.84c2.15,0,3.89-.72,3.89-2.46,0-1.54-1.13-2.56-3.58-2.56a9.25,9.25,0,0,0-2.15.21Z" transform="translate(761.87 165.4)"/></svg>