<?xml version="1.0" encoding="UTF-8"?>
<svg width="133px" height="24px" viewBox="0 0 133 24" version="1.1" xmlns="http://www.w3.org/2000/svg" xmlns:xlink="http://www.w3.org/1999/xlink">
    <!-- Generator: Sketch 63.1 (92452) - https://sketch.com -->
    <title>dg23195_flyout_logo_1_133x24</title>
    <desc>Created with Sketch.</desc>
    <defs>
        <polygon id="path-1" points="0 21.4155 119.68 21.4155 119.68 -0.0005 0 -0.0005"></polygon>
    </defs>
    <g id="dg23195_flyout_logo_1_133x24" stroke="none" stroke-width="1" fill="none" fill-rule="evenodd">
        <g id="Group-18" transform="translate(7.000000, 1.000000)">
            <path d="M43.8686,6.8861 C42.0756,6.5071 40.2336,6.1071 40.2336,4.6631 C40.2336,3.0721 41.9096,2.7371 43.3406,2.7371 C44.8086,2.7371 46.2226,3.0581 47.6636,3.7161 L47.7926,3.7791 C47.8296,3.7971 47.8736,3.7821 47.8936,3.7471 L49.1856,1.4621 C49.2056,1.4211 49.1916,1.3731 49.1526,1.3561 L49.0146,1.2861 C47.0656,0.4081 45.2436,0.0001 43.2806,0.0001 C39.4706,0.0001 37.0096,1.8481 37.0096,4.7081 C37.0096,8.0031 39.7696,9.0301 42.7486,9.6461 C44.6246,10.0331 46.4466,10.4171 46.4466,11.9201 C46.4466,13.5431 44.6446,13.8841 43.1066,13.8841 C41.4836,13.8841 39.8536,13.4091 38.1266,12.4321 L38.0726,12.4001 C38.0336,12.3771 37.9846,12.3931 37.9666,12.4281 L36.6256,14.8071 C36.6046,14.8431 36.6176,14.8891 36.6526,14.9101 L36.7076,14.9451 C38.5796,16.0291 40.9126,16.6511 43.1066,16.6511 C47.2786,16.6511 49.6696,14.9181 49.6696,11.8981 C49.6696,8.1201 46.3326,7.4081 43.8686,6.8861" id="Fill-1" fill="#FFFFFF"></path>
            <path d="M59.3715,13.6429 C59.3605,13.6069 59.3175,13.5789 59.2705,13.5949 L59.1005,13.6609 C58.4335,13.9189 57.9725,14.0349 57.0075,14.0349 C55.8895,14.0349 55.1665,13.4299 55.1665,12.4959 L55.1685,6.8019 L59.1545,6.8019 C59.1965,6.8019 59.2315,6.7679 59.2315,6.7249 L59.2315,4.4159 C59.2315,4.3739 59.1965,4.3399 59.1545,4.3399 L55.1665,4.3399 L55.1665,1.3389 C55.1665,1.2959 55.1325,1.2619 55.0895,1.2619 L52.1675,1.2619 C52.1255,1.2619 52.0905,1.2959 52.0905,1.3389 L52.0905,4.3399 L49.7055,4.3399 C49.6635,4.3399 49.6285,4.3739 49.6285,4.4159 L49.6285,6.7249 C49.6285,6.7679 49.6635,6.8019 49.7055,6.8019 L52.0905,6.8019 L52.0905,12.8029 C52.0905,15.2119 53.7025,16.6509 56.4015,16.6509 C57.9685,16.6509 58.8845,16.3249 59.8375,15.9299 C59.8995,15.9049 59.9695,15.8729 60.0185,15.8519 C60.0545,15.8359 60.0725,15.7949 60.0605,15.7579 L59.3715,13.6429 Z" id="Fill-3" fill="#FFFFFF"></path>
            <path d="M26.2953,0.3382 L3.7703,0.3382 C1.6313,0.3382 0.0003,2.0722 0.0003,4.2112 L0.0003,16.2602 C0.0003,16.3062 0.0373,16.3432 0.0833,16.3432 L2.9943,16.3432 C3.0403,16.3432 3.0773,16.3062 3.0773,16.2602 L3.0773,4.0312 L26.9833,4.0312 L26.9833,16.2602 C26.9833,16.3062 27.0213,16.3432 27.0663,16.3432 L29.9833,16.3432 C30.0283,16.3432 30.0663,16.3062 30.0663,16.2602 L30.0663,4.2112 C30.0663,2.0722 28.4343,0.3382 26.2953,0.3382" id="Fill-5" fill="#FFFFFF"></path>
            <path d="M68.6088,12.9711 C67.2498,13.9311 66.2918,14.3231 65.3028,14.3231 C64.2738,14.3231 63.5818,13.7901 63.5818,12.9981 C63.5818,12.6631 63.6208,11.6061 65.0828,11.4191 C66.5458,11.2311 68.6088,10.9711 68.6088,10.9711 L68.6088,12.9711 Z M73.0248,14.0961 L72.5628,14.0961 C71.9888,14.0961 71.6868,13.7831 71.6868,13.1941 L71.6868,8.4271 C71.6868,5.4691 70.0808,4.0321 66.7768,4.0321 C65.4598,4.0321 63.6678,4.1581 61.4878,5.1461 C61.4518,5.1611 61.4348,5.2021 61.4458,5.2401 L62.1678,7.4641 C62.1818,7.5081 62.2288,7.5281 62.2688,7.5121 C63.8778,6.8751 65.3128,6.5261 66.3158,6.5261 C67.4528,6.5261 68.6088,6.7361 68.6088,8.2921 L68.6088,8.9561 C68.6088,8.9561 68.4278,8.9691 64.7748,9.2641 C61.1218,9.5591 60.5838,12.1171 60.5838,13.1541 C60.5838,15.2121 62.2188,16.6511 64.5598,16.6511 C66.2538,16.6511 67.7088,16.1221 69.0078,15.0341 L69.0078,15.0341 C69.2808,15.6071 70.0548,16.5681 72.1628,16.5681 L73.0248,16.5681 C73.0668,16.5681 73.1018,16.5341 73.1018,16.4911 L73.1018,14.1731 C73.1018,14.1301 73.0668,14.0961 73.0248,14.0961 L73.0248,14.0961 Z" id="Fill-7" fill="#FFFFFF"></path>
            <path d="M112.601,9.0697 C110.627,8.7237 109.659,8.5417 109.659,7.6147 C109.659,7.0647 109.919,6.3377 112.049,6.3377 C112.69,6.3377 114.128,6.3997 115.804,7.3017 L115.886,7.3447 C115.922,7.3637 115.968,7.3507 115.989,7.3147 L117.131,5.3307 C117.153,5.2927 117.14,5.2447 117.098,5.2227 L117.002,5.1767 C115.624,4.5437 114.301,4.0187 112.065,4.0187 C108.646,4.0187 106.763,5.3387 106.763,7.7337 C106.763,10.4607 109.296,11.1087 111.67,11.5037 C113.77,11.8517 114.617,12.1477 114.617,13.0747 C114.617,13.9197 113.803,14.3297 112.065,14.3297 C110.469,14.3297 108.836,13.6507 107.746,13.0797 L107.676,13.0467 C107.64,13.0277 107.596,13.0427 107.576,13.0777 L106.442,15.0817 C106.421,15.1197 106.433,15.1657 106.472,15.1867 L106.539,15.2237 C108.324,16.1487 110.235,16.6377 112.065,16.6377 C115.643,16.6377 117.458,15.3727 117.458,12.8787 C117.458,10.1597 115.056,9.5007 112.601,9.0697" id="Fill-9" fill="#FFFFFF"></path>
            <path d="M80.4272,14.0345 C79.3592,14.0345 78.4562,13.5305 77.5002,12.4015 L77.5002,8.1765 C78.4902,7.1195 79.3922,6.6475 80.4272,6.6475 C82.3902,6.6475 83.6592,8.0975 83.6592,10.3415 C83.6592,12.5505 82.3602,14.0345 80.4272,14.0345 M81.1972,4.0315 C79.8062,4.0315 78.6332,4.4905 77.5032,5.4765 L77.5032,4.4165 C77.5032,4.3745 77.4692,4.3395 77.4272,4.3395 L74.5032,4.3395 C74.4602,4.3395 74.4262,4.3745 74.4262,4.4165 L74.4262,21.3385 C74.4262,21.3815 74.4602,21.4155 74.5032,21.4155 L77.4232,21.4155 C77.4662,21.4155 77.5002,21.3815 77.5002,21.3385 L77.5002,15.2445 C78.5742,16.1385 79.9202,16.6505 81.1922,16.6505 C84.4562,16.6505 86.7372,14.0555 86.7372,10.3415 C86.7372,6.8035 84.3032,4.0315 81.1972,4.0315" id="Fill-11" fill="#FFFFFF"></path>
            <path d="M91.3993,0.3382 L88.4753,0.3382 C88.4333,0.3382 88.3993,0.3732 88.3993,0.4152 L88.3993,16.2662 C88.3993,16.3092 88.4333,16.3432 88.4753,16.3432 L91.3993,16.3432 C91.4413,16.3432 91.4763,16.3092 91.4763,16.2662 L91.4763,0.4152 C91.4763,0.3732 91.4413,0.3382 91.3993,0.3382" id="Fill-13" fill="#FFFFFF"></path>
            <path d="M99.1557,6.5228 C100.7557,6.5228 101.7397,7.3548 102.0047,8.9308 L96.3397,8.9308 C96.6127,7.3768 97.6127,6.5228 99.1557,6.5228 L99.1557,6.5228 Z M104.0337,13.0948 C104.0127,13.0588 103.9667,13.0468 103.9297,13.0668 L103.8307,13.1208 C102.8347,13.6428 101.9357,14.1708 100.0487,14.1708 C98.0007,14.1708 96.6117,13.0328 96.3327,11.1258 L105.0037,11.1258 C105.0457,11.1258 105.0807,11.0908 105.0807,11.0478 L105.0807,10.2108 C105.0807,6.3988 102.8017,4.0318 99.1327,4.0318 C95.6177,4.0318 93.1627,6.6648 93.1627,10.4318 C93.1627,14.1518 95.8187,16.6508 99.7697,16.6508 C102.3897,16.6508 104.0637,15.8068 105.0977,15.2068 L105.1497,15.1728 C105.1837,15.1508 105.1957,15.1058 105.1747,15.0698 L104.0337,13.0948 Z" id="Fill-15" fill="#FFFFFF"></path>
            <mask id="mask-2" fill="white">
                <use xlink:href="#path-1"></use>
            </mask>
            <g id="Clip-17"></g>
            <text id="®" mask="url(#mask-2)" font-family="MotivaSans-Medium, Motiva Sans" font-size="2.8315" font-weight="400" fill="#FFFFFF">
                <tspan x="117.3638" y="16.2461931">®</tspan>
            </text>
        </g>
    </g>
</svg>