<svg id="Layer_1" data-name="Layer 1" xmlns="http://www.w3.org/2000/svg" width="256" height="98" viewBox="0 0 256 98">
  <defs>
    <style>
      .cls-1 {
        fill: #0b223f;
      }
    </style>
  </defs>
  <title>FOOTER-LINE-2</title>
  <g>
    <path class="cls-1" d="M85.47,35.91V21.64h-5.1V18.73H94v2.91H88.94V35.91Z"/>
    <path class="cls-1" d="M96.92,27.27l-3-.54a4.63,4.63,0,0,1,1.73-2.68,6.42,6.42,0,0,1,3.66-.86,7.87,7.87,0,0,1,3.28.52A3.26,3.26,0,0,1,104.12,25a6.71,6.71,0,0,1,.44,2.95l0,3.84a12.86,12.86,0,0,0,.16,2.42,6.72,6.72,0,0,0,.59,1.67H102c-.08-.21-.19-.54-.32-1,0-.19-.09-.32-.11-.39a6.16,6.16,0,0,1-1.81,1.24,5.21,5.21,0,0,1-2,.41,4.23,4.23,0,0,1-3-1.05,3.44,3.44,0,0,1-1.1-2.63,3.48,3.48,0,0,1,.5-1.88,3.27,3.27,0,0,1,1.41-1.27,11.31,11.31,0,0,1,2.62-.77,17.89,17.89,0,0,0,3.2-.81v-.32a1.72,1.72,0,0,0-.47-1.36,2.8,2.8,0,0,0-1.77-.4,2.37,2.37,0,0,0-1.37.34A2.45,2.45,0,0,0,96.92,27.27Zm4.41,2.67a19.52,19.52,0,0,1-2,.5,6,6,0,0,0-1.8.58,1.36,1.36,0,0,0-.64,1.16,1.6,1.6,0,0,0,.51,1.19,1.82,1.82,0,0,0,1.32.51,2.87,2.87,0,0,0,1.7-.59,2.08,2.08,0,0,0,.78-1.09,6.32,6.32,0,0,0,.13-1.61Z"/>
    <path class="cls-1" d="M106.23,35.91l4.49-6.41-4.3-6h4l2.2,3.42L115,23.47h3.87l-4.22,5.89,4.6,6.55h-4l-2.53-3.85-2.56,3.85Z"/>
    <path class="cls-1" d="M127.87,35.91V18.73h11.78v2.91h-8.31v4.07h7.17v2.9h-7.17v7.3Z"/>
    <path class="cls-1" d="M145.64,35.91h-3.29V23.47h3.05v1.77a5.25,5.25,0,0,1,1.42-1.65,2.53,2.53,0,0,1,1.42-.4,4.14,4.14,0,0,1,2.17.62l-1,2.87a2.9,2.9,0,0,0-1.55-.54,1.85,1.85,0,0,0-1.17.38,2.66,2.66,0,0,0-.76,1.38,19.88,19.88,0,0,0-.27,4.17Z"/>
    <path class="cls-1" d="M159,32l3.28.55a5.34,5.34,0,0,1-2,2.75,5.87,5.87,0,0,1-3.42,1,5.54,5.54,0,0,1-4.8-2.13,7,7,0,0,1-1.24-4.28,6.87,6.87,0,0,1,1.62-4.85,5.32,5.32,0,0,1,4.09-1.75A5.53,5.53,0,0,1,161,25c1.07,1.22,1.59,3.1,1.54,5.62h-8.25a3.3,3.3,0,0,0,.8,2.28,2.49,2.49,0,0,0,1.9.81,2,2,0,0,0,1.3-.42A2.59,2.59,0,0,0,159,32Zm.19-3.32a3.16,3.16,0,0,0-.74-2.18,2.38,2.38,0,0,0-3.49,0,3,3,0,0,0-.69,2.14Z"/>
    <path class="cls-1" d="M172.38,32l3.28.55a5.36,5.36,0,0,1-2,2.75,5.86,5.86,0,0,1-3.41,1,5.56,5.56,0,0,1-4.81-2.13,7.11,7.11,0,0,1-1.23-4.28,6.87,6.87,0,0,1,1.62-4.85,5.32,5.32,0,0,1,4.09-1.75A5.53,5.53,0,0,1,174.3,25c1.07,1.22,1.58,3.1,1.54,5.62h-8.25a3.34,3.34,0,0,0,.79,2.28,2.5,2.5,0,0,0,1.9.81,2,2,0,0,0,1.3-.42A2.53,2.53,0,0,0,172.38,32Zm.19-3.32a3.21,3.21,0,0,0-.74-2.18,2.38,2.38,0,0,0-3.49,0,3,3,0,0,0-.69,2.14Z"/>
  </g>
  <g>
    <path class="cls-1" d="M73.88,54.32,77.26,54a4.09,4.09,0,0,0,1.23,2.49,3.77,3.77,0,0,0,2.52.8,3.86,3.86,0,0,0,2.52-.71,2.09,2.09,0,0,0,.85-1.66,1.59,1.59,0,0,0-.35-1,2.85,2.85,0,0,0-1.25-.75c-.41-.14-1.33-.39-2.78-.75a9.41,9.41,0,0,1-3.91-1.7,4.45,4.45,0,0,1-1.59-3.45,4.39,4.39,0,0,1,.75-2.46A4.65,4.65,0,0,1,77.39,43a8.58,8.58,0,0,1,3.38-.6,7.22,7.22,0,0,1,4.87,1.42,5,5,0,0,1,1.72,3.79l-3.47.15a3,3,0,0,0-1-1.91,3.57,3.57,0,0,0-2.2-.58,4,4,0,0,0-2.37.62A1.26,1.26,0,0,0,77.82,47a1.3,1.3,0,0,0,.52,1,9,9,0,0,0,3.18,1.15,16.7,16.7,0,0,1,3.75,1.24,4.84,4.84,0,0,1,1.9,1.74,5.18,5.18,0,0,1,.68,2.74A5,5,0,0,1,87,57.68a4.93,4.93,0,0,1-2.32,1.91,9.71,9.71,0,0,1-3.74.63,7.4,7.4,0,0,1-5-1.51A6.52,6.52,0,0,1,73.88,54.32Z"/>
    <path class="cls-1" d="M94,42.73v6.32a4.95,4.95,0,0,1,5.86-1.44,3.24,3.24,0,0,1,1.37,1.08,4,4,0,0,1,.64,1.45,13.28,13.28,0,0,1,.17,2.47v7.3h-3.3V53.34a10.1,10.1,0,0,0-.18-2.48,1.64,1.64,0,0,0-.67-.84,2.09,2.09,0,0,0-1.19-.31,2.69,2.69,0,0,0-1.46.4,2.25,2.25,0,0,0-.94,1.2,7.09,7.09,0,0,0-.3,2.37v6.23h-3.3V42.73Z"/>
    <path class="cls-1" d="M104.64,53.52a6.71,6.71,0,0,1,.81-3.18A5.62,5.62,0,0,1,107.74,48a6.82,6.82,0,0,1,3.31-.81A6.21,6.21,0,0,1,115.68,49a6.32,6.32,0,0,1,1.81,4.64,6.43,6.43,0,0,1-1.82,4.68,6.17,6.17,0,0,1-4.59,1.86,7.22,7.22,0,0,1-3.27-.78,5.32,5.32,0,0,1-2.36-2.26A7.56,7.56,0,0,1,104.64,53.52Zm3.38.17a4.11,4.11,0,0,0,.88,2.84,2.88,2.88,0,0,0,4.33,0,4.2,4.2,0,0,0,.87-2.86,4.09,4.09,0,0,0-.87-2.81,2.86,2.86,0,0,0-4.33,0A4.08,4.08,0,0,0,108,53.69Z"/>
    <path class="cls-1" d="M120,47.47H123V49.3a4.58,4.58,0,0,1,1.62-1.53,4.45,4.45,0,0,1,2.26-.58,4.72,4.72,0,0,1,3.68,1.7,6.86,6.86,0,0,1,1.51,4.73,7.07,7.07,0,0,1-1.52,4.85,4.77,4.77,0,0,1-3.69,1.73,4.24,4.24,0,0,1-1.87-.41,6.39,6.39,0,0,1-1.76-1.41v6.27H120Zm3.26,6a4.82,4.82,0,0,0,.83,3.1,2.55,2.55,0,0,0,2,1,2.36,2.36,0,0,0,1.91-.92,4.71,4.71,0,0,0,.76-3,4.52,4.52,0,0,0-.78-2.91,2.46,2.46,0,0,0-2-1,2.53,2.53,0,0,0-2,.93A4.15,4.15,0,0,0,123.23,53.48Z"/>
    <path class="cls-1" d="M134.63,47.47h3.07V49.3a4.58,4.58,0,0,1,1.62-1.53,4.45,4.45,0,0,1,2.26-.58,4.72,4.72,0,0,1,3.68,1.7,6.86,6.86,0,0,1,1.51,4.73,7.07,7.07,0,0,1-1.52,4.85,4.77,4.77,0,0,1-3.69,1.73,4.24,4.24,0,0,1-1.87-.41,6.39,6.39,0,0,1-1.76-1.41v6.27h-3.3Zm3.26,6a4.82,4.82,0,0,0,.83,3.1,2.55,2.55,0,0,0,2,1,2.36,2.36,0,0,0,1.91-.92,4.71,4.71,0,0,0,.76-3,4.52,4.52,0,0,0-.78-2.91,2.46,2.46,0,0,0-1.95-1,2.53,2.53,0,0,0-2,.93A4.15,4.15,0,0,0,137.89,53.48Z"/>
    <path class="cls-1" d="M149.39,45.78V42.73h3.29v3.05Zm0,14.13V47.47h3.29V59.91Z"/>
    <path class="cls-1" d="M167.38,59.91h-3.3V53.56a9.79,9.79,0,0,0-.21-2.6,1.79,1.79,0,0,0-.68-.92,2,2,0,0,0-1.15-.33,2.57,2.57,0,0,0-1.53.47,2.26,2.26,0,0,0-.93,1.24,10.53,10.53,0,0,0-.26,2.86v5.63H156V47.47h3.06V49.3a5.1,5.1,0,0,1,6.09-1.72,3.35,3.35,0,0,1,1.37,1,3.61,3.61,0,0,1,.64,1.39,10.18,10.18,0,0,1,.19,2.21Z"/>
    <path class="cls-1" d="M170.41,60.73l3.76.46a1.25,1.25,0,0,0,.44.9,2.41,2.41,0,0,0,1.47.36,3.83,3.83,0,0,0,1.94-.39,1.64,1.64,0,0,0,.65-.83,5.11,5.11,0,0,0,.15-1.51V57.9a4.44,4.44,0,0,1-3.72,2,4.59,4.59,0,0,1-4-2.12A7.21,7.21,0,0,1,170,53.62a6.88,6.88,0,0,1,1.5-4.78,4.87,4.87,0,0,1,3.75-1.65,4.54,4.54,0,0,1,3.81,2V47.47h3.08V58.64a10.82,10.82,0,0,1-.37,3.29,4,4,0,0,1-1,1.71,4.44,4.44,0,0,1-1.75,1,9,9,0,0,1-2.77.35c-2.11,0-3.6-.36-4.49-1.08a3.4,3.4,0,0,1-1.32-2.75C170.4,61,170.4,60.89,170.41,60.73Zm2.94-7.3a4.49,4.49,0,0,0,.77,2.9,2.35,2.35,0,0,0,1.89.92,2.6,2.6,0,0,0,2-.94,4.08,4.08,0,0,0,.83-2.79,4.35,4.35,0,0,0-.79-2.87,2.54,2.54,0,0,0-2-.94,2.41,2.41,0,0,0-1.95.92A4.31,4.31,0,0,0,173.35,53.43Z"/>
  </g>
  <g>
    <path class="cls-1" d="M100.18,77.91V69.32h6.36v1.46h-4.63v1.9h4.31v1.45h-4.31v2.34h4.8v1.44Z"/>
    <path class="cls-1" d="M109.88,77.91l-2.51-6.22h1.73l1.17,3.18.34,1.06c.09-.27.15-.45.17-.54s.11-.35.18-.52l1.18-3.18h1.69l-2.47,6.22Z"/>
    <path class="cls-1" d="M118.45,75.93l1.64.28a2.69,2.69,0,0,1-1,1.37,2.92,2.92,0,0,1-1.71.47A2.77,2.77,0,0,1,115,77a3.54,3.54,0,0,1-.62-2.14,3.42,3.42,0,0,1,.81-2.42,2.64,2.64,0,0,1,2-.88,2.79,2.79,0,0,1,2.2.92,4.05,4.05,0,0,1,.76,2.81h-4.12a1.62,1.62,0,0,0,.4,1.14,1.24,1.24,0,0,0,1,.4,1,1,0,0,0,.65-.21A1.31,1.31,0,0,0,118.45,75.93Zm.09-1.66a1.6,1.6,0,0,0-.37-1.09,1.12,1.12,0,0,0-.86-.37,1.17,1.17,0,0,0-.89.39,1.51,1.51,0,0,0-.34,1.07Z"/>
    <path class="cls-1" d="M123.09,77.91h-1.64V71.69H123v.89a2.72,2.72,0,0,1,.71-.83,1.33,1.33,0,0,1,.71-.2,2.08,2.08,0,0,1,1.09.31L125,73.3a1.47,1.47,0,0,0-.78-.27.88.88,0,0,0-.58.19,1.24,1.24,0,0,0-.38.69,9.76,9.76,0,0,0-.14,2.08Z"/>
    <path class="cls-1" d="M125.41,71.69h1.75l1.49,4.42,1.45-4.42h1.7l-2.19,6-.4,1.08a4.38,4.38,0,0,1-.41.84,1.79,1.79,0,0,1-.45.46,2,2,0,0,1-.63.28,3,3,0,0,1-.84.1,4.2,4.2,0,0,1-.93-.1l-.15-1.29a3.76,3.76,0,0,0,.7.08,1,1,0,0,0,.85-.34,2.1,2.1,0,0,0,.42-.86Z"/>
    <path class="cls-1" d="M136.2,69.32h3.17a6.08,6.08,0,0,1,1.63.17,2.86,2.86,0,0,1,1.3.79,3.77,3.77,0,0,1,.82,1.39,6.3,6.3,0,0,1,.28,2,5.81,5.81,0,0,1-.26,1.83,3.9,3.9,0,0,1-.92,1.52,3,3,0,0,1-1.22.68,5.32,5.32,0,0,1-1.54.18H136.2Zm1.73,1.46v5.69h1.3a4.38,4.38,0,0,0,1.05-.09A1.6,1.6,0,0,0,141,76a1.94,1.94,0,0,0,.45-.83,5.53,5.53,0,0,0,.18-1.58,4.94,4.94,0,0,0-.18-1.52,2,2,0,0,0-.49-.84,1.64,1.64,0,0,0-.8-.4,7.55,7.55,0,0,0-1.43-.08Z"/>
    <path class="cls-1" d="M146.09,73.59l-1.49-.27a2.3,2.3,0,0,1,.86-1.34,3.25,3.25,0,0,1,1.83-.43,4,4,0,0,1,1.64.26,1.73,1.73,0,0,1,.76.66,3.37,3.37,0,0,1,.22,1.48l0,1.92a6.89,6.89,0,0,0,.08,1.21,3.1,3.1,0,0,0,.3.83h-1.63c0-.11-.1-.27-.16-.48l-.06-.2a2.91,2.91,0,0,1-.9.62,2.52,2.52,0,0,1-1,.2,2.1,2.1,0,0,1-1.51-.52,1.71,1.71,0,0,1-.55-1.32,1.76,1.76,0,0,1,.25-.94,1.71,1.71,0,0,1,.7-.63,5.52,5.52,0,0,1,1.31-.38,8.72,8.72,0,0,0,1.6-.41v-.16a.88.88,0,0,0-.23-.68,1.45,1.45,0,0,0-.89-.2,1.2,1.2,0,0,0-.68.17A1.18,1.18,0,0,0,146.09,73.59Zm2.2,1.34c-.21.07-.54.15-1,.25a3.4,3.4,0,0,0-.9.28.71.71,0,0,0-.32.58.81.81,0,0,0,.26.6.89.89,0,0,0,.66.25,1.41,1.41,0,0,0,.85-.29,1,1,0,0,0,.39-.54,3.52,3.52,0,0,0,.06-.81Z"/>
    <path class="cls-1" d="M150.75,71.69h1.76L154,76.11l1.46-4.42h1.7l-2.19,6-.4,1.08a4.38,4.38,0,0,1-.41.84,1.79,1.79,0,0,1-.45.46,2,2,0,0,1-.63.28,3.12,3.12,0,0,1-.84.1,4.08,4.08,0,0,1-.93-.1l-.15-1.29a3.76,3.76,0,0,0,.7.08,1,1,0,0,0,.85-.34,2.38,2.38,0,0,0,.42-.86Z"/>
  </g>
</svg>
