<svg id="Layer_1" data-name="Layer 1" xmlns="http://www.w3.org/2000/svg" width="256" height="98" viewBox="0 0 256 98">
  <defs>
    <style>
      .cls-1 {
        fill: #0b223f;
      }
    </style>
  </defs>
  <title>FOOTER-LINE-2</title>
  <g>
    <path class="cls-1" d="M49.65,35.91V18.73H61.43v2.91H53.12v4.07h7.17v2.9H53.12v7.3Z"/>
    <path class="cls-1" d="M67.41,35.91H64.12V23.47h3.06v1.77a5.12,5.12,0,0,1,1.41-1.65,2.57,2.57,0,0,1,1.43-.4,4.08,4.08,0,0,1,2.16.62l-1,2.87a2.87,2.87,0,0,0-1.54-.54,1.85,1.85,0,0,0-1.17.38,2.53,2.53,0,0,0-.76,1.38,19.64,19.64,0,0,0-.28,4.17Z"/>
    <path class="cls-1" d="M80.81,32l3.28.55a5.36,5.36,0,0,1-2,2.75,5.86,5.86,0,0,1-3.41,1,5.56,5.56,0,0,1-4.81-2.13,7.11,7.11,0,0,1-1.23-4.28,6.87,6.87,0,0,1,1.62-4.85,5.32,5.32,0,0,1,4.09-1.75A5.53,5.53,0,0,1,82.73,25c1.07,1.22,1.58,3.1,1.54,5.62H76a3.29,3.29,0,0,0,.79,2.28,2.5,2.5,0,0,0,1.9.81,2,2,0,0,0,1.3-.42A2.6,2.6,0,0,0,80.81,32ZM81,28.63a3.21,3.21,0,0,0-.74-2.18,2.38,2.38,0,0,0-3.49,0,3.1,3.1,0,0,0-.7,2.14Z"/>
    <path class="cls-1" d="M94.16,32l3.28.55a5.36,5.36,0,0,1-2,2.75,5.87,5.87,0,0,1-3.42,1,5.56,5.56,0,0,1-4.8-2.13A7.11,7.11,0,0,1,86,29.79a6.87,6.87,0,0,1,1.62-4.85,5.3,5.3,0,0,1,4.09-1.75A5.53,5.53,0,0,1,96.08,25c1.07,1.22,1.58,3.1,1.53,5.62H89.36a3.34,3.34,0,0,0,.8,2.28,2.5,2.5,0,0,0,1.9.81,2,2,0,0,0,1.3-.42A2.6,2.6,0,0,0,94.16,32Zm.18-3.32a3.21,3.21,0,0,0-.73-2.18,2.4,2.4,0,0,0-3.5,0,3,3,0,0,0-.69,2.14Z"/>
    <path class="cls-1" d="M106.11,30.32l3.37-.32a4.15,4.15,0,0,0,1.24,2.49,3.74,3.74,0,0,0,2.51.8,3.89,3.89,0,0,0,2.53-.71,2.1,2.1,0,0,0,.85-1.66,1.54,1.54,0,0,0-.36-1,2.79,2.79,0,0,0-1.25-.75c-.4-.14-1.33-.39-2.77-.75a9.46,9.46,0,0,1-3.92-1.7,4.52,4.52,0,0,1-.84-5.91A4.73,4.73,0,0,1,109.62,19a8.55,8.55,0,0,1,3.38-.6,7.22,7.22,0,0,1,4.87,1.42,5,5,0,0,1,1.72,3.78l-3.47.16a3,3,0,0,0-1-1.91,3.55,3.55,0,0,0-2.2-.58,4,4,0,0,0-2.36.62,1.25,1.25,0,0,0-.55,1.07,1.32,1.32,0,0,0,.51,1,9.1,9.1,0,0,0,3.19,1.15,16.41,16.41,0,0,1,3.74,1.24,4.78,4.78,0,0,1,1.9,1.74,5.09,5.09,0,0,1,.69,2.74,5.14,5.14,0,0,1-.82,2.77,4.93,4.93,0,0,1-2.32,1.91,9.71,9.71,0,0,1-3.74.63,7.4,7.4,0,0,1-5-1.51A6.52,6.52,0,0,1,106.11,30.32Z"/>
    <path class="cls-1" d="M126.25,18.73v6.32a4.95,4.95,0,0,1,5.86-1.44,3.34,3.34,0,0,1,1.38,1.08,3.84,3.84,0,0,1,.63,1.45,12.46,12.46,0,0,1,.17,2.47v7.3H131V29.34a9.43,9.43,0,0,0-.19-2.48,1.53,1.53,0,0,0-.66-.84,2.11,2.11,0,0,0-1.19-.31,2.67,2.67,0,0,0-1.46.4,2.27,2.27,0,0,0-1,1.2,7.09,7.09,0,0,0-.3,2.37v6.23H123V18.73Z"/>
    <path class="cls-1" d="M137.63,21.78V18.73h3.3v3.05Zm0,14.13V23.47h3.3V35.91Z"/>
    <path class="cls-1" d="M144.21,23.47h3.07V25.3a4.55,4.55,0,0,1,1.61-1.53,4.49,4.49,0,0,1,2.27-.58,4.73,4.73,0,0,1,3.68,1.7,6.9,6.9,0,0,1,1.51,4.73,7.09,7.09,0,0,1-1.53,4.85,4.74,4.74,0,0,1-3.69,1.73,4.27,4.27,0,0,1-1.87-.41,6.69,6.69,0,0,1-1.76-1.41v6.27h-3.29Zm3.25,6a4.76,4.76,0,0,0,.84,3.1,2.53,2.53,0,0,0,2,1,2.34,2.34,0,0,0,1.91-.92,4.72,4.72,0,0,0,.77-3,4.5,4.5,0,0,0-.79-2.9,2.43,2.43,0,0,0-1.94-.95,2.53,2.53,0,0,0-2,.93A4.15,4.15,0,0,0,147.46,29.48Z"/>
    <path class="cls-1" d="M158.87,23.47h3.07V25.3a4.64,4.64,0,0,1,1.61-1.53,4.49,4.49,0,0,1,2.27-.58,4.73,4.73,0,0,1,3.68,1.7A6.9,6.9,0,0,1,171,29.62a7.09,7.09,0,0,1-1.53,4.85,4.74,4.74,0,0,1-3.69,1.73,4.27,4.27,0,0,1-1.87-.41,6.69,6.69,0,0,1-1.76-1.41v6.27h-3.29Zm3.25,6a4.76,4.76,0,0,0,.84,3.1,2.53,2.53,0,0,0,2,1,2.34,2.34,0,0,0,1.91-.92,4.72,4.72,0,0,0,.77-3,4.5,4.5,0,0,0-.79-2.9,2.43,2.43,0,0,0-1.94-.95,2.53,2.53,0,0,0-2,.93A4.15,4.15,0,0,0,162.12,29.48Z"/>
    <path class="cls-1" d="M173.62,21.78V18.73h3.29v3.05Zm0,14.13V23.47h3.29V35.91Z"/>
    <path class="cls-1" d="M191.61,35.91h-3.29V29.56a9.79,9.79,0,0,0-.21-2.6,1.81,1.81,0,0,0-.69-.92,2,2,0,0,0-1.14-.33,2.62,2.62,0,0,0-1.54.47,2.35,2.35,0,0,0-.93,1.24,10.65,10.65,0,0,0-.25,2.86v5.63h-3.29V23.47h3V25.3a5.12,5.12,0,0,1,6.1-1.72,3.38,3.38,0,0,1,1.36,1,3.63,3.63,0,0,1,.65,1.39,10.3,10.3,0,0,1,.18,2.21Z"/>
    <path class="cls-1" d="M194.64,36.73l3.77.46a1.24,1.24,0,0,0,.43.9,2.42,2.42,0,0,0,1.48.36,3.79,3.79,0,0,0,1.93-.39,1.6,1.6,0,0,0,.66-.83,5.11,5.11,0,0,0,.15-1.51V33.9a4.47,4.47,0,0,1-3.73,2,4.58,4.58,0,0,1-4-2.12,7.14,7.14,0,0,1-1.15-4.17,6.84,6.84,0,0,1,1.51-4.78,4.85,4.85,0,0,1,3.74-1.65,4.54,4.54,0,0,1,3.81,2V23.47h3.08V34.64a11.21,11.21,0,0,1-.36,3.29,4,4,0,0,1-1,1.71,4.52,4.52,0,0,1-1.75,1,9,9,0,0,1-2.77.36c-2.11,0-3.61-.37-4.49-1.09a3.39,3.39,0,0,1-1.33-2.75C194.63,37,194.64,36.89,194.64,36.73Zm3-7.3a4.49,4.49,0,0,0,.76,2.9,2.38,2.38,0,0,0,1.9.92,2.63,2.63,0,0,0,2-.94,4.13,4.13,0,0,0,.83-2.79,4.4,4.4,0,0,0-.8-2.88,2.54,2.54,0,0,0-2-.93,2.43,2.43,0,0,0-2,.92A4.31,4.31,0,0,0,197.59,29.43Z"/>
  </g>
  <g>
    <path class="cls-1" d="M55.62,59.91V42.73H67.4v2.91H59.09v4.07h7.18v2.9H59.09v7.3Z"/>
    <path class="cls-1" d="M73.39,59.91H70.1V47.47h3.06v1.77a5.12,5.12,0,0,1,1.41-1.65,2.56,2.56,0,0,1,1.42-.4,4.24,4.24,0,0,1,2.17.62l-1,2.87a2.87,2.87,0,0,0-1.55-.54,1.85,1.85,0,0,0-1.17.38,2.63,2.63,0,0,0-.75,1.38,19,19,0,0,0-.28,4.17Z"/>
    <path class="cls-1" d="M86.78,56l3.29.55a5.41,5.41,0,0,1-2,2.75,5.87,5.87,0,0,1-3.42,1,5.56,5.56,0,0,1-4.8-2.13,7.11,7.11,0,0,1-1.23-4.28,6.91,6.91,0,0,1,1.61-4.85,5.33,5.33,0,0,1,4.09-1.75A5.53,5.53,0,0,1,88.71,49c1.07,1.22,1.58,3.1,1.53,5.62H82a3.34,3.34,0,0,0,.8,2.28,2.51,2.51,0,0,0,1.9.82,2,2,0,0,0,1.3-.43A2.59,2.59,0,0,0,86.78,56ZM87,52.63a3.16,3.16,0,0,0-.74-2.18,2.38,2.38,0,0,0-3.49,0,3,3,0,0,0-.69,2.14Z"/>
    <path class="cls-1" d="M100.13,56l3.28.55a5.34,5.34,0,0,1-2,2.75,5.87,5.87,0,0,1-3.42,1,5.57,5.57,0,0,1-4.81-2.13A7.11,7.11,0,0,1,92,53.79a6.87,6.87,0,0,1,1.62-4.85,5.32,5.32,0,0,1,4.09-1.75A5.53,5.53,0,0,1,102.05,49c1.07,1.22,1.59,3.1,1.54,5.62H95.34a3.3,3.3,0,0,0,.8,2.28,2.49,2.49,0,0,0,1.89.82,2.06,2.06,0,0,0,1.31-.43A2.59,2.59,0,0,0,100.13,56Zm.19-3.32a3.16,3.16,0,0,0-.74-2.18,2.38,2.38,0,0,0-3.49,0,3,3,0,0,0-.69,2.14Z"/>
    <path class="cls-1" d="M113,59.91V42.73h7.3a12.42,12.42,0,0,1,4,.47,4,4,0,0,1,2,1.64,5,5,0,0,1,.75,2.71,4.55,4.55,0,0,1-1.14,3.19,5.47,5.47,0,0,1-3.4,1.59,8.31,8.31,0,0,1,1.86,1.44,19.61,19.61,0,0,1,2,2.79l2.1,3.35h-4.15l-2.5-3.73a25.44,25.44,0,0,0-1.83-2.53,2.65,2.65,0,0,0-1-.71,5.59,5.59,0,0,0-1.74-.2h-.71v7.17ZM116.44,50H119a13.34,13.34,0,0,0,3.12-.21,1.83,1.83,0,0,0,1-.73,2.18,2.18,0,0,0,.35-1.29,2.07,2.07,0,0,0-.46-1.4,2.12,2.12,0,0,0-1.31-.67c-.28,0-1.12-.06-2.53-.06h-2.71Z"/>
    <path class="cls-1" d="M137.48,56l3.28.55a5.36,5.36,0,0,1-2,2.75,5.86,5.86,0,0,1-3.41,1,5.56,5.56,0,0,1-4.81-2.13,7.11,7.11,0,0,1-1.23-4.28,6.87,6.87,0,0,1,1.62-4.85A5.32,5.32,0,0,1,135,47.19,5.53,5.53,0,0,1,139.4,49c1.07,1.22,1.58,3.1,1.54,5.62h-8.25a3.34,3.34,0,0,0,.79,2.28,2.51,2.51,0,0,0,1.9.82,2,2,0,0,0,1.3-.43A2.6,2.6,0,0,0,137.48,56Zm.19-3.32a3.21,3.21,0,0,0-.74-2.18,2.38,2.38,0,0,0-3.49,0,3,3,0,0,0-.69,2.14Z"/>
    <path class="cls-1" d="M149.33,47.47v2.62h-2.25v5a13.46,13.46,0,0,0,.06,1.78.75.75,0,0,0,.3.41.9.9,0,0,0,.55.17,4.32,4.32,0,0,0,1.33-.32l.28,2.55a6.55,6.55,0,0,1-2.6.5,4.13,4.13,0,0,1-1.61-.3,2.3,2.3,0,0,1-1-.78,3,3,0,0,1-.46-1.28,15.79,15.79,0,0,1-.11-2.32V50.09h-1.51V47.47h1.51V45l3.31-1.93v4.4Z"/>
    <path class="cls-1" d="M159.8,59.91V58.05A4.66,4.66,0,0,1,158,59.62a5.06,5.06,0,0,1-2.34.58,4.63,4.63,0,0,1-2.25-.55A3.27,3.27,0,0,1,152,58.1a6.86,6.86,0,0,1-.45-2.76V47.47h3.3v5.72a16.08,16.08,0,0,0,.18,3.22,1.74,1.74,0,0,0,.66.93,2,2,0,0,0,1.22.35,2.66,2.66,0,0,0,1.51-.46,2.39,2.39,0,0,0,.91-1.15,13,13,0,0,0,.25-3.36V47.47h3.29V59.91Z"/>
    <path class="cls-1" d="M169.43,59.91h-3.3V47.47h3.06v1.77a5.25,5.25,0,0,1,1.41-1.65,2.59,2.59,0,0,1,1.43-.4,4.17,4.17,0,0,1,2.16.62l-1,2.87a2.93,2.93,0,0,0-1.55-.54,1.85,1.85,0,0,0-1.17.38,2.64,2.64,0,0,0-.76,1.38,19.88,19.88,0,0,0-.27,4.17Z"/>
    <path class="cls-1" d="M186.93,59.91h-3.29V53.56a9.79,9.79,0,0,0-.21-2.6,1.76,1.76,0,0,0-.69-.92,1.92,1.92,0,0,0-1.14-.33,2.57,2.57,0,0,0-1.53.47,2.32,2.32,0,0,0-.94,1.24,11.1,11.1,0,0,0-.25,2.86v5.63h-3.29V47.47h3.06V49.3a5.1,5.1,0,0,1,6.09-1.72,3.41,3.41,0,0,1,1.37,1,3.61,3.61,0,0,1,.64,1.39,10.3,10.3,0,0,1,.18,2.21Z"/>
    <path class="cls-1" d="M189.11,56.36l3.31-.5a2.41,2.41,0,0,0,.85,1.46,2.91,2.91,0,0,0,1.81.5,3.27,3.27,0,0,0,1.92-.47,1,1,0,0,0,.43-.88.88.88,0,0,0-.23-.62,2.69,2.69,0,0,0-1.1-.44,17.7,17.7,0,0,1-5-1.6,3.2,3.2,0,0,1-1.48-2.8,3.45,3.45,0,0,1,1.28-2.72,6,6,0,0,1,4-1.1,6.92,6.92,0,0,1,3.79.83,4.29,4.29,0,0,1,1.72,2.46l-3.11.58a1.88,1.88,0,0,0-.76-1.12,2.74,2.74,0,0,0-1.58-.38,3.64,3.64,0,0,0-1.87.36.77.77,0,0,0-.37.67.71.71,0,0,0,.33.59,12.15,12.15,0,0,0,3.07.93,9.34,9.34,0,0,1,3.68,1.46,3.08,3.08,0,0,1,1,2.45A3.79,3.79,0,0,1,199.31,59a6.35,6.35,0,0,1-4.23,1.23,6.93,6.93,0,0,1-4-1A4.74,4.74,0,0,1,189.11,56.36Z"/>
  </g>
  <g>
    <path class="cls-1" d="M89.78,77.91V69.32h5.89v1.46H91.51v2H95.1v1.45H91.51v3.65Z"/>
    <path class="cls-1" d="M97.08,70.85V69.32h1.65v1.53Zm0,7.06V71.69h1.65v6.22Z"/>
    <path class="cls-1" d="M106.08,77.91h-1.65V74.74a5.09,5.09,0,0,0-.1-1.31A1,1,0,0,0,104,73a1.06,1.06,0,0,0-.57-.16,1.39,1.39,0,0,0-.77.23,1.21,1.21,0,0,0-.46.63,5,5,0,0,0-.13,1.43v2.81h-1.64V71.69h1.52v.92A2.5,2.5,0,0,1,104,71.55a2.47,2.47,0,0,1,1,.2,1.57,1.57,0,0,1,.68.5,1.7,1.7,0,0,1,.33.69,5.23,5.23,0,0,1,.09,1.11Z"/>
    <path class="cls-1" d="M113.45,77.91h-1.53V77a2.37,2.37,0,0,1-.89.79,2.26,2.26,0,0,1-1,.26,2.35,2.35,0,0,1-1.84-.86,4.25,4.25,0,0,1,0-4.82,2.43,2.43,0,0,1,1.88-.82,2.33,2.33,0,0,1,1.81.87v-3.1h1.64Zm-4.39-3.24a2.91,2.91,0,0,0,.27,1.44,1.25,1.25,0,0,0,1.12.64,1.23,1.23,0,0,0,1-.48,2.25,2.25,0,0,0,.39-1.44,2.52,2.52,0,0,0-.38-1.55,1.27,1.27,0,0,0-2,0A2.06,2.06,0,0,0,109.06,74.67Z"/>
    <path class="cls-1" d="M118.07,73.67a5.48,5.48,0,0,1,.39-2.2,4.31,4.31,0,0,1,.8-1.18,3.37,3.37,0,0,1,1.11-.77,4.71,4.71,0,0,1,1.86-.34,4,4,0,0,1,3,1.18,5.26,5.26,0,0,1,0,6.53,4,4,0,0,1-3,1.17,4.05,4.05,0,0,1-3-1.17A4.45,4.45,0,0,1,118.07,73.67Zm1.79-.06a3.19,3.19,0,0,0,.67,2.21,2.18,2.18,0,0,0,1.71.76,2.2,2.2,0,0,0,1.71-.75,3.29,3.29,0,0,0,.66-2.24,3.23,3.23,0,0,0-.65-2.2,2.17,2.17,0,0,0-1.72-.73,2.22,2.22,0,0,0-1.73.74A3.26,3.26,0,0,0,119.86,73.61Z"/>
    <path class="cls-1" d="M131.84,77.91V77a2.43,2.43,0,0,1-.89.79,2.52,2.52,0,0,1-1.17.28,2.36,2.36,0,0,1-1.13-.27,1.63,1.63,0,0,1-.72-.77,3.49,3.49,0,0,1-.22-1.38V71.69h1.65v2.86a8,8,0,0,0,.09,1.61.88.88,0,0,0,.33.47,1,1,0,0,0,.61.17,1.3,1.3,0,0,0,.75-.23,1.16,1.16,0,0,0,.46-.58,6.7,6.7,0,0,0,.12-1.67V71.69h1.65v6.22Z"/>
    <path class="cls-1" d="M137.93,71.69V73H136.8v2.51a4.68,4.68,0,0,0,0,.89.41.41,0,0,0,.14.21.51.51,0,0,0,.28.08,2,2,0,0,0,.66-.16l.14,1.28a3.31,3.31,0,0,1-1.3.24,2.28,2.28,0,0,1-.8-.14,1.13,1.13,0,0,1-.52-.39,1.5,1.5,0,0,1-.24-.64,9,9,0,0,1,0-1.16V73h-.75V71.69h.75V70.45l1.65-1v2.2Z"/>
    <path class="cls-1" d="M142.42,77.91V69.32h1.74V72.7h3.4V69.32h1.73v8.59h-1.73V74.16h-3.4v3.75Z"/>
    <path class="cls-1" d="M150.69,74.71a3.46,3.46,0,0,1,.4-1.58A2.84,2.84,0,0,1,152.24,72a3.51,3.51,0,0,1,1.66-.4,3.1,3.1,0,0,1,2.31.92,3.16,3.16,0,0,1,.9,2.31,3.2,3.2,0,0,1-.91,2.35,3.11,3.11,0,0,1-2.29.92,3.55,3.55,0,0,1-1.63-.38,2.68,2.68,0,0,1-1.19-1.14A3.86,3.86,0,0,1,150.69,74.71Zm1.69.09a2,2,0,0,0,.44,1.42,1.44,1.44,0,0,0,2.16,0,2.51,2.51,0,0,0,0-2.84,1.44,1.44,0,0,0-2.16,0A2,2,0,0,0,152.38,74.8Z"/>
    <path class="cls-1" d="M159.56,77.91l-2-6.22h1.6l1.17,4.08,1.07-4.08H163l1,4.08,1.19-4.08h1.62l-2,6.22h-1.58l-1.07-4-1.06,4Z"/>
  </g>
</svg>
