<svg id="Layer_1" data-name="Layer 1" xmlns="http://www.w3.org/2000/svg" xmlns:xlink="http://www.w3.org/1999/xlink" width="341" height="75" viewBox="0 0 341 75">
  <defs>
    <style>
      .cls-1, .cls-3 {
        fill: none;
      }

      .cls-2 {
        clip-path: url(#clip-path);
      }

      .cls-3 {
        stroke: #1370b8;
        stroke-width: 2px;
      }

      .cls-4 {
        fill: #1370b8;
      }
    </style>
    <clipPath id="clip-path">
      <rect class="cls-1" x="32.88" y="15.01" width="36.08" height="44.97"/>
    </clipPath>
  </defs>
  <title>FOOTER-LINE</title>
  <g class="cls-2">
    <path class="cls-3" d="M50.92,16a16.85,16.85,0,0,0-17,16.65c0,4.1,1.3,8.05,5.09,12.73,3.3,4.07,12,13.12,12,13.12s7.58-8.62,11.27-13.12S68,36.69,68,32.66A16.85,16.85,0,0,0,50.92,16Z"/>
    <ellipse class="cls-3" cx="50.92" cy="30" rx="8.01" ry="7.83"/>
  </g>
  <g>
    <path class="cls-4" d="M87.71,47.24V30.06H99.49V33H91.18V37h7.17v2.91H91.18v7.3Z"/>
    <path class="cls-4" d="M102.17,47.24V30.06h3.47V47.24Z"/>
    <path class="cls-4" d="M108.91,47.24V30.06h3.37l7,11.47V30.06h3.23V47.24h-3.48L112.13,36V47.24Z"/>
    <path class="cls-4" d="M126.12,30.06h6.34a12.83,12.83,0,0,1,3.27.32A5.76,5.76,0,0,1,138.32,32,7.46,7.46,0,0,1,140,34.75a12.83,12.83,0,0,1,.56,4.06,11.13,11.13,0,0,1-.53,3.66,7.5,7.5,0,0,1-1.84,3,6.05,6.05,0,0,1-2.43,1.37,10.56,10.56,0,0,1-3.07.37h-6.53Zm3.47,2.9V44.34h2.59a9.49,9.49,0,0,0,2.1-.16,3.17,3.17,0,0,0,1.4-.72,3.58,3.58,0,0,0,.9-1.66,10.9,10.9,0,0,0,.36-3.14,10,10,0,0,0-.36-3.06,3.84,3.84,0,0,0-1-1.66,3.28,3.28,0,0,0-1.61-.81,15.39,15.39,0,0,0-2.84-.17Z"/>
    <path class="cls-4" d="M165.48,47.24h-3.77l-1.5-3.91h-6.87l-1.42,3.91h-3.68l6.69-17.18h3.67Zm-6.39-6.8-2.36-6.38-2.33,6.38Z"/>
    <path class="cls-4" d="M173,41.65l3.38-.33a4,4,0,0,0,1.24,2.49,3.67,3.67,0,0,0,2.51.8,3.85,3.85,0,0,0,2.52-.71,2.09,2.09,0,0,0,.85-1.66,1.53,1.53,0,0,0-.35-1,2.85,2.85,0,0,0-1.25-.75c-.41-.14-1.33-.39-2.78-.75a9.28,9.28,0,0,1-3.91-1.7,4.43,4.43,0,0,1-1.58-3.45,4.38,4.38,0,0,1,.74-2.46,4.7,4.7,0,0,1,2.14-1.74,8.58,8.58,0,0,1,3.38-.6,7.28,7.28,0,0,1,4.87,1.42A5,5,0,0,1,186.44,35l-3.47.15a3,3,0,0,0-.95-1.91,3.55,3.55,0,0,0-2.2-.58,3.93,3.93,0,0,0-2.37.63,1.26,1.26,0,0,0-.55,1.06,1.28,1.28,0,0,0,.52,1,9,9,0,0,0,3.18,1.15,16.7,16.7,0,0,1,3.75,1.24,4.87,4.87,0,0,1,1.9,1.75,5.14,5.14,0,0,1,.68,2.73,5,5,0,0,1-.82,2.77,4.82,4.82,0,0,1-2.32,1.91,9.67,9.67,0,0,1-3.74.63,7.4,7.4,0,0,1-5-1.51A6.56,6.56,0,0,1,173,41.65Z"/>
    <path class="cls-4" d="M193.65,47.24V33h-5.1v-2.9H202.2V33h-5.09V47.24Z"/>
    <path class="cls-4" d="M203.66,38.75a10.92,10.92,0,0,1,.79-4.4,8,8,0,0,1,1.6-2.36,6.58,6.58,0,0,1,2.22-1.55,9.47,9.47,0,0,1,3.7-.68,8.08,8.08,0,0,1,6.08,2.36,9,9,0,0,1,2.28,6.55,9,9,0,0,1-2.26,6.51,9,9,0,0,1-12.14,0A8.86,8.86,0,0,1,203.66,38.75Zm3.58-.12a6.45,6.45,0,0,0,1.35,4.43,4.64,4.64,0,0,0,6.82,0,6.55,6.55,0,0,0,1.33-4.48,6.49,6.49,0,0,0-1.29-4.41,4.81,4.81,0,0,0-6.9,0A6.51,6.51,0,0,0,207.24,38.63Z"/>
    <path class="cls-4" d="M223,47.24V30.06h7.3a12.48,12.48,0,0,1,4,.46,4,4,0,0,1,2,1.65,4.92,4.92,0,0,1,.75,2.7,4.59,4.59,0,0,1-1.14,3.2,5.41,5.41,0,0,1-3.4,1.58,8.06,8.06,0,0,1,1.86,1.45,19.59,19.59,0,0,1,2,2.78l2.1,3.36h-4.15l-2.51-3.74A26,26,0,0,0,229.94,41a2.65,2.65,0,0,0-1.05-.71,5.59,5.59,0,0,0-1.74-.2h-.71v7.18Zm3.46-9.92H229a13.4,13.4,0,0,0,3.12-.21,1.83,1.83,0,0,0,1-.73,2.24,2.24,0,0,0,.35-1.28,2,2,0,0,0-.46-1.4,2.11,2.11,0,0,0-1.31-.68c-.28,0-1.12-.06-2.53-.06h-2.71Z"/>
    <path class="cls-4" d="M240.22,47.24V30.06H253V33h-9.27v3.81h8.63v2.9h-8.63v4.67h9.6v2.9Z"/>
  </g>
</svg>
