<svg id="Layer_1" data-name="Layer 1" xmlns="http://www.w3.org/2000/svg" width="256" height="98" viewBox="0 0 256 98">
  <defs>
    <style>
      .cls-1 {
        fill: #0b223f;
      }
    </style>
  </defs>
  <title>FOOTER-LINE-2</title>
  <g>
    <path class="cls-1" d="M62.14,35.78V18.6h5.57a19.53,19.53,0,0,1,4.12.26,4.42,4.42,0,0,1,2.47,1.68,5.29,5.29,0,0,1,1,3.34,5.48,5.48,0,0,1-.58,2.66,4.67,4.67,0,0,1-1.45,1.7,5,5,0,0,1-1.8.81,19.25,19.25,0,0,1-3.6.25H65.61v6.48ZM65.61,21.5v4.88h1.9a9,9,0,0,0,2.74-.27,2.28,2.28,0,0,0,1.08-.84,2.34,2.34,0,0,0,.39-1.34,2.23,2.23,0,0,0-.55-1.55,2.4,2.4,0,0,0-1.39-.76,16.31,16.31,0,0,0-2.5-.12Z"/>
    <path class="cls-1" d="M81.28,35.78H78V23.33H81V25.1a5.49,5.49,0,0,1,1.41-1.65,2.59,2.59,0,0,1,1.43-.4,4.24,4.24,0,0,1,2.17.62l-1,2.87A2.9,2.9,0,0,0,83.48,26a1.8,1.8,0,0,0-1.17.39,2.56,2.56,0,0,0-.76,1.37,20,20,0,0,0-.27,4.17Z"/>
    <path class="cls-1" d="M87.46,21.65v-3h3.3v3Zm0,14.13V23.33h3.3V35.78Z"/>
    <path class="cls-1" d="M105,27l-3.24.59a2.36,2.36,0,0,0-.75-1.47,2.27,2.27,0,0,0-1.5-.49,2.47,2.47,0,0,0-2,.85,4.4,4.4,0,0,0-.73,2.84,5,5,0,0,0,.75,3.13,2.43,2.43,0,0,0,2,.92,2.21,2.21,0,0,0,1.54-.54,3.13,3.13,0,0,0,.84-1.83l3.24.55a5.74,5.74,0,0,1-1.94,3.36,6,6,0,0,1-3.83,1.14A5.68,5.68,0,0,1,95,34.34a6.7,6.7,0,0,1-1.63-4.77A6.71,6.71,0,0,1,95,24.77a5.78,5.78,0,0,1,4.41-1.72,6,6,0,0,1,3.61,1A5.4,5.4,0,0,1,105,27Z"/>
    <path class="cls-1" d="M114.69,31.82l3.28.55a5.4,5.4,0,0,1-2,2.75,5.87,5.87,0,0,1-3.42.94,5.57,5.57,0,0,1-4.8-2.12,7.12,7.12,0,0,1-1.23-4.29,6.93,6.93,0,0,1,1.61-4.85,5.37,5.37,0,0,1,4.09-1.75,5.51,5.51,0,0,1,4.39,1.84q1.61,1.83,1.53,5.61h-8.25a3.34,3.34,0,0,0,.8,2.28,2.48,2.48,0,0,0,1.9.82,2,2,0,0,0,1.3-.42A2.64,2.64,0,0,0,114.69,31.82Zm.18-3.33a3.13,3.13,0,0,0-.74-2.17,2.23,2.23,0,0,0-1.71-.75,2.28,2.28,0,0,0-1.78.79,3,3,0,0,0-.69,2.13Z"/>
    <path class="cls-1" d="M127.47,35.78V18.6h5.19l3.12,11.72,3.08-11.72h5.2V35.78h-3.22V22.25l-3.41,13.53h-3.34l-3.4-13.53V35.78Z"/>
    <path class="cls-1" d="M150,27.13l-3-.54a4.68,4.68,0,0,1,1.73-2.67,6.34,6.34,0,0,1,3.66-.87,8,8,0,0,1,3.28.52,3.25,3.25,0,0,1,1.52,1.33,6.78,6.78,0,0,1,.44,2.94l0,3.85a13.87,13.87,0,0,0,.16,2.42,7.31,7.31,0,0,0,.59,1.67h-3.25a9.11,9.11,0,0,1-.32-1l-.12-.39a5.78,5.78,0,0,1-1.8,1.23,5.25,5.25,0,0,1-2.05.41,4.24,4.24,0,0,1-3-1,3.48,3.48,0,0,1-1.11-2.64,3.59,3.59,0,0,1,.5-1.88,3.37,3.37,0,0,1,1.42-1.27,10.66,10.66,0,0,1,2.61-.76,17.89,17.89,0,0,0,3.2-.81v-.33a1.68,1.68,0,0,0-.47-1.35,2.78,2.78,0,0,0-1.76-.41A2,2,0,0,0,150,27.13Zm4.4,2.67c-.42.14-1.09.31-2,.51a5.84,5.84,0,0,0-1.79.57,1.37,1.37,0,0,0-.65,1.16,1.61,1.61,0,0,0,.52,1.2,1.81,1.81,0,0,0,1.31.5,2.87,2.87,0,0,0,1.7-.59,2,2,0,0,0,.78-1.09,6.22,6.22,0,0,0,.13-1.6Z"/>
    <path class="cls-1" d="M166.54,23.33V26h-2.25v5a11.09,11.09,0,0,0,.07,1.78.67.67,0,0,0,.29.41.93.93,0,0,0,.56.17,4.34,4.34,0,0,0,1.32-.32l.28,2.56a6.48,6.48,0,0,1-2.6.49,4.16,4.16,0,0,1-1.61-.3,2.48,2.48,0,0,1-1-.77,3.2,3.2,0,0,1-.46-1.29,16.2,16.2,0,0,1-.1-2.32V26h-1.52V23.33H161V20.86l3.3-1.92v4.39Z"/>
    <path class="cls-1" d="M179.68,27l-3.25.59a2.4,2.4,0,0,0-.74-1.47,2.3,2.3,0,0,0-1.51-.49,2.45,2.45,0,0,0-2,.85,4.34,4.34,0,0,0-.73,2.84,5,5,0,0,0,.74,3.13,2.45,2.45,0,0,0,2,.92,2.18,2.18,0,0,0,1.53-.54,3.2,3.2,0,0,0,.85-1.83l3.23.55a5.73,5.73,0,0,1-1.93,3.36,6,6,0,0,1-3.83,1.14,5.7,5.7,0,0,1-4.36-1.72,6.69,6.69,0,0,1-1.62-4.77,6.66,6.66,0,0,1,1.63-4.8,5.75,5.75,0,0,1,4.4-1.72,6,6,0,0,1,3.62,1A5.45,5.45,0,0,1,179.68,27Z"/>
    <path class="cls-1" d="M185.46,18.6v6.31a4.93,4.93,0,0,1,5.85-1.44,3.34,3.34,0,0,1,1.38,1.08,3.84,3.84,0,0,1,.63,1.45,12.57,12.57,0,0,1,.17,2.48v7.3H190.2V29.2a9.43,9.43,0,0,0-.19-2.48,1.61,1.61,0,0,0-.66-.84,2.09,2.09,0,0,0-1.19-.31,2.69,2.69,0,0,0-1.46.4,2.35,2.35,0,0,0-.95,1.2,7.22,7.22,0,0,0-.29,2.37v6.24h-3.3V18.6Z"/>
  </g>
  <g>
    <path class="cls-1" d="M70.8,53.46V50.57h7.48v6.84a9.58,9.58,0,0,1-3.16,1.86,11.58,11.58,0,0,1-4.19.8,9.45,9.45,0,0,1-4.7-1.13,7.19,7.19,0,0,1-3-3.23,10.52,10.52,0,0,1-1-4.58,9.89,9.89,0,0,1,1.13-4.77,7.59,7.59,0,0,1,3.29-3.2,8.87,8.87,0,0,1,4.11-.85,8.16,8.16,0,0,1,5,1.34,6.07,6.07,0,0,1,2.32,3.71L74.61,48a3.68,3.68,0,0,0-1.36-2,4.14,4.14,0,0,0-2.51-.73,4.69,4.69,0,0,0-3.61,1.44A6.05,6.05,0,0,0,65.79,51a6.71,6.71,0,0,0,1.36,4.59,4.52,4.52,0,0,0,3.56,1.53,6,6,0,0,0,2.18-.43,7.54,7.54,0,0,0,1.89-1V53.46Z"/>
    <path class="cls-1" d="M89.65,59.78V57.92a5,5,0,0,1-1.79,1.57,5.05,5.05,0,0,1-2.34.57,4.57,4.57,0,0,1-2.25-.55A3.28,3.28,0,0,1,81.83,58a6.81,6.81,0,0,1-.45-2.75V47.33h3.3v5.72a16.08,16.08,0,0,0,.18,3.22,1.77,1.77,0,0,0,.66.94,2,2,0,0,0,1.22.34,2.57,2.57,0,0,0,1.51-.46,2.37,2.37,0,0,0,.92-1.15,13.71,13.71,0,0,0,.24-3.36V47.33h3.3V59.78Z"/>
    <path class="cls-1" d="M98.58,51.13l-3-.54a4.63,4.63,0,0,1,1.73-2.67,6.34,6.34,0,0,1,3.66-.87,8,8,0,0,1,3.28.52,3.3,3.3,0,0,1,1.52,1.33,6.83,6.83,0,0,1,.44,3l0,3.84a12.93,12.93,0,0,0,.16,2.42,7.31,7.31,0,0,0,.59,1.67h-3.26c-.08-.22-.19-.54-.31-1l-.12-.39a5.78,5.78,0,0,1-1.8,1.23,5.26,5.26,0,0,1-2.06.41,4.23,4.23,0,0,1-3-1,3.48,3.48,0,0,1-1.11-2.64,3.59,3.59,0,0,1,.5-1.88,3.4,3.4,0,0,1,1.41-1.27,10.9,10.9,0,0,1,2.62-.76,17.89,17.89,0,0,0,3.2-.81v-.33a1.68,1.68,0,0,0-.47-1.35,2.79,2.79,0,0,0-1.77-.41,2.37,2.37,0,0,0-1.37.35A2.41,2.41,0,0,0,98.58,51.13ZM103,53.8c-.42.14-1.09.31-2,.51a5.74,5.74,0,0,0-1.79.57A1.37,1.37,0,0,0,98.54,56a1.61,1.61,0,0,0,.52,1.2,1.81,1.81,0,0,0,1.31.5,2.87,2.87,0,0,0,1.7-.59,2,2,0,0,0,.78-1.09,6.22,6.22,0,0,0,.13-1.6Z"/>
    <path class="cls-1" d="M112.62,59.78h-3.3V47.33h3.06V49.1a5.49,5.49,0,0,1,1.41-1.65,2.59,2.59,0,0,1,1.43-.4,4.17,4.17,0,0,1,2.16.62l-1,2.87a2.88,2.88,0,0,0-1.55-.53,1.79,1.79,0,0,0-1.17.38,2.56,2.56,0,0,0-.76,1.37,20,20,0,0,0-.27,4.17Z"/>
    <path class="cls-1" d="M121.26,51.13l-3-.54A4.63,4.63,0,0,1,120,47.92a6.34,6.34,0,0,1,3.66-.87,8,8,0,0,1,3.28.52,3.23,3.23,0,0,1,1.51,1.33,6.68,6.68,0,0,1,.44,3l0,3.84a12.93,12.93,0,0,0,.16,2.42,6.86,6.86,0,0,0,.59,1.67h-3.26c-.08-.22-.19-.54-.31-1l-.12-.39a5.82,5.82,0,0,1-1.81,1.23,5.21,5.21,0,0,1-2.05.41,4.27,4.27,0,0,1-3-1,3.74,3.74,0,0,1-.6-4.52,3.4,3.4,0,0,1,1.41-1.27,10.9,10.9,0,0,1,2.62-.76,17.89,17.89,0,0,0,3.2-.81v-.33A1.71,1.71,0,0,0,125.2,50a2.79,2.79,0,0,0-1.77-.41,2.37,2.37,0,0,0-1.37.35A2.42,2.42,0,0,0,121.26,51.13Zm4.41,2.67c-.42.14-1.09.31-2,.51a5.83,5.83,0,0,0-1.8.57,1.36,1.36,0,0,0-.64,1.16,1.64,1.64,0,0,0,.51,1.2,1.85,1.85,0,0,0,1.32.5,2.87,2.87,0,0,0,1.7-.59,2,2,0,0,0,.78-1.09,6.22,6.22,0,0,0,.13-1.6Z"/>
    <path class="cls-1" d="M143.47,59.78h-3.29V53.43a9.83,9.83,0,0,0-.21-2.61,1.84,1.84,0,0,0-.69-.92,2,2,0,0,0-1.14-.33,2.69,2.69,0,0,0-1.54.47,2.39,2.39,0,0,0-.93,1.24,10.7,10.7,0,0,0-.25,2.86v5.64h-3.29V47.33h3.06v1.83a5.1,5.1,0,0,1,6.09-1.72,3.32,3.32,0,0,1,1.36,1,3.52,3.52,0,0,1,.65,1.38,10.36,10.36,0,0,1,.18,2.21Z"/>
    <path class="cls-1" d="M152.52,47.33V50h-2.25v5a13.46,13.46,0,0,0,.06,1.78.74.74,0,0,0,.3.42,1,1,0,0,0,.55.16,4.32,4.32,0,0,0,1.33-.32l.28,2.56a6.55,6.55,0,0,1-2.6.49,4.13,4.13,0,0,1-1.61-.3,2.36,2.36,0,0,1-1.05-.77,3.05,3.05,0,0,1-.46-1.29,15.7,15.7,0,0,1-.11-2.32V50h-1.51V47.33H147V44.86l3.31-1.92v4.39Z"/>
    <path class="cls-1" d="M162,55.82l3.28.55a5.4,5.4,0,0,1-2,2.75,5.86,5.86,0,0,1-3.41.94,5.58,5.58,0,0,1-4.81-2.12,7.12,7.12,0,0,1-1.23-4.29,6.88,6.88,0,0,1,1.62-4.85,5.35,5.35,0,0,1,4.09-1.75,5.5,5.5,0,0,1,4.38,1.84q1.6,1.83,1.54,5.62h-8.25a3.33,3.33,0,0,0,.79,2.27,2.48,2.48,0,0,0,1.9.82,2,2,0,0,0,1.3-.42A2.64,2.64,0,0,0,162,55.82Zm.19-3.33a3.18,3.18,0,0,0-.74-2.17,2.36,2.36,0,0,0-3.49,0,3,3,0,0,0-.69,2.13Z"/>
    <path class="cls-1" d="M175.36,55.82l3.28.55a5.4,5.4,0,0,1-2,2.75,5.87,5.87,0,0,1-3.42.94,5.57,5.57,0,0,1-4.8-2.12,7.12,7.12,0,0,1-1.23-4.29,6.88,6.88,0,0,1,1.62-4.85,5.34,5.34,0,0,1,4.09-1.75,5.5,5.5,0,0,1,4.38,1.84q1.6,1.83,1.53,5.62h-8.25a3.34,3.34,0,0,0,.8,2.27,2.48,2.48,0,0,0,1.9.82,2,2,0,0,0,1.3-.42A2.64,2.64,0,0,0,175.36,55.82Zm.19-3.33a3.18,3.18,0,0,0-.74-2.17,2.26,2.26,0,0,0-1.71-.75,2.29,2.29,0,0,0-1.79.79,3.1,3.1,0,0,0-.69,2.13Z"/>
    <path class="cls-1" d="M192.91,59.78h-3.06V58a4.85,4.85,0,0,1-1.8,1.59,4.55,4.55,0,0,1-2.09.52,4.74,4.74,0,0,1-3.67-1.73,7,7,0,0,1-1.53-4.82,7,7,0,0,1,1.49-4.81A4.83,4.83,0,0,1,186,47.05a4.66,4.66,0,0,1,3.61,1.74V42.6h3.29Zm-8.79-6.49a5.78,5.78,0,0,0,.55,2.88,2.51,2.51,0,0,0,2.23,1.29,2.4,2.4,0,0,0,1.93-1,4.41,4.41,0,0,0,.8-2.89,4.88,4.88,0,0,0-.77-3.08,2.46,2.46,0,0,0-2-1,2.5,2.5,0,0,0-2,.93A4.26,4.26,0,0,0,184.12,53.29Z"/>
  </g>
  <g>
    <path class="cls-1" d="M96.33,77.78V69.26h1.74v7.07h4.31v1.45Z"/>
    <path class="cls-1" d="M107.21,75.8l1.64.27a2.76,2.76,0,0,1-1,1.38,3,3,0,0,1-1.71.47,2.8,2.8,0,0,1-2.4-1.06,3.58,3.58,0,0,1-.62-2.15,3.42,3.42,0,0,1,.81-2.42,2.68,2.68,0,0,1,2-.88,2.78,2.78,0,0,1,2.19.92,4.1,4.1,0,0,1,.77,2.81h-4.13a1.67,1.67,0,0,0,.4,1.14,1.25,1.25,0,0,0,1,.41,1,1,0,0,0,.65-.21A1.35,1.35,0,0,0,107.21,75.8Zm.09-1.67a1.53,1.53,0,0,0-.37-1.08,1.12,1.12,0,0,0-.85-.38,1.15,1.15,0,0,0-.89.4,1.49,1.49,0,0,0-.35,1.06Z"/>
    <path class="cls-1" d="M111.51,73.45l-1.5-.27a2.33,2.33,0,0,1,.87-1.33,3.17,3.17,0,0,1,1.83-.44,3.83,3.83,0,0,1,1.64.27,1.62,1.62,0,0,1,.76.66,3.47,3.47,0,0,1,.22,1.47l0,1.92a6.89,6.89,0,0,0,.08,1.21,3.29,3.29,0,0,0,.3.84h-1.63a3.51,3.51,0,0,1-.16-.49l-.06-.19a2.87,2.87,0,0,1-.9.61,2.53,2.53,0,0,1-1,.21,2.14,2.14,0,0,1-1.51-.52,1.83,1.83,0,0,1-.3-2.26,1.53,1.53,0,0,1,.7-.63,5.32,5.32,0,0,1,1.31-.39,9.18,9.18,0,0,0,1.6-.4v-.17a.86.86,0,0,0-.23-.67,1.38,1.38,0,0,0-.89-.21,1,1,0,0,0-1.08.78Zm2.2,1.34c-.21.07-.54.15-1,.25a2.88,2.88,0,0,0-.9.29.69.69,0,0,0-.32.58.83.83,0,0,0,.26.6.92.92,0,0,0,.65.25,1.45,1.45,0,0,0,.85-.29,1.08,1.08,0,0,0,.4-.55,3.48,3.48,0,0,0,.06-.8Z"/>
    <path class="cls-1" d="M118.53,77.78h-1.65V71.56h1.53v.88a2.71,2.71,0,0,1,.71-.83,1.28,1.28,0,0,1,.71-.2,2.16,2.16,0,0,1,1.08.31l-.51,1.44a1.41,1.41,0,0,0-.77-.27.91.91,0,0,0-.59.19,1.39,1.39,0,0,0-.38.69,10.12,10.12,0,0,0-.13,2.09Z"/>
    <path class="cls-1" d="M127.28,77.78h-1.65V74.6a5,5,0,0,0-.1-1.3,1,1,0,0,0-.34-.46,1,1,0,0,0-.57-.17,1.28,1.28,0,0,0-.77.24,1.12,1.12,0,0,0-.47.62,5.62,5.62,0,0,0-.12,1.43v2.82h-1.65V71.56h1.53v.91a2.51,2.51,0,0,1,2-1.06,2.55,2.55,0,0,1,1,.2,1.72,1.72,0,0,1,.68.5,1.9,1.9,0,0,1,.32.69,5.23,5.23,0,0,1,.09,1.11Z"/>
    <path class="cls-1" d="M132.27,77.78V69.19h2.6l1.56,5.86L138,69.19h2.6v8.59H139V71l-1.71,6.76h-1.67L133.88,71v6.76Z"/>
    <path class="cls-1" d="M141.9,74.58a3.47,3.47,0,0,1,.4-1.59,2.82,2.82,0,0,1,1.15-1.17,3.4,3.4,0,0,1,1.66-.41,3.1,3.1,0,0,1,2.31.92,3.45,3.45,0,0,1,0,4.66,3.08,3.08,0,0,1-2.29.93,3.63,3.63,0,0,1-1.64-.39,2.69,2.69,0,0,1-1.18-1.13A3.91,3.91,0,0,1,141.9,74.58Zm1.69.09a2,2,0,0,0,.44,1.41,1.42,1.42,0,0,0,2.16,0,2.5,2.5,0,0,0,0-2.83,1.44,1.44,0,0,0-2.16,0A2,2,0,0,0,143.59,74.67Z"/>
    <path class="cls-1" d="M151.19,77.78h-1.65V71.56h1.53v.88a2.71,2.71,0,0,1,.71-.83,1.28,1.28,0,0,1,.71-.2,2.16,2.16,0,0,1,1.08.31l-.51,1.44a1.41,1.41,0,0,0-.77-.27.91.91,0,0,0-.59.19,1.39,1.39,0,0,0-.38.69,10.12,10.12,0,0,0-.13,2.09Z"/>
    <path class="cls-1" d="M157.88,75.8l1.65.27a2.82,2.82,0,0,1-1,1.38,3,3,0,0,1-1.71.47,2.8,2.8,0,0,1-2.4-1.06,3.58,3.58,0,0,1-.62-2.15,3.42,3.42,0,0,1,.81-2.42,2.68,2.68,0,0,1,2-.88,2.79,2.79,0,0,1,2.2.92,4.05,4.05,0,0,1,.76,2.81h-4.12a1.62,1.62,0,0,0,.4,1.14,1.25,1.25,0,0,0,1,.41,1,1,0,0,0,.65-.21A1.28,1.28,0,0,0,157.88,75.8Zm.1-1.67a1.58,1.58,0,0,0-.37-1.08,1.13,1.13,0,0,0-.86-.38,1.16,1.16,0,0,0-.89.4,1.49,1.49,0,0,0-.34,1.06Z"/>
  </g>
</svg>
