<svg id="Layer_1" data-name="Layer 1" xmlns="http://www.w3.org/2000/svg" xmlns:xlink="http://www.w3.org/1999/xlink" width="341" height="75" viewBox="0 0 341 75">
  <defs>
    <style>
      .cls-1 {
        fill: none;
      }

      .cls-2 {
        clip-path: url(#clip-path);
      }

      .cls-3 {
        fill: #fff;
      }

      .cls-4 {
        fill: #1370b8;
      }
    </style>
    <clipPath id="clip-path">
      <rect class="cls-1" x="11.78" y="13.87" width="348.22" height="47.98"/>
    </clipPath>
  </defs>
  <title>FOOTER-LINE</title>
  <g class="cls-2">
    <path class="cls-3" d="M43.26,19s-11.85-6.05-31.48-3V58.56s18.12-4,31.48,3.3c13.37-7.29,31.49-3.3,31.49-3.3V15.93c-19.64-3-31.49,3-31.49,3"/>
    <path class="cls-4" d="M63.93,15.08C50.84,15.08,43.26,19,43.26,19s-7.58-3.88-20.67-3.88a71.56,71.56,0,0,0-10.81.85V58.56a59.47,59.47,0,0,1,11.58-1.09c6.06,0,13.52.91,19.9,4.39,6.38-3.48,13.85-4.39,19.91-4.39a59.6,59.6,0,0,1,11.58,1.09V15.93a71.78,71.78,0,0,0-10.82-.85m0,1.93a69.12,69.12,0,0,1,8.89.59V56.26a66,66,0,0,0-9.65-.72c-7.75,0-14.44,1.39-19.91,4.14-5.46-2.75-12.15-4.14-19.9-4.14a66.12,66.12,0,0,0-9.66.72V17.6A69.24,69.24,0,0,1,22.59,17c12.4,0,19.73,3.63,19.8,3.66l.87.44.87-.44c.08,0,7.4-3.66,19.8-3.66"/>
  </g>
  <rect class="cls-4" x="42.3" y="19.32" width="1.93" height="41.97"/>
  <g>
    <path class="cls-4" d="M94,46.45,87.81,29.27h3.77L95.92,42l4.21-12.71h3.68L97.66,46.45Z"/>
    <path class="cls-4" d="M105.4,46.45V29.27h3.47V46.45Z"/>
    <path class="cls-4" d="M112.1,46.45V29.27h12.74v2.91h-9.27V36h8.63v2.9h-8.63v4.67h9.6v2.9Z"/>
    <path class="cls-4" d="M130.48,46.45l-4.1-17.18h3.55l2.59,11.8,3.14-11.8h4.12l3,12,2.64-12h3.49l-4.17,17.18h-3.68l-3.42-12.84-3.41,12.84Z"/>
    <path class="cls-4" d="M159.65,46.45l-4.1-17.18h3.55l2.59,11.8,3.14-11.8H169l3,12,2.64-12h3.49l-4.17,17.18h-3.68l-3.42-12.84-3.41,12.84Z"/>
    <path class="cls-4" d="M179.8,46.45V29.27h12.74v2.91h-9.27V36h8.62v2.9h-8.62v4.67h9.59v2.9Z"/>
    <path class="cls-4" d="M195.73,46.45V29.27h12.74v2.91H199.2V36h8.63v2.9H199.2v4.67h9.6v2.9Z"/>
    <path class="cls-4" d="M211.71,46.45V29.27h3.47V36.9l7-7.63h4.67L220.39,36l6.82,10.49h-4.49L218,38.39l-2.82,2.87v5.19Z"/>
    <path class="cls-4" d="M229,46.45v-17h3.47V43.55h8.63v2.9Z"/>
    <path class="cls-4" d="M248,46.45V39.22l-6.29-9.95h4.06l4,6.8,4-6.8h4l-6.31,10v7.21Z"/>
    <path class="cls-4" d="M281.54,46.45h-3.77l-1.5-3.9H269.4L268,46.45H264.3L271,29.27h3.67Zm-6.39-6.8-2.36-6.37-2.32,6.37Z"/>
    <path class="cls-4" d="M283.3,29.27h6.34a12.32,12.32,0,0,1,3.27.33,5.71,5.71,0,0,1,2.59,1.58A7.68,7.68,0,0,1,297.14,34,12.83,12.83,0,0,1,297.7,38a11.31,11.31,0,0,1-.53,3.66,7.5,7.5,0,0,1-1.84,3,6,6,0,0,1-2.44,1.38,10.52,10.52,0,0,1-3.07.36H283.3Zm3.47,2.91V43.55h2.59a9.45,9.45,0,0,0,2.09-.16,3.2,3.2,0,0,0,1.4-.71,3.63,3.63,0,0,0,.91-1.66,11,11,0,0,0,.35-3.15,10.09,10.09,0,0,0-.35-3.06,3.9,3.9,0,0,0-1-1.66,3.28,3.28,0,0,0-1.61-.81,15.74,15.74,0,0,0-2.85-.16Z"/>
    <path class="cls-4" d="M299.69,40.86l3.37-.33A4.18,4.18,0,0,0,304.3,43a3.74,3.74,0,0,0,2.51.79,3.84,3.84,0,0,0,2.53-.71,2.08,2.08,0,0,0,.85-1.65,1.55,1.55,0,0,0-.36-1,2.78,2.78,0,0,0-1.25-.74c-.4-.15-1.33-.4-2.77-.75a9.59,9.59,0,0,1-3.92-1.7,4.53,4.53,0,0,1-.84-5.92,4.73,4.73,0,0,1,2.15-1.74,8.74,8.74,0,0,1,3.38-.59,7.28,7.28,0,0,1,4.87,1.41,5,5,0,0,1,1.72,3.79l-3.47.15a2.93,2.93,0,0,0-1-1.9,3.48,3.48,0,0,0-2.2-.58,3.91,3.91,0,0,0-2.36.62,1.23,1.23,0,0,0-.55,1.06,1.33,1.33,0,0,0,.51,1,9.1,9.1,0,0,0,3.19,1.15A16.49,16.49,0,0,1,311.07,37a4.8,4.8,0,0,1,1.9,1.75,5.39,5.39,0,0,1-.13,5.5,5,5,0,0,1-2.32,1.92,9.91,9.91,0,0,1-3.74.62,7.45,7.45,0,0,1-5-1.5A6.56,6.56,0,0,1,299.69,40.86Z"/>
  </g>
</svg>
