<svg id="Layer_1" data-name="Layer 1" xmlns="http://www.w3.org/2000/svg" width="256" height="98" viewBox="0 0 256 98">
  <defs>
    <style>
      .cls-1 {
        fill: #0b223f;
      }
    </style>
  </defs>
  <title>FOOTER-LINE-2</title>
  <g>
    <path class="cls-1" d="M104.81,35.83V18.65h3.37l7,11.47V18.65h3.23V35.83H115L108,24.62V35.83Z"/>
    <path class="cls-1" d="M122.1,35.83V18.65h12.74v2.9h-9.27v3.81h8.63v2.9h-8.63v4.67h9.6v2.9Z"/>
    <path class="cls-1" d="M136.37,35.83l5.87-9-5.32-8.21H141l3.45,5.52,3.37-5.52h4L146.47,27l5.87,8.84h-4.18l-3.81-5.94-3.82,5.94Z"/>
  </g>
  <g>
    <path class="cls-1" d="M72.73,53.51V50.62h7.48v6.84a9.58,9.58,0,0,1-3.16,1.86,11.58,11.58,0,0,1-4.19.8A9.48,9.48,0,0,1,68.16,59a7.19,7.19,0,0,1-3-3.23,10.52,10.52,0,0,1-1-4.58,9.89,9.89,0,0,1,1.13-4.77,7.59,7.59,0,0,1,3.29-3.2,8.87,8.87,0,0,1,4.11-.86,8.16,8.16,0,0,1,5,1.35A6.07,6.07,0,0,1,80,47.41l-3.45.64a3.68,3.68,0,0,0-1.36-2,4.14,4.14,0,0,0-2.51-.73,4.69,4.69,0,0,0-3.61,1.44A6.05,6.05,0,0,0,67.72,51a6.71,6.71,0,0,0,1.36,4.59,4.52,4.52,0,0,0,3.56,1.53,6.13,6.13,0,0,0,2.19-.43,7.65,7.65,0,0,0,1.88-1V53.51Z"/>
    <path class="cls-1" d="M83.39,45.69v-3h3.29v3Zm0,14.14V47.38h3.29V59.83Z"/>
    <path class="cls-1" d="M93.48,59.83l-5-12.45h3.46l2.34,6.35.68,2.13c.18-.54.29-.9.34-1.07.11-.35.23-.7.35-1.06L98,47.38h3.39l-5,12.45Z"/>
    <path class="cls-1" d="M110.61,55.87l3.28.55a5.4,5.4,0,0,1-2,2.75,5.93,5.93,0,0,1-3.41.94A5.58,5.58,0,0,1,103.67,58a7.12,7.12,0,0,1-1.23-4.29,6.88,6.88,0,0,1,1.62-4.85,5.35,5.35,0,0,1,4.09-1.75,5.5,5.5,0,0,1,4.38,1.84q1.6,1.83,1.54,5.61h-8.25a3.29,3.29,0,0,0,.79,2.28,2.48,2.48,0,0,0,1.9.82,2,2,0,0,0,1.3-.42A2.64,2.64,0,0,0,110.61,55.87Zm.19-3.33a3.23,3.23,0,0,0-.74-2.18,2.29,2.29,0,0,0-1.71-.74,2.25,2.25,0,0,0-1.78.79,3.06,3.06,0,0,0-.7,2.13Z"/>
    <path class="cls-1" d="M115.59,56.28l3.3-.51a2.42,2.42,0,0,0,.86,1.46,2.9,2.9,0,0,0,1.8.5,3.29,3.29,0,0,0,1.93-.47,1.07,1.07,0,0,0,.43-.88.86.86,0,0,0-.24-.62,2.65,2.65,0,0,0-1.1-.43,17.72,17.72,0,0,1-5-1.61,3.2,3.2,0,0,1-1.47-2.8,3.46,3.46,0,0,1,1.27-2.72,6,6,0,0,1,4-1.1,7,7,0,0,1,3.8.83,4.27,4.27,0,0,1,1.71,2.46l-3.1.58a1.91,1.91,0,0,0-.76-1.11,2.75,2.75,0,0,0-1.59-.39,3.6,3.6,0,0,0-1.86.36.79.79,0,0,0-.38.67.74.74,0,0,0,.33.6,12.49,12.49,0,0,0,3.08.92,9.11,9.11,0,0,1,3.67,1.47,3,3,0,0,1,1,2.45,3.74,3.74,0,0,1-1.43,2.94,6.32,6.32,0,0,1-4.23,1.23,6.92,6.92,0,0,1-4-1A4.73,4.73,0,0,1,115.59,56.28Z"/>
    <path class="cls-1" d="M136.8,42.65h6.87a19,19,0,0,1,3,.17,4.4,4.4,0,0,1,1.79.71A4.33,4.33,0,0,1,149.82,45a3.92,3.92,0,0,1,.53,2,4,4,0,0,1-.65,2.22,4.13,4.13,0,0,1-1.77,1.51,4.5,4.5,0,0,1,2.42,1.56,4.15,4.15,0,0,1,.84,2.59,5.16,5.16,0,0,1-.54,2.28,4.78,4.78,0,0,1-1.49,1.77,4.94,4.94,0,0,1-2.33.81c-.58.06-2,.1-4.18.12H136.8Zm3.47,2.86v4h2.27q2,0,2.52-.06a2.27,2.27,0,0,0,1.4-.61,2.07,2.07,0,0,0,.07-2.64,2,2,0,0,0-1.3-.6q-.53-.06-3-.06Zm0,6.83v4.59h3.21a16.09,16.09,0,0,0,2.38-.1,2.19,2.19,0,0,0,1.26-.69,2.12,2.12,0,0,0,.48-1.46,2.24,2.24,0,0,0-.37-1.31,2.09,2.09,0,0,0-1.08-.78,11.52,11.52,0,0,0-3.08-.25Z"/>
    <path class="cls-1" d="M156.56,51.18l-3-.54A4.68,4.68,0,0,1,155.3,48,6.34,6.34,0,0,1,159,47.1a8,8,0,0,1,3.28.52A3.25,3.25,0,0,1,163.76,49a6.78,6.78,0,0,1,.44,2.94l0,3.85a13.87,13.87,0,0,0,.16,2.42,7.31,7.31,0,0,0,.59,1.67h-3.25a10,10,0,0,1-.32-1l-.12-.39a5.78,5.78,0,0,1-1.8,1.23,5.25,5.25,0,0,1-2,.41,4.25,4.25,0,0,1-3-1,3.48,3.48,0,0,1-1.11-2.64,3.59,3.59,0,0,1,.5-1.88,3.37,3.37,0,0,1,1.42-1.27,10.66,10.66,0,0,1,2.61-.76,17.89,17.89,0,0,0,3.2-.81v-.33a1.66,1.66,0,0,0-.47-1.35,2.78,2.78,0,0,0-1.76-.41,2,2,0,0,0-2.17,1.56Zm4.4,2.67c-.42.14-1.09.31-2,.51a5.84,5.84,0,0,0-1.79.57,1.37,1.37,0,0,0-.65,1.16,1.58,1.58,0,0,0,.52,1.19,1.78,1.78,0,0,0,1.31.51,2.87,2.87,0,0,0,1.7-.59,2,2,0,0,0,.78-1.09,6.22,6.22,0,0,0,.13-1.6Z"/>
    <path class="cls-1" d="M178.3,51.06l-3.25.59a2.4,2.4,0,0,0-.74-1.47,2.3,2.3,0,0,0-1.51-.49,2.45,2.45,0,0,0-2,.85,4.34,4.34,0,0,0-.74,2.84,5,5,0,0,0,.75,3.13,2.44,2.44,0,0,0,2,.92,2.2,2.2,0,0,0,1.53-.54,3.2,3.2,0,0,0,.85-1.83l3.23.55A5.78,5.78,0,0,1,176.53,59a6,6,0,0,1-3.84,1.14,5.72,5.72,0,0,1-4.35-1.72,6.69,6.69,0,0,1-1.62-4.77,6.66,6.66,0,0,1,1.63-4.8,5.75,5.75,0,0,1,4.4-1.72,6,6,0,0,1,3.62,1A5.45,5.45,0,0,1,178.3,51.06Z"/>
    <path class="cls-1" d="M180.67,59.83V42.65H184v9.12l3.85-4.39h4.06l-4.26,4.55,4.56,7.9h-3.55l-3.13-5.59L184,55.84v4Z"/>
  </g>
  <g>
    <path class="cls-1" d="M20.74,77.83H18.85l-.75-2H14.66l-.7,2H12.12l3.34-8.59H17.3Zm-3.2-3.4-1.18-3.19L15.2,74.43Z"/>
    <path class="cls-1" d="M21.64,77.83V69.24h1.65v8.59Z"/>
    <path class="cls-1" d="M25,77.83V69.24h1.64v8.59Z"/>
    <path class="cls-1" d="M31.66,77.83V69.24h2.78a9.77,9.77,0,0,1,2.06.13,2.22,2.22,0,0,1,1.24.84,2.67,2.67,0,0,1,.5,1.67A2.81,2.81,0,0,1,38,73.21a2.44,2.44,0,0,1-.73.85,2.47,2.47,0,0,1-.9.4,9.07,9.07,0,0,1-1.8.13H33.39v3.24Zm1.73-7.14v2.44h1A4.43,4.43,0,0,0,35.71,73a1.14,1.14,0,0,0,.54-.42,1.15,1.15,0,0,0,.2-.67,1.07,1.07,0,0,0-.28-.77,1.18,1.18,0,0,0-.69-.38,8.25,8.25,0,0,0-1.25-.06Z"/>
    <path class="cls-1" d="M41.23,77.83H39.58V71.6h1.53v.89a2.71,2.71,0,0,1,.7-.83,1.34,1.34,0,0,1,.72-.2,2.16,2.16,0,0,1,1.08.31l-.51,1.44a1.44,1.44,0,0,0-.77-.27.91.91,0,0,0-.59.19,1.32,1.32,0,0,0-.38.69,10.12,10.12,0,0,0-.13,2.09Z"/>
    <path class="cls-1" d="M43.94,74.63a3.35,3.35,0,0,1,.4-1.59,2.76,2.76,0,0,1,1.15-1.17,3.36,3.36,0,0,1,1.65-.41,3.13,3.13,0,0,1,2.32.92,3.45,3.45,0,0,1,0,4.66,3.08,3.08,0,0,1-2.29.93,3.6,3.6,0,0,1-1.64-.39,2.63,2.63,0,0,1-1.18-1.13A3.79,3.79,0,0,1,43.94,74.63Zm1.69.09a2,2,0,0,0,.44,1.41,1.42,1.42,0,0,0,2.16,0,2.07,2.07,0,0,0,.44-1.43,2,2,0,0,0-.44-1.4,1.44,1.44,0,0,0-2.16,0A2,2,0,0,0,45.63,74.72Z"/>
    <path class="cls-1" d="M57.08,73.44l-1.63.3a1.19,1.19,0,0,0-.37-.74,1.13,1.13,0,0,0-.75-.24,1.26,1.26,0,0,0-1,.42A2.22,2.22,0,0,0,53,74.6a2.53,2.53,0,0,0,.37,1.57,1.24,1.24,0,0,0,1,.46,1.11,1.11,0,0,0,.77-.27,1.58,1.58,0,0,0,.42-.92l1.62.28a2.87,2.87,0,0,1-1,1.68,3,3,0,0,1-1.92.57,2.85,2.85,0,0,1-2.17-.86,3.95,3.95,0,0,1,0-4.79,2.9,2.9,0,0,1,2.2-.86,3.06,3.06,0,0,1,1.81.49A2.77,2.77,0,0,1,57.08,73.44Z"/>
    <path class="cls-1" d="M61.93,75.85l1.64.27a2.76,2.76,0,0,1-1,1.38,3,3,0,0,1-1.71.47,2.8,2.8,0,0,1-2.4-1.06,3.58,3.58,0,0,1-.62-2.15,3.42,3.42,0,0,1,.81-2.42,2.68,2.68,0,0,1,2.05-.88,2.78,2.78,0,0,1,2.19.92,4.1,4.1,0,0,1,.77,2.81H59.53a1.62,1.62,0,0,0,.4,1.14,1.25,1.25,0,0,0,1,.41,1,1,0,0,0,.65-.21A1.35,1.35,0,0,0,61.93,75.85ZM62,74.18a1.53,1.53,0,0,0-.37-1.08,1.17,1.17,0,0,0-1.74,0,1.49,1.49,0,0,0-.35,1.06Z"/>
    <path class="cls-1" d="M68.6,75.85l1.64.27a2.71,2.71,0,0,1-1,1.38,3,3,0,0,1-1.71.47,2.8,2.8,0,0,1-2.4-1.06,3.57,3.57,0,0,1-.61-2.15,3.42,3.42,0,0,1,.81-2.42,2.66,2.66,0,0,1,2-.88,2.75,2.75,0,0,1,2.19.92,4.05,4.05,0,0,1,.77,2.81H66.2a1.72,1.72,0,0,0,.4,1.14,1.26,1.26,0,0,0,1,.41,1,1,0,0,0,.65-.21A1.29,1.29,0,0,0,68.6,75.85Zm.09-1.67a1.57,1.57,0,0,0-.36-1.08,1.15,1.15,0,0,0-.86-.38,1.12,1.12,0,0,0-.89.4,1.49,1.49,0,0,0-.35,1.06Z"/>
    <path class="cls-1" d="M77.38,77.83H75.85v-.92a2.61,2.61,0,0,1-.9.8,2.39,2.39,0,0,1-1,.26,2.36,2.36,0,0,1-1.83-.87,3.5,3.5,0,0,1-.77-2.41,3.45,3.45,0,0,1,.75-2.4,2.41,2.41,0,0,1,1.88-.83,2.33,2.33,0,0,1,1.8.87V69.24h1.65ZM73,74.58A2.87,2.87,0,0,0,73.26,76a1.24,1.24,0,0,0,1.11.65,1.21,1.21,0,0,0,1-.49,2.25,2.25,0,0,0,.4-1.44,2.4,2.4,0,0,0-.39-1.54,1.22,1.22,0,0,0-1-.48,1.24,1.24,0,0,0-1,.47A2.06,2.06,0,0,0,73,74.58Z"/>
    <path class="cls-1" d="M78.42,76.05l1.65-.25a1.25,1.25,0,0,0,.43.73,1.44,1.44,0,0,0,.9.25,1.58,1.58,0,0,0,1-.24.51.51,0,0,0,.22-.44.45.45,0,0,0-.12-.31,1.31,1.31,0,0,0-.55-.21,8.64,8.64,0,0,1-2.52-.81,1.6,1.6,0,0,1-.74-1.4A1.72,1.72,0,0,1,79.29,72a3,3,0,0,1,2-.55,3.45,3.45,0,0,1,1.9.42A2.13,2.13,0,0,1,84,73.11l-1.55.29a1,1,0,0,0-.38-.56,1.36,1.36,0,0,0-.79-.19,1.76,1.76,0,0,0-.93.18.38.38,0,0,0-.19.33.35.35,0,0,0,.16.3,5.8,5.8,0,0,0,1.54.46,4.58,4.58,0,0,1,1.84.74,1.52,1.52,0,0,1,.51,1.22,1.89,1.89,0,0,1-.71,1.47A3.17,3.17,0,0,1,81.4,78a3.42,3.42,0,0,1-2-.52A2.37,2.37,0,0,1,78.42,76.05Z"/>
    <path class="cls-1" d="M93,74.67V73.22h3.73v3.42a4.74,4.74,0,0,1-1.58.93,5.62,5.62,0,0,1-2.09.4,4.78,4.78,0,0,1-2.35-.56,3.57,3.57,0,0,1-1.5-1.62,5.16,5.16,0,0,1-.51-2.29,5,5,0,0,1,.56-2.38,3.81,3.81,0,0,1,1.65-1.6A4.39,4.39,0,0,1,93,69.09a4.1,4.1,0,0,1,2.5.67,3.07,3.07,0,0,1,1.15,1.86l-1.72.32a1.82,1.82,0,0,0-.68-1A2.1,2.1,0,0,0,93,70.57a2.36,2.36,0,0,0-1.81.72,3,3,0,0,0-.67,2.14,3.4,3.4,0,0,0,.68,2.3,2.26,2.26,0,0,0,1.78.76,3,3,0,0,0,1.09-.21,4,4,0,0,0,.94-.52V74.67Z"/>
    <path class="cls-1" d="M98,74.63A3.36,3.36,0,0,1,98.37,73a2.8,2.8,0,0,1,1.14-1.17,3.4,3.4,0,0,1,1.66-.41,3.1,3.1,0,0,1,2.31.92,3.45,3.45,0,0,1,0,4.66,3.08,3.08,0,0,1-2.29.93,3.56,3.56,0,0,1-1.63-.39,2.63,2.63,0,0,1-1.18-1.13A3.79,3.79,0,0,1,98,74.63Zm1.69.09a2.05,2.05,0,0,0,.44,1.41,1.42,1.42,0,0,0,2.16,0,2.07,2.07,0,0,0,.44-1.43,2,2,0,0,0-.44-1.4,1.44,1.44,0,0,0-2.16,0A2.08,2.08,0,0,0,99.65,74.72Z"/>
    <path class="cls-1" d="M111,77.83V70.69H108.4V69.24h6.83v1.45h-2.54v7.14Z"/>
    <path class="cls-1" d="M115.07,74.63a3.35,3.35,0,0,1,.4-1.59,2.76,2.76,0,0,1,1.15-1.17,3.36,3.36,0,0,1,1.65-.41,3.13,3.13,0,0,1,2.32.92,3.45,3.45,0,0,1,0,4.66,3.08,3.08,0,0,1-2.3.93,3.59,3.59,0,0,1-1.63-.39,2.69,2.69,0,0,1-1.18-1.13A3.79,3.79,0,0,1,115.07,74.63Zm1.68.09a2.05,2.05,0,0,0,.44,1.41,1.42,1.42,0,0,0,1.09.5,1.38,1.38,0,0,0,1.08-.5,2.07,2.07,0,0,0,.44-1.43,2,2,0,0,0-.44-1.4,1.38,1.38,0,0,0-1.08-.49,1.41,1.41,0,0,0-1.09.49A2.08,2.08,0,0,0,116.75,74.72Z"/>
    <path class="cls-1" d="M125.77,73.58a5.52,5.52,0,0,1,.39-2.2A4.14,4.14,0,0,1,127,70.2a3.32,3.32,0,0,1,1.11-.77,4.63,4.63,0,0,1,1.85-.34,4,4,0,0,1,3,1.18,5.28,5.28,0,0,1,0,6.53A4,4,0,0,1,130,78a4.05,4.05,0,0,1-3-1.17A4.43,4.43,0,0,1,125.77,73.58Zm1.79,0a3.21,3.21,0,0,0,.67,2.21,2.32,2.32,0,0,0,3.42,0,3.28,3.28,0,0,0,.66-2.24,3.18,3.18,0,0,0-.65-2.2,2.38,2.38,0,0,0-3.44,0A3.24,3.24,0,0,0,127.56,73.53Z"/>
    <path class="cls-1" d="M139.54,77.83V76.9a2.32,2.32,0,0,1-.89.78,2.53,2.53,0,0,1-1.17.29,2.26,2.26,0,0,1-1.13-.28,1.63,1.63,0,0,1-.72-.77,3.61,3.61,0,0,1-.22-1.38V71.6h1.65v2.86a8,8,0,0,0,.09,1.61.85.85,0,0,0,.33.47,1,1,0,0,0,.61.17,1.23,1.23,0,0,0,.75-.23,1.1,1.1,0,0,0,.46-.57,6.85,6.85,0,0,0,.12-1.68V71.6h1.65v6.23Z"/>
    <path class="cls-1" d="M144.35,77.83h-1.64V71.6h1.53v.89a2.71,2.71,0,0,1,.7-.83,1.33,1.33,0,0,1,.71-.2,2.17,2.17,0,0,1,1.09.31l-.51,1.44a1.47,1.47,0,0,0-.78-.27.88.88,0,0,0-.58.19,1.32,1.32,0,0,0-.38.69,9.88,9.88,0,0,0-.14,2.09Z"/>
    <path class="cls-1" d="M150.77,77.83V69.24h2.59l1.56,5.86,1.54-5.86h2.61v8.59h-1.62V71.07l-1.7,6.76h-1.67l-1.7-6.76v6.76Z"/>
    <path class="cls-1" d="M160.78,70.76V69.24h1.64v1.52Zm0,7.07V71.6h1.64v6.23Z"/>
    <path class="cls-1" d="M164.11,77.83V69.24h1.65v8.59Z"/>
    <path class="cls-1" d="M167.44,70.76V69.24h1.65v1.52Zm0,7.07V71.6h1.65v6.23Z"/>
    <path class="cls-1" d="M173.63,71.6v1.32h-1.12v2.5a6.67,6.67,0,0,0,0,.89.32.32,0,0,0,.15.21.46.46,0,0,0,.27.08,2,2,0,0,0,.67-.16l.14,1.28a3.21,3.21,0,0,1-1.3.25,2.09,2.09,0,0,1-.81-.15,1.13,1.13,0,0,1-.52-.39,1.5,1.5,0,0,1-.23-.64,7,7,0,0,1-.06-1.16V72.92h-.75V71.6h.75V70.37l1.66-1V71.6Z"/>
    <path class="cls-1" d="M176,73.5l-1.49-.27a2.33,2.33,0,0,1,.87-1.33,3.17,3.17,0,0,1,1.83-.44,4,4,0,0,1,1.64.26,1.69,1.69,0,0,1,.76.67,3.47,3.47,0,0,1,.22,1.47l0,1.92a6,6,0,0,0,.08,1.21,3.66,3.66,0,0,0,.29.84h-1.63c0-.11-.09-.27-.15-.49l-.06-.19a2.91,2.91,0,0,1-.91.61,2.52,2.52,0,0,1-1,.21,2.13,2.13,0,0,1-1.51-.52,1.86,1.86,0,0,1-.31-2.26,1.69,1.69,0,0,1,.71-.64,5.87,5.87,0,0,1,1.31-.38,9.18,9.18,0,0,0,1.6-.4V73.6a.83.83,0,0,0-.24-.67,1.34,1.34,0,0,0-.88-.21,1.18,1.18,0,0,0-.69.18A1.23,1.23,0,0,0,176,73.5Zm2.21,1.34c-.21.07-.55.15-1,.25a2.88,2.88,0,0,0-.9.29A.66.66,0,0,0,176,76a.82.82,0,0,0,.25.6,1,1,0,0,0,.66.25,1.4,1.4,0,0,0,.85-.3,1,1,0,0,0,.39-.54,2.86,2.86,0,0,0,.07-.8Z"/>
    <path class="cls-1" d="M183,77.83h-1.64V71.6h1.53v.89a2.86,2.86,0,0,1,.7-.83,1.34,1.34,0,0,1,.72-.2,2.16,2.16,0,0,1,1.08.31l-.51,1.44a1.46,1.46,0,0,0-.77-.27.91.91,0,0,0-.59.19,1.32,1.32,0,0,0-.38.69,9.88,9.88,0,0,0-.14,2.09Z"/>
    <path class="cls-1" d="M185.34,71.6h1.75L188.58,76,190,71.6h1.71l-2.2,6-.39,1.09a4.91,4.91,0,0,1-.41.83,1.83,1.83,0,0,1-.46.46,1.77,1.77,0,0,1-.62.28,3.12,3.12,0,0,1-.84.1,4.23,4.23,0,0,1-.94-.1L185.74,79a3.66,3.66,0,0,0,.69.08,1,1,0,0,0,.85-.34,2.24,2.24,0,0,0,.43-.86Z"/>
    <path class="cls-1" d="M196.15,77.83V69.24H202v1.45h-4.16v2h3.59v1.46h-3.59v3.65Z"/>
    <path class="cls-1" d="M204.69,73.5l-1.5-.27a2.33,2.33,0,0,1,.87-1.33,3.17,3.17,0,0,1,1.83-.44,4,4,0,0,1,1.64.26,1.69,1.69,0,0,1,.76.67,3.47,3.47,0,0,1,.22,1.47l0,1.92a6.89,6.89,0,0,0,.08,1.21,3.66,3.66,0,0,0,.29.84h-1.62a3.51,3.51,0,0,1-.16-.49l-.06-.19a2.87,2.87,0,0,1-.9.61,2.56,2.56,0,0,1-1,.21,2.14,2.14,0,0,1-1.51-.52,1.74,1.74,0,0,1-.56-1.32,1.83,1.83,0,0,1,.25-.94,1.69,1.69,0,0,1,.71-.64,5.87,5.87,0,0,1,1.31-.38,9.18,9.18,0,0,0,1.6-.4V73.6a.86.86,0,0,0-.23-.67,1.4,1.4,0,0,0-.89-.21,1.18,1.18,0,0,0-.69.18A1.16,1.16,0,0,0,204.69,73.5Zm2.2,1.34c-.21.07-.55.15-1,.25a2.88,2.88,0,0,0-.9.29.69.69,0,0,0-.32.58.79.79,0,0,0,.26.6.92.92,0,0,0,.65.25,1.4,1.4,0,0,0,.85-.3,1.06,1.06,0,0,0,.4-.54,3.48,3.48,0,0,0,.06-.8Z"/>
    <path class="cls-1" d="M210,71.6h1.51v.85a2.45,2.45,0,0,1,1.94-1,2.13,2.13,0,0,1,1,.25,1.9,1.9,0,0,1,.72.74,2.77,2.77,0,0,1,.89-.74,2.19,2.19,0,0,1,1-.25,2.32,2.32,0,0,1,1.16.28,1.73,1.73,0,0,1,.71.82,3.58,3.58,0,0,1,.17,1.29v4h-1.65V74.27a2.57,2.57,0,0,0-.17-1.2.78.78,0,0,0-.7-.35,1.12,1.12,0,0,0-.65.21,1.2,1.2,0,0,0-.44.62,4.41,4.41,0,0,0-.14,1.29v3h-1.64V74.42a4.7,4.7,0,0,0-.09-1.18.81.81,0,0,0-.27-.39.9.9,0,0,0-.5-.13,1.17,1.17,0,0,0-.69.21,1.09,1.09,0,0,0-.43.59,4.28,4.28,0,0,0-.14,1.28v3H210Z"/>
    <path class="cls-1" d="M220.8,70.76V69.24h1.65v1.52Zm0,7.07V71.6h1.65v6.23Z"/>
    <path class="cls-1" d="M224.13,77.83V69.24h1.65v8.59Z"/>
    <path class="cls-1" d="M227.47,70.76V69.24h1.64v1.52Zm0,7.07V71.6h1.64v6.23Z"/>
    <path class="cls-1" d="M234.41,75.85l1.64.27a2.82,2.82,0,0,1-1,1.38,3,3,0,0,1-1.71.47,2.8,2.8,0,0,1-2.4-1.06,3.58,3.58,0,0,1-.62-2.15,3.42,3.42,0,0,1,.81-2.42,2.68,2.68,0,0,1,2-.88,2.79,2.79,0,0,1,2.2.92,4.05,4.05,0,0,1,.76,2.81H232a1.62,1.62,0,0,0,.4,1.14,1.25,1.25,0,0,0,1,.41,1,1,0,0,0,.65-.21A1.35,1.35,0,0,0,234.41,75.85Zm.09-1.67a1.58,1.58,0,0,0-.37-1.08,1.18,1.18,0,0,0-1.75,0,1.49,1.49,0,0,0-.34,1.06Z"/>
    <path class="cls-1" d="M236.9,76.05l1.65-.25a1.2,1.2,0,0,0,.43.73,1.4,1.4,0,0,0,.9.25,1.62,1.62,0,0,0,1-.24.53.53,0,0,0,.22-.44.45.45,0,0,0-.12-.31,1.37,1.37,0,0,0-.55-.21,8.87,8.87,0,0,1-2.53-.81,1.6,1.6,0,0,1-.74-1.4,1.75,1.75,0,0,1,.64-1.36,3,3,0,0,1,2-.55,3.43,3.43,0,0,1,1.9.42,2.14,2.14,0,0,1,.86,1.23l-1.56.29a1,1,0,0,0-.37-.56,1.39,1.39,0,0,0-.8-.19,1.81,1.81,0,0,0-.93.18.4.4,0,0,0-.19.33.36.36,0,0,0,.17.3,5.8,5.8,0,0,0,1.54.46,4.59,4.59,0,0,1,1.83.74,1.5,1.5,0,0,1,.52,1.22,1.87,1.87,0,0,1-.72,1.47,3.14,3.14,0,0,1-2.11.62,3.4,3.4,0,0,1-2-.52A2.33,2.33,0,0,1,236.9,76.05Z"/>
  </g>
</svg>
