<svg id="Layer_1" data-name="Layer 1" xmlns="http://www.w3.org/2000/svg" xmlns:xlink="http://www.w3.org/1999/xlink" width="341" height="75" viewBox="0 0 341 75">
  <defs>
    <style>
      .cls-1 {
        fill: none;
      }

      .cls-2 {
        clip-path: url(#clip-path);
      }

      .cls-3 {
        fill: #1370b8;
      }
    </style>
    <clipPath id="clip-path">
      <rect class="cls-1" x="60.44" y="14.23" width="68.35" height="46.77"/>
    </clipPath>
  </defs>
  <title>FOOTER-LINE</title>
  <g class="cls-2">
    <path class="cls-3" d="M67.71,55A3.77,3.77,0,0,1,64,51.79L60.47,25a3.77,3.77,0,0,1,3.22-4.2l49.55-6.52a3.73,3.73,0,0,1,4.19,3.22l1.22,9.26L117,27l-1.22-9.26a2.06,2.06,0,0,0-2.3-1.77L63.91,22.47a2.07,2.07,0,0,0-1.76,2.3l3.53,26.8A2.05,2.05,0,0,0,68,53.33l2.26-.3.23,1.68L68.2,55l-.49,0"/>
    <path class="cls-3" d="M122.82,59.31A2.05,2.05,0,0,0,125,57.42l2.07-26.95a2.09,2.09,0,0,0-.49-1.49,2,2,0,0,0-1.4-.71L75.38,24.44a2.06,2.06,0,0,0-2.2,1.89l-2.07,27A2,2,0,0,0,73,55.48ZM123,61l-.28,0L72.87,57.17a3.74,3.74,0,0,1-3.44-4L71.5,26.2a3.74,3.74,0,0,1,4-3.44l49.83,3.83a3.73,3.73,0,0,1,3.44,4l-2.07,26.95A3.75,3.75,0,0,1,123,61"/>
  </g>
  <g>
    <path class="cls-3" d="M154.61,40.2V37.3h7.48v6.85A9.41,9.41,0,0,1,158.93,46a11.39,11.39,0,0,1-4.19.81,9.45,9.45,0,0,1-4.7-1.13,7.27,7.27,0,0,1-3-3.24,10.48,10.48,0,0,1-1-4.58,9.88,9.88,0,0,1,1.13-4.76,7.54,7.54,0,0,1,3.29-3.2,8.87,8.87,0,0,1,4.11-.86,8.23,8.23,0,0,1,5,1.34,6.1,6.1,0,0,1,2.32,3.71l-3.45.65a3.65,3.65,0,0,0-1.36-2,4.14,4.14,0,0,0-2.51-.73,4.69,4.69,0,0,0-3.61,1.44,6,6,0,0,0-1.34,4.27A6.71,6.71,0,0,0,151,42.31a4.52,4.52,0,0,0,3.56,1.53,5.84,5.84,0,0,0,2.18-.43,7.45,7.45,0,0,0,1.88-1V40.2Z"/>
    <path class="cls-3" d="M165.11,46.51V29.33h3.47V46.51Z"/>
    <path class="cls-3" d="M171.84,46.51V29.33h11.77v2.91H175.3v4.07h7.18v2.9H175.3v7.3Z"/>
    <path class="cls-3" d="M190.27,46.51V32.24h-5.1V29.33h13.65v2.91h-5.08V46.51Z"/>
    <path class="cls-3" d="M218.58,40.2l3.36,1.06a7.55,7.55,0,0,1-2.57,4.18,8.08,8.08,0,0,1-10.19-1A8.94,8.94,0,0,1,207,38.08a9.41,9.41,0,0,1,2.22-6.67A7.6,7.6,0,0,1,215,29a7.13,7.13,0,0,1,5.12,1.86,6.72,6.72,0,0,1,1.76,3.17l-3.43.82A3.54,3.54,0,0,0,214.84,32a3.88,3.88,0,0,0-3.1,1.37,6.72,6.72,0,0,0-1.19,4.44c0,2.17.39,3.72,1.17,4.64a3.81,3.81,0,0,0,3.05,1.38,3.47,3.47,0,0,0,2.38-.88A5.13,5.13,0,0,0,218.58,40.2Z"/>
    <path class="cls-3" d="M240.34,46.51h-3.78l-1.5-3.9H228.2l-1.42,3.9H223.1l6.69-17.18h3.67ZM234,39.72l-2.37-6.38-2.32,6.38Z"/>
    <path class="cls-3" d="M242.12,46.51V29.33h7.3a12.42,12.42,0,0,1,4,.47,4,4,0,0,1,2,1.64,5,5,0,0,1,.75,2.71A4.57,4.57,0,0,1,255,37.34a5.47,5.47,0,0,1-3.4,1.59,8.31,8.31,0,0,1,1.86,1.44,19.61,19.61,0,0,1,2,2.79l2.1,3.35h-4.15l-2.5-3.73a25.44,25.44,0,0,0-1.83-2.53,2.68,2.68,0,0,0-1.05-.72,6,6,0,0,0-1.74-.19h-.71v7.17Zm3.46-9.91h2.57a13.34,13.34,0,0,0,3.12-.21,1.83,1.83,0,0,0,1-.73,2.18,2.18,0,0,0,.35-1.29,2.06,2.06,0,0,0-.46-1.4,2.12,2.12,0,0,0-1.31-.67c-.28,0-1.12-.06-2.53-.06h-2.71Z"/>
    <path class="cls-3" d="M259.35,29.33h6.34a12.32,12.32,0,0,1,3.27.33,5.83,5.83,0,0,1,2.59,1.58A7.45,7.45,0,0,1,273.19,34a12.51,12.51,0,0,1,.56,4.06,11.31,11.31,0,0,1-.52,3.65,7.65,7.65,0,0,1-1.84,3A6.22,6.22,0,0,1,269,46.15a10.61,10.61,0,0,1-3.07.36h-6.53Zm3.47,2.91V43.62h2.59a9.35,9.35,0,0,0,2.1-.17,3.15,3.15,0,0,0,1.4-.71,3.73,3.73,0,0,0,.91-1.66,11.37,11.37,0,0,0,.35-3.14,10.42,10.42,0,0,0-.35-3.06,4.06,4.06,0,0,0-1-1.67,3.25,3.25,0,0,0-1.6-.81,15.9,15.9,0,0,0-2.85-.16Z"/>
    <path class="cls-3" d="M275.75,40.92l3.37-.32a4.1,4.1,0,0,0,1.24,2.49,3.74,3.74,0,0,0,2.51.8,3.89,3.89,0,0,0,2.53-.71,2.13,2.13,0,0,0,.85-1.66,1.57,1.57,0,0,0-.36-1,2.94,2.94,0,0,0-1.25-.74c-.41-.14-1.33-.39-2.78-.75a9.41,9.41,0,0,1-3.91-1.7,4.45,4.45,0,0,1-1.58-3.46,4.37,4.37,0,0,1,.74-2.45,4.7,4.7,0,0,1,2.14-1.74,8.64,8.64,0,0,1,3.39-.6,7.19,7.19,0,0,1,4.86,1.42,5,5,0,0,1,1.72,3.78l-3.47.16a3,3,0,0,0-.95-1.91,3.55,3.55,0,0,0-2.2-.58,4,4,0,0,0-2.37.62,1.27,1.27,0,0,0-.55,1.07,1.3,1.3,0,0,0,.52,1,9.1,9.1,0,0,0,3.19,1.15A16.77,16.77,0,0,1,287.13,37a4.77,4.77,0,0,1,1.9,1.74,5.44,5.44,0,0,1-.14,5.51,4.94,4.94,0,0,1-2.32,1.91,9.67,9.67,0,0,1-3.74.63,7.41,7.41,0,0,1-5-1.51A6.51,6.51,0,0,1,275.75,40.92Z"/>
  </g>
</svg>
