<?xml version="1.0" encoding="UTF-8" standalone="no"?><!DOCTYPE svg PUBLIC "-//W3C//DTD SVG 1.1//EN" "http://www.w3.org/Graphics/SVG/1.1/DTD/svg11.dtd"><svg width="100%" height="100%" viewBox="0 0 597 547" version="1.1" xmlns="http://www.w3.org/2000/svg" xmlns:xlink="http://www.w3.org/1999/xlink" xml:space="preserve" xmlns:serif="http://www.serif.com/" style="fill-rule:evenodd;clip-rule:evenodd;stroke-linejoin:round;stroke-miterlimit:2;"><path d="M567.033,15.13l-76.3,0c-7.1,0 -13.8,3.6 -17.7,9.7l-129.2,341.9l-298.3,0c-11.9,0 -21.4,9.9 -21.4,22.2c0,12.2 9.5,22.1 21.4,22.1l309.7,0c7.2,0 13.8,-3.6 17.6,-9.7l129.3,-341.9l64.9,0c11.8,0 21.4,-10 21.4,-22.2c0.1,-12.2 -9.6,-22.1 -21.4,-22.1m-291.3,426.9c-23.9,0 -43.1,19.9 -43.1,44.5c0,24.7 19.3,44.7 43.1,44.7c23.8,0 43.1,-20 43.1,-44.7c0,-24.5 -19.3,-44.5 -43.1,-44.5m-158.9,0c-23.8,0 -43.1,20 -43.1,44.6c0,24.7 19.3,44.8 43.1,44.8c23.7,0 43.1,-20 43.1,-44.8c-0.1,-24.6 -19.4,-44.6 -43.1,-44.6m-81,-132.6l-24.9,-135.1c0,-13.3 10.5,-25.5 23.4,-27.1l358.8,-57.9c0.9,-0.2 1.8,-0.2 2.7,-0.2c8.2,0 12.5,7 7.9,17.8c-4.5,10.4 -73.4,204.8 -74.2,206.4c-6.8,14.6 -24.9,20.3 -36,20.3l-234.3,0c-12.8,0 -23.4,-10.8 -23.4,-24.2" style="fill:#0a2240;fill-rule:nonzero;"/></svg>