<?xml version="1.0" encoding="utf-8"?>
<!-- Generator: Adobe Illustrator 23.0.6, SVG Export Plug-In . SVG Version: 6.00 Build 0)  -->
<svg version="1.1" id="Layer_1" xmlns="http://www.w3.org/2000/svg" xmlns:xlink="http://www.w3.org/1999/xlink" x="0px" y="0px"
	 width="191px" height="147px" viewBox="0 0 191 147" style="enable-background:new 0 0 191 147;" xml:space="preserve">
<style type="text/css">
	.st0{fill:#005696;}
	.st1{fill:#FFCF01;}
	.st2{fill:none;stroke:url(#SVGID_1_);stroke-width:0.5;stroke-miterlimit:10;}
</style>
<g>
	<g>
		<polygon class="st0" points="78.3,56.2 70,56.2 69.1,56.2 68.3,60.7 69.2,60.7 70.2,60.7 67,64.5 65.3,60.7 66.7,60.7 67.6,56.2 
			58.3,56.2 57.5,60.7 59.7,60.7 63.4,69 56.4,77.4 55.1,77.4 54.6,77.4 53.8,82 54.3,82 62.5,82 63.4,82 64.2,77.4 63.3,77.4 
			62.3,77.4 65.5,73.6 67.2,77.4 65.8,77.4 65,82 74.2,82 75,77.4 72.9,77.4 69.1,69.2 76.1,60.7 77.5,60.7 77.9,60.7 78.7,56.2 		
			"/>
		<polygon class="st0" points="49.2,73.6 48.5,77.4 42.6,77.4 43.7,71.1 45.4,71.1 45,73.6 48.2,73.6 49.9,64.5 46.6,64.5 46.1,67 
			44.4,67 45.5,60.7 51.5,60.7 50.8,64.5 55.9,64.5 57.4,56.2 53,56.2 52.3,56.2 46.3,56.2 41.3,56.2 40,56.2 39.2,60.7 40.5,60.7 
			37.5,77.4 36.5,77.4 35.7,82 36.7,82 38.4,82 40.3,82 41.8,82 47.7,82 48.6,82 52.8,82 54.3,73.6 		"/>
		<polygon class="st0" points="38.2,60.7 39,56.2 37.8,56.2 32.7,56.2 31.5,56.2 30.7,60.7 31.9,60.7 29.7,73 27.1,56.2 25,56.2 
			22.4,56.2 21.6,56.2 19.9,56.2 18.6,56.2 17.8,60.7 19.1,60.7 16.2,77.4 15,77.4 15,77.4 14.2,82 14.2,82 15.4,82 15.6,82 
			20.5,82 21.7,82 22.5,77.4 21.3,77.4 23.7,64 26.5,82 28.1,82 31.2,82 33.2,82 37,60.7 		"/>
	</g>
	<g>
		<path class="st1" d="M15.6,48.4c0.7-0.5,2.1-1,3.6-1c-0.1,0.3-0.2,0.7-0.2,1c-0.1,1.6,0.5,3,1.6,3.8H15L14.5,55h11.7h2h3.5
			l0.5-2.8h-5.2c0-0.1-0.1-0.2-0.1-0.2c1.1-0.9,1.8-2.2,1.9-3.6c0.2-2.7-1.8-4.8-4.5-4.8c-1.6,0-3.1,0.8-4.1,2
			c-2.4-0.3-4.6,0.7-5.6,1.3c-0.4,0.3-0.5,0.9-0.3,1.3C14.6,48.6,15.2,48.7,15.6,48.4z M24.2,45.8c0.6,0,1.2,0.2,1.6,0.7
			c0.4,0.4,0.6,1.1,0.6,1.7c0,0.5-0.2,1.1-0.6,1.5C25,48.1,24,47,22.6,46.3C23.1,46,23.6,45.8,24.2,45.8z M21.4,47.8
			c1.2,0.5,2.1,1.5,2.8,3c-0.3,0.1-0.5,0.1-0.8,0.1c-0.6,0-1.2-0.2-1.6-0.7c-0.4-0.4-0.6-1.1-0.6-1.7C21.3,48.3,21.4,48,21.4,47.8z"
			/>
		<path class="st1" d="M25.5,88.6l1.8,1c-0.3,0.5-1.6,2.8-4.5,4.6c-0.4-0.7-0.9-1.4-1.6-2.1c-0.5-0.5-1.3-1.1-2.2-1.7l1.2-7.1h-5.1
			l-0.7,4.2c-5.9-4.4-3.7-11-3.4-11.8c2.4-6.4,10.8-9.7,11.7-10.1c0.4-0.1,0.8-0.3,1.1-0.5l-0.3-1.9c-0.4,0.2-0.9,0.4-1.5,0.6
			c-0.7,0.3-3.3,1.3-6.1,3.2c-3.4,2.3-5.7,5-6.8,8c-0.4,1-3.1,9.3,4.8,14.5L13,95.8c-7.4-1.5-8.2-5.2-8.3-6.1L7,88.9l-1.9-5.7
			l-4.4,5.4l1.9,1.1L2.7,90c2,6.7,3.9,7.4,8.2,9.6c1.7,0.8,3.6,1.5,3.7,1.5c0,0,1.6-0.7,3.7-1.5c1.4-0.6,2.5-1.1,3.6-1.6
			c0,0,0,0,0,0c-0.4,2.1-2.5,3.5-2.9,3.7c-0.4,0.1-0.7,0.6-0.6,1.1c0.1,0.4,0.5,0.7,0.9,0.7c0.1,0,0.1,0,0.2,0
			c0.6-0.1,3.3-1.8,4.1-4.6c0.2-0.6,0.3-1.3,0.2-2.1c1.9-1.3,3.5-3.2,5.9-6.9l0.2-0.4l2-0.7l-1.9-5.7L25.5,88.6z M18,95.9l0.6-3.6
			c0.5,0.3,0.9,0.7,1.2,1c0.5,0.6,1,1.1,1.3,1.7C20.2,95.4,19.2,95.7,18,95.9z"/>
	</g>
</g>
<g>
	<g>
		<polygon points="121.4,61.3 108.6,61.3 108.6,79.6 117.6,79.6 117.6,69.5 121.4,79.6 127,79.6 130.8,69.5 130.8,79.6 139.8,79.6 
			139.8,61.3 127,61.3 124.2,68.8 		"/>
	</g>
	<g>
		<polygon points="190.3,79.6 180.2,79.6 178.2,72.9 176.2,79.6 166,79.6 169.9,70 166.2,61.3 176.4,61.3 178.2,66.8 179.9,61.3 
			190.1,61.3 186.3,70 		"/>
	</g>
	<g>
		<path d="M152.3,68v-1.3c0-0.9,0.4-1.3,1.3-1.3c1,0,1.3,0.4,1.3,1.3V68h10.3v-2.4c0-3.4-1.8-4.4-6.4-4.4h-10.6
			c-4.4,0-6.2,1.1-6.2,4.4V68v4.2v3.7c0,2.8,1.9,3.9,6.2,3.9h10.6c4.4,0,6.4-1.1,6.4-3.9v-3.7h-10.3v2.1c0,0.9-0.4,1.3-1.3,1.3
			c-0.9,0-1.3-0.4-1.3-1.3v-2.1V68z"/>
	</g>
</g>
<linearGradient id="SVGID_1_" gradientUnits="userSpaceOnUse" x1="75.7397" y1="72.9625" x2="107.86" y2="72.9625" gradientTransform="matrix(0.9855 2.977538e-02 2.977538e-02 0.939 -1.1101 2.2761)">
	<stop  offset="0" style="stop-color:#FFFFFF"/>
	<stop  offset="0.2392" style="stop-color:#8E9BC3"/>
	<stop  offset="0.4994" style="stop-color:#135898"/>
	<stop  offset="1" style="stop-color:#FFFFFF"/>
</linearGradient>
<line class="st2" x1="106.2" y1="43.5" x2="76.9" y2="103.5"/>
</svg>
