<?xml version="1.0" encoding="UTF-8" standalone="no"?>
<!DOCTYPE svg PUBLIC "-//W3C//DTD SVG 1.1//EN" "http://www.w3.org/Graphics/SVG/1.1/DTD/svg11.dtd">
<svg width="100%" height="100%" viewBox="0 0 50 50" version="1.1" xmlns="http://www.w3.org/2000/svg" xmlns:xlink="http://www.w3.org/1999/xlink" xml:space="preserve" xmlns:serif="http://www.serif.com/" style="fill-rule:evenodd;clip-rule:evenodd;stroke-linejoin:round;stroke-miterlimit:2;">
    <g transform="matrix(0.0795288,0,0,0.0735502,-13.9308,-21.9616)">
        <path d="M441.7,501.4C437.2,501.4 432.9,499.5 430.9,497.6C424.4,491.6 423.7,481 429.4,474C453.9,443.7 487.9,425 525.1,421.5C529.4,421 533.7,420.9 537.9,420.9C569.6,420.9 600.9,432.5 626.1,453.5C632.9,459.1 634.1,469.7 628.9,477.1C625.9,481.3 621.3,483.6 616.5,483.6C613,483.6 609.6,482.4 606.9,480C587.3,463.6 562.8,454.6 538,454.6C534.7,454.6 531.4,454.7 528.1,455.1C499.8,457.8 473.2,472.3 453.2,496.2C450.1,499.6 446.1,501.4 441.7,501.4M299.5,731.2L206.3,840.6C178.4,873.7 182.8,923.5 216,951.3C232.1,964.7 252.5,971.2 273.4,969.4C294.3,967.5 313.2,957.7 326.8,941.6L419.7,832.6C371.1,810.6 329.4,775.3 299.5,731.2M555.2,749.9C455.2,758.6 366.8,684.6 358.1,584.5C349.4,484.4 423.5,396.1 523.5,387.4C623.6,378.6 711.9,452.7 720.7,552.8C729.4,652.9 655.3,741.2 555.2,749.9M791.2,546.9C779.1,408.2 656.3,305.1 517.6,317.3C450.4,323.2 389.5,354.9 346.1,406.5C302.7,458.2 282.1,523.7 287.9,590.9C300.1,729.6 422.8,832.7 561.6,820.5C628.8,814.7 689.7,782.9 733.1,731.2C776.5,679.6 797.1,614.1 791.2,546.9" style="fill:white;fill-rule:nonzero;"/>
    </g>
</svg>
