<?xml version="1.0" encoding="utf-8"?>
<!-- Generator: Adobe Illustrator 23.0.6, SVG Export Plug-In . SVG Version: 6.00 Build 0)  -->
<svg version="1.1" id="Layer_1" xmlns="http://www.w3.org/2000/svg" xmlns:xlink="http://www.w3.org/1999/xlink" x="0px" y="0px"
	 width="329px" height="323px" viewBox="0 0 329 323" style="enable-background:new 0 0 329 323;" xml:space="preserve">
<style type="text/css">
	.st0{fill:#D2263D;}
	.st1{fill:#0A233F;}
</style>
<title>Taking Care of Our Own</title>
<path class="st0" d="M49.2,263.5c-4-4.6-3.1-10.8,1.1-14.4c4.2-3.6,10.5-3.7,14.5,0.9c4,4.6,3.1,10.8-1.1,14.4
	C59.5,268.1,53.2,268.1,49.2,263.5 M63.2,251.3c-3-3.4-7.9-3.5-11.3-0.5c-3.4,3-4.1,7.9-1.1,11.4c3,3.4,7.9,3.5,11.3,0.5
	C65.6,259.7,66.2,254.8,63.2,251.3"/>
<polygon class="st0" points="89.2,275.3 79.6,267.9 75.3,273.5 83.9,280.1 82.6,281.8 74,275.2 68.7,282.1 67,280.7 79.1,264.9 
	90.5,273.6 "/>
<path class="st0" d="M113.3,307.7c-5.7-2.1-7.9-7.9-6-13.1c1.9-5.2,7.4-8.3,13.1-6.2c5.7,2.1,7.9,7.9,6,13.1
	C124.5,306.7,119,309.8,113.3,307.7 M119.6,290.3c-4.3-1.6-8.6,0.7-10.1,5c-1.6,4.3,0.3,8.9,4.6,10.5c4.3,1.6,8.6-0.8,10.1-5
	C125.7,296.5,123.9,291.9,119.6,290.3"/>
<path class="st0" d="M154.5,308c-0.8,5.8-4.5,8.3-9.5,7.6c-4.9-0.7-7.8-4.1-7-9.7l1.6-11.5l2.2,0.3l-1.6,11.3
	c-0.6,4.3,1.3,7,5.1,7.5c3.6,0.5,6.3-1.4,6.9-5.7l1.6-11.5l2.2,0.3L154.5,308z"/>
<path class="st0" d="M182.4,316.1l-6.2-7.4l-5.7,0.3l0.5,7.7l-2.2,0.1l-1.2-19.9l8.6-0.5c4.4-0.3,7.3,1.9,7.6,5.5
	c0.2,3.3-2,5.4-5.1,6.2l6.6,7.8L182.4,316.1z M176,298.6l-6.1,0.4l0.5,8.1l6.1-0.4c3-0.2,5-1.8,4.9-4.4
	C181.2,299.8,179.3,298.4,176,298.6"/>
<path class="st0" d="M223.3,306.5c-5.7,2.2-11.2-0.8-13.2-5.9c-2-5.2,0.1-11.1,5.7-13.3c5.7-2.2,11.2,0.7,13.2,5.9
	C231,298.4,228.9,304.3,223.3,306.5 M216.5,289.3c-4.2,1.7-6,6.2-4.3,10.5c1.7,4.2,6.1,6.5,10.3,4.8c4.2-1.7,6-6.2,4.3-10.5
	C225.2,289.9,220.8,287.6,216.5,289.3"/>
<polygon class="st0" points="243.5,272.9 245,271.9 259,282.4 254.2,265.5 256.1,264.1 261.8,284.7 260.2,285.8 246.5,275.6 
	251.2,292.1 249.7,293.1 232.3,280.8 234.3,279.4 248.5,289.7 "/>
<polygon class="st0" points="272.3,246.4 273.7,244.7 288.7,257.9 287.5,259.3 266.7,258.1 279,268.9 277.5,270.6 262.6,257.4 
	264,255.8 284.3,257 "/>
<polygon class="st0" points="66.4,70.6 64.9,72.3 51.5,60.5 47.1,65.5 45.5,64.1 56,52.4 57.5,53.8 53.1,58.8 "/>
<path class="st0" d="M88.7,50.4L86.8,52l-5.2-2.6l-8.4,6.9l1.5,5.6L73,63.3L67.3,42l1.6-1.3L88.7,50.4z M69.7,43.4l2.9,10.8l7-5.8
	L69.7,43.4z"/>
<polygon class="st0" points="109.4,38.5 106.9,39.9 95.5,35.1 93.9,41 96.5,45.7 94.5,46.7 84.8,29.3 86.8,28.2 92.6,38.6 
	96.8,22.7 99.4,21.2 96.1,33 "/>
<rect x="112.4" y="16.3" transform="matrix(0.9304 -0.3667 0.3667 0.9304 -1.7138 43.4519)" class="st0" width="2.3" height="19.9"/>
<polygon class="st0" points="136.5,9 138.7,8.5 143.3,27.9 141.6,28.3 125.2,15.4 129,31.3 126.9,31.8 122.3,12.4 124.3,11.9 
	140.3,24.6 "/>
<path class="st0" d="M161.2,26.6c-6.3,0.3-10.3-4.1-10.6-9.8c-0.3-5.5,3.5-10.5,9.5-10.8c3.4-0.2,5.5,0.7,7.6,2.3l-1.4,1.8
	c-1.6-1.3-3.3-2.1-6.2-2c-4.4,0.2-7.4,4.1-7.2,8.5c0.2,4.8,3.4,8.2,8.3,7.9c2.3-0.1,4.3-1.1,5.7-2.3l-0.2-5l-6.1,0.3l-0.1-2l8.2-0.4
	l0.4,7.9C167.3,24.9,164.6,26.5,161.2,26.6"/>
<path class="st0" d="M208.9,33.3c-5.5-1.7-8.2-7.3-6.4-12.8c1.7-5.4,7.2-8.6,12.7-6.8c3.5,1.1,5.1,3,6.5,5.4l-2,1.1
	c-1.1-2-2.6-3.7-5.1-4.5c-4.2-1.3-8.4,1.1-9.8,5.5c-1.4,4.4,0.7,8.9,4.9,10.2c2.6,0.8,4.6,0.4,7-0.8l1,1.8
	C215,33.7,212.4,34.4,208.9,33.3"/>
<path class="st0" d="M239.5,47l-2.1-1.1l0.4-5.7l-9.6-5.1l-4.6,3.5l-2-1.1L239.1,24l1.9,1L239.5,47z M238.8,26.8l-8.8,6.8l8,4.3
	L238.8,26.8z"/>
<path class="st0" d="M255.9,59.5l0.3-9.7l-4.5-3.6l-4.8,6.1l-1.8-1.4l12.4-15.6l6.7,5.3c3.4,2.7,4.2,6.3,1.9,9.2
	c-2.1,2.6-5.1,2.7-7.9,1.2L258,61.2L255.9,59.5z M262.8,42.2l-4.8-3.8l-5,6.3l4.8,3.8c2.3,1.9,5,2,6.6,0
	C265.9,46.5,265.4,44.2,262.8,42.2"/>
<polygon class="st0" points="286.2,65.2 278.1,56.2 273,60.7 280.2,68.8 278.7,70.2 271.5,62.1 266.2,66.7 274.5,75.9 272.9,77.3 
	263.2,66.4 278.1,53.1 287.7,63.8 "/>
<polygon class="st1" points="234.4,156.5 229.1,157.8 227.8,152.4 236.4,149.8 240.9,149.8 240.9,180.1 234.4,180.1 "/>
<path class="st1" d="M262,167.8c-1.5,1.3-3.5,2.1-6.1,2.1c-6.5,0-10.7-3.6-10.7-9.7v-0.1c0-6.1,4.7-10.5,11.5-10.5
	c4,0,6.4,1,8.7,3.3c2.2,2.2,3.6,5.4,3.6,11.3v0.1c0,9.8-4.6,16.4-13.1,16.4c-4.4,0-7.3-1.5-9.9-3.6l3.5-5c2.2,1.8,4,2.6,6.6,2.6
	C260.4,174.6,261.7,170.4,262,167.8 M262.1,159.9L262.1,159.9c0-2.7-2-4.7-5.3-4.7c-3.3,0-5.1,1.9-5.1,4.6v0.1c0,2.7,2,4.5,5.2,4.5
	C260.2,164.4,262.1,162.5,262.1,159.9"/>
<path class="st1" d="M286.1,173.6h-14.7l-1.1-4.7l16.5-19.1h5.6v18.4h4v5.4h-4v6.5h-6.3V173.6z M286.1,168.3v-9.4l-8,9.4H286.1z"/>
<path class="st1" d="M302.4,177.4c-2.2-2.2-3.6-5.4-3.6-11.4V166c0-9.3,4.2-16.4,13.2-16.4c4.1,0,6.7,1.2,9.4,3.3l-3.5,5.1
	c-2-1.5-3.6-2.4-6.1-2.4c-4.5,0-5.8,4.3-6.1,7c1.6-1.1,3.5-1.9,6.2-1.9c6,0,10.6,3.3,10.6,9.6v0.1c0,6.1-4.9,10.4-11.5,10.4
	C307.1,180.6,304.5,179.5,302.4,177.4 M315.9,170.5L315.9,170.5c0-2.6-2-4.5-5.2-4.5c-3.3,0-5.2,1.8-5.2,4.3v0.1
	c0,2.5,2,4.5,5.2,4.5C314.1,175,315.9,173.1,315.9,170.5"/>
<polygon class="st1" points="5.1,150.1 27.8,150.1 27.8,155.9 11.7,155.9 11.7,162 25.8,162 25.8,167.9 11.7,167.9 11.7,174.2 
	28,174.2 28,180.1 5.1,180.1 "/>
<path class="st1" d="M29.7,175.7l3.9-4.7c2.7,2.2,5.5,3.7,9,3.7c2.7,0,4.3-1.1,4.3-2.8v-0.1c0-1.7-1-2.5-6.1-3.8
	c-6.1-1.5-10-3.2-10-9.2v-0.1c0-5.5,4.4-9.1,10.5-9.1c4.4,0,8.1,1.4,11.2,3.8l-3.4,5c-2.7-1.8-5.3-3-7.8-3c-2.5,0-3.9,1.2-3.9,2.6
	v0.1c0,2,1.3,2.6,6.5,4c6.1,1.6,9.5,3.8,9.5,9v0.1c0,6-4.6,9.3-11,9.3C37.9,180.6,33.3,179,29.7,175.7"/>
<polygon class="st1" points="64.1,156.2 55,156.2 55,150.1 79.9,150.1 79.9,156.2 70.7,156.2 70.7,180.1 64.1,180.1 "/>
<path class="st1" d="M82.9,149.6h6.8c6.2,0,9.9,3.6,9.9,8.7v0c0,5.1-3.7,8.8-10,8.8h-6.7V149.6z M87.8,153.9v9h2
	c2.9,0,4.9-1.6,4.9-4.4v-0.1c0-2.8-1.9-4.5-4.9-4.5H87.8z"/>
<rect x="83" y="170.7" class="st1" width="15.3" height="4.5"/>
<path class="st1" d="M183.5,202l4.6,2.5c-0.6,1.2-4,7.1-11.3,11.6c-1-1.7-2.3-3.5-4.1-5.3c-1.3-1.4-3.3-2.8-5.6-4.3l11.1-63.4
	c6.7-2.8,11-6.6,12.9-11.4c2-5.1,0.9-10.3-0.8-14.8h8.8l1.3-7.2h-13.3c-0.1-0.2-0.2-0.4-0.3-0.6c2.7-2.3,4.5-5.5,4.8-9.2
	c0.5-6.8-4.6-12.3-11.4-12.3c-4.1,0-7.9,2-10.3,5.1c-6.1-0.7-11.7,1.7-14.1,3.3c-1.1,0.7-1.4,2.2-0.7,3.3c0.7,1.1,2.2,1.4,3.3,0.7
	c1.8-1.2,5.3-2.6,9-2.6c-0.2,0.8-0.4,1.7-0.5,2.6c-0.3,4,1.4,7.5,4.1,9.8h-14.3l-1.3,7.2h14.3l-4.7,27c-1.8,1-3.7,2.2-5.7,3.5
	c-8.6,5.9-14.4,12.7-17.1,20.2c-0.9,2.4-8,23.6,12.2,36.8l-2.8,16c-18.8-3.8-20.8-13.1-21-15.5l5.9-2.1l-4.8-14.5L120.5,202l4.9,2.7
	l0.2,0.9c5,17.1,10,18.8,20.9,24.3c4.4,2.1,9.3,3.9,9.3,3.9c0,0,4.2-1.8,9.3-3.9c3.5-1.5,6.4-2.7,9.1-4c0,0,0,0,0,0.1
	c-1,5.3-6.5,8.9-7.4,9.4c-1.1,0.4-1.8,1.6-1.6,2.8c0.2,1.1,1.2,1.9,2.3,1.9c0.2,0,0.3,0,0.5-0.1c1.5-0.3,8.4-4.7,10.5-11.6
	c0.5-1.5,0.7-3.3,0.6-5.3c4.7-3.3,8.9-8,15-17.4l0.6-1l5.1-1.8l-4.8-14.5L183.5,202z M173.2,98.6c3,1.3,5.4,3.9,7.2,7.6
	c-0.6,0.2-1.3,0.3-2,0.3c-1.6,0-3.1-0.6-4.2-1.7c-1.1-1.1-1.6-2.7-1.4-4.3C172.9,99.8,173,99.2,173.2,98.6z M184.4,95.3
	c1.1,1.1,1.6,2.7,1.4,4.3c-0.1,1.4-0.6,2.7-1.4,3.8c-2-4-4.8-6.9-8.1-8.6c1.2-0.8,2.5-1.2,3.9-1.2C181.8,93.5,183.3,94.1,184.4,95.3
	z M185.2,116.9c1.8,4.1,3.2,8.9,1.5,13.1c-1.1,2.8-3.7,5.3-7.5,7.4l3.6-20.5H185.2z M146.7,169.4c3.2-8.6,10.6-15,17.3-19.2
	l-8.6,49.1C140.4,188.1,146,171.4,146.7,169.4z M164.6,220.7l1.6-9c1.2,0.9,2.3,1.7,3.1,2.5c1.4,1.4,2.4,2.8,3.3,4.2
	C170.1,219.4,167.5,220.2,164.6,220.7z"/>
<g>
	<path class="st0" d="M285.9,242.1h-1.3v-0.6h3.3v0.6h-1.3v3.6h-0.6V242.1z M288.7,241.6h0.6l1.5,2.3l1.5-2.3h0.6v4.2h-0.6v-3.2
		l-1.5,2.3h-0.1l-1.5-2.3v3.2h-0.6V241.6z"/>
</g>
</svg>
