<svg width="20" height="20" viewBox="0 0 20 20" fill="none" xmlns="http://www.w3.org/2000/svg">
<path fill-rule="evenodd" clip-rule="evenodd" d="M1.21182 16.0914C1.21189 16.0742 1.21315 16.0571 1.21557 16.0401C1.72715 15.6903 4.58492 13.8076 5.119 13.466C5.26119 13.4757 5.39916 13.5184 5.52189 13.5909C5.73927 13.7046 6.37266 14.0594 7.25842 14.5628L7.94553 14.9551L8.59517 14.501C9.71319 13.6763 10.7606 12.7599 11.7265 11.7613C12.728 10.7985 13.6473 9.75379 14.475 8.63806L14.931 7.98967L14.5374 7.30256C14.1558 6.63606 13.6985 5.83151 13.5605 5.56978C13.4903 5.45024 13.4492 5.31586 13.4406 5.1775V5.16126C13.7454 4.68403 15.6818 1.77317 16.0379 1.25971C16.1443 1.25344 16.2494 1.28682 16.3327 1.35341C17.4308 2.14484 18.5783 3.2667 18.7426 3.70646C18.6326 6.04452 16.5713 9.32829 12.929 12.9563C9.28665 16.5842 5.99975 18.6424 3.66169 18.7499C3.21944 18.5918 2.08633 17.4481 1.29927 16.3625C1.24384 16.2823 1.2134 16.1875 1.21182 16.0901V16.0914ZM0 16.0901C0.00200203 16.4432 0.112088 16.7872 0.315448 17.0758C0.336061 17.1052 2.43051 20.0379 3.64358 19.9985C7.05166 19.8911 11.0569 16.5886 13.816 13.8383C16.5751 11.0879 19.8888 7.09205 20 3.6821V3.65461C20 2.45966 17.0948 0.35959 17.0642 0.340226C16.465 -0.167036 15.5696 -0.0994438 15.0534 0.492015C14.8385 0.796844 12.6117 4.13559 12.3605 4.54474C12.2488 4.73657 12.1924 4.95558 12.1975 5.17751C12.206 5.51836 12.2964 5.85217 12.4611 6.15071C12.6304 6.47115 13.1863 7.44435 13.4606 7.92159C12.6723 8.97849 11.7972 9.96782 10.8445 10.8793C9.92956 11.8273 8.93732 12.6975 7.87807 13.481C7.40084 13.2092 6.42451 12.6558 6.10344 12.4878C5.61866 12.1726 5.00369 12.136 4.48498 12.3916C4.10019 12.6346 0.776438 14.8464 0.459741 15.0732C0.15438 15.3207 -0.0151236 15.6987 0.00312324 16.0914L0 16.0901Z" fill="#EB8363"/>
</svg>
