<svg width="20" height="20" viewBox="0 0 20 20" fill="none" xmlns="http://www.w3.org/2000/svg">
<path fill-rule="evenodd" clip-rule="evenodd" d="M20 2.47628V2.45624C19.9802 2.31762 19.925 2.18646 19.8397 2.07543C19.8196 2.07543 19.8397 2.05538 19.8196 2.03534C19.7996 2.03534 19.7795 2.03534 19.7795 2.0153C19.6799 1.94008 19.5625 1.89176 19.4388 1.875H0.558687C0.434958 1.89176 0.317623 1.94008 0.217963 2.0153C0.217963 2.03534 0.197921 2.03534 0.177878 2.03534C0.160341 2.05789 0.177878 2.07543 0.160341 2.07543C0.0750396 2.18646 0.0198146 2.31762 0 2.45624V17.5283C0.00272531 17.8703 0.27931 18.1469 0.62132 18.1496H19.3787C19.7207 18.1469 19.9973 17.8703 20 17.5283V2.47628ZM17.5949 3.11764L9.99875 9.23063L2.38256 3.11764H17.5949ZM18.7574 16.2656C18.7596 16.4363 18.6927 16.6008 18.5719 16.7215C18.4512 16.8423 18.2868 16.9092 18.116 16.9069H1.8815C1.71073 16.9092 1.54631 16.8423 1.42555 16.7215C1.30479 16.6008 1.23792 16.4363 1.24014 16.2656V3.77905L9.53777 10.4131C9.53777 10.4332 9.53777 10.4332 9.55781 10.4532C9.80196 10.6952 10.1955 10.6952 10.4397 10.4532C10.4597 10.4332 10.4597 10.4332 10.4597 10.4131L18.7574 3.77905V16.2656Z" fill="#EB8363"/>
</svg>
