<svg width="17" height="17" viewBox="0 0 17 17" fill="none" xmlns="http://www.w3.org/2000/svg">
<path fill-rule="evenodd" clip-rule="evenodd" d="M8.5 17C3.80558 17 0 13.1944 0 8.5C0 3.80558 3.80558 0 8.5 0C13.1944 0 17 3.80558 17 8.5C17 10.7543 16.1045 12.9163 14.5104 14.5104C12.9163 16.1045 10.7543 17 8.5 17ZM8.5 1.13316C4.4314 1.13316 1.13316 4.4314 1.13316 8.5C1.13316 12.5686 4.4314 15.8668 8.5 15.8668C12.5686 15.8668 15.8668 12.5686 15.8668 8.5C15.8668 6.54619 15.0907 4.67241 13.7091 3.29085C12.3276 1.9093 10.4538 1.13316 8.5 1.13316ZM7.30256 10.6882V10.362C7.36052 9.46694 7.8069 8.64192 8.52444 8.10369C8.98344 7.68241 9.61456 7.2335 9.61456 6.56678C9.61456 6.03553 9.21294 5.61478 8.46706 5.61478C8.13614 5.58182 7.80634 5.68742 7.5561 5.90646C7.30585 6.12549 7.15752 6.4384 7.14637 6.77078H5.37944C5.35828 5.98798 5.66888 5.23269 6.23462 4.69124C6.80035 4.14979 7.56854 3.8726 8.34966 3.92806C10.072 3.92806 11.3778 5.04369 11.3778 6.59387C11.3778 7.7775 10.6027 8.37622 10.0146 8.87825C9.56994 9.25863 9.06738 9.70806 9.06738 10.3472V10.6872L7.30256 10.6882ZM8.17753 13.626C7.58785 13.5907 7.13524 13.0894 7.16011 12.4992C7.18498 11.9089 7.67815 11.4475 8.26872 11.4619C8.85928 11.4762 9.32943 11.9611 9.32556 12.5518C9.31943 12.8478 9.19409 13.1287 8.97796 13.3309C8.76183 13.5331 8.47321 13.6396 8.17753 13.626Z" fill="#EB8363"/>
</svg>
