<svg width="20" height="20" viewBox="0 0 20 20" fill="none" xmlns="http://www.w3.org/2000/svg">
<path fill-rule="evenodd" clip-rule="evenodd" d="M6.77384 8.44625H3.05759V12.1619H6.77384V8.44625ZM5.49009 10.8781H4.27384V9.66187H5.49009V10.8781ZM11.7738 8.44625H8.05759V12.1619H11.7738V8.44625ZM10.4901 10.8781H9.27384V9.66187H10.4901V10.8781ZM16.7063 8.44625H12.9901V12.1619H16.7063V8.44625ZM15.4901 10.8781H14.2738V9.66187H15.4901V10.8781ZM16.7063 13.3781H12.9901V17.0944H16.7063V13.3781ZM15.4901 15.8781H14.2738V14.6619H15.4901V15.8781ZM11.7063 13.3781H7.99009V17.0944H11.7063V13.3781ZM10.4901 15.8781H9.27384V14.6619H10.4901V15.8781ZM6.77384 13.3781H3.05759V17.0944H6.77384V13.3781ZM5.49009 15.8781H4.27384V14.6619H5.49009V15.8781ZM18.0576 1.35125H14.0695V0H12.8551V1.35125H6.90884V0H5.69447V1.35125H1.70634C1.41845 1.34752 1.14125 1.46024 0.937664 1.66382C0.734075 1.86741 0.621357 2.14461 0.62509 2.4325V18.9188C0.621357 19.2066 0.734075 19.4838 0.937664 19.6874C1.14125 19.891 1.41845 20.0037 1.70634 20H18.0576C18.3455 20.0037 18.6227 19.891 18.8263 19.6874C19.0299 19.4838 19.1426 19.2066 19.1388 18.9188V2.4325C19.1426 2.14461 19.0299 1.86741 18.8263 1.66382C18.6227 1.46024 18.3455 1.34752 18.0576 1.35125ZM18.0576 18.1081C18.0569 18.481 17.7548 18.7831 17.382 18.7837H2.38196C2.00911 18.7831 1.70703 18.481 1.70634 18.1081V6.35125H18.0576V18.1081ZM18.0576 5.135H1.70634V3.24312C1.70703 2.87027 2.00911 2.56819 2.38196 2.5675H5.69446V3.51375H6.91071V2.5675H12.857V3.51375H14.0695V2.5675H17.382C17.7548 2.56819 18.0569 2.87027 18.0576 3.24312V5.135Z" fill="#EB8363"/>
</svg>
