<svg xmlns="http://www.w3.org/2000/svg" viewBox="0 0 103.5 103.7"><defs><style>.cls-1{fill:#e00087;}</style></defs><title>account-logged-in</title><g id="Layer_2" data-name="Layer 2"><g id="Layer_1-2" data-name="Layer 1"><g id="account-logged-in"><path class="cls-1" d="M51.3,0A51.54,51.54,0,0,0,32.2,3.8,3.83,3.83,0,0,0,30,9.1a3.94,3.94,0,0,0,5.3,2.3A44.89,44.89,0,0,1,51.4,8.5,43.49,43.49,0,0,1,94.8,51.9a43,43,0,0,1-9.2,26.7A47.71,47.71,0,0,0,66,65.2a22.81,22.81,0,0,0,8.3-15.5A23.23,23.23,0,0,0,67.6,31c-6.2-6.5-16.4-8.5-25.3-5A23.27,23.27,0,0,0,28.9,40.7a23.57,23.57,0,0,0,3,19.8,23,23,0,0,0,4.4,4.9A44.78,44.78,0,0,0,17.2,78.3a43.38,43.38,0,0,1-9-26.4A44.36,44.36,0,0,1,25.1,17.3a4.11,4.11,0,0,0,1.7-2.7,3.89,3.89,0,0,0-.7-3,4.11,4.11,0,0,0-2.7-1.7,3.89,3.89,0,0,0-3,.7,51.75,51.75,0,0,0-4.7,78.3V89h0a51.69,51.69,0,0,0,87.8-37.1C103.5,23.3,79.9,0,51.3,0Z"/></g></g></g></svg>