<?xml version="1.0" encoding="utf-8"?>
<!-- Generator: Adobe Illustrator 22.1.0, SVG Export Plug-In . SVG Version: 6.00 Build 0)  -->
<svg version="1.1" id="icons" xmlns="http://www.w3.org/2000/svg" xmlns:xlink="http://www.w3.org/1999/xlink" x="0px" y="0px"
	 viewBox="5 5 38 38" style="enable-background:new 0 0 48 48;" xml:space="preserve">
<style type="text/css">
	.st0{fill:#E00087;}
</style>
<path class="st0" d="M26.7,5.2c-4.3-0.6-8.4,0.3-11.9,2.2c-0.4,0.2-0.5,0.8-0.2,1.2l0,0c0.4,0.5,1.1,0.6,1.6,0.3
	c6.9-3.6,15.7-2,20.9,4.3s5.2,15.4,0,21.7c-2.1-3-5.2-5.1-8.7-6.2c4.1-2.7,4.9-8.6,1.2-12.3c-2.2-2.3-5.7-2.9-8.7-1.7
	c-4.8,2-6.4,7.7-3.6,11.9c0.6,0.9,1.3,1.6,2.2,2.2c-3.5,1-6.6,3.2-8.7,6.2c-5.4-6.5-5.1-15.9,0.4-22.1c0.4-0.4,0.3-1,0-1.4l0,0
	c-0.3-0.4-0.9-0.5-1.3-0.1c-3.4,3.8-5.4,9-4.8,14.6c0.8,8.9,8,16.2,17,17.1c12,1.2,22-8.8,20.9-20.8C42.1,13.5,35.3,6.4,26.7,5.2z
	 M18,22c0-3.3,2.7-6,6-6s6,2.7,6,6s-2.7,6-6,6S18,25.3,18,22z M12.3,36.3c4.3-6.5,12.9-8.2,19.4-4c1.6,1,2.9,2.4,4,4
	C29.1,42.6,18.9,42.6,12.3,36.3z"/>
<path class="st0" d="M11.3,10.3c0-0.1,0.1-0.2,0.2-0.3c0.3-0.4,0.6-0.7,0.9-0.9c0.3-0.2,0.8-0.6,1.1-0.6c0.7,0,1.2,0.9,0.6,1.5
	c-0.2,0.2-0.4,0.3-0.6,0.5c-0.4,0.3-0.9,0.9-1.5,0.8c-0.4,0-0.7-0.5-0.7-0.9C11.3,10.3,11.3,10.3,11.3,10.3z"/>
</svg>
