<?xml version="1.0" encoding="utf-8"?>
<!-- Generator: Adobe Illustrator 22.0.1, SVG Export Plug-In . SVG Version: 6.00 Build 0)  -->
<svg version="1.1" id="Layer_1" xmlns="http://www.w3.org/2000/svg" xmlns:xlink="http://www.w3.org/1999/xlink" x="0px" y="0px"
	 viewBox="0 0 128 128" style="enable-background:new 0 0 128 128;" xml:space="preserve">
<metadata><?xpacket begin="﻿" id="W5M0MpCehiHzreSzNTczkc9d"?>
<x:xmpmeta xmlns:x="adobe:ns:meta/" x:xmptk="Adobe XMP Core 5.6-c143 79.161210, 2017/08/11-10:28:36        ">
   <rdf:RDF xmlns:rdf="http://www.w3.org/1999/02/22-rdf-syntax-ns#">
      <rdf:Description rdf:about=""/>
   </rdf:RDF>
</x:xmpmeta>
                                                                                                    
                                                                                                    
                                                                                                    
                                                                                                    
                                                                                                    
                                                                                                    
                                                                                                    
                                                                                                    
                                                                                                    
                                                                                                    
                                                                                                    
                                                                                                    
                                                                                                    
                                                                                                    
                                                                                                    
                                                                                                    
                                                                                                    
                                                                                                    
                                                                                                    
                                                                                                    
                           
<?xpacket end="w"?></metadata>
<style type="text/css">
	.st0{fill:none;stroke:#E00087;stroke-width:2.5895;stroke-linecap:round;stroke-linejoin:round;stroke-miterlimit:10;}
	
		.st1{fill:none;stroke:#E00087;stroke-width:2.5895;stroke-linecap:round;stroke-linejoin:round;stroke-miterlimit:10;stroke-dasharray:2.5895,4.3159;}
</style>
<g id="icons">
	<path class="st0" d="M66.8,106.5c0,0,28.9-24.8,37.5-32.4c17.3-15.4,9.3-47.5-16.1-47.4c-6.5-0.4-13.9,4-21.4,10.8
		c-7.5-6.8-14.8-11.2-21.3-10.8c-25.4,0-33.4,32-16.1,47.4C37.9,81.7,66.8,106.5,66.8,106.5z"/>
	<path class="st1" d="M104.2,58.7c1-4,0.9-8.1-0.7-11.9c-1.5-3.7-5.4-9.9-15.2-9.9h-0.8c-1,0-3.4,0.3-7.3,2.8"/>
	<path class="st0" d="M63.9,92.4l3,2.5"/>
	<path class="st0" d="M55.4,40.9c-5.2-3.6-8.1-4.1-9.3-4.1h-0.8c-9.8,0.1-13.7,6.3-15.2,10c-2.4,6.1-1.8,14.9,5,20.7
		c4.7,4.1,16.1,14,25.2,21.8"/>
</g>
</svg>
