<?xml version="1.0" encoding="utf-8"?>
<!-- Generator: Adobe Illustrator 22.0.1, SVG Export Plug-In . SVG Version: 6.00 Build 0)  -->
<svg version="1.1" id="icon" xmlns="http://www.w3.org/2000/svg" xmlns:xlink="http://www.w3.org/1999/xlink" x="0px" y="0px"
	 viewBox="0 0 512 512" style="enable-background:new 0 0 512 512;" xml:space="preserve">
<style type="text/css">
	.st0{fill:#E00087;}
</style>
<metadata><?xpacket begin="﻿" id="W5M0MpCehiHzreSzNTczkc9d"?>
<x:xmpmeta xmlns:x="adobe:ns:meta/" x:xmptk="Adobe XMP Core 5.6-c143 79.161210, 2017/08/11-10:28:36        ">
   <rdf:RDF xmlns:rdf="http://www.w3.org/1999/02/22-rdf-syntax-ns#">
      <rdf:Description rdf:about=""/>
   </rdf:RDF>
</x:xmpmeta>
                                                                                                    
                                                                                                    
                                                                                                    
                                                                                                    
                                                                                                    
                                                                                                    
                                                                                                    
                                                                                                    
                                                                                                    
                                                                                                    
                                                                                                    
                                                                                                    
                                                                                                    
                                                                                                    
                                                                                                    
                                                                                                    
                                                                                                    
                                                                                                    
                                                                                                    
                                                                                                    
                           
<?xpacket end="w"?></metadata>
<path class="st0" d="M68.7,365.1l184.4,114.7l0.1,0.1c0,0,0.1,0,0.1,0.1l0.3,0.1l0.3,0.1c0.1,0.1,0.3,0.1,0.4,0.1l0.3,0.1
	c0.1,0,0.3,0.1,0.4,0.1l0.3,0.1h0.5h0.2c0.2,0,0.5,0,0.7,0h0.2l0.5-0.1l0.3-0.1l0.4-0.1l0.3-0.1c0.1-0.1,0.3-0.1,0.4-0.2l0.1-0.1
	l184.4-114.7c1.6-1,2.6-2.8,2.6-4.7V151.6c0,0,0-0.1,0-0.1s0-0.3,0-0.4s0-0.3,0-0.5c0-0.1,0-0.1,0-0.2c0-0.1-0.1-0.3-0.1-0.4
	c0-0.1-0.1-0.3-0.1-0.4c0-0.1,0-0.1-0.1-0.2c-0.1-0.1-0.1-0.3-0.2-0.4s-0.1-0.2-0.1-0.3l-0.1-0.1c0,0,0-0.1-0.1-0.1
	s-0.2-0.3-0.3-0.4s-0.2-0.2-0.3-0.3l-0.1-0.1c-0.1-0.1-0.2-0.2-0.4-0.3s-0.2-0.2-0.4-0.3l-0.1-0.1l-0.1-0.1L258.9,32.2
	c-1.8-1.1-4.1-1.1-5.8,0L68.7,146.9l-0.1,0.1l-0.2,0.1c-0.2,0.2-0.4,0.3-0.6,0.5l-0.1,0.1c-0.2,0.2-0.4,0.5-0.6,0.7l-0.1,0.2
	c-0.1,0.2-0.3,0.5-0.4,0.7l-0.1,0.2c-0.1,0.3-0.2,0.6-0.3,0.9c0,0.1,0,0.1,0,0.2c-0.1,0.3-0.1,0.7-0.1,1v208.8
	C66.1,362.3,67.1,364.1,68.7,365.1z M261.5,457.1V271.8c0-1.5,0.8-3,2.1-3.8l57.2-35.6c3-1.8,6.8,0.3,6.8,3.8v45.5
	c0,3,2.5,5.5,5.5,5.5c0,0,0,0,0,0c1,0,2-0.3,2.9-0.8l39.2-24.4c1.6-1,2.6-2.8,2.6-4.7v-57.9c0-1.5,0.8-3,2.1-3.8l48-29.8
	c3-1.8,6.8,0.3,6.8,3.8v185.3c0,1.5-0.8,3-2.1,3.8L268.3,460.9C265.4,462.7,261.5,460.6,261.5,457.1z M190.4,87.2l165.6,102.9
	c2.8,1.7,2.8,5.8,0,7.6l-6,3.7c-2.6,1.7-3.3,5.1-1.6,7.6c1.6,2.5,4.9,3.3,7.5,1.7l4.3-2.7c3-1.9,6.8,0.3,6.8,3.8v39.9
	c0,1.5-0.8,3-2.1,3.8l-19.3,12c-3,1.8-6.8-0.3-6.8-3.8v-45.5c0,0,0-0.1,0-0.1c0-0.1,0-0.3,0-0.4c0-0.2,0-0.3,0-0.5
	c0-0.1,0-0.1,0-0.2c0-0.1-0.1-0.3-0.1-0.4l-0.1-0.4l-0.1-0.2c-0.1-0.1-0.1-0.3-0.2-0.4c0-0.1-0.1-0.2-0.1-0.3l-0.1-0.1l-0.1-0.1
	c-0.1-0.1-0.2-0.3-0.3-0.4c-0.1-0.1-0.2-0.2-0.3-0.3l-0.1-0.1l-0.3-0.3c-0.1-0.1-0.3-0.2-0.4-0.3c0,0-0.1-0.1-0.1-0.1l-0.1-0.1
	L165.5,107.4c-2.8-1.7-2.8-5.8,0-7.6l20.2-12.6C187.1,86.3,188.9,86.3,190.4,87.2z M258.4,44.9l165.5,102.9c2.8,1.7,2.8,5.8,0,7.6
	l-49.1,30.5c-1.4,0.9-3.3,0.9-4.7,0L204.6,83c-2.8-1.7-2.8-5.8,0-7.6l49.1-30.5C255.1,44,256.9,44,258.4,44.9z M151.2,111.6
	l165.5,102.9c2.8,1.7,2.8,5.8,0,7.6l-58.3,36.2c-1.4,0.9-3.3,0.9-4.7,0l-52-32.3c-2.6-1.6-6-0.7-7.6,1.9c-1.5,2.6-0.8,5.8,1.7,7.5
	l52.6,32.7c1.3,0.8,2.1,2.2,2.1,3.8v185.2c0,3.5-3.8,5.6-6.8,3.8L79.3,358.6c-1.3-0.8-2.1-2.2-2.1-3.8V169.6c0-3.5,3.8-5.6,6.8-3.8
	l52.7,32.8c2.6,1.6,6,0.7,7.6-1.9c1.5-2.6,0.8-5.8-1.7-7.5l-54.3-33.8c-2.8-1.7-2.8-5.8,0-7.6l58.3-36.2
	C147.9,110.7,149.7,110.7,151.2,111.6z"/>
<path class="st0" d="M103.5,314c-3,0-5.5,2.5-5.5,5.5v17.7c0,3.1,2.5,5.5,5.5,5.5c3.1,0,5.5-2.5,5.5-5.5v-17.7
	C109,316.4,106.6,314,103.5,314z"/>
<path class="st0" d="M126.4,340.2c-3.1,0-5.5,2.5-5.5,5.5v5.9c-0.1,3.1,2.2,5.6,5.3,5.8c3.1,0.1,5.6-2.2,5.8-5.3c0-0.2,0-0.3,0-0.5
	v-5.9C131.9,342.7,129.4,340.2,126.4,340.2z"/>
<path class="st0" d="M165.2,216.3l1.9,1.2c2.6,1.6,6,0.8,7.6-1.8s0.8-6-1.8-7.6l-2-1.2c-2.6-1.6-6-0.8-7.6,1.8
	C161.8,211.3,162.6,214.7,165.2,216.3L165.2,216.3z"/>
</svg>
