<svg xmlns="http://www.w3.org/2000/svg" width="24" height="24" viewBox="0 0 24 24">
    <g fill="none" fill-rule="evenodd">
        <path d="M0 0H24V24H0z"/>
        <path fill="#58595B" d="M12.5 2L12.5 6.793 16.646 2.646 17.354 3.354 12.5 8.207 12.5 11.5 15.792 11.5 20.646 6.646 21.354 7.354 17.206 11.5 22 11.5 22 12.5 17.206 12.5 21.354 16.646 20.646 17.354 15.792 12.5 12.5 12.5 12.5 15.792 17.354 20.646 16.646 21.354 12.5 17.206 12.5 22 11.5 22 11.5 17.206 7.354 21.354 6.646 20.646 11.5 15.792 11.5 12.5 8.207 12.5 3.354 17.354 2.646 16.646 6.792 12.5 2 12.5 2 11.5 6.792 11.5 2.646 7.354 3.354 6.646 8.207 11.5 11.5 11.5 11.5 8.207 6.646 3.354 7.354 2.646 11.5 6.793 11.5 2z"/>
    </g>
</svg>
