<svg xmlns="http://www.w3.org/2000/svg" xmlns:xlink="http://www.w3.org/1999/xlink" width="24" height="24" viewBox="0 0 24 24">
    <defs>
        <path id="prefix__a" d="M0 0.082L23.917 0.082 23.917 23.864 0 23.864z"/>
    </defs>
    <g fill="none" fill-rule="evenodd" transform="translate(0 .054)">
        <path fill="#0B318F" d="M1.417 6.357c-.46.852-.818 1.766-1.06 2.726h4.757L1.417 6.357zM9.053.437C6.914.968 5.003 2.07 3.495 3.573L9.053 7.67V.437zM14.865 23.509c2.138-.531 4.049-1.633 5.557-3.135l-5.557-4.1v7.235zM22.5 17.59c.46-.853.819-1.767 1.06-2.727h-4.757l3.698 2.727zM23.56 9.084c-.241-.961-.6-1.875-1.06-2.727l-3.697 2.727h4.757zM5.114 14.863H.357c.242.96.6 1.874 1.06 2.726l3.697-2.726zM3.495 20.374c1.509 1.502 3.42 2.604 5.558 3.135v-7.234l-5.558 4.099zM20.422 3.573C18.913 2.07 17.003.968 14.865.438V7.67l5.557-4.098z"/>
        <path fill="#E60012" d="M8.041 9.084L2.354 4.889c-.231.31-.447.63-.648.961L6.09 9.084h1.951zM15.877 14.863l5.687 4.194c.23-.31.447-.63.647-.961l-4.383-3.233h-1.951zM9.053 14.863H8.04l-5.687 4.194c.231.31.478.609.738.894l5.96-4.396v-.692zM14.865 9.084h1.012l5.687-4.195c-.232-.31-.478-.609-.739-.895l-5.96 4.397v.693z"/>
        <path fill="#FFF" d="M23.79 13.707H13.702v10.03c.394-.057.781-.134 1.162-.228v-7.234l5.557 4.099c.412-.41.793-.85 1.142-1.317l-5.687-4.195h1.951l4.383 3.234c.1-.167.197-.335.29-.506l-3.698-2.728h4.757c.095-.378.172-.763.23-1.155M23.56 9.084h-4.757L22.5 6.357c-.276-.513-.59-1.003-.936-1.468l-5.687 4.195h-1.012V8.39l5.96-4.397c-.13-.143-.265-.284-.403-.422l-5.557 4.1V.436c-.38-.094-.768-.17-1.162-.228v10.03H23.789c-.057-.391-.134-.777-.229-1.155M.128 13.707c.057.392.134.777.23 1.155h4.756L1.417 17.59c.277.512.59 1.003.937 1.467l5.687-4.195h1.012v.693l-5.961 4.397c.13.143.265.284.403.422l5.558-4.099v7.234c.38.094.768.17 1.162.228v-10.03H.128zM9.053.437v7.234L3.495 3.573c-.412.41-.793.85-1.141 1.316l5.687 4.195H6.09L1.706 5.85c-.1.167-.197.335-.29.507l3.698 2.727H.357c-.095.378-.171.764-.229 1.155h10.087V.21c-.394.057-.781.134-1.162.228"/>
        <mask id="prefix__b" fill="#fff">
            <use xlink:href="#prefix__a"/>
        </mask>
        <path fill="#E60012" d="M23.79 10.24H13.702V.21c-.57-.084-1.152-.128-1.744-.128-.593 0-1.174.044-1.744.127v10.03H.128C.045 10.805 0 11.384 0 11.973c0 .59.045 1.168.128 1.734h10.087v10.03c.57.083 1.151.127 1.744.127.592 0 1.174-.044 1.744-.127v-10.03H23.789c.084-.566.128-1.145.128-1.734 0-.59-.044-1.168-.128-1.734" mask="url(#prefix__b)"/>
    </g>
</svg>
