<svg xmlns="http://www.w3.org/2000/svg" xmlns:xlink="http://www.w3.org/1999/xlink" width="24" height="24" viewBox="0 0 24 24">
    <defs>
        <path id="wuc4tdhzwa" d="M0 0.009L23.918 0.009 23.918 7.937 0 7.937z"/>
        <path id="2lc2hd40yc" d="M0.002 0.082L22.553 0.082 22.553 8.012 0.002 8.012z"/>
        <path id="32rezfg75e" d="M0.002 0.072L22.553 0.072 22.553 8 0.002 8z"/>
    </defs>
    <g fill="none" fill-rule="evenodd">
        <g transform="translate(0 .054) translate(0 8)">
            <mask id="q681sr7pzb" fill="#fff">
                <use xlink:href="#wuc4tdhzwa"/>
            </mask>
            <path fill="#E60012" d="M23.918 3.973c0-1.39-.243-2.724-.684-3.964H.684C.241 1.25 0 2.583 0 3.973c0 1.39.242 2.724.683 3.964h22.551c.441-1.24.684-2.574.684-3.964" mask="url(#q681sr7pzb)"/>
        </g>
        <g transform="translate(0 .054) translate(.682)">
            <mask id="dmyuth94zd" fill="#fff">
                <use xlink:href="#2lc2hd40yc"/>
            </mask>
            <path fill="#231815" d="M11.277.082C6.071.082 1.644 3.392.002 8.009h22.55C20.912 3.391 16.485.082 11.278.082" mask="url(#dmyuth94zd)"/>
        </g>
        <g transform="translate(0 .054) translate(.682 15.864)">
            <mask id="kpm72h875f" fill="#fff">
                <use xlink:href="#32rezfg75e"/>
            </mask>
            <path fill="#FFE200" d="M22.553.072H.002C1.644 4.69 6.07 8 11.277 8c5.207 0 9.634-3.31 11.276-7.928" mask="url(#kpm72h875f)"/>
        </g>
    </g>
</svg>
