<svg xmlns="http://www.w3.org/2000/svg" width="45" height="45" viewBox="0 0 45 45">
    <g fill="none" fill-rule="evenodd">
        <path fill="#511E62" d="M22.395 0C10.027 0 0 9.918 0 22.152c0 12.234 10.027 22.152 22.395 22.152 12.37 0 22.396-9.918 22.396-22.152C44.79 9.918 34.764 0 22.395 0"/>
        <g fill-rule="nonzero">
            <path fill="#FDB913" d="M13.456 24.595c1.47-.24 2.336-.542 2.336-.542a24.73 24.73 0 0 0-2.315-.407c.323-.553.594-.99.938-1.491 0 0-1.011.427-1.762.99 0 0-.334-.646-.699-1.21 0 0-.177.564-.354 1.513-1.012-.073-1.658-.073-1.658-.073.51.51 1.063.97 1.063.97a11.324 11.324 0 0 0-1.501 1.407c.615-.24 1.21-.354 1.825-.532a18.834 18.834 0 0 0-.094 2.242s.427-.876 1.136-2.096c.95.699 1.93 1.325 1.93 1.325a15.812 15.812 0 0 0-.845-2.096M12.663 15.721c2.002-.01 3.222-.24 3.222-.24a37.704 37.704 0 0 0-2.96-1.084 32.146 32.146 0 0 1 1.605-1.856s-1.44.375-2.576.98c0 0-.281-.97-.625-1.825 0 0-.376.74-.845 2.013-1.324-.334-2.169-.47-2.169-.47a24.727 24.727 0 0 0 1.179 1.575c-1.377.782-2.315 1.616-2.315 1.616.876-.198 1.678-.219 2.544-.333-.26.938-.49 1.939-.678 3.086 0 0 .782-1.116 2.013-2.648a55.782 55.782 0 0 0 2.22 2.262 24.927 24.927 0 0 0-.615-3.076M20.89 11.832c1.085-.042 1.742-.177 1.742-.177a17.318 17.318 0 0 0-1.616-.543c.292-.385.531-.688.844-1.032 0 0-.782.23-1.376.574 0 0-.167-.522-.365-.98 0 0-.188.406-.428 1.105a18.346 18.346 0 0 0-1.178-.22c.302.428.667.835.667.835-.73.448-1.23.918-1.23.918.47-.126.907-.146 1.376-.22-.125.511-.24 1.054-.312 1.68 0 0 .406-.626 1.053-1.47.605.625 1.24 1.188 1.24 1.188-.135-.636-.281-1.2-.417-1.658"/>
            <path fill="#FFF" d="M28.044 19.454a8.576 8.576 0 0 1-.24 1.053c-.115.407-.22.626-.22.626-.208.427-.49.855-.792 1.178-.219.24-.375.407-.72.699-.103.083-.197.156-.291.24-.5.396-1.001.698-1.46.938-.26.136-.51.26-.74.365-.324.156-.595.282-.772.386-.24.125-.427.344-.459.615-.031.302.146.574.355.772.146.156.636.438.792.771.094.188.094.417-.125.636l-.094.084c-.354.27-.594.469-.76.584-.22.146-.282.25-.314.396-.02.344.22.521.46.72.312.27.938.719 1.75 1.042.491.198 1.064.344 1.68.365h.365c.458-.01.041.25.041.25-2.575 1.325-4.754-.594-5.36-1.147-.104-.094-.177-.146-.177-.146-.448-.302-1.021.01-1.032.01l-.042.022a15.397 15.397 0 0 1-6.308 1.334 15.99 15.99 0 0 1-3.702-.448c-.073-.02-.146-.02-.23-.02a1.05 1.05 0 0 0-.833 1.688l.031.042a16.48 16.48 0 0 0 12.899 6.173c9.102 0 16.475-7.32 16.475-16.35 0-7.966-5.735-14.598-13.337-16.058h-.031c-.063-.01.073.01 0 0-.845-.125-1.272.459-1.272 1.053 0 .303.125.584.333.772l.021.02c2.617 2.451 4.223 5.83 4.223 9.552 0 .594-.041 1.178-.125 1.752l.01.031zm1.345 5.662c-.855-.5-.939-1.387-.939-1.387s-.104-1.22.25-.417a2.539 2.539 0 0 0 1.054 1.158h.01s.657.427 1.522.354c.866-.073-.24.428-.24.428s-.813.365-1.657-.136z"/>
        </g>
    </g>
</svg>
