<svg xmlns="http://www.w3.org/2000/svg" xmlns:xlink="http://www.w3.org/1999/xlink" width="184" height="48" viewBox="0 0 324 83">
    <defs>
        <path id="prefix__a" d="M0.434 0.041L6.717 0.041 6.717 6.326 0.434 6.326z"/>
        <path id="prefix__c" d="M0.58 0.56L23.835 0.56 23.835 27.16 0.58 27.16z"/>
        <path id="prefix__e" d="M0.244 0.56L23.499 0.56 23.499 27.16 0.244 27.16z"/>
        <path id="prefix__g" d="M0.046 0.56L21.241 0.56 21.241 26.817 0.046 26.817z"/>
    </defs>
    <g fill="none" fill-rule="evenodd">
        <g fill-rule="nonzero">
            <path fill="#511E62" d="M41.11 82.102c22.659 0 41.011-18.372 41.011-41.012C82.121 18.43 63.75.078 41.11.078 18.47.078.098 18.431.098 41.09c0 22.66 18.352 41.012 41.012 41.012" transform="translate(241)"/>
            <path fill="#FDB913" d="M24.745 44.439c2.76-.45 4.385-1.018 4.385-1.018-1.566-.353-2.976-.588-4.346-.764.607-1.037 1.116-1.86 1.762-2.8 0 0-1.9.803-3.309 1.86 0 0-.626-1.213-1.311-2.27 0 0-.333 1.057-.666 2.838-1.899-.137-3.113-.137-3.113-.137.96.96 1.997 1.82 1.997 1.82-1.703 1.332-2.819 2.643-2.819 2.643 1.155-.45 2.271-.665 3.426-.998-.137 1.292-.196 2.662-.176 4.209 0 0 .802-1.644 2.134-3.935 1.781 1.312 3.621 2.486 3.621 2.486-.49-1.546-1.076-2.877-1.585-3.934M23.257 27.779c3.758-.02 6.049-.45 6.049-.45-1.977-.823-3.798-1.469-5.56-2.036 1.057-1.292 1.938-2.35 3.015-3.485 0 0-2.702.705-4.835 1.84 0 0-.529-1.82-1.175-3.426 0 0-.705 1.39-1.586 3.779-2.486-.627-4.072-.881-4.072-.881 1.038 1.527 2.213 2.956 2.213 2.956-2.585 1.468-4.346 3.034-4.346 3.034 1.644-.372 3.151-.41 4.776-.626-.49 1.762-.92 3.64-1.272 5.794 0 0 1.468-2.094 3.778-4.972 2.036 2.212 4.17 4.248 4.17 4.248-.294-2.232-.744-4.209-1.155-5.775M38.703 20.477c2.036-.078 3.269-.333 3.269-.333-1.096-.43-2.075-.744-3.034-1.018.548-.724.998-1.292 1.585-1.938 0 0-1.468.43-2.584 1.077 0 0-.313-.979-.685-1.84 0 0-.352.763-.803 2.075-1.37-.294-2.212-.411-2.212-.411.568.802 1.253 1.566 1.253 1.566-1.37.842-2.31 1.722-2.31 1.722.881-.234 1.703-.274 2.584-.41-.235.959-.45 1.977-.587 3.151 0 0 .763-1.174 1.977-2.76 1.136 1.174 2.33 2.232 2.33 2.232-.255-1.195-.529-2.252-.783-3.113" transform="translate(241)"/>
            <path fill="#FFF" d="M52.132 34.787c-.137.803-.294 1.469-.45 1.978-.216.763-.411 1.174-.411 1.174-.392.803-.92 1.605-1.488 2.212-.411.45-.705.764-1.35 1.312-.197.157-.373.294-.549.45-.94.744-1.88 1.312-2.74 1.762-.49.255-.96.49-1.39.685-.608.294-1.117.529-1.45.725-.45.234-.802.646-.86 1.155-.06.567.273 1.076.665 1.448.274.294 1.194.822 1.488 1.449.176.352.176.783-.235 1.194l-.176.157c-.666.509-1.116.88-1.43 1.096-.41.274-.528.47-.587.744-.039.646.411.979.862 1.35.587.51 1.761 1.351 3.288 1.958.92.372 1.997.646 3.152.685h.685c.862-.02.079.47.079.47-4.836 2.486-8.927-1.116-10.063-2.153-.195-.176-.332-.274-.332-.274-.842-.568-1.919.02-1.938.02l-.079.038c-3.582 1.606-7.595 2.506-11.843 2.506-2.37 0-4.758-.313-6.95-.842-.137-.039-.274-.039-.43-.039-1.097 0-1.978.881-1.978 1.978 0 .45.157.86.411 1.194l.059.078c5.657 7.067 14.408 11.59 24.216 11.59 17.09 0 30.93-13.743 30.93-30.697 0-14.956-10.766-27.407-25.038-30.147h-.058c-.118-.02.137.02 0 0-1.586-.235-2.389.861-2.389 1.977 0 .568.235 1.096.627 1.449l.039.039c4.914 4.6 7.928 10.943 7.928 17.932 0 1.116-.078 2.212-.235 3.289l.02.058zm2.525 10.63c-1.605-.94-1.761-2.603-1.761-2.603s-.196-2.29.47-.783c.665 1.507 1.977 2.173 1.977 2.173h.02s1.232.802 2.857.665c1.625-.137-.45.803-.45.803s-1.527.685-3.113-.255z" transform="translate(241)"/>
        </g>
        <g>
            <path fill="#511E62" d="M171.416 1.082c-.55-.093-1.447-.148-2.249-.148-.8 0-1.698.055-2.25.148-.574.099-.694.352-.694.746v32.91c0 .394.12.646.694.744.552.095 1.45.15 2.25.15.802 0 1.7-.055 2.25-.15.576-.098.697-.35.697-.745V1.828c0-.394-.121-.647-.698-.746M8.961 20.73c-.952 0-1.644-.001-3.071-.37V5.724C7.032 5.53 8.098 5.47 8.96 5.47c4.513 0 7.152 3 7.152 7.44 0 4.596-2.405 7.82-7.152 7.82M8.644.933c-4.112 0-6.831.458-7.93.66C.14 1.7 0 1.98 0 2.374v32.363c0 .395.119.647.695.745.55.095 1.448.15 2.25.15.8 0 1.699-.055 2.248-.15.577-.098.697-.35.697-.745v-9.624c.796.099 1.691.156 2.778.156 7.199 0 13.388-3.478 13.388-12.567C22.056 4.915 16.22.934 8.644.934M110.762 9.97c-.55-.095-1.288-.15-2.089-.15-.801 0-1.538.055-2.088.15-.576.098-.696.351-.696.745v24.021c0 .395.12.648.696.746.55.095 1.287.15 2.088.15.801 0 1.54-.055 2.09-.15.575-.098.694-.35.694-.746V10.715c0-.394-.119-.647-.695-.745" transform="translate(0 22)"/>
            <g transform="translate(0 22) translate(105.097 .55)">
                <mask id="prefix__b" fill="#fff">
                    <use xlink:href="#prefix__a"/>
                </mask>
                <path fill="#511E62" d="M3.575.041C1.841.041.435 1.448.435 3.183c0 1.736 1.406 3.143 3.14 3.143 1.736 0 3.142-1.407 3.142-3.143 0-1.735-1.406-3.142-3.142-3.142" mask="url(#prefix__b)"/>
            </g>
            <g transform="translate(0 22) translate(114.544 8.815)">
                <mask id="prefix__d" fill="#fff">
                    <use xlink:href="#prefix__c"/>
                </mask>
                <path fill="#511E62" d="M6.208 11.718c.32-4.255 2.255-7.042 6.068-7.042 4.085 0 5.908 3.054 6.098 7.042H6.208zM12.322.56C4.558.56.58 6.546.58 13.884.58 21.8 5.058 27.16 12.913 27.16c4.038 0 7.278-1.587 9.556-4.062.418-.452.273-1.05-.076-1.437-.477-.604-1.317-1.416-1.894-1.822-.387-.27-.846-.23-1.4.216-1.86 1.5-3.682 2.325-6.095 2.325-4.442 0-6.412-3.194-6.75-6.8h16.028c.99 0 1.553-.484 1.553-1.593C23.835 6.6 20.86.56 12.322.56z" mask="url(#prefix__d)"/>
            </g>
            <g transform="translate(0 22) translate(39.559 8.815)">
                <mask id="prefix__f" fill="#fff">
                    <use xlink:href="#prefix__e"/>
                </mask>
                <path fill="#4D1A5C" d="M5.872 11.718c.319-4.255 2.254-7.042 6.067-7.042 4.086 0 5.909 3.054 6.098 7.042H5.872zM11.986.56C4.22.56.244 6.546.244 13.884.244 21.8 4.72 27.16 12.577 27.16c4.038 0 7.278-1.587 9.556-4.062.418-.452.272-1.05-.076-1.437-.477-.604-1.317-1.416-1.895-1.822-.386-.27-.846-.23-1.4.216-1.859 1.5-3.681 2.325-6.095 2.325-4.441 0-6.41-3.194-6.75-6.8h16.029c.99 0 1.553-.484 1.553-1.593C23.499 6.6 20.523.56 11.986.56z" mask="url(#prefix__f)"/>
            </g>
            <path fill="#511E62" d="M39.512 10.602c-.1-1.1-1.077-1.227-1.784-1.227-2.873 0-5.8 2.37-7.144 5.149-.087-2.077-.717-4.704-2.89-4.704-.801 0-1.444.047-2.041.15-.422.073-.819.214-.718 1.061.211 1.778.248 3.037.248 5.035v18.671c0 .395.12.647.695.746.551.094 1.24.15 2.041.15.801 0 1.595-.056 2.145-.15.576-.1.697-.351.697-.746v-11.78c0-3.527 1.044-5.584 2.425-6.787 1.988-1.73 4.223-1.588 5.378-1.588.43 0 .721-.083.864-.832.194-1.022.169-2.217.084-3.148M154.491 9.375c-2.872 0-5.8 2.37-7.143 5.15-.087-2.079-.717-4.705-2.891-4.705-.8 0-1.444.047-2.04.15-.423.073-.819.215-.719 1.061.212 1.778.249 3.036.249 5.035v18.672c0 .394.12.646.695.744.55.095 1.24.15 2.04.15.802 0 1.596-.055 2.145-.15.577-.098.698-.35.698-.744V22.957c0-3.527 1.043-5.584 2.425-6.787 1.988-1.73 4.223-1.589 5.378-1.589.43 0 .721-.082.864-.83.194-1.023.169-2.218.084-3.148-.1-1.102-1.077-1.228-1.785-1.228M94.086 9.375c-2.933 0-5.901 1.508-7.933 4.309-1.031-2.672-3.277-4.309-6.953-4.309-2.717 0-5.57 1.31-7.553 3.73-.292-1.689-1.049-3.285-2.743-3.285-.801 0-1.444.047-2.04.15-.423.073-.82.215-.719 1.061.212 1.778.249 3.036.249 5.035v18.672c0 .394.118.646.696.744.55.095 1.239.15 2.04.15.801 0 1.595-.055 2.144-.15.577-.098.696-.35.696-.744V21.28c0-4.478 2.108-7.21 5.091-7.21 2.83 0 4.292 2.056 4.292 5.425v15.242c0 .394.119.646.695.744.55.095 1.288.15 2.089.15.802 0 1.539-.055 2.088-.15.576-.098.696-.35.696-.744V21.28c0-4.478 2.106-7.21 5.09-7.21 2.83 0 4.292 2.056 4.292 5.425v15.242c0 .394.12.646.696.744.548.095 1.286.15 2.088.15.8 0 1.539-.055 2.088-.15.577-.098.696-.35.696-.744V18.304c0-5.289-2.302-8.929-7.785-8.929M189.001 9.375c-2.664 0-5.258 1.342-7.335 3.696-.297-1.675-1.054-3.251-2.738-3.251-.8 0-1.444.047-2.04.15-.422.073-.82.215-.718 1.06.211 1.78.248 3.038.248 5.036v18.671c0 .395.119.647.696.745.55.095 1.24.15 2.04.15.802 0 1.595-.055 2.145-.15.576-.098.696-.35.696-.745V21.09c0-4.488 2.5-7.018 5.314-7.018 2.83 0 4.569 2.056 4.569 5.424v15.241c0 .395.12.648.696.746.548.094 1.286.15 2.089.15.8 0 1.538-.056 2.088-.15.577-.098.695-.35.695-.746V18.303c0-5.288-2.963-8.928-8.445-8.928" transform="translate(0 22)"/>
            <g transform="translate(0 22) translate(201.337 8.815)">
                <mask id="prefix__h" fill="#fff">
                    <use xlink:href="#prefix__g"/>
                </mask>
                <path fill="#511E62" d="M12.893.56c-2.664 0-5.257 1.342-7.335 3.696C5.26 2.58 4.504 1.005 2.819 1.005c-.8 0-1.443.046-2.039.15-.423.073-.82.214-.718 1.06C.273 3.994.31 5.252.31 7.251v18.67c0 .396.119.647.696.746.55.095 1.238.15 2.04.15.8 0 1.594-.055 2.145-.15.576-.099.695-.35.695-.745V12.274c0-4.488 2.5-7.017 5.315-7.017 2.83 0 4.569 2.055 4.569 5.424v15.24c0 .396.12.649.695.747.55.094 1.239.149 2.041.149.802 0 1.49-.055 2.04-.15.577-.097.695-.35.695-.745V9.488C21.241 4.2 18.375.56 12.893.56" mask="url(#prefix__h)"/>
            </g>
        </g>
    </g>
</svg>
