<svg xmlns="http://www.w3.org/2000/svg" width="24" height="24" viewBox="0 0 24 24">
    <g fill="none" fill-rule="evenodd">
        <path d="M0 0H24V24H0z"/>
        <path fill="#58595B" d="M6 2v6.78c0 .078.019.154.052.222L8 9V2h1v7l1.948.002c.02-.042.035-.086.044-.132L11 8.78V2h1v6.78c0 .599-.356 1.136-.898 1.373l-.128.05L9 10.86V22H8V10.86l-1.974-.658c-.57-.19-.966-.697-1.02-1.286L5 8.78V2h1zm9-.066c.158 0 .313.038.453.109l.102.06 1.332.887c.646.43 1.052 1.135 1.107 1.902L18 5.07V13h-3v9h-1V2.934c0-.552.448-1 1-1zm0 1V11h2V5.07c0-.451-.203-.876-.548-1.159l-.12-.089L15 2.934z"/>
    </g>
</svg>
