<?xml version="1.0" encoding="UTF-8"?>
<svg width="52px" height="12px" viewBox="0 0 52 12" version="1.1" xmlns="http://www.w3.org/2000/svg" xmlns:xlink="http://www.w3.org/1999/xlink">
    <!-- Generator: Sketch 58 (84663) - https://sketch.com -->
    <title>Shape</title>
    <desc>Created with Sketch.</desc>
    <g id="Page-1" stroke="none" stroke-width="1" fill="none" fill-rule="evenodd">
        <g id="Reebok-landing-page-brand-cross-over-v5" transform="translate(-1001.000000, -9.000000)" fill="#000000" fill-rule="nonzero">
            <path d="M1023.83181,9.00866426 L1021.63877,9.00866426 L1021.63877,11.1920578 L1023.83181,11.1920578 L1023.83181,9.00866426 Z M1031.88448,9 L1031.88448,12.699639 C1031.14769,12.1797834 1030.24621,11.8938628 1029.28405,11.8938628 C1026.7703,11.8938628 1024.73329,13.9299639 1024.73329,16.4425993 C1024.73329,18.9725632 1026.7703,20.9913357 1029.28405,20.9913357 C1030.24621,20.9913357 1031.14769,20.6967509 1031.88448,20.1855596 L1031.88448,20.8093863 L1034.06884,20.8093863 L1034.06884,9 L1031.88448,9 L1031.88448,9 Z M1018.38823,9 L1018.38823,12.699639 C1017.65144,12.1797834 1016.74996,11.8938628 1015.7878,11.8938628 C1013.27405,11.8938628 1011.23704,13.9299639 1011.23704,16.4425993 C1011.23704,18.9725632 1013.27405,20.9913357 1015.7878,20.9913357 C1016.74996,20.9913357 1017.65144,20.6967509 1018.38823,20.1855596 L1018.38823,20.8093863 L1020.5726,20.8093863 L1020.5726,9 L1018.38823,9 L1018.38823,9 Z M1045.11202,17.9415162 C1045.18136,19.7176895 1046.69828,20.9740072 1049.22937,20.9740072 C1051.30105,20.9740072 1053,20.0815884 1053,18.0974729 C1053,16.7198556 1052.22854,15.9140794 1050.43424,15.567509 L1049.03867,15.2902527 C1048.14586,15.1169675 1047.52175,14.9436823 1047.52175,14.4151625 C1047.52175,13.8259928 1048.12852,13.5747292 1048.88265,13.5747292 C1049.9835,13.5747292 1050.43424,14.1292419 1050.46891,14.7790614 L1052.67061,14.7790614 C1052.54926,13.0548736 1051.17103,11.9025271 1048.95199,11.9025271 C1046.66361,11.9025271 1045.30272,13.1588448 1045.30272,14.7963899 C1045.30272,16.7978339 1046.92365,17.1184116 1048.31922,17.3783394 L1049.47208,17.5862816 C1050.29555,17.7422383 1050.65961,17.9848375 1050.65961,18.4613718 C1050.65961,18.8945848 1050.24354,19.3191336 1049.26404,19.3191336 C1047.83381,19.3191336 1047.36573,18.5826715 1047.34839,17.9415162 L1045.11202,17.9415162 L1045.11202,17.9415162 Z M1042.12152,20.800722 L1044.30588,20.800722 L1044.30588,11.9978339 L1042.12152,11.9978339 L1042.12152,12.7083032 C1041.38473,12.1884477 1040.48325,11.9025271 1039.52109,11.9025271 C1037.00733,11.9025271 1034.97033,13.9386282 1034.97033,16.4512635 C1034.97033,18.9812274 1037.00733,21 1039.52109,21 C1040.48325,21 1041.38473,20.7054152 1042.12152,20.1942238 L1042.12152,20.800722 L1042.12152,20.800722 Z M1008.15119,20.800722 L1010.33556,20.800722 L1010.33556,11.9978339 L1008.15119,11.9978339 L1008.15119,12.7083032 C1007.4144,12.1884477 1006.51292,11.9025271 1005.55076,11.9025271 C1003.03701,11.9025271 1001,13.9386282 1001,16.4512635 C1001,18.9812274 1003.03701,21 1005.55076,21 C1006.51292,21 1007.4144,20.7054152 1008.15119,20.1942238 L1008.15119,20.800722 L1008.15119,20.800722 Z M1023.83181,20.800722 L1023.83181,11.9978339 L1021.64744,11.9978339 L1021.64744,20.800722 L1023.83181,20.800722 L1023.83181,20.800722 Z M1003.14102,16.4425993 C1003.14102,15.0476534 1004.25921,13.9299639 1005.65478,13.9299639 C1007.05034,13.9299639 1008.16853,15.0476534 1008.16853,16.4425993 C1008.16853,17.8375451 1007.05034,18.9552347 1005.65478,18.9552347 C1004.25921,18.9552347 1003.14102,17.8375451 1003.14102,16.4425993 L1003.14102,16.4425993 Z M1013.36939,16.4425993 C1013.36939,15.0476534 1014.48758,13.9299639 1015.88315,13.9299639 C1017.27871,13.9299639 1018.3969,15.0476534 1018.3969,16.4425993 C1018.3969,17.8375451 1017.27871,18.9552347 1015.88315,18.9552347 C1014.49625,18.9552347 1013.36939,17.8375451 1013.36939,16.4425993 L1013.36939,16.4425993 Z M1037.10268,16.4425993 C1037.10268,15.0476534 1038.22087,13.9299639 1039.61644,13.9299639 C1041.012,13.9299639 1042.13019,15.0476534 1042.13019,16.4425993 C1042.13019,17.8375451 1041.012,18.9552347 1039.61644,18.9552347 C1038.22087,18.9552347 1037.10268,17.8375451 1037.10268,16.4425993 L1037.10268,16.4425993 Z M1026.86564,16.4425993 C1026.86564,15.0476534 1027.98383,13.9299639 1029.3794,13.9299639 C1030.77496,13.9299639 1031.89315,15.0476534 1031.89315,16.4425993 C1031.89315,17.8375451 1030.77496,18.9552347 1029.3794,18.9552347 C1027.98383,18.9552347 1026.86564,17.8375451 1026.86564,16.4425993 L1026.86564,16.4425993 Z" id="Shape"></path>
        </g>
    </g>
</svg>