<svg width="64" height="64" viewBox="0 0 64 64" fill="none" xmlns="http://www.w3.org/2000/svg">
<g clip-path="url(#clip0)">
<path d="M20.5597 8.08786C21.1413 7.42239 21.753 6.70116 22.2939 6.00691C22.5998 5.61841 22.8756 5.20654 23.1408 4.81085C23.611 4.1112 24.2015 3.24249 24.5462 3.24249C24.6043 3.24485 24.6606 3.26353 24.7089 3.29645C24.7831 3.34005 24.8446 3.40307 24.8869 3.47897C24.9291 3.55487 24.9507 3.64088 24.9493 3.72811C24.9723 4.04825 24.8379 4.51409 24.5232 5.03208L24.5462 5.01589L26.0754 4.29646L26.0878 4.28567C26.13 4.07329 26.1449 3.85625 26.132 3.63998C26.1188 3.35812 26.0365 3.0841 25.8926 2.84285C25.7487 2.6016 25.5478 2.40079 25.3082 2.25867C25.0787 2.11561 24.8154 2.03854 24.5462 2.03564C23.5721 2.03564 22.9198 3.00688 22.1631 4.13099C21.9121 4.50329 21.6504 4.89539 21.3658 5.2569C20.7842 6.00151 20.1283 6.7695 19.5201 7.45836L20.2167 8.15621L20.5597 8.08786Z" fill="#B12B37"/>
<path d="M52.7609 34.8217L52.197 31.5845C51.7143 28.8239 49.3029 26.9212 46.7165 27.1748L45.2333 18.679C44.0576 11.9367 39.1871 6.67266 33.0525 5.1458C32.3047 1.75036 29.1632 -0.495876 25.8961 0.0940087C22.6291 0.683893 20.444 3.89769 20.8913 7.34887C15.6477 10.9295 12.8545 17.5783 14.0301 24.317L15.5116 32.8182C12.9941 33.4872 11.3747 36.1201 11.8574 38.8771L12.4213 42.1143C12.6936 43.6753 14.1061 44.7238 15.5788 44.4523L25.8537 42.5963C26.5927 46.8352 30.4308 49.6857 34.4244 48.9645C38.4181 48.2433 41.0575 44.2239 40.3185 39.9868L50.5935 38.1326C52.0644 37.8628 53.0402 36.3845 52.7609 34.8217Z" fill="#E64143"/>
<path style="mix-blend-mode:multiply" opacity="0.15" d="M39.4505 8.45055C37.595 6.86991 35.4091 5.74118 33.0596 5.15043C32.3118 1.755 29.1703 -0.491237 25.9032 0.0986474C22.6362 0.688532 20.444 3.89693 20.8913 7.34812C15.6477 10.9288 12.8545 17.5776 14.0301 24.3163L15.5116 32.8175C12.9941 33.4865 11.3747 36.1194 11.8574 38.8764L12.4213 42.1136C12.6936 43.6746 14.1061 44.7231 15.5788 44.4515L39.4505 8.45055Z" fill="url(#paint0_linear)"/>
<path fill-rule="evenodd" clip-rule="evenodd" d="M6.85729 47.4139C5.92071 46.8153 5.11811 46.0234 4.50142 45.0894C3.88473 44.1554 3.4677 43.1 3.27732 41.9916C2.90783 39.8155 3.47533 37.5729 4.87903 35.6737C4.99818 35.5168 5.08333 35.336 5.12887 35.1432C5.1744 34.9504 5.17929 34.75 5.14322 34.5552C5.10715 34.3603 5.03093 34.1754 4.91958 34.0127C4.80823 33.8499 4.66426 33.713 4.49716 33.6109C4.14502 33.3927 3.72628 33.314 3.32072 33.3896C2.91515 33.4652 2.5511 33.6899 2.29791 34.021C0.415116 36.5658 -0.353913 39.5961 0.151702 42.5455C0.66262 45.5525 2.38631 48.1584 4.99924 49.8741C5.34984 50.0954 5.76799 50.1782 6.17456 50.1069C6.58114 50.0357 6.94794 49.8153 7.20556 49.4875C7.32777 49.3324 7.41626 49.1527 7.46522 48.9602C7.51417 48.7678 7.52246 48.567 7.48956 48.371C7.45665 48.1751 7.38328 47.9885 7.2743 47.8235C7.16531 47.6585 7.02319 47.5189 6.85729 47.4139V47.4139Z" fill="#C0E6EB"/>
<path fill-rule="evenodd" clip-rule="evenodd" d="M60.7302 31.9295C60.5394 30.8219 60.1222 29.7675 59.5055 28.8344C58.8888 27.9013 58.0864 27.1103 57.1502 26.5126C56.9842 26.408 56.8418 26.2688 56.7325 26.1042C56.6232 25.9396 56.5494 25.7532 56.516 25.5575C56.4826 25.3618 56.4903 25.161 56.5387 24.9686C56.5871 24.7761 56.675 24.5962 56.7966 24.4408C57.0538 24.1124 57.4205 23.8914 57.8272 23.8198C58.2339 23.7482 58.6523 23.8309 59.003 24.0524C61.6159 25.7699 63.3396 28.3686 63.8505 31.3827C64.3508 34.334 63.5871 37.3625 61.7043 39.9073C61.4504 40.2374 61.0864 40.4614 60.6812 40.5369C60.2759 40.6125 59.8575 40.5344 59.505 40.3173C59.3375 40.215 59.1932 40.0776 59.0816 39.9144C58.9701 39.7511 58.8939 39.5656 58.8579 39.3702C58.822 39.1747 58.8272 38.9738 58.8733 38.7805C58.9193 38.5873 59.0051 38.4062 59.125 38.2491C60.5393 36.35 61.0997 34.1074 60.7302 31.9295Z" fill="#C0E6EB"/>
<path fill-rule="evenodd" clip-rule="evenodd" d="M54.3138 34.8555C54.5187 34.591 54.6672 34.286 54.7497 33.9599C54.8322 33.6338 54.8469 33.2938 54.7929 32.9616C54.7376 32.6311 54.6146 32.3162 54.4319 32.0374C54.2491 31.7585 54.0107 31.5218 53.7322 31.3428C53.5716 31.2394 53.434 31.1031 53.3281 30.9425C53.2222 30.782 53.1503 30.6008 53.1171 30.4104C53.0838 30.2201 53.0899 30.0248 53.1349 29.8369C53.1799 29.6491 53.2629 29.4729 53.3786 29.3194C53.6095 29.0145 53.9442 28.8085 54.3168 28.742C54.6894 28.6754 55.073 28.7531 55.3922 28.9597C55.9954 29.3451 56.5121 29.8552 56.9088 30.457C57.3055 31.0587 57.5733 31.7387 57.6949 32.4526C57.8164 33.1666 57.789 33.8986 57.6143 34.601C57.4396 35.3035 57.1216 35.9607 56.681 36.5299C56.4501 36.8348 56.1155 37.0408 55.7428 37.1074C55.3702 37.174 54.9866 37.0963 54.6674 36.8897C54.505 36.7865 54.3658 36.6497 54.2587 36.4883C54.1516 36.3269 54.079 36.1444 54.0457 35.9526C54.0124 35.7608 54.019 35.5641 54.0652 35.3751C54.1114 35.1861 54.1961 35.009 54.3138 34.8555V34.8555Z" fill="#C0E6EB"/>
<path fill-rule="evenodd" clip-rule="evenodd" d="M9.6924 39.0723C9.48747 39.3367 9.33901 39.6417 9.25652 39.9678C9.17402 40.2939 9.1593 40.6339 9.21331 40.9662C9.26889 41.2965 9.39203 41.6112 9.57476 41.8901C9.75748 42.1689 9.99571 42.4056 10.274 42.5849C10.4343 42.6883 10.5717 42.8246 10.6774 42.985C10.7832 43.1454 10.8549 43.3264 10.8882 43.5165C10.9215 43.7066 10.9155 43.9017 10.8706 44.0894C10.8257 44.277 10.743 44.4531 10.6276 44.6065C10.397 44.9117 10.0623 45.118 9.68954 45.1846C9.3168 45.2512 8.93306 45.1732 8.61399 44.9662C8.0112 44.5805 7.49487 44.0702 7.09849 43.4683C6.70212 42.8665 6.43457 42.1866 6.3132 41.4727C6.19184 40.7589 6.21938 40.027 6.39403 39.3247C6.56868 38.6224 6.88653 37.9652 7.32697 37.396C7.55761 37.0907 7.89231 36.8845 8.26505 36.8179C8.63779 36.7513 9.02153 36.8292 9.34059 37.0363C9.50287 37.1398 9.64197 37.2768 9.74891 37.4384C9.85586 37.6001 9.92825 37.7828 9.96141 37.9747C9.99457 38.1666 9.98776 38.3635 9.94142 38.5525C9.89509 38.7416 9.81025 38.9186 9.6924 39.0723Z" fill="#C0E6EB"/>
<path fill-rule="evenodd" clip-rule="evenodd" d="M33.7202 44.9215C31.8286 45.2632 30.0076 43.9143 29.6541 41.9053L36.5064 40.6697C36.8617 42.6769 35.6118 44.5816 33.7202 44.9215Z" fill="white"/>
<path d="M17.443 12.3139C18.7318 12.3139 19.7766 11.3782 19.7766 10.224C19.7766 9.06974 18.7318 8.13403 17.443 8.13403C16.1542 8.13403 15.1094 9.06974 15.1094 10.224C15.1094 11.3782 16.1542 12.3139 17.443 12.3139Z" fill="white"/>
<path d="M21.5479 7.64169C21.3711 7.73341 20.5597 8.08411 20.5597 8.08411L20.2167 8.15245L19.5237 7.46185L18.1465 6.06087C17.774 5.71656 17.2966 5.51277 16.7941 5.48358H13.6278C13.1257 5.51012 12.648 5.71212 12.2754 6.05548L0.741701 17.792C0.594016 17.943 0.511108 18.1473 0.511108 18.3603C0.511108 18.5733 0.594016 18.7777 0.741701 18.9286L9.11794 27.4496C9.26605 27.5997 9.46662 27.684 9.67571 27.684C9.88479 27.684 10.0854 27.5997 10.2335 27.4496L21.7707 15.713C22.1052 15.3338 22.3023 14.8496 22.3293 14.3408V11.1163C22.3019 10.6086 22.1048 10.1257 21.7707 9.74765L21.2262 9.19374C22.1823 8.70953 23.0884 8.12935 23.931 7.46185C25.1014 6.50508 28.0485 3.45315 28.7538 0.287913C28.3575 0.158755 27.9485 0.0743205 27.534 0.0361328C27.534 0.0361328 26.2169 4.8865 21.5479 7.64169ZM19.0605 11.6522C18.8024 11.9172 18.4769 12.1039 18.1203 12.1913C17.7638 12.2787 17.3904 12.2634 17.042 12.1471C16.6935 12.0308 16.3838 11.8181 16.1475 11.5328C15.9112 11.2475 15.7576 10.9009 15.7041 10.5318C15.6505 10.1627 15.6991 9.78576 15.8442 9.44317C15.9894 9.10057 16.2255 8.80587 16.5261 8.59209C16.8266 8.37831 17.1797 8.25389 17.5459 8.23278C17.912 8.21167 18.2767 8.2947 18.5991 8.47257C18.2208 8.88081 17.9043 9.20812 17.678 9.43113C17.5721 9.42826 17.4667 9.44735 17.3682 9.48723C17.2697 9.52711 17.1803 9.58696 17.1052 9.66313C17.021 9.7475 16.9565 9.85 16.9164 9.9631C16.8763 10.0762 16.8617 10.197 16.8736 10.3166C16.8854 10.4362 16.9235 10.5516 16.985 10.6543C17.0466 10.7569 17.1299 10.8442 17.229 10.9098C17.3281 10.9753 17.4403 11.0174 17.5575 11.033C17.6747 11.0485 17.7939 11.0372 17.9061 10.9997C18.0184 10.9622 18.121 10.8996 18.2064 10.8164C18.2917 10.7333 18.3577 10.6317 18.3993 10.5192C18.4842 10.4796 18.5761 10.4383 18.6875 10.3915C18.9509 10.2746 19.2691 10.1343 19.6139 9.97785C19.6541 10.282 19.6251 10.5914 19.5292 10.8823C19.4333 11.1733 19.2729 11.4379 19.0605 11.6558V11.6522Z" fill="#B12B37"/>
<path fill-rule="evenodd" clip-rule="evenodd" d="M14.0056 15.7497C13.5386 15.1724 12.9419 14.7178 12.266 14.4242C11.3927 14.0429 10.9418 14.3144 10.7845 14.7011C10.5936 15.14 10.9401 15.6454 11.9195 16.5735C13.279 17.8505 13.5972 18.881 13.0704 20.1274C12.5577 21.3451 11.2777 22.0285 9.62477 21.6077L9.02722 23.0214L7.69601 22.4368L8.24051 21.1293C7.45647 20.7531 6.76034 20.211 6.19861 19.5393L7.27879 18.113C7.80229 18.7954 8.48211 19.337 9.25882 19.6904C10.0438 20.0321 10.7067 19.9476 10.9295 19.4134C11.1522 18.8792 10.857 18.3756 9.99249 17.5933C8.75497 16.4691 8.06196 15.3576 8.62238 14.0285C9.13507 12.809 10.369 12.2299 11.923 12.5896L12.4764 11.2856L13.7952 11.863L13.2878 13.068C13.9605 13.3742 14.5627 13.8202 15.0557 14.3774L14.0056 15.7497Z" fill="white"/>
</g>
<defs>
<linearGradient id="paint0_linear" x1="11.7725" y1="22.2463" x2="39.4505" y2="22.2463" gradientUnits="userSpaceOnUse">
<stop stop-color="white"/>
<stop offset="0.15" stop-color="#FCFBFB"/>
<stop offset="0.29" stop-color="#F1F1F1"/>
<stop offset="0.42" stop-color="#DFDEDE"/>
<stop offset="0.54" stop-color="#C5C5C5"/>
<stop offset="0.67" stop-color="#A4A4A4"/>
<stop offset="0.79" stop-color="#7C7B7B"/>
<stop offset="0.9" stop-color="#4E4C4C"/>
<stop offset="1" stop-color="#211F1F"/>
</linearGradient>
<clipPath id="clip0">
<path d="M0 0H64V64H0V0Z" fill="white"/>
</clipPath>
</defs>
</svg>
