<svg width="24" height="36" viewBox="0 0 24 36" fill="none" xmlns="http://www.w3.org/2000/svg">
<path d="M11.2246 35.1014L12.2047 35.0969C13.3296 29.4032 15.896 25.2421 18.6756 21.1037C19.6083 19.7151 20.5597 18.2958 21.3205 16.7413C21.4024 16.5739 21.4895 16.4036 21.5787 16.2294C21.8816 15.6377 22.207 15.0017 22.4246 14.2893C22.7006 13.3857 22.8974 12.294 22.8686 11.1111C22.8128 8.82258 22.1446 7.0561 21.1753 5.56571C20.2504 4.1436 19.0299 2.93234 17.4539 2.02625L17.2189 2.43488L17.4539 2.02624C15.528 0.919036 12.8217 0.196692 9.9323 0.625006L10.0055 1.11904L9.9323 0.625006C6.39417 1.14949 3.75179 3.14845 2.17556 5.58567C1.21351 7.07319 0.547501 8.89376 0.502107 11.151C0.455225 13.4821 1.19675 15.2764 2.08742 16.7935C2.2399 17.0532 2.39299 17.3261 2.54835 17.6031C2.81081 18.0709 3.07978 18.5504 3.36336 18.9976L3.78562 18.7299L3.36336 18.9976C3.86276 19.7852 4.36949 20.5479 4.87243 21.3048C5.74676 22.6208 6.60964 23.9195 7.40258 25.3017L7.83628 25.0529L7.40258 25.3018C9.07374 28.2148 10.4462 31.3446 11.2246 35.1014Z" fill="white"/>
    <path d="M11.2246 35.1014L12.2047 35.0969C13.3296 29.4032 15.896 25.2421 18.6756 21.1037C19.6083 19.7151 20.5597 18.2958 21.3205 16.7413C21.4024 16.5739 21.4895 16.4036 21.5787 16.2294C21.8816 15.6377 22.207 15.0017 22.4246 14.2893C22.7006 13.3857 22.8974 12.294 22.8686 11.1111C22.8128 8.82258 22.1446 7.0561 21.1753 5.56571C20.2504 4.1436 19.0299 2.93234 17.4539 2.02625L17.2189 2.43488L17.4539 2.02624C15.528 0.919036 12.8217 0.196692 9.9323 0.625006L10.0055 1.11904L9.9323 0.625006C6.39417 1.14949 3.75179 3.14845 2.17556 5.58567C1.21351 7.07319 0.547501 8.89376 0.502107 11.151C0.455225 13.4821 1.19675 15.2764 2.08742 16.7935C2.2399 17.0532 2.39299 17.3261 2.54835 17.6031C2.81081 18.0709 3.07978 18.5504 3.36336 18.9976L3.78562 18.7299L3.36336 18.9976C3.86276 19.7852 4.36949 20.5479 4.87243 21.3048C5.74676 22.6208 6.60964 23.9195 7.40258 25.3017L7.83628 25.0529L7.40258 25.3018C9.07374 28.2148 10.4462 31.3446 11.2246 35.1014Z" fill="#545B6C" stroke="white"/>
<path d="M11.6858 15.5715C13.8318 15.5715 15.5715 13.8318 15.5715 11.6858C15.5715 9.53974 13.8318 7.80005 11.6858 7.80005C9.53974 7.80005 7.80005 9.53974 7.80005 11.6858C7.80005 13.8318 9.53974 15.5715 11.6858 15.5715Z" fill="white"/>
</svg>
