<svg width="64" height="64" viewBox="0 0 64 64" fill="none" xmlns="http://www.w3.org/2000/svg">
<g clip-path="url(#clip0)">
<path fill-rule="evenodd" clip-rule="evenodd" d="M41.5939 62.6302C41.4825 63.1788 38.9828 63.7579 35.8907 63.9396C32.7987 64.1212 30.2494 63.8389 30.0761 63.3065C24.6682 63.2201 20.9857 62.4917 20.9256 61.4287L20.8496 60.087C18.4311 60.1967 16.5041 59.9503 16.4793 59.5151L16.4511 59.0043C16.4369 58.7578 17.5542 58.4917 18.9491 58.4107L52.0952 56.4665C53.4865 56.3837 54.6303 56.5168 54.6444 56.7632L54.6727 57.274C54.6975 57.7093 52.8094 58.1733 50.3962 58.3532L50.4722 59.6949C50.5323 60.7597 46.9577 61.9126 41.5939 62.6302Z" fill="#F4F5F5"/>
</g>
<defs>
<clipPath id="clip0">
<path d="M0 0H64V64H0V0Z" fill="white"/>
</clipPath>
</defs>
</svg>
