<svg width="24" height="27" viewBox="0 0 24 27" fill="none" xmlns="http://www.w3.org/2000/svg">
<g clip-path="url(#clip0)">
<path d="M23.2522 12.3398L23.4658 12.1268C24.1755 11.4193 24.1755 10.2781 23.4658 9.57057C23.3285 9.43363 23.1759 9.32712 23.0156 9.24344L23.4582 8.80219C24.0992 8.09467 24.0763 6.99915 23.3895 6.32206C23.0767 6.01014 22.6722 5.83516 22.2602 5.79712C22.6036 5.12003 22.4891 4.26796 21.9244 3.70499C21.2987 3.08115 20.3372 3.01268 19.6276 3.48436C19.5589 3.14201 19.391 2.82249 19.1316 2.56383C18.4296 1.86391 17.2926 1.86391 16.5829 2.54861L16.5753 2.55622L15.3696 3.84193C14.0571 2.6399 12.0655 2.56383 10.6615 3.65173C10.3486 3.40829 9.95181 3.26374 9.52449 3.26374C8.50197 3.26374 7.67022 4.09298 7.67022 5.11242C7.67022 5.53085 7.80757 5.91124 8.04412 6.22316L7.72363 6.54268C6.87662 7.37954 6.51035 8.59678 6.72401 9.76077C6.4493 9.84445 6.18985 9.99661 5.97619 10.2096L3.03073 13.1462C0.497325 15.672 0.497325 19.7878 3.03073 22.3212L3.72513 23.0135C4.94604 24.2307 6.58665 24.9078 8.32646 24.9078C10.0052 24.9078 11.5848 24.284 12.7981 23.1428C13.0728 23.8047 13.7214 24.2612 14.4692 24.2612C15.1865 24.2612 15.8046 23.8427 16.0945 23.2417C16.5677 23.8656 17.3155 24.2612 18.1396 24.2612C19.5513 24.2612 20.7035 23.1124 20.7035 21.705C20.7035 21.0279 20.4441 20.3964 19.9862 19.9323C20.6196 19.6509 21.0545 19.0194 21.0545 18.2815C21.0545 17.9619 20.9706 17.6652 20.8256 17.4066L22.3136 15.9231C23.2827 14.9569 23.5956 13.5723 23.2369 12.3398H23.2522ZM22.9622 8.43702L21.4742 9.92053L19.8641 8.31529L21.7184 6.46661C22.1534 6.31445 22.6341 6.42096 22.9622 6.74809C23.4277 7.21217 23.4277 7.97294 22.9622 8.43702ZM21.4895 4.13863C21.955 4.60271 21.955 5.36348 21.4895 5.82755L21.3674 5.94928L19.4216 7.88926L17.7275 6.20033L19.536 4.3973L19.7955 4.13863C20.2609 3.66695 21.024 3.66695 21.4895 4.13863ZM17.0179 2.98225C17.4833 2.52579 18.2388 2.53339 18.6966 2.99747C18.9713 3.27135 19.0934 3.65173 19.0324 4.03212L17.3002 5.76669L15.8122 4.28318L17.0179 2.98225ZM9.52449 3.87236C10.2113 3.87236 10.7683 4.42773 10.7683 5.11242C10.7683 5.79712 10.2113 6.35249 9.52449 6.35249C8.83772 6.35249 8.28068 5.79712 8.28068 5.11242C8.28068 4.42773 8.83772 3.87236 9.52449 3.87236ZM8.31883 24.2992C6.73927 24.2992 5.2589 23.6906 4.15245 22.5875L3.45805 21.8951C1.1612 19.6052 1.1612 15.8774 3.45805 13.5875L6.40351 10.6509C6.86899 10.1868 7.63206 10.1868 8.09754 10.6509C8.28831 10.8411 8.4104 11.0921 8.44092 11.3584L5.89989 14.082L6.3501 14.5004L12.9736 7.41758C13.1949 7.19695 13.4925 7.08283 13.8053 7.08283C14.1258 7.08283 14.4234 7.20456 14.6523 7.43279C14.927 7.70667 15.0491 8.08706 14.9881 8.46745L9.31846 14.12L9.75341 14.5537L15.4841 8.84023L15.7435 8.58156C16.209 8.11749 16.9721 8.11749 17.4376 8.58156C17.903 9.04564 17.903 9.80641 17.4376 10.2705L17.3231 10.3846L17.3155 10.3922L12.4623 15.2384L12.8973 15.672L17.6741 10.9095C18.1091 10.765 18.5822 10.8715 18.9103 11.1986C19.3758 11.6627 19.3758 12.4235 18.9103 12.8876L14.5074 17.2772L14.9423 17.7109L18.4982 14.1657C18.6814 14.2189 18.8492 14.3254 18.9866 14.4624C19.2155 14.6906 19.3376 14.9873 19.3376 15.3068C19.3376 15.5883 19.2384 15.8546 19.0629 16.0676L12.4928 22.5875C11.3788 23.6906 9.89839 24.2992 8.31883 24.2992ZM19.3071 19.4683L19.1621 20.0312C19.7497 20.3888 20.1007 21.0126 20.1007 21.6973C20.1007 22.77 19.2232 23.6449 18.1472 23.6449C17.2697 23.6449 16.5066 23.0515 16.2701 22.2299L16.209 21.9332L15.6062 22.0321C15.6214 22.1462 15.6443 22.2527 15.6672 22.3592C15.6672 22.3896 15.6672 22.4201 15.6672 22.4505C15.6672 23.1124 15.1331 23.6449 14.4692 23.6449C13.8816 23.6449 13.3856 23.2189 13.2864 22.6483L18.7729 17.1783C18.9256 17.1175 19.0782 17.0794 19.246 17.0794C19.9099 17.0794 20.4441 17.612 20.4441 18.2738C20.4441 18.9205 19.9404 19.4454 19.3071 19.4683ZM21.9092 15.5046L20.467 16.9425C20.1999 16.699 19.8565 16.5317 19.475 16.486C20.1312 15.7785 20.1159 14.6754 19.4292 13.9907C19.2918 13.8537 19.1392 13.7472 18.9713 13.6635L19.4139 13.2223C19.7115 12.8876 19.8794 12.4691 19.8794 12.0127C19.8794 11.5334 19.6886 11.0769 19.3452 10.7346C19.0324 10.4226 18.6356 10.2477 18.2159 10.2096C18.5593 9.53253 18.4448 8.68807 17.8801 8.1251C17.5368 7.78275 17.0865 7.59255 16.5982 7.59255C16.2319 7.59255 15.8809 7.69906 15.5833 7.90447C15.5146 7.56212 15.3467 7.2426 15.0873 6.98393C14.3853 6.28402 13.2483 6.27641 12.5386 6.97633L12.531 6.98393L8.94455 10.8182C8.85298 10.59 8.71563 10.3846 8.54012 10.2096C8.19674 9.86727 7.75416 9.6999 7.31157 9.68469C7.1208 8.69568 7.43366 7.66863 8.15095 6.9535L8.47145 6.63398C8.76904 6.83939 9.13532 6.96872 9.53212 6.96872C10.5546 6.96872 11.3864 6.13947 11.3864 5.12003C11.3864 4.73964 11.2719 4.38208 11.0735 4.09298C12.2792 3.18766 13.9808 3.29417 15.072 4.37447L21.9168 11.1986C23.0996 12.3778 23.0996 14.3178 21.9092 15.5046ZM22.3212 10.7802L21.9015 10.3618L22.5502 9.71512C22.7333 9.77598 22.9012 9.87488 23.0385 10.0118C23.4811 10.4531 23.504 11.1454 23.1148 11.6171L23.0004 11.7312C22.8325 11.3812 22.6036 11.0617 22.3212 10.7802Z" fill="#004F35"/>
<path d="M12.8973 2.03888C13.462 2.03888 13.9198 1.58246 13.9198 1.01944C13.9198 0.456419 13.462 0 12.8973 0C12.3326 0 11.8748 0.456419 11.8748 1.01944C11.8748 1.58246 12.3326 2.03888 12.8973 2.03888Z" fill="#004F35"/>
</g>
<defs>
<clipPath id="clip0">
<rect width="22.8769" height="24.9078" fill="white" transform="translate(1.12305)"/>
</clipPath>
</defs>
</svg>
