<svg id="Layer_1" data-name="Layer 1" xmlns="http://www.w3.org/2000/svg" xmlns:xlink="http://www.w3.org/1999/xlink" viewBox="0 0 104 21"><defs><style>.cls-1{fill:#fff;}.cls-2{fill:#18499b;}.cls-3{mask:url(#mask);}.cls-4{mask:url(#mask-2);}.cls-5{fill:#f27123;}</style><mask id="mask" x="74.23" y="0.38" width="10.37" height="15.68" maskUnits="userSpaceOnUse"><g id="logo-autoship-b"><polygon id="logo-autoship-a" class="cls-1" points="74.23 0.38 84.6 0.38 84.6 16.06 74.23 16.06 74.23 0.38"/></g></mask><mask id="mask-2" x="0" y="0.38" width="103.98" height="20.47" maskUnits="userSpaceOnUse"><g id="logo-autoship-d"><polygon id="logo-autoship-c" class="cls-1" points="0 20.85 103.98 20.85 103.98 0.38 0 0.38 0 20.85"/></g></mask></defs><title>Artboard 1</title><path class="cls-2" d="M39.8,11.19a2.27,2.27,0,0,1-.39,1.33,1.21,1.21,0,0,1-1.06.51,1.06,1.06,0,0,1-.58-.13.85.85,0,0,1-.34-.36,1.67,1.67,0,0,1-.2-.57,6.06,6.06,0,0,1,0-.76V5.53H33.3V12a6.37,6.37,0,0,0,.19,1.57,4,4,0,0,0,.67,1.4,3.57,3.57,0,0,0,1.22,1,3.91,3.91,0,0,0,1.82.39,3.79,3.79,0,0,0,1.07-.15,5.38,5.38,0,0,0,.92-.38,3.41,3.41,0,0,0,.73-.57v.82h3.75V5.53H39.8ZM50,2.57,46.11,3.64l.09,1.89H44.62v3h1.6v3.9A5.62,5.62,0,0,0,46.41,14a3.07,3.07,0,0,0,.65,1.24,2.85,2.85,0,0,0,1.2.8A5.13,5.13,0,0,0,50,16.3a6.56,6.56,0,0,0,1.08-.09A7.19,7.19,0,0,0,52,16l.2-.08,0-3.05-.41.18a1.54,1.54,0,0,1-.37.09,2.63,2.63,0,0,1-.47,0,.92.92,0,0,1-.73-.23,1.53,1.53,0,0,1-.2-.87V8.56h2.33v-3H50Zm10.49,9.3a2.59,2.59,0,0,1-.39.82,1.94,1.94,0,0,1-.64.57,1.79,1.79,0,0,1-.88.22,1.74,1.74,0,0,1-.88-.22,1.85,1.85,0,0,1-.64-.57,2.61,2.61,0,0,1-.4-.82,3.35,3.35,0,0,1-.13-.95,3.45,3.45,0,0,1,.13-.95,2.54,2.54,0,0,1,.39-.79,1.77,1.77,0,0,1,.63-.55,1.74,1.74,0,0,1,.88-.21,1.9,1.9,0,0,1,.88.2,2.17,2.17,0,0,1,.64.56,2.41,2.41,0,0,1,.4.8,3,3,0,0,1,.15.94,3.36,3.36,0,0,1-.14.95m2.15-5.19a5.62,5.62,0,0,0-1.85-1.09,6.7,6.7,0,0,0-4.45,0,5.57,5.57,0,0,0-1.86,1.09,5.36,5.36,0,0,0-1.25,1.76,5.62,5.62,0,0,0-.47,2.32,5.66,5.66,0,0,0,.47,2.32,5.55,5.55,0,0,0,1.25,1.78A5.69,5.69,0,0,0,56.33,16a6.16,6.16,0,0,0,2.23.4,6.09,6.09,0,0,0,2.23-.4,5.69,5.69,0,0,0,1.85-1.12,5.45,5.45,0,0,0,1.27-1.78,5.79,5.79,0,0,0,.46-2.32,5.79,5.79,0,0,0-.46-2.32,5.27,5.27,0,0,0-1.27-1.76"/><g class="cls-3"><path class="cls-2" d="M83.73,6.66a3.55,3.55,0,0,0-1.21-1,4,4,0,0,0-1.84-.39,3.57,3.57,0,0,0-1.94.51,4.94,4.94,0,0,0-.65.52V.38H74.23V16.06h3.86V10.4a2.12,2.12,0,0,1,.4-1.33,1.24,1.24,0,0,1,1.07-.49,1,1,0,0,1,.56.13.91.91,0,0,1,.35.35,1.61,1.61,0,0,1,.19.56,4.59,4.59,0,0,1,.06.76v5.68H84.6V9.62a6.4,6.4,0,0,0-.2-1.55,4,4,0,0,0-.67-1.41"/></g><path class="cls-2" d="M88.52,4.51a1.88,1.88,0,0,0,.74-.15A1.68,1.68,0,0,0,89.87,4a1.74,1.74,0,0,0,.41-.58,1.81,1.81,0,0,0,.16-.73,1.84,1.84,0,0,0-.57-1.32A1.77,1.77,0,0,0,89.26,1a1.87,1.87,0,0,0-.74-.14,1.94,1.94,0,0,0-.76.15,2.38,2.38,0,0,0-.6.39,1.7,1.7,0,0,0-.41.59,1.78,1.78,0,0,0-.14.72A1.75,1.75,0,0,0,87.16,4a1.88,1.88,0,0,0,1.36.55"/><g class="cls-4"><polygon class="cls-2" points="86.51 16.06 90.37 16.06 90.37 5.53 86.51 5.53 86.51 16.06"/></g><g class="cls-4"><path class="cls-2" d="M100.09,11.61a2.22,2.22,0,0,1-.39.73,1.73,1.73,0,0,1-.63.5,1.87,1.87,0,0,1-.88.19,1.84,1.84,0,0,1-.86-.19,2.09,2.09,0,0,1-.66-.51,2.4,2.4,0,0,1-.42-2.39,2.26,2.26,0,0,1,.43-.72,1.94,1.94,0,0,1,.65-.51,1.84,1.84,0,0,1,.86-.19,1.87,1.87,0,0,1,.88.19,1.84,1.84,0,0,1,.63.49,2.23,2.23,0,0,1,.39.71,2.74,2.74,0,0,1,.13.85,2.79,2.79,0,0,1-.13.85m3.55-2.94a5.53,5.53,0,0,0-1-1.76,4.6,4.6,0,0,0-1.58-1.21A4.73,4.73,0,0,0,99,5.25a4.09,4.09,0,0,0-2,.49,5.26,5.26,0,0,0-.88.61V5.53h-3.7V20.85h3.86V15.39a4.2,4.2,0,0,0,.89.56,4.53,4.53,0,0,0,1.86.39,4.72,4.72,0,0,0,2.12-.47,4.81,4.81,0,0,0,1.58-1.24,5.32,5.32,0,0,0,1-1.78,6.72,6.72,0,0,0,.33-2.09,6.36,6.36,0,0,0-.34-2.09M68.69,16.52a6.23,6.23,0,0,1-2.22-.4A4.82,4.82,0,0,1,64.66,15l-.22-.23,2.09-2.13.23.29a2.9,2.9,0,0,0,.87.68,2.19,2.19,0,0,0,1.52.22,1.16,1.16,0,0,0,.34-.14.7.7,0,0,0,.2-.22.8.8,0,0,0,.07-.36.56.56,0,0,0-.08-.3,1.24,1.24,0,0,0-.31-.28,3,3,0,0,0-.59-.26l-.89-.3a8.43,8.43,0,0,1-1-.38,3.59,3.59,0,0,1-.92-.61,3.22,3.22,0,0,1-.66-.92,3.13,3.13,0,0,1-.25-1.31,3.17,3.17,0,0,1,.39-1.61,3.29,3.29,0,0,1,1-1.1,4.22,4.22,0,0,1,1.36-.62,6.29,6.29,0,0,1,1.5-.19,5.59,5.59,0,0,1,1.86.34,4.67,4.67,0,0,1,1.68,1l.25.23-2,2.17-.24-.3a2,2,0,0,0-.7-.55,2.14,2.14,0,0,0-.84-.2,2.18,2.18,0,0,0-.44,0A.92.92,0,0,0,68.5,8a.8.8,0,0,0-.23.22.51.51,0,0,0-.08.3.48.48,0,0,0,.06.26.58.58,0,0,0,.21.2,2.48,2.48,0,0,0,.43.2l.63.22,1.09.38a4.67,4.67,0,0,1,1.1.6,3.21,3.21,0,0,1,.84.95,2.79,2.79,0,0,1,.35,1.44,3.63,3.63,0,0,1-.36,1.66,3.32,3.32,0,0,1-1,1.17,4.07,4.07,0,0,1-1.35.67,5.67,5.67,0,0,1-1.54.21M14.42,2.36,12.81,4.44c-2.26-1.76-7-4.25-11.65.9A13.84,13.84,0,0,0,.05,6.75l0,.06H0A9.55,9.55,0,0,1,5.42,5.58a6.41,6.41,0,0,1,4.86,2.13L8.64,9.81A9.9,9.9,0,0,0,16,9.6Z"/></g><g class="cls-4"><path class="cls-5" d="M1.62,15.88l1.61-2.07c2.26,1.75,7,4.24,11.66-.91A12.82,12.82,0,0,0,16,11.49l.05-.06h0a9.64,9.64,0,0,1-5.41,1.24,6.48,6.48,0,0,1-4.86-2.13L7.4,8.43A10,10,0,0,0,0,8.64Z"/></g><g class="cls-4"><path class="cls-2" d="M23.52,10.58l1.61-4.3,1.38,4.3Zm-.25-8.3L17.43,16.06h4.11l1-2.77h5.05l1.09,2.77h4.23L27.24,2.28Z"/></g></svg>