<?xml version="1.0" encoding="UTF-8"?>
<svg width="74px" height="14px" viewBox="0 0 74 14" version="1.1" xmlns="http://www.w3.org/2000/svg" xmlns:xlink="http://www.w3.org/1999/xlink">
    <defs>
        <polygon id="path-1" points="0.316041667 0.0731111111 24.8200625 0.0731111111 24.8200625 13.9533333 0.316041667 13.9533333"></polygon>
    </defs>
    <g id="Page-1" stroke="none" stroke-width="1" fill="none" fill-rule="evenodd">
        <g id="LVP---TLST---NAV---LoggedOut---Travel-Logo" transform="translate(-20.000000, -79.000000)">
            <g id="NAV---TSLT---LoggedOut" transform="translate(0.000000, 61.000000)">
                <g id="AMEX-Logo-2" transform="translate(20.000000, 18.000000)">
                    <g id="axp_sa_travel_wm_rgb_rev">
                        <polyline id="Fill-1" fill="#FFFFFE" points="0 3.22622222 0 0.127555556 11.5802292 0.127555556 11.5802292 3.22622222 7.64204167 3.22622222 7.64204167 13.9455556 3.9381875 13.9455556 3.9381875 3.22622222 0 3.22622222"></polyline>
                        <path d="M17.0138333,6.307 L18.6002083,6.307 C19.3563958,6.307 19.9098542,6.18722222 20.2582708,5.94688889 C20.6059167,5.70733333 20.7808958,5.29822222 20.7808958,4.72111111 C20.7808958,4.144 20.6059167,3.73877778 20.2582708,3.50466667 C19.9098542,3.27055556 19.3563958,3.15388889 18.6002083,3.15388889 L17.0138333,3.15388889 L17.0138333,6.307 Z M13.3554583,13.9455556 L13.3554583,0.127555556 L18.7389583,0.127555556 C19.6231042,0.127555556 20.4170625,0.206888889 21.1200625,0.364777778 C21.8230625,0.522666667 22.4204583,0.779333333 22.91225,1.13477778 C23.4025,1.49022222 23.7802083,1.95533333 24.0430625,2.52933333 C24.3074583,3.10333333 24.4392708,3.80411111 24.4392708,4.63011111 C24.4392708,5.71822222 24.2103333,6.58544444 23.7509167,7.23255556 C23.2938125,7.87966667 22.6085417,8.35488889 21.6974167,8.659 L24.5972917,13.9455556 L20.6637292,13.9455556 L18.023625,9.15133333 L17.0138333,9.15133333 L17.0138333,13.9455556 L13.3554583,13.9455556 L13.3554583,13.9455556 Z" id="Fill-2" fill="#FFFFFE"></path>
                        <g id="Group-6" transform="translate(25.437500, 0.000000)">
                            <mask id="mask-2" fill="white">
                                <use xlink:href="#path-1"></use>
                            </mask>
                            <g id="Clip-4"></g>
                            <path d="M5.44670833,8.72277778 L8.05752083,8.72277778 L6.79335417,4.89455556 L6.757125,4.89455556 L5.44670833,8.72277778 Z M0.316041667,13.9455556 L5.16689583,0.0731111111 L8.60866667,0.0731111111 L13.4595208,13.9455556 L9.7194375,13.9455556 L8.88847917,11.375 L4.57952083,11.375 L3.68535417,13.9455556 L0.316041667,13.9455556 L0.316041667,13.9455556 Z" id="Fill-3" fill="#FFFFFE" mask="url(#mask-2)"></path>
                            <polyline id="Fill-5" fill="#FFFFFE" mask="url(#mask-2)" points="11.7852708 0.127555556 15.489125 0.127555556 18.2371458 9.11477778 18.273375 9.10622222 21.1616875 0.127555556 24.8200625 0.127555556 20.1580625 14 16.4210625 14 11.7852708 0.127555556"></polyline>
                        </g>
                        <polyline id="Fill-7" fill="#FFFFFE" points="51.7075 13.9455556 51.7075 0.127555556 61.4816667 0.127555556 61.4816667 3.22622222 55.4113542 3.22622222 55.4113542 5.46855556 59.7380417 5.46855556 59.7380417 8.38522222 55.4113542 8.38522222 55.4113542 10.9192222 61.7884583 10.9192222 61.7884583 13.9455556 51.7075 13.9455556"></polyline>
                        <polyline id="Fill-8" fill="#FFFFFE" points="63.8257708 13.9455556 63.8257708 0.127555556 67.5288542 0.127555556 67.5288542 10.9192222 73.283125 10.9192222 73.283125 13.9455556 63.8257708 13.9455556"></polyline>
                    </g>
                </g>
            </g>
        </g>
    </g>
</svg>
