<?xml version="1.0" encoding="UTF-8"?>
<svg width="176px" height="10px" viewBox="0 0 176 10" version="1.1" xmlns="http://www.w3.org/2000/svg" xmlns:xlink="http://www.w3.org/1999/xlink">
    <g id="Page-1" stroke="none" stroke-width="1" fill="none" fill-rule="evenodd">
        <g id="MVP---TLST---NAV---LoggedOut" transform="translate(-296.000000, -20.000000)" fill="#FFFFFF">
            <g id="amextravel_horizontal" transform="translate(296.000000, 18.000000)">
                <g id="axp_ae_travel_wm_rgb-copy-2" transform="translate(0.000000, 2.333333)">
                    <g id="amex">
                        <g id="Group">
                            <path d="M5.25564407,5.253 L4.36545763,2.899 L3.85365254,1.513 L3.80987288,1.513 L3.29911017,2.871 L2.39433051,5.253 L5.25564407,5.253 Z M3.25533051,0.126 L4.49575424,0.126 L7.73857627,8.446 L6.46792373,8.446 L5.62151695,6.177 L2.05868644,6.177 L1.16745763,8.446 L-4.64961403e-13,8.446 L3.25533051,0.126 L3.25533051,0.126 Z" id="Fill-1"></path>
                            <path d="M9.13639831,8.446 L9.13639831,0.154 L10.7426949,0.154 L13.4726695,7.045 L13.5018559,7.045 L16.1880508,0.154 L17.8381271,0.154 L17.8381271,8.446 L16.6404407,8.446 L16.6404407,1.695 L16.6258475,1.695 C16.5091017,2.115 16.305839,2.703 16.1004915,3.235 C16.0567119,3.474 14.0855847,7.998 13.9834322,8.446 L12.8878983,8.446 C12.800339,7.998 10.8302542,3.432 10.7864746,3.222 L10.2454831,1.667 L10.2308898,1.667 L10.2308898,8.446 L9.13639831,8.446" id="Fill-4"></path>
                            <polyline id="Fill-5" points="19.9489322 8.446 19.9489322 0.154 25.6726017 0.154 25.6726017 1.134 21.1758051 1.134 21.1758051 3.614 24.5041017 3.614 24.5041017 4.58 21.1758051 4.58 21.1758051 7.466 25.9196441 7.466 25.9196441 8.446 19.9489322 8.446"></polyline>
                            <path d="M28.675678,4.02 L30.6030254,4.02 C31.9904237,4.02 32.7492712,3.67 32.7492712,2.535 C32.7492712,1.457 31.9904237,1.107 30.6030254,1.107 L28.675678,1.107 L28.675678,4.02 Z M27.4644407,8.446 L27.4644407,0.154 L30.6613983,0.154 C32.7649068,0.154 33.9615508,0.868 33.9615508,2.493 C33.9615508,3.866 33.1724746,4.538 31.8882712,4.762 L34.0928898,8.446 L32.7649068,8.446 L30.6322119,4.888 L28.675678,4.888 L28.675678,8.446 L27.4644407,8.446 L27.4644407,8.446 Z" id="Fill-6"></path>
                            <polygon id="Fill-7" points="35.9285085 8.446 37.1689322 8.446 37.1689322 0.154 35.9285085 0.154"></polygon>
                            <path d="M38.9336695,4.272 C38.9336695,1.639 40.5837458,5.5067062e-14 42.8613305,5.5067062e-14 C44.8460085,5.5067062e-14 45.8842119,1.036 46.3074153,2.549 L45.1535085,2.843 C44.788678,1.653 44.1601271,0.966 42.8456949,0.966 C41.1956186,0.966 40.1740932,2.269 40.1740932,4.244 C40.1740932,6.373 41.2112542,7.634 42.8759237,7.634 C44.1465763,7.634 44.9200169,6.947 45.2848475,5.645 L46.4387542,5.897 C45.985322,7.536 44.8324576,8.601 42.8613305,8.601 C40.5399661,8.601 38.9336695,6.989 38.9336695,4.272" id="Fill-8"></path>
                            <path d="M52.2447712,5.253 L51.3545847,2.899 L50.8427797,1.513 L50.799,1.513 L50.2882373,2.871 L49.3834576,5.253 L52.2447712,5.253 Z M50.2444576,0.126 L51.4869661,0.126 L54.7277034,8.446 L53.4570508,8.446 L52.6106441,6.177 L49.0478136,6.177 L48.1565847,8.446 L46.9891271,8.446 L50.2444576,0.126 L50.2444576,0.126 Z" id="Fill-9"></path>
                            <polyline id="Fill-10" points="56.1255254 8.446 56.1255254 0.154 57.424322 0.154 60.885 4.86 62.0962373 6.499 62.1118729 6.499 62.1118729 0.154 63.2647373 0.154 63.2647373 8.446 62.1264661 8.446 58.3739237 3.403 57.2783898 1.933 57.264839 1.933 57.264839 8.446 56.1255254 8.446"></polyline>
                            <polyline id="Fill-11" points="68.5881356 8.446 68.5881356 0.154 74.3118051 0.154 74.3118051 1.134 69.8150085 1.134 69.8150085 3.614 73.1433051 3.614 73.1433051 4.58 69.8150085 4.58 69.8150085 7.466 74.5588475 7.466 74.5588475 8.446 68.5881356 8.446"></polyline>
                            <polyline id="Fill-12" points="75.3145678 8.446 78.4104153 4.006 75.6804407 0.154 77.067839 0.154 79.2130424 3.193 81.3009153 0.154 82.586161 0.154 79.8707797 4.076 82.9509915 8.446 81.5792288 8.446 79.0962966 4.902 76.629 8.446 75.3145678 8.446"></polyline>
                            <path d="M85.4870847,4.104 L87.4290254,4.104 C88.8445678,4.104 89.5763136,3.712 89.5763136,2.577 C89.5763136,1.484 88.8602034,1.107 87.4144322,1.107 L85.4870847,1.107 L85.4870847,4.104 Z M84.2758475,8.446 L84.2758475,0.154 L87.4144322,0.154 C89.4001525,0.154 90.7729576,0.714 90.7729576,2.535 C90.7729576,4.482 89.2542203,5.001 87.3706525,5.001 L85.4870847,5.001 L85.4870847,8.446 L84.2758475,8.446 L84.2758475,8.446 Z" id="Fill-13"></path>
                            <path d="M93.4841695,4.02 L95.4115169,4.02 C96.7978729,4.02 97.5577627,3.67 97.5577627,2.535 C97.5577627,1.457 96.7978729,1.107 95.4115169,1.107 L93.4841695,1.107 L93.4841695,4.02 Z M92.2718898,8.446 L92.2718898,0.154 L95.4698898,0.154 C97.5723559,0.154 98.7700424,0.868 98.7700424,2.493 C98.7700424,3.866 97.9809661,4.538 96.6967627,4.762 L98.9013814,8.446 L97.5723559,8.446 L95.4407034,4.888 L93.4841695,4.888 L93.4841695,8.446 L92.2718898,8.446 L92.2718898,8.446 Z" id="Fill-14"></path>
                            <polyline id="Fill-15" points="100.619212 8.446 100.619212 0.154 106.343924 0.154 106.343924 1.134 101.846085 1.134 101.846085 3.614 105.174381 3.614 105.174381 4.58 101.846085 4.58 101.846085 7.466 106.590966 7.466 106.590966 8.446 100.619212 8.446"></polyline>
                            <path d="M107.491576,6.499 L108.484958,6.009 C108.878975,7.102 109.872356,7.662 111.054407,7.662 C112.339653,7.662 113.0985,7.186 113.0985,6.331 C113.0985,5.267 112.222907,5.057 110.952254,4.72 C109.345958,4.328 107.799076,3.992 107.799076,2.185 C107.799076,0.812 109.025949,1.42108547e-14 110.777136,1.42108547e-14 C112.543958,1.42108547e-14 113.581119,0.77 114.062695,1.807 L113.143322,2.339 C112.704483,1.387 111.843483,0.952 110.791729,0.952 C109.668051,0.952 108.99572,1.373 108.99572,2.157 C108.99572,3.25 110.047475,3.432 111.3765,3.768 C112.792042,4.118 114.325373,4.468 114.325373,6.261 C114.325373,7.83 112.895237,8.614 111.026263,8.614 C109.360551,8.614 108.061754,7.858 107.491576,6.499" id="Fill-16"></path>
                            <path d="M115.505339,6.499 L116.497678,6.009 C116.891695,7.102 117.885076,7.662 119.067127,7.662 C120.352373,7.662 121.11122,7.186 121.11122,6.331 C121.11122,5.267 120.235627,5.057 118.964975,4.72 C117.358678,4.328 115.811797,3.992 115.811797,2.185 C115.811797,0.812 117.037627,1.42108547e-14 118.789856,1.42108547e-14 C120.555636,1.42108547e-14 121.592797,0.77 122.074373,1.807 L121.155,2.339 C120.717203,1.387 119.855161,0.952 118.804449,0.952 C117.679729,0.952 117.008441,1.373 117.008441,2.157 C117.008441,3.25 118.060195,3.432 119.388178,3.768 C120.804763,4.118 122.337051,4.468 122.337051,6.261 C122.337051,7.83 120.906915,8.614 119.037941,8.614 C117.374314,8.614 116.073432,7.858 115.505339,6.499" id="Fill-17"></path>
                        </g>
                    </g>
                    <g id="TRAVEL" transform="translate(126.159292, 0.000000)">
                        <g>
                            <polyline id="Fill-18" points="-1.19282362e-12 2.0275 -1.19282362e-12 0.035 7.825 0.035 7.825 2.0275 5.16354167 2.0275 5.16354167 8.918 2.6609375 8.918 2.6609375 2.0275 -1.19282362e-12 2.0275"></polyline>
                            <path d="M11.4958333,4.0075 L12.5677083,4.0075 C13.0786458,4.0075 13.4526042,3.9305 13.6880208,3.7765 C13.9234375,3.622 14.0411458,3.359 14.0411458,2.988 C14.0411458,2.617 13.9234375,2.3565 13.6880208,2.206 C13.4526042,2.0555 13.0786458,1.9805 12.5677083,1.9805 L11.4958333,1.9805 L11.4958333,4.0075 Z M9.02395833,8.918 L9.02395833,0.035 L12.6614583,0.035 C13.2588542,0.035 13.7953125,0.086 14.2708333,0.1875 C14.7458333,0.289 15.1489583,0.454 15.48125,0.6825 C15.8125,0.911 16.0677083,1.21 16.2458333,1.579 C16.4239583,1.948 16.5130208,2.3985 16.5130208,2.9295 C16.5130208,3.629 16.3583333,4.1865 16.0484375,4.6025 C15.7390625,5.0185 15.2760417,5.324 14.6609375,5.5195 L16.6197917,8.918 L13.9619792,8.918 L12.178125,5.836 L11.4958333,5.836 L11.4958333,8.918 L9.02395833,8.918 L9.02395833,8.918 Z" id="Fill-19"></path>
                            <path d="M20.8682292,5.5605 L22.6317708,5.5605 L21.7776042,3.0995 L21.753125,3.0995 L20.8682292,5.5605 Z M17.4010417,8.918 L20.6786458,7.10542736e-15 L23.0041667,7.10542736e-15 L26.2817708,8.918 L23.7546875,8.918 L23.1932292,7.2655 L20.2822917,7.2655 L19.6776042,8.918 L17.4010417,8.918 L17.4010417,8.918 Z" id="Fill-20"></path>
                            <polyline id="Fill-21" points="25.1505208 0.035 27.653125 0.035 29.5098958 5.8125 29.534375 5.807 31.4859375 0.035 33.9578125 0.035 30.8078125 8.953 28.2828125 8.953 25.1505208 0.035"></polyline>
                            <polyline id="Fill-22" points="34.9375 8.918 34.9375 0.035 41.5416667 0.035 41.5416667 2.0275 37.4401042 2.0275 37.4401042 3.4685 40.3635417 3.4685 40.3635417 5.3435 37.4401042 5.3435 37.4401042 6.9725 41.7489583 6.9725 41.7489583 8.918 34.9375 8.918"></polyline>
                            <polyline id="Fill-23" points="43.1255208 8.918 43.1255208 0.035 45.628125 0.035 45.628125 6.9725 49.515625 6.9725 49.515625 8.918 43.1255208 8.918"></polyline>
                        </g>
                    </g>
                </g>
            </g>
        </g>
    </g>
</svg>
