<?xml version="1.0" encoding="UTF-8"?>
<svg width="293px" height="74px" viewBox="0 0 293 74" version="1.1" xmlns="http://www.w3.org/2000/svg" xmlns:xlink="http://www.w3.org/1999/xlink">
    <!-- Generator: Sketch 48.2 (47327) - http://www.bohemiancoding.com/sketch -->
    <title>getaroom-trip-advisor-revised-logo</title>
    <desc>Created with Sketch.</desc>
    <defs></defs>
    <g id="Page-1" stroke="none" stroke-width="1" fill="none" fill-rule="evenodd">
        <g id="getaroom-trip-advisor-revised-logo" fill-rule="nonzero">
            <g fill="#000000" id="Group">
                <g>
                    <path d="M0.52,0.2578 L7.3398,0.2578 C8.913,0.2578 10.0932,0.5976 10.8798,1.2778 C11.6664,1.9575 12.06,2.9043 12.06,4.1176 C12.06,4.7973 11.9599,5.3608 11.7597,5.8075 C11.56,6.2543 11.3266,6.6141 11.06,6.8876 C10.7929,7.161 10.5297,7.3573 10.27,7.4774 C10.0097,7.5975 9.8198,7.6776 9.7002,7.7176 L9.7002,7.7576 C9.9131,7.7845 10.1431,7.8509 10.3901,7.9573 C10.6367,8.0642 10.8667,8.2342 11.08,8.4676 C11.2929,8.701 11.4701,9.0042 11.6098,9.3773 C11.7499,9.7508 11.8198,10.2176 11.8198,10.7777 C11.8198,11.6175 11.8833,12.3807 12.0097,13.0673 C12.1367,13.7543 12.3329,14.2445 12.6,14.5376 L9.9198,14.5375 C9.7328,14.2309 9.6229,13.891 9.5897,13.5175 C9.5565,13.1445 9.5399,12.7846 9.5399,12.4374 C9.5399,11.7846 9.4999,11.2211 9.4198,10.7475 C9.3397,10.2744 9.1932,9.8808 8.9799,9.5673 C8.7665,9.2543 8.4765,9.0243 8.1098,8.8774 C7.7431,8.7309 7.2729,8.6577 6.7001,8.6577 L3.02,8.6577 L3.02,14.5376 L0.52,14.5376 L0.52,0.2578 Z M3.02,6.7578 L7.1201,6.7578 C7.9199,6.7578 8.5263,6.5674 8.9399,6.1875 C9.353,5.8076 9.56,5.2378 9.56,4.4775 C9.56,4.0244 9.4931,3.6543 9.3598,3.3676 C9.2265,3.0809 9.043,2.8574 8.8101,2.6978 C8.5767,2.5376 8.3101,2.4312 8.0098,2.3775 C7.71,2.3247 7.3999,2.2974 7.0801,2.2974 L3.02,2.2974 L3.02,6.7578 Z" id="Shape"></path>
                    <path d="M16.0601,9.9575 C16.0601,10.3574 16.1167,10.7446 16.23,11.1177 C16.3433,11.4912 16.5132,11.8174 16.7403,12.0977 C16.9669,12.3775 17.2535,12.6011 17.6002,12.7676 C17.9469,12.9346 18.36,13.0176 18.8399,13.0176 C19.5069,13.0176 20.043,12.8745 20.4503,12.5874 C20.8565,12.3013 21.1603,11.8711 21.36,11.2974 L23.52,11.2974 C23.3999,11.8575 23.1933,12.3575 22.8999,12.7974 C22.6064,13.2378 22.2534,13.6075 21.8398,13.9078 C21.4267,14.2076 20.9633,14.4347 20.4502,14.5875 C19.9365,14.7408 19.3999,14.8175 18.8398,14.8175 C18.0268,14.8175 17.3066,14.6842 16.6801,14.4176 C16.0531,14.151 15.5234,13.778 15.0898,13.2975 C14.6567,12.8175 14.33,12.2448 14.1098,11.5778 C13.8901,10.9113 13.7802,10.1779 13.7802,9.3776 C13.7802,8.6447 13.8964,7.9479 14.1298,7.2878 C14.3632,6.6277 14.6967,6.0476 15.1298,5.5476 C15.5629,5.0476 16.0863,4.6511 16.7001,4.3577 C17.3129,4.0647 18.0067,3.9178 18.7802,3.9178 C19.5932,3.9178 20.3232,4.0877 20.9701,4.4281 C21.6166,4.7679 22.1532,5.2181 22.58,5.7782 C23.0068,6.3378 23.3163,6.9813 23.5102,7.7079 C23.7031,8.435 23.7534,9.185 23.6601,9.9579 L16.0601,9.9579 L16.0601,9.9575 Z M21.3799,8.4575 C21.353,8.0976 21.2769,7.751 21.1499,7.4175 C21.0234,7.0845 20.8501,6.7945 20.6299,6.5474 C20.4102,6.3013 20.1431,6.1011 19.8301,5.9478 C19.5166,5.7945 19.1665,5.7178 18.7803,5.7178 C18.3799,5.7178 18.0166,5.7876 17.69,5.9278 C17.3633,6.0674 17.0831,6.2613 16.8502,6.5079 C16.6168,6.7545 16.4303,7.0445 16.2901,7.3775 C16.15,7.711 16.0733,8.0709 16.0601,8.4576 L21.3799,8.4576 L21.3799,8.4575 Z" id="Shape"></path>
                    <polygon id="Shape" points="24.3799 4.1978 26.8599 4.1978 29.4795 12.1377 29.5195 12.1377 32.0395 4.1978 34.3999 4.1978 30.6997 14.5376 28.1396 14.5376"></polygon>
                    <path d="M35.8398,0.2578 L38.1201,0.2578 L38.1201,2.4175 L35.8398,2.4175 L35.8398,0.2578 Z M35.8398,4.1978 L38.1201,4.1978 L38.1201,14.5376 L35.8398,14.5376 L35.8398,4.1978 Z" id="Shape"></path>
                    <path d="M42.3799,9.9575 C42.3799,10.3574 42.4365,10.7446 42.5498,11.1177 C42.6631,11.4912 42.833,11.8174 43.0601,12.0977 C43.2867,12.3775 43.5733,12.6011 43.92,12.7676 C44.2667,12.9346 44.6798,13.0176 45.1597,13.0176 C45.8267,13.0176 46.3628,12.8745 46.7701,12.5874 C47.1763,12.3013 47.4801,11.8711 47.6798,11.2974 L49.84,11.2974 C49.7199,11.8575 49.5133,12.3575 49.2199,12.7974 C48.9264,13.2378 48.5734,13.6075 48.1598,13.9078 C47.7467,14.2076 47.2833,14.4347 46.7702,14.5875 C46.2565,14.7408 45.7199,14.8175 45.1598,14.8175 C44.3468,14.8175 43.6266,14.6842 43.0001,14.4176 C42.3731,14.151 41.8434,13.778 41.4098,13.2975 C40.9767,12.8175 40.65,12.2448 40.4298,11.5778 C40.2101,10.9113 40.1002,10.1779 40.1002,9.3776 C40.1002,8.6447 40.2164,7.9479 40.4498,7.2878 C40.6832,6.6277 41.0167,6.0476 41.4498,5.5476 C41.8829,5.0476 42.4063,4.6511 43.0201,4.3577 C43.6329,4.0647 44.3267,3.9178 45.1002,3.9178 C45.9132,3.9178 46.6432,4.0877 47.2901,4.4281 C47.9366,4.7679 48.4732,5.2181 48.9,5.7782 C49.3268,6.3378 49.6363,6.9813 49.8302,7.7079 C50.0231,8.435 50.0734,9.185 49.9801,9.9579 L42.3799,9.9579 L42.3799,9.9575 Z M47.6997,8.4575 C47.6728,8.0976 47.5967,7.751 47.4697,7.4175 C47.3432,7.0845 47.1699,6.7945 46.9497,6.5474 C46.73,6.3013 46.4629,6.1011 46.1499,5.9478 C45.8364,5.7945 45.4863,5.7178 45.1001,5.7178 C44.6997,5.7178 44.3364,5.7876 44.0098,5.9278 C43.6831,6.0674 43.4029,6.2613 43.17,6.5079 C42.9366,6.7545 42.7501,7.0445 42.6099,7.3775 C42.4698,7.711 42.3931,8.0709 42.3799,8.4576 L47.6997,8.4576 L47.6997,8.4575 Z" id="Shape"></path>
                    <polygon id="Shape" points="50.7793 4.1978 53.1997 4.1978 55.2197 11.9175 55.2597 11.9175 57.1996 4.1978 59.4994 4.1978 61.3593 11.9175 61.3993 11.9175 63.4994 4.1978 65.8192 4.1978 62.5795 14.5376 60.2397 14.5376 58.3193 6.8574 58.2793 6.8574 56.3794 14.5376 53.9795 14.5376"></polygon>
                    <path d="M68.9995,11.2178 C69.0659,11.8843 69.3198,12.3511 69.7598,12.6177 C70.1998,12.8843 70.7261,13.0176 71.3394,13.0176 C71.5528,13.0176 71.7964,13.001 72.0699,12.9678 C72.3428,12.9346 72.5997,12.8711 72.8394,12.7779 C73.0796,12.6846 73.2764,12.5474 73.4297,12.3677 C73.5825,12.1875 73.6528,11.9512 73.6397,11.6577 C73.626,11.3642 73.5196,11.1245 73.3199,10.9375 C73.1197,10.751 72.8629,10.6011 72.5499,10.4878 C72.2364,10.3745 71.8795,10.2778 71.4796,10.1978 C71.0797,10.1178 70.673,10.0313 70.2599,9.9375 C69.8327,9.8442 69.423,9.731 69.0299,9.5977 C68.6363,9.4644 68.2828,9.2847 67.9698,9.0577 C67.6563,8.8311 67.4063,8.5411 67.2198,8.1876 C67.0328,7.8346 66.9395,7.3976 66.9395,6.8775 C66.9395,6.3174 67.0762,5.8477 67.3497,5.4678 C67.6226,5.0874 67.9698,4.7813 68.3897,4.5474 C68.8096,4.3145 69.2764,4.1509 69.7896,4.0577 C70.3028,3.9645 70.7925,3.9176 71.2598,3.9176 C71.7925,3.9176 72.3028,3.9747 72.7896,4.0875 C73.2764,4.2013 73.7164,4.3844 74.1094,4.6378 C74.503,4.8912 74.8296,5.2213 75.0894,5.6275 C75.3497,6.0347 75.5127,6.5245 75.5796,7.0977 L73.1997,7.0977 C73.0928,6.5513 72.8428,6.1846 72.4497,5.9976 C72.0561,5.8111 71.6059,5.7178 71.0996,5.7178 C70.9394,5.7178 70.7495,5.731 70.5298,5.7578 C70.3096,5.7847 70.1026,5.8345 69.9097,5.9077 C69.7163,5.9809 69.5528,6.0874 69.4195,6.2275 C69.2862,6.3676 69.2198,6.5512 69.2198,6.7778 C69.2198,7.0576 69.316,7.2846 69.5098,7.4575 C69.7027,7.6308 69.9561,7.7744 70.2696,7.8877 C70.5826,8.001 70.9395,8.0977 71.3394,8.1777 C71.7398,8.2578 72.1529,8.3442 72.5796,8.4375 C72.9927,8.5313 73.3994,8.6445 73.7998,8.7778 C74.1997,8.9111 74.5561,9.0908 74.8696,9.3174 C75.1826,9.5445 75.436,9.8311 75.6294,10.1778 C75.8228,10.5245 75.9194,10.9512 75.9194,11.4576 C75.9194,12.0709 75.7798,12.5909 75.4995,13.0177 C75.2197,13.4445 74.8559,13.7911 74.4097,14.0577 C73.9629,14.3248 73.4663,14.5177 72.9195,14.6378 C72.3727,14.7579 71.8326,14.8175 71.2999,14.8175 C70.6461,14.8175 70.0426,14.7443 69.4898,14.5978 C68.9361,14.4513 68.4561,14.2277 68.0499,13.9279 C67.6427,13.6276 67.3228,13.2546 67.0895,12.8078 C66.8562,12.361 66.7331,11.8312 66.7199,11.218 L68.9995,11.218 L68.9995,11.2178 Z" id="Shape"></path>
                    <path d="M83.5396,0.2578 L90.4795,0.2578 C91.7598,0.2578 92.7861,0.5513 93.5596,1.1377 C94.3325,1.7246 94.7198,2.6108 94.7198,3.7974 C94.7198,4.5176 94.5426,5.1343 94.1895,5.6475 C93.836,6.1612 93.3326,6.5577 92.6797,6.8374 L92.6797,6.8774 C93.5596,7.0644 94.2261,7.4809 94.6797,8.1274 C95.1328,8.7744 95.3594,9.5844 95.3594,10.5576 C95.3594,11.1177 95.2598,11.6411 95.0596,12.1274 C94.8594,12.6142 94.5459,13.0346 94.1197,13.3877 C93.6929,13.7412 93.1461,14.021 92.4796,14.2275 C91.8126,14.4345 91.0196,14.5376 90.0997,14.5376 L83.5396,14.5376 L83.5396,0.2578 Z M86.0396,6.2378 L90.1197,6.2378 C90.7198,6.2378 91.2198,6.0674 91.6197,5.7275 C92.0196,5.3876 92.2198,4.8974 92.2198,4.2578 C92.2198,3.5376 92.0396,3.0312 91.6798,2.7378 C91.3194,2.4443 90.7994,2.2974 90.1197,2.2974 L86.0396,2.2974 L86.0396,6.2378 Z M86.0396,12.4976 L90.4595,12.4976 C91.2198,12.4976 91.8096,12.3013 92.2295,11.9078 C92.6494,11.5147 92.8594,10.9576 92.8594,10.2379 C92.8594,9.5314 92.6494,8.9879 92.2295,8.6075 C91.8096,8.2276 91.2197,8.0377 90.4595,8.0377 L86.0396,8.0377 L86.0396,12.4976 Z" id="Shape"></path>
                    <path d="M96.1597,4.1978 L98.6597,4.1978 L101.3594,11.9175 L101.3994,11.9175 L104.0195,4.1978 L106.3994,4.1978 L102.3794,15.0977 C102.1929,15.564 102.0098,16.0108 101.8296,16.4375 C101.6494,16.8642 101.4297,17.2407 101.1694,17.5674 C100.9096,17.8941 100.5859,18.1543 100.1997,18.3477 C99.8125,18.5406 99.3198,18.6377 98.7197,18.6377 C98.186,18.6377 97.6596,18.5977 97.1396,18.5176 L97.1396,16.5977 C97.3261,16.6241 97.5063,16.6543 97.6796,16.6875 C97.8525,16.7207 98.0326,16.7378 98.2196,16.7378 C98.4862,16.7378 98.7059,16.7041 98.8793,16.6377 C99.0526,16.5708 99.1962,16.4741 99.3095,16.3477 C99.4228,16.2207 99.5195,16.0708 99.5995,15.8975 C99.6795,15.7242 99.7528,15.524 99.8197,15.2974 L100.0795,14.4976 L96.1597,4.1978 Z" id="Shape"></path>
                </g>
            </g>
            <g id="TA_logo_newGreen_primary" transform="translate(0.000000, 29.000000)">
                <path d="M10.1946772,7.4420242 C15.7339242,6.7274558 31.449448,6.2352158 27.1438599,28.944087 L32.0274901,28.546779 C29.8882385,14.5489853 34.3628759,7.411728 48.3548214,6.7274558 C25.1485299,-6.12318432 11.9359527,7.21728148 10.1946772,7.4420242 Z" id="Shape" fill="#FAC415"></path>
                <path d="M31.7985985,25.3479457 C34.343836,32.2344095 41.9895273,35.7539068 48.8761759,33.2091692 C55.7628244,30.6644315 59.2828767,23.0189956 56.7386388,16.1321624 C54.194401,9.24532923 46.5492207,5.72472205 39.6622028,8.26846 C32.7756169,10.8147149 29.2555542,18.4601735 31.7985985,25.3479457 Z" id="Shape" fill="#FFFFFF"></path>
                <circle id="Oval" fill="#FFFFFF" cx="14.7976603" cy="20.6869954" r="13.2967736"></circle>
                <circle id="Oval" fill="#EE6946" cx="14.6068704" cy="20.556798" r="2.4578012"></circle>
                <circle id="Oval" fill="#00AF87" cx="44.2369759" cy="20.556798" r="2.45672296"></circle>
                <path d="M56.1367373,11.93096 C56.7551408,9.80633965 57.7390556,7.80573514 59.0443286,6.0189232 L49.1769559,6.01134036 C43.2761607,2.31690404 36.4292009,0.416204921 29.468393,0.540292 C22.337035,0.387528053 15.3152539,2.3126985 9.2589758,6.08113296 L0,6.08630148 C1.29344558,7.85951124 2.27241956,9.84188785 2.89414852,11.9468172 C-1.8740377,18.4238725 -0.583439947,27.5254023 5.79746265,32.4215158 C12.1783653,37.3176293 21.3037718,36.2083763 26.3258742,29.9261527 L29.4725301,34.637288 L32.6495174,29.8865508 C37.6427883,36.2590008 46.832793,37.4298648 53.2643912,32.5130144 C59.6959895,27.596164 60.9764665,18.42079 56.1367373,11.93096 Z M43.79764,5.970168 C36.2488209,6.18946361 30.0877911,12.080452 29.5306027,19.611873 C28.9693701,12.0068661 22.7182923,6.0750553 15.0943286,5.9129158 C19.6480067,4.02091051 24.5375331,3.0701954 29.468393,3.11803568 C34.392878,3.04341558 39.277055,4.01557546 43.79764,5.970168 Z M14.798047,32.4869727 C10.0243338,32.4874609 5.72045366,29.6120678 3.89356271,25.2017608 C2.06667175,20.7914538 3.07660352,15.714909 6.45236657,12.339622 C9.82812961,8.96433505 14.9048169,7.95511929 19.3148661,9.78263226 C23.7249154,11.6101452 26.5997014,15.9144309 26.59854,20.688144 C26.5899123,27.2015297 21.3114339,32.4792636 14.798047,32.4869727 Z M48.3572357,31.8172099 C42.2421687,34.071123 35.4572529,30.9449051 33.1972399,24.8320899 L33.1972399,24.82882 C30.9421076,18.7137086 34.0708571,11.9282343 40.1857463,9.67249943 C46.3006355,7.41676461 53.086418,10.5448456 55.3427553,16.6595125 C57.5990926,22.7741794 54.4716803,29.5602701 48.3572357,31.8172099 Z" id="Shape" fill="#000000"></path>
                <path d="M14.6155315,13.2546168 C11.6607798,13.2503063 8.99459654,15.0269512 7.86098349,17.7555951 C6.72737044,20.484239 7.34974364,23.6271122 9.43771294,25.7177963 C11.5256822,27.8084805 14.667744,28.434937 17.3978586,27.3048705 C20.1279733,26.174804 21.9080811,23.5109316 21.90761,20.5561768 C21.9009886,16.5300812 18.6416151,13.2664697 14.6155315,13.2546168 Z M14.6155315,25.3446758 C12.6782947,25.3484838 10.9296784,24.1844918 10.1856187,22.3958398 C9.44155912,20.6071878 9.84871073,18.54642 11.2170892,17.1751283 C12.5854677,15.8038365 14.645365,15.3923032 16.4355953,16.1325572 C18.2258257,16.8728111 19.3935338,18.6189481 19.3938458,20.5561885 C19.3878223,23.1943315 17.2536557,25.3330417 14.6155315,25.3446758 Z" id="Shape" fill="#000000"></path>
                <path d="M44.2369759,13.2546168 C41.282848,13.253095 38.6187784,15.0315101 37.4873374,17.7603772 C36.3558964,20.4892442 36.979973,23.6309883 39.0684866,25.720243 C41.1570002,27.8094977 44.2985226,28.434689 47.0277909,27.3042163 C49.7570593,26.1737436 51.5364195,23.5103051 51.5359458,20.5561768 C51.530642,16.5268463 48.2663042,13.2613502 44.2369759,13.2546168 Z M44.2369759,25.3446758 C42.3004466,25.3453442 40.5542143,24.1793627 39.8126012,22.3904647 C39.0709881,20.6015667 39.4800548,18.5420754 40.8490409,17.1723954 C42.218027,15.8027154 44.2773107,15.392605 46.0665843,16.1333115 C47.8558579,16.8740179 49.0227242,18.6196591 49.0230372,20.5561885 C49.0196441,23.1984435 46.8792289,25.3399437 44.2369759,25.3446758 Z" id="Shape" fill="#000000"></path>
                <path d="M209.704237,4.35086248 C209.70537,5.92267031 210.980255,7.19607839 212.552063,7.19538822 C214.123871,7.19469806 215.397638,5.9201709 215.39739,4.34836268 C215.397143,2.77655446 214.122974,1.50242899 212.551166,1.50223444 C210.979036,1.504283 209.705348,2.77873217 209.704237,4.35086248 Z" id="Shape" fill="#00AF87"></path>
                <path d="M74.5005943,4.15319296 L70.1883258,5.63938272 L70.1883258,11.2718858 L65.404843,11.2718858 L65.404843,15.0481401 L70.05044,15.0481401 L70.05044,27.1709214 C70.05044,32.9414743 72.0187085,35.2920141 76.837492,35.2920141 C78.0413556,35.2957 79.2403026,35.1383267 80.4024347,34.8240814 L80.5909861,34.7727243 L80.5379062,30.8627214 L80.2054332,30.97889 C79.4833393,31.2666194 78.7188877,31.4337881 77.942606,31.4737201 C75.6796146,31.4737201 74.8371458,30.1946931 74.8371458,26.7567483 L74.8371458,15.0481401 L80.3586488,15.0481401 L80.3586488,11.2718858 L74.8371927,11.2718858 L74.8371927,4.03702432 L74.5005943,4.15319296 Z" id="Shape" fill="#000000"></path>
                <path d="M89.424983,15.0960515 L89.424983,11.2718858 L85.052251,11.2718858 L85.052251,34.8804428 L89.8372808,34.8804428 L89.8372808,23.0294601 C89.8372808,18.0591488 91.9218938,15.3232202 95.7064107,15.3232202 C96.2907757,15.328624 96.8712903,15.4184808 97.4299422,15.5900026 L97.7437921,15.67843 L97.8987422,11.015253 L95.8418822,10.8579002 C93.0520341,10.8741272 90.5350549,12.5365093 89.424983,15.0960515 Z" id="Shape" fill="#000000"></path>
                <path d="M123.586709,10.7189714 C120.369447,10.6950273 117.375367,12.3603021 115.698668,15.1062127 L115.698668,11.2718858 L111.32501,11.2718858 L111.32501,44.49791 L116.11263,44.49791 L116.11263,31.6152157 C117.791131,33.9598963 120.523154,35.3195481 123.40574,35.2447942 C129.458253,35.2447942 133.3674,30.2881015 133.3674,22.6154628 C133.3674,15.4991843 129.438094,10.7189714 123.586709,10.7189714 Z M122.255317,31.3803 C118.468209,31.3803 116.112654,28.1454042 116.112654,22.93604 C116.112654,17.9195401 118.596954,14.677753 122.439555,14.677753 C126.140848,14.677753 128.349881,17.7478656 128.349881,22.892301 C128.349857,28.1285157 126.014612,31.3803 122.255281,31.3803 L122.255317,31.3803 Z" id="Shape" fill="#000000"></path>
                <path d="M147.352454,10.7189714 C144.645023,10.6726587 141.963097,11.2485165 139.513321,12.4021743 L139.365274,12.4711114 L139.419046,16.5570784 L139.791847,16.3483452 C141.701305,15.1861581 143.876533,14.5322315 146.11031,14.4488614 C149.575117,14.4488614 151.562009,16.4357412 151.562009,19.9014156 L151.562009,20.104277 L148.82608,20.104277 C140.946443,20.104277 136.609011,22.9579212 136.609011,28.1386769 C136.609011,32.296007 139.73722,35.2010083 144.222699,35.2010083 C147.239523,35.3134815 150.113309,33.9122531 151.882586,31.4661256 L151.882586,34.8804428 L156.21261,34.8804428 L156.21261,20.5889342 C156.21261,14.0398685 153.233316,10.7189714 147.352454,10.7189714 Z M151.562009,24.915548 C151.562009,28.9853063 149.115634,31.6093908 145.325937,31.6093908 C144.301057,31.6869095 143.290862,31.3295871 142.54266,30.6249002 C141.794458,29.9202133 141.377318,28.9332138 141.393362,27.905531 C141.393362,25.0425811 144.130157,23.4670966 149.100434,23.4670966 L151.562009,23.4670966 L151.561973,24.915548 L151.562009,24.915548 Z" id="Shape" fill="#00AF87"></path>
                <path d="M176.547326,0 L176.547326,14.476544 C174.886834,12.0474902 172.103618,10.6312964 169.162554,10.7189245 C163.314614,10.7189245 159.386175,15.5370165 159.386175,22.706246 C159.386175,30.0901858 163.367529,35.2447473 169.071724,35.2447473 C172.296868,35.3253818 175.307356,33.6339739 176.916037,30.8375116 L176.916037,34.880396 L181.335848,34.880396 L181.335848,0 L176.547361,0 L176.547326,0 Z M170.316423,31.2868799 C166.668233,31.2868799 164.401784,28.1057672 164.401784,22.9832599 C164.401784,17.8547051 166.687524,14.5405469 170.222147,14.5405469 C174.18421,14.5405469 176.547326,17.6973641 176.547326,22.9832599 C176.547326,28.02838 174.10094,31.2868799 170.316423,31.2868799 Z" id="Shape" fill="#00AF87"></path>
                <polygon id="Shape" fill="#00AF87" points="202.7267 11.2718858 195.934444 24.8969015 189.663213 11.2718858 184.267864 11.2718858 195.838622 34.8804428 207.724108 11.2718858"></polygon>
                <polygon id="Shape" fill="#00AF87" points="214.699711 11.2718858 210.164599 11.2718858 210.164599 34.8804428 214.95393 34.8804428 214.95393 11.2718858 214.699711 11.2718858"></polygon>
                <path d="M220.565407,17.3245743 C220.565407,20.6478858 222.848745,22.3957128 227.058111,24.4517173 C229.715797,25.7586731 231.105309,26.5261573 231.105309,28.3675802 C231.105309,30.2510546 229.396087,31.4737201 226.755302,31.4737201 C224.662005,31.4192886 222.608109,30.8922493 220.747243,29.9320244 L220.396335,29.7620844 L220.23638,33.9211257 L220.403906,33.9892072 C222.368114,34.7626398 224.460736,35.1581131 226.571731,35.1548315 C232.426563,35.1548315 236.211092,32.3649558 236.211092,28.0452685 C236.211092,24.4417084 233.813484,22.6180412 229.668741,20.6806315 C226.62637,19.2575188 225.35407,18.419363 225.35407,16.9095457 C225.35407,15.468853 226.769589,14.5405586 228.962658,14.5405586 C230.948661,14.5425321 232.908885,14.9903437 234.698731,15.8509601 L235.04051,16.0141728 L235.25767,11.9367848 L235.064114,11.877845 C233.174755,11.3068445 231.213317,11.0095529 229.239614,10.995036 C224.05124,10.9950711 220.565407,13.5374673 220.565407,17.3245743 Z" id="Shape" fill="#00AF87"></path>
                <path d="M251.140473,10.7189714 C243.94594,10.7189714 239.477174,15.4536756 239.477174,23.0758127 C239.477174,30.6979499 243.94594,35.4333807 251.140473,35.4333807 C258.365337,35.4333807 262.855129,30.6978092 262.855129,23.0758127 C262.855129,15.4538162 258.365337,10.7189714 251.140473,10.7189714 Z M251.186661,31.5200727 C247.21289,31.5200727 244.539183,28.1057554 244.539183,23.0294484 C244.539183,17.9262557 247.21289,14.4952257 251.186661,14.4952257 C255.22801,14.4952257 257.837586,17.8428327 257.837586,23.0294484 C257.837586,28.1866 255.227999,31.5200727 251.186661,31.5200727 Z" id="Shape" fill="#00AF87"></path>
                <path d="M271.687356,15.0960515 L271.687356,11.2718858 L267.316136,11.2718858 L267.316136,34.8804428 L272.101412,34.8804428 L272.101412,23.0294601 C272.101412,18.0591488 274.188416,15.3232202 277.968807,15.3232202 C278.553208,15.3281847 279.133785,15.4180512 279.692338,15.5900026 L280.007056,15.67843 L280.163553,11.015253 L278.106001,10.8579002 C275.315855,10.8745464 272.798571,12.5366774 271.687356,15.0960515 Z" id="Shape" fill="#00AF87"></path>
                <polygon id="Shape" fill="#000000" points="106.431383 11.2718858 101.895227 11.2718858 101.895227 34.8804428 106.68457 34.8804428 106.68457 11.2718858 106.431418 11.2718858"></polygon>
                <path d="M101.43333,4.35086248 C101.433984,5.92326405 102.709048,7.19749616 104.28145,7.19712298 C105.853852,7.1967498 107.128311,5.92191262 107.128219,4.34951091 C107.128126,2.7771092 105.853516,1.50242226 104.281114,1.50223444 C102.709047,1.50476517 101.435395,2.77879412 101.43333,4.35086248 Z" id="Shape" fill="#000000"></path>
                <g id="Group" opacity="0.5" transform="translate(283.624000, 5.860000)" fill="#00AF87">
                    <path d="M8.179388,2.07598704 C8.96056302,2.87391724 9.39124902,3.95044662 9.376,5.06700136 C9.39331036,6.21067337 8.93414232,7.31001543 8.10851716,8.10161408 C7.30429554,8.8924344 6.2236659,9.33890525 5.09578568,9.3463484 C3.94790379,9.34650104 2.850264,8.87553199 2.0594384,8.04352976 C1.2739227,7.25176916 0.832143128,6.18229885 0.82988148,5.06698964 C0.833391499,3.90967059 1.30116884,2.8021642 2.128352,1.99273988 C2.91586396,1.20896781 3.98473188,0.773646167 5.09575052,0.78419692 C6.25781347,0.771004305 7.37370239,1.23846985 8.179388,2.07598704 Z M2.66960504,2.54478704 C1.99498929,3.21057006 1.61569055,4.11917626 1.61670368,5.06700136 C1.63101205,6.98453471 3.1783506,8.53739327 5.09582084,8.55853 C6.02072035,8.55770926 6.90887311,8.1963898 7.57167084,7.55130148 C8.92961453,6.19309187 8.9498535,3.99760426 7.6171796,2.61459136 C6.96101314,1.93461306 6.05505049,1.55294602 5.11011924,1.5584084 C4.19688917,1.54471757 3.31683116,1.90040405 2.66956988,2.54478704 L2.66960504,2.54478704 Z M5.17838824,2.62544408 C6.52736024,2.62544408 7.20731948,3.10768692 7.20731948,3.98634704 C7.21518936,4.59078645 6.80014979,5.11875545 6.21094368,5.25382988 L7.25285168,7.31551852 L5.83645452,7.31551852 L4.95608328,5.45321052 L4.57913292,5.45321052 L4.57913292,7.31551852 L3.29147996,7.31551852 L3.29147996,2.62544408 L5.17839996,2.6254558 L5.17838824,2.62544408 Z M4.57909776,4.68989864 L5.03945936,4.68988692 C5.60167948,4.68988692 5.8819164,4.4904594 5.8819164,4.08062272 C5.8819164,3.62441 5.5889164,3.43689 4.96878776,3.43689 L4.57909776,3.43689 L4.57909776,4.68989864 Z" id="Shape"></path>
                </g>
            </g>
        </g>
    </g>
</svg>