<?xml version="1.0" encoding="utf-8"?>
<!-- Generator: Adobe Illustrator 18.1.1, SVG Export Plug-In . SVG Version: 6.00 Build 0)  -->
<svg version="1.1" id="Livello_1" xmlns="http://www.w3.org/2000/svg" xmlns:xlink="http://www.w3.org/1999/xlink" x="0px" y="0px"
	 viewBox="38 86.4 526.2 278.6" enable-background="new 38 86.4 526.2 278.6" xml:space="preserve">
<g>
	<path fill="#1F1D21" d="M255.1,184.2c-0.8-3.6-1.6-4.4-3.2-4.4s-1.6,1.2-3.2,7.1c-7.5,31-14.7,56.4-15.9,61.9
		c-4.8,20.2-5.6,23.8-5.6,27c0,2.8,0.8,5.2,6.4,6c4.4,0.8,7.1,0.8,7.1,3.2c0,2-1.2,2.4-3.6,2.4c-3.6,0-8.3-0.8-13.5-0.8
		c-9.9,0-11.1,0.8-12.3,0.8c-1.6,0-2.4-0.8-2.4-2.4c0-4.4,6.7-1.6,8.7-7.5c12.3-36.9,22.6-84.1,34.1-125.8c1.2-4.4,2-6.7,4.4-6.7
		c2.4,0,2.8,1.2,3.6,5.2c10.7,38.9,18.7,66.3,34.5,123.4c1.2,4,3.2,7.5,5.6,8.7c2.8,0.8,6.7,1.2,6.7,3.6c0,1.2-1.2,1.6-4.8,1.6
		c-4.8,0-8.3-0.8-13.5-0.8c-5.6,0-11.5,0.8-15.5,0.8c-2,0-3.6-0.8-3.6-2.4s2.4-2.8,5.6-2.8s5.6-0.8,5.6-5.6c0-2.4-2-8.7-7.1-28.2
		C271.7,244.9,261.4,209.6,255.1,184.2z"/>
	<path fill="#508DCF" d="M354.7,235.4c0.8-3.6,1.2-13.5,0.4-17.1c-0.8-4-1.2-7.9-2-11.9c-0.8-3.6,0-6.4-0.8-9.9
		c-0.8-2.4-1.6-5.6-2-7.9c-0.8,0.4-0.4,0-0.8,0.4c-1.6-2-1.6-7.5-2.4-10.3c-3.2-9.9-7.1-19-11.9-27.8c-1.6-3.2-2.8-7.9-5.6-9.9v-0.4
		h-0.4c0.4,1.2,1.2,2,1.6,3.2c-2.8-2-4.8-5.6-6.7-8.3c-2.4-3.2-5.2-6.7-7.5-9.9c-0.8-1.2-2.4-2-3.6-3.6h-0.4c0.8,1.6,2.4,3.2,3.6,4
		v0.4c-3.2-2-5.6-6-8.7-7.9c-2-1.6-4.8-2.4-6.7-4.4c3.2-1.6,5.2-4,7.9-5.6V108c-4,0.8-7.5,3.6-11.5,4c-1.6-2-4.4-2.8-6.4-4.8
		c0,0-0.8,0-0.4-0.4h0.4v-0.4c-2.4-0.8-4.4-2.4-6.4-3.6c-2.4-1.6-6-2.8-8.3-4c-7.9-3.6-16.7-6.4-25.4-8.7c-2.8-0.8-5.2-0.4-7.9-1.2
		c-30.6-7.5-66.7,2.8-85.7,14.3c-4,2.4-7.5,4-10.7,6.7c-2.4,1.6-4.4,4-6.7,5.6c-1.6,1.2-3.2,2-4,3.6h-0.4v0.4c0.8-0.4,0.4,0,0.8-0.4
		h0.4c-2.8,4-7.1,6.4-9.9,10.3c-4.4,0-9.9-0.4-14.3-1.2c-3.2-0.8-5.6,0.8-8.7,0.8c1.6,1.2,3.6,0,6,0.8c1.6,0.4,3.2,2.4,4,3.6
		c0.4-0.4,0-0.4,0-1.2c1.6,0,2.8,0.8,3.6,0.4h0.4c0,0.8,0,0.8-0.4,1.2c0.4,0.8,2.8,0.8,3.6,1.6c-4,2.4-3.2,6-5.6,9.5
		c-0.8,1.2-2.4,2.4-3.2,3.6c-2.4,3.2-4.4,7.1-6,10.7c-1.6,3.2-2.8,8.3-4.8,10.7v0.4h-0.4l0.4-2c-2,2.8-2.4,9.5-3.6,13.1
		c-0.8,2.4-2,4.8-2.8,7.1c-0.8,3.6-1.2,7.5-2,11.1c-0.8,4,0,7.5-0.8,11.9c-0.4,1.6-0.8,9.9-0.4,11.9c0.8,3.6-0.4,7.9,0.4,11.9
		c0.4,3.6,0.8,7.5,1.6,11.1c-5.2,0-10.3,1.2-15.1,2.4c-2.4,0.4-4,0.4-6,0.8c-6.7,2-13.9,2.8-20.2,4.8c-6,1.6-13.1,2-17.1,5.6H36
		c2.4,1.2,7.9-3.2,11.9,0.4h1.2c0-0.4-0.4-0.4-0.4-0.8c1.2-0.4,3.6-0.4,4.4-1.2c0.8,0.4,0.4,0.4,0.4,1.6c1.2-0.4,2.8-1.2,3.6-0.4
		c1.2,0,1.6-0.4,1.6-1.6c1.6,0.4,3.6,0.4,4.8,1.6c0.4-0.4,0-0.4,0-0.8c3.6,0,6.4-0.4,8.7-0.4c0,0.4,0,0.4,0.4,0.8
		c0.8,0.4,3.2-0.4,4.8-0.4c-0.4,0.4-0.8,0.8-1.6,1.2v0.4c1.6,0,2.8-0.4,3.6-1.2c1.2-0.4,1.6-2.4,2-3.6c0.8-0.4,1.6-0.4,2.4-0.8
		c0.8,0,0.4,0.8,1.2,0.4c0,0,0.8-0.8,1.2-0.8c0.8,0,1.6,0.4,2.4,0.4c0.8-0.4,1.6-1.6,2.8-1.6c1.2-0.4,2.4,0,3.2-0.4h1.2
		c1.6,7.9,3.6,15.5,6.7,22.2c1.2,2.8,1.6,6,3.6,7.9v0.4c0.4-0.4,0-0.4,0.4-0.8c1.6,3.6,3.6,7.1,5.2,10.7c4.4,7.1,8.7,13.5,13.9,20.2
		c1.2,1.2,2.8,2.4,3.6,3.6c4.4,5.6,11.5,12.7,17.1,16.7c3.2,2.4,7.5,4.4,10.3,7.1c0.4,0,0.4,0,0.4,0.4c-6,2.8-15.9,7.9-19.4,13.1
		h-0.4v0.4c2.8-0.4,6.4-4.8,9.9-2.4h0.4v-0.4c-0.4,0-0.4-0.4-0.8-0.4h-0.4v-0.4c1.2-0.4,2.4-0.8,3.2-1.6c0.8,0.4,0.8,0.4,0.8,1.2
		c1.2-0.4,1.6-0.8,3.6-0.8c0-0.4,0.4-0.8,0.4-1.6c1.2-0.4,2.8-0.4,3.6,0.4h0.4c0-0.4,0-0.4-0.4-0.4c1.6-1.2,4.4-2,5.6-0.8
		c0.4-0.8,0-0.4,0.8-0.8c0.8-0.4,6.4,1.2,7.9,2.8h0.8v-0.4c-1.2-0.4-2-1.2-3.6-1.6c0.4-0.8,1.6-1.2,2-2.4c0.4-0.8-0.4-1.2,0-2
		c0.4-0.8,1.6-2.4,2.4-2c0,0,0,0.8,0.4,0.4s0.4-0.8,0.8-1.2h2.4l0,0c0.8-0.4,2-1.6,2.8-1.6c3.2-1.2,6.7-1.2,9.1-3.2
		c5.6,0,8.3,5.6,10.7,8.7c0.8,1.6,3.2,2.8,4.8,4c0.8,1.2,2,2,2.8,3.2c3.6,2.8,6.7,5.6,10.7,7.5c-1.2,0.8-5.2,0.4-6.4,0.4
		c1.6,1.2,6.7,0.4,8.3,0.8c-1.2,0.8-3.6,0.8-5.6,0.4c1.6,0.8,6.4-0.4,6.4-0.4c3.2,1.2,6.4,3.2,10.3,4c7.5,2,18.3-1.2,22.6-4
		c1.2-0.8,2.4-2.4,3.6-3.2c1.6-0.8,2.8-0.8,4.4-1.2c3.6-1.2,7.5-1.6,11.5-2.8c2-0.4,4-1.6,6.4-1.6c-0.8-0.4-1.2-0.4-2,0
		c1.2-1.6,3.6-2,5.2-2.8c2.8-1.6,5.2-3.6,7.9-4.8v-0.4c0.4,0.4,0.4,0.4,0.4,1.6c2.4-0.8,4-3.2,6-4.4c2-1.2,4-1.6,5.6-3.2
		c0.8-0.4,0.8-2,1.2-2.4c0.8-1.2,9.9-7.1,11.5-7.5c-0.4-0.4-0.4-0.4-0.4-0.8c1.6-0.8,3.2-2.8,4-4c6,0,12.7,0,17.9-0.4
		c-1.6-1.2-12.3-2.8-15.1-2.8c1.2-1.6,4.4-6,6-6.7c0.4,0,0.4,0,0.8,0.4c0.8-1.2,1.6-4,2.8-5.2c0.8-0.8,1.6-0.4,2.4-0.8
		s0.8-2.4,1.6-3.2c1.6-2.4,3.2-6.4,5.2-8.7v-0.4h0.4c-0.4,0.8-0.4,1.6-0.8,2.4v1.6h0.4c1.2-4.4,4.4-8.3,5.6-13.1
		c0.4-1.6-1.2-3.6-0.4-6s1.2-6.7,2.8-8.7v-0.4c0,0,0.4,0,0.4,0.4c0.8-2,0.4-4,0.8-6s2-4,2.4-6v-5.2c1.2-4.8,0.8-10.3,1.6-15.1v-4
		L354.7,235.4L354.7,235.4z M237.6,100.1c2-0.4,4.8-2,7.1-1.2c6,1.6,17.5,4.8,21,7.9c0.8-0.4,0.4,0,0.4-0.8
		c3.2,0.8,11.9,4.4,13.9,6.4c-0.8-0.4-2-0.4-2.8-0.8c2.4,2.4,6,3.6,8.3,5.6c-1.2-0.4-2-0.4-3.2-0.8c0.4,0.4,1.6,0.8,2,1.6
		c0.4,0,0.4,0,0.4,0.4c-4.8,2-9.5,5.6-13.9,6.7c-0.8,0.4-1.2-0.4-1.6-0.4c-1.2,0-3.2,2-4,2.4c-3.2,1.2-6.4,2-9.9,3.2
		c-4-1.2-5.2-10.7-7.5-13.9v-0.4c-0.4,0.4-0.4,0.8-0.4,1.6c-2.4-1.6-3.6-4.8-6-6.7c0.4-0.8,0.4-0.8,0.8-1.2h0.4
		c-0.8-0.8-2.4-1.6-3.2-2.4s-2-3.6-2.8-4h-1.2c-0.4,0-3.6-4-3.6-4.4C233.3,99.3,235.2,100.5,237.6,100.1z M192.8,106.4
		c1.2-0.8,2.4-2.8,3.6-3.6c3.2-1.6,7.5-1.2,11.1-2c2.4-0.8,9.5-2.4,12.7-1.6s6.4,2.8,8.7,4.4c5.6,3.6,12.7,9.9,16.7,15.5
		c2.4,3.2,4.8,8.3,8.3,10.7c-0.8,1.6-4,1.2-5.6,2h-0.8c0.4-0.4,0.4-0.4,0.4-0.4v-0.8c-0.4,0.4,0,0-0.4,0.4s-0.8,1.2-1.2,2
		c-0.4,0-0.8,0-1.6,0.4v-1.6c-0.8,0.4-1.2,0.8-2,1.2c-1.6,0.4-3.2-0.4-4.4,0.4c-0.8,0-0.4,0-0.4-0.4c-0.4,0-0.8,0-1.2,0.4
		c0-0.4,0.4-0.8,0.4-0.8v-0.4c-1.6,0.4-2.4,0.4-3.6-0.4c-1.2,0.4-0.4,0-0.4,1.6c-0.4,0.4,0,0-0.4,0.4c-1.2,0-1.2,0-2-0.4
		c-0.4,0.8-0.8,0.8-1.2,1.6h-1.2c0.4-0.4,0.8-0.8,1.2-1.2v-0.4c-1.2,0-3.2,0-3.6,0.4c-0.8,0.4-0.4,0.8-0.4,1.6c-0.8,0-0.8,0-1.2-0.4
		h-0.4c0-1.2,0.4-1.6,0-2c0.4-1.6,3.6-2.4,5.2-2.4c-1.6-0.8-3.2,0.8-4.8-0.4c-0.4-0.4,0,0,0-0.4c-5.6,0-9.1,2-13.9,2.4
		c0.4,0.4,0.8,0.4,1.6,0.4c-1.2,0.8-2,0-2.8-0.4c-0.4,0.8-1.2,2-2,2.4c-0.8,0.4-5.6,0-6.4-0.8c-0.8,0.4-0.4,0-0.4,0.8
		c-1.2,0-2,0-2.8,0.4h-1.6v-0.4c0.4,0,0.4,0,0.4-0.4h0.4c-0.8-0.4-2.4-0.8-3.2-0.8c0.4-0.4,0.4-0.4,0.8-0.8c-2-1.2-9.9,0.4-13.5,0.8
		v-0.8c-0.4,0-1.2,0.4-1.6,0.4h-2.4C181.7,121.5,184.8,112.4,192.8,106.4z M142.8,123.1C142.8,122.7,142.8,123.5,142.8,123.1
		l0.4,0.4c0.8-0.8,1.6-1.6,2.4-2.8h0.4c-0.4,0.8-0.8,1.6-1.6,2.4v0.4c3.6-2.4,6.7-6,11.9-7.1c-0.4-0.8,0,0-0.4-0.4
		c0.4-2,3.6-4,5.6-4.8h1.6c0.8-0.8,1.2-1.6,2-2.4c1.6-1.2,3.6-1.6,4.8-2.8h0.4c-0.8,1.2-2,1.6-2.4,2.4h-0.4v0.4
		c1.6-0.4,3.2-2,4.8-2.4c2.4-1.2,5.2-2,7.5-2.8v-0.4h0.4c-0.4-0.4-0.4,0-0.8-0.4v-0.4c2-0.8,4-2,6.7-2c-0.4,1.6-0.8,1.6,0,2.4
		c-2.8,0.8-11.1,4.8-12.7,6.4h-0.4v0.4c2.4-0.8,4.4-2.4,6.7-3.2c1.2-0.4,2.4,0,3.6-0.4h0.8c0,0.4,0,0.4-0.4,0.8s0,0-0.4,0.4
		c-1.6,4.8-6.4,10.7-8.7,15.5c-1.2,2.4-2,4.8-2.8,7.1c-0.4,0.8,0,2-0.4,2.4s0,0-0.4,0.4c0-0.4-0.4-0.4-0.4-1.2
		c-0.8,0-8.7-0.4-8.7-0.4l-1.6,1.2c-2.4,0.8-6.7,0.8-9.5,0.4c-2.8-0.8-13.5-2.4-15.1-1.6h-1.2C135.6,129.4,140.8,123.9,142.8,123.1z
		 M97.9,203.7c1.2-4.8,0.8-8.7,2.4-13.1c3.2-9.5,6.4-18.7,9.9-27.4c1.6-3.6,4-7.5,6-10.7c0.8-1.6,2.4-2.8,3.2-4.4h0.4
		c0,0.4-0.4,0.4-0.4,0.8v1.6h0.4c0.8-1.6,0.4-2.8,1.2-4.8c1.6-2,2.8-4,4.4-6c0.4,0.4,0.4,1.6,0.4,2.4c1.2-1.2,2-3.6,2.8-4.8
		c0.8,0,2,0.4,2.4,0.8c0.8,0.4,0.4,0.4,0.8,0.8c0.4,0,0,0,0.4-0.4c0.8,0,0.8,0,1.2,0.4v1.2c1.6,0,3.2,0,4,0.4
		c-0.4,0.4-0.8,0.4-1.6,1.2h-0.4v0.4h3.6c0.8-0.8,1.6-2.8,2.8-3.2c1.6-0.8,4.4,0.8,5.2,1.2c1.2,0.4,4-1.2,6-0.4
		c0.8,0.4,2.8,0.8,3.6,0.8c1.6,0,3.2,0,4.8-0.4c1.6,0.4,2.8,1.2,5.2,1.6c0,1.6-0.8,4-1.6,4.8c0.4,0.4,0.4,0.4,1.2,0.4
		c-2.8,6.4-3.6,13.5-5.6,20.2c-0.8,2.4-3.2,6.7-2.8,8.7v1.6c0.4-0.4,0.4-1.2,0.4-2c1.6,2-0.8,12.7-1.6,14.3c0,0.8,0,1.6,0.4,2v0.4
		c0.4-0.8,0.4-2.4,0.4-3.6h0.4c0.8,2.8-0.8,9.1,0.8,11.9v7.1c-0.4-0.4,0,0-0.4-0.4h-0.4c0.8,6.7,0.4,15.1,2,21.8
		c0.4,2.4-0.4,5.2,0.8,7.1c-0.4,0.8-0.4,0.8-0.4,1.2c-2,0-6,0.4-7.5-0.4c-0.4,0-4,1.2-4.8,2H146v-0.4c0.4,0,0.4,0,0.4-0.4h0.4
		c-0.8-0.4-3.2-0.4-4-0.4c0.4-0.4,0.8-0.8,1.2-1.2v-0.4c-5.6,0.4-10.3,2.8-16.7,3.6V239c-4.4,2.4-9.9,1.6-13.1,4.8
		c-1.2,0-1.6,0-2-0.8c-2.8,0.4-10.3,1.2-11.9,2.8c-2-1.2-1.2-9.9-1.6-12.7c-1.6-11.5,1.2-23.8,1.6-34.5c-1.6,2-0.8,5.2-1.6,7.9
		c-0.4,2.4-0.8,5.6-1.2,7.9v4c-0.8,3.2-1.2,7.5-1.2,10.7c0-1.6,0.4-5.2,0.4-7.5C96.7,215.2,96.7,208.8,97.9,203.7z M100.7,244.5
		c0,0.4,0,0.4-0.4,0.8v0.4h-0.4c0-2.4-0.4-4.4-0.4-6.7C100.3,240.6,99.9,243.3,100.7,244.5z M98.3,246.1c0-3.6-2.8-14.3-1.2-16.7
		c0.4-0.4,0,0,0.4-0.4c1.6,4.4,0,12.7,2,15.9c0,0.4,0,0.4-0.4,0.8h-0.8L98.3,246.1L98.3,246.1z M169.8,346.5
		c-0.4,0.4-0.4,0.4-0.4,0.4c-0.8-0.4-0.4,0-0.4-0.8L169.8,346.5L169.8,346.5z M187.2,327.9c-3.6,4.4-10.3,5.2-15.9,7.5
		c-2.8,1.2-6,2.4-8.7,3.6c-0.8,0.4-2.4,2-3.6,1.6c-1.6-0.4-3.2-2.4-4.4-3.6c-3.6-2.8-6.7-5.6-9.9-8.3c-11.9-9.1-21-21-29-34.1
		c-0.8-1.6-0.8-2.8-1.6-4.8c-1.6-4-4.4-8.3-6-12.7c-2.4-5.2-4.4-10.3-6-15.9c-0.8-2.8-0.8-6.4-2.4-8.7c0.4-0.4,0.8-0.4,0.8-0.4
		c2,0,1.6,0.8,2.4,2v0.4h0.4c0-0.8-0.4-1.2-0.4-1.6c0-1.2,0-0.8,0.4-1.6c0.8,0.4,2.4,6.4,2.4,7.9h0.4c0.4-2.4,0-6.4-1.6-7.9v-0.4
		c1.6-0.4,6,0.8,7.5-0.4c0.4-0.4,0-0.4,0.4-0.8c6.3,0,12.3,0.4,17.1,1.6c0.4-0.4,0,0,0.4-0.4c-0.4-0.8,0-0.4-1.2-0.4v-0.4
		c1.2-0.4,3.2-1.6,5.6-0.8c0.8,0.4,2,1.2,3.2,0.4c0.4,0,0.4,0,0.8-0.4c-0.4,0-1.2-0.4-2-0.4c0.8-0.4,2-0.4,3.2-0.4
		c1.6-0.4,2.8-1.6,4.4-2l3.6,0.4c2-0.4,5.2-1.2,7.5-1.6c2.4-0.4,5.2,0,7.1-1.2h0.4c2.8,13.9,4,28.2,8.3,40.5c0.4,1.6,0,2.8,0.4,4
		c1.2,3.2,3.2,11.1,5.2,13.5v0.4c0.4-0.4,0-0.4,0.4-0.8h0.4c1.2,3.6,3.6,6.7,4.8,10.3c0.4,1.2-0.4,2.8,0.4,3.6
		c0.8,1.6,2.4,2,3.6,3.2c0.4,0.8,3.2,6.7,3.6,7.5h-2.4L187.2,327.9L187.2,327.9z M172.1,245.3v-0.4h0.4L172.1,245.3L172.1,245.3z
		 M245.2,360c-3.6,1.2-9.9,2.4-14.7,0.8c-2.4-0.8-5.2-2-7.1-3.2v-0.4h0.4c0.8-0.4,7.5,2.4,9.1,2.8c2.8,0.8,8.3-0.8,10.7-1.2v-0.4
		c-3.6-0.8-7.9,0.8-10.7,0c-7.1-2-19.4-8.7-23-13.9h-0.4c2,3.6,6.4,6.3,9.9,8.7c1.6,1.2,2.4,2.8,4,3.6v0.4
		c-7.1-3.2-14.3-8.7-19-14.7c-2-2.4-3.6-6-6-7.9v-0.4c3.6,0,8.7-1.2,10.7,0.8c0.4,0,0.4,0,0.8-0.4h0.4c-0.4-0.8,0-0.4-1.2-0.4v-0.4
		c0.8,0,1.2-0.8,1.6-0.8c2.4-0.8,4,1.2,5.6,0.4h0.4c-0.4-0.4-0.8-0.4-1.6-0.4c0.4-0.8,1.6-0.4,2.4-0.8c1.2-0.4,2-1.6,3.2-2
		c2-0.4,2.8,0.4,4.8-0.4c2.8-0.8,6.7-1.6,9.9-2.4s6.7,0,9.9-0.4h12.3c2.8-0.4,6.4-0.8,9.1-0.4c-0.4-0.4-0.4-0.4-1.2-0.4v-0.4
		c1.6,0,3.6-0.4,5.2-0.4c0.4,0,0.8,0.8,1.6,1.2c0.4-0.8,1.2-1.2,1.6-1.6c0.8,0,0.8,0,1.2,0.4h1.2c-2.4,5.6-4.8,11.1-6.7,17.1
		C263.4,349.7,255.5,356.4,245.2,360z M230.5,358.4c0.8,0,1.6,0.4,2.4,0.4h1.6v0.4C232.9,359.6,231.3,359.2,230.5,358.4z M303.1,331
		c-2.8,2-5.2,5.2-8.3,7.1c-5.2,3.6-10.7,6.7-15.9,9.9c-4,2-7.9,3.6-11.9,5.6c-2,0.8-4.4,0.8-6,2.4h-0.4c1.2-2,3.6-3.2,4.8-4.8
		c4.8-6,7.9-11.9,11.1-19.8c0.8-2,2-4.4,2.4-6.7h0.4v-0.4h2.4v0.4c-0.4,0-0.4,0.4-1.2,0.4c1.2,0.8,2.4-0.8,3.6-1.2
		c1.2-0.4,2,0.4,2.4,0.4c1.2,0,3.2-0.8,4.4-0.8c1.6-0.4,3.6,0.4,4.8-0.4h12.3c1.6,0,4,0.4,3.6-0.4h0.8
		C311,324.7,305.5,329.1,303.1,331z M347.9,244.5c0,1.6-0.4,2.8-0.4,4.4c-1.2,5.2-2,10.3-3.2,15.1c-3.6,11.5-7.5,22.2-13.1,31.7
		c-1.6,2.4-2.4,5.2-4,7.5c-2.4,3.6-5.6,7.1-7.9,10.7c-1.2,1.6-2.4,3.6-4,4.8c-0.4,0.4-4.8-1.2-6.7-0.4c-2.4,0.8-5.6,0.8-8.7,0.8
		h-2.8c0,0,0-0.8-0.4-0.4c-1.6,0.4-3.6,0.8-5.2,0.8c-2.8,0-7.9-0.8-9.9,0.4h-1.2c1.2-5.2,2.4-10.3,2.4-16.7
		c-1.2,1.6-0.8,4.8-1.6,6.7c-1.2,3.6-2.4,6.7-3.6,10.3c-1.6,0-2.8,0-4-0.4c0.4-0.4,0.4-0.4,0.4-0.4v-0.4c-1.2,0.4-1.2,0.8-1.6,1.6
		H271v-1.6c-2,1.2-6.4,0.4-7.9,0.4c0.4-0.4,0.4-0.4,0.4-0.8c-1.2-0.8-2.4-0.4-3.6-1.6c-0.8,0.4-0.4,0.8-0.8,1.6
		c-1.6,0-1.2-0.4-2-0.8c-0.4,0.8-0.8,0.8-1.6,1.6h-0.8c0.4-0.4,0.8-0.8,1.2-1.2v-0.4c-1.2,0-3.2,0-3.6,0.4s0,0.4,0,1.2
		c-1.2,0-1.2,0-1.6-0.4c0-0.4,0-1.6-0.4-2.4c1.6-0.8,3.2-1.6,5.2-1.6c-1.2-0.8-2,0.4-3.2,0.4c-0.4,0-1.2-0.8-1.6-0.8
		c0.4-0.8,0,0,0.4-0.4V314c-4.4,0-11.5,0.8-13.9,2.4h-0.4c0.4,0.4,0.4,0.4,1.2,0.4v0.4c-1.2,0-1.6,0-2-0.4c-1.6,0-2,1.2-2.4,2.4
		c-1.6,0-5.2,0.4-6.4-0.4c-1.2,0-0.8,0-0.8,0.4c-0.8,0.8-2,0.8-2.8,1.6h-1.6c0.4-0.4,0-0.4,0.8-0.4c-0.8-0.4-2.4-0.4-3.6-0.4
		c0.4-0.4,0.4-0.4,0.8-0.8v-0.4c-1.2,0.4-2.4,0.8-3.6,0c-0.8,0.8-7.9,3.6-9.1,4c-1.2,0.4-0.4-0.8-1.6-0.4c0,0-5.2,1.6-5.6,2
		c-0.8,0.4-3.2,2.8-4.4,3.2c-1.2,0.4-1.2-0.8-3.6,0c-1.2-2.4-2.4-5.2-4-7.5v-0.4c0.4,0.4,0.4,0.4,0.4,0.8h0.8
		c-0.8-1.2-2.4-1.6-3.2-2.4s-0.8-2-1.6-2.8c0.4-0.4,1.2-0.4,2-0.4c-1.2-1.6-2.4-2.8-3.2-4.8s-0.8-4-1.6-5.6c-0.4-1.2-1.6-2.4-2-3.6
		c-0.4-1.2,1.2-0.4-0.4-2v-0.4c0.8,0.4,1.2,0.8,1.6,1.6h0.4c-0.8-2.4-2-4.8-1.6-8.7c-0.4,0.4-0.4,0.4-0.4,0.4c-1.6-0.4-2-2.4-2-4
		c0-0.4,0.4-0.4,0.4-0.8s-2-3.6-2.8-4v-2c0.8,0.4,1.2,1.2,1.6,1.6h0.4c-0.4-1.6-1.6-6.7-2.4-7.5v-0.4c0-0.4-0.4,0.4-0.4,0.4h-0.4
		c0-0.8-0.4-1.6-0.4-2c0-0.8,0-1.6,0.4-2s1.2,0.4,2-0.4c2.4,2.4,2,6.7,4,9.5v0.8h0.4c-0.4-1.6-0.8-4-1.6-5.2v-4.4
		c0.4,0.4,0.4,0,0.4,0.8h0.4c-0.8-5.6-2.4-11.5-4-16.7c-1.2-3.6-1.2-7.5-2.8-11.1c4-1.6,8.7,0,13.5-1.2c1.6-0.4,3.6,0,5.6-0.4
		c2.8-0.8,5.6-1.6,8.7-1.6c-0.4,0-0.8,0-1.6,0V241c1.6-0.8,6.4-2,7.5-0.4c2.4-0.4,1.6-1.6,2.8-2h2.4c1.6-0.4,4.4-0.4,5.6-1.6h1.6
		v0.4c-0.4,0-0.4,0.4-0.8,0.4h-0.4c2,0.8,4-2.4,6.7-2.4c1.6,0,5.2-1.2,7.1-2c5.2-1.6,10.7-2,15.5-3.6c2.8-0.8,6.4-0.4,8.7-2h0.4
		c0.4-0.4-0.4-0.4-0.4-0.4c2-1.6,6.7-1.2,9.5-2c6-1.6,18.7-3.6,22.2-6.7h0.4v-0.4c-6,0.8-11.5,1.6-17.5,2.4c-1.6,0.4-3.6,1.6-4.8,2
		c-2.8,0.8-6.7-0.4-10.3,0.4c-4.4,1.2-8.7,2.8-13.1,4c-1.2,0.4-2.8,0.8-4,0.8c-0.8,0-1.6,0-2.4-0.4c-1.2,0.4-3.2,1.2-4.8,1.6
		c-5.2,1.6-10.7,1.6-15.9,3.2c-1.6,0.4-3.2,0-4.8,0.8h-2.4c0.4-0.4,0.4-0.8,0.8-0.8v-0.4c-1.2,0.8-2,1.6-2.8,2.8h-1.2
		c0-0.4,0-0.4,0.4-0.4v-1.6c-0.4,0.4-0.8,0.8-1.6,1.2c-2,0.8-4.8-0.4-6.4,0.8c-0.8,0-0.4,0-0.4-0.4c-0.4,0-0.4,0-0.4,0.4h-0.8
		c0.4-0.4,0.8-0.8,1.2-1.2V233c-1.6,0.4-3.2,0.8-4.8-0.4c-1.2,0.4-0.8,0-0.4,1.6c-2.8,0.4-3.2,0-5.2,1.6h-0.4
		c0.4-0.8,0.4-0.8,0.8-1.2v-0.4c-0.8,0-3.2,0-4,0.4c-0.8,0.4-0.4,0.8-0.4,1.6c-0.8,0-1.6,0-2-0.4c0-3.6,2.4-4.4,5.6-4.8
		c-1.2-0.8-2,0.4-3.6,0.4c-0.4,0-1.2-0.4-2-0.4c0.4-0.8,0-0.4,0.4-0.4v-0.4c-3.2,0-10.3,0.8-11.9,2.4H169c0-2.4-1.2-7.5,0-9.5
		c0-2,0.4-2.4-0.8-2.4c0-4-0.8-5.6-0.8-9.5c0.4,0.4,0.4,1.2,0.4,2.4c0.4-0.8,0-3.2,0.4-4v-2.8h0.4c0.4,0.8,0.4,1.2,0.4,2
		c0.8-1.2,0.4-10.3,0-10.7v-13.9c0-2-0.8-4.4,0.8-4.4c-0.4-3.6,0-7.5,0.4-10.7c0.4-2,0-4.8,0.4-6.4v-7.9c0.4-1.6,1.6-2,2-3.2
		c0-0.8,0-2,0.4-2.8c0.4-2,1.2-3.6,1.6-5.6c0.8,0,1.6,0,2,0.4c0.8,0.4,0.4,0.4,0.4,1.6h0.4c0.4-0.4,0.4-0.8,0.4-1.6
		c0.8,0.4,1.6,0.8,2,1.6c0.4,0,0.4,0,0.8-0.4c0-0.4,0,0-0.4-0.4c2.8-2,5.6,1.6,7.1,0.8c0.4,0,0.4,0,0.4-0.4c-0.8,0-1.2-0.4-1.6-0.4
		h-0.4v-0.4c3.2,0.4,5.6-1.6,7.5-1.2c3.6,0.4,10.3,0.4,14.3-0.4c3.6-0.8,8.3,0.4,11.9-0.4c4,0,7.5,0,11.5-0.4c2-0.4,6.7-1.6,9.9-1.6
		c-0.4-0.4-0.4-0.4-1.2-0.4v-0.4c1.6-0.8,4.8-2,6-0.4c2-0.4,1.2-1.6,2.4-2.4h2.8c1.2-0.4,3.6-0.8,4.8-1.6h0.4
		c-0.4,0.8-0.4,0.8-1.2,1.2v0.4c1.2-0.4,1.6-0.8,2.4-1.6c0.8,0.4,1.2,1.2,1.6,1.6v0.4h0.8c-0.4-1.2-0.8-1.6-1.2-2.4
		c6-2.8,12.3-4.8,18.3-7.5c2.8-1.2,6.7-1.6,8.7-3.6c0.4-0.4,0,0,0-0.4c1.2-0.4,2.8-0.8,3.6-1.6c1.6,0.4,5.2,3.6,6.7,4.8
		c6.4,4,11.5,9.1,16.7,14.3c2,2,4,5.2,6.4,6.7c-0.4,0.4-0.4,0.4-1.2,0.4c6.4,6.7,11.9,15.1,15.9,23.8c1.6,4,5.2,7.5,6.7,11.9
		c0.4,1.6,0,2-0.4,3.2c2.8,4.4,4,13.5,5.6,19c0.4,3.2,0.4,6.4,0.8,9.5C348.3,221.9,349.9,235.4,347.9,244.5z M326.1,98.1
		c-0.4,0-0.4-0.4-1.2-0.4c-0.4,0.4-0.4,0.4-1.2,0.4c0,0.4,0,0.4-0.4,0.4v1.2c0.8-0.4,1.6-0.4,2.4-1.2
		C326.1,98.5,325.7,98.9,326.1,98.1z M320.2,101.3c-0.4,0.8-0.4,1.2-1.2,1.6v0.4c0.8-0.4,0.8-0.8,2-0.8
		C320.6,102.1,320.2,101.7,320.2,101.3z M319.8,104L319.8,104c0.8,0,0.8-0.4,1.6-0.4c0-0.8,0-0.8-0.4-1.2
		C320.6,103.2,320.6,103.6,319.8,104z M315.8,105.6v-0.8c-0.8,0-0.8,0.4-1.2,0.4c-0.4,0.4,0,0.4-0.4,0.8h1.2
		C315.4,105.6,315.4,106,315.8,105.6z M292.4,108H292C292,108.4,291.6,108,292.4,108L292.4,108z M293.2,108.4h-0.4
		C292.8,108.8,292.4,108.8,293.2,108.4L293.2,108.4z M293.6,108.8h-0.4C293.2,109.2,293.2,108.8,293.6,108.8L293.6,108.8z
		 M295.2,109.6h-0.4C294.8,110,294.8,110,295.2,109.6L295.2,109.6z M169.8,111.2L169.8,111.2L169.8,111.2c0.8,0,1.6-0.4,2-0.8
		s0,0,0.4-0.4h-0.4C170.9,110.4,170.2,110.8,169.8,111.2z M275.3,111.2c0.8-0.4,0.4,0,0.4-0.8c-0.8,0-1.2,0-2-0.4
		C274.1,110.4,274.9,110.8,275.3,111.2z M295.6,110h-0.4C295.6,110.4,295.2,110,295.6,110L295.6,110z M270.6,110.4h-0.4
		C270.6,110.4,270.2,110.4,270.6,110.4L270.6,110.4z M271.7,110.8h-0.4C271.4,110.8,271,110.8,271.7,110.8L271.7,110.8z
		 M272.1,110.8h-0.4C271.7,111.2,271.7,110.8,272.1,110.8L272.1,110.8z M276.5,111.6L276.5,111.6l-0.4-0.4
		C276.1,111.6,276.1,111.2,276.5,111.6z M277.3,111.2c0.4,0.4,0,0,0.4,0.4v-0.4H277.3z M169.4,111.6L169.4,111.6l-0.4-0.4
		C169,111.6,169,111.6,169.4,111.6z M273.7,111.6h-0.4C273.3,111.6,272.9,111.6,273.7,111.6L273.7,111.6z M168.6,112
		C169,111.6,168.6,112,168.6,112L168.6,112C167.8,112,168.2,112,168.6,112z M277.3,111.6h-0.4C276.9,112,276.9,112,277.3,111.6
		L277.3,111.6z M277.7,112h-0.4C277.7,112.4,277.3,112,277.7,112L277.7,112z M167.8,112.4h-0.4C167.8,112.4,167.4,112.4,167.8,112.4
		L167.8,112.4z M274.9,112.4c0.4,0.4,0,0,0.4,0.4v-0.4H274.9z M167.4,112.8H167C167,112.8,167,112.8,167.4,112.8L167.4,112.8z
		 M276.1,112.8h-0.4C275.7,112.8,275.7,112.8,276.1,112.8L276.1,112.8z M276.5,112.8c0.4,0.4,0,0,0.4,0.4v-0.4H276.5z M166.6,113.2
		h-0.4C166.2,113.6,165.8,113.2,166.6,113.2L166.6,113.2z M276.9,113.2c0.4,0.4,0,0,0.4,0.4v-0.4H276.9z M278.1,113.6L278.1,113.6
		l-0.4-0.4C277.7,113.6,277.7,113.6,278.1,113.6z M277.3,117.1c-0.4,0-0.8,0-1.2-0.4c-0.4,0.4-1.6,0.8-2,1.6h-0.4v0.4
		c1.6,0,2-0.8,3.6-0.8L277.3,117.1L277.3,117.1z M274.9,121.9c-0.4-0.4-0.8-0.4-1.6,0h-0.8v-0.4c1.6-0.4,2.4-1.2,3.6-1.6
		c0,0,0-0.4,0.4-0.4h-0.4c-3.2,3.2-11.5,3.2-14.3,6.4h-0.4c1.2,0.8,2.8-0.4,3.6-0.8c0.8-0.4,1.6-0.4,2-0.4c0.8,0,3.6,0.4,3.6,0.4
		v-0.8C270.6,123.5,274.1,122.3,274.9,121.9z M278.9,119.9h-0.4C278.9,119.9,278.5,119.9,278.9,119.9L278.9,119.9z M276.9,120.3
		L276.9,120.3c0.8,0.4,0.8,0.4,1.2,0h0.4c-0.4-0.4-0.4,0-0.8-0.4C277.3,120.3,277.7,120.3,276.9,120.3z M134.8,121.5
		c0.4,0,0.4,0,0.8-0.4c0,0,0-0.4,0.4-0.4h-0.4C135.2,120.7,135.2,121.1,134.8,121.5z M143.6,123.9v0.4h0.4
		C143.6,124.3,144,124.3,143.6,123.9z M169.4,128.6h0.8v-1.6c-0.8,0.4-0.4,0.4-1.6,0.4C169,128.3,169,128.3,169.4,128.6z
		 M242.8,128.3h-0.4C242.4,128.6,242,128.6,242.8,128.3L242.8,128.3z M165.4,129c0.4,0,0.4,0,0.4-0.4l-1.6-0.4
		c0,0.4-0.4,0.4-0.4,0.8C164.6,129.8,165,129.4,165.4,129z M230.5,128.6h-0.4C230.1,129,229.7,128.6,230.5,128.6L230.5,128.6z
		 M242,128.6h-0.4C241.6,129,241.2,128.6,242,128.6L242,128.6z M240.8,129h-0.4C240.8,129,240.4,129,240.8,129L240.8,129z
		 M239.6,129c0.4,0.4,0.4,0,0.8,0.4C240,129.4,240,129.4,239.6,129z M238.8,129.4c0.4,0.4,0.4,0,0.8,0.4
		C239.2,129.4,239.2,129.4,238.8,129.4z M198.7,130.2c0.4,0.4,0.4,0,0.8,0.4C199.1,130.2,199.1,130.2,198.7,130.2z M197.9,130.2
		h-0.4C197.5,130.6,197.5,130.6,197.9,130.2L197.9,130.2z M197.5,130.6h-0.4C197.1,131,196.7,130.6,197.5,130.6L197.5,130.6z
		 M240.8,131.8L240.8,131.8l-0.4-0.4C240.4,131.8,240,131.4,240.8,131.8z M198.3,132.6L198.3,132.6c0.4-0.4,0-0.4,0.4-0.4
		c-0.4,0-0.4-0.4-1.2-0.4C197.5,132.2,197.9,132.2,198.3,132.6z M239.6,132.2L239.6,132.2l-0.4-0.4
		C239.6,132.2,239.2,131.8,239.6,132.2z M239.2,132.2h-0.4C238.8,132.2,238.8,132.2,239.2,132.2L239.2,132.2z M259.8,137.4
		c0-0.4,0-0.4-0.4-0.4L259.8,137.4L259.8,137.4z M194,143.7L194,143.7l-0.4-0.4C193.6,143.7,193.6,143.7,194,143.7z M119,150.5v0.4
		h0.4C119,150.5,119,150.9,119,150.5z M175.7,153.7c0,0.4,0.4,0.4,0.4,0.8c0.8,0,0.4,0,0.8-0.4c0,0,0-2-0.4-2.4
		C176.5,152.1,176.1,153.3,175.7,153.7z M102.7,167.1v0.4h0.4C103.1,167.1,103.1,167.1,102.7,167.1z M102.7,167.9v0.4h0.4
		C102.7,167.9,102.7,168.3,102.7,167.9z M102.3,168.3v0.8h0.4C102.3,168.7,102.7,168.7,102.3,168.3z M335.2,183.8
		c0,2,1.2,2.4,1.6,4.8C337.6,187.4,336,184.2,335.2,183.8z M101.1,196.9v1.2C101.5,197.3,101.5,197.3,101.1,196.9z M342,203.3v0.4
		h0.4c0-2-0.8-4.8-1.6-5.6C340.8,200.1,341.2,202.5,342,203.3z M157.9,203.7v1.2C158.2,204.4,158.2,204.1,157.9,203.7z M342.4,204.8
		L342.4,204.8c0-0.4,0.4-0.4,0-0.8V204.8z M170.2,213.6c0.4-0.4,0.4-1.2,0-1.6V213.6z M307.9,213.6v0.4c1.2-0.4,2-0.4,3.2-0.8h0.4
		v-0.4c-0.8,0-1.6-0.4-2.4-0.4C308.7,212.4,308.3,213.2,307.9,213.6z M168.6,214v1.2h0.4c0.4-0.8,0.4-2,0-2.8
		C169,213.2,168.6,214,168.6,214z M170.6,215.6c0.4-0.4,0.4-1.2,0-1.6V215.6z M303.1,214c-0.4,0.4-0.8,0.8-1.6,1.2h-0.4v0.4
		c0.8,0,1.2-0.4,2.4-0.4C303.5,214.4,303.5,214.4,303.1,214z M302.7,216.7h-0.4c0.8,0.4,1.2,0,2-0.4c0-0.8,0-0.8-0.4-1.2
		C303.5,216.4,303.1,216,302.7,216.7z M301.5,215.6h-0.4C301.1,215.6,300.7,215.6,301.5,215.6L301.5,215.6z M300.7,215.6h-0.4
		C300.3,216,300.3,216,300.7,215.6L300.7,215.6z M170.6,217.1c0.4-0.4,0.4-0.8,0-1.2V217.1z M296.7,216.7c-0.4,0-0.4,0-0.8-0.4
		c-0.4,0.4-0.4,0-0.8,0.4v0.4h-0.4c0,0.4,0.4,0.4,0.4,0.8C296.4,217.5,296.4,217.1,296.7,216.7z M301.9,217.1L301.9,217.1l-0.4-0.4
		C301.5,217.1,301.5,217.1,301.9,217.1z M247.5,221.9c0-0.4-0.4-0.4-0.4-0.8H246c-0.8,0.4-2,0.4-2.4,0.8h-0.4
		C244.4,222.7,246,221.9,247.5,221.9z M226.5,228.3h-0.4c1.2,0.8,4.8-0.4,6-0.8c1.2-0.4,5.6,0.4,5.6,0.4c0-0.4,0-0.4,0.4-0.8
		c2-0.4,3.6-0.8,5.6-1.2c-1.2-0.4-2.4-0.4-3.2-0.4c1.2-0.8,3.6-0.8,4.8-1.6h0.4c0-0.4,0-0.4-0.4-0.4
		C241.6,226.3,230.1,225.1,226.5,228.3z M249.1,224.3c-0.4-0.4-0.4,0-0.8-0.4C248.3,224.3,248.3,224.3,249.1,224.3z M247.5,224.7
		h0.4v-0.4h-1.6C246.3,225.1,246.3,225.1,247.5,224.7z M188.4,230.6L188.4,230.6l-0.4-0.4C188,230.6,187.6,230.2,188.4,230.6z
		 M187.2,231c-0.4-0.4-0.4,0-0.8-0.4C186.8,230.6,186.8,230.6,187.2,231z M200.3,233.4L200.3,233.4l-0.4-0.4
		C199.9,233.4,199.9,233.4,200.3,233.4z M199.5,233.8L199.5,233.8l-0.8-0.4C199.1,233.8,198.7,233.4,199.5,233.8z M147.9,235h-0.4
		C147.5,235.4,147.1,235.4,147.9,235L147.9,235z M147.1,235.4h-0.4C147.1,235.8,146.7,235.4,147.1,235.4L147.1,235.4z M148.7,237.4
		L148.7,237.4L148.7,237.4l0.4-0.4h-1.6C147.5,237,148.3,237,148.7,237.4z M112.2,239c0.8,0,0.8,0,1.2-0.4s0,0,0.4-0.4
		c-0.4-0.4-0.4-0.4-0.8-0.4c-0.4,0.8-0.4,0.8-1.2,0.8C111.8,238.6,111.8,238.6,112.2,239z M107.8,240.2L107.8,240.2l-1.6-0.4
		c-0.4,0.4-0.4,0.8-0.8,1.2C106.7,241.4,107.5,241,107.8,240.2L107.8,240.2z M145.9,248.5L145.9,248.5l-0.4-0.4
		C145.5,248.5,145.2,248.5,145.9,248.5z M145.2,248.9L145.2,248.9l-0.8-0.4C144.8,248.9,144.4,248.9,145.2,248.9z M102.7,260.4v0.4
		h0.4c0-1.6-0.4-3.6-1.2-4.8C101.9,258,102.3,259.6,102.7,260.4z M103.1,262L103.1,262c0-0.4,0.4-0.4,0-0.8V262z M103.9,262.8
		c0-0.4,0-0.4-0.4-0.8L103.9,262.8L103.9,262.8z M103.9,263.6L103.9,263.6c0-0.4,0.4-0.4,0-0.4V263.6z M180.9,281.8
		c0-0.8,0-0.4-0.4-0.8L180.9,281.8L180.9,281.8z M180.9,282.6c0-0.4,0-0.4-0.4-0.4L180.9,282.6L180.9,282.6z M181.3,283
		c0-0.4,0-0.4-0.4-0.4L181.3,283L181.3,283z M181.3,283.8L181.3,283.8c0-0.4,0.4-0.4,0-0.4V283.8z M184.8,300.9L184.8,300.9
		c0-0.4,0.4-0.4,0-0.4V300.9z M185.2,301.3L185.2,301.3c0-0.4,0.4-0.4,0-0.4V301.3z M185.2,302.1L185.2,302.1c0-0.4,0.4-0.4,0-0.4
		V302.1z M183.2,302.1L183.2,302.1c0-0.4,0.4-0.4,0-0.4V302.1z M186,302.9v0.4h0.4c0-0.8,0-0.8-0.4-1.6
		C185.6,302.5,185.6,302.5,186,302.9z M183.6,302.9c0-0.4,0-0.4-0.4-0.4L183.6,302.9L183.6,302.9z M183.6,303.7L183.6,303.7
		c0-0.4,0.4-0.4,0-0.4V303.7z M186,304.1L186,304.1c0-0.4,0.4-0.4,0-0.4V304.1z M184,304.1L184,304.1c0-0.4,0.4-0.4,0-0.4V304.1z
		 M176.1,304.9L176.1,304.9c0-0.4,0.4-0.4,0-0.8V304.9z M186.4,304.5L186.4,304.5c0-0.4,0.4-0.4,0-0.4V304.5z M186.8,305.2
		L186.8,305.2c0-0.4,0.4-0.4,0-0.4V305.2z M187.2,305.6L187.2,305.6c0-0.4,0.4-0.4,0-0.4V305.6z M187.2,306.4L187.2,306.4
		c0-0.4,0.4-0.4,0-0.4V306.4z M329.7,313.6c0-0.4,0-0.4-0.4-0.4L329.7,313.6L329.7,313.6z M305.5,313.6h-1.6
		c-0.4,0.4-0.8,0.4-1.6,0.4v0.4h0.4c0.8,0.8,2,0,2.8,0.4h0.8v-0.4h-0.4C305.5,314.4,305.5,314,305.5,313.6z M256.3,314.4
		c-0.4-0.4-0.4,0-0.8-0.4C255.9,314.4,255.9,314,256.3,314.4z M269.4,315.6c-0.4-0.4-0.4,0-0.8-0.4
		C268.6,315.2,268.6,315.2,269.4,315.6z M267.8,315.6c-0.4-0.4-0.4-0.4-1.2-0.4C267,315.6,267.4,315.6,267.8,315.6z M264.6,316
		c0.8,0.4,0.8,0,2,0c-0.4-0.4-0.8-0.4-1.6-0.4C264.6,316,265,316,264.6,316z M304.3,316.4L304.3,316.4l-2.4-0.4
		c-0.4,0.4-13.1,0.8-14.3,0.8c1.6,1.2,4.8,0,7.1,0.4c2,0.4,4,0.4,7.5,0.4c-0.4-0.4-1.6-0.4-2-0.8h-0.4c0.8-0.4,3.2,0,4-0.4H304.3z
		 M224.1,317.2L224.1,317.2l-0.4-0.4C223.7,317.2,223.7,316.8,224.1,317.2z M304.7,317.6h1.6v-0.4c-0.4,0-1.2-0.4-2-0.4
		C304.3,317.6,304.3,317.6,304.7,317.6z M222.5,317.6h-0.4C222.1,317.6,222.1,317.6,222.5,317.6L222.5,317.6z M266.6,318.3
		L266.6,318.3l-0.4-0.4C266.2,318.3,265.8,317.9,266.6,318.3z M265.4,318.7c-0.4-0.4-0.4,0-0.8-0.4C265,318.3,265,318.3,265.4,318.7
		z M223.7,319.5L223.7,319.5L223.7,319.5l0.4-0.8h-1.6C222.9,318.7,223.3,319.1,223.7,319.5z M194,321.1c-0.4,0.8-1.2,0.8-0.4,1.2
		c0.4,0.4,0,0,0.4,0.4v-0.4h0.4C194.4,321.5,194.4,321.5,194,321.1z M345.2,322.7H344c0,0.8,0,0.4,0,1.2c0.8,0,0.4,0,0.8-0.4h0.4
		V322.7L345.2,322.7L345.2,322.7z M350.7,322.7c-0.4,0.4-1.2,0.4-2.4,0.4c1.2,0.8,1.6-0.4,2.8,0.4h0.4v-1.2h-0.8V322.7z
		 M355.9,322.7c-0.4,0.4-0.4,0.4-0.8,0.8h-0.4v0.4c0.8,0,2,0.4,2.8,0.4v-0.4c0.4-0.4,0,0,0.4-0.4
		C357.1,323.5,356.7,323.1,355.9,322.7z M351.1,324.7L351.1,324.7c0-0.4,0.4-0.4,0-0.4V324.7z M349.1,324.7L349.1,324.7
		c0.8,0.4,1.2,0.4,1.6,0h0.4c-0.4-0.4-0.4,0-0.8-0.4C349.9,324.7,349.9,324.7,349.1,324.7z M222.1,330.6L222.1,330.6l-0.4-0.4
		C222.1,330.6,221.7,330.2,222.1,330.6z M221.7,331L221.7,331l-0.4-0.4C221.3,330.6,221.3,330.6,221.7,331z M173.7,349.7
		c0.4,0.4,0.4,0,0.8,0.4C174.1,349.7,174.1,349.7,173.7,349.7z M174.9,350.1h-0.4C174.9,350.5,174.5,350.1,174.9,350.1L174.9,350.1z
		 M281.7,351.7L281.7,351.7l-0.4-0.4C281.3,351.7,281.3,351.7,281.7,351.7z M235.6,356.8c0.8,0.8,4,1.2,5.2,0.4h2v-0.4
		c-0.8-0.4-1.2-0.4-2.4-0.4C239.6,356.8,237.2,356.8,235.6,356.8z M196.3,358.4h3.6V358c-1.6-0.8-3.6-1.2-5.6-1.6
		C194.8,357.6,195.2,357.6,196.3,358.4z M239.6,359.6c0.8,0.8,3.2,0.4,4-0.4h0.4c-0.4-0.4-0.4,0-0.8-0.4
		C242.8,359.6,241.2,360,239.6,359.6z"/>
	<path fill="#1F1D21" d="M434.5,269.1c0,7.1,2.4,10.3,5.6,11.1c5.6,1.2,10.7,0.8,10.7,3.6c0,2.4-2.4,2.8-4.8,2.8
		c-2.8,0-6.7-0.8-19-0.8c-13.9,0-15.9,0.8-18.7,0.8c-3.6,0-4.4-0.8-4.4-2.8c0-1.6,0.8-2.8,9.1-3.6c5.6-0.4,6.7-3.2,6.7-11.5V155.6
		c0-2.8-0.8-3.2-11.1-3.2c-20.2,0-21,31.4-26.2,31.4c-1.6,0-2.4-0.4-2.4-5.2c0-6.7,1.2-13.1,2.4-21c2-15.1,3.6-16.7,4.8-16.7
		c4.4,0,2.8,6.4,8.3,6.4h64.7c11.1,0,7.5-6.4,12.3-6.4c2,0,2.8,1.2,2.8,6.4c0,7.5-0.4,12.7-0.8,19.4c-1.2,14.3-2.4,17.1-4.4,17.1
		c-6.4,0,0-31.4-23.4-31.4c-11.5,0-12.3,0.4-12.3,3.2L434.5,269.1L434.5,269.1z"/>
	<path fill="#1F1D21" d="M494.8,236.2c-3.6,0-4.8,0.8-7.1,11.5c-4.8,20.2-5.6,23.8-5.6,27c0,2.8,0.8,5.2,6.4,6
		c4.4,0.8,7.1,0.8,7.1,3.2c0,2-1.2,2.4-3.6,2.4c-3.6,0-8.3-0.8-13.5-0.8c-9.9,0-11.1,0.8-12.3,0.8c-1.6,0-2.4-0.8-2.4-2.4
		c0-4.4,6.7-1.6,8.7-7.5c12.3-36.9,22.6-84.1,34.1-125.8c1.2-4.4,2-6.7,4.4-6.7s2.8,1.2,3.6,5.2c10.7,38.9,18.7,66.3,34.5,123.4
		c1.2,4,3.2,7.5,5.6,8.7c2.8,0.8,6.7,1.2,6.7,3.6c0,1.2-1.2,1.6-4.8,1.6c-4.8,0-8.3-0.8-13.5-0.8c-5.6,0-11.5,0.8-15.5,0.8
		c-2,0-3.6-0.8-3.6-2.4s2.4-2.8,5.6-2.8c3.2,0,5.6-0.8,5.6-5.6c0-2.4-2-8.7-7.1-28.2c-2.4-9.1-3.2-11.1-7.1-11.1L494.8,236.2
		L494.8,236.2z M503.1,186.2c-9.1,36.1-10.7,42.5-10.7,43.7c0,1.2,0.8,1.6,13.1,1.6c15.5,0,15.9,0,15.9-1.6c0-2.8-4.8-17.1-12.3-46
		c-0.8-3.6-1.6-4.4-3.2-4.4C505.1,178.7,504.7,179.8,503.1,186.2z"/>
	<path fill="#1F1D21" d="M336,289c-12.3,0-21-2.8-25.8-5.6c-3.2-2-4-4.4-4-24.2c0-15.5,0.8-15.9,3.2-15.9c2.8,0,2.8,1.2,3.2,3.2
		c5.6,27,15.1,36.9,28.2,36.9c14.7,0,24.6-13.1,24.6-29.8c0-38.5-58.3-36.1-58.3-77c0-18.3,16.7-32.9,37.7-32.9
		c9.1,0,21.4,3.6,24.2,6.7c1.2,1.2,1.2,2.8,1.2,21c0,11.5,0,11.9-2.4,11.9c-3.2,0-2.4-3.6-3.6-8.3c-5.6-19.4-13.5-26.2-23-26.2
		c-11.1,0-20.6,9.5-20.6,21c0,38.9,58.3,32.9,58.3,77.4C378.5,272.7,361,289,336,289z"/>
</g>
</svg>
