<?xml version="1.0" encoding="utf-8"?>
<!-- Generator: Adobe Illustrator 18.1.1, SVG Export Plug-In . SVG Version: 6.00 Build 0)  -->
<svg version="1.1" id="Layer_1" xmlns="http://www.w3.org/2000/svg" xmlns:xlink="http://www.w3.org/1999/xlink" x="0px" y="0px"
	 viewBox="0 0 500 403.5813" style="enable-background:new 0 0 500 403.5813;" xml:space="preserve">
<style type="text/css">
	.st0{fill:#17B4C2;}
	.st1{fill:#03275D;}
	.st2{fill:#FDFDFD;}
</style>
<g>
	<circle class="st0" cx="199.6129" cy="202.5484" r="192.0968"/>
	<path class="st1" d="M345.929,329.1596c0.3871-44.9513,0.7827-89.9026,1.153-134.854c0.0602-7.3008,0.0084-14.6024,0.0084-23.4819
		c14.2793,0,27.931,0,41.5835,0.0006c2.7288,0.2382,5.4568,0.4758,8.9382,0.779c33.0118,53.8109,66.2556,107.9999,99.9544,162.9305
		c-17.4503,0-34.0424,0-51.5834,0c-4.06-6.976-8.5107-14.6231-13.0317-22.3912c-13.9016,0-27.5875,0-42.6964,0
		c-0.3755,7.5305-0.7434,14.9078-1.1389,22.837c-14.0035,0-28.0813,0-43.187,0C345.929,332.9715,345.929,331.0655,345.929,329.1596z
		"/>
	<path class="st1" d="M166.5603,276.1454c0,17.3959,0,33.8552,0,50.1955C141.0158,345.959,98.57,339.616,72.0211,312.3563
		c-29.2545-30.0378-31.8305-79.9754-5.782-112.0857c25.78-31.7794,69.0649-41.2962,99.9711-21.6527c0,16.5957,0,33.4352,0,50.8602
		c-23.437-18.9854-47.3433-26.1362-68.4204,0.7707c-12.9095,16.4802-11.4481,36.0012,3.8378,50.6717
		C123.4855,301.8985,145.3521,294.5235,166.5603,276.1454z"/>
	<path class="st1" d="M222.7914,290.3728c21.3474,0,41.2181,0,61.6578,0c0,15.2848,0,29.1506,0,43.7482
		c-35.5107,0-71.161,0-107.6123,0c0-53.5023,0-107.2614,0-161.6874c14.9241,0,29.9131,0,45.9545,0
		C222.7914,211.1636,222.7914,249.7905,222.7914,290.3728z"/>
	<path class="st1" d="M338.7581,334.9028c-15.1118,0-30.2236,0-45.7505,0c0-54.4827,0-108.4769,0-163.0803
		c15.4202,0,30.1647,0,46.0279,0c0,54.3166,0,108.5549,0.0018,162.7916C339.039,334.6125,338.7581,334.9028,338.7581,334.9028z"/>
	<path class="st2" d="M361.0628,119.2119c-51.7696,5.5498-87.08,36.2916-118.0193,72.8892
		c-12.2968-33.1152,12.6027-47.7419,34.7761-65.4965c-87.5924-8.855-167.4766,10.5131-248.8631,50.3667
		C102.8538,113.5218,313.8447,78.4531,361.0628,119.2119z"/>
	<path class="st2" d="M27.0364,165.5911c59.5187-50.9743,127.4188-84.5156,205.086-100.8318
		c4.7404,5.7103,9.562,11.5183,15.5445,18.7248C166.2796,93.7285,93.7152,121.7807,27.0364,165.5911z"/>
	<path class="st2" d="M31.2281,150.3367c38.5607-39.5362,81.6454-72.8108,131.4527-99.2831
		c4.3214,4.6929,8.3522,9.0701,13.4828,14.6416C121.1961,84.5895,75.6946,116.512,31.2281,150.3367z"/>
	<path class="st2" d="M39.5019,127.1122c18.9303-25.0476,31.8014-42.078,45.3522-60.0077
		c5.5907,3.1011,10.7441,5.9596,16.2808,9.0307C82.4599,91.5813,64.7985,106.1892,39.5019,127.1122z"/>
	<path class="st2" d="M408.0646,269.6323c-6.1779,0-11.1003,0-16.5778,0c0-9.5209,0-19.0484,0-30.6368
		C397.4916,250.0928,402.579,259.4946,408.0646,269.6323z"/>
</g>
</svg>
