<svg xmlns="http://www.w3.org/2000/svg" viewBox="0 0 216.85 48.19">
  <path d="M0 0h216.85v48.19H0z"/>
  <path fill="#fff" d="M24.09 13.5h18.85V22h-.61c-.9-4.19-2.33-6.42-2.74-6.85a2.44 2.44 0 0 0-2.14-.95h-2.22v19.39h5.3v.78h-14v-.78h5.28V14.13h-2.08c-1 0-1.36 0-2 .65-1.26 1.28-2.48 4.34-3.09 7.13h-.57zm23.15 0h12.47c5.38 0 7.89 2.29 7.89 5 0 .65-.27 4.35-7.14 5.21a7.76 7.76 0 0 1 4.73 5c1 2.68.88 5.26 2.18 5.26s2.08-1.69 2.08-4.19v-1h.63v1.05c0 2.63-.77 5.11-3.85 5.11-2.18 0-3.83-1.63-3.83-4.76v-1.12c0-2.92-.22-5.14-4.28-5.14h-2.28v9.67h4.48v.8H47.54v-.82h4.87V14.29h-5.17zm8.6.61v9.18h2.67c3.36 0 5.48-1.2 5.48-5 0-4.25-2.73-4.25-5.36-4.25h-2.79zm28.71-.82h.7l6.39 18.48c.55 1.64 1 1.85 2.19 1.85h1.65v.77H85v-.77h2.77c.67 0 1-.21 1-.7a1.29 1.29 0 0 0-.12-.56L87 27.78h-7.11a16.56 16.56 0 0 0-1.29 4c0 1.28 1 1.85 3.55 1.85h.43v.77h-9v-.77H74c2.42 0 3.58-1.51 4.76-4.72zm-1 4.51l-3.42 9.25h6.66zm14.8-4.3h12.92c6.3 0 9.86 6 9.86 10.16a11.24 11.24 0 0 1-3 7.31 9.56 9.56 0 0 1-7.54 3.42H98.37v-.77H103V14.29h-4.65zm8.05.61V33.7h3.91c3.69 0 6.81-1.3 6.81-10.1 0-7.18-1.71-9.49-6.52-9.49zm17-.61h19.4v7.37h-.55c-.66-3.9-2.45-6.7-5.06-6.7h-5.5v9.1h2.22c1.92 0 2.81-.83 3.32-5.55h.55v12.05h-.57c-.53-5.12-1.44-5.89-3.6-5.89h-1.92v9.84h5.24c1.91 0 2.69-.35 3.56-1.22a12.72 12.72 0 0 0 2.51-6.69h.57l-.12 8.56H123.6v-.8h4.67V14.29h-4.87zm27.71 12.31c1.37 4.7 4.41 8.54 8.2 8.54 2.42 0 4.68-1.63 4.68-4a3.68 3.68 0 0 0-1-2.54c-2.4-2.48-8.31-2-11-4.77a5.7 5.7 0 0 1-1.67-4.35 5.35 5.35 0 0 1 5.52-5.47 6.4 6.4 0 0 1 4.55 2.16c.43.48.69.77.91.77.55 0 1.37-2.79 1.39-2.93h.63V21h-.63c-1.22-4.9-4.4-7.18-6.81-7.18-2.59 0-4.4 1.77-4.4 3.56a3 3 0 0 0 .77 2c2.33 2.44 8.79 2.13 11.56 5a6 6 0 0 1 1.53 4.21c0 4.1-2.69 6.34-6.2 6.34a7.76 7.76 0 0 1-5.09-2.42c-.69-.71-1-1.28-1.35-1.28-.55 0-1.26 2.33-1.65 3.7h-.57v-9.12zM169 13.5h11.1v.79h-3c-.55 0-.76.14-.76.34a.4.4 0 0 0 .08.23l5.91 10.26 4.26-7.56a2.93 2.93 0 0 0 .47-1.46c0-1.34-1.51-1.79-2.61-1.79h-1.18v-.81h9.48v.79h-1a4.81 4.81 0 0 0-4.14 2.84l-5 8.76v7.7H187v.78h-12.17v-.78h4.39v-7l-6.59-11.34c-.47-.83-.69-.93-1.2-.93H169z"/>
</svg>
