<svg xmlns="http://www.w3.org/2000/svg" viewBox="0 0 105.24 35.05"><defs><style>.a{fill:#fff}.b{fill:none}</style></defs><path class="a" d="M9.57 23.62c0-1.33-1.14-1.62-2.38-1.62-1.8 0-2.55.9-2.54 1.83 0 1.37 1.55 1.77 2.57 1.77h4.66v1.07H11v1.95c0 .89.26 1.73 1.14 1.72v1.18a1.64 1.64 0 0 1-1.86-1.3 3.28 3.28 0 0 1-3 1.42c-2.43 0-4-.94-4-3.1a2.68 2.68 0 0 1 1.89-2.4 2.4 2.4 0 0 1-1.69-2.28c0-1.9 1.68-3 3.84-3 1.75 0 3.58.55 3.58 2.76H9.57zm-2.44 3c-1.79 0-2.66 1-2.66 1.86 0 1.25 1 2 2.69 2 1 0 2.61-.45 2.61-1.88v-1.96zM21 22c-1.33 0-2.76.52-2.76 1.8s1.31 1.46 2.85 1.72c2.1.33 4.17.75 4.17 3.12S23 31.71 21 31.71a4.55 4.55 0 0 1-4.44-2.43l1.08-.63A3.79 3.79 0 0 0 21 30.5c1.28 0 3-.41 3-2 0-1.3-1.45-1.67-3-1.92-2-.31-4-.77-4-2.91s2.21-2.93 4-2.93c1.56 0 3 .31 4 1.9l-1 .61A3.49 3.49 0 0 0 21 22zM32.78 31.53v-1.35a3.14 3.14 0 0 1-2.78 1.5 3.67 3.67 0 0 1-3.8-3.89A3.64 3.64 0 0 1 30 24a3.11 3.11 0 0 1 2.75 1.47v-1.38H34v7.41h-1.19zm-2.7-6.39a2.71 2.71 0 0 0 0 5.41c3.57 0 3.57-5.43 0-5.43zM36.53 24.09l1.2 2.9L39 30.2l1.23-3.2 1.2-2.91h1.35l-3.12 7.42h-1.35l-3.13-7.42zM50.6 30.32a4.29 4.29 0 0 1-3.2 1.31 3.67 3.67 0 0 1-3.9-3.86 3.7 3.7 0 0 1 3.84-3.84c2.27 0 4 1.39 3.71 4.35h-6.3a2.51 2.51 0 0 0 2.68 2.22 3.27 3.27 0 0 0 2.36-.93l.82.75zm-.72-3.07A2.24 2.24 0 0 0 47.37 25a2.52 2.52 0 0 0-2.62 2.2h5.13zM61.55 28.2h-.27l-3.81-5.34v8.64h-1.29V21h1.56l3.69 5.4 3.66-5.4h1.56v10.5h-1.29v-8.61zM72.18 23.93A3.7 3.7 0 0 1 76 27.81a3.85 3.85 0 0 1-7.7 0 3.72 3.72 0 0 1 3.88-3.88zm0 1.12a2.58 2.58 0 0 0-2.63 2.76 2.63 2.63 0 1 0 5.25 0 2.6 2.6 0 0 0-2.6-2.76zM78.62 24.08l.09 1.11A2.4 2.4 0 0 1 81 24a2.79 2.79 0 0 1 1.72.55l-.55 1a2.15 2.15 0 0 0-1.29-.4 2.12 2.12 0 0 0-2.18 2.21v4.14h-1.24v-7.41h1.16zM90.17 30.32A4.29 4.29 0 0 1 87 31.63a3.67 3.67 0 0 1-3.9-3.86 3.7 3.7 0 0 1 3.84-3.84c2.27 0 4 1.39 3.71 4.35h-6.3A2.51 2.51 0 0 0 87 30.5a3.27 3.27 0 0 0 2.36-.93l.82.75zm-.72-3.07A2.24 2.24 0 0 0 86.94 25a2.52 2.52 0 0 0-2.62 2.2h5.13zM99.86 28l-3.3 3-.81-.8 2.69-2.48-2.66-2.47.78-.81 3.3 3.07zM2.22 9.23h5.73V7.38H2.22v-2.5h5.96V2.96H.25v10.69h7.98v-1.93H2.22V9.23zM14.91 6.89a3.09 3.09 0 0 0-2.36-1 3.74 3.74 0 0 0-3.94 4 4 4 0 0 0 1.1 3 3.84 3.84 0 0 0 2.77 1.05 3.16 3.16 0 0 0 2.4-1.07l.06.88h1.74V6h-1.74zm0 3a2.37 2.37 0 0 1-.56 1.57 2.12 2.12 0 0 1-1.66.71 2.16 2.16 0 0 1-2.23-2.29 2.16 2.16 0 0 1 2.23-2.27 2.16 2.16 0 0 1 2.2 2.23zM21.59 5.87a2.44 2.44 0 0 0-2 .85L19.47 6h-1.71v7.62h1.83V9.54a1.73 1.73 0 0 1 1.82-1.86 1.75 1.75 0 0 1 1.2.41l.15.12.83-1.6-.09-.08a3 3 0 0 0-1.91-.66zM28.25 5.91a3.28 3.28 0 0 0-2.35 1L25.83 6h-1.68v7.63H26v-4a1.93 1.93 0 0 1 1.89-2 1.74 1.74 0 0 1 1.83 2v4.07h1.84V9.57c-.02-2.19-1.34-3.66-3.31-3.66zM63.16 11.14a2 2 0 0 1-1.44.61 1.75 1.75 0 0 1-1.81-1.88 1.83 1.83 0 1 1 3.66 0 2 2 0 0 1-.41 1.3m2.17-4.76h-1.7a.1.1 0 0 0-.1.1v.3a3 3 0 0 0-2-.53A3.36 3.36 0 0 0 58 9.87a3.73 3.73 0 0 0 1 2.73 3.43 3.43 0 0 0 2.5.94h.11a2.61 2.61 0 0 0 1.92-.54v.53a.09.09 0 0 0 .09.09h1.71a.09.09 0 0 0 .09-.09v-7a.1.1 0 0 0-.09-.1M58.45 4.65V3a.12.12 0 0 0-.12-.12h-6.18A.12.12 0 0 0 52 3v10.5a.12.12 0 0 0 .12.12h1.67a.12.12 0 0 0 .12-.12V9.18a.12.12 0 0 1 .12-.13h3.11a.12.12 0 0 0 .12-.12V7.25a.12.12 0 0 0-.12-.13h-3.08a.12.12 0 0 1-.12-.12V4.89a.12.12 0 0 1 .12-.12h4.27a.12.12 0 0 0 .12-.12M91.28 12.32a.11.11 0 0 0 0 .12 4 4 0 0 0 3.09 1.17 2.85 2.85 0 0 0 2.78-1.43 2.22 2.22 0 0 0 .19-.89c0-1.85-1.58-2.18-2.95-2.27-1.09-.07-1.09-.46-1.09-.59 0-.47.74-.52 1-.52a2.07 2.07 0 0 1 1.46.49.1.1 0 0 0 .14 0l1-1.14a.11.11 0 0 0 0-.14 3.65 3.65 0 0 0-2.58-.84 3.76 3.76 0 0 0-1.91.48 1.93 1.93 0 0 0-1 1.73c0 1.29 1 2.07 2.86 2.21 1 .06 1.17.36 1.17.62s-.5.59-1 .59a3.11 3.11 0 0 1-2.09-.81.11.11 0 0 0-.15 0zM70.31 6.3c1.75 0 2.93 1.37 2.93 3.4v3.79a.1.1 0 0 1-.1.09h-1.72a.09.09 0 0 1-.09-.09V9.72a1.45 1.45 0 0 0-1.45-1.64 1.6 1.6 0 0 0-1.5 1.59v3.82a.09.09 0 0 1-.1.09h-1.7a.1.1 0 0 1-.1-.09v-7a.1.1 0 0 1 .1-.09h1.65a.09.09 0 0 1 .09.09v.63a2.92 2.92 0 0 1 2-.82M100.15 3.43v3.8a2.28 2.28 0 0 1 1-.8 3.49 3.49 0 0 1 1.15-.22 3.68 3.68 0 0 1 1.17.19 2.24 2.24 0 0 1 .92.59 2.67 2.67 0 0 1 .61 1.07 5.47 5.47 0 0 1 .21 1.63v3.83a.09.09 0 0 1-.09.09h-1.92a.09.09 0 0 1-.1-.09V9.71a1.66 1.66 0 0 0-.37-1.17 1.31 1.31 0 0 0-1-.4 1.61 1.61 0 0 0-1.14.45 1.7 1.7 0 0 0-.47 1.32v3.61a.1.1 0 0 1-.1.09h-1.9a.1.1 0 0 1-.1-.09V3.43a.1.1 0 0 1 .1-.09h1.93a.09.09 0 0 1 .1.09M81.84 10.92a.09.09 0 0 0-.12 0 5.21 5.21 0 0 1-.71.35 3.28 3.28 0 0 1-.68.19 3.07 3.07 0 0 1-.65.07 3.57 3.57 0 0 1-1.51-.29 2.75 2.75 0 0 1-1-.75 2.71 2.71 0 0 1-.55-1 4.08 4.08 0 0 1-.17-1.13 4 4 0 0 1 .18-1.15 2.94 2.94 0 0 1 1.55-1.91 3.4 3.4 0 0 1 1.5-.3 4.15 4.15 0 0 1 1.24.19 2.66 2.66 0 0 1 .77.39.11.11 0 0 0 .14 0l1.06-1.51a.09.09 0 0 0 0-.13 5 5 0 0 0-3.19-1.08 5.8 5.8 0 0 0-2.46.48 5 5 0 0 0-1.71 1.24 5.18 5.18 0 0 0-1 1.75 6.47 6.47 0 0 0 0 4 4.51 4.51 0 0 0 2.67 2.87 7 7 0 0 0 4.66.08 4.83 4.83 0 0 0 1.14-.61.11.11 0 0 0 0-.14z"/><path class="a" d="M88.15 11.14a2 2 0 0 1-1.44.61 1.75 1.75 0 0 1-1.81-1.88 1.83 1.83 0 1 1 3.66 0 2 2 0 0 1-.41 1.3m2.16-4.76h-1.7a.1.1 0 0 0-.09.1v.3a3 3 0 0 0-2-.53A3.36 3.36 0 0 0 83 9.87a3.73 3.73 0 0 0 1 2.73 3.43 3.43 0 0 0 2.5.94h.11a2.61 2.61 0 0 0 1.91-.54v.53a.09.09 0 0 0 .09.09h1.7a.09.09 0 0 0 .1-.09v-7a.1.1 0 0 0-.1-.1"/><path class="b" d="M37.15 6h7.76l-.29-2.35-9.47 1.4.76 6.12.87-.13V6.35a.38.38 0 0 1 .37-.35z"/><path class="b" d="M37.52 6.72h9.55v6.12h-9.55z"/><path class="a" d="M47.44 6h-1.78l-.35-2.82a.35.35 0 0 0-.14-.25.4.4 0 0 0-.28-.07l-10.2 1.51a.36.36 0 0 0-.31.41l.84 6.85a.37.37 0 0 0 .15.25.35.35 0 0 0 .22.08l1.14-.16v1.42a.37.37 0 0 0 .37.37h10.34a.36.36 0 0 0 .37-.37V6.35a.37.37 0 0 0-.37-.35zm-11.53 5.17l-.76-6.12 9.47-1.42.29 2.37h-7.76a.38.38 0 0 0-.37.37V11zm11.16 1.67h-9.55V6.72h9.55z"/><path class="a" d="M43.18 8.78a.48.48 0 0 0-.13-.16.78.78 0 0 0-.2-.14.79.79 0 0 0-.27-.1 1.06 1.06 0 0 0-.31 0 1.36 1.36 0 0 0-.29 0l-.25.08a.5.5 0 0 0-.17.15.36.36 0 0 0-.07.22.31.31 0 0 0 .07.21.41.41 0 0 0 .18.12 1.07 1.07 0 0 0 .27.07h.3a6.17 6.17 0 0 1 .62.1 2 2 0 0 1 .56.22 1.09 1.09 0 0 1 .39.38 1 1 0 0 1 .16.61 1.12 1.12 0 0 1-.35.87 1.7 1.7 0 0 1-1 .39v.53h-.77v-.53a1.88 1.88 0 0 1-.47-.1 1.91 1.91 0 0 1-.43-.21 1.73 1.73 0 0 1-.35-.31 1.41 1.41 0 0 1-.24-.39l.72-.35a.83.83 0 0 0 .18.25 1.31 1.31 0 0 0 .27.19 1.79 1.79 0 0 0 .32.13 1.32 1.32 0 0 0 .34 0h.36a.82.82 0 0 0 .28-.07.58.58 0 0 0 .19-.15.54.54 0 0 0 .06-.27.32.32 0 0 0-.07-.22.49.49 0 0 0-.21-.16 1.63 1.63 0 0 0-.29-.1l-.34-.04h-.59a1.6 1.6 0 0 1-.52-.19 1 1 0 0 1-.36-.36 1.21 1.21 0 0 1 0-1.07A1 1 0 0 1 41 8a1.4 1.4 0 0 1 .42-.22 2.66 2.66 0 0 1 .49-.1v-.47h.74v.46l.35.07a1.57 1.57 0 0 1 .32.15 1.23 1.23 0 0 1 .28.23 1.33 1.33 0 0 1 .22.34z"/></svg>