<svg xmlns="http://www.w3.org/2000/svg" viewBox="0 0 218.97 35"><defs><style>.cls-1{fill:#fff}.cls-2{fill:#ff6b00}.cls-3{fill:#eb0029}.cls-4{fill:#231f20}</style></defs><g id="G-League"><g id="GLeague"><path class="cls-1" d="M11.75.18H3.59A3.6,3.6,0,0,0,0,3.78V31.43A3.6,3.6,0,0,0,3.6,35h8.16a3.6,3.6,0,0,0,3.59-3.59V3.78A3.6,3.6,0,0,0,11.75.18"/><path d="M14.23,20.55a.08.08,0,0,0,.05-.06s0-.08-.06-.12a1.37,1.37,0,0,1-.12-.47s-.05-.78-.17-1.44c0-.17,0-.33-.06-.43s-.21-.77-.28-1c0,0-.18-.85-.32-1.41a5.94,5.94,0,0,0-.88-1.75,6.25,6.25,0,0,0-.89-2.24,3.67,3.67,0,0,0-.43-1.31,1.33,1.33,0,0,0-.93-.59l-.13,0a.25.25,0,0,0-.06-.1s-.3-.17-.42-.13c-.3-.13-.34-.56-.2-.65s.39-.14.46-.25a.3.3,0,0,0,0-.28.76.76,0,0,1-.06-.16c0-.08,0-.09,0-.16a.14.14,0,0,0-.12-.13,0,0,0,0,1,0-.06,1,1,0,0,0,0-.15s0-.08-.06-.13l-.13-.09h0a.33.33,0,0,0,.12-.17A.19.19,0,0,0,9.55,7c-.1-.08-.47-.19-.51-.22s0-.17-.1-.36a2,2,0,0,0-.53-.5c0-.12-.44-.22-.76-.21a2,2,0,0,0-.88.23A1.6,1.6,0,0,0,6,6.68a1.42,1.42,0,0,0,.63,1.69A1.47,1.47,0,0,1,7.14,9L7.08,9a1.9,1.9,0,0,0-.58-.21c-.5-.06-.82,0-.85,0A4,4,0,0,0,5,8.27a6.45,6.45,0,0,0-1.35-.6A6,6,0,0,0,3.71,6.4,6.21,6.21,0,0,1,4,4.49a1.94,1.94,0,0,0,1.45.41A2,2,0,0,0,5.7,1h6.07A2.73,2.73,0,0,1,14.5,3.77V31.44a2.73,2.73,0,0,1-2.73,2.73H5.31A.32.32,0,0,0,5.54,34a4.53,4.53,0,0,0,.17-1.28c0-.15.35-1,.4-1.21a6.08,6.08,0,0,1,.45-.67c.14-.16,0-.27,0-.27a31.94,31.94,0,0,1,3.09-4.06s.22-.21.43-.38a1.67,1.67,0,0,0,.43-1.23c.28-1.41.38-2,.38-2.05a1.16,1.16,0,0,0,.32-.24A16.31,16.31,0,0,1,11.61,20a9,9,0,0,0,.06-3.36.5.5,0,0,0,0-.37c-.06-.34-.08-.84-.12-1.09a3.58,3.58,0,0,0,.59,1.15A5.13,5.13,0,0,1,13,18s0,.11,0,.17a1.33,1.33,0,0,0-.3.71,1,1,0,0,1-.15.43s0,.1-.1.21-.12.16-.13.18.14.17.29.05a1.4,1.4,0,0,0,.25-.29c0-.08.16-.29.28-.29s.13,0,.15,0,.08.19.15.46c0,.09.06.2.1.32.1.3.24.63.26.67a.85.85,0,0,0,.09.23c.05.1.13.16.18.16s.09,0,.09-.07,0-.15,0-.15a.13.13,0,0,0,.21,0s0-.11-.06-.13a.56.56,0,0,1-.06-.14"/><path d="M7.24 23.29a.16.16 0 0 0 .13-.17L7.28 22A.74.74 0 0 1 7 21.86c0-.41.06-.83.11-1.68a6.73 6.73 0 0 1 1.08-4.37s0 0 0-.07A1.49 1.49 0 0 1 8 15.18c0-.26-.29-.73-1.66-2.63C5 11.17 5.21 10.65 4.65 10.32A7.35 7.35 0 0 1 3.16 9.12c-.4-.43-.77-.67-.95-.88S2 8.05 2.1 7.07a6.89 6.89 0 0 1 .79-2.54A1.65 1.65 0 0 0 3.14 3.4s0-.23 0-.48a1.3 1.3 0 0 1 .23-.69A2 2 0 0 1 3.43 2 2.26 2.26 0 0 1 4.49 1H3.57A2.73 2.73 0 0 0 .84 3.77V27c.2-.83.57-1 .7-1.59a1.23 1.23 0 0 1 .67-.94.52.52 0 0 1 .34 0 3.83 3.83 0 0 0 .88.34.21.21 0 0 1 .09.09h0a3.9 3.9 0 0 0 2-.88 2.35 2.35 0 0 1 1.73-.72M8.4 24.89c-1.39.5-2.52.57-4.76 1.32 0 .25-.23.23-.83.54a8.31 8.31 0 0 0-1.06 1.16c-.29.75-.53 1-.78.93a.26.26 0 0 1-.13-.13v2.73a2.73 2.73 0 0 0 2.73 2.73H5.06c-.37-.16-.49-.4-.64-.92a2.8 2.8 0 0 1-.07-1 2.2 2.2 0 0 0-.06-.94h0a2 2 0 0 1 0-1.3s.15-.26.34-.26a2.8 2.8 0 0 0 1-.16.13.13 0 0 1 .1 0 .42.42 0 0 0 .17-.13 13.44 13.44 0 0 0 .89-1.66 1.84 1.84 0 0 0 .18-.48 3.75 3.75 0 0 1 1.5-2.5M23.35 34.16h-3.9V1h6l4 27.32c-.6-6.49-1.39-17-1.39-22.49V1H32V34.16H26.5L22.79 7.63c.32 5.94.56 13 .56 17zM38.7 19.78V30h.74c1.39 0 1.81-.79 1.81-2.37V22c0-1.62-.51-2.23-2-2.23zm0-14.56V16.16h.56c1.58 0 2-.6 2-2.41V7.45c0-1.53-.46-2.23-1.81-2.23zM34.25 34.16V1h5.52c3.66 0 5.94 2 5.94 6.63v4.87c0 3-.93 4.55-2.23 5.33 1.3.83 2.23 2.32 2.23 4.87v4.82c0 4.55-2.41 6.59-5.94 6.59zM51.45 24.19h2.37l-.37-6.08C53.31 15.7 52.94 8 52.66 3.92h-.19l-.65 14.19zM54 27.95H51.27l-.37 6.21H46.4L49.64 1H56l3.15 33.12H54.42zM95.58 34.17V1H100V30h3.67v4.18zM113.72 34.17h-8.63V1h8.63V5.21h-4.18V15.42h3.62V19h-3.62V30h4.18zM122.29 28h-2.79l-.37 6.22h-4.5L117.88 1h6.31l3.16 33.15h-4.69zm-2.6-3.76h2.37l-.37-6.08c-.14-2.41-.51-10.07-.79-14.21h-.19l-.65 14.21zM136.62 32a4.17 4.17 0 0 1-3.71 2.41c-2.32 0-4.46-1.62-4.46-6.36V7.48c0-4.83 1.86-6.73 5.76-6.73s5.71 1.9 5.71 6.73v7.43h-4.46V7.06c0-1.44-.42-2.14-1.25-2.14s-1.3.7-1.3 2.14V28.14c0 1.44.56 2.14 1.62 2.14a1.47 1.47 0 0 0 .93-.37V21.08h-1.21V16.86h5.66V34.17h-2.32zM153.5 1V27.72c0 5.06-1.81 6.73-5.71 6.73S142 32.78 142 27.72V1h4.46V28.14c0 1.62.42 2.14 1.3 2.14s1.25-.51 1.25-2.14V1zM164.25 34.17h-8.63V1h8.63V5.21h-4.18V15.42h3.62V19h-3.62V30h4.18zM83.18 16.09l-5.88 6h5.47v4.63a7.61 7.61 0 0 1-3.38.72 8.9 8.9 0 0 1-5.51-1.83l-3.5 3.49 1.94-5a10.91 10.91 0 0 1-1.95-6.24c0-5.11 3.47-8.88 8.25-8.88A9.24 9.24 0 0 1 82 9.57l6.77-2.2-2.39 3L90 9l-2.36 2.42-.29.31h3.23V.95h-5.1v1.6a18.67 18.67 0 0 0-6.77-1.17c-10.18 0-17.51 7.09-17.51 17 0 9.65 7 16.35 17.17 16.35a22.09 22.09 0 0 0 12.78-3.86V16.09z"/><path class="cls-2" d="M77.75 12.15L84.92 9.77 82.31 12.91 85.14 11.94 73.65 23.78 76.92 15.53 75.05 16.25 77.75 12.15z"/><path class="cls-2" d="M77.37,15.08l-3,7.59L84.2,12.53l-2.67.92,2.62-3.15-6.23,2.06L75.7,15.72Zm-4.44,9.8L76.46,16l-2.06.79,3.19-4.84,8.11-2.69-2.6,3.12,3-1Z"/><path class="cls-3" d="M75.78 15.14L75.05 16.25 76.92 15.53 77.3 14.57 75.78 15.14zM83.54 10.23L80.92 13.39 82.31 12.91 84.92 9.77 83.54 10.23zM83.5 12.5L74.39 21.9 74.39 21.9 73.65 23.78 85.14 11.94 83.5 12.5z"/><path class="cls-4" d="M75.05,16.25l1.87-.71-3.27,8.24L85.14,11.94l-2.82,1,2.61-3.14-7.17,2.38ZM71.93,26.78c.51-1.31,4-10.17,4-10.17l-2.32.89,3.79-5.77,9.63-3.2-2.58,3.11,3.23-1.13Z"/><path d="M177.47 28.41c0 4.47-1.57 6.09-4.29 6.09-3 0-4.38-1.61-4.38-6.09v-5h2.35v5.49c0 2.35.42 3.32 2 3.32 1.38 0 1.94-1 1.94-3.32V27c0-2.54-.23-4.06-3-7.84-2.17-3-3.37-4.89-3.37-9.13v-3c0-4.47 1.66-6.09 4.38-6.09 2.9 0 4.29 1.61 4.29 6.09V12h-2.35V6.59c0-2.35-.32-3.32-1.94-3.32-1.38 0-2 1-2 3.32v3c0 3.41.6 4.61 2.67 7.56 3 4.15 3.64 5.44 3.64 9.27zM184.25 3.74V34.22H181.9V3.74h-3.56V1.29h9.47V3.74zM197.58 7.1v21.3c0 4.47-1.61 6.09-4.33 6.09-3 0-4.33-1.61-4.33-6.09V7.1c0-4.47 1.61-6.09 4.33-6.09C196.15 1 197.58 2.63 197.58 7.1zm-2.35-.51c0-2.35-.37-3.32-2-3.32-1.38 0-2 1-2 3.32V28.91c0 2.35.37 3.32 2 3.32 1.38 0 2-1 2-3.32zM202.83 34.22h-2.35V1.29h2.86c4.1 0 5.81 1.48 5.81 9.91v3.37c0 5.16-1.06 7.47-2.72 8.35a6.65 6.65 0 0 1 .78 1.89c.23 1.06 2.12 9.41 2.12 9.41h-2.72l-1.94-10.84h-1.84zm0-30.53V21h1.29c1.71 0 2.67-1.75 2.67-6.78v-3c0-5-.6-7.61-2.63-7.61zM219 34.22h-7.15V1.29H219V3.6h-4.8V16.19h4.2v2.31h-4.2V31.91H219z"/></g></g></svg>