<svg id="Layer_1" xmlns="http://www.w3.org/2000/svg" viewBox="0 0 191 35"><style>.st1{fill:#00438c}.st2{fill:#da1a32}</style><path fill="#fff" d="M15.79 3.47L12.8.08H3.46L.47 3.47v28.06l2.99 3.39h9.34l2.99-3.39z"/><path class="st1" d="M3.9 1.3h3.68v15.63H5.77L1.54 5.92V3.97L3.9 1.3zM1.54 18.07h3.07l-3.07 8.3v-8.3zm3-1.14h-3V9.1l3 7.83zM3.9 33.7l-2.36-2.68v-1.37l4.29-11.59h1.75V33.7H3.9z"/><path class="st2" d="M14.72 3.97v1.95L10.5 16.93H8.68V1.3h3.68l2.36 2.67zm0 22.4l-3.07-8.3h3.07v8.3zm0-17.27v7.83h-3l3-7.83zM8.68 33.7V18.07h1.75l4.28 11.59v1.37l-2.36 2.68H8.68z"/><g><path class="st1" d="M90.34 23.09v-2.61h-5.75v-1.89h4.94v-2.21h-4.94v-1.89h5.75v-2.61h-6.93l-1.64 1.63v7.94l1.64 1.64zM132.24 23.09v-2.61h-5.74v-1.89h4.94v-2.21h-4.94v-1.89h5.74v-2.61h-6.93l-1.63 1.63v7.94l1.63 1.64zM94.61 19.62h3.78v3.47h2.82v-9.58l-1.63-1.63h-6.15l-1.63 1.63v9.58h2.82v-3.47zm3.78-2.4h-3.78v-2.83h3.78v2.83zM110.49 23.09l1.63-1.64v-4.48h-2.83v3.41h-3.76V14.6h5.97v-2.72h-7.16l-1.63 1.63v7.94l1.63 1.64zM75.83 20.36v-8.48h-2.82v11.2h7.51v-2.72zM119.73 11.88v8.5h-3.76v-8.5h-2.82v11.2h7.78l1.63-1.63v-9.57z"/><path class="st2" d="M54.3 20c-.01.07-.06-.09-.1.2h6.49l-.4 2.64H50.6l.62-3.59c.16-1.07.96-1.35 1.89-1.67l4.75-1.44c.03-.21.15-.95.21-1.38h-3.13l-.16 1.02H51.6l.28-1.82c.16-1.01 1.23-1.84 2.4-1.84h5.08c.64 0 1.22.25 1.6.68.24.27.38.59.41.93.02.14.01.28-.01.42l-.41 2.68c-.14.92-.81 1.27-1.44 1.5L54.3 20zM70.5 22.42c-.71-1.17-2.76-4.54-2.97-4.89.25-.3 3.31-3.97 4.25-5.1v-.33h-3.69l-3.02 3.69c.18-1.36.5-3.69.5-3.69h-3.32l-1.44 10.71h3.32s.35-2.65.52-3.89c.7 1.21 2.26 3.89 2.26 3.89h3.6v-.39z"/><path class="st1" d="M36.94 23.11l1.7-1.7v-2.72l-1.18-1.18 1.18-1.18v-2.72l-1.7-1.69h-7.67v11.2h7.67zm-1.09-2.47h-3.79v-2.15h3.79v2.15zm0-4.29h-3.79v-1.97h3.79v1.97zM47.47 11.91H41.46l-1.68 1.68v9.52h2.79v-3.44h3.79v3.44h2.79v-9.52l-1.68-1.68zm-1.11 5.32h-3.79v-2.85h3.79v2.85zM26.43 11.91h-7.69v11.2h2.79v-8.73h3.79v8.73h2.79v-9.52z"/><g><path class="st2" d="M145.46 18.24c.03.11.04.2.04.29V20.96c0 .09-.01.18-.04.29-.03.11-.06.2-.09.27L143.89 23c-.07.04-.17.07-.28.1-.11.02-.21.03-.3.03h-6.09c-.2 0-.3-.1-.3-.3v-1.94c0-.09.03-.16.09-.22s.13-.09.22-.09H142.68c.09 0 .16-.03.22-.08s.09-.12.09-.21v-1.33c0-.09-.03-.16-.09-.22a.294.294 0 0 0-.22-.09H139.09a1.587 1.587 0 0 1-.56-.11l-1.48-1.48c-.04-.09-.07-.18-.1-.29-.02-.11-.03-.2-.03-.29v-2.42c0-.09.01-.18.03-.29.02-.11.05-.2.1-.27l1.48-1.48c.07-.03.17-.06.27-.09.11-.03.2-.04.29-.04h5.75c.09 0 .16.03.22.09s.09.13.09.22v1.97c0 .09-.03.16-.09.22s-.13.09-.22.09h-5.11a.33.33 0 0 0-.22.08c-.06.05-.09.12-.09.21v1.3c0 .09.03.16.09.22s.13.09.22.09h3.6c.09 0 .18.01.3.03.11.02.21.05.28.08l1.48 1.48c.01.07.04.17.07.27zM155.87 14.31c0 .09-.03.16-.09.22s-.13.09-.22.09h-2.28a.33.33 0 0 0-.22.08c-.06.05-.09.12-.09.21v7.91c0 .09-.03.16-.08.22s-.12.09-.21.09h-2.23c-.09 0-.16-.03-.22-.09a.294.294 0 0 1-.09-.22v-7.91c0-.09-.03-.15-.08-.21a.286.286 0 0 0-.21-.08h-2.28c-.09 0-.16-.03-.22-.09a.294.294 0 0 1-.09-.22V12.2c0-.2.1-.3.3-.3H155.53c.09 0 .16.03.22.09s.09.13.09.22v2.1zM167.07 13.5c.03.07.06.17.09.27.03.11.04.2.04.29v6.89c0 .09-.01.18-.04.29-.03.11-.06.2-.09.27l-1.48 1.48c-.07.04-.17.07-.28.1-.11.02-.21.03-.3.03h-5.09c-.09 0-.18-.01-.29-.03a.662.662 0 0 1-.27-.1l-1.48-1.48c-.04-.07-.07-.17-.1-.27-.02-.11-.03-.2-.03-.29v-6.9c0-.09.01-.18.03-.29.02-.11.05-.2.1-.27l1.48-1.48c.07-.03.17-.06.27-.09.11-.03.2-.04.29-.04H165.01c.09 0 .18.01.3.04.11.03.21.06.28.09l1.48 1.49zm-2.71 1.12h-3.77v5.79h3.77v-5.79zM179.51 22.86c.04.07.05.14.02.18-.03.05-.09.07-.18.07h-2.55c-.09 0-.17-.02-.26-.07a.474.474 0 0 1-.19-.18l-1.8-3.05c-.02-.04-.06-.06-.11-.06h-1.81c-.05 0-.08.03-.08.08v2.98c0 .2-.1.3-.3.3h-2.21c-.2 0-.3-.1-.3-.3V12.2c0-.09.03-.16.09-.22s.13-.09.22-.09H177c.09 0 .18.01.3.04.11.03.21.06.28.09l1.48 1.48c.03.07.06.17.09.27.03.11.04.2.04.29v3.5c0 .06-.02.14-.05.23-.03.09-.07.17-.11.25l-1.48 1.51 1.96 3.31zm-3.2-8.35h-3.88v2.73h3.88v-2.73zM190.44 11.98c.06.06.09.13.09.22v2.02c0 .09-.03.16-.09.21a.33.33 0 0 1-.22.08h-5.38c-.05 0-.08.03-.08.08v1.75c0 .04.03.06.08.06h4.59c.09 0 .15.03.21.09.05.06.08.13.08.22v1.6c0 .09-.03.16-.08.22s-.12.09-.21.09h-4.59c-.05 0-.08.03-.08.08V20.44c0 .05.03.08.08.08h5.37c.09 0 .16.03.22.09s.09.13.09.22v2c0 .09-.03.16-.09.22s-.13.09-.22.09h-7.97c-.2 0-.3-.1-.3-.3V12.2c0-.09.03-.16.09-.22s.13-.09.22-.09h7.97c.09 0 .16.03.22.09z"/></g></g></svg>