<svg id="Layer_1" xmlns="http://www.w3.org/2000/svg" viewBox="0 0 159.1 35"><style>.st0{fill:#f05123}</style><path class="st0" d="M78.9 17.3c-.1 0-.1 0 0 0-.2-.2 0-.2 0-.2 1.1-.5 2.1-1.4 2.1-3 0-2.7-2.2-3.8-6.2-3.8H63.3v14.5h12.8c3.6 0 6-1.1 6-3.9 0-2.1-1.4-3.2-3.2-3.6zM67.6 14h7.3c1.3 0 1.7.3 1.7 1.1 0 .6-.5.9-1.7.9h-7.3v-2zm8.5 7.1h-8.5V19H76c1.1 0 1.6.3 1.6.9.1.8-.4 1.2-1.5 1.2zm-44.2-.6l-2.8-10.1h-5.8l-2.8 10.1-2.8-10.1H13l4.6 14.4h5.8l3-10.1 2.8 10.1H35l4.6-14.4h-4.7l-3 10.1zm58.4-10.1l-7.7 14.5h5.1l1.6-3.2h8l1.6 3.2h5.1l-8-14.5h-5.7zm.6 7.7l2.2-4.3 2.2 4.3h-4.4zm-35.5 2.1l-8-9.8h-6.2v14.4h4.3V15l8.2 9.8h6.2V10.4h-4.4v9.8zm56-3.8c-3-.6-3.8-1.3-3.8-2.5s1.1-2.1 3.3-2.1c2.1 0 3.3 1.1 3.5 2.7h2.1c-.5-2.7-2.4-4.4-5.5-4.4s-5.2 1.4-5.2 3.8c0 2.2 1.6 3.3 4.9 4.1 3.6.8 4.4 1.3 4.4 2.8s-1.3 2.4-3.5 2.4c-2.5 0-4.4-1.1-4.7-3.3h-2.1c.5 3.2 3 5.1 6.8 5.1 3.5 0 5.4-1.6 5.4-3.9 0-2.8-1.3-3.8-5.6-4.7zm10.9-6h-1.7v3.3h-2.5v1.7h2.5v5.1c0 3.2 1.4 4.4 4.3 4.4.8 0 1.3-.2 1.7-.5v-1.9c-.5.3-1.3.5-1.9.5-1.7 0-2.4-1.1-2.4-2.4v-5.4h4.4v-1.7h-4.4v-3.1zm10.9 3.2c-3.2 0-5.5 2.2-5.5 5.7 0 3.6 2.4 5.7 5.5 5.7s5.5-2.2 5.5-5.7c0-3.7-2.3-5.7-5.5-5.7zm0 9.6c-2.1 0-3.6-1.4-3.6-3.9 0-2.7 1.6-3.9 3.6-3.9 2.1 0 3.6 1.4 3.6 3.9 0 2.6-1.5 3.9-3.6 3.9zm9.8-6.5c-.2.2-.2 0-.2 0v-2.8H141v11h1.9v-6c0-2.2 1.4-3.3 3.3-3.3.9 0 1.4.2 1.7.3v-2.1c-.3-.2-.8-.2-1.1-.2-1.9 0-3.5.9-3.8 3.1zm11 6.5c-1.9 0-3.3-1.4-3.5-3.6h8.5v-.2c0-3.9-2.4-6-5.1-6-3 0-5.2 2.1-5.2 5.8 0 3.3 2.4 5.7 5.2 5.7 2.2 0 4.1-1.3 4.9-3.3H157c-.7 1.3-1.7 1.6-3 1.6zm0-7.9c1.6 0 2.8.9 3.2 2.8h-6.5c.5-1.9 1.8-2.8 3.3-2.8z"/><path class="st0" d="M13.1 4.4c.1-.3.4-.8.5-1.2.1-.3.1-.5-.1-.6.1-1-.6-1.9-1.6-2.1-1.1-.2-2.2.5-2.4 1.6s.5 2.2 1.6 2.4h.5c.1 0 .1.1.2.1.1.1.1.4.1.6-.1.2-.5.6-1 1.1L9.8 7.4c-.2.3-.3.5-.3.5s-.4.2-.7.6-.6 1.1-.6 1.1-.3.2-.5.3-.3.2-.5.5c0-.3.1-.4.3-.5.1-.1.3-.6.3-1.1.3-.1.4-.4.4-.7 0-.4-.3-.8-.8-.8-.2 0-.3.1-.4.1-.3-.1-.7-.2-1.1-.1-.2 0-.3.1-.3.2-.1 0-.2.1-.4.3-.2.3-.1.5-.2.6 0 .1-.4.3-.2 1 .1.3 0 .5.1.6 0 .1.1.2.2.2s.1.1.2.1.2.1.2.2V10.8s0 .1-.1.1l-.9.1c-.5 0-.7.1-.7.1s-.4 0-.8.2c-.3.2-.7.7-.8 1.1-.1.2-.1.3-.2.5l-.5.5c-.1-.4-.3-1-.3-1.4v-.1c0-.1 0-.3.1-.4.1-.2.2-.4.2-.6 0-.2 0-.3.1-.5 0-.1 0-.2.1-.3 0-.1.1-.1.1-.2s-.1-.1-.2-.1c-.1.1-.2.2-.2.4 0 .1 0 .2-.1.2h-.2c-.1-.1-.1-.2-.1-.3s-.2-.7-.4-1C.5 9.1.4 9 .4 9c-.1 0-.1 0-.1.1.1.2.1.4.2.5-.1-.1-.1-.2-.2-.3s-.1-.2-.2-.2-.1 0-.1.1v.1c.1.2.2.3.3.5-.1-.1-.1-.1-.2-.1H0v.1c.1.1.2.2.3.4.1.1.1.2.2.3H.4c0 .1.2.2.2.4.1.3.1.6.1 1s0 1.4-.1 1.9c-.1.7-.1 1 .1 1.8.1.5.6.5.9.2.6-.4 1.2-1.3 1.4-1.5.1-.1.2-.4.3-.4.2.2.4 1.2.2 2.1 0 .2-.1.5-.1.6s.1.2.1.2c0 .7-.5.8-.6 1.5-.2.7-.1 1.2 0 1.9s.4 1.4.7 1.9c.3.5.3.9.3.9h.2s.4 1.5 1.1 2.6c2.2 3.3 3 4.8 3.1 5.1.2.3-.1.3-.1.5s.1.3.5.6.7 1.1.8 1.5c.1.5.4 1.3 1.1 1.2.7-.1.7-1 .5-1.5-.1-.5-.7-.8-.8-1.2-.1-.3-.5-.9-.5-1.6v-.3c0-.4.3-.9.2-1.2 0-.3-.8-.8-1-1.2-.2-.3-.3-1-.4-1.1h-.2s-.1-2.3-.4-3.2c-.2-.7-.8-1.3-.8-1.3s.3-.5.6-1.8c.4-1.6-.2-2.4-.4-3.2-.1-.7 0-1.8.5-2.9.2-.4.5-1.5.5-2 0-.3.1-.4.4-.7.3-.3.4-.7.5-1s.3-.6.7-1.1c.2-.3.3-.5.3-.5s.7-.7 1.1-1.3c.6-.8.7-1.2.7-1.4 0-.2.3-.3.4-.6.4-.3.5-.7.6-1z"/></svg>