<svg id="NBA" xmlns="http://www.w3.org/2000/svg" viewBox="0 0 14.5 32.87"><defs><style>.cls-1{fill:#fff;}.cls-2{fill:#d91a32;}.cls-3{fill:#00428b;}</style></defs><title>Footer_Logos</title><path class="cls-1" d="M11.1,0H3.4A3.41,3.41,0,0,0,0,3.4V29.46a3.41,3.41,0,0,0,3.4,3.41h7.69a3.41,3.41,0,0,0,3.41-3.41V3.4A3.4,3.4,0,0,0,11.1,0"/><path class="cls-2" d="M9.19,6v.11c.23.13.35.25.59.4.63.39,1.4,1.09,1.3,3.51.18.53.26,1.57.42,1.9a5.65,5.65,0,0,1,.64,1.68s.09,1,.22,1c.64.14.46.21.55.32s.48.12.48.47a2.63,2.63,0,0,1,.3.54V3.4A2.61,2.61,0,0,0,11.1.8H8.61a1.18,1.18,0,0,1,.76.58c.32,0,.7.74.11,1.81.26.17,0,.44-.13.74-.06.1-.12.27-.3.26-.22.47-.49.93-.7,1-.06.08-.11.29,0,.38a3.41,3.41,0,0,1,.85.5"/><path class="cls-2" d="M13.7,17.7A2.32,2.32,0,1,1,11,14.59c-.27-.67-.83-1.76-1-2.11s-.54-2.56-.62-3c0-.09-1,.57-1,.61S7.63,11.92,7.6,12s0,.3,0,.3.33,0,.52.62.77,2.71.77,2.71-.15.16-.16.15c.73,2.45.47,3.51.8,4.23.42,1,.53.88.88,1.73.26.62.54,3.06.64,3.17a2.28,2.28,0,0,1,.6,1.17,6.13,6.13,0,0,0-.21,1.62c.07.29.11.93.25,1.06s.12.24.06.35a.2.2,0,0,0,0,.13c.22.77.93,2.09-.21,2.77h0a2.59,2.59,0,0,0,2.19-2.57Z"/><path class="cls-3" d="M10.77,29c-.42-.37-.14-.53-.16-.67-.27-1.14-1.18-1.83-.71-2.21a8.91,8.91,0,0,0-.34-.84,14.08,14.08,0,0,1-2.81-2.32c-.25-.27-.67-.54-.75-.76a22.11,22.11,0,0,1-2.39-3.53l-.67-.1c-.31-1.25-1.33-2.3-1.36-3.56a7.17,7.17,0,0,1,.3-1.69,2.1,2.1,0,0,1,.48-.54V12.4c-1.48,0-1-.11-1.31-.68-.17-.4-.05-.48,0-.76A16.24,16.24,0,0,1,2.19,8.33c.08-.28.37-1,.37-1,1.09-2.24,1.5-2.07,2.81-2.2l.06-.09C6.73,5,6.52,4.92,6.7,3.66c-.19.08-.24-.39-.24-.39-.11-.72.2-.58.34-.6C6.83,1.5,7,1.13,7.8.8H3.4A2.61,2.61,0,0,0,.8,3.4V29.46a2.61,2.61,0,0,0,2.6,2.61h7.7c-.88-.48-.36-1.39-.33-3.11"/><path class="cls-1" d="M4.86,30.43V25.71h.91c.53,0,.86.28.86.95v.7c0,.43-.13.64-.31.75a.79.79,0,0,1,.31.69v.69c0,.65-.35.94-.86.94Zm.63-2.05v1.45h.24c.21,0,.27-.11.27-.33v-.8c0-.23-.07-.32-.28-.32Zm0-2.07v1.55h.23c.22,0,.28-.07.28-.33v-.91c0-.22-.06-.31-.27-.31Zm2.62,3.16H7.54l-.08,1H6.83l.57-4.72h.9l.55,4.72H8.19Zm-.28-3.23h0c0,.57-.12,1.57-.15,1.88l-.07.82h.49L8,28.12c0-.32-.12-1.31-.17-1.88M3,30.43H2.44V25.71h.87L4,29.58c-.06-.93-.14-2-.14-3v-.87h.55v4.72h-.8l-.7-3.78c.05.87.07,1.57.07,2.29Z"/></svg>