<svg xmlns="http://www.w3.org/2000/svg" viewBox="0 0 90.39 35"><defs><style>.a{fill:#fff;fill-rule:evenodd}.b{mask:url(#a)}</style><mask id="a" x="0" y="3" width="90.39" height="29" maskUnits="userSpaceOnUse"><path class="a" d="M0 32h90.39V3H0z"/></mask></defs><path class="a" d="M6.32 23.19c-2-.28-3.18-.68-3.18-1.79s1.17-1.9 3-1.9A4 4 0 0 1 9.38 21l.1.14 1.94-1.3-.09-.15c-1-1.6-2.73-2.38-5.25-2.38a6.36 6.36 0 0 0-4.44 1.53 3.52 3.52 0 0 0-1 2.57c0 3 2.62 3.78 5.45 4.16 2.35.31 3.36.94 3.36 2.08 0 1.95-2.52 2.1-3.29 2.1A4.6 4.6 0 0 1 2 27.53l-.09-.15L0 28.66l.07.14C1.26 31 3.18 32 6.12 32s5.82-1.16 5.84-4.4-2.71-4-5.64-4.41m16.06 3.28h-5.26l2.63-5.92zm-1.28-8.72v-.1h-2.66l-6.29 14h2.7l1.29-2.88h7.2l1.31 2.88h2.7zm10.66 10.73l-4.25-10.83h-2.84l5.84 14.09H33l5.82-14.09H36zm10.85-2.62h7.55v-2.38h-7.55v-3.36h7.87v-2.47H40.07v14h10.46v-2.5h-7.92zm18.15-8.28l-4.86 1.54v2.27l2.35-.66v8.79h-2.47v2.17h7.37v-2.17h-2.39zm5.69 5.89a3.38 3.38 0 1 1 6.74 0v2.39a3.38 3.38 0 1 1-6.73 0v-2.39zm3.37-6.12a5.93 5.93 0 0 0-4.06 1.53 6.07 6.07 0 0 0-1.84 4.59v2.39a6.06 6.06 0 0 0 1.84 4.59A5.93 5.93 0 0 0 69.82 32a5.75 5.75 0 0 0 5.91-6.12v-2.41a5.75 5.75 0 0 0-5.91-6.12zm11.69 3.27a1.34 1.34 0 0 1-.33.92 1.41 1.41 0 0 1-2.4-.95 1.28 1.28 0 0 1 1.35-1.33 1.31 1.31 0 0 1 1.38 1.36m1.08 2.16a3.15 3.15 0 0 0 .81-2.16 3.06 3.06 0 0 0-3.25-3.15 3.06 3.06 0 0 0-3.24 3.15 3.06 3.06 0 0 0 3.24 3.14 3.22 3.22 0 0 0 2.44-1m5.91 5.9A1.28 1.28 0 0 1 87.15 30a1.32 1.32 0 0 1-1.39-1.36 1.28 1.28 0 0 1 1.36-1.33 1.31 1.31 0 0 1 1.38 1.36m-1.36-3.15a3.08 3.08 0 0 0-3.24 3.15 3.05 3.05 0 0 0 3.24 3.14 3.2 3.2 0 0 0 2.43-1 3.15 3.15 0 0 0 .82-2.16 3.06 3.06 0 0 0-3.25-3.15M87 17.61l-9 14.08h2.36l9.07-14.08zM6.67 4.29h11.15l-5.58 4.24-5.57-4.24zm11.89.5v7.44H5.93V4.79l6.31 4.81zM5.07 13.08h14.34V3.43H5.07v9.65zm23.36-5.66c-1.43-.24-2.69-.55-2.69-1.62s1.34-1.7 2.6-1.7a3.29 3.29 0 0 1 2.78 1.27l.93-.58A3.87 3.87 0 0 0 28.31 3c-1.71 0-3.81.71-3.78 2.77s1.85 2.44 3.75 2.74c1.49.22 2.87.57 2.86 1.8 0 1.46-1.6 1.84-2.8 1.84a3.59 3.59 0 0 1-3.17-1.74l-1 .59a4.28 4.28 0 0 0 4.18 2.29c1.89 0 4-.72 4-2.94s-2-2.62-3.92-2.93"/><g class="b"><path class="a" d="M34 13.09h1.23V3.21H34zm7.82-4.32h3.08v2.35a4.07 4.07 0 0 1-2.7 1 3.7 3.7 0 0 1-4-3.88 3.82 3.82 0 0 1 3.92-4.08 4.42 4.42 0 0 1 2.98 1.15l.7-.82A5.17 5.17 0 0 0 42.17 3 4.91 4.91 0 0 0 37 8.24a4.78 4.78 0 0 0 5.15 5A5 5 0 0 0 46 11.6V7.69h-4.2zm13 2l-6.04-7.56h-.86v9.88h1.21V5.56l6.07 7.53h.85V3.21h-1.21zM69 3.21v5.93a2.82 2.82 0 1 1-5.63 0V3.23h-1.22v5.92a3.88 3.88 0 0 0 4.05 4.13 3.83 3.83 0 0 0 4-4.13V3.21zm8 5.55h-3.29V4.35H77a2.21 2.21 0 0 1 0 4.41m0-5.55h-4.5v9.88h1.21V9.9H77a3.35 3.35 0 1 0 0-6.69"/></g></svg>