<?xml version="1.0" encoding="UTF-8"?>
<svg width="120" height="55" version="1.1" viewBox="0 0 120 55.000001" xml:space="preserve" xmlns="http://www.w3.org/2000/svg" xmlns:cc="http://creativecommons.org/ns#" xmlns:dc="http://purl.org/dc/elements/1.1/" xmlns:rdf="http://www.w3.org/1999/02/22-rdf-syntax-ns#"><metadata><rdf:RDF><cc:Work rdf:about=""><dc:format>image/svg+xml</dc:format><dc:type rdf:resource="http://purl.org/dc/dcmitype/StillImage"/><dc:title/></cc:Work></rdf:RDF></metadata>
<style type="text/css">
	.st0{fill:none;}
	.st1{fill:#F6BB60;}
	.st2{fill:#FFFFFF;}
	.st3{fill:#CC0000;}
</style>
<g transform="matrix(.58708 0 0 .59076 -1.1742 -1.1815)" fill="#ca2026">
	<path class="st3" d="m101 5.9c-1 0-1.8-0.8-1.8-1.8s0.8-1.8 1.8-1.8 1.8 0.8 1.8 1.8-0.8 1.8-1.8 1.8m0 0.4c1.2 0 2.1-1 2.1-2.1 0-1.2-0.9-2.1-2.1-2.1s-2.1 1-2.1 2.1 0.9 2.1 2.1 2.1m-0.1-2c0.1 0 0.3 0 0.4 0.1s0.1 0.3 0.1 0.5c0 0.1 0.1 0.3 0.1 0.4h0.5c-0.1-0.2-0.1-0.5-0.2-0.7 0-0.3-0.1-0.4-0.4-0.5 0.3-0.1 0.5-0.3 0.5-0.6 0-0.6-0.5-0.7-0.9-0.7h-0.8v2.5h0.4v-1zm-0.3-0.4v-0.7h0.5c0.3 0 0.4 0.1 0.4 0.3s-0.1 0.3-0.5 0.4z"/>
	<path class="st3" d="m2 2v26.1c2.5-2.2 5.9-3.5 9.9-3.5 5.9 0 10.3 2.4 8.8 10.3h-8.4c0.5-3.8-0.3-4.3-1.4-4.3-2.4 0-3.1 2.4-3.9 6.1-0.7 3.5-1.1 6.1 1.2 6.1 1.2 0 2.1-0.7 3.3-3.8h6c1.5-1.5 3.1-3 4.9-4.4l2-9.5h10.9c0.5 0 1 0 1.5 0.1 3-1.6 6.2-3.2 9.4-4.5 18.9-7.9 37.7-9.8 48.8-5.9v-12.8zm10.2 46c-2 3.9-2.6 7.7-1.1 10.7 5.1 10.1 28.9 9.9 51.8 0.3 5.8-2.4 11-5.2 15.5-8.2 13.4-9 18.6-19.1 14.8-26.6-5.2-10.1-26-11.2-48.8-1.6-2.1 0.9-4.1 1.8-6.1 2.8 6.6 1 7.9 5.6 6.6 11.6-1.5 7-7 11.3-14.1 11.3h-11.5l2.6-12.2c-1.2 1-2.2 1.9-3.2 3h1.3c-1.2 4.8-4.2 7.6-7.8 8.9zm42.9-22.8-1.1 14.6l5.2-14.6h9.5l-0.9 14.6h0.1l5.1-14.6h8.2l-9.9 23.2h-10l1-15.1h-0.1l-5.4 15.1h-9.8l-0.1-23.2zm13 36.9c-26 10.9-52 10.2-57.9-1.2-1.9-3.6-1.7-7.8 0.3-12.3-1.3 0.2-2.6 0.4-3.8 0.4-1.8 0-3.4-0.3-4.7-0.7v46.5h92.8v-49.2c-2.5 2.4-5.4 4.7-8.8 6.9-5.1 3.4-11.5 6.9-17.9 9.6zm-32.7-25.3c0.5-2.3 0.6-3.9 0.2-4.9-0.4-0.9-1.1-1.5-2.6-1.5h-0.9l-2.7 12.7h0.9c1.5 0 2.5-0.5 3.2-1.5 0.9-0.9 1.4-2.5 1.9-4.8z"/>
		<path class="st3" d="m111.5 38.3v5.9h-5v-19h8.4c4.2 0 6.7 2.5 6.7 6.5s-2.5 6.6-6.7 6.6zm0-4.5h2.8c1.1 0 2.1-0.4 2.1-2.1s-1-2.1-2.1-2.1h-2.8z"/>
		<path class="st3" d="m137.5 39.7v4.5h-13.7v-19h13.5v4.5h-8.5v2.5h7.2v4.5h-7.2v3.1h8.7z"/>
		<path class="st3" d="m139.5 34.5c0-5.4 2-9.6 8.8-9.6s8.8 4.2 8.8 9.6-2 9.9-8.8 9.9-8.8-4.4-8.8-9.9zm5.3 0c0 3.5 0.6 5.7 3.5 5.7s3.5-2.2 3.5-5.7-0.6-5.4-3.5-5.4-3.5 1.9-3.5 5.4z"/>
		<path class="st3" d="m164.9 38.3v5.9h-5v-19h8.4c4.2 0 6.7 2.5 6.7 6.5s-2.5 6.6-6.7 6.6zm0-4.5h2.8c1.1 0 2.1-0.4 2.1-2.1s-1-2.1-2.1-2.1h-2.8z"/>
		<path class="st3" d="m190.5 39.7v4.5h-13.4v-19h5v14.5z"/>
		<path class="st3" d="m206.4 39.7v4.5h-13.7v-19h13.5v4.5h-8.5v2.5h7.2v4.5h-7.2v3.1h8.7z"/>
		<path class="st3" d="m118.5 58.6-2.1 11h-6.4l-4.3-19.1h5.6l2.2 12.8 2.2-12.8h5.9l2.3 12.8 2.1-12.8h5.3l-4.3 19.1h-6.4z"/>
		<path class="st3" d="m138.5 61.9v7.5h-5v-19h5v7h5.6v-7h5v19h-5v-7.5z"/>
		<path class="st3" d="m151.8 59.9c0-5.4 2-9.6 8.8-9.6s8.8 4.2 8.8 9.6-2 9.9-8.8 9.9c-6.9-0.1-8.8-4.5-8.8-9.9zm5.3 0c0 3.5 0.6 5.7 3.5 5.7s3.5-2.2 3.5-5.7-0.6-5.4-3.5-5.4c-3-0.1-3.5 1.9-3.5 5.4z"/>
		<path class="st3" d="m117.1 90.5v-1.9h-2.2v-4.5h7.2v9.9c-2.8 0.8-4.7 1.1-7.1 1.1-6.8 0-8.8-4.5-8.8-9.9s2-9.6 8.8-9.6c2.4 0 4.3 0.3 7.1 1.1l-1.1 4.2c-3.1-0.7-4.2-0.8-5.6-0.8-2.6 0-3.9 1.7-3.9 5.2 0 3.8 1.3 5.4 3.9 5.4 0.6-0.1 1.1-0.1 1.7-0.2z"/>
		<path class="st3" d="m139 90.3v4.5h-13.7v-19h13.5v4.5h-8.5v2.5h7.2v4.5h-7.2v3.1h8.7z"/>
		<path class="st3" d="m150.7 80.3v14.5h-5v-14.5h-4.7v-4.5h14.5v4.5z"/>
		<path class="st3" d="m163.3 94.8v-19h5v19z"/>
		<path class="st3" d="m180.2 80.3v14.5h-5v-14.5h-4.7v-4.5h14.5v4.5z"/>
	<path class="st3" d="m190.3 79.6c-1 0-1.8-0.8-1.8-1.8s0.8-1.7 1.8-1.7 1.7 0.8 1.7 1.7c0 1-0.8 1.8-1.7 1.8m0 0.4c1.2 0 2.1-1 2.1-2.1 0-1.2-0.9-2.1-2.1-2.1s-2.1 1-2.1 2.1c-0.1 1.1 0.9 2.1 2.1 2.1m-0.1-2c0.1 0 0.3 0 0.4 0.1s0.1 0.3 0.1 0.5c0 0.1 0.1 0.3 0.1 0.4h0.5c-0.1-0.2-0.1-0.5-0.1-0.7 0-0.3-0.1-0.4-0.4-0.5 0.3-0.1 0.5-0.3 0.5-0.6 0-0.6-0.5-0.7-0.9-0.7h-0.8v2.5h0.4v-1zm-0.4-0.4v-0.6h0.5c0.3 0 0.4 0.1 0.4 0.3s-0.1 0.3-0.4 0.4h-0.5z"/>
</g>
</svg>
