<?xml version="1.0" encoding="UTF-8" standalone="no"?>
<svg
   xmlns:dc="http://purl.org/dc/elements/1.1/"
   xmlns:cc="http://creativecommons.org/ns#"
   xmlns:rdf="http://www.w3.org/1999/02/22-rdf-syntax-ns#"
   xmlns:svg="http://www.w3.org/2000/svg"
   xmlns="http://www.w3.org/2000/svg"
   viewBox="0 0 110.8125 72.662498"
   height="72.662498"
   width="110.8125"
   xml:space="preserve"
   version="1.1"
   id="svg2"><metadata
     id="metadata8"><rdf:RDF><cc:Work
         rdf:about=""><dc:format>image/svg+xml</dc:format><dc:type
           rdf:resource="http://purl.org/dc/dcmitype/StillImage" /></cc:Work></rdf:RDF></metadata><defs
     id="defs6" /><g
     transform="matrix(1.25,0,0,-1.25,0,72.6625)"
     id="g10"><g
       transform="scale(0.1,0.1)"
       id="g12"><path
         id="path14"
         style="fill:#f2561a;fill-opacity:1;fill-rule:nonzero;stroke:none"
         d="m 595.785,455.215 c 195.93,7.93 219.348,-144.977 290.676,-204.863 -26.32,-9.008 -145.488,17.398 -147.688,64.898 -2.703,60.172 -51.277,84.297 -117.019,93.773 -79.063,11.422 -240.691,6.997 -263.762,91.661 49.746,-64.918 159.524,-41.582 237.793,-45.469" /><path
         id="path16"
         style="fill:#f2561a;fill-opacity:1;fill-rule:nonzero;stroke:none"
         d="m 849.137,324.063 c -13.223,85.277 -70.254,144.449 -114.082,162.187 -43.907,17.766 -127.539,38.684 -183.606,95.078 37.141,-81.562 112.981,-97.129 166.848,-121.93 66.387,-29.367 98.484,-88.109 130.84,-135.335 l 0,0" /><path
         id="path18"
         style="fill:#5e6061;fill-opacity:1;fill-rule:nonzero;stroke:none"
         d="m 863.648,125.879 c 0.86,0 1.543,0.168 2.079,0.519 0.558,0.36 0.832,0.946 0.832,1.786 0,1.445 -0.996,2.168 -3.02,2.168 l -2.351,0 0,-4.473 2.46,0 0,0 z m -4.531,6.164 4.598,0 c 1.359,0 2.551,-0.266 3.515,-0.781 0.969,-0.52 1.446,-1.485 1.446,-2.864 0,-1.132 -0.332,-1.945 -1.004,-2.48 -0.684,-0.547 -1.406,-0.879 -2.227,-1.008 0.508,-0.242 0.938,-0.633 1.289,-1.18 0.332,-0.566 0.645,-1.113 0.938,-1.726 0.281,-0.656 0.566,-1.32 0.82,-1.965 0.254,-0.672 0.555,-1.289 0.879,-1.875 l -2.324,0 -1.602,3.652 c -0.39,0.801 -0.761,1.407 -1.132,1.836 -0.372,0.411 -0.879,0.625 -1.555,0.625 l -1.57,0 0,-6.113 -2.071,0 0,13.879 z m 4.598,-17.48 c 1.555,0 2.922,0.281 4.172,0.808 1.218,0.567 2.273,1.309 3.105,2.227 0.848,0.937 1.485,2.031 1.973,3.293 0.449,1.238 0.683,2.578 0.683,4.019 0,1.418 -0.234,2.746 -0.664,4.016 -0.449,1.269 -1.105,2.375 -1.953,3.34 -0.871,0.937 -1.926,1.679 -3.164,2.265 -1.25,0.567 -2.676,0.852 -4.258,0.852 -1.593,0 -3.007,-0.285 -4.23,-0.832 -1.231,-0.547 -2.254,-1.289 -3.133,-2.215 -0.84,-0.93 -1.465,-2.043 -1.914,-3.301 -0.43,-1.262 -0.644,-2.617 -0.644,-4.082 0,-1.418 0.234,-2.785 0.671,-4.062 0.461,-1.262 1.125,-2.356 2.004,-3.293 0.879,-0.918 1.942,-1.66 3.164,-2.227 1.25,-0.527 2.637,-0.808 4.188,-0.808 m -0.067,-1.528 c -1.64,0 -3.164,0.305 -4.609,0.852 -1.426,0.605 -2.656,1.418 -3.703,2.461 -1.043,1.035 -1.856,2.257 -2.461,3.742 -0.594,1.453 -0.887,3.074 -0.887,4.863 0,1.746 0.293,3.34 0.84,4.805 0.567,1.453 1.356,2.703 2.383,3.769 1.004,1.051 2.246,1.883 3.672,2.489 1.414,0.586 3.008,0.879 4.765,0.879 1.797,0 3.418,-0.313 4.864,-0.938 1.445,-0.633 2.676,-1.484 3.672,-2.559 1.004,-1.074 1.777,-2.363 2.324,-3.808 0.547,-1.465 0.82,-3.027 0.82,-4.68 0,-1.687 -0.285,-3.25 -0.859,-4.695 -0.586,-1.445 -1.406,-2.684 -2.395,-3.762 -1.043,-1.043 -2.265,-1.875 -3.699,-2.488 -1.426,-0.625 -3,-0.93 -4.727,-0.93" /><path
         id="path20"
         style="fill:#5e6061;fill-opacity:1;fill-rule:nonzero;stroke:none"
         d="m 186.137,84.9609 c -5.731,1.7305 -10.496,4.6993 -14.321,8.8868 -3.695,4.1211 -6.179,9.5623 -7.578,16.0153 -0.629,3.172 -0.933,6.485 -0.933,9.895 0,3.64 0.332,7.312 1.054,11.172 2.149,11.375 6.379,21.48 12.645,29.98 6.426,8.574 15.269,15.555 26.301,20.836 9.718,4.738 20.832,8.234 33.156,10.5 11.492,2.063 23.617,3.828 36.512,5.156 0.187,0.801 0.367,1.563 0.547,2.364 0.546,2.746 0.804,5.269 0.812,7.343 -0.008,2.008 -0.187,3.629 -0.625,4.957 -0.977,2.887 -2.551,4.844 -4.852,6.247 -2.335,1.535 -5.589,2.578 -9.878,3 -4.489,0.41 -9.27,0.523 -14.176,0.3 -5.656,-0.25 -12.676,-1.34 -20.957,-3.453 -8.348,-2.152 -16.813,-5.094 -25.414,-8.859 -0.192,-0.071 -0.379,-0.149 -0.571,-0.203 -2.039,-0.133 -4.074,-0.258 -6.105,-0.371 0,0.019 6.117,21.234 9.598,24.781 9.781,10.039 39.152,16.16 48.078,16.379 10.82,0.301 19.851,-0.297 27.218,-1.692 7.438,-1.433 13.965,-4.297 19.352,-8.547 5.273,-4.164 8.863,-9.8 10.43,-16.441 0.675,-2.937 0.98,-6.133 0.972,-9.5 0,-4.445 -0.586,-9.176 -1.711,-14.496 -7.074,-33.547 -14.148,-66.816 -21.222,-101.1055 -10.899,-1.1133 -21.793,-2.9102 -32.672,-4.1797 0.824,4.0625 1.656,8.1252 2.465,12.1682 -1.004,-0.742 -2.028,-1.485 -3.145,-2.332 -4.191,-3.215 -8.222,-5.8987 -12.062,-8.0393 -5.262,-2.9688 -10.207,-5.4102 -14.95,-7.3633 -5.011,-1.9805 -11.328,-3.4492 -19.308,-4.5586 -6.711,-0.9297 -13.043,-0.5977 -18.66,1.1601 m 62.031,83.1441 c -9.578,-1.66 -17.277,-3.535 -23.211,-5.652 -6.855,-2.531 -12.805,-5.976 -17.734,-10.41 -4.797,-4.211 -7.903,-9.672 -9.235,-16.906 -0.531,-2.481 -0.758,-4.641 -0.758,-6.621 0.004,-4.676 1.247,-7.715 3.434,-9.871 3.223,-3.079 8.941,-4.473 18.098,-3.411 7.687,0.86 14.976,3.243 21.824,7.102 6.723,3.797 13.309,8.25 19.684,13.309 2.445,11.906 4.89,23.781 7.328,35.605 -5.496,-0.84 -11.961,-1.855 -19.43,-3.145" /><path
         id="path22"
         style="fill:#5e6061;fill-opacity:1;fill-rule:nonzero;stroke:none"
         d="m 301.832,98.4375 c 1.473,7.5395 2.953,15.0785 4.43,22.5785 -0.008,0.097 30.261,32.441 55.039,58.32 24.762,25.977 42.554,45.637 42.554,45.664 -26.511,-0.789 -53.031,-1.762 -79.523,-2.914 1.688,8.629 3.395,17.207 5.094,25.789 40.359,1.309 80.73,2.313 121.109,3.043 -1.426,-6.895 -2.836,-13.793 -4.262,-20.707 0,-0.016 -30.089,-28.668 -58.867,-58.539 -28.785,-29.875 -39.269,-43.313 -39.265,-43.234 26.492,1.972 53.011,3.546 79.539,4.699 -1.559,-7.629 -3.125,-15.274 -4.676,-22.942 -0.172,-0.789 -0.348,-1.574 -0.516,-2.382 -40.265,-2.051 -80.5,-5.176 -120.656,-9.3755" /><path
         id="path24"
         style="fill:#5e6061;fill-opacity:1;fill-rule:nonzero;stroke:none"
         d="m 512.055,107.754 -0.203,0 c -26.407,-0.574 -46.497,4.805 -59.18,17.344 -8.734,8.574 -13.098,19.933 -13.43,33.664 -0.176,6.269 0.52,13.015 1.949,20.281 4.614,22.871 15.543,41.527 32.7,55.52 17.05,13.964 37.511,21.335 60.675,21.738 10.45,0.195 19.532,-0.871 27.344,-3.395 7.813,-2.461 14.434,-6.578 19.512,-12.101 5.117,-5.594 8.516,-12.403 10.195,-20.285 0.613,-2.793 0.918,-5.793 1.004,-8.957 0.168,-5.899 -0.496,-12.461 -1.941,-19.668 -1.008,-4.95 -2.024,-9.883 -3.028,-14.844 -37.5,-0.02 -75.039,-0.586 -112.55,-1.817 -0.731,-4.199 -1.024,-7.929 -0.926,-11.406 0.222,-8.535 2.851,-15.078 7.449,-19.902 7.023,-7.227 17.922,-10.742 34.074,-10.438 5.762,0.125 11.543,0.789 17.305,1.922 5.789,1.231 11.055,2.676 16.023,4.426 5.157,1.816 9.582,3.602 13.184,5.32 3.652,1.711 6.711,3.321 9.172,4.746 0.281,0.196 0.574,0.352 0.879,0.547 l 6.941,0 c 0.02,0 -4.5,-18.379 -5.879,-20.371 -3.582,-5.547 -9.668,-9.062 -15.769,-12.012 -13.215,-6.328 -30.246,-9.98 -45.5,-10.312 m 46.476,92.48 c 0.469,3.243 0.711,6.211 0.633,8.844 -0.047,1.387 -0.164,2.637 -0.379,3.887 -0.527,4.121 -1.894,7.43 -3.789,10.047 -2.187,2.828 -5.156,4.961 -9.172,6.457 -3.914,1.492 -9.48,2.246 -16.57,2.125 -6.856,-0.149 -12.813,-1.106 -17.754,-2.883 -5.137,-1.832 -9.961,-4.379 -14.492,-7.77 -4.621,-3.476 -8.332,-7.281 -11.094,-11.406 -2.187,-3.203 -4.023,-6.801 -5.508,-10.844 26.055,0.743 52.098,1.262 78.125,1.543" /><path
         id="path26"
         style="fill:#5e6061;fill-opacity:1;fill-rule:nonzero;stroke:none"
         d="m 776.988,92.7344 -0.215,0 c -26.738,-0.586 -47.07,4.8633 -59.902,17.5786 -8.859,8.664 -13.262,20.156 -13.594,34.042 -0.175,6.348 0.508,13.184 1.973,20.528 4.668,23.152 15.73,42.062 33.105,56.203 17.247,14.144 37.969,21.605 61.387,22.012 10.606,0.183 19.785,-0.891 27.696,-3.434 7.898,-2.504 14.609,-6.66 19.734,-12.246 5.195,-5.66 8.625,-12.559 10.344,-20.527 0.632,-2.825 0.925,-5.864 1.015,-9.078 0.164,-5.977 -0.527,-12.618 -1.972,-19.903 -1.016,-5.019 -2.032,-10.019 -3.059,-15.039 -37.957,0 -75.957,-0.586 -113.926,-1.836 -0.742,-4.219 -1.043,-8.027 -0.945,-11.551 0.223,-8.613 2.871,-15.254 7.539,-20.117 7.109,-7.336 18.145,-10.871 34.512,-10.578 5.82,0.137 11.66,0.801 17.508,1.973 5.871,1.222 11.203,2.687 16.203,4.453 5.234,1.836 9.726,3.633 13.359,5.39 3.691,1.731 6.785,3.34 9.258,4.805 0.312,0.195 0.605,0.371 0.906,0.547 l 7.031,0 c 0,0 -4.558,-18.613 -5.957,-20.633 -3.621,-5.586 -9.773,-9.152 -15.957,-12.14 -13.379,-6.4379 -30.613,-10.1059 -46.043,-10.4496 m 47.032,93.6136 c 0.476,3.281 0.722,6.269 0.625,8.965 -0.04,1.406 -0.157,2.675 -0.372,3.925 -0.527,4.18 -1.914,7.52 -3.839,10.176 -2.207,2.848 -5.215,5.016 -9.278,6.52 -3.953,1.523 -9.59,2.273 -16.765,2.152 -6.946,-0.137 -12.989,-1.113 -17.989,-2.914 -5.195,-1.856 -10.058,-4.434 -14.648,-7.856 -4.688,-3.527 -8.449,-7.363 -11.231,-11.535 -2.218,-3.25 -4.101,-6.914 -5.585,-11.015 26.367,0.781 52.734,1.289 79.082,1.582" /><path
         id="path28"
         style="fill:#5e6061;fill-opacity:1;fill-rule:nonzero;stroke:none"
         d="m 622.73,266.207 c 13.504,2.051 20.606,4.008 34.512,8.398 l -35.039,-166.39 c -10.976,0.535 -21.965,1.004 -32.941,1.375 0,0 11.836,46.945 21.047,91.348 9.218,44.445 12.421,65.277 12.421,65.269" /><path
         id="path30"
         style="fill:#5e6061;fill-opacity:1;fill-rule:nonzero;stroke:none"
         d="m 679.945,283.707 c 14.133,5.34 36.535,17.289 36.535,17.32 L 675.836,104.543 c -10.938,0.809 -21.895,1.551 -32.871,2.227 0.019,0.015 9.883,42.39 21.277,96.761 11.418,54.395 15.715,80.219 15.703,80.176" /><path
         id="path32"
         style="fill:#5e6061;fill-opacity:1;fill-rule:nonzero;stroke:none"
         d="m 139.063,243.395 -0.793,-4.516 c -4.231,2.348 -8.563,4.305 -12.938,5.781 -6.105,2.012 -13.352,2.992 -21.934,2.992 -9.0347,0 -18.3316,-1.957 -27.5035,-5.66 -9.1992,-3.719 -17.6093,-8.988 -25.1523,-15.804 -7.8477,-7.125 -14.8281,-15.797 -20.543,-25.836 -5.8203,-10.235 -10.0781,-21.875 -12.6758,-34.883 -1.8906,-9.348 -2.8476,-17.899 -2.8476,-25.723 0,-12.918 2.5781,-23.828 8.0195,-32.605 8.6133,-14.0355 23.2031,-21.2035 42.0586,-21.1137 10.6836,0 20.1133,1.4844 28.0391,4.5586 5.6406,2.1485 11.566,5.2539 17.562,9.0938 l -1.062,-5.4219 C 108.852,92.0117 106.332,82.5586 104.887,77.8633 67.6484,65.8984 34.8828,52.1992 7.59375,37.1484 L 0,0 c 35.2969,20.6055 80.6445,38.7891 133.691,53.7031 l 0.079,0.2617 0.023,-0.0195 40.172,196.0347 -34.902,-6.585 0,0 z M 116.488,130.273 c -6.234,-4.226 -12.797,-7.527 -19.988,-9.96 -7.5977,-2.54 -14.625,-3.75 -21.0156,-3.75 -12.5742,0.078 -19.3399,3.828 -22.9024,11.398 -1.9375,4.227 -3.0703,9.852 -3.0703,16.844 0,5.73 0.7696,12.433 2.2578,20 3.5391,17.519 9.9453,30.636 18.9727,39.633 9.2226,9.05 19.6523,13.41 32.3598,13.41 5.273,0 10.445,-0.641 15.492,-1.875 4.441,-1.078 9.094,-2.832 14.097,-5.297 l -16.203,-80.403 0,0" /></g></g></svg>