<svg height="70" viewBox="0 0 62 70" width="62" xmlns="http://www.w3.org/2000/svg"><g fill="none"><path d="m30.1 3.69c-.095-.38-.223-.795-.286-1.176-.032-.128.063-.319.095-.446 0 .064.032.127.032.223.064-.096.095-.16.159-.255.064.128.095.223.127.287h.096c.032-.128.063-.287.095-.414.064-.095.096-.223.16-.318h.127c.222.127.413.223.668.382 0 0 0 .095.063.159.732.827 1.591 1.495 2.45 2.163.637.51 1.241 1.082 1.91 1.591a35.826 35.826 0 0 0 2.481 1.846c.764.54 1.591 1.05 2.387 1.527.509.286 1.05.51 1.59.7 1.114.446 2.26.86 3.405 1.273.668.254 1.336.509 2.005.7.7.19 1.4.318 2.1.477.413.096.89.064 1.209.255.35.254.763.095 1.113.318.16.095.414.032.605.063.414.064.827.16 1.273.223.254.032.54 0 .795 0 .414 0 .827.032 1.241.032.86 0 1.718-.032 2.577-.032.287 0 .573.032.923.032 0 .414-.032.827 0 1.273.032.54.127 1.113.16 1.654.03.35 0 .7.03 1.05.033.605.065 1.178.096 1.782.032.541 0 1.05 0 1.591 0 .35.032.668 0 1.018 0 .573-.063 1.146-.063 1.718 0 .605 0 1.21-.032 1.814 0 .223-.064.445-.064.636v.891l-.095 1.432c-.032.35-.032.668-.064 1.018l-.19 2.132c-.033.477-.128.986-.128 1.464.032.7-.095 1.4-.16 2.068-.03.382 0 .732-.03 1.114 0 .127-.096.222-.096.35-.064.54-.064 1.113-.128 1.654-.095.605-.222 1.21-.35 1.814-.095.54-.19 1.082-.318 1.654-.095.478-.223.955-.318 1.432-.095.446-.16.891-.255 1.336a5.542 5.542 0 0 1 -.159.7c-.127.573-.254 1.114-.381 1.687-.637 0-.891.382-.987.89-.063.573-.35 1.114-.509 1.687-.032.096-.032.223-.095.318-.382.668-.732 1.337-1.146 1.941-.286.414-.7.764-1.018 1.177-.51.605-.955 1.241-1.464 1.878-.445.572-.859 1.145-1.336 1.686-.573.636-1.177 1.21-1.782 1.846-.318.318-.604.668-.89.986-.255.254-.573.509-.828.764-.445.413-.89.827-1.305 1.272-.254.255-.477.573-.731.828-.16.19-.382.318-.573.509-.318.318-.605.636-.955.922-.636.541-1.177 1.21-1.972 1.56-.414.19-.86.381-1.241.636-.573.35-1.21.54-1.814.795-.923.35-1.814.7-2.736 1.082-.668.286-1.273.605-1.941.891-.573.255-1.146.445-1.718.668l-.573.287c-.16 0-.318.031-.51 0-.508-.096-.826.222-1.208.445-.096.064-.35-.064-.446-.16-.19-.19-.286-.445-.445-.667.382-.414.795-.828 1.177-1.241.127-.064.255-.127.382-.223.89-.54 1.75-1.114 2.673-1.623.827-.477 1.718-.859 2.545-1.304.541-.287 1.05-.637 1.56-.955.508-.35 1.017-.7 1.558-1.05.478-.318.955-.572 1.4-.89.828-.605 1.623-1.273 2.418-1.91.446-.35.828-.763 1.21-1.177.636-.668 1.24-1.4 1.845-2.068.573-.637 1.145-1.241 1.718-1.91.477-.54.955-1.081 1.4-1.654.318-.413.605-.859.891-1.304.286-.446.541-.891.796-1.337.254-.413.509-.795.731-1.209.223-.413.446-.859.637-1.304.222-.478.445-.923.668-1.432.223-.573.414-1.177.668-1.75.286-.668.605-1.305.891-1.941v-.127c0-.128 0-.287.064-.414.063-.255.19-.477.254-.732.191-.732.318-1.495.477-2.259.128-.509.287-1.05.319-1.559.031-.35.095-.668.159-1.018.032-.223 0-.477 0-.764.222-.095.222-.286.159-.54-.032-.128-.032-.287-.032-.446.064-.7.095-1.4.16-2.068.03-.446.063-.891.095-1.337.031-.35.063-.668.095-1.018 0-.095.032-.19.032-.318l.095-1.21v-1.271c0-.254-.032-.509.032-.795.096-.35-.032-.764-.032-1.178-.032-.35-.032-.7-.032-1.05 0-.445.096-.859.096-1.304 0-.764-.032-1.527-.032-2.291 0-.477.064-.955.064-1.432 0-.7-.064-1.368-.032-2.068 0-.286-.096-.286-.286-.318a39.87 39.87 0 0 1 -1.941-.16l-1.846-.19c-.382-.032-.732-.128-1.113-.191-.35-.064-.732-.16-1.082-.223-.541-.095-1.082-.159-1.623-.286-.636-.16-1.24-.35-1.877-.51-.541-.158-1.082-.286-1.591-.445-.382-.127-.764-.318-1.146-.477-.254-.096-.509-.16-.731-.286-.669-.35-1.305-.7-1.973-1.05-.477-.255-.955-.541-1.432-.828-.064-.032-.095-.127-.127-.159-.064-.063-.128-.095-.191-.159-.318-.19-.668-.35-.955-.573-.35-.254-.636-.636-1.018-.795-.604-.255-1.05-.668-1.559-1.05-.51-.382-.955-.827-1.4-1.273-.668-.604-1.368-1.177-2.005-1.813-.54-.541-.986-1.114-1.24-1.846-.032-.35-.35-.668-.605-1.018z" fill="#7b7089"/><path d="m30.1 3.69c.223.35.54.67.668 1.05.255.733.7 1.337 1.241 1.846.636.637 1.336 1.21 2.005 1.814.477.414.89.89 1.4 1.273.509.35.954.795 1.559 1.05.382.159.668.54 1.018.795.318.223.636.382.954.573.064.032.128.095.191.159.064.064.064.127.128.16.477.285.954.54 1.431.826.637.35 1.305.7 1.973 1.05.223.128.51.191.732.287.382.159.764.35 1.145.477.541.16 1.05.318 1.591.445.637.191 1.241.382 1.878.51.54.127 1.081.19 1.622.286.35.064.732.159 1.082.223.382.063.732.127 1.114.19.604.064 1.24.128 1.845.191.637.064 1.305.096 1.941.16.223 0 .318.031.287.318-.032.7.031 1.368.031 2.068 0 .477-.063.954-.063 1.432 0 .763.032 1.527.032 2.29 0 .446-.064.86-.096 1.305 0 .35 0 .7.032 1.05.032.382.127.796.032 1.177-.064.287-.032.51-.032.796v1.273c0 .413-.064.795-.096 1.209 0 .095-.031.19-.031.318-.032.35-.096.668-.096 1.018l-.095 1.336c-.064.7-.128 1.4-.16 2.069 0 .159 0 .286.032.445.064.255.032.446-.159.541 0 .286.032.51 0 .764-.063.35-.127.668-.159 1.018-.032.54-.19 1.05-.318 1.559-.159.764-.318 1.495-.477 2.259-.064.255-.191.477-.255.732-.032.127-.032.286-.063.413 0 .032.031.096 0 .128-.287.636-.605 1.304-.891 1.94-.255.573-.414 1.178-.668 1.75-.191.478-.446.955-.669 1.432-.222.446-.413.891-.636 1.305s-.477.827-.732 1.21c-.254.445-.509.89-.795 1.335-.287.446-.573.891-.891 1.305a34.927 34.927 0 0 1 -1.4 1.655l-1.718 1.909c-.605.7-1.21 1.4-1.846 2.068-.382.413-.795.827-1.209 1.177a45.432 45.432 0 0 1 -2.418 1.91c-.446.35-.955.604-1.4.89-.51.35-1.018.7-1.56 1.05-.508.318-1.017.668-1.558.955-.86.445-1.718.859-2.546 1.304-.922.51-1.782 1.082-2.672 1.623-.128.064-.255.127-.382.223-1.018-.7-2.068-1.4-3.087-2.1a249.088 249.088 0 0 0 -3.722-2.45c-.51-.319-1.082-.573-1.591-.923-.414-.255-.764-.573-1.146-.891-.509-.414-.986-.89-1.527-1.273-1.21-.795-2.29-1.718-3.214-2.832-1.05-1.272-2.1-2.545-3.181-3.818-1.241-1.463-2.387-3.022-3.182-4.74-.51-1.082-.891-2.196-1.241-3.342a54.67 54.67 0 0 1 -1.082-3.722c-.255-.987-.445-1.973-.668-2.96a46.828 46.828 0 0 1 -.605-2.895c-.159-.954-.254-1.909-.35-2.895a93.805 93.805 0 0 1 -.222-3.087c-.032-.604-.096-1.177-.128-1.781-.063-1.05-.095-2.069-.159-3.119l-.095-1.781c-.032-.541-.128-1.082-.16-1.591-.031-.923-.031-1.846-.063-2.769v-1.177h.605c.668-.032 1.336-.032 2.004-.063a49.38 49.38 0 0 0 2.26-.223c.476-.064.954-.16 1.4-.255.317-.063.667-.032.986-.095.731-.16 1.463-.318 2.163-.51.446-.127.86-.254 1.273-.413.382-.159.764-.35 1.145-.509.414-.19.86-.318 1.241-.51.573-.254 1.114-.508 1.655-.795l.859-.477c.509-.286 1.018-.54 1.495-.859.51-.35 1.019-.732 1.528-1.114.668-.54 1.368-1.05 2.004-1.622.414-.382.796-.796 1.21-1.178.636-.668 1.336-1.336 1.94-2.068.477-.572.827-1.209 1.21-1.845.254-.414.413-.827.572-1.241zm12.76 45.31c.095-.223.35-.382.19-.668.445-1.241.732-2.546.732-3.882.032-.064.032-.127.063-.223.032-.127.032-.286.064-.413.032-.478.032-.955.064-1.432.032-.287.063-.573.063-.86 0-.222-.031-.413-.35-.381-.318-.605-.636-1.177-.922-1.782-.255-.54-.414-1.114-.637-1.686-.063-.16-.19-.382-.286-.382-.255-.032-.286-.191-.35-.35-.064-.127-.191-.255-.286-.382-.16-.19-.287-.382-.446-.573-.159-.063-.318-.159-.318-.413 0-.032-.096-.064-.16-.128-.19-.127-.445-.254-.508-.413-.064-.223-.223-.287-.35-.382-.096-.064-.16-.127-.255-.19-.159-.446-.254-.542-.7-.542a2.059 2.059 0 0 1 -.254-.286c-.032-.127-.064-.255-.128-.446.382.064.732.064 1.05.16.287.063.35-.032.35-.255 0-.764.128-1.496.191-2.26.064-1.113 0-2.258-.063-3.372-.064-.923-.223-1.814-.319-2.736-.031-.223 0-.478.096-.668.159-.35.382-.669.573-1.019.031-.063.031-.159.031-.222-.159-.541-.318-1.114-.509-1.655a5.28 5.28 0 0 0 -1.336-2.068c-.86-.796-1.877-1.368-2.99-1.782-.733-.286-1.465-.414-2.196-.54-.764-.16-1.56-.096-2.323-.128-.636-.032-1.241-.064-1.877.032-.764.095-1.464.254-2.132.604-.382.223-.764.478-1.177.573-.796.16-1.56.414-2.196.923-.35.286-.7.604-1.018.954-.35.35-.668.764-.923 1.178-.159.254-.254.604-.35.89-.063.191-.095.414-.159.637l-.19.859c-.064.318-.192.604-.224.923-.063.54-.095 1.081-.127 1.59-.032.414-.095.828-.063 1.273 0 .7 0 1.4.063 2.068.096.796.16 1.623.414 2.387.19.604-.096 1.082-.096 1.623 0 .254-.19.509-.286.795-.064.223-.095.445-.16.668-.03.16-.095.318-.158.477-.096.16-.287.319-.287.446.064.445-.35 0-.35.19a86.72 86.72 0 0 1 -.413 2.833c-.127.254-.223.54-.382.795-.127.223-.35.382-.51.573a.241.241 0 0 0 -.063.127c-.127 0-.286 0-.382-.032-.445-.127-.795 0-.827.382-.032.35-.063.7-.127 1.018-.096.573-.191 1.114-.286 1.687-.064.35.381.54.413.89.032 1.21-.127 2.45.318 3.564.032.096.16.127.223.223.032.127.032.223.064.35.063.064.127.159.19.223.35.572.7 1.145 1.082 1.686.128.19.255.35.414.477.382.414.764.828 1.21 1.178.508.413 1.081.731 1.622 1.113.382.255.732.541 1.114.796.381.254.795.509 1.177.795.223.16.445.35.668.51.19.19.382.476.605.508.286.032.572.096.859.191.095.032.254-.127.413-.19.128.031.287.063.414.063.318 0 .636.35.954 0 .032-.032.096.032.16.032.063 0 .159.032.19 0 .191-.287.382-.096.573-.032h.064c0-.096.032-.16.032-.255.127.032.286.064.286.032.19-.286.35-.032.54 0 .35.064.7.16 1.05.191a28.7 28.7 0 0 0 1.655.032c.287 0 .605-.127.891-.16.223-.063.446-.031.669-.063.413-.095.795-.223 1.177-.318.127-.095.254-.16.382-.255.095 0 .19.064.286 0 .223-.127.445-.286.668-.413.541-.35 1.082-.637 1.591-1.018.446-.319.827-.732 1.273-1.082.477-.414.954-.86 1.463-1.305.032 0 .128.032.255.096.127.095.286.222.382.286.318-.223.286-.668.763-.668.032 0 .032-.064.064-.096.096-.222.16-.509.35-.668.096-.254 0-.54 0-.827z" fill="#c5bccf"/><path d="m30.418 1.91c-.032.126-.063.285-.095.413h-.096c-.032-.096-.063-.16-.127-.287-.064.096-.095.16-.16.255-.03-.096-.03-.16-.03-.223.063-.477.317-.223.508-.159z" fill="#9b93a6"/><path d="m41.11 50.973c-.096-.032-.224-.064-.255-.096-.51.446-.987.891-1.464 1.305-.414.382-.827.763-1.273 1.082-.509.381-1.05.7-1.59 1.018-.223.159-.446.286-.669.413-.064.032-.19 0-.286 0-.128.096-.255.16-.382.255-.032 0-.032 0-.064-.032l.032.032c-.382.095-.795.255-1.177.318-.223.032-.446 0-.668.064-.287.063-.573.159-.891.159-.541.032-1.114 0-1.655-.032-.35-.032-.795.541-1.113.477-.191-.031-.319-.254-.51 0-.031.032-.254.032-.381 0 0 .064.127-.54.095-.477h-.064c-.19-.064-.381-.254-.572.032-.032.032-.128 0-.191 0-.064 0-.127-.032-.16-.032-.317.35-.636-.032-.954 0-.127 0-.286-.032-.413-.064-.319-.095-.637-.19-.955-.254s-.605-.16-.923-.223a5.283 5.283 0 0 0 -.668-.509c-.382-.286-.795-.509-1.177-.795-.382-.255-.732-.541-1.114-.796-.54-.382-1.113-.7-1.623-1.113-.445-.35-.795-.796-1.209-1.178a5.53 5.53 0 0 1 -.413-.477c-.382-.573-.732-1.145-1.082-1.686-.064-.096-.127-.16-.191-.223-.032-.127-.032-.223-.064-.35a32.88 32.88 0 0 0 -.222-1.623c-.064-.032-.064-.032.095-.795-.095-.032-.19-.064-.254-.064-.064-1.877.445-3.595 1.05-5.282a.241.241 0 0 0 .063-.127c.16-.19.382-.35.51-.573.158-.254.254-.54.381-.795.191-.223.414-.446.605-.732.19-.318.381-.668.54-.986.191-.35.35-.732.573-1.082s.446-.7.7-1.05c.032-.032.064-.032.096-.064.095-.095.19-.159.254-.254.128-.16.191-.382.318-.51.35-.286.764-.477 1.05-.795.414-.414.764-.668 1.369-.382.222.096.35 0 .35-.286 0-.223.063-.477.381-.541.255-.032.478-.16.7-.255l1.719-.286c.572-.064 1.113-.095 1.686-.159.286-.032.605-.032.89-.064.096.032.192.032.287.064h.573c.605.095 1.24.16 1.845.255.382.063.764.127 1.114.222.318.096.605.255.891.35.51.16 1.018.318 1.495.51.223.095.446.254.637.381.35.223.668.446 1.018.668.064.032.16 0 .255 0 .095.096.19.191.254.287.223.19.477.35.7.54.096.064.16.128.255.192.127.095.286.159.35.381.031.16.318.287.509.414.063.032.159.064.159.127 0 .255.159.35.318.414.127.19.286.382.445.573.096.127.223.222.287.381.095.16.095.319.35.35.095 0 .223.223.286.382.223.573.382 1.146.637 1.687.254.604.604 1.177.922 1.781.032.35.064.669.096.987-.032.032 0 0 0 0 .063.095.127.159.159.254-.032.478-.032.955-.064 1.432-.095.032-.223.064-.35.096.096.127.191.222.287.318-.032.063-.032.127-.064.223-.096.222-.35.509-.286.668.127.286-.064.286-.223.382-.191.127-.318.222-.223.509.064.286.191.604.032.922-.032.032-.032.096 0 .16.095.19.127.381.064.604-.064.19-.064.414-.096.605-.223.445-.223.445-.19.668-.064.063-.16.127-.192.222-.095.287-.19.573-.413.605-.128.255-.191.414-.287.573-.032.063-.095.063-.127.127-.032.35-.223.54-.54.573zm-9.42-12.6c.033.318.065.636.033.954-.032.86-.096 1.718-.096 2.578 0 .763.032 1.527.032 2.322 0 .7-.032 1.4-.032 2.1 0 .446-.032.891-.032 1.337 0 .095.096.254.16.286.413.095.572.127.986.19.159.033.89 0 .986 0 .541 0 .955.033 1.496 0 .254 0 1.94.192 2.45-1.717.127-.51-.032-.987-.191-1.432a3.582 3.582 0 0 0 -.668-1.114c-.35-.382-.382-.382.031-.7.478-.382.764-.859.891-1.463.096-.446 0-.86-.127-1.273-.254-.827-.89-1.273-1.623-1.591a5.061 5.061 0 0 0 -1.654-.414c-.923-.127-1.782-.063-2.641-.063zm-2.162 9.227c-.668-.923-1.527-2.164-2.259-3.118.35-.16.637-.318.923-.414.445-.159.859-.382 1.082-.795.413-.796.604-1.655.445-2.578-.095-.445-.19-.922-.445-1.272-.223-.35-.668-.637-1.082-.828-.477-.222-.986-.318-1.527-.381-.446-.064-.923 0-1.369 0h-1.59v9.227c.922.064 1.781.127 2.64.19.605.033 1.241.096 1.846.064.414 0 .859.16 1.336-.095z" fill="#fd596f"/><path d="m25.805 31.69c-.16 0-.35-.03-.51 0-.19.033-.35.065-.54.096-.86-3.85.636-10.372 1.304-10.468.255-.032 1.91-.509 2.132-.604.382-.096.573-.478.859-.669.382-.222.827-.35 1.305-.286.795.096 1.59.16 2.354.255.191.031.382.127.573.222.35.191.7.414 1.082.605.413.223.731.477.954.923.127.254.382.477.51.763.158.35.222.764.286 1.146.063.445.477.922.922 1.05.064.032.16.127.16.222.063.446.095.891.127 1.337.032.509.095 1.05.095 1.559 0 .159-.127.318-.159.477-.095.477-.159.955-.19 1.432-.064.54-.033 1.114-.096 1.655-.032.254.032.318.254.35.128 0 .223.063.318.095.064.445.16.86.255 1.368-.255-.254-.414-.445-.573-.604-.382-.319-.732-.669-1.145-.955-.127-.095-.382-.064-.573 0-.032-.032-.095-.064-.127-.127-.16-.223-.318-.318-.573-.096-.286.223-.509-.031-.764-.159-.095.064-.159.128-.19.128-.287-.032-.541-.096-.796-.128l-.477-.095c-.191-.032-.414-.032-.605-.032-.286 0-.572-.032-.859-.032l-.032-.032.032.032h-.382c-.031.032-.063.127-.127.191h-.127c-.064-.19-.127-.254-.287-.064-.286.032-.604.032-.89.064-.573.032-1.146.064-1.687.16-.668.031-1.24.126-1.813.222zm9.435 23.31-.05-.05z" fill="#c5bccf"/><g fill="#40354e"><path d="m61.06 12.155c-.033.35 0 5.918 0 6.172.03.573-.033 4.073 0 4.805.03.668-.128 1.336-.128 2.004 0 1.082-.191 2.196-.223 3.31-.064.954-.19 1.909-.286 2.831-.064.605-.096 1.241-.191 1.846-.127.859-.35 1.75-.382 2.609-.032 1.177-.414 2.29-.605 3.436-.19 1.146-.54 2.291-.859 3.437-.222.795-.509 1.59-.763 2.386-.16.509-.318 1.018-.51 1.527-.254.732-.477 1.432-.795 2.132a28.428 28.428 0 0 1 -1.05 2.227c-.254.478-.54.923-.795 1.4-.16.287-.223.637-.414.923-.254.414-.509.827-.827 1.21a43.16 43.16 0 0 1 -1.623 1.908c-.54.637-1.114 1.241-1.686 1.846a25.6 25.6 0 0 1 -1.623 1.59c-.477.446-.986.891-1.495 1.337-.541.509-1.114 1.018-1.655 1.495-.223.191-.51.319-.732.51-.095.063-.159.222-.286.286-.605.413-1.21.859-1.814 1.273-.668.413-1.368.763-2.036 1.145-.223.127-.446.414-.668.414-.414 0-.541.445-.955.445-.254 0-.509.35-.795.51-.605.317-1.21.636-1.814.954-.414.222-.86.445-1.305.636-.413.16-.827.286-1.24.414-.637.19-1.273.413-1.91.572-.477.128-.954.35-1.527.096-1.05-.477-2.195-.764-3.309-1.177-1.177-.446-2.386-.891-3.532-1.432-1.304-.637-2.545-1.4-3.786-2.132-.732-.445-1.432-.955-2.132-1.464a119.825 119.825 0 0 1 -2.959-2.29c-.54-.446-1.082-.891-1.59-1.369a50.4 50.4 0 0 1 -2.324-2.163 12.928 12.928 0 0 1 -1.463-1.75 67.482 67.482 0 0 1 -2.132-3.119c-.382-.604-.636-1.24-.923-1.877a52.113 52.113 0 0 1 -1.113-2.323 27.114 27.114 0 0 1 -.86-2.004c-.286-.827-.477-1.655-.731-2.514-.287-.986-.605-1.972-.86-2.959a74.021 74.021 0 0 1 -.604-2.832c-.095-.54-.223-1.05-.286-1.59-.128-1.05-.191-2.1-.287-3.15-.032-.382-.095-.764-.127-1.146a33.521 33.521 0 0 1 -.127-1.782c-.032-.509-.096-.986-.128-1.495l-.285-4.105c-.032-.604-.127-1.209-.127-1.813-.032-.446 0-.891 0-1.337 0-.732 0-1.495-.032-2.227-.032-.923-.127-1.814-.16-2.736-.03-.7 0-1.369.033-2.069.032-.413.095-.827.127-1.24l.095-1.432a.241.241 0 0 0 .128.063c.827.064 1.654.128 2.482.128.509 0 1.05-.064 1.559-.096.381-.032.795 0 1.177-.032s.732-.095 1.114-.127c.381-.032.763-.064 1.177-.095a13.89 13.89 0 0 0 1.209-.16c.445-.063.89-.127 1.304-.19.287-.064.573-.16.86-.223.19-.032.381-.064.572-.127.16-.032.318-.096.478-.128.413-.127.859-.19 1.24-.35.637-.222 1.241-.509 1.878-.732.668-.222 1.368-.413 2.036-.636.255-.095.477-.286.732-.382.35-.159.7-.254 1.05-.413.54-.223 1.082-.478 1.59-.732.446-.223.828-.573 1.305-.764.541-.223.987-.573 1.496-.89.286-.192.54-.414.827-.637.477-.382.955-.732 1.432-1.114.159-.127.318-.286.445-.445a89.94 89.94 0 0 0 1.719-1.75c.35-.35.636-.764.922-1.146.35-.445.668-.859.987-1.304.35.413.636.827 1.018 1.177.7.7 1.463 1.368 2.195 2.068.955.955 2.1 1.623 3.214 2.355.827.54 1.623 1.113 2.45 1.59 1.114.605 2.195 1.273 3.404 1.719.732.286 1.4.668 2.132 1.018.668.318 1.337.605 2.037.891.445.19.89.35 1.336.51.318.095.668.126 1.018.222.7.19 1.368.382 2.068.573 1.178.286 2.355.572 3.596.604 1.304.032 2.609 0 3.913-.254.637-.096 1.91-.255 2.514-.35zm-19.825 51.259c.382-.255.764-.51 1.146-.796.604-.445 1.209-.859 1.813-1.336.541-.414 1.05-.86 1.591-1.305.446-.35.891-.7 1.305-1.082.477-.445.954-.922 1.4-1.4.54-.572 1.05-1.177 1.559-1.781.318-.382.636-.796.955-1.21a61.73 61.73 0 0 0 1.272-1.781c.16-.223.255-.478.414-.732.159-.286.414-.51.573-.796.445-.859.859-1.718 1.304-2.577.223-.445.446-.859.605-1.304.19-.446.318-.891.477-1.337.19-.54.414-1.05.573-1.59.19-.732.35-1.464.54-2.196.128-.573.319-1.146.446-1.718.16-.7.35-1.432.51-2.164.126-.573.254-1.145.35-1.75.095-.573.158-1.145.222-1.686.095-.605.19-1.21.254-1.814.064-.7.032-1.432.096-2.132.064-.763.19-1.559.254-2.322.064-.7.064-1.4.096-2.1.032-.828.095-1.687.127-2.514.032-.86.096-1.718.127-2.577.032-.955.064-1.941.064-2.896l.096-4.009h-2.482c-.51 0-1.018-.032-1.528-.032-1.05.032-2.068.032-3.086-.159-.827-.159-1.654-.223-2.482-.382-.732-.127-1.432-.35-2.132-.54-.54-.16-1.113-.319-1.654-.478-.318-.095-.636-.223-.955-.35-.572-.223-1.113-.413-1.686-.668-.286-.127-.573-.35-.86-.477-.73-.382-1.495-.732-2.258-1.114a11.527 11.527 0 0 1 -1.368-.764c-.382-.254-.764-.54-1.146-.795-.636-.445-1.304-.89-1.94-1.4-.51-.382-.923-.86-1.433-1.24l-1.334-1.05c-.286-.224-.573-.446-.859-.7-.35-.32-.7-.605-1.05-.955a9.473 9.473 0 0 1 -.732-.86c-.509.637-.986 1.241-1.463 1.846-.382.445-.796.89-1.241 1.336-.51.478-.987.987-1.528 1.4-.413.318-.859.605-1.336.891-1.24.732-2.45 1.496-3.723 2.196-.636.35-1.304.636-2.004.89-.891.382-1.814.7-2.737 1.05-1.113.414-2.227.764-3.404.955-.541.096-1.05.223-1.56.286-1.145.16-2.322.35-3.467.446-.923.064-1.846.064-2.8.032-.669-.032-1.369-.16-2.037-.223l-.954-.095c.031.127.031.254.031.35 0 .509-.031 1.05-.031 1.559 0 .636.063 1.272.095 1.909.032.668 0 1.336.032 2.004.032.764.127 1.496.159 2.26a130.7 130.7 0 0 1 .032 3.531c0 .51.063 1.018.095 1.527.064.796.191 1.623.255 2.419.095 1.177.19 2.322.286 3.5.064.636.096 1.272.16 1.909.031.35.063.7.127 1.05.127.795.286 1.559.445 2.322l.286 1.432.382 1.528c.127.54.287 1.113.414 1.654.127.477.19.986.35 1.464.318.954.7 1.909 1.05 2.895.063.16.032.318.095.446.318.668.605 1.304.955 1.972.35.669.7 1.337 1.082 2.005.127.254.318.477.477.732.159.286.286.636.477.922.382.541.796 1.082 1.21 1.591.54.669 1.081 1.305 1.622 1.941.318.382.668.7 1.018 1.082.446.446.827.955 1.273 1.368.636.573 1.336 1.114 2.036 1.655.637.509 1.273 1.018 1.941 1.495.573.446 1.177.86 1.782 1.273l.032.032c.286.19.573.382.827.573.35.222.7.477 1.082.668.477.254.986.477 1.495.7.669.318 1.369.636 2.037.954.477.223.954.382 1.463.573.446.19.923.35 1.369.54.509.16.986.35 1.495.51.255.064.54.19.764.127.7-.19 1.4-.445 2.068-.668.223-.095.413-.159.636-.254.382-.128.764-.223 1.114-.35.54-.223 1.05-.478 1.59-.732.637-.287 1.242-.573 1.878-.86a55.585 55.585 0 0 0 1.91-1.018c.413-.222.763-.509 1.176-.731-.031.031-.031 0 0 0z"/><path d="m40.123 21.477c.159.541.254 1.368.382 1.91.095.54.095 1.081.159 1.622.063.796.127 1.56.159 2.355l.19 2.8c.032.572 0 1.177.032 1.75l.096 1.813c0 .128.064.287.032.414-.096.509.222.827.509 1.209.445.54.827 1.145 1.145 1.75.382.732.764 1.495 1.018 2.29.255.796.382 1.624.605 2.42a6.43 6.43 0 0 1 .19 2.195c-.063.954-.095 1.94-.476 2.863-.319.827-.605 1.655-.987 2.45-.254.541-.604 1.018-.89 1.527-.382.7-.923 1.241-1.464 1.814-.446.477-.923.891-1.528 1.21-.509.286-.986.667-1.463.954a2.718 2.718 0 0 1 -.764.286c-.413.096-.795.318-1.177.51-.764.35-1.56.572-2.355.731-.413.064-.827.223-1.24.19-.287-.03-.478.096-.732.096-.255 0-.51.064-.764.032-.382-.032-.732-.095-1.114-.127-.413-.032-.827 0-1.24 0-.255 0-.478-.096-.732-.064-.446.032-.828-.159-1.241-.222-.446-.064-.796-.287-1.21-.414-.381-.127-.731-.318-1.081-.477-.287-.128-.541-.255-.796-.382-.381-.191-.731-.414-1.113-.637-.191-.095-.382-.127-.573-.222-.382-.255-.732-.541-1.114-.796-.127-.095-.254-.222-.413-.318-.732-.414-1.21-1.082-1.687-1.718-.35-.477-.604-1.018-.859-1.56-.254-.508-.382-1.05-.636-1.558-.255-.446-.286-.923-.382-1.4-.095-.478-.19-.923-.254-1.4-.064-.573-.064-1.146-.096-1.687 0-.35-.032-.7 0-1.05.032-.286.16-.572.223-.859.063-.35.063-.7.127-1.05.032-.286.127-.54.223-.827.223-.636.445-1.273.732-1.91.254-.54.604-1.05.922-1.558.255-.414.478-.86.764-1.241.19-.255.445-.446.668-.668.064-.064.16-.223.127-.287-.222-.54.032-1.081-.031-1.622-.032-.414.031-.828.031-1.241 0-.732 0-1.432.032-2.164.032-.604.096-1.177.128-1.782.031-.7.031-1.368.095-2.068a19.39 19.39 0 0 1 .19-1.909c.065-.445.096-.86.224-1.273.127-.477.413-.89.54-1.368.128-.509.382-.923.669-1.336.382-.478.732-.955 1.145-1.432.223-.255.446-.51.732-.668.414-.255.86-.414 1.305-.605.381-.159.763-.318 1.177-.382.54-.095 1.082-.127 1.623-.222.54-.064 1.113-.191 1.654-.191.477-.032.955.063 1.432.095.223 0 .414-.063.636-.032.446.032.86.096 1.305.16.35.063.668.127.986.19.382.064.764.064 1.114.255.286.159.604.19.89.286.446.128.86.255 1.21.573.254.255.604.382.89.605.637.477 1.337 1.018 1.592 1.781.381.828.318.669.509 1.591zm-15.21 12.187a8.38 8.38 0 0 0 -.54.286c-.414.255-.828.51-1.273.732-.54.254-1.05.54-1.527.89-.128.096-.223.255-.35.383-.541.636-1.146 1.272-1.591 1.972-.477.796-1.05 1.56-1.177 2.514-.064.414-.16.795-.223 1.209a8.15 8.15 0 0 0 -.096 1.24 16.64 16.64 0 0 0 0 1.783c.032.445.128.89.223 1.336.127.541.223 1.114.446 1.623.35.827.763 1.623 1.24 2.386.51.796 1.114 1.527 1.719 2.26.127.158.318.254.477.35.35.286.7.572 1.05.827.223.159.477.222.732.35.572.318 1.145.7 1.75.922.54.223 1.113.318 1.686.414.764.095 1.527.127 2.323.159.35 0 .7-.032 1.05-.064a52.438 52.438 0 0 0 2.195-.35c.318-.063.605-.19.923-.222.7-.032 1.305-.287 1.94-.541.7-.287 1.305-.7 1.878-1.114.318-.223.668-.414.923-.668.54-.51 1.05-1.082 1.527-1.623.382-.445.7-.923 1.082-1.368.382-.477.54-1.018.732-1.56.254-.826.509-1.622.732-2.45.222-.858.127-1.717 0-2.576-.16-1.146-.446-2.26-.923-3.31-.191-.413-.414-.827-.605-1.24a8.27 8.27 0 0 0 -.668-1.146c-.254-.382-.54-.7-.827-1.05-.16-.19-.35-.35-.541-.509-.35-.286-.732-.509-1.05-.827-.445-.446-.955-.764-1.495-1.018-.637-.287-1.273-.51-1.91-.732-.763-.287-1.495-.51-2.322-.541-.51-.032-1.018 0-1.528 0-.477 0-.954-.032-1.4.032-.636.063-1.24.159-1.845.286-.51.127-1.05.286-1.527.477-.35.128-.7.35-1.114.382-.064-.032-.095.064-.095.096zm11.073-2.228c0-.54-.031-1.081 0-1.622.064-.828.191-1.687.191-2.514 0-.795-.095-1.59-.254-2.386-.16-.7-.478-1.337-.732-2.005-.223-.604-.732-.986-1.273-1.336-.54-.35-1.145-.478-1.782-.605-.604-.095-1.177-.318-1.781-.35-.605-.032-1.241 0-1.814.191-.796.286-1.655.35-2.291 1.146-.51.604-.668 1.24-.732 1.909-.063.827-.127 1.686-.095 2.513.032.7-.032 1.368-.032 2.068 0 .764 0 1.528-.032 2.291v.796a53.38 53.38 0 0 1 2.036-.318c.446-.064.891-.16 1.337-.223.318-.032.668-.032 1.018-.064.255-.032.51-.063.764-.063.318 0 .636.031.954.031.732 0 1.464-.031 2.196-.031.031 0 .063.031.095.031.796.191 1.527.382 2.227.541zm3.405 1.814c.064-.668.095-1.24.159-1.814.032-.318.032-.636.032-.954 0-.414.032-.827 0-1.241 0-.446-.032-.923-.032-1.368-.032-.541 0-1.082-.064-1.591-.095-.7-.222-1.4-.35-2.1-.127-.668-.222-1.368-.445-2.037-.223-.604-.541-1.177-.891-1.718a7.483 7.483 0 0 0 -1.145-1.304 4.025 4.025 0 0 0 -.987-.637 8.717 8.717 0 0 0 -1.273-.477c-.7-.159-1.368-.318-2.068-.414-.413-.063-.859 0-1.24-.095-.796-.16-1.56 0-2.355.032-.414 0-.796 0-1.21.19-.317.16-.731.128-1.081.192-.286.063-.605.095-.86.222a3.828 3.828 0 0 0 -.858.51c-.255.19-.478.445-.7.668-.16.159-.35.286-.478.477-.318.477-.636.954-.89 1.495-.191.382-.319.796-.446 1.21-.127.413-.223.859-.318 1.272-.032.16-.096.287-.096.446a31.188 31.188 0 0 1 -.127 1.718c-.032.54-.095 1.082-.127 1.623-.032.89-.032 1.781-.064 2.672 0 .096-.063.191-.063.287 0 .731-.032 1.463-.032 2.195v.668c.254-.159.477-.318.7-.413.54-.223 1.113-.414 1.686-.669.096-.031.16-.254.16-.381 0-.16-.064-.35-.096-.51-.032-.54-.032-1.113-.032-1.654 0-.573.032-1.145.064-1.718 0-.446 0-.891.031-1.305.032-.604.128-1.209.128-1.813 0-.86.063-1.687.477-2.45.127-.255.223-.51.35-.764.127-.223.286-.445.445-.636l.096-.096c.604-.223 1.177-.509 1.782-.668.668-.19 1.368-.286 2.068-.35.636-.064 1.304-.032 1.94 0 .287 0 .605 0 .892.032.445.063.859.223 1.272.223.446-.032.796.19 1.082.35.605.35 1.146.795 1.623 1.272.51.51.668 1.21.955 1.814.127.254.159.54.222.827.128.573.287 1.146.318 1.75.064.86.064 1.687.096 2.546v1.718c-.032.509-.096 1.018-.096 1.527 0 .064.064.16.16.223.381.254.795.509 1.177.763.127 0 .286.128.509.255zm-19.091 30.182c.05 0 .1 0 .1-.05 0 .05-.05.05-.05.1zm20.89.05c0-.05-.05-.05-.05-.1.05 0 .1 0 .1.05 0 0 0 .05-.05.05zm-12.585 3.945v-.1h.05c0 .05-.05.1-.05.1zm4.363-.017c-.05 0-.05-.05-.1-.05h.05c.05 0 .05.05.05.05z"/><path d="m24.927 33.664c0 .05 0 .05.05.1h-.05c-.05-.05-.05-.1 0-.1z"/></g></g></svg>