<svg height="70" viewBox="0 0 63 70" width="63" xmlns="http://www.w3.org/2000/svg"><g fill="none"><path d="m44.204 25.019c0-.292-.065-.584-.357-.81-.259-.195-.518-.422-.778-.649-.226-.162-.453-.291-.68-.454-.292-.226-.68-.356-.875-.712-.097-.195-.389-.292-.583-.422-.325-.194-.584-.453-1.005-.55-.421-.098-.778-.357-1.167-.552l-1.75-.777c-.291-.13-.583-.26-.875-.227-.291.032-.55.032-.842-.065-.648-.195-1.297-.292-1.977-.421-.421-.098-.843-.162-1.232-.227l-.194-.065c-.324-.065-.616-.13-.94-.162l-.68-.097c-.033 0-.065.032-.098.032.033-.032.033-.065.065-.097l.097-.583c-.162-.065-.356-.13-.486-.26-.097-.065-.162-.259-.13-.356.163-.39-.032-.68-.259-.908-.259-.291-.227-.615-.194-.94.032-.486.065-.94.097-1.425-.486.064-.972.162-1.458.227-.94.13-1.912.259-2.852.388-.292.033-.583.065-.875.13-.648.162-1.296.26-1.912.519-.519.194-.94.583-1.426.842-1.296.68-2.56 1.394-3.889 2.042-1.199.583-2.43 1.102-3.63 1.653-.94.42-1.814.94-2.754 1.36 0 .033-.033.033-.065.066l-.486.388c0 .065-.033.162-.13.195-.162.065-.324.162-.486.227-1.167.745-2.528 1.199-3.889 1.458-.259.065-.421-.227-.324-.421l-1.36.389c.031.259.064.615.129.94.194.972.324 1.911.583 2.851.227.778.551 1.523.907 2.236.325.681.681 1.362 1.362 1.686.032.13 0 .291.064.324.162.13.39.227.551.356.098.097.162.26.292.324.324.13.616.292.907.519.357.324.778.583 1.2.842.291.195.486.519.842.648.357.13.616.487.875.778.421.486.907.843 1.394 1.264.162.13.259.292.388.486l.13-.259 1.037 1.134c-.032-.097-.032-.162-.065-.259.162.194.292.389.454.519.55.453 1.167.842 1.718 1.296.388.356.745.778 1.069 1.166l1.361 1.653c.195.162.389.292.713.227.13-.032.324.227.486.357.357-.13.713-.713 1.134-.162.195-.098.357-.195.519-.292.389-.389.81-.778 1.2-1.167.518-.486 1.1-.972 1.555-1.523.291-.324.486-.778.648-1.167.194-.486.518-.81 1.004-1.004.13-.065.227-.13.357-.195.324-.486.616-1.004.94-1.49.389-.616.81-1.2 1.231-1.783.033-.032.097-.032.13-.065.291-.42.583-.842.875-1.231.291-.389.616-.778.907-1.167.39-.453.746-.94 1.134-1.393l1.75-2.042c.292-.324.681-.583.875-.94.227-.453.551-.68 1.038-.745.064 0 .162-.097.162-.162 0-.39.356-.584.486-.908.064-.13.356-.162.518-.194s.324 0 .486 0c0-.032 0-.097.033-.097.324 0 .518-.324.875-.324.227 0 .389-.162.648-.195.454-.032.583.227.778.486.615.162 1.264.292 1.847.486.454.162.875.39 1.296.584.097.065.227.13.324.162.422-.065.81-.097 1.232-.162 0-.357.032-.746 0-1.134zm-15.945.356c-.194.81-.453 1.62-.875 2.333-.389.746-.972 1.394-1.653 1.945-.42.324-.81.68-1.231.972-.389.227-.843.324-1.264.519-.227.097-.421.226-.616.324-.356.097-.713.162-1.07.226-.29.065-.582.162-.874.227-.195.033-.421.065-.648.098-.13 0-.292.032-.422.032-.615-.032-1.263-.097-1.88-.13-.42-.032-.777-.162-1.166-.259-.454-.097-.875-.454-1.296-.616a3.735 3.735 0 0 1 -1.134-.713c-.422-.356-.875-.68-1.2-1.134-.518-.745-.907-1.555-.94-2.463 0-.227-.096-.454-.129-.68.033-.681.195-1.33.551-1.912.194-.292.324-.616.519-.908.097-.13.291-.227.42-.356.649-.616 1.265-1.297 2.14-1.653a40.354 40.354 0 0 1 2.754-1.07c.357-.13.746-.291 1.135-.356a29.087 29.087 0 0 1 2.365-.195c.551-.032 1.135-.097 1.686-.064 1.393.097 2.657.55 3.63 1.555 1.133 1.2 1.587 2.658 1.198 4.278z" fill="#fd596f"/><path d="m60.829 4.99c-.065-.096-.26-.161-.422-.226-.259-.065-.55-.13-.81-.195-.324-.097-.55.162-.81.227a.604.604 0 0 0 -.389.292c-.13.194-.227.26-.454.194-.13-.032-.324-.032-.42.065-.228.13-.422.324-.617.519-.194.194-.324.453-.55.615-.616.422-.973 1.102-1.653 1.491-.357.195-.584.584-.875.843-.454.454-.94.907-1.426 1.36-.292.26-.616.455-.875.681-.551.454-1.07.908-1.62 1.362-.033-.033-.065-.033-.098-.065.033-.097.065-.162.065-.26 0-.226.26-.55-.13-.68-.324-.13-.389-.26-.356-.648.162-1.2.162-2.43.26-3.63.032-.227.032-.454.064-.713-.097-.875-.032-1.782-.097-2.69-.065-.064-.13-.097-.162-.097a12.03 12.03 0 0 0 -1.07.13c-.162.032-.356.097-.453.227-.39.453-.713.94-1.07 1.36-.324.39-.68.746-1.037 1.07-.065.065-.194.097-.26.065-.064-.032-.129-.032-.194-.065-.032.033-.097.033-.13.033-.032.097-.129.162-.259.162h-.064c-1.394-.195-2.755-.68-4.213-.584-.098 0-.13-.032-.195-.064a7.994 7.994 0 0 0 -1.523.064c-.194.033-.356-.032-.454-.227-.064-.13-.162-.259-.291-.291a2.114 2.114 0 0 0 -.778-.065c-.389.065-.486-.13-.551-.454-.227-1.166-.486-2.3-.713-3.467-.13-.713-.616-.713-1.167-.454-.162.065-.324.162-.486.194-.356.13-.713.227-1.07.357-.258.518-.55 1.037-.81 1.555-.129.39-.226.746-.291 1.135a5.225 5.225 0 0 1 -.292.94c-.162.42-.389.81-.486 1.263-.194.843-.518 1.653-.842 2.431-.195.454-.324.94-.454 1.426-.162.583-.26 1.199-.421 1.782-.098.39-.227.778-.324 1.167-.098.389-.162.778-.227 1.2l-.098 1.425c-.032.324-.064.648.195.94.227.26.421.55.26.907-.033.097.032.292.129.357.13.13.324.162.486.259.26.097.518.227.778.324l.032-.032v.032h-.032c.194.097.356.227.55.324l-.064.065c.097.065.194.097.291.162.065.032.13.032.195.065 0-.033-.032-.097-.032-.097.13-.098.259-.162.324-.227.453.13.875.259 1.328.389.13.032.292 0 .454.032.454.097.875.389 1.394.324.356-.032.745.13 1.101.195.227.032.519.162.68.064.26-.13.455-.032.65 0 .647.098 1.295.26 1.944.454.324.097.68.194.907.551.162.26.454.518.713.616.875.291 1.653.648 2.398 1.102.13 0 .26 0 .454-.033.162-.356.356-.778.518-1.167.227.13.519.26.81.39l.065-.065c.227-.13.422-.357.616-.519.227-.194.486-.389.713-.583.194-.324.356-.648.55-1.005.098-.162.195-.324.357-.421.098-.065.292.065.422.032.356-.097.68-.194 1.004-.356.098-.13.26-.227.39-.324.258-.195.485-.422.745-.616a6.942 6.942 0 0 1 1.685-1.037h.032c.26-.195.486-.421.746-.648.712-.648 1.393-1.329 2.106-2.01.389-.388.778-.81 1.167-1.199.55-.583 1.134-1.166 1.62-1.782a29.87 29.87 0 0 0 2.01-2.528c.518-.713 1.004-1.49 1.328-2.333.324-.583-.194-.908-.421-1.361zm-22.07 9.01c-.356.324-.907.55-1.523.55-.421-.031-.875-.161-1.231-.485-.324-.292-.713-.584-1.005-.908-.55-.583-.421-.875.065-1.36.583-.552 1.296-.94 2.171-.81h.097c.648.42 1.459.647 1.88 1.36.227.39-.032 1.232-.454 1.653zm7.908 1.426c-.648.032-1.232-.13-1.62-.648-.098-.13-.26-.227-.39-.357-.842-.68-.713-1.977.357-2.43.26-.097.486-.195.745-.292.584-.227 1.135 0 1.556.292.486.324.94.778 1.037 1.426 0 .032.032.064.032.097.033.713-.972 1.847-1.717 1.912zm-7.195 9.722c.616.162 1.264.292 1.847.486.454.162.875.39 1.297.584.097.064.227.13.324.162.389.389.778.777 1.134 1.166.486.519.94 1.07 1.361 1.62.551.649 1.07 1.362 1.653 2.01.13.13.356.194.55.227.293.097.617.097.908.227.195.097.324.064.519-.033.356-.227.745-.389 1.102-.583.194-.13.356-.357.55-.486a8.701 8.701 0 0 1 1.07-.584c.454-.226.81-.615 1.037-1.069.292-.55.616-1.005 1.167-1.329.389-.194.778-.389 1.102-.68.356-.292.583-.065.777.097.551.486 1.037 1.037 1.33 1.718.064.13.096.291.064.42-.065.325 0 .681-.292.973-.227.227-.356.583-.55.875-.163.292-.357.551-.552.81-.13.195-.259.39-.42.551a7.122 7.122 0 0 1 -.746.648c-.292.227-.616.454-.94.713-.357.26-.745.486-1.037.778-.454.421-1.07.421-1.588.68-.324.163-.648.39-.972.552-.39.194-.746.453-1.167.064-.032-.032-.13-.064-.194-.032-.26.097-.519.26-.81.324a2.246 2.246 0 0 1 -.649.097c-.616 0-1.231.033-1.782-.162-.551-.194-1.102-.389-1.653-.616-.616-.226-1.199-.486-1.782-.745-.422-.162-.713-.486-.973-.842-.259-.39-.615-.713-.907-1.07-.032-.032-.097-.032-.13-.032-.615 1.36-1.199 2.722-1.814 4.05-.292.681-.649 1.33-.973 2.01-.227.421-.324.421-.713.13-.162-.13-.291-.39-.583-.227-.032 0-.13-.098-.194-.13-.39-.26-.713-.55-1.264-.55-.616-.033-1.264-.228-1.718-.714-.032-.032-.097-.097-.162-.097-.324-.033-.616 0-.94-.033-.518-.064-1.037-.162-1.49-.486l-.13-.13-.292-.29c-.421-.228-.842-.487-1.264-.714-.097-.065-.194-.194-.194-.26a5.18 5.18 0 0 1 .162-.68c.065-.194.162-.356.227-.518.291-.422.583-.843.875-1.232.291-.389.616-.777.907-1.166.39-.454.746-.94 1.134-1.394l1.75-2.042c.292-.324.681-.583.875-.94.227-.453.551-.68 1.037-.745.065 0 .163-.097.163-.162 0-.389.356-.583.486-.907.064-.13.356-.162.518-.195.162-.032.324 0 .486 0 .292.098.551.195.843.26.162.032.389.097.518.064.486-.097.778-.291 1.102-.42z" fill="#c5bccf"/><path d="m29.912 36.231.292.292.13.13c0 .356.194.486.55.55.648.13 1.297.26 1.912.487.648.227 1.264.518 1.912.81.648.227 1.329.389 1.977.648.227.097.357.389.486.616.033.032-.032.162-.065.194-.13.162-.259.292-.42.454-.13.065-.26.194-.422.227-.519.097-.972-.097-1.426-.26-.13-.032-.389-.097-.454-.032-.291.292-.583.097-.875.065-.259-.13-.389.097-.583.194-.26.13-.324.325-.324.551-.065.162-.13.292-.195.454-.194.292-.356.551-.42.908-.033.097-.195.194-.195.291 0 .292-.39.486-.13.81l.778 1.167c.065.097.194.227.291.292.325.13.519.324.39.68v.292c-.033 0-.065 0-.065.032-.065 0-.162.033-.227.033-.227.13-.486.227-.713.389-.13.064-.195.194-.357.356-.356-.13-.778.033-1.134.292-.065.032-.097.13-.13.162a2.584 2.584 0 0 1 -.518.26c-.162.064-.324 0-.486.194-.13.162-.486.13-.746.162-.162 0-.291.032-.486.097-.259.13-.583.162-.907.097-.454-.065-.908 0-1.361-.032a28.51 28.51 0 0 1 -1.653-.162c-.583-.065-1.102-.357-1.685-.422a.273.273 0 0 1 -.227-.13 3.862 3.862 0 0 1 -.26-.648c-.032-.194-.097-.388.033-.615s.324-.486.097-.778c-.032-.065.065-.194.065-.26 0-.161-.065-.356-.097-.518.13-.227.032-.713-.162-.907-.097-.13-.227-.26-.26-.422-.064-.226-.064-.486-.097-.712.39-.39.81-.778 1.2-1.167.518-.486 1.101-.972 1.555-1.523.292-.324.486-.778.648-1.167.195-.486.519-.81 1.005-1.005.13-.064.227-.13.356-.194.065 0 .13.032.162.032.357-.194.68-.389 1.005-.615.292-.195.55-.422.94-.357.13.033.291.065.421.033.357-.098.616-.227.875-.325z" fill="#7b7089"/><path d="m21.81 42.454c.033.227.033.486.097.713.033.162.13.291.26.421.194.194.291.68.162.907-.746.94-1.653 1.686-2.787 2.172-.39.162-.68.453-1.07.648-.55.26-1.134.486-1.685.745-.583.227-1.134.519-1.75.713-.583.195-1.199.324-1.782.486h-.065c-.908.227-1.815.292-2.755.26-.162 0-.324 0-.486.064-.454.195-.875.13-1.296-.032-.097-.032-.195-.097-.26-.065-.712.357-1.231-.194-1.782-.454-.389-.162-.745-.388-1.134-.55-.616-.325-1.232-.616-1.847-.94-.065-.033-.162-.033-.227-.065-.162-.065-.357-.162-.162-.389.032-.032 0-.162-.065-.227-.097-.13-.26-.227-.357-.389-.194-.259-.356-.55-.518-.842-.26-.519-.519-1.037-.778-1.524-.065-.13-.162-.291-.227-.42-.097-.163-.162-.325.033-.52.097-.097.032-.388-.033-.55a76.174 76.174 0 0 0 -.745-2.56c-.065-.227.032-.325.194-.39.324-.097.357-.323.324-.55-.064-.68.162-1.264.713-1.718-.226-.194-.13-.389.098-.55.162-.098.291-.26.453-.357.227-.13.454-.227.584.097.227.55.486 1.07.713 1.62.194.454.42.908.518 1.394.227.81.421 1.653.324 2.528-.032.389 0 .777.454 1.07.486.356.81.874 1.199 1.328.194.227.324.453.519.648.032.032.064.097.097.097.713.13 1.393.324 2.106.389 1.134.065 2.269.097 3.403.065a6.465 6.465 0 0 0 1.75-.357c.81-.291 1.588-.615 2.333-1.037.357-.194.584-.615.94-.875.551-.389 1.134-.745 1.685-1.134.195.162.39.292.713.227.13-.032.324.227.486.356.357-.13.713-.713 1.135-.162a7.42 7.42 0 0 0 .518-.291z" fill="#c5bccf"/><path d="m17.921 69.579c-.55-.357-1.296-.519-1.685-1.102-.26-.389-.745-.68-.616-1.264.033-.065-.162-.194-.226-.292a9.387 9.387 0 0 1 -.616-.94c-.097-.13-.13-.291-.195-.42-.097-.195-.259-.39-.324-.584-.097-.227-.065-.421-.324-.616-.291-.194-.162-.616-.13-.972.033-.13.098-.26.098-.389.065-.519.356-.94.648-1.361.13-.195.227-.454.389-.648.26-.324.616-.616.745-1.005.195-.486.713-.81.778-1.361 0-.065.097-.13.162-.194.097-.13.13-.325.26-.422.194-.13.161-.55.583-.389.194.065.324-.259.13-.55-.13-.227-.13-.422.064-.584.097-.065.26-.097.357-.13.486-.226.94-.453 1.425-.648.162-.064.325-.13.487-.162.064.033.162.13.194.098.26-.163.389.032.583.162.551.388 1.07.81 1.62 1.166.552.324 1.167.551 1.783.81.033 0 .097-.032.13-.032.13.13.227.26.356.356.422.292.422.713.422 1.135 0 .097-.033.194-.065.356-.357.097-.746.26-1.135.26-.324 0-.356.194-.453.388-.162.292-.292.616-.422.908-.032.065-.13.097-.162.13-.162.615-.68 1.004-1.004 1.523-.357.55-.972.615-1.361 1.134.032.227.097.616.13.972.032.907.097 1.847.032 2.755-.033.453-.292.907-.486 1.36-.033.098-.195.13-.292.195a.708.708 0 0 1 .097.162h-1.134l-.357.357c-.064-.13-.13-.227-.194-.357a2.198 2.198 0 0 0 -.292.195zm23.074-15.232c-.162.292-.291.519-.42.778-.066.13-.13.227-.228.324-.194.26-.389.486-.68.648-.098.065-.098.26-.13.454-.421.518-.875 1.102-1.329 1.685-.227.162-.389.519-.259.843s.324.583.421.907c.13.389.195.778.227 1.2.033.777 0 1.587-.065 2.365-.064.68-.94 1.167-1.588.94-.486-.162-.972-.195-1.425-.39-.454-.161-.94-.29-1.232-.745-.065-.097-.324-.097-.389-.226a17.477 17.477 0 0 1 -1.07-1.62c-.161-.26-.259-.552-.356-.843-.097-.422-.13-.843-.194-1.297-.065-.583-.162-1.166-.227-1.782-.032-.26 0-.486.324-.583.097-.033.162-.227.227-.324.227-.357.454-.681.648-1.037.194-.325.421-.616.55-.94.26-.519.487-1.07.811-1.556.292-.421.454-.94.616-1.458.065-.26-.033-.551.162-.778.324-.389.616-.778.94-1.134.194-.227.583-.227.81 0 .389.453.972.616 1.49.875.649.291 1.297.616 1.945.907.454.227.94.357 1.2.81.064.162.096.39.032.519-.13.292-.325.518-.487.778-.13.194-.259.421-.388.615.032.033.064.098.064.065z" fill="#7b7089"/><path d="m43.62 44.43c.162-.097.26-.097.324-.161.227-.195.26-.422.033-.649-.13-.13-.292-.291-.486-.389a22.934 22.934 0 0 0 -2.01-.972 42.1 42.1 0 0 0 -2.787-1.166c-.68-.26-1.36-.454-2.074-.681-.13.065-.259.194-.42.227-.52.097-.973-.097-1.427-.26-.13-.032-.389-.097-.454-.032-.291.292-.583.097-.875.065-.064.097-.097.194-.194.26-.227.161-.486.323-.745.485-.065.162-.13.292-.195.454-.162.583-.162 1.2-.583 1.685l-.195.292.778 1.167c.065.097.195.226.292.291.324.13.518.324.389.68v.293c.227 0 .421.032.648 0 .324-.065.68-.292.972-.26.616.065 1.232.26 1.815.454.616.194 1.231.421 1.815.648.097.033.259.162.259.195-.032.097-.097.259-.194.291.032.065.032.097.032.195 0 .064-.032.097-.065.162.162.13.13.291.033.486-.065.162-.13.356-.26.454a.795.795 0 0 0 -.259.81c.357.162.713.324 1.037.486.032.032.13.065.13.13 0 .291.259.356.486.42.648.26 1.329.487 1.977.714-.033-.033-.033-.065-.065-.065l.097.097h.032c.292.227.649.13.875-.065.422-.324.908-.68 1.07-1.231.194-.616.454-1.232.616-1.88.162-.68.291-1.393.356-2.106.13-.616.097-1.232-.778-1.523zm-10.532 1.33s.032 0 0 0zm-4.278 3.402c-.097-.26-.583-.616-.842-.616-.875 0-1.75.162-2.625 0-.26-.065-.551 0-.81-.032-.292-.033-.616-.097-.908-.097-.065 0-.162.064-.194.097-.292.713-.584 1.426-.908 2.139-.324.778-.648 1.555-1.037 2.3-.162.325-.421.616-.648.876-.227.55-.421 1.134-.875 1.523 0 .065.032.13.032.194.065.033.162.13.195.098.26-.163.389.032.583.162.551.388 1.07.81 1.62 1.166.551.324 1.167.551 1.783.81.032 0 .097-.032.13-.032.259-.162.518-.292.777-.454.324-.194.486-.615.94-.615.033 0 .033-.065.065-.065.356-.292.518-.68.745-1.07.324-.615.713-1.199 1.005-1.847.324-.778.583-1.555.875-2.333.227-.746.356-1.459.097-2.204z" fill="#c5bccf"/><path d="m17.921 69.615c.1-.077.234-.192.3-.23.067.153.134.268.2.422-.1.039-.233.077-.333.077a1.182 1.182 0 0 0 -.167-.269z" fill="#9d95a7"/><path d="m32.796 46.1c.1 0 .25-.05.35-.05-.1 0-.25 0-.35.05zm-19.506 3.127h-.1z" fill="#c5bccf"/><path d="m33.088 45.76.05.05c0-.05-.05-.05-.05-.05z" fill="#7b7089"/><path d="m25.602 25.7c.13.712-.843 1.295-1.62 1.198h-.26c0 .097.033.162.065.26.292.712.065 1.425-.583 1.847-.81.518-1.62.486-2.398-.065-.39-.26-.778-.454-1.167-.68-.195-.098-.389-.163-.519-.325-.162-.162-.324-.324-.032-.616.583-.55 1.07-1.199 1.588-1.75.713-.745 1.426-1.458 2.139-2.17.26-.26.55-.066.778.064.388.227.745.55 1.166.745.584.324.68.908.843 1.491zm-7.454 1.457c-1.231-.713-2.333-1.36-3.435-2.009.097-.13.162-.324.292-.421.486-.454.972-.908 1.458-1.329.616-.55 1.329-1.004 1.912-1.62.454-.486.907-.486 1.426-.26.648.292 1.264.616 1.62 1.297.162.291 0 1.199-.356 1.458-.454.389-.972.713-1.588.81-.26.033-.551 0-.81.033-.13 0-.292.13-.324.227-.098.388-.162.81-.227 1.231-.033.162 0 .324.032.583z" fill="#fd596f"/><g fill="#41364f"><path d="m61.963 5.704c-.13-.746-.875-1.491-1.588-1.75-.486-.162-.907.032-1.329.097-.648.097-1.166.486-1.685.843-.486.356-.907.777-1.329 1.199l-1.555 1.457c-.357.356-.713.713-1.102 1.037-.616.486-1.296.972-1.944 1.426-.519.356-1.037.745-1.588 1.134.064-.421.097-.778.13-1.134.064-.648.161-1.329.194-1.977.032-.486 0-.972 0-1.426.032-.81.064-1.588.064-2.398 0-.357-.064-.745-.226-1.037-.292-.519-1.459-.616-1.912-.195-.162.13-.292.292-.454.454-.454.454-.908.908-1.296 1.394-.324.453-.551.972-.843 1.426-.519-.162-1.005-.357-1.49-.454a79.637 79.637 0 0 0 -2.95-.519 12.327 12.327 0 0 0 -3.273-.13c-.162.033-.26 0-.292-.226-.097-.81-.194-1.653-.356-2.463a3.887 3.887 0 0 0 -.909-1.911c-.162-.195-.453-.26-.648-.421-.389-.227-1.264-.13-1.523.194-.26.357-.55.68-.745 1.07-.454.81-.843 1.652-1.264 2.495-.292.616-.551 1.231-.81 1.88-.26.615-.551 1.231-.778 1.88-.194.518-.324 1.101-.486 1.62-.324.94-.648 1.912-.746 2.916-.064.648-.13 1.296-.162 1.88h-1.458c-.389 0-.778.032-1.134.097-.68.13-1.361.292-2.01.486-.745.227-1.458.583-2.203.778-1.037.292-2.01.745-2.982 1.199-.648.292-1.263.648-1.88 1.005-1.101.615-2.203 1.264-3.305 1.847-.81.454-1.62.842-2.463 1.264-.68.356-1.393.68-2.106 1.004-.551.26-1.07.616-1.653.778-.94.26-1.912.421-2.852.616-.616.13-1.231.162-1.588.616v.486c-.032.259-.162.55-.13.81.065.421.195.843.325 1.264.064.291.13.55.226.842.163.551.292 1.135.519 1.653.324.746.713 1.49 1.167 2.171.259.422.615.875 1.037 1.167.421.292.842.583 1.231.94.39.356.81.713 1.2 1.037.485.389 1.036.778 1.522 1.167.227.194.422.421.649.615.648.551 1.328 1.102 1.976 1.653.39.324.713.68 1.102 1.005.39.356.778.648 1.135 1.004.55.519 1.101 1.102 1.652 1.62.292.292.648.552.973.811.13.097.259.227.097.356-.162.13-.324.227-.519.292-.94.421-1.912.81-2.852 1.264-.875.389-1.782.616-2.722.778-.486.065-.972.065-1.426.13-1.07.161-2.106.064-3.11-.357-.617-.26-1.103-.713-1.46-1.232a8.13 8.13 0 0 1 -.842-1.458 9.212 9.212 0 0 1 -.518-1.847c-.065-.486 0-.972.064-1.458.13-.973-.291-1.718-.972-2.366-.615-.616-1.588-.551-2.009-.26-.324.227-.583.552-.875.843-.454.454-.616 1.037-.68 1.653-.033.421-.065.81-.065 1.231-.033.681-.065 1.394-.033 2.075.033.68.162 1.36.324 2.009.227.81.519 1.588.81 2.333.098.26.26.486.422.713.259.389.486.81.842 1.102.551.454 1.2.843 1.848 1.199.518.292 1.101.519 1.685.713.616.194 1.264.26 1.912.421 1.004.292 2.041.13 3.046.13.648 0 1.264-.162 1.88-.227a11.06 11.06 0 0 0 3.37-.907c.713-.324 1.458-.649 2.171-.973.39-.194.778-.356 1.135-.583.421-.292.842-.616 1.264-.907.064-.065.226-.227.324 0 .032 0 .032-.033.064-.033v.097c.098.163.162.357.292.422.389.162.551.518.94.68.292.13.162.39.13.616-.098 1.134 0 2.269-.746 3.273-.68.908-1.231 1.945-1.847 2.917a.246.246 0 0 1 -.065-.13 3.39 3.39 0 0 0 -.55.13c-.098.032-.163.13-.228.194-.259.26-.583.454-.777.746-.487.648-.94 1.328-1.426 1.977-.195.259-.422.518-.648.777-.422.454-.875.908-1.297 1.394-.453.55-.907 1.102-1.328 1.653-.26.324-.584.615-.778.972 0 .032-.033.065-.033.097.713 2.82 2.042 6.19 4.797 7.324.356.033.713.065 1.07.065.226-.032.485 0 .712-.065.745-.194 1.232-.68 1.458-1.393.26-.94.13-1.912.098-2.852 0-.519-.13-1.005-.162-1.491 0-.097.032-.194.097-.26.324-.29.648-.583.972-.907.616-.583 1.264-1.134 1.847-1.782.68-.745 1.297-1.556 1.945-2.333.291-.357.291-.486-.033-.81.13-.163.292-.325.422-.52.486-.744.94-1.49 1.393-2.235.324-.519.648-1.07 1.005-1.588.453-.713.81-1.458.907-2.301.065-.519.13-1.037.162-1.556.033-.324.065-.648.065-.972.13-.032.227-.032.324-.097.616-.227 1.2-.454 1.782-.745.551-.26 1.037-.616 1.524-.94.42-.26.81-.584 1.199-.875.032-.033.13-.033.194 0 .843.194 1.718.356 2.56.55l1.07.292a89.891 89.891 0 0 1 -1.07 1.815c-1.004-.065-1.166.065-1.49.68-.551 1.005-1.037 2.075-1.588 3.112-.649 1.231-1.394 2.398-2.042 3.63-.292.55-.486 1.134-.745 1.685-.033.064 0 .162.032.226.227.649.454 1.264.648 1.913.324 1.037.778 2.009 1.523 2.819.227.227.357.55.584.778.259.259.55.518.875.68.356.195.777.292 1.166.39.422.096.843.194 1.264.161.227 0 .454-.065.68-.162.163-.097.292-.162.454-.26 0-.031.033-.031.033-.064.194-.194.454-.356.583-.583.26-.519.324-1.037.227-1.62-.097-.746-.13-1.491-.227-2.237-.065-.486-.26-.907-.389-1.393-.032-.097.033-.195.097-.292.065-.065.195-.097.227-.194.227-.292.422-.616.648-.94l1.264-1.653c.227-.324.422-.68.649-1.005.291-.42.648-.777.875-1.199.194-.42.583-.648.875-1.037l-.357-.356c.227-.324.486-.648.713-1.005.194-.324.292-.713.519-1.037.097-.162.194-.324.291-.518l.195-.486c.13-.357.259-.746.42-1.135 0-.032 0-.065.033-.065.098-.55.162-1.069.227-1.62.033-.324.033-.648.033-1.005-.195-.842-.681-1.523-1.426-2.074a12.424 12.424 0 0 0 -2.982-1.555c-.389-.13-.778-.26-1.166-.324-.649-.13-1.264-.227-1.945-.357.875-2.3 2.139-4.342 2.722-6.676.292.195.551.39.81.551.681.39 1.33.843 2.042 1.167 1.102.454 2.236.843 3.37 1.167 1.07.291 2.172.162 3.209-.227 1.685-.616 3.079-1.653 4.407-2.82.94-.842 1.815-1.717 2.496-2.754.486-.713.842-1.426.745-2.301-.097-.778-.26-1.556-1.102-2.042-.778-.421-1.49-.324-2.236-.032-.778.291-1.393.842-1.944 1.426-.81.81-1.62 1.685-2.593 2.333-.713.486-1.2.486-1.977.032-.55-.356-.972-.81-1.393-1.296a122.454 122.454 0 0 0 -1.848-2.106c.098-.13.227-.227.324-.357.292-.389.13-.81.098-1.199-.065-.68-.324-1.329-.713-1.912-.13-.194-.065-.292.065-.389.81-.648 1.588-1.296 2.398-1.944 1.134-.908 2.3-1.848 3.467-2.755a98.67 98.67 0 0 1 2.95-2.171c.583-.422 1.198-.81 1.717-1.297a57.933 57.933 0 0 0 2.074-1.912c.713-.68 1.458-1.328 2.139-2.074.616-.68 1.231-1.393 1.718-2.171.42-.648.745-1.361 1.069-2.042.097-.194.097-.453.13-.68v-.486c-.065.032-.13 0-.13 0zm-39.99 38.176c0 .972-.39 1.328-1.038 1.814-.486.357-1.004.616-1.523.875-.713.357-1.393.746-2.106 1.07-.908.454-1.88.745-2.885.972-.842.195-1.685.421-2.56.551-.486.097-.972.065-1.458.032-1.297 0-2.528-.226-3.76-.615a8.181 8.181 0 0 1 -2.657-1.459 8.346 8.346 0 0 1 -1.588-1.782c-.421-.616-.648-1.296-.875-2.01-.292-.842-.324-1.684-.324-2.56 0-.583-.065-1.199-.065-1.782 0-.292.13-.583.195-.907.065-.39.389-.616.55-.908.195-.324.487-.324.81-.13.422.26.714.649.973 1.038.097.162.065.389.097.615.033.584-.032 1.167-.065 1.718 0 .616.195 1.232.39 1.847.161.519.42 1.005.712 1.459.486.713.94 1.458 1.783 1.88.55.29 1.102.55 1.685.615a9.445 9.445 0 0 0 2.139.032c.94-.064 1.88-.162 2.787-.389.68-.162 1.296-.55 1.977-.745.55-.162 1.004-.454 1.49-.713.778-.421 1.524-.875 2.14-1.49.064-.065.291-.098.388-.065.519.226 1.037.486 1.556.713.227.097.453.13.68-.065.13-.13.324-.195.551-.324.033.324 0 .518 0 .713zm-1.103-1.426c-.064.032-.194 0-.291-.033a8.379 8.379 0 0 1 -3.176-2.203c-.551-.616-1.167-1.167-1.718-1.783l-1.166-1.264c-.39-.389-.843-.745-1.264-1.134-.422-.356-.778-.778-1.2-1.102a37.865 37.865 0 0 0 -1.36-1.037c-.551-.389-1.102-.778-1.653-1.134-.195-.13-.39-.227-.584-.357a8.107 8.107 0 0 1 -.55-.388c-.39-.39-.81-.778-1.135-1.2-.356-.453-.616-.94-.875-1.458-.356-.713-.745-1.393-.972-2.139-.227-.778-.26-1.588-.324-2.398 0-.097.162-.292.292-.356.324-.13.712-.162 1.037-.26.875-.227 1.814-.421 2.657-.745 1.296-.486 2.56-1.07 3.824-1.653a104.953 104.953 0 0 0 3.792-1.944c1.134-.584 2.236-1.2 3.37-1.783 1.167-.615 2.398-1.102 3.662-1.523.68-.227 1.296-.55 1.977-.778.454-.162.972-.226 1.426-.324.324-.064.648-.162 1.005-.194.324-.065.648-.065 1.004-.097.551 0 .519 0 .583.615.065.519.195 1.037.325 1.556.064.26.162.518.226.745.065.162-.032.26-.194.26-.713-.065-1.361.194-2.042.324-.291.032-.518.194-.842.324.291.356.615.421.94.421 1.166.032 2.365.032 3.532.13 1.134.097 2.3.259 3.403.486 1.102.227 2.171.55 3.273.842 1.393.357 2.657.94 3.824 1.783.648.486 1.231 1.07 1.62 1.75.324.55.713 1.134.616 1.815-.389-.26-.778-.551-1.167-.81a6.338 6.338 0 0 0 -2.495-.843 22.62 22.62 0 0 0 -3.63 0c-.745.065-1.458.389-2.139.648-.615.227-1.199.55-1.75.843a6.71 6.71 0 0 0 -1.88 1.425c-.388.422-.745.843-1.069 1.33-.162.226-.194.518-.291.81-.033.064-.13.129-.195.226.13.033.195.065.292.065-.032.065-.032.097-.097.194 1.523-.94 2.916-2.041 4.44-2.884l.097.097c-.486.519-1.005 1.037-1.491 1.588-.713.81-1.458 1.62-2.139 2.496-.713.907-1.329 1.847-2.01 2.754-.42.616-.842 1.232-1.295 1.815-.422.551-.843 1.07-1.297 1.588-.389.454-.777.875-1.199 1.329-.389.421-.842.842-1.231 1.264-.357.389-.648.778-1.037 1.134-.584.519-1.037.843-1.459 1.167zm1.686 18.083c-.681.81-1.33 1.62-2.01 2.43-.194.26-.453.454-.68.681s-.292.519-.26.843c.065.389.13.81.13 1.199.033.55.033 1.134.065 1.685.032.616-.26 1.102-.713 1.49-.292.26-.713.228-1.102.033-.26-.13-.55-.194-.842-.26-.26-.064-.454-.096-.584-.388-.162-.356-.518-.616-.713-.94a5.744 5.744 0 0 1 -.486-1.004c-.227-.519-.454-1.005-.648-1.556-.194-.519-.324-1.07-.519-1.62-.097-.292-.162-.551 0-.81l.584-.778c.389-.454.81-.94 1.231-1.394.584-.616 1.167-1.231 1.718-1.847.324-.357.583-.778.875-1.134.292-.39.616-.81.972-1.297 1.556.875 3.111 1.718 4.602 2.56-.519.746-1.07 1.426-1.62 2.107zm5.574-9.852c-.162.584-.26 1.167-.454 1.718-.162.389-.162.842-.583 1.166a4.879 4.879 0 0 1 -.324.551c-.033.098-.065.162-.098.26a9.856 9.856 0 0 1 -1.912 2.722c-.194.194-.389.227-.648.032a9.469 9.469 0 0 0 -1.199-.778c-.55-.356-1.134-.648-1.718-1.004-.064-.033-.13-.195-.097-.227.13-.194.292-.356.422-.55.356-.455.712-.94 1.101-1.394.292-.325.357-.81.68-1.102.033-.098.066-.162.098-.26.033-.194.097-.42.13-.615.032-.162.032-.324.065-.486.032-.519.032-1.005.064-1.524 0-.162-.032-.324-.064-.486.13-.032.226-.032.388-.032.195.162.454.26.778.26.519.032 1.005.129 1.523.194.162.032.324.064.487.064l1.555-.097c.065 0 .195.13.195.195-.13.421-.26.907-.39 1.393zm2.333-3.727c-.81.357-1.653.713-2.56.778-.584.033-1.2.097-1.783.033a20.862 20.862 0 0 1 -2.754-.584c-.422-.13-.778-.421-1.135-.68-.032-.033-.032-.195 0-.26.195-.356.422-.648.551-1.004.195-.486.227-1.037.195-1.588-.033-.324-.065-.648-.195-.94-.032-.065.065-.227.13-.324.843-.875 1.75-1.685 2.56-2.56.519-.551.972-1.167 1.491-1.718.421-.454.81-.94 1.296-1.458 1.102.356 2.236.745 3.403 1.134.843.292 1.653.551 2.463.875.486.194.972.421 1.458.616.162.065.324.194.519.291.194.098.356.26.616.065a2.873 2.873 0 0 1 -.26.551c-.032.065-.162.097-.227.097-.583-.097-1.199-.13-1.75-.291-.648-.195-1.199-.033-1.685.259-.291.162-.518.519-.745.81-.227.324-.389.648-.583 1.005-.39.648-.227 1.36-.162 2.041.032.292.064.584.226.81.162.26.422.422.649.616.13.13.291.227.486.39-.68.356-1.426.712-2.204 1.036zm9.981 7.454c-.42.551-.777 1.102-1.199 1.653l-1.555 2.139c-.065.097 0 .324 0 .486.097.842.194 1.717.26 2.56.031.486.064.94.129 1.426.032.486-.422 1.264-.908 1.361-.518.097-1.102.032-1.458-.356-.583-.649-1.102-1.362-1.653-2.042-.13-.162-.162-.357-.227-.551-.421-1.005-.777-2.01-1.231-2.982-.162-.324 0-.583.097-.842.292-.648.648-1.264 1.005-1.88.356-.648.68-1.264 1.037-1.912l.583-.972c.324-.583.616-1.167.94-1.75.162-.292.356-.583.55-.907 1.686.875 3.371 1.652 5.024 2.69-.843.486-.972 1.296-1.394 1.879zm-1.231-12.444c.972.226 1.912.55 2.722 1.069.648.389 1.264.907 1.815 1.458.389.422.486.973.421 1.588-.065.875-.356 1.686-.745 2.463-.357.68-.583 1.426-1.07 2.042-.162.194-.291.421-.42.616-1.297-.68-2.529-1.329-3.76-1.977.324-.616.648-1.264.972-1.88.033-.032.13-.097.195-.065.259.033.518.033.745.13.26.097.389 0 .55-.13.26-.226.26-.388 0-.55-.518-.26-1.069-.551-1.62-.746a20.537 20.537 0 0 0 -2.398-.745c-.68-.195-1.36-.292-2.041-.454-.454-.097-.94-.194-1.394-.292a.45.45 0 0 0 -.291 0c-.357.098-.422-.13-.422-.356 0-.94.357-1.783.81-2.528.227-.356.649-.745 1.297-.55.356.129.81 0 1.199.096 1.134.227 2.268.551 3.435.81zm6.838-11.084c.616.68 1.49 1.07 2.398 1.037.875-.032 1.75-.324 2.43-.972a79.735 79.735 0 0 1 1.75-1.62c.616-.519 1.102-1.135 1.88-1.459l.065-.064c.032 0 .032-.033.065-.033v.097c-.033.033-.065.033-.097.065-.162.26-.357.486-.422.746-.064.226.227.388.422.259.227-.13.389-.324.583-.486.227-.195.421-.422.648-.648.357-.357.486-.357.875.064-.842.39-1.264 1.135-1.782 1.815.356.292.518.26.875-.065.291-.259.615-.42.94-.648.032.551-.292.972-.584 1.426-.194.324-.453.616-.713.908-.615.777-1.36 1.393-2.106 2.009-1.005.842-2.172 1.426-3.306 2.01-.745.388-1.523.42-2.333.485-1.07.097-1.977-.389-2.917-.778-1.426-.583-2.69-1.393-3.889-2.333-.486-.389-.972-.778-1.49-1.134a9.852 9.852 0 0 0 -1.167-.616c-.162.421.032 1.264.356 1.49.292.228.584.422.843.649.065.065.13.227.097.292a29.93 29.93 0 0 1 -.94 2.365c-.388.875-.842 1.75-1.231 2.625-.032.098-.097.195-.162.292-1.07-.778-2.269-1.231-3.5-1.62-1.167-.39-2.366-.746-3.533-1.102a42.18 42.18 0 0 0 -1.101-.39c.55-.777 1.101-1.555 1.652-2.365.487-.713.94-1.458 1.491-2.171.551-.745 1.167-1.458 1.783-2.171.583-.649 1.199-1.297 1.847-1.912.162-.162.453-.227.68-.325.357-.162.746-.324 1.07-.55.356-.227.745-.26 1.102-.26.713 0 1.393 0 2.106.033.195 0 .421.13.616.259.454.26.94.486 1.296.81.454.389.843.875 1.232 1.329.713.94 1.426 1.815 2.17 2.657zm.194-11.213c-.356.454-.713.94-1.134 1.297-.486.453-1.07.81-1.62 1.199-.065.064-.26.032-.357-.033-.648-.453-1.264-1.004-1.977-1.393-.777-.422-1.62-.68-2.463-.94a22.407 22.407 0 0 0 -2.106-.583c-.94-.195-1.88-.357-2.787-.519l-2.333-.389c-.13-.032-.26 0-.39 0-.518 0-.68-.162-.745-.68-.13-.843-.227-1.686-.097-2.56.162-1.2.26-2.399.454-3.598.26-1.588.94-3.014 1.458-4.537.324-.94.583-1.944.972-2.852.39-.94.68-1.912 1.297-2.722.097-.162.227-.292.389-.389.324-.227.518-.162.713.162.194.39.356.81.518 1.2.097.194.13.42.162.647.097.325.195.649.227.973.097.713.13 1.426.194 2.074 1.005 0 1.912-.033 2.787 0 .875.032 1.718.097 2.593.227.648.097 1.296.291 1.944.453l1.75.486c.065.033.195 0 .227-.032.422-.486.843-1.005 1.264-1.49.454-.552.908-1.135 1.394-1.686.097-.097.259-.162.421-.26-.065 2.918-.097 5.737-.616 8.556-.324-.13-.648-.291-1.004-.42-.778-.293-1.62-.293-2.43-.163-.584.097-1.038.421-1.46.81-.388.357-.356 1.264-.161 1.685.389.875 1.134 1.33 2.074 1.459.453.065.94.065 1.393.065.292 0 .584-.13.973-.227-.098.421-.13.842-.26 1.199-.291.972-.583 2.074-1.264 2.981zm1.135-6.384c-.098-.68-.422-1.199-1.232-1.296.68-.097 1.264.162 1.75.583.551.486.357 1.588-.26 1.977-.323.194-.647.421-1.004.583-.162.065-.356.065-.518.097-.033-.032-.033-.064-.065-.097 1.134-.162 1.458-.875 1.329-1.847zm13.027-5.866c-.453.68-.907 1.361-1.426 2.01-.68.81-1.393 1.555-2.106 2.3-.583.616-1.2 1.2-1.815 1.75-.389.357-.81.681-1.231.973-.551.421-1.07.81-1.62 1.231l-3.403 2.625c-.26.195-.454.421-.713.616l-.39.292c-.032.032-.097.032-.129.064.032-.032.032-.064.065-.097.356-.94.778-1.847 1.102-2.82.291-.907.486-1.814.745-2.721a.663.663 0 0 0 0-.357c-.032-.454.324-.583.616-.81.842-.616 1.653-1.296 2.528-1.88.875-.583 1.717-1.199 2.463-1.944.518-.519 1.004-1.037 1.523-1.556.583-.55 1.199-1.037 1.815-1.588l.064.065c-.13.195-.259.421-.389.648.13.065.26.162.357.195.097.032.26 0 .324-.065.389-.486.778-1.005 1.264-1.361.26-.195.421-.13.648.227.162.259-.162.259-.26.356-.42.421-.874.81-1.263 1.264-.195.227.13.324.26.421.096.065.258.13.388-.065.26-.356.583-.648.907-.972.065.033.098.065.163.097-.13.357-.26.746-.487 1.102z"/><path d="m34.066 27.305c-.05 0-.05-.05-.1-.05s-.05.05-.1.05l.05.05c.05 0 .1 0 .15-.05zm2.004-16.773c1.166-.032 2.17.227 3.013.843.454.324.68.778.746 1.361.065.68-.195 1.167-.746 1.458a6.215 6.215 0 0 1 -1.555.487c-1.07.194-2.042-.162-2.95-.681-.81-.454-1.101-1.588-.615-2.398.518-.843 1.264-1.167 2.106-1.07zm1.847.94c.648 1.232.13 2.042-.973 2.69.26 0 .454-.032.681-.065.648-.194 1.361-.55 1.329-1.231-.065-.616-.357-1.264-1.037-1.394zm-.098-.065c.033 0 .065.033.098.033 0-.033.032-.033.032-.065-.032 0-.065-.032-.065-.032-.065 0-.065.032-.065.064zm3.371 1.977c.291.065.842.162 1.36.292.39.097.584.583.357.907a8.477 8.477 0 0 1 -.777 1.102c-.292.39-.908.486-1.297.195-.097-.065-.162-.292-.194-.422-.13-.518-.227-1.07-.324-1.62-.065-.324.097-.454.875-.454zm-2.593 3.144c.097-.097.195-.324.26-.324.226.065.486.162.648.324.13.13.13.389.162.616.032.324.097.648.453.81.486.227.973.194 1.394-.162.227-.195.421-.454.55-.713.13-.227.292-.227.455-.162.13.064.486.064.291.389-.065.097-.032.259-.065.388-.194.713-.94 1.07-1.62 1.005-.324-.032-.68-.065-1.005-.194-1.037-.324-1.49-.778-1.523-1.977z"/></g></g></svg>