<svg height="70" viewBox="0 0 70 70" width="70" xmlns="http://www.w3.org/2000/svg"><g fill="none"><path d="m64.643 47.192c-.066.526-.263.79-.723.625-.197-.066-.361-.46-.427-.756-.197-.69-.164-1.446-1.052-1.873-.328-.165-.526-.888-.558-1.38-.099-1.348-.099-2.728-.165-4.108-.033-.395-.23-.756-.427-1.118-.526-.953-.559-2.005-.624-3.056-.066-1.052-.46-1.972-1.085-2.826-.92-1.25-1.117-2.662-.591-4.108.263-.723.788-1.348 1.15-2.038.164-.296.23-.657.361-.986.033-.099.23-.131.296-.23.427-.427.789-.953 1.282-1.315.558-.46 1.216-.788 1.84-1.183.362-.23.526-.558.296-1.051-.493-1.15-1.315-1.775-2.53-1.874-1.414-.098-2.728.428-4.043.855-1.117.361-2.267.361-3.253-.197-.625-.362-1.118-1.052-1.578-1.676-.493-.69-.821-1.446-1.216-2.202-.591-1.118-1.117-2.3-1.807-3.385-.197-.296-.756-.362-1.118-.592-.756-.427-1.643-.756-2.234-1.347-.756-.756-1.315-1.709-1.874-2.63-.394-.656-.558-1.478-.92-2.135-.526-.953-1.183-1.84-1.742-2.794-.328-.591-.131-.887.592-1.019.099-.032.197-.032.296-.065-.756-.197-1.48-.362-2.235-.559-1.906-.526-3.78-1.117-5.784-1.052-.263 0-.493-.098-.756-.131h-2.3c-.428.066-.855.099-1.25.164-1.774.263-3.516.427-5.257.789-1.282.263-2.53.756-3.845 1.117-.165.033-.362-.23-.592-.328-.132-.066-.427-.165-.427-.132-.099.197-.165.427-.23.658-.033.098-.033.197-.066.295-.066 0-.132 0-.132-.033-.065-.131-.098-.23-.164-.361l-.033-.033c-.197.263-.394.493-.591.756-.066.361-.099.723-.165 1.084-.098.493-.328.986-.23 1.414.132.821.428 1.61.658 2.399.164.525.558 1.051.591 1.61.066.953 0 1.939-.131 2.925-.099.624-.329 1.216-.592 1.775-.328.624-.789 1.183-1.15 1.807-.362.592-.69 1.249-.986 1.873-.197.427-.263.953-.559 1.282-.427.46-1.051.789-1.544 1.183-.493.362-.953.723-1.413 1.117-.428.362-.888.756-1.216 1.184-.493.69-.822 1.446-1.282 2.136-.526.788-.92 1.741-1.972 2.037-.591.165-1.15.362-1.742.559-.361.066-.756.033-1.051.164-1.085.46-2.07 1.052-2.827 2.038-.558.756-1.281 1.413-1.873 2.136-.263.329-.46.756-.624 1.117.098.592.164 1.183.197 1.775.033 0 .033.033.066.033.131.098.033.526 0 .854 0 .197.033.395.033.592.098.92.197 1.84.361 2.76.164 1.02.394 2.038.69 3.057.132.46.46.854.723 1.281.395.592.822 1.184 1.15 1.808.066.131-.164.427-.23.657.198.427.395.888.592 1.348.624.032 1.282.098 1.906.098.329 0 .657-.098.953-.263.789-.493 1.545-1.051 2.3-1.577.888-.625 1.84-.92 2.925-.822.855.066 1.71-.033 2.564-.065.033 0 .066-.033.098-.033.263.033.69.23.79.098.36-.427.755-.887.92-1.38.46-1.479.755-3.024 1.215-4.502.066-.263.625-.46.986-.526 1.085-.197 1.775.23 2.465 1.347.92 1.512 2.136 2.728 3.45 3.911.92.822 1.545 2.07 2.104 3.188.46.953.69 2.005 1.019 3.023.723 2.104.854 4.207.23 6.343-.197.657-.132 1.446-.099 2.169 0 .493-.033.92-.526 1.216-.23.131-.328.427-.525.592-.79.788-1.085.788-2.137.394-.493-.197-1.051-.132-1.577-.23-.263-.033-.526-.164-.756-.296-1.15-.559-2.268-.131-3.385 0a.64.64 0 0 1 -.427-.033c-.789-.46-1.512-.197-2.268.099-.263.098-.591.066-.887.197-.427.164-.789.394-1.183.624 0 0 0 .033.033.033a29.094 29.094 0 0 1 2.76 1.643c.296-.065.592-.164.92-.098.066 0 .1.033.165.033-.165.46.197.526.493.624.427.164.854.296 1.281.427h.099l-.066.066c.329.066.625.164.953.23 1.02.296 2.038.559 3.057.855.098.032.164.098.23.164.394.066.821.164 1.216.23.033-.066.098-.131.131-.23 0-.033.197.033.329.066.066-.592.033-1.25.197-1.808.066-.296.427-.591.723-.723a7.812 7.812 0 0 1 1.709-.493c.23-.033.657.263.723.46.23.888.329 1.775.46 2.662 0 .099-.263.197-.394.296-.23.164-.46.296-.69.46.098.033.197.066.328.099 1.183.131 2.366.263 3.517.394.131 0 .197.099.262.164.23 0 .46 0 .69-.032h.066c.362 0 .723-.033 1.085-.033.098 0 .164.033.23.098.23-.033.427-.065.657-.098.066 0 .165-.066.23-.033.296.098.756.361.888.263.427-.395.985.263 1.314-.197s.592-.296.887-.132c.33-.099.625-.197.953-.296-.394-.263-.788-.493-1.183-.756-.032 0-.032-.032-.065-.065-.888-.362-.658-1.315-1.052-1.94-.526-.46-1.052-.92-1.577-1.347-.33-.263-.723-.394-1.085-.624-.164-.099-.394-.362-.361-.46.164-.657-.56-.559-.723-.888-.1-.164-.23-.361-.23-.525.065-1.61.098-3.221.328-4.798.132-.92.526-1.775.46-2.761-.131-2.432-.197-4.897-.296-7.329 0-.427-.032-.854.066-1.281.066-.23.296-.46.526-.559.559-.23 1.117-.427 1.709-.559.657-.131 1.347-.164 2.037-.263 1.38-.197 2.728-.427 4.108-.624-.098-.132-.23-.263-.328-.394.23-.033.493-.132.624-.033.625.361 1.118.197 1.578-.197l-.033-.033a2.632 2.632 0 0 1 -.493-.69c-.033-.066-.033-.1-.033-.132-.427-.361-.592-.657-.854-1.019-.46-.69-.625-1.314-.855-2.07-.296-.855-.394-1.84-.394-2.76 0-.625.197-1.315.427-1.907.46-1.15 2.07-1.906 3.582-1.512 1.94.493 2.596 1.94 3.024 3.583.197.723.164 1.511.295 2.234.132.625.362 1.216.493 1.71.23-.79.395-1.775.723-2.663.526-1.347 1.052-2.76 2.268-3.648a2.428 2.428 0 0 1 2.07-.361c.92.23 1.775.526 2.235 1.512s.46 1.972.197 2.957c-.526 1.84-1.281 3.55-2.432 5.094-.033.033 0 .066-.033.099.592.263 1.15.493 1.742.756.953-.23 1.676.361 2.432.723.23.098.329.46.46.723.69.361 1.413.723 2.07 1.117.23.132.296.493.494.723.131.164.361.23.46.395.558.788.953 1.676.756 2.694a.61.61 0 0 1 -.066.23c-.789.822-.559 1.874-.69 2.827.394-.296.526-.69.526-1.216 0-.329.295-.658.493-.986.394-.657.821-1.315 1.183-2.005.197-.361.328-.756.493-1.15-1.02-.362-.592.591-.625.821zm-46.962-18.995c-.296 1.052-.822 1.972-1.48 2.794-.328.427-.69.854-1.116 1.248-.592.526-1.25.986-1.84 1.512-.527.46-.987 1.019-1.545 1.446-.46.329-1.02.46-1.545.657-.493.198-1.019.362-1.479.625-.427.23-2.005.329-2.235-.066-.197-.328-.197-1.084.033-1.282a31.208 31.208 0 0 1 3.352-2.563c.526-.329 1.183-.427 1.775-.657.263-.099.526-.263.69-.493.592-.723 1.183-1.413 1.643-2.202.789-1.38 1.48-2.826 2.268-4.174.23-.394.624-.756 1.019-.986.131-.098.657.23.821.46.197.362.23.855.362 1.446-.23.625-.526 1.414-.723 2.235z" fill="#7b7089"/><path d="m37.122 66.928c-.05 0-.05-.05-.1-.05 0 .05-.05.1-.05.1s.05.05.1.05c0-.05.05-.05.05-.1z" fill="#7b7089"/><path d="m28.296 50.347c-.329-1.018-.559-2.07-1.019-3.023-.592-1.15-1.183-2.4-2.103-3.188-1.348-1.183-2.53-2.399-3.451-3.91-.69-1.118-1.347-1.545-2.465-1.348-.361.066-.92.263-.986.526-.46 1.479-.788 3.023-1.216 4.502-.164.526-.525.986-.92 1.38-.098.099-.526-.065-.789-.098-.032 0-.065.033-.098.033-.855.033-1.71.131-2.564.065-1.084-.065-2.037.198-2.924.822a35.642 35.642 0 0 1 -2.3 1.577 1.885 1.885 0 0 1 -.954.263c-.624 0-1.282-.033-1.906-.098.263.591.526 1.15.756 1.742.033.065.066.131.066.164.032.066.098.164.131.23a89.9 89.9 0 0 1 2.793 4.404c.066.033.099.065.165.131.526.329.953.789 1.347 1.249 1.052 1.315 1.972 2.695 3.056 3.976.526.625 1.25 1.085 1.874 1.61.394-.196.788-.46 1.183-.624.263-.098.591-.065.887-.197.756-.263 1.479-.558 2.268-.098.098.065.263.032.427.032 1.117-.164 2.268-.558 3.385 0 .23.132.493.23.756.296.526.099 1.117.033 1.577.23 1.052.428 1.348.428 2.136-.394.198-.197.296-.46.526-.592.493-.295.526-.69.526-1.216 0-.723-.098-1.478.099-2.169.591-2.07.427-4.173-.263-6.277zm23.53-44.07c.099 0 .197.033.296.033.92-.099 1.183.131 1.249 1.084 0 .23-.099.756.46.329.066-.066.23 0 .361 0 .33.23.69.46 1.02.723.492.394.952.822 1.38 1.282.887.953 1.84 1.906 2.629 2.925.558.723.887 1.643 1.38 2.432.23.394.559.723.887 1.051 1.052 1.019 1.972 2.07 2.564 3.517.361.887.361 1.807.624 2.694.132.428-.099.986-.164 1.48 0 .065-.033.196-.033.196.591.263.624.79.657 1.38.066.69.296 1.381.526 2.071.657 2.17 1.084 4.371 1.117 6.606 0 1.051-.295 2.136-.197 3.188.099 1.15.559 2.234.789 3.385.098.525.263 1.314 0 1.61-.953 1.052-.296 2.07-.197 3.09.098.92-.559 1.577-1.348 1.347-.065-.033-.131-.132-.263-.296l-.328.065c-.986-.427-.559.526-.592.756-.066.526-.263.79-.723.625-.197-.066-.361-.46-.427-.756-.197-.69-.164-1.446-1.052-1.873-.328-.165-.526-.888-.558-1.38-.099-1.348-.099-2.728-.165-4.109-.033-.394-.23-.755-.427-1.117-.526-.953-.559-2.005-.624-3.056-.066-1.052-.46-1.972-1.085-2.827-.92-1.248-1.117-2.662-.591-4.108.263-.723.788-1.347 1.15-2.037.164-.296.23-.657.361-.986.033-.099.23-.132.296-.23.427-.427.789-.953 1.282-1.315.558-.46 1.216-.788 1.84-1.183.362-.23.526-.558.296-1.051-.493-1.15-1.315-1.775-2.53-1.874-1.414-.098-2.728.428-4.043.855-1.117.361-2.267.361-3.253-.197-.625-.362-1.118-1.052-1.578-1.676-.493-.69-.821-1.446-1.216-2.202-.591-1.118-1.117-2.3-1.807-3.385-.197-.296-.756-.362-1.118-.592-.756-.427-1.643-.756-2.234-1.347-.756-.756-1.315-1.71-1.874-2.63-.394-.657-.558-1.478-.92-2.136-.526-.953-1.183-1.84-1.742-2.793-.328-.591-.131-.887.592-1.019.099-.033.197-.033.296-.065.821.197 1.643.394 2.497.591.395.066.79.033 1.183.132.493.131.986.361 1.48.525.624.23 1.215.428 1.84.723.197.099.361.329.526.493.328.296.591.625.953.822.131.066.197.559.558.23zm-4.535-1.939c-.066-.033-.131-.099-.197-.131-.329-.132-.657-.33-1.019-.428-.23-.065-.493 0-.756.033.23.197.46.427.756.592.197.098.427.131.625.197.098.033.23.131.295.099.132-.1.197-.23.296-.362zm-27.343 6.014c-.033-.559-.394-1.052-.591-1.61-.263-.789-.526-1.578-.657-2.4-.066-.46.164-.952.23-1.412.065-.362.098-.723.164-1.085l-.46-.46c-.033 0-.066.033-.066.033-.559.328-1.117.624-1.676.92-.559.329-1.084.69-1.676.986-.197.099-.362.033-.427-.099-.132.132-.263.23-.427.362-.066.066-.198.066-.296.098-.132.033-.329 0-.428.066-.558.395-1.051.92-1.643 1.216-.788.427-1.544.723-1.906 1.71-.427 1.15-1.084 2.2-1.676 3.285-.296.56-.657 1.052-1.413 1.085-.526.033-.92.263-1.052.854a8.146 8.146 0 0 1 -.558 1.578c-.526 1.183-1.118 2.333-1.644 3.516-.525 1.183-.92 2.4-1.478 3.55-.92 1.873-1.38 3.812-1.25 5.915.034.592.1 1.183.034 1.742-.099.887-.23 1.742-.362 2.629 0 .131.033.263.033.394a.222.222 0 0 1 .131.198c.033.098.033.197.033.328.198-.394.362-.789.625-1.117.591-.756 1.314-1.38 1.873-2.136.756-.986 1.742-1.578 2.826-2.038.329-.131.69-.131 1.052-.164.591-.197 1.15-.395 1.742-.559 1.051-.296 1.446-1.249 1.972-2.037.46-.69.821-1.48 1.281-2.137.329-.46.789-.821 1.216-1.183.46-.394.92-.756 1.413-1.117.526-.394 1.118-.723 1.545-1.183.296-.329.361-.855.559-1.282.295-.624.624-1.282.986-1.873.361-.625.821-1.183 1.15-1.808.296-.558.526-1.183.591-1.774.23-1.02.296-2.005.23-2.99z" fill="#c5bccf"/><path d="m62.54 51.793c-.23 1.676-.46 3.353-.756 5.029-.197 1.117-.493 2.234-.756 3.352-.296 1.249-.559 2.497-.986 3.713-.23.69-.427 1.282-.164 1.972.033.132-.164.46-.296.493-1.216.362-2.465.69-3.68 1.019-.066.033-.264-.164-.264-.197.296-2.17.658-4.371.92-6.54.23-1.84.362-3.714.527-5.587.098-1.315.197-2.596.328-3.91.066-.658.263-1.315.362-1.973.033-.295-.066-.591-.033-.887 0-.131.098-.263.131-.427.033-.099.033-.263-.033-.296l-2.366-1.577c-.493-.296-.986-.592-1.38-.79 1.742-.46 3.582-.92 5.39-1.38.69.362 1.413.724 2.07 1.118.23.131.296.493.493.723.131.164.361.23.46.394.559.789.953 1.676.756 2.695a.61.61 0 0 1 -.066.23c-.723.789-.493 1.84-.657 2.826zm-19.784-9.957c.92.657 1.873 1.347 2.793 2.004.066.033.099.198.066.23-.033.066-.164.066-.23.099-1.676.329-3.418.559-5.061 1.019-.427.131-.855.92-.92 1.479a140.226 140.226 0 0 0 -.986 7.46c-.197 1.906-.197 3.812-.329 5.718-.066 1.315-.164 2.63-.23 3.944-.526-.46-1.051-.92-1.577-1.348-.329-.263-.723-.394-1.085-.624-.164-.099-.394-.362-.361-.46.164-.657-.559-.559-.723-.888-.099-.164-.23-.361-.23-.525.065-1.61.098-3.221.328-4.798.132-.92.526-1.775.46-2.761-.131-2.432-.197-4.897-.295-7.329 0-.427-.033-.854.065-1.281.066-.23.296-.46.526-.559.559-.23 1.118-.427 1.71-.559.656-.131 1.346-.164 2.037-.263 1.314-.098 2.694-.328 4.042-.558z" fill="#fd596f"/><path d="m18.404 25.897a49.11 49.11 0 0 0 -.723 2.3c-.296 1.052-.822 1.972-1.48 2.794-.328.427-.69.854-1.116 1.248-.592.526-1.25.986-1.84 1.512-.527.46-.987 1.019-1.545 1.446-.46.329-1.02.46-1.545.657-.493.198-1.019.362-1.479.625-.427.23-2.005.329-2.235-.066-.197-.328-.197-1.084.033-1.282a31.208 31.208 0 0 1 3.352-2.563c.526-.329 1.183-.427 1.775-.657.263-.099.526-.263.69-.493.592-.723 1.183-1.413 1.643-2.202.789-1.38 1.48-2.826 2.268-4.174.23-.394.624-.756 1.019-.986.131-.098.657.23.821.46.197.33.23.79.362 1.38zm10.648 40.488c.23-.164.46-.296.69-.46.131-.099.427-.23.394-.296-.098-.887-.23-1.807-.46-2.662-.066-.23-.493-.493-.723-.46a5.116 5.116 0 0 0 -1.709.493c-.296.131-.624.427-.723.723-.164.592-.131 1.216-.197 1.808.033.098.066.197.099.262.887.165 1.774.362 2.629.592z" fill="#c5bccf"/><path d="m56.624 42.362c-.92.197-1.84.427-2.892.657.428-.526.79-.953 1.15-1.413.592.263 1.184.493 1.742.756zm-15.676 24.023c-.033-.92-.065-1.84-.065-2.793.032-1.545.065-3.09.164-4.634.23-2.99.493-5.949.756-8.94.066-.656.033-1.314.098-1.938.033-.23.296-.395.395-.625.328-.887 1.15-.46 1.742-.624.69-.164 1.413-.131 2.103-.263 1.183-.23 2.333-.559 3.516-.756.395-.066.855.132 1.216.362.986.657 1.94 1.314 2.827 2.103.46.394.525 1.052.46 1.676-.165 1.808-.23 3.648-.362 5.455-.197 2.235-.46 4.47-.69 6.738-.197 1.84-.362 3.713-.559 5.554-.033.295-.131.394-.526.394-1.084.033-2.136.23-3.22.329-.888.065-2.235.723-3.155.69-.756-.033-1.117-.395-1.873-.428-.986-.032-1.348-1.38-2.104-1.774-.263-.165-.493-.362-.723-.526z" fill="#fd596f"/><path d="m46.995 40.587c-.526-.559-1.117-1.052-1.577-1.676a5.65 5.65 0 0 1 -.822-1.742c-.23-.854-.394-1.742-.427-2.596 0-.329.493-.855.854-.953.723-.23 1.184.295 1.414.92.23.723.394 1.479.558 2.235.132.493.92 3.122.92 3.648-.295.065-.591.131-.92.164zm7.92-6.343c-.328-.066-.953 0-1.051.23a23.742 23.742 0 0 0 -1.413 3.254c-.263.788-.428 1.577-.592 2.399.033 0 .033 0 .066.033.098.065.164.131.263.197.131-.066.263-.033.361.066.066.065.165.131.23.197.263-.46.493-.888.79-1.315.854-1.314 1.51-2.728 1.774-4.305 0-.23-.263-.723-.428-.756z" fill="#7b7088"/><path d="m46.995 40.587c.329-.066.625-.099.953-.164l.395 1.38c-.066.033-.197.066-.197.066-.395-.428-.756-.855-1.15-1.282z" fill="#fd596f"/><path d="m51.826 6.277c-.394.361-.46-.164-.624-.263-.362-.197-.657-.526-.953-.822 1.183-.164 1.413 0 1.577 1.085z" fill="#7c718a"/><path d="m51.86 39.93c.328.032.525.788.854.821-.296.395-.592.789-.888 1.216-.033.066-.131.099-.164.132-.033-.066-.066-.132-.033-.165 0-.46.164-1.61.23-2.004z" fill="#fd596f"/><path d="m40.948 66.385c.23.197.46.361.723.559-.131.065-.263.164-.394.131-.131 0-.362-.098-.394-.197-.066-.164.032-.329.065-.493z" fill="#7d728a"/><path d="m54.21 7.707-.05-.05s0 .05.05.05z" fill="#c5bccf"/><path d="m19.685 3.09h.15c-.05 0-.05.05-.1.05z" fill="#7b7089"/><path d="m47.291 4.338c-.099.131-.164.296-.296.394-.033.033-.197-.065-.295-.098-.23-.066-.46-.099-.625-.197-.263-.165-.493-.395-.756-.592.263 0 .526-.099.756-.033.362.099.69.263 1.019.427.066 0 .131.033.197.099zm-.624-.099s-.033 0 0 0c-.033.033-.033.066-.033.066h.033v-.065z" fill="#857a92"/><path d="m7.329 28.303s0-.05 0 0c0-.05 0 0 0 0z" fill="#7b7089"/><path d="m46.684 4.24v.1h-.05s0-.05.05-.1c-.05 0 0 0 0 0z" fill="#c5bccf"/><g fill="#41364f"><path d="m36.512 67.404c-.395.033-.822.065-1.216.065-.953-.032-1.873-.131-2.827-.197-.46-.033-.92.033-1.347-.033-1.117-.164-2.235-.361-3.352-.525-.624-.099-1.282-.198-1.906-.329-.592-.131-1.183-.329-1.775-.46-.493-.099-2.826-.657-3.45-.855a29.566 29.566 0 0 1 -1.578-.525c-.822-.329-1.61-.658-2.399-1.085-.854-.46-1.643-.986-2.432-1.512-.46-.328-.854-.723-1.249-1.117-.756-.69-1.544-1.315-2.235-2.07a23.018 23.018 0 0 1 -1.906-2.432 59.193 59.193 0 0 1 -2.333-3.517c-1.216-1.939-2.366-3.91-3.09-6.112-.656-2.005-1.38-4.01-1.971-6.015a50.23 50.23 0 0 1 -1.117-4.895c-.165-.89-.165-1.776-.199-2.663-.065-1.545-.065-3.09.23-4.601.198-.953.23-1.972.428-2.925.23-1.249.493-2.498.854-3.714.46-1.544.986-3.056 1.578-4.535.427-1.052 1.018-2.037 1.61-3.023a23.81 23.81 0 0 1 1.643-2.4c.46-.591 1.019-1.15 1.512-1.708.361-.395.69-.79 1.052-1.15a40.397 40.397 0 0 1 1.741-1.61c.559-.461 1.118-.954 1.71-1.348a32.757 32.757 0 0 1 2.3-1.38c.69-.395 1.413-.756 2.136-1.085.427-.197.92-.329 1.38-.493.789-.263 1.545-.592 2.333-.822.79-.23 1.578-.361 2.367-.558.394-.099.756-.296 1.15-.395a36.327 36.327 0 0 1 2.728-.493 43.77 43.77 0 0 1 2.038-.327c.756-.099 1.512-.165 2.268-.23.066 0 .098-.066.164-.066h2.038c.131.033.263.131.361.131.69.033 1.413 0 2.103.066.888.066 1.742.23 2.63.263 1.15.066 2.267.296 3.352.592.821.23 1.61.591 2.432.723.755.098 1.413.525 2.169.657.69.098 1.38.46 2.037.756 1.282.591 2.564 1.15 3.78 1.84 1.248.723 2.399 1.61 3.647 2.366 1.118.723 2.07 1.643 2.991 2.597.822.854 1.512 1.807 2.169 2.793a65.1 65.1 0 0 1 2.498 4.108c.657 1.183 1.281 2.399 1.774 3.68a46.194 46.194 0 0 1 1.578 5.127c.328 1.38.493 2.794.723 4.207.066.46.033.953.164 1.38.099.428-.164.822.099 1.25.131.23.065.59.098.886.033.855.066 1.742.066 2.597 0 .887-.099 1.807-.131 2.695 0 .262-.099.525-.033.755.098.46.328.888.46 1.348.23.756.46 1.479.591 2.235.198 1.15.263 2.3.395 3.45 0 .132.065.263.065.395v.328c-.065.329-.098.658-.164.986-.098.625-.131 1.249-.296 1.84-.23.92-.493 1.84-.986 2.695-.558.986-1.051 1.972-1.643 2.892-.427.658-.986 1.216-1.544 1.775-.46.46-.953.887-1.413 1.282-.198.164-.428.263-.625.394-.657.46-.854 1.216-1.052 1.906-.427 1.446-.755 2.925-1.117 4.371-.099.329-.197.657-.296 1.019-.164.624-.788.591-1.216.756-.558.197-1.117.263-1.709.394-.953.197-1.873.427-2.826.625-.624.131-1.216.262-1.84.361-1.085.164-2.136.329-3.22.46-1.217.164-2.4.296-3.616.427-.263.033-.526.033-.789.099-.295.099-.624.099-.953-.197-.361-.296-.887-.427-1.314-.658-.526-.295-1.019-.657-1.512-1.018-.394-.263-.789-.526-1.15-.789-.099-.066-.165-.099-.329-.033-.296.099-.657.066-.986.099-.394.033-.789.098-1.183.131-.361.033-.69.066-1.052.099 0-.033-.032-.099-.032-.132 0 .066 0 .099-.033.132zm23.629-8.545c-.099 0-.197-.033-.296-.033-.263.066-.526-.033-.723-.23-.23-.23-.197-.46.099-.624.493-.263.953-.559 1.413-.855-.033-.065-.033-.098-.066-.164-.131-.033-.23-.033-.361-.066-.23-.065-.493-.065-.658-.23-.263-.23-.065-.887.329-1.084.296-.165.657-.263.953-.46.296-.198.756-.362.822-.658.295-.854.46-1.741.624-2.629.131-.624.197-1.281.296-1.906.131-.821.23-1.61.361-2.399-.493.132-.953.263-1.38.362-.099.032-.23.032-.329.032-.295 0-.591-.032-.887.033-.361.066-.69.263-1.052.329l-2.464.493c-.263.066-.56.197-.79.131-.525-.164-.985.132-1.445.198-.23.032-.427.098-.657.164-.493.131-1.02.263-1.512.361-.625.132-1.249.23-1.84.33-.165.032-.33.032-.493.065-.56.131-1.15.328-1.71.46-1.018.197-1.051.23-1.117.986-.098 1.084-.263 2.169-.394 3.253.361.033.723.033 1.084.132.132.033.296.328.263.394-.296.46-.756.822-1.281.953-.33.099-.362.066-.296.427h.657c.756-.032 1.479-.065 2.235-.032.164 0 .46.262.493.427.033.197-.132.526-.296.624-.526.296-1.085.592-1.775.526-.098 0-.23.131-.361.197.131.033.296.165.394.132.888-.263 1.775-.099 2.695.033.329.032.394.427.23.723-.23.427-.69.46-1.084.525-.592.099-1.184.066-1.775.132-.23.033-.69-.132-.624.427.624.066 1.248.066 1.873.164.23.033.558.198.657.395.066.131-.099.46-.329.591-.361.165-.723.296-1.15.329-.756.066-1.446 0-2.169-.164-.098-.033-.328.065-.361.164-.066.23-.066.493-.066.756-.033.493-.033 1.019-.066 1.512-.066.624-.164 1.248-.197 1.873-.066.887-.131 1.774-.197 2.727.296-.032.559-.098.854-.131 1.118-.197 2.202-.394 3.32-.592.295-.065.624-.032.953-.098 1.281-.164 2.563-.362 3.878-.559.394-.066.788-.131 1.183-.23.92-.263 1.84-.559 2.76-.854.427-.132.822-.329.92-.822.099-.427.165-.854.23-1.282.165-.788.296-1.577.46-2.399.1-.493.198-.953.33-1.446-.362-.033-.691-.065-.987-.098-.098-.033-.263-.197-.23-.197.132-.263.263-.526.46-.69.132-.132.395-.1.625-.132 0 .033.065-.329 0-.263 0-.066 0-.066-.033-.033zm-17.648-55.769c-.066 0-.131.033-.197.033-1.019-.263-2.038-.559-3.057-.822a18.247 18.247 0 0 0 -2.333-.427c-.559-.065-1.15-.098-1.742-.131a125.8 125.8 0 0 0 -3.582-.132c-.263 0-.559.132-.821.198-.33.065-.658.098-.986.131-.099 0-.198-.066-.296-.099.033 0 .066 0 .066.033v-.034c-.033 0-.066 0-.066.033-.066.066-.132.165-.197.165-.46.032-.92.164-1.348.262-.591.132-1.15.198-1.742.33-.69.163-1.347.328-2.037.492-.592.164-1.183.296-1.808.427-.262.066-.558.132-.821.197-.164.066-.329.132-.526.198-.329.098-.657.164-.986.295-.723.263-1.413.56-2.103.822-.559.23-1.118.427-1.643.723-.428.23-.822.559-1.282.822-1.117.657-2.235 1.38-3.155 2.3-.657.657-1.347 1.315-2.005 2.005-.756.821-1.511 1.643-2.202 2.53a24.57 24.57 0 0 0 -1.873 2.925c-.46.822-.854 1.676-1.216 2.53-.263.658-.46 1.315-.657 2.005-.23.756-.394 1.545-.592 2.334-.23.92-.427 1.84-.624 2.76a27.281 27.281 0 0 0 -.394 2.268c-.132 1.052-.263 2.07-.362 3.122-.066.657-.131 1.347-.131 2.038 0 .492.065.985.098 1.478.066.822.066 1.676.23 2.498a56.906 56.906 0 0 0 1.282 4.634c.559 1.676 1.216 3.286 1.873 4.93.822 2.004 1.906 3.845 3.155 5.586.69.986 1.413 1.906 2.17 2.86a21.603 21.603 0 0 0 1.577 1.873c.723.756 1.511 1.446 2.267 2.136.493.427.986.854 1.512 1.216.789.558 1.61 1.084 2.399 1.61.493.329 1.019.657 1.545.92.525.263 1.117.493 1.676.69.526.198 1.051.428 1.61.592s1.15.329 1.742.46l2.958.69c.493.099.985.165 1.478.23.723.099 1.48.197 2.202.263.625.066 1.216.132 1.84.165.592.032 1.184.032 1.775.032h3.616a39.91 39.91 0 0 0 -2.497-2.267c-.658-.559-1.315-1.118-1.972-1.643-.395-.33-.657-.69-.559-1.25 0-.032-.033-.098-.033-.164-.591-.065-1.216-.164-1.807-.23-.427-.065-.888-.098-1.315-.197-.591-.131-1.15-.328-1.742-.526-.821-.295-1.676-.558-2.464-.92a50.448 50.448 0 0 1 -3.254-1.676c-1.38-.821-2.793-1.577-3.944-2.826-.821-.887-1.511-1.873-2.201-2.86-.198-.262-.165-.328.098-.59.033-.034.033-.067.066-.1.131-.887.854-1.413 1.446-1.971.23-.197.46-.099.624.164.165.263.329.526.559.723.526.493 1.052.92 1.578 1.38.788.69 1.478 1.48 2.333 2.07 1.446.987 2.99 1.775 4.568 2.466.493.23.986.46 1.512.624.756.23 1.544.46 2.333.624.46.099.92.099 1.38.165v-1.545c.033-1.117.033-2.235.099-3.352.033-.92.164-1.808.23-2.695.066-.854.033-1.709.066-2.596.032-1.019.065-2.038.131-3.056.033-.69.099-1.414.132-2.07 3.286-.625 6.54-1.25 9.53-1.808.69.591 1.216 1.084 1.808 1.577-3.09.46-6.08.92-9.137 1.38.23.132.428.23.658.329.098.033.197.066.263.131.23.198.394.428.657.592.953.559 1.906 1.052 2.859 1.61.624.329 1.249.658 1.84 1.02.658.393 1.282.854 1.94 1.314.23.164.46.295.69.46.098.065.197.098.295.164.395.197.789.592 1.282.526.723-.132 1.413-.362 2.103-.526.296-.066.559-.197.855-.197 1.019 0 1.972-.296 2.957-.526.79-.197 1.578-.329 2.367-.46.854-.131 1.741-.164 2.596-.362 1.216-.262 2.465-.492 3.714-.624.23-.033.492-.099.723-.164-2.465-1.61-4.897-3.22-7.592-4.371.296-.395.559-.756.789-1.052.493.263.986.526 1.446.789s.953.493 1.413.756a77.751 77.751 0 0 1 3.516 2.169c.723.46 1.512.854 1.94 1.676.13.263.36.427.558.657.033-.033.099-.033.131-.066.033-.262.033-.525.099-.755.296-1.25.69-2.498.953-3.747.197-.986.296-1.972.394-2.958.033-.394.066-.788.099-1.216.033-.427.099-.854.099-1.281 0-.723-.033-1.413-.066-2.136a52.527 52.527 0 0 0 -.132-2.334 53.216 53.216 0 0 0 -.262-2.267c-.066-.625-.1-1.282-.198-1.906-.197-.986-.394-1.94-.69-2.893a83.112 83.112 0 0 0 -1.61-4.535 16.245 16.245 0 0 0 -1.085-2.3c-.657-1.216-1.38-2.4-2.103-3.582a31.442 31.442 0 0 0 -1.512-2.137c-.657-.821-1.281-1.643-2.037-2.333-.822-.756-1.742-1.413-2.63-2.037-.92-.658-1.84-1.315-2.826-1.874-1.183-.657-2.366-1.281-3.615-1.774-1.577-.625-3.187-1.118-4.798-1.643 0-.033.033-.033.033-.066.066-.099.033-.099.033-.099zm-7.329 54.357c.329.066.69.197 1.02.23 1.182.066 2.365.099 3.548.099.723 0 3.188-.526 3.55-.855.558-.526 1.216-.953 1.774-1.446.198-.164.493-.23.559-.559.131-1.314.296-2.629.427-3.943 0-.099 0-.23-.065-.296a7.507 7.507 0 0 0 -.723-.723c-.296-.23-.658-.394-.986-.657-.198-.165-.362-.395-.56-.526-.656-.427-1.346-.822-2.004-1.216-.756-.46-1.512-.953-2.3-1.413-1.019-.592-2.07-1.15-3.122-1.742-.296-.164-.625-.329-.953-.526-.395 4.568.033 9.07-.165 13.573zm8.906 10.878c.033-.329.099-.657.132-.953.131-1.348.263-2.662.394-4.01.066-.558.132-1.117.132-1.643 0-.131-.132-.328-.263-.328a5.998 5.998 0 0 0 -1.315-.165l-4.338-.098c-1.216-.033-2.399-.033-3.615-.066v.526c.197 0 .427.131.362.164.131.066.295.132.427.197.526.362 1.052.69 1.545 1.118.723.624 1.38 1.281 2.07 1.939.296.263.559.558.887.821.263.23.559.428.855.658.394.328.788.657 1.216.953.328.263.723.46 1.084.69.099.098.263.131.427.197zm19.653-15.415c.033 0 .099.033.131.033.198-.329.395-.658.56-.986.196-.362.394-.723.558-1.085.131-.328.23-.69.328-1.019-.032 0-.065-.032-.098-.032-.066.098-.099.197-.164.295a46.396 46.396 0 0 0 -1.15 2.202c-.1.165-.1.395-.165.592zm-27.078 14.494h-.1z"/><path d="m31.45 27.408c.198-.46.395-.854.527-1.248.131-.362.295-.296.558-.165.46.23.92.493 1.413.658.559.197 1.15.394 1.71.46.59.065 1.215-.033 1.807-.066.098 0 .197 0 .263-.033 1.413-.099 2.695-.559 3.713-1.61.329-.362.592-.789.855-1.183.131-.198.23-.428.427-.559.131-.099.394-.066.559 0 .263.131.526.296.723.493.065.066.098.263.065.329-.262.558-.525 1.117-.985 1.61-.625.657-1.216 1.282-1.972 1.775-.953.591-2.005.854-3.09.953-.558.032-1.117.131-1.676.131-.46 0-.953-.099-1.413-.23-.624-.164-1.249-.394-1.873-.624-.526-.198-1.052-.46-1.61-.69zm-4.83-2.563c-.855-.033-1.61-.296-2.07-1.019-.132-.23-.23-.591-.165-.854.099-.69.131-1.413.789-1.873.263-.165.558-.329.854-.395.756-.131 1.578-.263 2.202.329.362.361.657.821.657 1.413 0 .427.066.854-.164 1.315-.296.525-.723.788-1.249.953-.296.032-.559.098-.854.131zm16.76-5.39c0-1.248.888-1.774 1.906-1.84 1.02-.066 2.104 1.052 2.104 2.038 0 1.051-.855 1.939-1.906 1.906-.986-.033-2.202-.855-2.104-2.104zm4.305 20.08c.165.526.33 1.019.493 1.512-.065.033-.164.033-.23.066-.23.23-.427.098-.591-.099a47.422 47.422 0 0 1 -1.183-1.314c.493-.033.986-.1 1.511-.165zm4.865 1.413c-.23-.197-.592-.361-.757-.624-.098-.197.066-.559.066-.822 0-.427.427-.23.592-.427l.788.69a6.738 6.738 0 0 1 -.69 1.183zm7.64 17.878.1.1c-.05 0-.1-.05-.15-.05z"/></g></g></svg>