<svg height="31" viewBox="0 0 152 31" width="152" xmlns="http://www.w3.org/2000/svg" xmlns:xlink="http://www.w3.org/1999/xlink"><mask id="a" fill="#fff"><path d="m30.582 30.784h-30.582v-30.582h30.582z" fill="#fff" fill-rule="evenodd"/></mask><g fill="#fff" fill-rule="nonzero"><path d="m52.417 26.25-.09-2.448c-.048-1.343-.152-4.47-.152-4.47-.06-1.93-.456-3.368-2.375-3.888v-.092c1.614-.643 2.74-2.45 2.74-4.898 0-3.86-1.827-5.634-5.36-5.634h-5.42v21.43h3.47v-8.816h1.676c1.37 0 1.858.827 1.888 2.265l.123 4.408c.027 1.004.028 2.143.028 2.143zm-3.44-14.082c-.03 1.255-.456 2.572-2.1 2.572h-1.647v-6.797h1.676c1.554 0 2.132 1.378 2.102 2.54l-.03 1.685zm102.37 14.083v-3.183h-5.573v-6.368h4.538v-3.185h-4.538v-5.51h5.574v-3.185h-9.046v21.43h9.046zm-11.063 0v-3.183h-5.574v-18.248h-3.472v21.43h9.046zm-15.882 0c2.53 0 4.72-1.836 4.72-6.09 0-2.512-1.247-4.257-2.923-4.84v-.12c1.736-.736 2.802-2.512 2.802-4.87 0-3.98-1.95-5.51-4.904-5.51h-5.878v21.43h6.182zm.975-14.572c-.03 1.53-1.036 2.235-1.95 2.235h-1.766v-5.97h1.707c1.462 0 2.07.704 2.04 2.418l-.03 1.318zm.183 8.878c0 1.715-.7 2.603-2.224 2.603h-1.675v-6.43h1.585c1.462 0 2.315 1.04 2.315 2.448v1.378zm-14.188 5.695c2.528 0 4.72-1.836 4.72-6.09 0-2.512-1.248-4.257-2.923-4.84v-.12c1.735-.736 2.8-2.512 2.8-4.87 0-3.98-1.95-5.51-4.903-5.51h-5.878v21.43h6.182zm.975-14.572c-.03 1.53-1.036 2.235-1.95 2.235h-1.766v-5.97h1.706c1.462 0 2.07.704 2.04 2.418l-.03 1.318zm.182 8.878c0 1.715-.7 2.603-2.224 2.603h-1.675v-6.43h1.584c1.462 0 2.315 1.04 2.315 2.448v1.378zm-15.077 6.092c3.685 0 5.268-2.42 5.268-5.757v-16.073h-3.288v15.98c0 1.35-.335 2.696-1.888 2.696-1.645 0-1.95-1.562-1.95-2.633v-16.043h-3.472v16.318c0 3.705 1.95 5.51 5.33 5.51zm-11.94-.4c2.528 0 4.72-1.836 4.72-6.09 0-2.512-1.248-4.257-2.923-4.84v-.12c1.736-.736 2.802-2.512 2.802-4.87 0-3.98-1.95-5.51-4.903-5.51h-5.88v21.43h6.183zm.975-14.572c-.03 1.53-1.036 2.235-1.95 2.235h-1.766v-5.97h1.705c1.462 0 2.072.704 2.04 2.418l-.03 1.318zm.182 8.878c0 1.715-.7 2.603-2.223 2.603h-1.675v-6.43h1.584c1.462 0 2.314 1.04 2.314 2.448v1.378zm-14.801 5.694c3.167 0 4.934-1.652 4.934-5.142v-11.268c0-3.398-1.797-5.02-5.026-5.02h-5.696v21.43zm1.43-5.295c0 1.347-.425 2.142-2.13 2.142h-1.615v-15.124h1.645c1.705 0 2.132 1.01 2.132 2.143l-.03 10.84zm-18.486 5.295v-21.43h9.047v3.184h-5.574v5.51h4.538v3.186h-4.537v6.367h5.574v3.184h-9.05z"/><path d="m21.194 21.003h-4.076c-.225 0-.408-.183-.408-.41v-10.23c0-.226.183-.41.408-.41h3.78c2.835 0 3.43 1.67 3.43 3.07 0 .81-.215 1.454-.642 1.926 1.04.428 1.6 1.395 1.6 2.794 0 2.04-1.53 3.26-4.092 3.26m-5.918 0h-8.466c-.224 0-.406-.184-.406-.41v-10.23c0-.227.182-.41.407-.41h3.956c2.47 0 3.944 1.33 3.944 3.558 0 1.482-.745 2.646-1.946 3.12l2.817 3.69c.064.073.103.168.103.272 0 .226-.182.41-.407.41m.012-20.803c-8.443.002-15.29 6.848-15.29 15.292 0 8.446 6.846 15.292 15.29 15.292 8.446 0 15.292-6.846 15.292-15.29 0-8.447-6.846-15.294-15.29-15.294" mask="url(#a)" transform="translate(0 .044)"/></g></svg>