<svg height="70" viewBox="0 0 59 70" width="59" xmlns="http://www.w3.org/2000/svg"><g fill="none"><path d="m13.968 19.85h.256c.064.095 0 .127-.032.191-.096 0-.192-.032-.288-.032-.032.032-.064.096-.128.16l.48.096v-.192h.255a1.353 1.353 0 0 0 -.127.384l.255-.128c.032.064.032.16.064.192.096-.032.192-.032.256-.064.256-.192.256-.16.543-.032.352.16.703.32 1.087.128.032-.032.128 0 .192.031.447.096.895.224 1.342.352.32.096.352.096.576-.16a.699.699 0 0 1 .16-.096c.16-.127.351-.096.543-.064.607.032 1.214.032 1.79.096.096 0 .224-.032.32-.032.255.064.543.032.799 0 .255-.032.51.032.735.064.032 0 .032.032.032.032.16-.032.287-.064.415-.064.288 0 .575.032.863.032.256 0 .512.064.767 0 .192-.032.448-.032.64 0 .191.064.351 0 .543 0 .288 0 .543-.128.831 0 .16.064.384.096.543.064.288-.032.576.096.831-.096h.096c.096 0 .16.032.256.032.352 0 .703-.064 1.087-.032.128 0 .287.032.415.064a.649.649 0 0 0 .544-.032c.064-.032.16-.064.191-.032.128.16.256-.032.32 0 .16.064.256 0 .384-.064s.223-.16.415-.095c.32.095.64.191.96.255.127.032.255.096.415.128.127.032.191 0 .223.16.032.064.224.096.256.16.096.191.256.191.384.128.32-.192.703-.192 1.054-.224.032 0 .064 0 .096.032 0 .096.032.16.032.224.096 0 .224 0 .256.031.064.064.032.16.064.256.064 0 .128-.032.16-.032.032.128 0 .288.064.384.128.192.32.351.096.575-.064.064-.064.16-.096.256.032.032.064.032.128.064 0 .032 0 .064.031.096-.415-.16-.543.255-.895.255-.16 0-.32.16-.543.096-.032 0-.096.064-.128.096.16.16-.064.16-.128.192a.933.933 0 0 1 -.287.064.441.441 0 0 0 .096.128c-.192.096-.352.191-.544.223-.16.032-.224.128-.224.16-.095.192-.287.256-.447.352.032.032.064.064.128.16-.288-.032-.448.064-.575.223.063 0 .127.032.255.064-.128.064-.224.096-.32.128.128.16-.063.128-.127.192a.696.696 0 0 1 -.256.16l-.288.096.128.128c-.096.063-.224.127-.224.16.064.255-.16.16-.255.223-.064.256-.064.256-.384.288-.032.128 0 .32-.064.383-.255.16-.16.512-.447.608.128.255-.352.287-.256.543-.16.128-.064.384-.32.448v.031c-.063.32-.16.448-.351.544-.032.064.16.064.032.192-.16.128-.064.415-.288.511-.032 0-.032.064 0 .096.064.128 0 .192-.064.288s-.128.16-.096.287c.032.064-.064.192-.032.256.032.096-.223.032-.096.16 0 0-.095.128-.16.192 0 .032.033.064.033.095 0 .096-.032.192-.064.32 0 .064-.096.096-.096.128-.032.256-.032.224-.128.416-.064.095-.064.191-.096.32-.032.095.032.223-.032.255-.224.256-.128.64-.383.83.127.097.255.16.32.257.159.255.255.543.383.799a.699.699 0 0 0 .096.16c.096.127.191.287.287.415.032.064.064.128.128.192.128.128.256.256.384.351.128.128.223.288.383.384.256.128.544.16.831.064.224-.064.416-.192.64-.256.191-.064.383-.064.575-.128.032 0 .064 0 .064.032.064.064.096.16.16 0 .255 0 .543-.064.799-.032.192.032.255-.032.32-.16.16-.287.287-.543.287-.894 0-.16.032-.384.224-.448.287-.096.48-.288.735-.447.64-.416.48-.448 1.215-.192.32.128.639.287.99.351.384.096.8.096 1.151.064.448-.032.863-.255 1.215-.511.223-.192.48-.288.735-.416.096-.032.192-.064.288-.127v-.096c-.096-.384-.064-.448.32-.576.159-.064.35-.096.51-.191.288-.16.544-.32.896-.288.064 0 .16-.032.255-.064.32-.16.672-.32 1.023-.48.16.096.32.192.512.32.063-.032.191-.064.287-.096.16-.096.32-.096.448 0 .128.128.255.448.16.544-.16.191-.064.383-.064.575 0 .16.064.32.095.447.032.128.096.256.064.384-.032.16.192.384-.064.447 0 .096.032.16.032.256 0 .16.032.32.032.48-.032 0-.095.032-.127.032-.352 0-.448.064-.512.351-.032.128-.032.288-.032.416.032.287-.064.511-.351.639.191.224.095.447.064.64-.096.639-.256 1.278-.352 1.917-.096.543-.16 1.087-.224 1.63-.064.448-.064.895-.128 1.343-.064.447-.032.863-.191 1.31-.032.064-.064.128-.128.16-.096.096.032.16 0 .256s-.096.191-.128.287c-.032.128-.064.224-.096.352-.032.288-.064.575-.064.831-.032.543-.032 1.087-.064 1.63-.032.416-.128.831-.192 1.247-.032.255-.032.511-.128.735-.223.447-.095.895-.16 1.342-.031.352-.031.704-.063 1.055a.984.984 0 0 1 -.096.416c-.064.223-.192.415-.256.607-.064.224-.16.16-.288.096h-.095l.032.032-.16.16-.16-.16a.9.9 0 0 1 .032.256c-.16-.224-.288-.064-.416 0-.128.063-.287.16-.447.063 0 0-.032 0-.064.032 0 .032 0 .096.032.192-.192-.128-.288 0-.448.064-.127.032-.287.16-.447 0a.242.242 0 0 0 -.128-.064s0 .032-.032.032l.096.096a.653.653 0 0 1 -.64-.032c-.031.032-.031.096-.063.128-.192-.064-.416-.128-.608-.192 0 .064 0 .128-.032.192a.454.454 0 0 0 -.191-.064c-.16.032-.288 0-.384-.16-.032-.064-.16-.064-.256-.096v.192c-.127 0-.287-.064-.351 0-.096.096-.224.128-.32.064s-.16-.16-.255-.256c-.096.064-.16.128-.288.224-.096-.096-.192-.192-.288-.32-.064.032-.128.032-.16.096-.064.192-.223.128-.351.096-.288-.064-.544-.16-.831-.224-.032.064-.032.128-.064.224-.16-.128-.288-.224-.416-.351a3.397 3.397 0 0 1 -.351.287.543.543 0 0 0 -.192-.192c-.032 0-.128.064-.192.128-.064-.064-.16-.096-.224-.128 0 0-.032 0-.032-.031h.064c-.032.031-.096.127-.128.127-.255 0-.479.096-.735 0-.128-.032-.32 0-.383-.16-.128.064-.224.16-.352.128-.32-.032-.64.064-.959-.127-.032-.032-.128-.032-.192-.032-.032.191-.223.032-.32.191-.031-.32-.159-.415-.415-.351-.032.064-.064.096-.096.192-.095-.16-.16-.288-.223-.384-.384-.064-.736.192-1.087-.032-.096.224-.224 0-.288.032-.032.064-.032.096-.064.128-.096-.064-.16-.096-.223-.16-.032.064-.032.128-.032.128-.224.096-.416-.032-.608-.096 0 .064-.032.128-.032.224-.096-.128-.16-.192-.191-.256-.16.064-.352-.064-.48.064-.256-.096-.607.128-.831-.16-.032-.032-.096-.032-.16-.032-.096 0-.192.032-.287 0-.288-.064-.544-.16-.832-.256-.031 0-.063-.031-.095-.031-.16.095-.32.095-.448 0a2.15 2.15 0 0 0 -.351.223c-.032-.287-.288-.032-.416-.192-.096.256-.256.448-.447.64-.192.223-.352.32-.608.223-.32-.127-.64-.255-.927-.383-.032 0-.096-.064-.064-.064.064-.256-.16-.288-.287-.352-.288-.16-.512-.32-.672-.607-.032-.064-.095-.096-.16-.128-.255-.128-.51-.287-.767-.383-.479-.16-.735-.544-1.086-.831-.224-.192-.384-.448-.576-.64-.032-.064-.064-.096-.096-.16.096-.031.16-.063.256-.095a.46.46 0 0 1 -.064-.096c.032-.032.096-.064.128-.096-.16-.192.032-.16.128-.224.128-.064.224-.16.32-.224.032-.032-.032-.096-.032-.16.128-.063.223-.127.351-.191 0-.064.032-.128 0-.192-.064-.128.192-.224.032-.352-.16-.16-.192-.415-.415-.543a.573.573 0 0 1 -.224-.16c-.128-.128-.256-.096-.416-.064-.287.064-.479.288-.799.32-.032 0-.032.032-.064.032-.095.064-.191.16-.32.224-.159.064-.319.191-.51.096-.033-.352-.224-.608-.448-.863a1.135 1.135 0 0 1 -.288.127c-.287-.351-.575-.735-.895-1.086-.383-.48-.767-.927-1.15-1.375-.128-.16-.288-.32-.416-.48.096-.223.192-.415.416-.51.127-.065.191-.224.223-.352.032-.064-.064-.192-.128-.256-.16-.096-.351-.128-.415-.352-.32.064-.16-.16-.192-.255-.192.096-.192-.064-.192-.128 0-.544.032-1.087.032-1.63v-3.772c0-.511-.096-.99-.096-1.502-.032-.448 0-.927 0-1.375 0-.16.032-.32.032-.48.064-.383.128-.798.192-1.182.064-.511.16-1.023.224-1.534.064-.384.096-.735.128-1.119.032-.351.096-.735.128-1.087.064-.575.127-1.15.191-1.694.032-.383.064-.735.064-1.118 0-.128.032-.256.032-.384.032-.351.096-.671.128-1.023.032-.223-.064-.48.032-.703.128-.383.064-.767.128-1.15.064-.384 0-.8.032-1.183 0-.192.032-.384.064-.576.32.384.48.16.703.096z" fill="#fd596f"/><path d="m45.005 34.584c.32-.095.607-.191.895-.287.351.287.255.671.287 1.055.128-.032.256-.096.416-.128.223.255.447.511.671.799.032.032.064.096.096.128.288.191.607.351.895.543.256.192.48.416.703.64.352.415.703.862 1.023 1.278.192.256.288.543.447.83.352.512.416 1.088.672 1.631.127.256.287.48.383.735.256.64.448 1.279.48 1.982 0 .032.032.032.064.064v1.95c-.064.255-.128.48-.192.735-.096.383-.16.735-.256 1.119-.16.479-.32.926-.511 1.406-.16.352-.384.671-.544.99-.064.16-.287.257-.415.352a.699.699 0 0 0 -.096.16c-.192.096-.448.16-.544.32-.223.351-.67.256-.926.447-.032.032-.096 0-.16 0h-.16c-.192.128-.384.288-.575.448-.032.032-.096.128-.128.128-.16.032-.192.096-.256.223-.032.096-.096.192-.16.32l-.032.032c-.064-.064-.128-.128-.128-.16-.096.032-.128.064-.191.096h-.096-.032c-.224.128-.512.224-.544.543-.064.064-.096.16-.191.192-.096.064-.192.192-.288.192-.16.032-.32-.032-.512-.064-.063-.096-.16-.192-.16-.32 0-.51 0-.99.033-1.502 0-.16.032-.32.064-.48.127-.543.031-1.086.031-1.63 0-.255-.063-.479-.095-.735-.064-.415-.128-.83-.192-1.278a5.11 5.11 0 0 0 -.16-.671c-.096-.352-.128-.704-.224-1.087h-.447c-.16 0-.256-.096-.256-.224 0-.192.032-.415.032-.64h-.352c-.16 0-.287-.063-.287-.19 0-.289-.064-.576.032-.864.064-.256.032-.511.032-.767.16-.416.128-.863.191-1.31.064-.448.064-.896.128-1.343.064-.543.128-1.087.224-1.63.096-.64.256-1.279.352-1.918.032-.192.128-.447-.064-.64.287-.127.383-.35.351-.638 0-.128 0-.288.032-.416.032-.288.16-.352.512-.352.032-.032.096-.032.128-.064z" fill="#7b7089"/><path d="m46.73 52.324c.065-.032.096-.064.192-.096.032.032.096.096.128.16 0 0 .032 0 .032-.032.064-.096.128-.192.16-.32.032-.127.096-.223.256-.223.032 0 .096-.096.128-.128.191-.16.383-.288.575-.448.032-.032.096 0 .16 0s.128.032.16 0c.287-.191.703-.127.926-.447.096-.16.352-.224.544-.32.064.192.224.224.48.224 0 .16.031.32.031.48v.031c.064.384 0 .544-.287.832-.096.095-.16.191-.224.287-.032.032-.064.128-.096.128-.288.032-.288.32-.448.48s-.351.351-.447.543c-.128.224-.192.447-.288.671 0 .032-.032.096 0 .128.16.32.064.607-.032.927-.096.48-.255.99-.383 1.47-.16.544-.32 1.087-.512 1.63-.064.256-.191.48-.287.704-.32.639-.544 1.31-.96 1.95-.127.191-.191.447-.255.67-.032.064-.032.128-.096.16-.192.256-.351.512-.543.768-.224.32-.48.639-.863.83a3.328 3.328 0 0 0 -.384-.16c-.83.48-1.566.928-2.365 1.343-.895.48-1.822.863-2.78 1.119-.48.128-.96.32-1.471.415-.8.16-1.566.288-2.365.416-.448.064-.927.16-1.375.192-.48.032-.959.032-1.438.032-.576 0-1.15.032-1.726.032h-.128c-.224-.128-.448-.032-.671-.064a16.612 16.612 0 0 0 -1.247-.16c-.128 0-.256 0-.384.032-.479.128-.958.128-1.438.192-1.15.16-2.301.064-3.42.064-.799-.032-1.598-.096-2.397-.224l-1.726-.288c-.544-.096-1.055-.256-1.598-.383-.224-.064-.416-.128-.64-.16-.543-.064-1.054-.288-1.566-.448-.351-.096-.735-.191-1.087-.32-.191-.063-.383-.16-.575-.223-.48-.192-.99-.352-1.502-.543-.192-.064-.384-.16-.512-.352-.511.384-.959.096-1.374-.256-.096.16-.256.256-.224.512a.577.577 0 0 1 -.16.511c-.191.224-.32.512-.447.767-.192.32-.352.671-.544.991-.32.512-.67 1.023-.958 1.534-.16.288-.352.448-.704.384h-.095c-.287.032-.415-.128-.351-.384 0-.032.032-.096.032-.128.128-.383-.128-.67-.288-.958-.096-.224-.224-.416-.351-.64a11.142 11.142 0 0 1 -.704-1.694c-.096-.32-.255-.639-.415-.959-.032-.032-.032-.064-.032-.128 0-.415-.288-.767-.416-1.118-.064-.128-.096-.32-.128-.448-.031-.16-.287-.223-.127-.415l-.288-.384c-.064-.096-.064-.192-.096-.287-.096-.224-.192-.48-.32-.704-.032-.096-.127-.16-.191-.223-.032-.032-.096-.064-.128-.128-.096-.288-.192-.576-.416-.8-.064-.063-.032-.223-.064-.319s-.064-.224-.096-.288c-.191-.287-.127-.543.16-.735.128-.096.352-.16.224-.383v-.032c.288-.256 0-.384-.128-.512a5.7 5.7 0 0 0 -.83-.703c-.097-.064.031-.192-.16-.224-.129-.032-.256-.191-.384-.32-.064-.063-.064-.191-.096-.319-.32-.128-.48-.32-.64-.735-.191-.512-.415-1.023-.607-1.534-.064-.16-.032-.32 0-.48.032-.064.064-.128.096-.128.352-.064.448-.383.735-.543.064-.032.128-.064.224-.096a.069.069 0 0 0 .064-.064c.224-.32.575-.607 1.023-.48.096.033.224 0 .32.065.255.127.447 0 .639-.16.223-.16.383-.32.703-.352.224-.032.447-.192.671-.32.192-.095.32-.191.575-.16.224.033.448-.095.704-.127.128-.032.287-.032.447-.032l.064-.096c.224.096.384-.096.607-.096a.363.363 0 0 0 .256-.096c.16-.064.32-.224.512-.096h.095c.32-.128.608-.287.927-.415.32-.096.672-.16 1.023-.224h.16c.416-.288.959-.192 1.406-.383.192-.096.384-.16.576-.224.223-.064.48-.096.671-.192.352-.128.735-.32 1.087-.48.064-.031.128-.031.192-.063.351-.128.735-.256 1.054-.352.032-.128.032-.192.032-.256.192.096.352-.032.512-.096.128-.064.223-.16.32-.223.031 0 .031-.032.063-.032.32 0 .512-.256.8-.32.16-.032.287-.032.415.064.064.064.16.096.224.16.223.128.255.383.415.543.128.128-.096.224-.032.352.032.064 0 .096 0 .192a3.486 3.486 0 0 1 -.351.191c0 .064.064.16.032.16a.974.974 0 0 1 -.32.224c-.128.064-.288.032-.128.224-.032.032-.096.064-.128.096 0 0 .032.063.064.095-.064.032-.16.064-.256.096.032.064.064.096.096.16-.096.064-.223.16-.32.224l.129.064c-.16.096-.288.192-.224.415.032.16-.16.288-.256.448s-.096.383-.192.575a.385.385 0 0 1 -.16.16c.032.128-.031.256-.031.352 0 .191-.16.351-.16.575-.032.352-.256.64-.288.99-.064.384-.16.768-.352 1.12 0 0 .032.031 0 0 .576.031 1.12.031 1.63.095.608.064 1.215.224 1.822.32.704.128 1.407.224 2.142.32.224.032.448.064.64.096.35.063.703.16 1.086.255l1.247.288c.351.064.703.224 1.054.224.64.032 1.247.191 1.886.32.064 0 .096.031.16.031.224 0 .448 0 .671.032.192.032.384.096.576.096.48-.032.959.096 1.438.032.511-.064 1.023.032 1.534-.032.416-.064.863-.032 1.31-.032.864.032 1.695.064 2.558.192.288.032.543-.064.83-.064.32-.032.608-.128.928-.224s.607-.191.927-.223c.351-.032.671-.128.99-.224.288-.064.576-.16.896-.224.415-.096.799-.192 1.214-.32.32-.095.64-.16.96-.287.255-.096.51-.192.798-.256.384-.096.735-.32 1.087-.447.256-.096.48-.224.767-.288.224-.032.416-.224.607-.32.16.032.352.064.512.064.096 0 .192-.128.288-.192l.191-.191.544-.544h.032c-.032.032 0 .032.032.032z" fill="#c5bccf"/><path d="m15.502 47.082c-.064 0-.128.032-.16 0-.255-.16-.479-.32-.735-.48.032-.063.096-.16.16-.255.096-.032.192-.096.288-.128.256.224.415.512.447.863z" fill="#c5bccf"/><g fill="#41364f"><path d="m34.073.32c.767.16 1.47.447 2.078.895.511.383 1.086.767 1.182 1.406.064.447.032.99-.128 1.406-.383 1.055-1.022 2.014-1.79 2.91-.383.447-.735.894-1.086 1.278.511.255 1.023.511 1.502.799a1.91 1.91 0 0 1 .831 1.854c-.192 1.374-.927 2.493-2.237 3.26-.384.224-.736.447-1.12.671-.19.128-.19.192-.063.384.16.191.224.447.256.703.16.671.032 1.278-.448 1.822a5.168 5.168 0 0 1 -2.876 1.598c-.096.032-.224.096-.288.192-.16.223-.32.447-.512.703.192.032.416.064.608.064l3.612.192c.99.064 1.95.16 2.94.223.16 0 .352-.032.48-.127 1.086-.927 2.141-1.886 3.196-2.813.927-.8 1.886-1.598 2.845-2.366.735-.575 1.534-1.118 2.301-1.662.448-.32.895-.703 1.375-.99.767-.48 1.566-.864 2.333-1.343.383-.224.735-.511 1.119-.767.511-.32 1.054-.575 1.598-.863.287-.16.575-.288.895-.416.511-.255 1.087-.351 1.662-.351.671-.032 1.342-.128 2.046.096.799.287 1.406.703 1.726 1.438.32.671.383 1.406.191 2.11-.127.479-.48.895-.735 1.374-.096.192-.16.447-.32.607-.735.767-1.502 1.503-2.269 2.238l-.671.671c.352.064.64.096.927.16.511.096.799.48.99.799.32.511.544 1.087.544 1.694-.032 1.406-.927 2.365-1.95 3.228-.48.384-1.15.64-1.726.927a.573.573 0 0 0 -.223.16c.767.863.767 1.47.191 2.461-.767 1.279-2.077 1.918-3.516 2.366-.863.287-1.726.479-2.653.479-.032 0-.127.064-.095.096.063.607-.384.927-.832 1.15-.51.288-.799.576-.67 1.151.063.192 0 .448-.065.64-.096.351.192.479.448.639.32.192.607.447.895.671a99.09 99.09 0 0 1 1.886 1.63c.639.575 1.278 1.15 1.822 1.79.511.575.99 1.215 1.31 1.886.48 1.055 1.087 2.046 1.119 3.228 0 .703.16 1.439.096 2.142-.064.671-.288 1.31-.48 1.95-.48 1.534-.927 3.068-1.438 4.602-.352 1.087-.8 2.142-1.183 3.229-.447 1.182-.895 2.333-1.342 3.516a58.05 58.05 0 0 1 -1.023 2.493c-.352.799-.671 1.598-1.15 2.333-.288.416-.8.735-1.28.99a69.974 69.974 0 0 1 -4.155 1.95c-.575.256-1.214.352-1.853.512-.64.16-1.279.288-1.918.416-.895.191-1.758.383-2.653.543-.767.128-1.503.224-2.27.288-.607.032-1.214 0-1.822-.032-.83-.032-1.63-.032-2.46-.064l-2.59-.096c-.351 0-.703-.032-1.023-.064-.575-.064-1.15-.128-1.694-.192-.415-.064-.863-.128-1.278-.192-.96-.16-1.886-.32-2.845-.543a26.544 26.544 0 0 1 -2.27-.671c-.766-.256-1.47-.576-2.237-.863-.32-.128-.671-.16-.99-.288-.384-.128-.768-.256-1.12-.447-.255-.128-.383-.096-.51.16-.129.32-.257.639-.416.958-.16.32-.448.576-.608.863-.383.736-.735 1.47-1.118 2.206-.224.48-.48.927-.736 1.406-.127.224-.543.256-.67.064-.288-.415-.544-.83-.736-1.31-.767-1.854-1.502-3.708-2.27-5.562-.607-1.502-1.214-3.005-1.853-4.507-.288-.735-.608-1.438-.895-2.141l-1.343-3.357c-.096-.223-.223-.415-.287-.67-.032-.097.032-.288.128-.32 1.054-.512 2.11-1.023 3.196-1.439 1.31-.543 2.653-.99 3.995-1.47.991-.352 1.982-.767 2.973-1.119.767-.287 1.534-.511 2.27-.767a34.35 34.35 0 0 0 1.63-.64c-.256-.319-.544-.606-.8-.926-.447-.544-1.054-.991-1.278-1.726-.096-.288-.32-.575-.512-.831-.351-.48-.287-.991-.287-1.502.032-1.343.096-2.685.128-4.06 0-.447-.032-.895 0-1.31 0-.64.064-1.247.095-1.886.032-.64.096-1.31.128-1.95.064-.831.096-1.662.16-2.493.032-.767.064-1.534.16-2.301.128-1.215.256-2.43.447-3.644.128-.863.288-1.726.416-2.621a4.49 4.49 0 0 0 0-.927c-.032-.384.192-.512.543-.544.512-.032 1.087-.128 1.567.032.639.192.639-.255.799-.511.48-.64.927-1.31 1.374-1.982.288-.415.512-.83.8-1.214a102.712 102.712 0 0 1 2.173-3.005c.543-.735 1.086-1.502 1.694-2.205.671-.832 1.374-1.63 2.045-2.462.8-.927 1.599-1.854 2.43-2.78.735-.8 1.534-1.567 2.301-2.302.64-.607 1.31-1.246 1.982-1.822.735-.606 1.565-1.119 2.557-1.31.192.064.447.064.671.064zm4.635 30.557c.224 0 .447-.064.639-.032.8.128 1.566.223 2.365.16 1.47-.128 2.845-.384 3.996-1.31-.64-.097-1.215-.16-1.95-.257.192-.16.256-.255.352-.287.511-.096 1.022-.256 1.534-.288 1.214-.096 2.461.064 3.58-.543.511-.288 1.087-.48 1.63-.736.511-.255.863-.703 1.055-1.214.16-.48.351-.991.48-1.47 0-.064-.257-.256-.32-.224-.864.351-1.758.575-2.75.415 0-.096-.031-.287.065-.351.255-.192.543-.416.83-.544 1.151-.543 2.366-1.022 3.485-1.598a3.85 3.85 0 0 0 1.726-1.694c.32-.543.096-1.087.032-1.63-.128-.671-.576-.99-1.279-.927-.16 0-.32-.032-.48 0-.543 0-1.054.032-1.598.064-.383.032-.799.064-1.246.128.16-.224.288-.48.447-.607.384-.288.831-.512 1.247-.8.671-.415 1.374-.83 1.95-1.31.959-.767 1.758-1.694 2.237-2.78a3.02 3.02 0 0 0 .064-2.302c-.288-.703-1.662-1.183-2.461-.831-.735.32-1.47.67-2.174 1.086-.767.448-1.534.96-2.301 1.407-.511.32-1.023.575-1.502.895-.48.32-.96.64-1.439.99a86.142 86.142 0 0 0 -2.717 2.046c-.607.448-1.214.927-1.821 1.407l-1.535 1.15c-.415.32-.767.736-1.214 1.023-1.055.703-1.79 1.694-2.685 2.525-.448.416-.831.863-1.247 1.279-.64.607-1.31 1.183-1.918 1.822-1.246 1.246-2.46 2.525-3.675 3.772-.576.607-.895 1.31-1.055 2.077a5.982 5.982 0 0 0 -.096 1.854c.064.607.288 1.15.64 1.598.575.671 1.438.8 2.333.735.83-.064 1.31-.639 1.662-1.246.127-.192.287-.448.287-.671 0-.416-.128-.832-.223-1.215-.032-.096-.128-.16-.224-.224-.16-.064-.32-.096-.48-.16-.703-.287-1.374-.383-2.013.16-.256-.256-.32-.48 0-.703.16-.096.255-.256.415-.384.096-.064.224-.16.352-.191.511-.16.959.064 1.438.191.8.192 1.407.64 1.694 1.343.256.575.703.83 1.31.83.48 0 .992.033 1.471-.031 1.183-.128 2.142-.671 2.973-1.406-.32-.064-.608-.128-.927-.16-.448-.032-.991-.384-1.151-.767.16-.032.192-.032.192-.064zm-1.662 25.347v-.032s-.032 0-.032.032h.032c-.544.064-1.055.16-1.599.223-.447.064-.863.192-1.342.16-.607-.064-1.215.096-1.854.128-1.055.032-2.11.064-3.164.032-1.087-.032-2.206-.16-3.292-.288-.991-.127-1.982-.255-2.973-.447-1.023-.16-2.014-.384-3.005-.575-.767-.16-1.502-.32-2.27-.48-.894-.192-1.789-.256-2.588-.703-.096-.064-.192-.256-.16-.352.192-.543.416-1.118.607-1.662.256-.703.512-1.438.736-2.173.223-.608.415-1.183.639-1.79.096-.32.224-.64.32-.895-.192-.032-.416-.128-.448-.096-.16.288-1.47.383-1.822.511-.607.224-1.183.48-1.758.704-.288.095-1.822.703-1.918.67-.096.065-.863.352-1.118.448-.64.224-2.238.64-2.366.672-.48.16-2.077.703-2.429.83-.671.256-1.31.544-1.982.768-.415.16-.863.255-1.342.383.32.671.607 1.279.895 1.886.607 1.31 1.182 2.621 1.758 3.932.383.863.703 1.758 1.023 2.62.575 1.567 1.15 3.101 1.726 4.667.287.735.543 1.47.83 2.238.097-.128.16-.192.224-.288.448-1.023.863-2.014 1.343-3.036.224-.48.48-.96.735-1.439.032-.032.096-.032.16-.064.383-.128.671.128.99.224.16.032.288.096.416.16.224.096.416.224.608.287.191.064.415.128.607.192.16.064.32.16.48.224.191.064.415.128.639.192.191.064.351.16.543.224.384.095.767.191 1.119.32.32.095.639.255.99.35.256.065.544.097.832.16.67.16 1.342.352 2.013.512.895.192 1.758.352 2.653.511.831.128 1.662.256 2.493.32s1.694 0 2.526 0c1.022 0 2.013.032 3.036 0 .831-.032 1.662-.16 2.525-.256.927-.128 1.886-.255 2.813-.383.384-.064.767-.032 1.119-.128.83-.192 1.63-.448 2.493-.575 1.182-.224 2.205-.831 3.292-1.279.575-.224 1.087-.511 1.63-.831.576-.352 1.15-.703 1.375-1.406.32-1.023.767-2.014 1.182-3.005.32-.767.703-1.502 1.023-2.27.544-1.31 1.055-2.62 1.566-3.93.192-.512.384-1.056.576-1.6-.288.16-.448.416-.672.576-.703.48-1.374.991-2.141 1.439-.831.447-1.694.83-2.557 1.214-.607.256-1.215.48-1.822.703-.543.192-1.119.384-1.662.512-.448.096-.863.351-1.375.256-.191-.032-.415.223-.639.255-.863.192-1.534.32-2.237.448zm-5.786-46.667c.256-.224.544-.447.8-.671.67-.64 1.342-1.279 1.95-1.982.83-.927 1.63-1.854 1.949-3.068.128-.512.256-1.023.032-1.503-.224-.543-.671-.927-1.31-1.086-.8-.224-1.567-.288-2.238.223-.64.48-1.247 1.023-1.79 1.598a146.25 146.25 0 0 0 -3.1 3.197c-.96 1.023-1.95 2.014-2.91 3.036-.575.608-1.118 1.183-1.63 1.822-.447.544-.862 1.151-1.278 1.726a191.833 191.833 0 0 0 -2.237 3.165c-.352.511-.608 1.054-.927 1.566-.48.767-1.023 1.502-1.503 2.27.704.031 1.407.095 2.078.127 1.055.064 2.078.128 3.133.128.926.032 1.821 0 2.748-.032.895-.032 1.822.224 2.653-.288.16-.096.384-.16.544-.255a7.433 7.433 0 0 1 -2.717-.704c.32-.031.575-.031.83-.063.704-.064 1.407-.064 2.079-.192.67-.096 1.342-.224 1.981-.448.735-.287 1.375-.703 1.758-1.374.16-.256.352-.64.256-.831-.16-.256-.575-.416-.895-.544-.607-.191-1.215 0-1.822-.032-.415-.031-.799-.063-1.215-.127.064-.544.544-.384.832-.448 1.726-.383 3.42-.863 4.794-1.982.607-.48 1.215-.927 1.374-1.726.16-.767-.095-1.374-.895-1.534-.479-.128-.99-.16-1.47-.16-.64.032-1.246.128-1.854.192zm-10.74 41.329v-1.343c.033-1.502.096-2.972.128-4.475l.096-3.132c.032-.703.096-1.438.16-2.141l.192-2.174c.096-1.15.224-2.333.32-3.484.095-.895.223-1.822.32-2.717.031-.288.223-.607-.065-.927-.99-1.087-1.918-2.173-2.908-3.26-.608-.671-1.215-1.343-1.854-1.982-.544-.575-1.119-1.087-1.662-1.662-.384-.384-.736-.767-1.12-1.183-.095.64-.223 1.247-.255 1.854-.064.672-.032 1.375-.096 2.046-.064 1.247-.16 2.525-.255 3.772a54.072 54.072 0 0 0 -.128 2.333c-.064.671-.16 1.342-.192 2.046-.032.99-.064 1.981-.064 2.972-.032 1.279-.032 2.557-.032 3.804 0 .447-.032.863 0 1.31 0 .128.032.256.096.352.543.735 1.055 1.438 1.63 2.142.256.32.99 1.118 1.215 1.086.128-.032.287-.096.415-.128.448-.16 1.854 0 2.334.256.16.096-.544 1.79-.768 2.493.8.703 1.503 1.503 2.494 2.142zm4.667-8.598c-.895 2.972-1.79 5.945-2.717 8.981.608 0 1.215-.032 1.822 0 1.023.032 2.014.096 3.037.16l2.557.192c.351.032.703.032 1.023.032 1.086.032 2.173.032 3.292.096.927.032 1.886.16 2.813.16.735 0 1.502-.096 2.237-.16.544-.032 1.087 0 1.63-.032.064 0 .192-.128.192-.224 0-.224-.064-.415-.128-.64-.16-.99-.32-2.013-.48-3.004-.127-.99-.223-1.981-.35-3.004-.065-.608-.129-1.215-.193-1.726-.223.128-.447.383-.703.415-.415.032-.863-.064-1.278-.096-.672-.032-1.375-.032-2.046-.064-.607-.032-1.183-.095-1.79-.095-.735-.032-1.502 0-2.237-.032a77.384 77.384 0 0 1 -2.717-.16l-1.598-.096c-.32-.032-.64-.064-.991-.128-.32-.032-.64-.064-.96-.128-.223-.032-.319-.192-.095-.351-.128-.064-.224-.064-.32-.096zm16.461-9.973c-.255.543-.767.927-1.374 1.119-.767.255-1.566.48-2.397.607-.927.128-1.854.064-2.717-.288-.16 1.023-.735 1.758-1.758 2.174-.32.128-.671.128-.96.256-.67.287-1.405.287-1.98.032-.736-.352-1.471-.895-1.983-1.503-.383-.447-.447-1.15-.575-1.758-.16-.703-.064-1.406.192-2.11-1.662-.095-3.324-.16-5.05-.255.096.128.191.256.223.352.256.83.512 1.63.768 2.46.447 1.567.83 3.133 1.246 4.731l.959 3.74c.032.064.16.16.256.16.511 0 .99-.064 1.502-.064 1.183 0 2.397.032 3.58.064.511 0 1.055 0 1.566.032 1.023.032 2.014.128 3.037.16.48.032.99 0 1.47 0 .384 0 .735-.032 1.119-.064.064 0 .191-.064.223-.128.288-.511.576-1.055.863-1.566.224-.384.416-.767.608-1.183.447-.863.895-1.726 1.31-2.589.352-.703.64-1.438.96-2.141.159-.352.319-.736.479-1.087.255-.512.511-.991.735-1.47-.735.127-1.503.223-2.302.32zm-27.105-11.347.863.863 2.206 2.301c.64.64 1.278 1.247 1.886 1.918.767.831 1.438 1.758 2.205 2.59.224.255.288.67.863.639 1.15-.032 2.302.095 3.452.127.735.032 1.47.096 2.238.128.191 0 .511.032.607-.096.575-.703 1.087-1.438 1.694-2.141a85.33 85.33 0 0 1 2.238-2.557c.447-.48.926-.96 1.406-1.407.511-.511 1.055-.99 1.63-1.502-.99-.064-1.886-.16-2.78-.192-.928-.064-1.855-.096-2.814-.16-1.214-.063-2.429-.16-3.643-.191-1.343-.032-2.685-.032-4.06-.064-.99-.032-1.95-.096-2.908-.16-.768-.032-1.535-.096-2.302-.128-.959 0-1.886.032-2.78.032zm31.389 31.356c.063-.032.16-.064.223-.096.767-.511 1.503-.99 2.27-1.502.48-.32.959-.64 1.214-1.183.384-.735.863-1.406 1.183-2.173.32-.735.511-1.534.64-2.302.127-.703.159-1.406.063-2.11-.096-.702-.351-1.405-.64-2.077-.319-.735-.638-1.502-1.118-2.11-.671-.83-1.502-1.534-2.27-2.269a11.413 11.413 0 0 0 -1.374-1.086c-.32-.224-.67-.384-1.055-.608-.127 1.055-.223 2.046-.351 3.037-.192 1.374-.416 2.717-.64 4.06a56.845 56.845 0 0 0 -.319 2.3c0 .096.032.192.096.288.288.32.64.575.83.927.353.64.64 1.31.896 1.982.383 1.023.48 2.077.511 3.132.032.608-.096 1.183-.16 1.79zm-2.174-6.872c-.032 0-.096.032-.128.032-.064.288-.128.543-.16.831-.096.8-.191 1.566-.287 2.365-.16 1.279-.352 2.557-.512 3.836-.032.32-.192.48-.511.511-.703.032-1.375.032-2.078.064-.511 0-1.055-.064-1.566.032-1.023.192-2.046.032-3.069 0-.575 0-1.15-.096-1.726-.128-.99-.032-1.981-.063-2.972-.127-.895-.032-1.758-.128-2.653-.192l-4.028-.192c-.543-.032-1.054-.096-1.566-.096-.415 0-.83.064-1.214.032-.288-.032-.64-.096-.831-.256-.48-.383-.831-.83-1.279-1.246-.128-.128-.192-.32-.48-.384-.351-.096-.607-.48-.926-.735l-.384 1.15c-.256.768-.543 1.535-.799 2.27-.16.448-.096.544.448.544.095 0 .16 0 .255.032.64.16 1.247.351 1.886.51.64.16 1.279.257 1.918.353 1.31.223 2.62.51 3.931.67 1.31.193 2.653.32 3.964.448 1.214.128 2.43.224 3.644.064.799-.096 1.63-.128 2.429-.256 1.055-.16 2.11-.383 3.164-.575.544-.096 1.055-.256 1.598-.415.672-.192 1.375-.352 2.046-.576.8-.255 1.598-.575 2.397-.863.224-.096.576-.192.608-.351.128-.512.128-1.023.16-1.567.031-.895.063-1.79-.192-2.684-.48-.991-.8-2.046-1.087-3.1zm-21.959 4.411c-.032.032.032.032 0 0 .32-.895.607-1.79.895-2.717.32-1.119.64-2.205.959-3.324.256-.8.48-1.63.8-2.397.223-.544.383-1.055.063-1.599-.032-.031 0-.095 0-.127-.192-.831-.416-1.662-.607-2.462l-.576-2.493c-.128-.48-.223-.99-.32-1.47-.127.384-.16.767-.191 1.15a92.94 92.94 0 0 1 -.224 2.973c-.096 1.15-.287 2.302-.383 3.42-.096 1.31-.128 2.59-.192 3.9-.032.607-.032 1.215-.064 1.822-.096 1.119-.128 2.237-.16 3.324zm19.817-1.758h.032c.704-4.379 1.407-8.758 2.11-13.233-.064.128-.128.16-.128.192-.383.895-.735 1.79-1.15 2.685-.48 1.023-.991 2.046-1.503 3.068-.128.256-.288.544-.256.8.064.639.224 1.278.288 1.885.224 1.566.416 3.069.607 4.603zm-32.666 1.79.032.032.032-.032-.032-.032c-.032 0-.032.032-.032.032z"/><path d="m38.748 31.013c-.1-.05-.15-.05-.2-.1 0 0 0-.05.05-.1l.3.15c-.1 0-.15 0-.15.05z"/></g></g></svg>