<svg xmlns="http://www.w3.org/2000/svg" viewBox="0 0 728 90"><defs><clipPath id="a"><path fill="none" d="M577.07 9.72h151.54v117.1H577.07z"/></clipPath></defs><g data-name="Layer 2"><path d="M0 0h728v90H0z"/><path d="M12.94 17.07h10.53a6.49 6.49 0 0 1 3.13.71 4.86 4.86 0 0 1 2 1.86 5 5 0 0 1 .66 2.53 4.72 4.72 0 0 1-1 3.06 4.15 4.15 0 0 1-2.46 1.53 4.18 4.18 0 0 1 2.73 1.65 5.14 5.14 0 0 1 1.11 3.27 5.25 5.25 0 0 1-1.53 3.87 5.8 5.8 0 0 1-4.29 1.53H12.94zm9.6 8a2.34 2.34 0 0 0 1.71-.61 2.15 2.15 0 0 0 .63-1.61 2.1 2.1 0 0 0-.65-1.56 2.31 2.31 0 0 0-1.69-.63H17.2v4.41zm.15 8.34a2.66 2.66 0 0 0 1.89-.64 2.26 2.26 0 0 0 .69-1.73 2.23 2.23 0 0 0-.69-1.66 2.59 2.59 0 0 0-1.89-.68H17.2v4.71zM33.77 36.47a4 4 0 0 1-1-3v-16.4h3.81v15.42a1.77 1.77 0 0 0 .36 1.14 1.17 1.17 0 0 0 1 .45 2.45 2.45 0 0 0 .78-.12 1.11 1.11 0 0 0 .51-.3l.77 2.88a4.63 4.63 0 0 1-3.15.93 4.22 4.22 0 0 1-3.08-1zM51.64 35.22a5.91 5.91 0 0 1-2 1.67 5.38 5.38 0 0 1-2.47.58 6.19 6.19 0 0 1-3.3-.9 6.06 6.06 0 0 1-2.3-2.57 9.39 9.39 0 0 1-.82-4.09 9.28 9.28 0 0 1 .82-4 6.22 6.22 0 0 1 2.28-2.66 6 6 0 0 1 3.32-.94 5.58 5.58 0 0 1 2.46.57 5.68 5.68 0 0 1 2 1.65v-1.94h3.84v14.49h-3.83zm0-7.91a3.56 3.56 0 0 0-1.41-1.19 4.19 4.19 0 0 0-1.89-.47 3.36 3.36 0 0 0-2.64 1.16 4.47 4.47 0 0 0-1 3.06 4.47 4.47 0 0 0 1 3 3.34 3.34 0 0 0 2.64 1.17 4.18 4.18 0 0 0 1.89-.46 3.56 3.56 0 0 0 1.41-1.19zM59.32 25.92a7 7 0 0 1 2.73-2.71 8 8 0 0 1 4-1 7.58 7.58 0 0 1 3.48.74 6.07 6.07 0 0 1 2.25 1.87l-2.49 2.34a3.46 3.46 0 0 0-3.06-1.56 3.75 3.75 0 0 0-2.84 1.16 4.28 4.28 0 0 0-1.09 3.06 4.32 4.32 0 0 0 1.09 3.07 3.81 3.81 0 0 0 5.9-.39l2.49 2.31a6.26 6.26 0 0 1-2.24 1.89 7.41 7.41 0 0 1-3.49.75 8 8 0 0 1-4-1 7.11 7.11 0 0 1-2.73-2.71 8.32 8.32 0 0 1 0-7.87zM79.78 31.5L78 33.36v3.72h-3.77v-20H78V29l5.49-6.45h4.68l-5.73 6.57 5.91 7.92h-4.73zM98.05 17.07h14.15v3.66h-9.89v4.35H112v3.66h-9.68v8.34h-4.27zM115.08 22.59h3.82v2a6.27 6.27 0 0 1 2-1.66 5.35 5.35 0 0 1 2.58-.68V26a5 5 0 0 0-1.06-.12 4.86 4.86 0 0 0-2 .49 3.31 3.31 0 0 0-1.53 1.17v9.59h-3.82zM126.17 19.79a2.21 2.21 0 0 1-.68-1.61 2.32 2.32 0 0 1 2.28-2.28 2.29 2.29 0 0 1 1.63 3.89 2.21 2.21 0 0 1-1.63.67 2.18 2.18 0 0 1-1.6-.67zm-.29 2.8h3.81v14.49h-3.81zM143.43 35.22a5.87 5.87 0 0 1-2 1.67 5.42 5.42 0 0 1-2.48.58 6.19 6.19 0 0 1-3.3-.9 6 6 0 0 1-2.28-2.57 9.38 9.38 0 0 1-.83-4.09 9.28 9.28 0 0 1 .83-4 6.22 6.22 0 0 1 2.28-2.66 5.93 5.93 0 0 1 3.31-.94 5.55 5.55 0 0 1 2.46.57 5.68 5.68 0 0 1 2 1.65v-7.46h3.84v20h-3.84zm0-7.94a3.56 3.56 0 0 0-1.43-1.19 4.19 4.19 0 0 0-1.89-.47 3.35 3.35 0 0 0-2.64 1.18 4.5 4.5 0 0 0-1 3.07 4.47 4.47 0 0 0 1 3 3.34 3.34 0 0 0 2.64 1.17 4.18 4.18 0 0 0 1.89-.46 3.56 3.56 0 0 0 1.41-1.19zM161 35.22a5.87 5.87 0 0 1-2 1.67 5.42 5.42 0 0 1-2.48.58 6.19 6.19 0 0 1-3.3-.9A6 6 0 0 1 151 34a9.38 9.38 0 0 1-.83-4.09 9.28 9.28 0 0 1 .83-4 6.22 6.22 0 0 1 2.28-2.66 5.93 5.93 0 0 1 3.31-.94 5.55 5.55 0 0 1 2.46.57 5.68 5.68 0 0 1 2 1.65v-1.94h3.84v14.49H161zm0-7.91a3.56 3.56 0 0 0-1.41-1.19 4.19 4.19 0 0 0-1.89-.47 3.36 3.36 0 0 0-2.64 1.16 4.47 4.47 0 0 0-1 3.06 4.47 4.47 0 0 0 1 3 3.34 3.34 0 0 0 2.64 1.17 4.18 4.18 0 0 0 1.89-.46 3.56 3.56 0 0 0 1.41-1.15zM170.16 38a4.59 4.59 0 0 0 1.92 1.35 6.71 6.71 0 0 0 2.43.45 4.08 4.08 0 0 0 2.89-1 3.64 3.64 0 0 0 1-2.76v-1.5a6.85 6.85 0 0 1-2.14 1.56 6.73 6.73 0 0 1-3 .63 4.69 4.69 0 0 1-3.51-1.2 4.61 4.61 0 0 1-1.17-3.36v-9.58h3.81v8.16a2.65 2.65 0 0 0 .69 2.06 2.88 2.88 0 0 0 2 .61 3.85 3.85 0 0 0 1.89-.48 4.55 4.55 0 0 0 1.41-1.17v-9.18h3.82v13.35a6.56 6.56 0 0 1-2.09 5.18 8.19 8.19 0 0 1-5.6 1.88 8.86 8.86 0 0 1-6.06-2.16zM203.64 35.22a5.87 5.87 0 0 1-2 1.67 5.42 5.42 0 0 1-2.48.58 6.19 6.19 0 0 1-3.3-.9 6 6 0 0 1-2.28-2.57 9.38 9.38 0 0 1-.83-4.09 9.28 9.28 0 0 1 .83-4 6.22 6.22 0 0 1 2.28-2.66 5.93 5.93 0 0 1 3.31-.94 5.55 5.55 0 0 1 2.46.57 5.68 5.68 0 0 1 2 1.65v-7.46h3.84v20h-3.84zm0-7.94a3.56 3.56 0 0 0-1.41-1.19 4.19 4.19 0 0 0-1.89-.47 3.35 3.35 0 0 0-2.64 1.18 4.5 4.5 0 0 0-1 3.07 4.47 4.47 0 0 0 1 3 3.34 3.34 0 0 0 2.64 1.17 4.18 4.18 0 0 0 1.89-.46 3.56 3.56 0 0 0 1.41-1.19zM211.29 26a7.2 7.2 0 0 1 2.71-2.74 7.32 7.32 0 0 1 3.87-1 7.12 7.12 0 0 1 3.78 1 6.82 6.82 0 0 1 2.57 2.82 9.08 9.08 0 0 1 .91 4.15v.84h-10.81a3.75 3.75 0 0 0 1.29 2.43 4.25 4.25 0 0 0 2.88 1 6.15 6.15 0 0 0 2.12-.39 5 5 0 0 0 1.75-1l1.64 2.35a7.2 7.2 0 0 1-2.6 1.54 10.55 10.55 0 0 1-3.33.52 8.27 8.27 0 0 1-4-.94 6.94 6.94 0 0 1-2.77-2.68 7.83 7.83 0 0 1-1-4 7.75 7.75 0 0 1 .99-3.9zm4 .23a3.9 3.9 0 0 0-1.05 2.23h7.14a3.66 3.66 0 0 0-1-2.22 3.31 3.31 0 0 0-2.6-1 3.26 3.26 0 0 0-2.47 1zM237.81 35.22a5.87 5.87 0 0 1-2 1.67 5.42 5.42 0 0 1-2.48.58 6.19 6.19 0 0 1-3.3-.9 6 6 0 0 1-2.28-2.57 9.38 9.38 0 0 1-.83-4.09 9.28 9.28 0 0 1 .83-4 6.22 6.22 0 0 1 2.25-2.74 5.93 5.93 0 0 1 3.31-.94 5.55 5.55 0 0 1 2.46.57 5.68 5.68 0 0 1 2 1.65v-1.86h3.84v14.49h-3.84zm0-7.91a3.56 3.56 0 0 0-1.41-1.19 4.19 4.19 0 0 0-1.89-.47 3.36 3.36 0 0 0-2.64 1.16 4.47 4.47 0 0 0-1 3.06 4.47 4.47 0 0 0 1 3 3.34 3.34 0 0 0 2.64 1.17 4.18 4.18 0 0 0 1.89-.46 3.56 3.56 0 0 0 1.41-1.19zM246.47 36.47a4 4 0 0 1-1-3v-16.4h3.81v15.42a1.77 1.77 0 0 0 .36 1.14 1.17 1.17 0 0 0 1 .45 2.45 2.45 0 0 0 .78-.12 1.11 1.11 0 0 0 .51-.3l.81 2.88a4.63 4.63 0 0 1-3.15.93 4.19 4.19 0 0 1-3.12-1zM254.76 32.55a7.65 7.65 0 0 0 2.24 1.38 7.11 7.11 0 0 0 2.73.6 3.44 3.44 0 0 0 1.82-.39 1.23 1.23 0 0 0 .61-1.09 1.15 1.15 0 0 0-.72-1.06 9.79 9.79 0 0 0-2.19-.67 21.46 21.46 0 0 1-2.88-.72 4.72 4.72 0 0 1-2-1.3 3.58 3.58 0 0 1-.84-2.51 4 4 0 0 1 .71-2.28 4.76 4.76 0 0 1 2.05-1.66 7.61 7.61 0 0 1 3.18-.62 9.12 9.12 0 0 1 5.85 2l-1.53 2.61a5.34 5.34 0 0 0-1.84-1.2 6.33 6.33 0 0 0-2.45-.48 3.27 3.27 0 0 0-1.66.36 1.11 1.11 0 0 0-.62 1 1 1 0 0 0 .68 1 10.37 10.37 0 0 0 2.08.61 19.45 19.45 0 0 1 2.91.76 5 5 0 0 1 2 1.38 3.77 3.77 0 0 1 .87 2.62 4.11 4.11 0 0 1-.73 2.39 4.81 4.81 0 0 1-2.03 1.59 8.69 8.69 0 0 1-3.38.6 10.9 10.9 0 0 1-3.61-.6 8.11 8.11 0 0 1-2.87-1.65zM13.24 62.55a7.65 7.65 0 0 0 2.28 1.38 7.11 7.11 0 0 0 2.73.6 3.4 3.4 0 0 0 1.81-.39 1.24 1.24 0 0 0 .62-1.09A1.15 1.15 0 0 0 20 62a9.79 9.79 0 0 0-2.19-.67 21.46 21.46 0 0 1-2.88-.72 4.72 4.72 0 0 1-2-1.3 3.58 3.58 0 0 1-.84-2.51 4 4 0 0 1 .7-2.28 4.79 4.79 0 0 1 2.06-1.66 7.61 7.61 0 0 1 3.15-.63 9.12 9.12 0 0 1 5.85 2l-1.53 2.61a5.39 5.39 0 0 0-1.85-1.2 6.28 6.28 0 0 0-2.47-.5 3.31 3.31 0 0 0-1.67.36 1.1 1.1 0 0 0-.61 1 1 1 0 0 0 .67.95 10.51 10.51 0 0 0 2.09.61 19.45 19.45 0 0 1 2.91.76 5 5 0 0 1 2 1.38 3.77 3.77 0 0 1 .87 2.62 4.12 4.12 0 0 1-.74 2.39 4.81 4.81 0 0 1-2.16 1.67 8.64 8.64 0 0 1-3.37.6 11 11 0 0 1-3.62-.6 8.06 8.06 0 0 1-2.86-1.65zM29 66.45a3.92 3.92 0 0 1-1.05-3v-7.53h-2.4v-3.33h2.4v-4h3.84v4h2.94v3.33h-2.98v6.57a1.77 1.77 0 0 0 .36 1.14 1.17 1.17 0 0 0 1 .45 2.45 2.45 0 0 0 .78-.12 1.37 1.37 0 0 0 .54-.3l.81 2.88a4.68 4.68 0 0 1-3.18.93A4.22 4.22 0 0 1 29 66.45zM47.26 65.22a5.91 5.91 0 0 1-2 1.67 5.38 5.38 0 0 1-2.47.58 6.19 6.19 0 0 1-3.3-.9 6.06 6.06 0 0 1-2.3-2.57 10.49 10.49 0 0 1 0-8.13 6.22 6.22 0 0 1 2.28-2.66 6 6 0 0 1 3.32-.94 5.55 5.55 0 0 1 2.46.57 5.68 5.68 0 0 1 2 1.65v-1.9h3.85v14.49h-3.84zm0-7.91a3.56 3.56 0 0 0-1.41-1.19 4.19 4.19 0 0 0-1.85-.47 3.36 3.36 0 0 0-2.64 1.16 5.07 5.07 0 0 0 0 6.1A3.34 3.34 0 0 0 44 64.08a4.18 4.18 0 0 0 1.89-.46 3.56 3.56 0 0 0 1.41-1.19zM54.88 52.59h3.81v2a6.38 6.38 0 0 1 2-1.66 5.41 5.41 0 0 1 2.58-.68V56a4.83 4.83 0 0 0-1.05-.12 5.06 5.06 0 0 0-2 .49 3.41 3.41 0 0 0-1.53 1.17v9.59h-3.81zM67.48 66.45a3.88 3.88 0 0 1-1-3v-7.53H64v-3.33h2.4v-4h3.84v4h2.94v3.33h-2.91v6.57a1.77 1.77 0 0 0 .36 1.14 1.17 1.17 0 0 0 1 .45 2.45 2.45 0 0 0 .78-.12 1.37 1.37 0 0 0 .54-.3l.81 2.88a4.68 4.68 0 0 1-3.18.93 4.22 4.22 0 0 1-3.1-1.02zM85.3 66.45a3.89 3.89 0 0 1-1.06-3v-7.53h-2.39v-3.33h2.39v-4h3.85v4H91v3.33h-2.91v6.57a1.76 1.76 0 0 0 .35 1.14 1.18 1.18 0 0 0 1 .45 2.52 2.52 0 0 0 .79-.12 1.44 1.44 0 0 0 .54-.3l.8 2.88a4.68 4.68 0 0 1-3.18.93 4.19 4.19 0 0 1-3.09-1.02zM103.44 58.26a2.59 2.59 0 0 0-.69-2 3 3 0 0 0-2-.6 3.76 3.76 0 0 0-1.89.5 4.52 4.52 0 0 0-1.41 1.21v9.75h-3.82v-20h3.81v7.41a6.45 6.45 0 0 1 2.12-1.59 6.62 6.62 0 0 1 3-.66 4.76 4.76 0 0 1 3.53 1.2 4.57 4.57 0 0 1 1.18 3.36v10.24h-3.81zM111.32 49.79a2.21 2.21 0 0 1-.68-1.61 2.28 2.28 0 1 1 4.56 0 2.23 2.23 0 0 1-.66 1.61 2.27 2.27 0 0 1-3.22 0zm-.29 2.8h3.81v14.49H111zM119 62.55a7.65 7.65 0 0 0 2.28 1.38 7.11 7.11 0 0 0 2.73.6 3.44 3.44 0 0 0 1.82-.39 1.23 1.23 0 0 0 .61-1.09 1.15 1.15 0 0 0-.72-1.06 9.79 9.79 0 0 0-2.19-.67 21.46 21.46 0 0 1-2.88-.72 4.72 4.72 0 0 1-2-1.3 3.58 3.58 0 0 1-.84-2.51 4 4 0 0 1 .71-2.28 4.76 4.76 0 0 1 2-1.66 7.61 7.61 0 0 1 3.18-.62 9.12 9.12 0 0 1 5.85 2l-1.53 2.61a5.34 5.34 0 0 0-1.84-1.2 6.33 6.33 0 0 0-2.45-.48 3.27 3.27 0 0 0-1.66.36 1.11 1.11 0 0 0-.62 1 1 1 0 0 0 .68.95 10.37 10.37 0 0 0 2.08.61 19.45 19.45 0 0 1 2.91.76 5 5 0 0 1 2 1.38 3.77 3.77 0 0 1 .87 2.62 4.11 4.11 0 0 1-.73 2.39 4.81 4.81 0 0 1-2.16 1.67 8.69 8.69 0 0 1-3.38.6 10.9 10.9 0 0 1-3.61-.6 8.11 8.11 0 0 1-2.87-1.65zM150.27 57.21l-3.06 9.87h-4.08l-4.41-14.49h4l2.7 9.75 3.18-9.75h3.4l3.18 9.75 2.7-9.75h4l-4.41 14.49h-4zM163.71 56a7.2 7.2 0 0 1 2.67-2.75 7.41 7.41 0 0 1 3.87-1 7.12 7.12 0 0 1 3.78 1 6.82 6.82 0 0 1 2.57 2.82 9.08 9.08 0 0 1 .91 4.15v.84h-10.77a3.75 3.75 0 0 0 1.26 2.42 4.25 4.25 0 0 0 2.88 1 6.15 6.15 0 0 0 2.12-.39 5 5 0 0 0 1.75-1l1.68 2.46a7.2 7.2 0 0 1-2.61 1.45 10.55 10.55 0 0 1-3.33.52 8.27 8.27 0 0 1-4-.94 6.94 6.94 0 0 1-2.77-2.68 7.83 7.83 0 0 1-1-4 7.75 7.75 0 0 1 .99-3.9zm4 .23a3.9 3.9 0 0 0-1 2.23h7.14a3.66 3.66 0 0 0-1-2.22 3.31 3.31 0 0 0-2.6-1 3.26 3.26 0 0 0-2.52 1zM180.3 56a7.2 7.2 0 0 1 2.7-2.74 7.41 7.41 0 0 1 3.87-1 7.12 7.12 0 0 1 3.78 1 6.82 6.82 0 0 1 2.57 2.82 9.08 9.08 0 0 1 .91 4.15v.84h-10.8a3.75 3.75 0 0 0 1.29 2.43 4.25 4.25 0 0 0 2.88 1 6.15 6.15 0 0 0 2.12-.39 5 5 0 0 0 1.75-1l1.68 2.46a7.2 7.2 0 0 1-2.64 1.43 10.55 10.55 0 0 1-3.33.52 8.27 8.27 0 0 1-4-.94 6.94 6.94 0 0 1-2.77-2.68 7.83 7.83 0 0 1-1-4 7.75 7.75 0 0 1 .99-3.9zm4 .23a3.9 3.9 0 0 0-1 2.23h7.14a3.66 3.66 0 0 0-1-2.22 3.31 3.31 0 0 0-2.6-1 3.26 3.26 0 0 0-2.52 1zM202.41 61.5l-1.74 1.86v3.72h-3.81v-20h3.81V59l5.49-6.45h4.68l-5.73 6.57 5.89 7.96h-4.77zM212.31 56a7.2 7.2 0 0 1 2.69-2.74 7.41 7.41 0 0 1 3.87-1 7.12 7.12 0 0 1 3.78 1 6.82 6.82 0 0 1 2.57 2.82 9.08 9.08 0 0 1 .91 4.15v.84h-10.79a3.75 3.75 0 0 0 1.29 2.43 4.25 4.25 0 0 0 2.88 1 6.15 6.15 0 0 0 2.12-.39 5 5 0 0 0 1.75-1l1.68 2.46a7.2 7.2 0 0 1-2.64 1.43 10.55 10.55 0 0 1-3.33.52 8.27 8.27 0 0 1-4-.94 6.94 6.94 0 0 1-2.77-2.68 7.83 7.83 0 0 1-1-4 7.75 7.75 0 0 1 .99-3.9zm4 .23a3.9 3.9 0 0 0-1.05 2.23h7.14a3.66 3.66 0 0 0-1-2.22 3.31 3.31 0 0 0-2.6-1 3.26 3.26 0 0 0-2.47 1zM238.65 58.32a2.69 2.69 0 0 0-.69-2.07 2.84 2.84 0 0 0-2-.63 3.72 3.72 0 0 0-1.9.5 4.6 4.6 0 0 0-1.4 1.21v9.75h-3.81V52.59h3.81v1.89a6.46 6.46 0 0 1 2.1-1.59 6.55 6.55 0 0 1 3-.66 4.21 4.21 0 0 1 4.71 4.62v10.23h-3.81zM256.2 65.22a5.87 5.87 0 0 1-2 1.67 5.42 5.42 0 0 1-2.48.58 6.19 6.19 0 0 1-3.3-.9 6 6 0 0 1-2.28-2.57 10.37 10.37 0 0 1 0-8.13 6.22 6.22 0 0 1 2.28-2.66 5.93 5.93 0 0 1 3.31-.94 5.55 5.55 0 0 1 2.46.57 5.68 5.68 0 0 1 2 1.65v-7.42H260v20h-3.8zm0-7.94a3.56 3.56 0 0 0-1.41-1.19 4.19 4.19 0 0 0-1.89-.47 3.35 3.35 0 0 0-2.64 1.18 5.08 5.08 0 0 0 0 6.11 3.34 3.34 0 0 0 2.64 1.17 4.18 4.18 0 0 0 1.89-.46 3.56 3.56 0 0 0 1.41-1.19zM264.08 63.27a2.28 2.28 0 0 1 1.69-.72A2.46 2.46 0 0 1 268.2 65a2.3 2.3 0 0 1-.72 1.68 2.34 2.34 0 0 1-1.71.72 2.28 2.28 0 0 1-1.69-.72 2.33 2.33 0 0 1-.71-1.68 2.37 2.37 0 0 1 .71-1.73zm-.62-16.2h4.59l-.6 13.5h-3.36z" fill="#fff"/><path d="M409.76 90c9.81-34.77 39.92-56.95 76.15-56.95 35.68 0 66 23.85 76.09 56.7" fill="#e52823"/><g clip-path="url(#a)" fill="#fff"><path d="M613.47 55.48c15.37-4.7 23.14 7.08 23.14 7.08s-4.88-16.44-23.14-7.08M643.19 56.09v-.56a11.47 11.47 0 0 0-6.06 8.82s2.09-4.86 7-6.34a2.93 2.93 0 0 1-.95-1.92M623.58 63v3.5c-.59 0-3.14-.16-4.26-.2v1.89c1.35 0 2.74.19 4.08.18v3.22c-1.34 0-2.69-.1-4-.13v2c1.45 0 2.9.15 4.35.13v3.43c-2.86 0-6.25-.22-9.46-.49l.22-14.29c1.35.16 5.55.6 9.2.71M624.8 63l-.06 3.73c1.35.06 2.56.07 2.56.07v10.35a33 33 0 0 0 5.16-.08l-.06-10.25s2.28-.11 2.64-.14v-3.81a90.91 90.91 0 0 1-10.24.13M693.78 60.71v4.33c.87 0 1.86.23 2.74.3 0 3.61-.09 6.35-.09 10 2.42.29 4.15.57 4.82.69 0-3.61.14-6.46.14-10.07 0 0 2.58.4 2.62.44v-4.45a77.49 77.49 0 0 0-10.23-1.2M608.08 60.77L602 59.66v15c1.57.31 3 .57 4.53.74v-4.33l1.65.18c2.66.25 5.33-.76 5.37-5.1 0-3.84-2.53-5-5.37-5.37m-1.18 6.9l-.45-.05v-2.94h.43a1.49 1.49 0 0 1 1.49 1.57c0 1.21-.75 1.45-1.49 1.37M659.15 74.7c.68-1.79 1.37-3.46 2.05-5.24.11 1.71.18 3.25.29 5 1.7-.19 3.08-.29 4.8-.4-.45-4.55-.83-9.43-1.28-14l-4.4.41c-.83 2.14-1.65 4.76-2.48 6.91-.79-2-1.59-4.33-2.38-6.32-1.49.22-4.14.68-4.41.68-.51 4.65-1.09 9.8-1.6 14.45 1.17-.21 4-.66 4.89-.78.14-1.73.27-3.58.4-5.31l2 5c.38 0 1.7-.25 2.14-.32M690.55 69.93c1.31-.59 2.26-1.86 2.29-4.37 0-3.79-2.63-5.41-5.34-5.62-2-.16-4.1-.26-6.16-.32-.06 4.81-.09 9.22-.15 14 1.53 0 3.22.16 4.56.27v-3.72c.88 1.42 1.6 2.59 2.47 4 1.89.17 3.83.41 5.71.69-1.18-1.76-2.24-3.27-3.43-5m-4.25-3.09h-.45v-2.89h.43a1.43 1.43 0 0 1 1.49 1.52 1.23 1.23 0 0 1-1.51 1.37M676 59.51c-1.82 0-3.31 0-4.87.1-1.26 4.67-2.73 9.67-4 14.36 1.4 0 2.81-.12 4.2-.12l.41-1.56 2.13-.06c-.05 0 1.88-.06 1.88-.06 0 .19.22.68.47 1.49h4.18c-1.51-4.94-3-9.7-4.41-14.19M672.63 69c.32-1.19.65-2.45 1-3.64.37 1.19.73 2.39 1.1 3.6a19.56 19.56 0 0 1-2.06 0M702.34 74.65a.77.77 0 1 1-.77.77.76.76 0 0 1 .77-.77zm0 .12a.65.65 0 0 0 0 1.3.65.65 0 0 0 0-1.3zm-.14 1.1h-.14V75h.25a.43.43 0 0 1 .26.07.19.19 0 0 1 .08.17.22.22 0 0 1-.17.21c.08 0 .13.08.15.2a1 1 0 0 0 0 .22h-.14a.77.77 0 0 1-.06-.22.16.16 0 0 0-.19-.15h-.09zm0-.48h.1c.11 0 .21 0 .21-.14s-.06-.15-.21-.15h-.1zM636.61 75.82a12.6 12.6 0 0 0 5.67 1.43c3.2 0 6.55-1.92 6.62-5.51.05-2.55-1.57-3.77-3.84-4.27l-1.21-.28c-.41-.1-1.08-.18-1.07-.74s.71-.79 1.18-.79a8.51 8.51 0 0 1 3.27.68c.45-1.2.9-2.4 1.36-3.6a10.64 10.64 0 0 0-4.67-1.11c-3.22 0-6.46 1.95-6.53 5.52 0 2.35 1.7 3.64 3.79 4l1.07.2c.49.1 1.2.16 1.19.84s-.85.76-1.38.75a6.28 6.28 0 0 1-3.68-1.21c-.55 1.25-1.21 2.81-1.77 4.06M648.2 51.39a3.61 3.61 0 1 0 3.56 3.66 3.61 3.61 0 0 0-3.56-3.66m1.31 1.33a4.31 4.31 0 0 0-3.87 2.28 2.64 2.64 0 0 1 .08-1 2.46 2.46 0 0 1 3-1.75 2.31 2.31 0 0 1 .85.45"/></g><g><path fill="none" d="M0 0h728v90H0z"/></g></g></svg>