<svg xmlns="http://www.w3.org/2000/svg" xmlns:xlink="http://www.w3.org/1999/xlink" width="255" height="64" viewBox="0 0 255 64">
  <defs>
    <rect id="a" width="255" height="64" rx="3"/>
  </defs>
  <g fill="none" fill-rule="evenodd">
    <use fill="#FFF" xlink:href="#a"/>
    <rect width="254" height="63" x=".5" y=".5" stroke="#B5B5B5" rx="3"/>
    <g transform="translate(7 7)">
      <rect width="50" height="50" fill="#D92128" rx="4"/>
      <path fill="#FEFEFE" d="M28.2340909,4.56363636 C26.9772727,5.46590909 24.5784091,6.69204545 21.4875,5.92954545 C16.1329545,4.61136364 14.6,0 14.6,0 C14.6,0 13.0670455,4.61363636 7.7125,5.92954545 C4.62159091,6.69204545 2.22159091,5.46363636 0.965909091,4.56363636 L0,4.56363636 L0,29.4329545 C0,30.0625 0.154545455,31.3 1.17272727,32.5397727 C2.43409091,34.0704545 4.57045455,35.0625 7.525,35.4897727 C9.87613636,35.8306818 11.6170455,36.5681818 12.8420455,37.7488636 C13.7443182,38.6170455 14.6,40.1193182 14.6,40.1193182 C14.6,40.1193182 15.4875,38.5863636 16.3556818,37.7488636 C17.5829545,36.5681818 19.325,35.8306818 21.675,35.4897727 C24.6295455,35.0625 26.7670455,34.0704545 28.0261364,32.5397727 C29.0454545,31.3011364 29.1988636,30.0625 29.2,29.4329545 L29.2,4.56363636 L28.2340909,4.56363636 Z" transform="translate(10 5)"/>
      <path fill="#003A74" d="M28.3229545,5.53386364 C28.3229545,5.53386364 25.3968182,7.81113636 21.2740909,6.78045455 C16.4672727,5.57931818 14.6002273,1.97931818 14.6002273,1.97931818 C14.6002273,1.97931818 12.7320455,5.57931818 7.92636364,6.78045455 C3.80363636,7.81113636 0.875227273,5.53386364 0.875227273,5.53386364 L0.875227273,29.4327273 C0.875227273,30.2452273 1.215,33.6918182 7.65022727,34.6225 C10.19,34.9884091 12.0888636,35.8065909 13.4513636,37.1202273 C13.9422727,37.5906818 14.3138636,38.0702273 14.6002273,38.5088636 C14.8854545,38.0702273 15.2570455,37.5906818 15.7479545,37.1202273 C17.1127273,35.8065909 19.0093182,34.9884091 21.5502273,34.6225 C27.9843182,33.6918182 28.3229545,30.2452273 28.3229545,29.4327273 L28.3229545,5.53386364 Z" transform="translate(10 5)"/>
      <path fill="#FEFEFE" d="M14.6002273,36.0755682 C14.6002273,36.0755682 16.4672727,33.7755682 21.3195455,33.0255682 C26.8775,32.1698864 26.7127273,29.5585227 26.7127273,29.4267045 L26.7127273,16.9107955 L2.48772727,16.9107955 L2.48772727,29.4267045 C2.48772727,29.5585227 2.32295455,32.1698864 7.87977273,33.0255682 C12.7320455,33.7755682 14.6002273,36.0755682 14.6002273,36.0755682" transform="translate(10 5)"/>
      <path fill="#D92128" d="M8.954 26.058L8.953 20.106 8.205 19.689 8.205 18.145 11.607 18.145 11.607 19.689 10.895 20.106 10.895 32.248 9.078 31.703 6.448 23.948 6.448 29.061 7.282 29.702 7.282 31.277 3.632 30.349 3.632 29.007 4.468 28.679 4.468 20.112 3.614 19.689 3.614 18.145 6.375 18.145zM15.215 31.502L15.944 32.375 15.944 33.918 12.328 32.569 12.328 31.259 13.127 30.933 13.127 20.106 12.333 19.705 12.333 18.145 18.61 18.145 18.61 21.285 17.231 21.285 16.812 19.997 15.215 19.997 15.215 23.627 16.414 23.627 16.886 22.939 17.849 22.939 17.849 26.17 16.886 26.17 16.432 25.516 15.215 25.516zM19.206 32.05L19.206 30.506 20.104 29.77 20.104 20.105 19.337 19.705 19.337 18.145 22.956 18.145 22.956 19.705 22.245 20.105 22.245 29.171 23.8 28.751 24.099 26.375 25.586 26.375 25.586 30.345z" transform="translate(10 5)"/>
      <path fill="#FEFEFE" d="M3.118 14.351L2.022 13.526 3.363 13.526 3.804 12.258 4.246 13.526 5.584 13.526 4.489 14.351 4.891 15.639 3.804 14.874 2.714 15.639zM7.872 14.351L6.775 13.526 8.114 13.526 8.556 12.258 8.998 13.526 10.337 13.526 9.241 14.351 9.645 15.639 8.556 14.874 7.466 15.639zM3.118 10.061L2.022 9.238 3.363 9.238 3.804 7.969 4.246 9.238 5.584 9.238 4.489 10.061 4.891 11.349 3.804 10.584 2.714 11.349zM7.872 10.061L6.775 9.238 8.114 9.238 8.556 7.969 8.998 9.238 10.337 9.238 9.241 10.061 9.645 11.349 8.556 10.584 7.466 11.349zM26.486 15.639L25.396 14.875 24.31 15.639 24.711 14.352 23.615 13.527 24.956 13.527 25.396 12.259 25.839 13.527 27.177 13.527 26.081 14.352zM21.732 15.639L20.644 14.875 19.555 15.639 19.957 14.352 18.864 13.527 20.2 13.527 20.644 12.259 21.086 13.527 22.425 13.527 21.33 14.352zM26.486 11.349L25.396 10.585 24.31 11.349 24.711 10.062 23.615 9.236 24.956 9.236 25.396 7.969 25.839 9.236 27.177 9.236 26.081 10.062zM21.732 11.349L20.644 10.585 19.555 11.349 19.957 10.062 18.864 9.236 20.2 9.236 20.644 7.969 21.086 9.236 22.425 9.236 21.33 10.062zM15.6417045 9.12829545C15.1542045 8.72602273 14.6076136 8.46579545 14.0269318 8.34193182 14.1655682 8.21011364 14.3110227 8.09534091 14.4371591 7.99079545 15.1632955 8.16465909 15.6530682 8.48965909 15.9848864 8.76579545 15.8655682 8.88852273 15.7519318 9.00670455 15.6417045 9.12829545M14.9382955 9.97488636C14.4735227 9.58397727 13.9076136 9.29420455 13.2667045 9.16465909 13.3644318 9.03965909 13.4803409 8.90443182 13.5905682 8.78056818 14.0792045 8.86693182 14.7064773 9.12488636 15.2519318 9.57602273 15.1405682 9.71011364 15.0360227 9.84647727 14.9382955 9.97488636M14.3053409 10.8646591C13.8030682 10.4453409 13.2189773 10.1896591 12.6439773 10.0805682 12.6439773 10.0805682 12.8223864 9.79306818 12.92125 9.64420455 13.6235227 9.78397727 14.1917045 10.1123864 14.5905682 10.4498864 14.4882955 10.5953409 14.3928409 10.7351136 14.3053409 10.8646591M17.6178409 6.62034091C17.6178409 6.62034091 17.0496591 6.91579545 16.25875 7.69420455 16.4360227 7.79420455 16.6382955 7.93625 16.7530682 8.03284091 16.63375 8.13965909 16.5110227 8.25215909 16.3985227 8.36011364 15.8826136 7.93511364 15.3451136 7.72034091 14.9303409 7.61920455 15.0678409 7.52034091 15.2144318 7.42261364 15.35875 7.32829545 15.5826136 7.38397727 15.7985227 7.47261364 15.7985227 7.47261364 16.6928409 6.79193182 17.4678409 6.49761364 17.4678409 6.49761364 17.4678409 6.49761364 17.3780682 6.45443182 17.1371591 6.45784091 13.6223864 6.50329545 10.3826136 9.12829545 10.9951136 13.6203409 11.05875 14.0976136 11.2451136 14.9635227 11.4803409 15.3430682 11.55875 14.5964773 11.8394318 12.9407955 12.6723864 11.1692045 12.3826136 11.0657955 12.1417045 11.0226136 12.1417045 11.0226136 12.2280682 10.8419318 12.3451136 10.6157955 12.3451136 10.6157955 12.9632955 10.7317045 13.5064773 10.9896591 13.9803409 11.3635227 13.8655682 11.5476136 13.7894318 11.6657955 13.7371591 11.76125 13.57125 11.6305682 13.4042045 11.5192045 13.2189773 11.4169318 12.2814773 13.0555682 11.8473864 14.5998864 11.67125 15.4123864 11.6803409 15.4623864 11.7814773 15.4873864 11.8644318 15.4760227 15.7167045 14.9771591 17.52125 13.0135227 18.07125 10.8839773 18.4303409 9.48511364 18.3132955 8.02375 17.8292045 6.83284091 17.79625 6.74875 17.7292045 6.61125 17.6178409 6.62034091" transform="translate(10 5)"/>
    </g>
    <path fill="#242424" d="M71.7888184 13.7907715L74.7624512 13.7907715 74.7624512 17.677002C74.2805152 17.8342293 73.8267844 17.9444577 73.4012451 18.0076904 72.9757059 18.0709232 72.5407737 18.1025391 72.0964355 18.1025391 70.9650822 18.1025391 70.1011993 17.7701449 69.5047607 17.1053467 68.9083222 16.4405484 68.6101074 15.4860902 68.6101074 14.2419434 68.6101074 13.0319764 68.9561733 12.0886264 69.6483154 11.4118652 70.3404576 10.735104 71.3000427 10.3967285 72.5270996 10.3967285 73.2961464 10.3967285 74.0378382 10.5505356 74.7521973 10.8581543L74.2241211 12.1296387C73.6772434 11.8561998 73.1081573 11.7194824 72.5168457 11.7194824 71.8298305 11.7194824 71.2795431 11.950193 70.8659668 12.4116211 70.4523905 12.8730492 70.2456055 13.4934043 70.2456055 14.2727051 70.2456055 15.0861857 70.4122298 15.7073953 70.7454834 16.1363525 71.078737 16.5653098 71.5632292 16.7797852 72.1989746 16.7797852 72.5305192 16.7797852 72.8671858 16.7456058 73.2089844 16.6772461L73.2089844 15.1135254 71.7888184 15.1135254 71.7888184 13.7907715zM78.4973633 13.2729492C78.1658186 13.2729492 77.9060556 13.3780507 77.7180664 13.5882568 77.5300772 13.798463 77.4224122 14.0966778 77.3950683 14.4829102L79.5894043 14.4829102C79.5825683 14.0966778 79.4817392 13.798463 79.2869141 13.5882568 79.0920889 13.3780507 78.8289079 13.2729492 78.4973633 13.2729492zM78.7178223 18.1025391C77.7949661 18.1025391 77.0737819 17.8479029 76.554248 17.338623 76.0347142 16.8293432 75.7749512 16.108159 75.7749512 15.1750488 75.7749512 14.2145948 76.0150611 13.4720485 76.4952881 12.9473877 76.9755151 12.4227269 77.6394489 12.1604004 78.4871094 12.1604004 79.297172 12.1604004 79.9277809 12.391111 80.3789551 12.8525391 80.8301292 13.3139672 81.0557129 13.9514119 81.0557129 14.7648926L81.0557129 15.5236816 77.3591797 15.5236816C77.3762696 15.9680198 77.5078601 16.3149402 77.7539551 16.5644531 78.00005 16.8139661 78.3452614 16.9387207 78.7895996 16.9387207 79.1348162 16.9387207 79.4612289 16.9028324 79.7688476 16.8310547 80.0764664 16.759277 80.3977522 16.6447762 80.7327148 16.4875488L80.7327148 17.6975098C80.459276 17.8342292 80.1670426 17.9359128 79.8560058 18.0025635 79.5449691 18.0692142 79.1655784 18.1025391 78.7178223 18.1025391zM84.4419922 16.8566895C84.715431 16.8566895 85.0435527 16.7968756 85.4263672 16.6772461L85.4263672 17.8410645C85.0367168 18.0153817 84.5582059 18.1025391 83.9908203 18.1025391 83.3653289 18.1025391 82.9098891 17.9444596 82.6244873 17.6282959 82.3390855 17.3121322 82.1963867 16.8378938 82.1963867 16.2055664L82.1963867 13.4421387 81.4478515 13.4421387 81.4478515 12.7807617 82.3091797 12.2578125 82.7603515 11.0478516 83.7601074 11.0478516 83.7601074 12.2680664 85.3648437 12.2680664 85.3648437 13.4421387 83.7601074 13.4421387 83.7601074 16.2055664C83.7601074 16.4277355 83.8224847 16.5917963 83.9472412 16.6977539 84.0719977 16.8037115 84.236913 16.8566895 84.4419922 16.8566895zM88.6459472 10.786377C88.6459472 10.2770971 88.9296358 10.0224609 89.4970214 10.0224609 90.0644071 10.0224609 90.3480957 10.2770971 90.3480957 10.786377 90.3480957 11.0290539 90.2771735 11.2178948 90.1353271 11.3529053 89.9934807 11.4879157 89.7807143 11.5554199 89.4970214 11.5554199 88.9296358 11.5554199 88.6459472 11.2990748 88.6459472 10.786377zM90.2763183 18L88.7125976 18 88.7125976 12.2680664 90.2763183 12.2680664 90.2763183 18zM96.9079589 18L95.3442382 18 95.3442382 14.6520996C95.3442382 14.2385233 95.2707526 13.9283458 95.1237792 13.7215576 94.9768058 13.5147695 94.7426773 13.411377 94.4213867 13.411377 93.9838845 13.411377 93.6677255 13.5574937 93.4729003 13.8497314 93.2780751 14.1419692 93.180664 14.6264615 93.180664 15.3032227L93.180664 18 91.6169433 18 91.6169433 12.2680664 92.8115234 12.2680664 93.0217285 13.0012207 93.1088867 13.0012207C93.2832039 12.7243639 93.5233138 12.5150154 93.8292236 12.3731689 94.1351333 12.2313225 94.4829081 12.1604004 94.8725585 12.1604004 95.5390658 12.1604004 96.0449201 12.3406964 96.3901367 12.7012939 96.7353532 13.0618915 96.9079589 13.582272 96.9079589 14.2624512L96.9079589 18zM97.7102538 15.8261719L97.7102538 14.5444336 100.463428 14.5444336 100.463428 15.8261719 97.7102538 15.8261719zM106.28501 12.2680664L106.28501 13.0627441 105.387793 13.293457C105.551856 13.549806 105.633887 13.8369125 105.633887 14.1547852 105.633887 14.7700226 105.419411 15.2493879 104.990454 15.5928955 104.561497 15.9364031 103.965922 16.1081543 103.203711 16.1081543L102.921728 16.0927734 102.691016 16.0671387C102.53037 16.1901862 102.450049 16.3269035 102.450049 16.4772949 102.450049 16.702882 102.737155 16.8156738 103.311377 16.8156738L104.285498 16.8156738C104.914407 16.8156738 105.393773 16.9506822 105.723608 17.2207031 106.053444 17.490724 106.218359 17.8872044 106.218359 18.4101562 106.218359 19.0800815 105.938943 19.5996075 105.380102 19.96875 104.821262 20.3378925 104.018902 20.5224609 102.972998 20.5224609 102.173189 20.5224609 101.562233 20.3831801 101.140112 20.1046143 100.717991 19.8260484 100.506934 19.4355494 100.506934 18.9331055 100.506934 18.5878889 100.614598 18.2990734 100.829932 18.0666504 101.045265 17.8342274 101.361424 17.6684575 101.778418 17.5693359 101.617773 17.5009762 101.477637 17.3890389 101.358008 17.2335205 101.238378 17.0780022 101.178564 16.9130868 101.178564 16.7387695 101.178564 16.5200184 101.241796 16.3380134 101.368262 16.192749 101.494727 16.0474846 101.677587 15.9047859 101.916846 15.7646484 101.616063 15.634765 101.377662 15.426271 101.201636 15.1391602 101.025609 14.8520493 100.937598 14.5136738 100.937598 14.1240234 100.937598 13.498532 101.140965 13.0148943 101.547705 12.6730957 101.954445 12.3312971 102.535494 12.1604004 103.290869 12.1604004 103.451514 12.1604004 103.642064 12.1749266 103.862524 12.2039795 104.082984 12.2330324 104.223974 12.2543945 104.285498 12.2680664L106.28501 12.2680664zM101.860449 18.8100586C101.860449 19.0253917 101.963842 19.1945795 102.17063 19.317627 102.377418 19.4406744 102.667088 19.5021973 103.039648 19.5021973 103.600198 19.5021973 104.039403 19.4252937 104.357275 19.2714844 104.675148 19.117675 104.834082 18.907472 104.834082 18.6408691 104.834082 18.425536 104.740089 18.2768559 104.5521 18.1948242 104.36411 18.1127926 104.073586 18.0717773 103.680517 18.0717773L102.870459 18.0717773C102.583348 18.0717773 102.343238 18.1392816 102.150122 18.274292 101.957006 18.4093024 101.860449 18.5878895 101.860449 18.8100586zM102.429541 14.1445312C102.429541 14.455568 102.500463 14.7016593 102.642309 14.8828125 102.784156 15.0639657 103.00034 15.154541 103.290869 15.154541 103.584816 15.154541 103.800146 15.0639657 103.936865 14.8828125 104.073585 14.7016593 104.141943 14.455568 104.141943 14.1445312 104.141943 13.4540981 103.858255 13.1088867 103.290869 13.1088867 102.716647 13.1088867 102.429541 13.4540981 102.429541 14.1445312zM110.568506 18L110.266016 17.2207031 110.225 17.2207031C109.961815 17.5522478 109.690944 17.7821039 109.412378 17.9102783 109.133812 18.0384528 108.770656 18.1025391 108.3229 18.1025391 107.772605 18.1025391 107.339381 17.9453141 107.023218 17.6308594 106.707054 17.3164047 106.548975 16.8686552 106.548975 16.2875977 106.548975 15.6791962 106.761741 15.2305923 107.18728 14.9417725 107.612819 14.6529527 108.254537 14.4931642 109.112451 14.4624023L110.10708 14.4316406 110.10708 14.1804199C110.10708 13.5993623 109.80972 13.3088379 109.21499 13.3088379 108.75698 13.3088379 108.218655 13.4472642 107.6 13.7241211L107.082178 12.6679688C107.741849 12.3227522 108.473287 12.1501465 109.276514 12.1501465 110.04556 12.1501465 110.635154 12.3176253 111.045312 12.6525879 111.455471 12.9875505 111.660547 13.4968228 111.660547 14.1804199L111.660547 18 110.568506 18zM110.10708 15.3442383L109.5021 15.3647461C109.047507 15.378418 108.709132 15.4604485 108.486963 15.6108398 108.264794 15.7612312 108.153711 15.9902328 108.153711 16.2978516 108.153711 16.7387717 108.406638 16.9592285 108.9125 16.9592285 109.274806 16.9592285 109.564476 16.8549815 109.781518 16.6464844 109.998561 16.4379872 110.10708 16.1611345 110.10708 15.815918L110.10708 15.3442383zM118.10249 18L116.538769 18 116.538769 14.6520996C116.538769 14.2385233 116.469556 13.9283458 116.331128 13.7215576 116.192699 13.5147695 115.974806 13.411377 115.677441 13.411377 115.277537 13.411377 114.987013 13.5583481 114.805859 13.8522949 114.624706 14.1462417 114.534131 14.6298794 114.534131 15.3032227L114.534131 18 112.97041 18 112.97041 12.2680664 114.16499 12.2680664 114.375195 13.0012207 114.462353 13.0012207C114.616163 12.7380358 114.838329 12.5321052 115.128857 12.3834229 115.419386 12.2347405 115.752635 12.1604004 116.128613 12.1604004 116.986528 12.1604004 117.567576 12.440671 117.871777 13.0012207L118.010205 13.0012207C118.164014 12.7346178 118.390452 12.5278328 118.689526 12.3808594 118.9886 12.233886 119.326121 12.1604004 119.7021 12.1604004 120.351517 12.1604004 120.842845 12.3270247 121.176099 12.6602783 121.509352 12.9935319 121.675976 13.5275842 121.675976 14.2624512L121.675976 18 120.107129 18 120.107129 14.6520996C120.107129 14.2385233 120.037916 13.9283458 119.899487 13.7215576 119.761059 13.5147695 119.543165 13.411377 119.245801 13.411377 118.862986 13.411377 118.576734 13.5480943 118.387036 13.8215332 118.197338 14.0949721 118.10249 14.5290498 118.10249 15.1237793L118.10249 18zM125.354492 13.2729492C125.022947 13.2729492 124.763184 13.3780507 124.575195 13.5882568 124.387206 13.798463 124.279541 14.0966778 124.252197 14.4829102L126.446533 14.4829102C126.439697 14.0966778 126.338868 13.798463 126.144043 13.5882568 125.949218 13.3780507 125.686037 13.2729492 125.354492 13.2729492zM125.574951 18.1025391C124.652095 18.1025391 123.930911 17.8479029 123.411377 17.338623 122.891843 16.8293432 122.63208 16.108159 122.63208 15.1750488 122.63208 14.2145948 122.87219 13.4720485 123.352417 12.9473877 123.832644 12.4227269 124.496578 12.1604004 125.344238 12.1604004 126.154301 12.1604004 126.78491 12.391111 127.236084 12.8525391 127.687258 13.3139672 127.912842 13.9514119 127.912842 14.7648926L127.912842 15.5236816 124.216308 15.5236816C124.233398 15.9680198 124.364989 16.3149402 124.611084 16.5644531 124.857179 16.8139661 125.20239 16.9387207 125.646728 16.9387207 125.991945 16.9387207 126.318358 16.9028324 126.625976 16.8310547 126.933595 16.759277 127.254881 16.6447762 127.589844 16.4875488L127.589844 17.6975098C127.316405 17.8342292 127.024171 17.9359128 126.713135 18.0025635 126.402098 18.0692142 126.022707 18.1025391 125.574951 18.1025391zM136.602881 18L135.03916 18 135.03916 14.6520996C135.03916 13.824947 134.731546 13.411377 134.116308 13.411377 133.678806 13.411377 133.362647 13.5600571 133.167822 13.8574219 132.972997 14.1547866 132.875586 14.6367154 132.875586 15.3032227L132.875586 18 131.311865 18 131.311865 10.0224609 132.875586 10.0224609 132.875586 11.6477051C132.875586 11.7741706 132.863623 12.0715309 132.839697 12.5397949L132.803808 13.0012207 132.88584 13.0012207C133.234474 12.440671 133.78818 12.1604004 134.546973 12.1604004 135.220316 12.1604004 135.731297 12.3415509 136.079931 12.7038574 136.428566 13.0661639 136.602881 13.58569 136.602881 14.2624512L136.602881 18zM137.846094 10.786377C137.846094 10.2770971 138.129782 10.0224609 138.697168 10.0224609 139.264553 10.0224609 139.548242 10.2770971 139.548242 10.786377 139.548242 11.0290539 139.47732 11.2178948 139.335473 11.3529053 139.193627 11.4879157 138.980861 11.5554199 138.697168 11.5554199 138.129782 11.5554199 137.846094 11.2990748 137.846094 10.786377zM139.476465 18L137.912744 18 137.912744 12.2680664 139.476465 12.2680664 139.476465 18zM145.805615 12.2680664L145.805615 13.0627441 144.908398 13.293457C145.072462 13.549806 145.154492 13.8369125 145.154492 14.1547852 145.154492 14.7700226 144.940017 15.2493879 144.511059 15.5928955 144.082102 15.9364031 143.486527 16.1081543 142.724316 16.1081543L142.442334 16.0927734 142.211621 16.0671387C142.050976 16.1901862 141.970654 16.3269035 141.970654 16.4772949 141.970654 16.702882 142.257761 16.8156738 142.831982 16.8156738L143.806103 16.8156738C144.435013 16.8156738 144.914378 16.9506822 145.244214 17.2207031 145.574049 17.490724 145.738965 17.8872044 145.738965 18.4101562 145.738965 19.0800815 145.459549 19.5996075 144.900708 19.96875 144.341867 20.3378925 143.539507 20.5224609 142.493603 20.5224609 141.693795 20.5224609 141.082839 20.3831801 140.660718 20.1046143 140.238596 19.8260484 140.027539 19.4355494 140.027539 18.9331055 140.027539 18.5878889 140.135204 18.2990734 140.350537 18.0666504 140.56587 17.8342274 140.882029 17.6684575 141.299023 17.5693359 141.138378 17.5009762 140.998243 17.3890389 140.878613 17.2335205 140.758984 17.0780022 140.69917 16.9130868 140.69917 16.7387695 140.69917 16.5200184 140.762402 16.3380134 140.888867 16.192749 141.015332 16.0474846 141.198192 15.9047859 141.437451 15.7646484 141.136668 15.634765 140.898267 15.426271 140.722241 15.1391602 140.546215 14.8520493 140.458203 14.5136738 140.458203 14.1240234 140.458203 13.498532 140.66157 13.0148943 141.06831 12.6730957 141.475051 12.3312971 142.0561 12.1604004 142.811474 12.1604004 142.97212 12.1604004 143.16267 12.1749266 143.38313 12.2039795 143.60359 12.2330324 143.74458 12.2543945 143.806103 12.2680664L145.805615 12.2680664zM141.381055 18.8100586C141.381055 19.0253917 141.484447 19.1945795 141.691235 19.317627 141.898023 19.4406744 142.187693 19.5021973 142.560254 19.5021973 143.120803 19.5021973 143.560008 19.4252937 143.877881 19.2714844 144.195753 19.117675 144.354687 18.907472 144.354687 18.6408691 144.354687 18.425536 144.260694 18.2768559 144.072705 18.1948242 143.884716 18.1127926 143.594191 18.0717773 143.201123 18.0717773L142.391064 18.0717773C142.103953 18.0717773 141.863844 18.1392816 141.670727 18.274292 141.477611 18.4093024 141.381055 18.5878895 141.381055 18.8100586zM141.950146 14.1445312C141.950146 14.455568 142.021068 14.7016593 142.162915 14.8828125 142.304761 15.0639657 142.520946 15.154541 142.811474 15.154541 143.105421 15.154541 143.320751 15.0639657 143.457471 14.8828125 143.59419 14.7016593 143.662549 14.455568 143.662549 14.1445312 143.662549 13.4540981 143.37886 13.1088867 142.811474 13.1088867 142.237253 13.1088867 141.950146 13.4540981 141.950146 14.1445312zM151.73999 18L150.176269 18 150.176269 14.6520996C150.176269 13.824947 149.868655 13.411377 149.253418 13.411377 148.815916 13.411377 148.499757 13.5600571 148.304931 13.8574219 148.110106 14.1547866 148.012695 14.6367154 148.012695 15.3032227L148.012695 18 146.448974 18 146.448974 10.0224609 148.012695 10.0224609 148.012695 11.6477051C148.012695 11.7741706 148.000732 12.0715309 147.976806 12.5397949L147.940918 13.0012207 148.022949 13.0012207C148.371584 12.440671 148.925289 12.1604004 149.684082 12.1604004 150.357425 12.1604004 150.868406 12.3415509 151.217041 12.7038574 151.565675 13.0661639 151.73999 13.58569 151.73999 14.2624512L151.73999 18zM154.613574 18L153.049853 18 153.049853 10.0224609 154.613574 10.0224609 154.613574 18zM155.887549 10.786377C155.887549 10.2770971 156.171237 10.0224609 156.738623 10.0224609 157.306008 10.0224609 157.589697 10.2770971 157.589697 10.786377 157.589697 11.0290539 157.518775 11.2178948 157.376929 11.3529053 157.235082 11.4879157 157.022316 11.5554199 156.738623 11.5554199 156.171237 11.5554199 155.887549 11.2990748 155.887549 10.786377zM157.51792 18L155.954199 18 155.954199 12.2680664 157.51792 12.2680664 157.51792 18zM163.84707 12.2680664L163.84707 13.0627441 162.949853 13.293457C163.113917 13.549806 163.195947 13.8369125 163.195947 14.1547852 163.195947 14.7700226 162.981472 15.2493879 162.552514 15.5928955 162.123557 15.9364031 161.527982 16.1081543 160.765771 16.1081543L160.483789 16.0927734 160.253076 16.0671387C160.092431 16.1901862 160.012109 16.3269035 160.012109 16.4772949 160.012109 16.702882 160.299216 16.8156738 160.873437 16.8156738L161.847558 16.8156738C162.476468 16.8156738 162.955833 16.9506822 163.285669 17.2207031 163.615504 17.490724 163.78042 17.8872044 163.78042 18.4101562 163.78042 19.0800815 163.501004 19.5996075 162.942163 19.96875 162.383322 20.3378925 161.580962 20.5224609 160.535058 20.5224609 159.73525 20.5224609 159.124294 20.3831801 158.702173 20.1046143 158.280051 19.8260484 158.068994 19.4355494 158.068994 18.9331055 158.068994 18.5878889 158.176659 18.2990734 158.391992 18.0666504 158.607325 17.8342274 158.923484 17.6684575 159.340478 17.5693359 159.179833 17.5009762 159.039698 17.3890389 158.920068 17.2335205 158.800439 17.0780022 158.740625 16.9130868 158.740625 16.7387695 158.740625 16.5200184 158.803857 16.3380134 158.930322 16.192749 159.056788 16.0474846 159.239647 15.9047859 159.478906 15.7646484 159.178123 15.634765 158.939722 15.426271 158.763696 15.1391602 158.58767 14.8520493 158.499658 14.5136738 158.499658 14.1240234 158.499658 13.498532 158.703025 13.0148943 159.109765 12.6730957 159.516506 12.3312971 160.097555 12.1604004 160.852929 12.1604004 161.013575 12.1604004 161.204125 12.1749266 161.424585 12.2039795 161.645045 12.2330324 161.786035 12.2543945 161.847558 12.2680664L163.84707 12.2680664zM159.42251 18.8100586C159.42251 19.0253917 159.525902 19.1945795 159.73269 19.317627 159.939478 19.4406744 160.229148 19.5021973 160.601709 19.5021973 161.162258 19.5021973 161.601463 19.4252937 161.919336 19.2714844 162.237208 19.117675 162.396142 18.907472 162.396142 18.6408691 162.396142 18.425536 162.302149 18.2768559 162.11416 18.1948242 161.926171 18.1127926 161.635646 18.0717773 161.242578 18.0717773L160.432519 18.0717773C160.145409 18.0717773 159.905299 18.1392816 159.712182 18.274292 159.519066 18.4093024 159.42251 18.5878895 159.42251 18.8100586zM159.991601 14.1445312C159.991601 14.455568 160.062523 14.7016593 160.20437 14.8828125 160.346216 15.0639657 160.562401 15.154541 160.852929 15.154541 161.146876 15.154541 161.362206 15.0639657 161.498926 14.8828125 161.635645 14.7016593 161.704004 14.455568 161.704004 14.1445312 161.704004 13.4540981 161.420315 13.1088867 160.852929 13.1088867 160.278708 13.1088867 159.991601 13.4540981 159.991601 14.1445312zM169.781445 18L168.217724 18 168.217724 14.6520996C168.217724 13.824947 167.91011 13.411377 167.294873 13.411377 166.857371 13.411377 166.541212 13.5600571 166.346386 13.8574219 166.151561 14.1547866 166.05415 14.6367154 166.05415 15.3032227L166.05415 18 164.490429 18 164.490429 10.0224609 166.05415 10.0224609 166.05415 11.6477051C166.05415 11.7741706 166.042187 12.0715309 166.018261 12.5397949L165.982373 13.0012207 166.064404 13.0012207C166.413039 12.440671 166.966744 12.1604004 167.725537 12.1604004 168.39888 12.1604004 168.909861 12.3415509 169.258496 12.7038574 169.60713 13.0661639 169.781445 13.58569 169.781445 14.2624512L169.781445 18zM173.506103 16.8566895C173.779542 16.8566895 174.107664 16.7968756 174.490478 16.6772461L174.490478 17.8410645C174.100828 18.0153817 173.622317 18.1025391 173.054931 18.1025391 172.42944 18.1025391 171.974 17.9444596 171.688598 17.6282959 171.403197 17.3121322 171.260498 16.8378938 171.260498 16.2055664L171.260498 13.4421387 170.511963 13.4421387 170.511963 12.7807617 171.373291 12.2578125 171.824463 11.0478516 172.824219 11.0478516 172.824219 12.2680664 174.428955 12.2680664 174.428955 13.4421387 172.824219 13.4421387 172.824219 16.2055664C172.824219 16.4277355 172.886596 16.5917963 173.011352 16.6977539 173.136109 16.8037115 173.301024 16.8566895 173.506103 16.8566895zM179.348193 16.2978516C179.348193 16.8857451 179.143972 17.3334946 178.735522 17.6411133 178.327073 17.948732 177.716117 18.1025391 176.902636 18.1025391 176.485642 18.1025391 176.130177 18.0743411 175.83623 18.0179443 175.542283 17.9615476 175.26714 17.8786627 175.010791 17.7692871L175.010791 16.4772949C175.30132 16.6140144 175.628587 16.7285152 175.992602 16.8208008 176.356618 16.9130864 176.677049 16.9592285 176.953906 16.9592285 177.521292 16.9592285 177.80498 16.7951677 177.80498 16.467041 177.80498 16.3439935 177.767383 16.2440189 177.692187 16.1671143 177.616992 16.0902096 177.48711 16.0030522 177.302539 15.9056396 177.117968 15.8082271 176.871876 15.6945807 176.564258 15.5646973 176.123337 15.380126 175.799488 15.2092293 175.5927 15.052002 175.385912 14.8947746 175.235523 14.7144786 175.141528 14.5111084 175.047533 14.3077382 175.000537 14.0573745 175.000537 13.7600098 175.000537 13.2507299 175.197923 12.8568129 175.5927 12.5782471 175.987477 12.2996812 176.547164 12.1604004 177.271777 12.1604004 177.96221 12.1604004 178.633834 12.3107895 179.28667 12.6115723L178.81499 13.739502C178.527879 13.6164545 178.259571 13.5156254 178.010058 13.4370117 177.760545 13.358398 177.505909 13.3190918 177.246142 13.3190918 176.784714 13.3190918 176.554004 13.4438464 176.554004 13.6933594 176.554004 13.8334968 176.628344 13.9548335 176.777026 14.057373 176.925709 14.1599126 177.251267 14.3120107 177.753711 14.5136719 178.201467 14.6948251 178.529589 14.8640129 178.738086 15.0212402 178.946583 15.1784676 179.10039 15.3596181 179.199511 15.5646973 179.298633 15.7697764 179.348193 16.0141587 179.348193 16.2978516zM181.801367 16.8977051C181.623632 17.5881382 181.322853 18.4067335 180.899023 19.3535156L179.771093 19.3535156C179.993263 18.4443314 180.165868 17.5864298 180.288916 16.7797852L181.724463 16.7797852 181.801367 16.8977051zM187.005078 18L185.441357 18 185.441357 10.0224609 187.005078 10.0224609 187.005078 18zM188.279052 10.786377C188.279052 10.2770971 188.562741 10.0224609 189.130127 10.0224609 189.697512 10.0224609 189.981201 10.2770971 189.981201 10.786377 189.981201 11.0290539 189.910279 11.2178948 189.768432 11.3529053 189.626586 11.4879157 189.413819 11.5554199 189.130127 11.5554199 188.562741 11.5554199 188.279052 11.2990748 188.279052 10.786377zM189.909424 18L188.345703 18 188.345703 12.2680664 189.909424 12.2680664 189.909424 18zM192.613818 18L190.429736 12.2680664 192.065234 12.2680664 193.172656 15.5339355C193.295703 15.9475118 193.372607 16.3388653 193.403369 16.7080078L193.434131 16.7080078C193.45122 16.3798812 193.528124 15.9885277 193.664843 15.5339355L194.767138 12.2680664 196.402636 12.2680664 194.218554 18 192.613818 18zM199.296728 13.2729492C198.965184 13.2729492 198.705421 13.3780507 198.517431 13.5882568 198.329442 13.798463 198.221777 14.0966778 198.194433 14.4829102L200.388769 14.4829102C200.381933 14.0966778 200.281104 13.798463 200.086279 13.5882568 199.891454 13.3780507 199.628273 13.2729492 199.296728 13.2729492zM199.517187 18.1025391C198.594331 18.1025391 197.873147 17.8479029 197.353613 17.338623 196.834079 16.8293432 196.574316 16.108159 196.574316 15.1750488 196.574316 14.2145948 196.814426 13.4720485 197.294653 12.9473877 197.77488 12.4227269 198.438814 12.1604004 199.286474 12.1604004 200.096537 12.1604004 200.727146 12.391111 201.17832 12.8525391 201.629494 13.3139672 201.855078 13.9514119 201.855078 14.7648926L201.855078 15.5236816 198.158545 15.5236816C198.175635 15.9680198 198.307225 16.3149402 198.55332 16.5644531 198.799415 16.8139661 199.144626 16.9387207 199.588965 16.9387207 199.934181 16.9387207 200.260594 16.9028324 200.568213 16.8310547 200.875831 16.759277 201.197117 16.6447762 201.53208 16.4875488L201.53208 17.6975098C201.258641 17.8342292 200.966407 17.9359128 200.655371 18.0025635 200.344334 18.0692142 199.964943 18.1025391 199.517187 18.1025391zM209.253125 16.2978516C209.253125 16.8857451 209.048903 17.3334946 208.640454 17.6411133 208.232004 17.948732 207.621049 18.1025391 206.807568 18.1025391 206.390574 18.1025391 206.035109 18.0743411 205.741162 18.0179443 205.447215 17.9615476 205.172071 17.8786627 204.915722 17.7692871L204.915722 16.4772949C205.206251 16.6140144 205.533518 16.7285152 205.897534 16.8208008 206.261549 16.9130864 206.581981 16.9592285 206.858838 16.9592285 207.426223 16.9592285 207.709912 16.7951677 207.709912 16.467041 207.709912 16.3439935 207.672314 16.2440189 207.597119 16.1671143 207.521923 16.0902096 207.392042 16.0030522 207.20747 15.9056396 207.022899 15.8082271 206.776808 15.6945807 206.469189 15.5646973 206.028269 15.380126 205.70442 15.2092293 205.497631 15.052002 205.290843 14.8947746 205.140454 14.7144786 205.04646 14.5111084 204.952465 14.3077382 204.905468 14.0573745 204.905468 13.7600098 204.905468 13.2507299 205.102854 12.8568129 205.497631 12.5782471 205.892409 12.2996812 206.452096 12.1604004 207.176709 12.1604004 207.867142 12.1604004 208.538766 12.3107895 209.191601 12.6115723L208.719922 13.739502C208.432811 13.6164545 208.164503 13.5156254 207.91499 13.4370117 207.665477 13.358398 207.410841 13.3190918 207.151074 13.3190918 206.689646 13.3190918 206.458935 13.4438464 206.458935 13.6933594 206.458935 13.8334968 206.533275 13.9548335 206.681958 14.057373 206.83064 14.1599126 207.156198 14.3120107 207.658642 14.5136719 208.106398 14.6948251 208.43452 14.8640129 208.643017 15.0212402 208.851514 15.1784676 209.005321 15.3596181 209.104443 15.5646973 209.203565 15.7697764 209.253125 16.0141587 209.253125 16.2978516zM212.500976 18.1025391C210.716788 18.1025391 209.824707 17.1233008 209.824707 15.1647949 209.824707 14.190669 210.06738 13.4464137 210.552734 12.9320068 211.038088 12.4176 211.733638 12.1604004 212.639404 12.1604004 213.302493 12.1604004 213.897214 12.2902819 214.423584 12.5500488L213.962158 13.7600098C213.716063 13.6608882 213.487061 13.5797122 213.275146 13.5164795 213.063231 13.4532468 212.851319 13.4216309 212.639404 13.4216309 211.825923 13.4216309 211.419189 13.9992618 211.419189 15.154541 211.419189 16.2756404 211.825923 16.8361816 212.639404 16.8361816 212.940187 16.8361816 213.218748 16.7960209 213.475097 16.7156982 213.731446 16.6353756 213.987791 16.5097665 214.24414 16.3388672L214.24414 17.677002C213.991209 17.8376473 213.735719 17.9487302 213.477661 18.0102539 213.219603 18.0717777 212.894045 18.1025391 212.500976 18.1025391zM216.517871 15.1237793C216.517871 15.6911649 216.611009 16.1201157 216.79729 16.4106445 216.98357 16.7011733 217.286912 16.8464355 217.707324 16.8464355 218.124318 16.8464355 218.424242 16.7020278 218.607104 16.413208 218.789966 16.1243882 218.881396 15.6945829 218.881396 15.1237793 218.881396 14.5563936 218.789112 14.1308608 218.604541 13.847168 218.419969 13.5634751 218.117482 13.4216309 217.69707 13.4216309 217.280076 13.4216309 216.979297 13.5626207 216.794726 13.8446045 216.610155 14.1265883 216.517871 14.5529757 216.517871 15.1237793zM220.481005 15.1237793C220.481005 16.0568894 220.234914 16.7866185 219.742724 17.3129883 219.250534 17.8393581 218.565238 18.1025391 217.686816 18.1025391 217.13652 18.1025391 216.651174 17.9820569 216.230761 17.7410889 215.810349 17.5001209 215.487354 17.154055 215.261767 16.7028809 215.03618 16.2517067 214.923388 15.7253448 214.923388 15.1237793 214.923388 14.1872512 215.167771 13.4592311 215.656543 12.9396973 216.145315 12.4201634 216.832319 12.1604004 217.717578 12.1604004 218.267873 12.1604004 218.75322 12.2800281 219.173632 12.5192871 219.594045 12.7585461 219.91704 13.1020485 220.142627 13.5498047 220.368214 13.9975608 220.481005 14.5222138 220.481005 15.1237793zM224.672216 12.1604004C224.884132 12.1604004 225.060155 12.1757811 225.200293 12.206543L225.082373 13.6728516C224.955907 13.6386717 224.8021 13.621582 224.620947 13.621582 224.121921 13.621582 223.733131 13.7497546 223.454565 14.0061035 223.175999 14.2624525 223.036718 14.6213356 223.036718 15.0827637L223.036718 18 221.472998 18 221.472998 12.2680664 222.657324 12.2680664 222.888037 13.2319336 222.964941 13.2319336C223.142676 12.9106429 223.382786 12.6517344 223.685278 12.4552002 223.98777 12.258666 224.316746 12.1604004 224.672216 12.1604004zM228.104638 13.2729492C227.773094 13.2729492 227.513331 13.3780507 227.325341 13.5882568 227.137352 13.798463 227.029687 14.0966778 227.002343 14.4829102L229.196679 14.4829102C229.189843 14.0966778 229.089014 13.798463 228.894189 13.5882568 228.699364 13.3780507 228.436183 13.2729492 228.104638 13.2729492zM228.325097 18.1025391C227.402241 18.1025391 226.681057 17.8479029 226.161523 17.338623 225.641989 16.8293432 225.382226 16.108159 225.382226 15.1750488 225.382226 14.2145948 225.622336 13.4720485 226.102563 12.9473877 226.58279 12.4227269 227.246724 12.1604004 228.094384 12.1604004 228.904447 12.1604004 229.535056 12.391111 229.98623 12.8525391 230.437404 13.3139672 230.662988 13.9514119 230.662988 14.7648926L230.662988 15.5236816 226.966455 15.5236816C226.983545 15.9680198 227.115135 16.3149402 227.36123 16.5644531 227.607325 16.8139661 227.952536 16.9387207 228.396875 16.9387207 228.742091 16.9387207 229.068504 16.9028324 229.376123 16.8310547 229.683741 16.759277 230.005027 16.6447762 230.33999 16.4875488L230.33999 17.6975098C230.066551 17.8342292 229.774318 17.9359128 229.463281 18.0025635 229.152244 18.0692142 228.772853 18.1025391 228.325097 18.1025391zM235.633496 16.2978516C235.633496 16.8857451 235.429274 17.3334946 235.020825 17.6411133 234.612375 17.948732 234.00142 18.1025391 233.187939 18.1025391 232.770945 18.1025391 232.41548 18.0743411 232.121533 18.0179443 231.827586 17.9615476 231.552442 17.8786627 231.296093 17.7692871L231.296093 16.4772949C231.586622 16.6140144 231.913889 16.7285152 232.277905 16.8208008 232.64192 16.9130864 232.962352 16.9592285 233.239209 16.9592285 233.806594 16.9592285 234.090283 16.7951677 234.090283 16.467041 234.090283 16.3439935 234.052686 16.2440189 233.97749 16.1671143 233.902294 16.0902096 233.772413 16.0030522 233.587841 15.9056396 233.40327 15.8082271 233.157179 15.6945807 232.84956 15.5646973 232.40864 15.380126 232.084791 15.2092293 231.878003 15.052002 231.671214 14.8947746 231.520825 14.7144786 231.426831 14.5111084 231.332836 14.3077382 231.285839 14.0573745 231.285839 13.7600098 231.285839 13.2507299 231.483225 12.8568129 231.878003 12.5782471 232.27278 12.2996812 232.832467 12.1604004 233.55708 12.1604004 234.247513 12.1604004 234.919137 12.3107895 235.571972 12.6115723L235.100293 13.739502C234.813182 13.6164545 234.544874 13.5156254 234.295361 13.4370117 234.045848 13.358398 233.791212 13.3190918 233.531445 13.3190918 233.070017 13.3190918 232.839306 13.4438464 232.839306 13.6933594 232.839306 13.8334968 232.913646 13.9548335 233.062329 14.057373 233.211011 14.1599126 233.536569 14.3120107 234.039013 14.5136719 234.486769 14.6948251 234.814891 14.8640129 235.023388 15.0212402 235.231885 15.1784676 235.385692 15.3596181 235.484814 15.5646973 235.583936 15.7697764 235.633496 16.0141587 235.633496 16.2978516zM238.08667 16.8977051C237.908934 17.5881382 237.608156 18.4067335 237.184326 19.3535156L236.056396 19.3535156C236.278565 18.4443314 236.451171 17.5864298 236.574218 16.7797852L238.009765 16.7797852 238.08667 16.8977051zM72.0092773 27.2604004C72.6860385 27.2604004 73.2158184 27.5244359 73.5986328 28.0525147 73.9814472 28.5805935 74.1728516 29.3043411 74.1728516 30.2237793 74.1728516 31.1705614 73.9754658 31.9037084 73.5806885 32.4232422 73.1859111 32.9427761 72.6484409 33.2025391 71.9682617 33.2025391 71.2949185 33.2025391 70.7668476 32.9581568 70.3840332 32.4693848L70.2763672 32.4693848 70.0148926 33.1 68.8203125 33.1 68.8203125 25.122461 70.3840332 25.122461 70.3840332 26.978418C70.3840332 27.214259 70.3635256 27.5919408 70.3225098 28.1114746L70.3840332 28.1114746C70.7497577 27.544089 71.2915003 27.2604004 72.0092773 27.2604004zM71.5068359 28.511377C71.1206035 28.511377 70.8386239 28.6301502 70.6608887 28.8677002 70.4831534 29.1052502 70.3908692 29.4974582 70.3840332 30.044336L70.3840332 30.2135254C70.3840332 30.8287629 70.475463 31.2696764 70.6583252 31.5362793 70.8411874 31.8028822 71.1308574 31.9361817 71.5273438 31.9361817 71.8486344 31.9361817 72.104125 31.788356 72.2938232 31.4927002 72.4835215 31.1970444 72.5783691 30.7672392 72.5783691 30.2032715 72.5783691 29.6393038 72.482667 29.2163344 72.2912598 28.9343506 72.0998526 28.6523668 71.8383806 28.511377 71.5068359 28.511377zM78.3640625 27.2604004C78.5759776 27.2604004 78.7520012 27.2757811 78.8921387 27.306543L78.7742187 28.7728516C78.6477533 28.7386717 78.4939462 28.7215821 78.312793 28.7215821 77.813767 28.7215821 77.424977 28.8497546 77.1464111 29.1061035 76.8678453 29.3624525 76.7285644 29.7213356 76.7285644 30.1827637L76.7285644 33.1 75.1648437 33.1 75.1648437 27.3680664 76.3491699 27.3680664 76.5798828 28.3319336 76.6567871 28.3319336C76.8345224 28.0106429 77.0746323 27.7517344 77.377124 27.5552002 77.6796158 27.358666 78.008592 27.2604004 78.3640625 27.2604004zM81.7964844 28.3729492C81.4649397 28.3729492 81.2051767 28.4780507 81.0171875 28.6882569 80.8291983 28.898463 80.7215333 29.1966778 80.6941894 29.5829102L82.8885254 29.5829102C82.8816894 29.1966778 82.7808603 28.898463 82.5860351 28.6882569 82.3912099 28.4780507 82.128029 28.3729492 81.7964844 28.3729492zM82.0169433 33.2025391C81.0940872 33.2025391 80.372903 32.947903 79.8533691 32.4386231 79.3338353 31.9293432 79.0740722 31.208159 79.0740722 30.2750489 79.0740722 29.3145948 79.3141821 28.5720485 79.7944092 28.0473877 80.2746362 27.5227269 80.93857 27.2604004 81.7862304 27.2604004 82.5962931 27.2604004 83.226902 27.491111 83.6780761 27.9525391 84.1292503 28.4139672 84.354834 29.051412 84.354834 29.8648926L84.354834 30.6236817 80.6583008 30.6236817C80.6753907 31.0680198 80.8069812 31.4149402 81.0530761 31.6644531 81.2991711 31.9139661 81.6443825 32.0387207 82.0887207 32.0387207 82.4339372 32.0387207 82.76035 32.0028324 83.0679687 31.9310547 83.3755875 31.859277 83.6968733 31.7447762 84.0318359 31.5875489L84.0318359 32.7975098C83.758397 32.9342292 83.4661636 33.0359128 83.1551269 33.1025635 82.8440902 33.1692142 82.4646995 33.2025391 82.0169433 33.2025391zM88.966455 33.1L88.6639648 32.3207031 88.6229492 32.3207031C88.3597643 32.6522478 88.088893 32.8821039 87.8103271 33.0102783 87.5317613 33.1384528 87.1686057 33.2025391 86.7208496 33.2025391 86.1705539 33.2025391 85.7373306 33.0453141 85.421167 32.7308594 85.1050033 32.4164047 84.9469238 31.9686553 84.9469238 31.3875977 84.9469238 30.7791962 85.1596902 30.3305923 85.5852295 30.0417725 86.0107687 29.7529527 86.6524859 29.5931642 87.5104004 29.5624024L88.5050293 29.5316406 88.5050293 29.2804199C88.5050293 28.6993624 88.207669 28.4088379 87.6129394 28.4088379 87.1549293 28.4088379 86.6166046 28.5472643 85.9979492 28.8241211L85.4801269 27.7679688C86.1397982 27.4227522 86.8712362 27.2501465 87.6744629 27.2501465 88.4435097 27.2501465 89.0331034 27.4176253 89.4432617 27.7525879 89.85342 28.0875505 90.0584961 28.5968228 90.0584961 29.2804199L90.0584961 33.1 88.966455 33.1zM88.5050293 30.4442383L87.9000488 30.4647461C87.4454567 30.4784181 87.1070812 30.5604485 86.8849121 30.7108399 86.662743 30.8612312 86.5516601 31.0902329 86.5516601 31.3978516 86.5516601 31.8387718 86.8045873 32.0592285 87.3104492 32.0592285 87.6727557 32.0592285 87.9624256 31.9549815 88.1794677 31.7464844 88.3965098 31.5379873 88.5050293 31.2611346 88.5050293 30.915918L88.5050293 30.4442383zM92.8705566 29.9828125L93.5524414 29.1112305 95.1571777 27.3680664 96.9208496 27.3680664 94.6444824 29.8546387 97.0592773 33.1 95.2545898 33.1 93.6037109 30.7774903 92.93208 31.3158203 92.93208 33.1 91.3683593 33.1 91.3683593 25.122461 92.93208 25.122461 92.93208 28.6805664 92.8500488 29.9828125 92.8705566 29.9828125zM97.5129394 25.886377C97.5129394 25.3770971 97.796628 25.122461 98.3640136 25.122461 98.9313993 25.122461 99.2150878 25.3770971 99.2150878 25.886377 99.2150878 26.129054 99.1441657 26.3178949 99.0023193 26.4529053 98.8604729 26.5879157 98.6477064 26.6554199 98.3640136 26.6554199 97.796628 26.6554199 97.5129394 26.3990749 97.5129394 25.886377zM99.1433105 33.1L97.5795898 33.1 97.5795898 27.3680664 99.1433105 27.3680664 99.1433105 33.1zM105.774951 33.1L104.21123 33.1 104.21123 29.7520996C104.21123 29.3385233 104.137745 29.0283458 103.990771 28.8215576 103.843798 28.6147695 103.60967 28.511377 103.288379 28.511377 102.850877 28.511377 102.534718 28.6574937 102.339893 28.9497315 102.145067 29.2419693 102.047656 29.7264615 102.047656 30.4032227L102.047656 33.1 100.483935 33.1 100.483935 27.3680664 101.678516 27.3680664 101.888721 28.1012207 101.975879 28.1012207C102.150196 27.8243639 102.390306 27.6150154 102.696216 27.473169 103.002125 27.3313226 103.3499 27.2604004 103.739551 27.2604004 104.406058 27.2604004 104.911912 27.4406965 105.257129 27.801294 105.602345 28.1618915 105.774951 28.682272 105.774951 29.3624512L105.774951 33.1zM112.07334 27.3680664L112.07334 28.1627442 111.176123 28.3934571C111.340186 28.649806 111.422217 28.9369125 111.422217 29.2547852 111.422217 29.8700226 111.207741 30.349388 110.778784 30.6928955 110.349827 31.0364031 109.754252 31.2081543 108.992041 31.2081543L108.710059 31.1927735 108.479346 31.1671387C108.3187 31.2901862 108.238379 31.4269036 108.238379 31.5772949 108.238379 31.802882 108.525485 31.9156739 109.099707 31.9156739L110.073828 31.9156739C110.702737 31.9156739 111.182103 32.0506823 111.511938 32.3207031 111.841774 32.590724 112.006689 32.9872044 112.006689 33.5101563 112.006689 34.1800815 111.727273 34.6996076 111.168433 35.06875 110.609592 35.4378925 109.807232 35.622461 108.761328 35.622461 107.961519 35.622461 107.350564 35.4831801 106.928442 35.2046143 106.506321 34.9260484 106.295264 34.5355494 106.295264 34.0331055 106.295264 33.6878889 106.402929 33.3990735 106.618262 33.1666504 106.833595 32.9342274 107.149754 32.7684576 107.566748 32.669336 107.406103 32.6009762 107.265967 32.4890389 107.146338 32.3335205 107.026708 32.1780022 106.966894 32.0130868 106.966894 31.8387696 106.966894 31.6200185 107.030126 31.4380134 107.156592 31.292749 107.283057 31.1474846 107.465917 31.0047859 107.705176 30.8646485 107.404393 30.734765 107.165992 30.526271 106.989966 30.2391602 106.813939 29.9520494 106.725928 29.6136738 106.725928 29.2240235 106.725928 28.5985321 106.929295 28.1148943 107.336035 27.7730957 107.742775 27.4312971 108.323824 27.2604004 109.079199 27.2604004 109.239844 27.2604004 109.430394 27.2749266 109.650854 27.3039795 109.871314 27.3330324 110.012304 27.3543945 110.073828 27.3680664L112.07334 27.3680664zM107.648779 33.9100586C107.648779 34.1253917 107.752172 34.2945795 107.95896 34.417627 108.165748 34.5406745 108.455418 34.6021973 108.827978 34.6021973 109.388528 34.6021973 109.827733 34.5252938 110.145605 34.3714844 110.463478 34.217675 110.622412 34.0074721 110.622412 33.7408692 110.622412 33.5255361 110.528419 33.3768559 110.34043 33.2948242 110.15244 33.2127926 109.861916 33.1717774 109.468848 33.1717774L108.658789 33.1717774C108.371678 33.1717774 108.131568 33.2392816 107.938452 33.374292 107.745336 33.5093025 107.648779 33.6878895 107.648779 33.9100586zM108.217871 29.2445313C108.217871 29.555568 108.288793 29.8016593 108.43064 29.9828125 108.572486 30.1639658 108.78867 30.254541 109.079199 30.254541 109.373146 30.254541 109.588476 30.1639658 109.725195 29.9828125 109.861915 29.8016593 109.930273 29.555568 109.930273 29.2445313 109.930273 28.5540981 109.646585 28.2088867 109.079199 28.2088867 108.504978 28.2088867 108.217871 28.5540981 108.217871 29.2445313zM120.435254 33.1L118.871533 33.1 118.871533 29.7520996C118.871533 29.3385233 118.798048 29.0283458 118.651074 28.8215576 118.504101 28.6147695 118.269972 28.511377 117.948682 28.511377 117.511179 28.511377 117.19502 28.6574937 117.000195 28.9497315 116.80537 29.2419693 116.707959 29.7264615 116.707959 30.4032227L116.707959 33.1 115.144238 33.1 115.144238 27.3680664 116.338818 27.3680664 116.549023 28.1012207 116.636182 28.1012207C116.810499 27.8243639 117.050609 27.6150154 117.356518 27.473169 117.662428 27.3313226 118.010203 27.2604004 118.399853 27.2604004 119.066361 27.2604004 119.572215 27.4406965 119.917432 27.801294 120.262648 28.1618915 120.435254 28.682272 120.435254 29.3624512L120.435254 33.1zM124.118896 28.3729492C123.787352 28.3729492 123.527589 28.4780507 123.339599 28.6882569 123.15161 28.898463 123.043945 29.1966778 123.016601 29.5829102L125.210937 29.5829102C125.204101 29.1966778 125.103272 28.898463 124.908447 28.6882569 124.713622 28.4780507 124.450441 28.3729492 124.118896 28.3729492zM124.339355 33.2025391C123.416499 33.2025391 122.695315 32.947903 122.175781 32.4386231 121.656247 31.9293432 121.396484 31.208159 121.396484 30.2750489 121.396484 29.3145948 121.636594 28.5720485 122.116821 28.0473877 122.597048 27.5227269 123.260982 27.2604004 124.108642 27.2604004 124.918705 27.2604004 125.549314 27.491111 126.000488 27.9525391 126.451662 28.4139672 126.677246 29.051412 126.677246 29.8648926L126.677246 30.6236817 122.980713 30.6236817C122.997803 31.0680198 123.129393 31.4149402 123.375488 31.6644531 123.621583 31.9139661 123.966795 32.0387207 124.411133 32.0387207 124.756349 32.0387207 125.082762 32.0028324 125.390381 31.9310547 125.697999 31.859277 126.019285 31.7447762 126.354248 31.5875489L126.354248 32.7975098C126.080809 32.9342292 125.788576 33.0359128 125.477539 33.1025635 125.166502 33.1692142 124.787111 33.2025391 124.339355 33.2025391zM132.150195 33.1L131.709277 31.0953614 131.114551 28.5626465 131.078662 28.5626465 130.032764 33.1 128.351123 33.1 126.720752 27.3680664 128.279346 27.3680664 128.940723 29.9059082C129.04668 30.3605003 129.154345 30.9876913 129.263721 31.7875L129.294482 31.7875C129.308154 31.5277331 129.367968 31.115872 129.473926 30.5519043L129.555957 30.1161133 130.263476 27.3680664 131.986133 27.3680664 132.657764 30.1161133C132.671435 30.191309 132.692798 30.3023919 132.72185 30.4493653 132.750903 30.5963386 132.779101 30.7527092 132.806445 30.9184815 132.833789 31.0842538 132.858569 31.2466057 132.880786 31.405542 132.903003 31.5644784 132.91582 31.6917964 132.919238 31.7875L132.95 31.7875C132.980762 31.541405 133.035449 31.203884 133.114062 30.7749268 133.192676 30.3459696 133.249072 30.0562996 133.283252 29.9059082L133.970264 27.3680664 135.503223 27.3680664 133.852344 33.1 132.150195 33.1zM140.125098 31.3978516C140.125098 31.9857452 139.920876 32.4334946 139.512427 32.7411133 139.103977 33.048732 138.493022 33.2025391 137.679541 33.2025391 137.262547 33.2025391 136.907081 33.1743411 136.613135 33.1179444 136.319188 33.0615476 136.044044 32.9786627 135.787695 32.8692871L135.787695 31.5772949C136.078224 31.7140144 136.405491 31.8285152 136.769507 31.9208008 137.133522 32.0130864 137.453954 32.0592285 137.73081 32.0592285 138.298196 32.0592285 138.581885 31.8951677 138.581885 31.567041 138.581885 31.4439935 138.544287 31.344019 138.469092 31.2671143 138.393896 31.1902096 138.264014 31.1030523 138.079443 31.0056397 137.894872 30.9082271 137.648781 30.7945808 137.341162 30.6646973 136.900242 30.4801261 136.576392 30.3092293 136.369604 30.152002 136.162816 29.9947746 136.012427 29.8144786 135.918432 29.6111084 135.824438 29.4077383 135.777441 29.1573746 135.777441 28.8600098 135.777441 28.3507299 135.974827 27.9568129 136.369604 27.6782471 136.764382 27.3996812 137.324068 27.2604004 138.048681 27.2604004 138.739115 27.2604004 139.410739 27.4107895 140.063574 27.7115723L139.591894 28.839502C139.304784 28.7164545 139.036476 28.6156254 138.786963 28.5370117 138.53745 28.4583981 138.282814 28.4190918 138.023047 28.4190918 137.561619 28.4190918 137.330908 28.5438464 137.330908 28.7933594 137.330908 28.9334968 137.405248 29.0548335 137.553931 29.1573731 137.702613 29.2599126 138.028171 29.4120107 138.530615 29.6136719 138.978371 29.7948251 139.306493 29.9640129 139.51499 30.1212403 139.723487 30.2784676 139.877294 30.4596181 139.976416 30.6646973 140.075537 30.8697764 140.125098 31.1141588 140.125098 31.3978516zM142.578271 31.9977051C142.400536 32.6881382 142.099758 33.5067336 141.675928 34.4535156L140.547998 34.4535156C140.770167 33.5443314 140.942773 32.6864298 141.06582 31.8797852L142.501367 31.8797852 142.578271 31.9977051zM149.858398 33.1L149.555908 32.3207031 149.514892 32.3207031C149.251707 32.6522478 148.980836 32.8821039 148.70227 33.0102783 148.423704 33.1384528 148.060549 33.2025391 147.612793 33.2025391 147.062497 33.2025391 146.629274 33.0453141 146.31311 32.7308594 145.996946 32.4164047 145.838867 31.9686553 145.838867 31.3875977 145.838867 30.7791962 146.051633 30.3305923 146.477173 30.0417725 146.902712 29.7529527 147.544429 29.5931642 148.402344 29.5624024L149.396972 29.5316406 149.396972 29.2804199C149.396972 28.6993624 149.099612 28.4088379 148.504883 28.4088379 148.046873 28.4088379 147.508548 28.5472643 146.889892 28.8241211L146.37207 27.7679688C147.031741 27.4227522 147.763179 27.2501465 148.566406 27.2501465 149.335453 27.2501465 149.925047 27.4176253 150.335205 27.7525879 150.745363 28.0875505 150.950439 28.5968228 150.950439 29.2804199L150.950439 33.1 149.858398 33.1zM149.396972 30.4442383L148.791992 30.4647461C148.3374 30.4784181 147.999024 30.5604485 147.776855 30.7108399 147.554686 30.8612312 147.443603 31.0902329 147.443603 31.3978516 147.443603 31.8387718 147.69653 32.0592285 148.202392 32.0592285 148.564699 32.0592285 148.854369 31.9549815 149.071411 31.7464844 149.288453 31.5379873 149.396972 31.2611346 149.396972 30.915918L149.396972 30.4442383zM157.551318 33.1L155.987597 33.1 155.987597 29.7520996C155.987597 29.3385233 155.914112 29.0283458 155.767138 28.8215576 155.620165 28.6147695 155.386037 28.511377 155.064746 28.511377 154.627244 28.511377 154.311085 28.6574937 154.11626 28.9497315 153.921434 29.2419693 153.824023 29.7264615 153.824023 30.4032227L153.824023 33.1 152.260303 33.1 152.260303 27.3680664 153.454883 27.3680664 153.665088 28.1012207 153.752246 28.1012207C153.926563 27.8243639 154.166673 27.6150154 154.472583 27.473169 154.778493 27.3313226 155.126267 27.2604004 155.515918 27.2604004 156.182425 27.2604004 156.688279 27.4406965 157.033496 27.801294 157.378712 28.1618915 157.551318 28.682272 157.551318 29.3624512L157.551318 33.1zM160.676123 33.2025391C160.00278 33.2025391 159.473854 32.9410671 159.089331 32.4181153 158.704807 31.8951634 158.512549 31.1705613 158.512549 30.2442871 158.512549 29.304341 158.708225 28.5720485 159.099585 28.0473877 159.490944 27.5227269 160.030123 27.2604004 160.717138 27.2604004 161.438333 27.2604004 161.988621 27.540671 162.368017 28.1012207L162.419287 28.1012207C162.340673 27.6739725 162.301367 27.2928728 162.301367 26.9579102L162.301367 25.122461 163.870215 25.122461 163.870215 33.1 162.670508 33.1 162.368017 32.3565918 162.301367 32.3565918C161.945896 32.9205595 161.404154 33.2025391 160.676123 33.2025391zM161.224707 31.9566895C161.624611 31.9566895 161.917699 31.8404797 162.103979 31.6080567 162.29026 31.3756336 162.391943 30.9808622 162.409033 30.4237305L162.409033 30.254541C162.409033 29.6393036 162.314185 29.19839 162.124487 28.9317871 161.934789 28.6651842 161.62632 28.5318848 161.199072 28.5318848 160.850438 28.5318848 160.579566 28.6797105 160.38645 28.9753662 160.193334 29.271022 160.096777 29.7008273 160.096777 30.2647949 160.096777 30.8287626 160.194188 31.251732 160.389013 31.5337158 160.583839 31.8156997 160.8624 31.9566895 161.224707 31.9566895zM172.765332 33.1L171.201611 33.1 171.201611 29.7520996C171.201611 29.3385233 171.132398 29.0283458 170.99397 28.8215576 170.855541 28.6147695 170.637648 28.511377 170.340283 28.511377 169.940379 28.511377 169.649854 28.6583482 169.468701 28.9522949 169.287548 29.2462417 169.196972 29.7298795 169.196972 30.4032227L169.196972 33.1 167.633252 33.1 167.633252 27.3680664 168.827832 27.3680664 169.038037 28.1012207 169.125195 28.1012207C169.279004 27.8380358 169.50117 27.6321053 169.791699 27.4834229 170.082228 27.3347405 170.415476 27.2604004 170.791455 27.2604004 171.649369 27.2604004 172.230418 27.540671 172.534619 28.1012207L172.673047 28.1012207C172.826856 27.8346178 173.053294 27.6278328 173.352368 27.4808594 173.651442 27.333886 173.988963 27.2604004 174.364941 27.2604004 175.014358 27.2604004 175.505687 27.4270247 175.83894 27.7602783 176.172194 28.093532 176.338818 28.6275842 176.338818 29.3624512L176.338818 33.1 174.76997 33.1 174.76997 29.7520996C174.76997 29.3385233 174.700757 29.0283458 174.562329 28.8215576 174.4239 28.6147695 174.206007 28.511377 173.908642 28.511377 173.525828 28.511377 173.239576 28.6480944 173.049878 28.9215332 172.860179 29.1949721 172.765332 29.6290498 172.765332 30.2237793L172.765332 33.1zM178.889404 30.2237793C178.889404 30.791165 178.982543 31.2201158 179.168823 31.5106446 179.355103 31.8011734 179.658445 31.9464356 180.078857 31.9464356 180.495851 31.9464356 180.795775 31.8020278 180.978637 31.513208 181.1615 31.2243882 181.252929 30.794583 181.252929 30.2237793 181.252929 29.6563937 181.160645 29.2308608 180.976074 28.947168 180.791503 28.6634752 180.489016 28.5216309 180.068603 28.5216309 179.651609 28.5216309 179.350831 28.6626207 179.16626 28.9446045 178.981688 29.2265883 178.889404 29.6529757 178.889404 30.2237793zM182.852539 30.2237793C182.852539 31.1568895 182.606448 31.8866185 182.114258 32.4129883 181.622068 32.9393581 180.936772 33.2025391 180.058349 33.2025391 179.508054 33.2025391 179.022707 33.0820569 178.602295 32.8410889 178.181882 32.6001209 177.858888 32.254055 177.633301 31.8028809 177.407713 31.3517068 177.294922 30.8253448 177.294922 30.2237793 177.294922 29.2872512 177.539304 28.5592311 178.028076 28.0396973 178.516848 27.5201634 179.203853 27.2604004 180.089111 27.2604004 180.639407 27.2604004 181.124754 27.3800281 181.545166 27.6192871 181.965578 27.8585461 182.288573 28.2020486 182.51416 28.6498047 182.739747 29.0975609 182.852539 29.6222138 182.852539 30.2237793zM187.04375 27.2604004C187.255665 27.2604004 187.431689 27.2757811 187.571826 27.306543L187.453906 28.7728516C187.327441 28.7386717 187.173633 28.7215821 186.99248 28.7215821 186.493454 28.7215821 186.104664 28.8497546 185.826098 29.1061035 185.547533 29.3624525 185.408252 29.7213356 185.408252 30.1827637L185.408252 33.1 183.844531 33.1 183.844531 27.3680664 185.028857 27.3680664 185.25957 28.3319336 185.336474 28.3319336C185.51421 28.0106429 185.75432 27.7517344 186.056811 27.5552002 186.359303 27.358666 186.688279 27.2604004 187.04375 27.2604004zM190.476172 28.3729492C190.144627 28.3729492 189.884864 28.4780507 189.696875 28.6882569 189.508886 28.898463 189.401221 29.1966778 189.373877 29.5829102L191.568213 29.5829102C191.561377 29.1966778 191.460548 28.898463 191.265722 28.6882569 191.070897 28.4780507 190.807716 28.3729492 190.476172 28.3729492zM190.696631 33.2025391C189.773774 33.2025391 189.05259 32.947903 188.533056 32.4386231 188.013523 31.9293432 187.75376 31.208159 187.75376 30.2750489 187.75376 29.3145948 187.993869 28.5720485 188.474096 28.0473877 188.954323 27.5227269 189.618257 27.2604004 190.465918 27.2604004 191.27598 27.2604004 191.906589 27.491111 192.357763 27.9525391 192.808938 28.4139672 193.034521 29.051412 193.034521 29.8648926L193.034521 30.6236817 189.337988 30.6236817C189.355078 31.0680198 189.486668 31.4149402 189.732763 31.6644531 189.978858 31.9139661 190.32407 32.0387207 190.768408 32.0387207 191.113625 32.0387207 191.440037 32.0028324 191.747656 31.9310547 192.055275 31.859277 192.376561 31.7447762 192.711523 31.5875489L192.711523 32.7975098C192.438084 32.9342292 192.145851 33.0359128 191.834814 33.1025635 191.523777 33.1692142 191.144387 33.2025391 190.696631 33.2025391zM195.318506 30.6134278L194.067529 30.6134278 193.806054 25.6043946 195.57998 25.6043946 195.318506 30.6134278zM193.785547 32.3668457C193.785547 32.0797349 193.86245 31.8626961 194.016259 31.7157227 194.170069 31.5687493 194.393944 31.4952637 194.68789 31.4952637 194.971583 31.4952637 195.191185 31.5704583 195.346704 31.7208496 195.502222 31.871241 195.57998 32.0865709 195.57998 32.3668457 195.57998 32.6368666 195.501368 32.849633 195.34414 33.0051514 195.186913 33.1606697 194.968165 33.2384278 194.68789 33.2384278 194.40078 33.2384278 194.178614 33.1623787 194.021386 33.0102783 193.864159 32.858178 193.785547 32.6437026 193.785547 32.3668457zM74.6796875 49.3623047C74.6796875 50.540696 74.3598665 51.4415659 73.7202148 52.0649414 73.0805632 52.6883169 72.1601623 53 70.9589844 53L68.9814453 53 68.9814453 45.8613281 71.1689453 45.8613281C72.2789769 45.8613281 73.1415985 46.1689422 73.7568359 46.7841797 74.3720734 47.3994171 74.6796875 48.2587835 74.6796875 49.3623047zM73.8007812 49.3916016C73.8007812 48.4606073 73.5672224 47.7591169 73.1000977 47.2871094 72.6329729 46.8151018 71.9388067 46.5791016 71.0175781 46.5791016L69.8115234 46.5791016 69.8115234 52.2822266 70.8222656 52.2822266C71.8118539 52.2822266 72.5556616 52.0389022 73.0537109 51.5522461 73.5517603 51.06559 73.8007812 50.3453824 73.8007812 49.3916016zM80.7685547 50.3193359C80.7685547 51.1917361 80.5488303 51.8728817 80.109375 52.362793 79.6699197 52.8527043 79.0628294 53.0976562 78.2880859 53.0976562 77.8095679 53.0976562 77.3847675 52.9853527 77.0136719 52.7607422 76.6425763 52.5361317 76.3561208 52.2138693 76.1542969 51.7939453 75.9524729 51.3740213 75.8515625 50.8824898 75.8515625 50.3193359 75.8515625 49.4469357 76.0696593 48.7674178 76.5058594 48.2807617 76.9420595 47.7941056 77.5475222 47.5507812 78.3222656 47.5507812 79.0709673 47.5507812 79.6658507 47.7998022 80.1069336 48.2978516 80.5480165 48.7959009 80.7685547 49.4697223 80.7685547 50.3193359zM76.6914062 50.3193359C76.6914062 51.0029331 76.8281236 51.5237612 77.1015625 51.8818359 77.3750014 52.2399106 77.7770156 52.4189453 78.3076172 52.4189453 78.8382188 52.4189453 79.2410468 52.2407244 79.5161133 51.8842773 79.7911798 51.5278302 79.9287109 51.0061883 79.9287109 50.3193359 79.9287109 49.638994 79.7911798 49.1222348 79.5161133 48.769043 79.2410468 48.4158511 78.8349636 48.2392578 78.2978516 48.2392578 77.76725 48.2392578 77.3668633 48.4134097 77.0966797 48.7617188 76.826496 49.1100278 76.6914062 49.6292283 76.6914062 50.3193359zM86.5595703 53L85.578125 49.8603516C85.5162757 49.6682933 85.400717 49.2320998 85.2314453 48.5517578L85.1923828 48.5517578C85.0621738 49.1214221 84.9482427 49.5608708 84.8505859 49.8701172L83.8398438 53 82.9023438 53 81.4423828 47.6484375 82.2919922 47.6484375C82.637046 48.9928453 82.8999014 50.016598 83.0805664 50.7197266 83.2612314 51.4228551 83.3645832 51.8964832 83.390625 52.140625L83.4296875 52.140625C83.465495 51.9550772 83.5232743 51.715008 83.6030273 51.4204102 83.6827803 51.1258123 83.7519528 50.8922535 83.8105469 50.7197266L84.7919922 47.6484375 85.6708984 47.6484375 86.6279297 50.7197266C86.8102223 51.2796252 86.9339189 51.7499981 86.9990234 52.1308594L87.0380859 52.1308594C87.0511068 52.0136713 87.0861 51.833009 87.1430664 51.5888672 87.2000328 51.3447253 87.5393849 50.0312619 88.1611328 47.6484375L89.0009766 47.6484375 87.5214844 53 86.5595703 53zM93.6298828 53L93.6298828 49.5380859C93.6298828 49.1018858 93.5306 48.7763683 93.3320312 48.5615234 93.1334625 48.3466786 92.8225933 48.2392578 92.3994141 48.2392578 91.8395154 48.2392578 91.4293633 48.3906235 91.1689453 48.6933594 90.9085273 48.9960953 90.7783203 49.4957647 90.7783203 50.1923828L90.7783203 53 89.9677734 53 89.9677734 47.6484375 90.6269531 47.6484375 90.7587891 48.3808594 90.7978516 48.3808594C90.963868 48.1171862 91.1966131 47.9129239 91.4960938 47.7680664 91.7955744 47.6232089 92.1292299 47.5507812 92.4970703 47.5507812 93.1416048 47.5507812 93.626626 47.7062159 93.9521484 48.0170898 94.2776709 48.3279638 94.4404297 48.8251919 94.4404297 49.5087891L94.4404297 53 93.6298828 53zM96.9160156 53L96.1054688 53 96.1054688 45.4023438 96.9160156 45.4023438 96.9160156 53zM103.253906 50.3193359C103.253906 51.1917361 103.034182 51.8728817 102.594727 52.362793 102.155271 52.8527043 101.548181 53.0976562 100.773438 53.0976562 100.294919 53.0976562 99.870119 52.9853527 99.4990234 52.7607422 99.1279278 52.5361317 98.8414724 52.2138693 98.6396484 51.7939453 98.4378245 51.3740213 98.3369141 50.8824898 98.3369141 50.3193359 98.3369141 49.4469357 98.5550108 48.7674178 98.9912109 48.2807617 99.427411 47.7941056 100.032874 47.5507812 100.807617 47.5507812 101.556319 47.5507812 102.151202 47.7998022 102.592285 48.2978516 103.033368 48.7959009 103.253906 49.4697223 103.253906 50.3193359zM99.1767578 50.3193359C99.1767578 51.0029331 99.3134752 51.5237612 99.5869141 51.8818359 99.8603529 52.2399106 100.262367 52.4189453 100.792969 52.4189453 101.32357 52.4189453 101.726398 52.2407244 102.001465 51.8842773 102.276531 51.5278302 102.414062 51.0061883 102.414062 50.3193359 102.414062 49.638994 102.276531 49.1222348 102.001465 48.769043 101.726398 48.4158511 101.320315 48.2392578 100.783203 48.2392578 100.252602 48.2392578 99.8522149 48.4134097 99.5820312 48.7617188 99.3118476 49.1100278 99.1767578 49.6292283 99.1767578 50.3193359zM107.96582 53L107.804688 52.2382812 107.765625 52.2382812C107.498697 52.5735694 107.232586 52.8006179 106.967285 52.9194336 106.701984 53.0382493 106.37077 53.0976562 105.973633 53.0976562 105.443031 53.0976562 105.027182 52.9609389 104.726074 52.6875 104.424966 52.4140611 104.274414 52.0250676 104.274414 51.5205078 104.274414 50.4397732 105.138663 49.8733727 106.867188 49.8212891L107.775391 49.7919922 107.775391 49.4599609C107.775391 49.040037 107.685059 48.7299815 107.504395 48.5297852 107.32373 48.3295888 107.034833 48.2294922 106.637695 48.2294922 106.19173 48.2294922 105.687177 48.3662096 105.124023 48.6396484L104.875 48.0195312C105.138673 47.8763014 105.42757 47.7639978 105.741699 47.6826172 106.055828 47.6012366 106.370767 47.5605469 106.686523 47.5605469 107.324547 47.5605469 107.797362 47.702147 108.10498 47.9853516 108.412599 48.2685561 108.566406 48.7226531 108.566406 49.3476562L108.566406 53 107.96582 53zM106.134766 52.4287109C106.639325 52.4287109 107.035643 52.290366 107.32373 52.0136719 107.611818 51.7369778 107.755859 51.3496119 107.755859 50.8515625L107.755859 50.3681641 106.945312 50.4023438C106.300778 50.4251303 105.836102 50.525227 105.55127 50.7026367 105.266437 50.8800465 105.124023 51.1559226 105.124023 51.5302734 105.124023 51.8232437 105.212727 52.0462232 105.390137 52.1992188 105.567546 52.3522143 105.815754 52.4287109 106.134766 52.4287109zM113.878906 52.2822266L113.834961 52.2822266C113.46061 52.8258491 112.90072 53.0976562 112.155273 53.0976562 111.4554 53.0976562 110.910972 52.8584008 110.521973 52.3798828 110.132973 51.9013648 109.938477 51.2210331 109.938477 50.3388672 109.938477 49.4567013 110.133787 48.7714868 110.524414 48.2832031 110.915041 47.7949194 111.458655 47.5507812 112.155273 47.5507812 112.881189 47.5507812 113.437824 47.8144505 113.825195 48.3417969L113.888672 48.3417969 113.854492 47.9560547 113.834961 47.5800781 113.834961 45.4023438 114.645508 45.4023438 114.645508 53 113.986328 53 113.878906 52.2822266zM112.257812 52.4189453C112.811201 52.4189453 113.212401 52.2683934 113.461426 51.9672852 113.71045 51.6661769 113.834961 51.1803419 113.834961 50.5097656L113.834961 50.3388672C113.834961 49.5803999 113.708823 49.0392269 113.456543 48.715332 113.204263 48.3914372 112.801435 48.2294922 112.248047 48.2294922 111.772784 48.2294922 111.409018 48.4142234 111.156738 48.7836914 110.904458 49.1531594 110.77832 49.6748013 110.77832 50.3486328 110.77832 51.03223 110.903645 51.5481753 111.154297 51.8964844 111.404949 52.2447934 111.772784 52.4189453 112.257812 52.4189453zM120.69043 52.4287109C120.83366 52.4287109 120.972005 52.4181316 121.105469 52.3969727 121.238933 52.3758137 121.344726 52.3538413 121.422852 52.3310547L121.422852 52.9511719C121.33496 52.9934898 121.205567 53.0284829 121.034668 53.0561523 120.863769 53.0838218 120.709962 53.0976562 120.573242 53.0976562 119.538081 53.0976562 119.020508 52.5524143 119.020508 51.4619141L119.020508 48.2783203 118.253906 48.2783203 118.253906 47.8876953 119.020508 47.5507812 119.362305 46.4082031 119.831055 46.4082031 119.831055 47.6484375 121.383789 47.6484375 121.383789 48.2783203 119.831055 48.2783203 119.831055 51.4277344C119.831055 51.7500016 119.907551 51.997395 120.060547 52.1699219 120.213542 52.3424488 120.423501 52.4287109 120.69043 52.4287109zM126.154297 53L126.154297 49.5380859C126.154297 49.1018858 126.055014 48.7763683 125.856445 48.5615234 125.657877 48.3466786 125.347007 48.2392578 124.923828 48.2392578 124.360674 48.2392578 123.949708 48.3922511 123.690918 48.6982422 123.432128 49.0042333 123.302734 49.5055304 123.302734 50.2021484L123.302734 53 122.492188 53 122.492188 45.4023438 123.302734 45.4023438 123.302734 47.7021484C123.302734 47.9788425 123.289714 48.2083324 123.263672 48.390625L123.3125 48.390625C123.472006 48.1334623 123.699055 47.9308276 123.993652 47.7827148 124.28825 47.6346021 124.624347 47.5605469 125.001953 47.5605469 125.656253 47.5605469 126.146971 47.7159815 126.474121 48.0268555 126.801271 48.3377294 126.964844 48.8317023 126.964844 49.5087891L126.964844 53 126.154297 53zM130.890625 53.0976562C130.099605 53.0976562 129.475425 52.8567732 129.018066 52.375 128.560707 51.8932268 128.332031 51.2242881 128.332031 50.3681641 128.332031 49.5055295 128.544431 48.820315 128.969238 48.3125 129.394045 47.804685 129.964515 47.5507812 130.680664 47.5507812 131.35124 47.5507812 131.881834 47.7713194 132.272461 48.2124023 132.663088 48.6534853 132.858398 49.2353479 132.858398 49.9580078L132.858398 50.4707031 129.171875 50.4707031C129.188151 51.0989615 129.346841 51.5758447 129.647949 51.9013672 129.949057 52.2268896 130.373044 52.3896484 130.919922 52.3896484 131.496097 52.3896484 132.065752 52.2692069 132.628906 52.0283203L132.628906 52.7509766C132.342446 52.8746751 132.071453 52.9633786 131.815918 53.0170898 131.560383 53.070801 131.251955 53.0976562 130.890625 53.0976562zM130.670898 48.2294922C130.241209 48.2294922 129.898602 48.3694647 129.643066 48.6494141 129.387531 48.9293634 129.236979 49.3167293 129.191406 49.8115234L131.989258 49.8115234C131.989258 49.3004532 131.875327 48.9090183 131.647461 48.637207 131.419595 48.3653958 131.094078 48.2294922 130.670898 48.2294922zM142.536133 53L141.588867 53 137.6875 47.0087891 137.648438 47.0087891C137.700521 47.7119176 137.726562 48.3564424 137.726562 48.9423828L137.726562 53 136.959961 53 136.959961 45.8613281 137.897461 45.8613281 141.789062 51.828125 141.828125 51.828125C141.821615 51.7402339 141.806966 51.4578474 141.78418 50.980957 141.761393 50.5040666 141.753255 50.163087 141.759766 49.9580078L141.759766 45.8613281 142.536133 45.8613281 142.536133 53zM145.329102 53L144.499023 53 144.499023 45.8613281 148.478516 45.8613281 148.478516 46.5986328 145.329102 46.5986328 145.329102 49.2109375 148.288086 49.2109375 148.288086 49.9482422 145.329102 49.9482422 145.329102 53zM149.660156 53L149.660156 45.8613281 150.490234 45.8613281 150.490234 52.2480469 153.639648 52.2480469 153.639648 53 149.660156 53zM161.935547 53L161.046875 50.7294922 158.185547 50.7294922 157.306641 53 156.466797 53 159.289062 45.8320312 159.987305 45.8320312 162.794922 53 161.935547 53zM160.788086 49.9824219L159.958008 47.7705078C159.850585 47.4905585 159.739909 47.1471375 159.625977 46.7402344 159.554362 47.0527359 159.451824 47.396157 159.318359 47.7705078L158.478516 49.9824219 160.788086 49.9824219zM166.144531 53.0976562C165.796222 53.0976562 165.478029 53.0333665 165.189941 52.9047852 164.901854 52.7762038 164.660157 52.5784519 164.464844 52.3115234L164.40625 52.3115234C164.445313 52.624025 164.464844 52.920246 164.464844 53.2001953L164.464844 55.4023438 163.654297 55.4023438 163.654297 47.6484375 164.313477 47.6484375 164.425781 48.3808594 164.464844 48.3808594C164.673178 48.0878892 164.915689 47.8763027 165.192383 47.7460938 165.469077 47.6158848 165.786457 47.5507812 166.144531 47.5507812 166.85417 47.5507812 167.401854 47.7932918 167.787598 48.2783203 168.173342 48.7633488 168.366211 49.4436805 168.366211 50.3193359 168.366211 51.1982466 168.170087 51.8810197 167.777832 52.3676758 167.385577 52.8543319 166.841149 53.0976562 166.144531 53.0976562zM166.027344 48.2392578C165.480466 48.2392578 165.084962 48.3906235 164.84082 48.6933594 164.596678 48.9960953 164.471354 49.4778613 164.464844 50.1386719L164.464844 50.3193359C164.464844 51.0712928 164.590168 51.6092106 164.84082 51.9331055 165.091473 52.2570003 165.493487 52.4189453 166.046875 52.4189453 166.509117 52.4189453 166.871255 52.2317727 167.133301 51.8574219 167.395346 51.483071 167.526367 50.9671257 167.526367 50.3095703 167.526367 49.6422493 167.395346 49.1303729 167.133301 48.7739258 166.871255 48.4174787 166.502607 48.2392578 166.027344 48.2392578zM172.272461 53.0976562C171.924152 53.0976562 171.605958 53.0333665 171.317871 52.9047852 171.029784 52.7762038 170.788087 52.5784519 170.592773 52.3115234L170.53418 52.3115234C170.573242 52.624025 170.592773 52.920246 170.592773 53.2001953L170.592773 55.4023438 169.782227 55.4023438 169.782227 47.6484375 170.441406 47.6484375 170.553711 48.3808594 170.592773 48.3808594C170.801108 48.0878892 171.043618 47.8763027 171.320312 47.7460938 171.597007 47.6158848 171.914386 47.5507812 172.272461 47.5507812 172.9821 47.5507812 173.529783 47.7932918 173.915527 48.2783203 174.301271 48.7633488 174.494141 49.4436805 174.494141 50.3193359 174.494141 51.1982466 174.298016 51.8810197 173.905762 52.3676758 173.513507 52.8543319 172.969079 53.0976562 172.272461 53.0976562zM172.155273 48.2392578C171.608396 48.2392578 171.212892 48.3906235 170.96875 48.6933594 170.724608 48.9960953 170.599284 49.4778613 170.592773 50.1386719L170.592773 50.3193359C170.592773 51.0712928 170.718098 51.6092106 170.96875 51.9331055 171.219402 52.2570003 171.621417 52.4189453 172.174805 52.4189453 172.637047 52.4189453 172.999185 52.2317727 173.26123 51.8574219 173.523276 51.483071 173.654297 50.9671257 173.654297 50.3095703 173.654297 49.6422493 173.523276 49.1303729 173.26123 48.7739258 172.999185 48.4174787 172.630536 48.2392578 172.155273 48.2392578zM178.15625 51.0810547L181.979492 49.4892578 178.15625 47.6679688 178.15625 46.9404297 182.848633 49.2792969 182.848633 49.7578125 178.15625 51.8183594 178.15625 51.0810547z"/>
  </g>
</svg>
