<svg xmlns="http://www.w3.org/2000/svg" viewBox="0 0 196.1 26.8"><path d="M193.7 8.1a2.4 2.4 0 1 1 0 5 2.4 2.4 0 0 1 0-5m0 4.6c1 0 2-1 2-2.1 0-1.2-1-2.1-2-2.1-1.2 0-2 .9-2 2 0 1.2.8 2.2 2 2.2m-1-3.6h1.1c.7 0 1 .3 1 .8s-.3.8-.8.8l.9 1.3h-.5l-.8-1.3h-.4V12h-.5V9zm.5 1.3h.5c.4 0 .6-.1.6-.5 0-.3-.3-.4-.6-.4h-.5v.9zm-19.3 4.3c0 1.4-.1 2.7-.4 4h-11.1c0-.8 0-1.8.5-3.2h6.4l.1-1.2c0-2-1-3-3-3-2.7 0-4 1.6-4.9 3.9a9.5 9.5 0 0 0-.8 3.5v.7c.3 2.8 2 4 5 4 2 0 3.9-.6 5.6-1.4l-.6 3.7c-1.8.6-3.8 1-5.8 1-5.1 0-8.7-2.5-8.7-7.8 0-5.6 4.4-11 10.3-11 4.5 0 7.4 2.2 7.4 6.8m3.3-4l.4-2.5h4.5l-.6 3.5c.9-2 3.2-3.9 5.4-3.9a8 8 0 0 1 1.8.2l-1 4.6c-.5-.2-1.2-.3-1.8-.3-3.3 0-5 3-5.6 6l-1.6 8H174l3.2-15.6zm-31.9-2.5h3.4l.8-3.7 5-1.6-1 5.4h4.1l-.7 3.4h-4.2l-1.7 7.9c-.1.4-.3 1-.3 1.7 0 1.1.8 1.8 1.8 1.8.9 0 1.7-.2 2.3-.4l-.8 3.6c-.8.2-1.7.5-2.5.5-3.2 0-5.4-1.3-5.4-4.8 0-1.4.2-2.7.5-4.2l1.4-6.1h-3.4l.7-3.5zm-3 3.7c-.5-.3-1.8-.6-3.1-.6-1.4 0-3.2.3-3.2 1.8 0 2.3 6.1 3.1 6.1 7.5 0 4.7-4.1 6.1-8.1 6.1-2 0-3.8-.3-5.5-1l1-3.8c1.3.7 2.6 1.4 4.5 1.4 1.5 0 3.2-.5 3.2-2 0-3-6.1-3.2-6.1-7.7 0-4.3 4-5.8 7.8-5.8 1.7 0 3.5.3 4.4.6l-1 3.5zm-57.6-1.7l.4-2h4.4l-.5 2.5h.1a6.6 6.6 0 0 1 5.5-2.9c2.2 0 4.4 1.3 4.6 3.5h.1c1.2-2.4 3.8-3.5 6.4-3.5a5 5 0 0 1 5 5c0 1.6-.4 3.4-.8 4.9l-2 8.6h-4.6l1.8-8.8c.3-1 .6-2.8.6-3.9 0-1.3-1-2.1-2.2-2.1-3.2 0-4 3.8-4.6 6.2L97 26.3h-4.7l1.9-8.8c.2-1 .6-2.8.6-3.9 0-1.3-1-2.1-2.2-2.1-3.2 0-4.1 3.8-4.7 6.2L86 26.3h-4.7l3.4-16zm-16 4.5c0 1.4-.1 2.7-.4 4h-11c0-.8 0-1.8.4-3.2h6.5v-1.2c0-2-1-3-3-3-2.7 0-4 1.6-4.9 3.9a9.3 9.3 0 0 0-.7 3.5v.7c.2 2.8 2 4 5 4 2 0 3.8-.6 5.5-1.4l-.6 3.7a20 20 0 0 1-5.7 1c-5.2 0-8.7-2.5-8.7-7.8 0-5.6 4.3-11 10.3-11 4.4 0 7.4 2.2 7.4 6.8m1.5-6.5h3.4l.8-3.7 5-1.6-1 5.4h4.1l-.7 3.4h-4.2L76 19.6l-.2 1.7c0 1.1.7 1.8 1.8 1.8.8 0 1.6-.2 2.2-.4l-.8 3.6c-.8.2-1.7.5-2.5.5-3.2 0-5.4-1.3-5.4-4.8 0-1.4.2-2.7.5-4.2l1.4-6.1h-3.4l.7-3.5zM39 0h4.8l-3.2 14.8h.1l6.6-6.6h6l-8.6 8.3 5.4 9.8H45l-4.7-9.6-2.1 9.6h-4.6L39 0zm-5 12.4c-1-.6-2.2-1-3.5-1-3.8 0-5.9 3.6-5.9 7 0 2.3.8 4.7 4 4.7 1.2 0 2.6-.3 3.8-1L32 26c-1.4.7-3 .8-4.5.8-4.7 0-7.7-3.1-7.7-7.8 0-6.3 4.2-11 10.6-11 1.8 0 3.5.2 4.8.6l-1.2 3.9zM15 8.2h4.7l-3.9 18.1h-4.7l3.9-18zM16.7.5h4.7l-1 4.5h-4.7l1-4.5zM.7 8.2h3.4L5 4.5 10 3 8.9 8.2H13l-.8 3.5H8.1l-1.7 7.9a7 7 0 0 0-.2 1.7c0 1.1.7 1.8 1.8 1.8.8 0 1.6-.2 2.2-.4l-.8 3.6c-.8.2-1.7.4-2.5.4-3.2 0-5.4-1.2-5.4-4.7 0-1.4.2-2.8.6-4.2l1.3-6.1H0l.8-3.5zm122 15.4h-.1c-1.6 2-3.2 3.1-5.8 3.1-3.3 0-5.6-1.8-5.6-5.1 0-6 6.6-6.4 11-6.4h1.7c.2-.5.2-1 .2-1.6 0-1.8-2-2.3-3.6-2.3-2.1 0-4.1.5-6 1.4l.7-3.8c2-.7 4-1 6.1-1 3.6 0 7 1.3 7 5.5 0 2.5-1.8 9.5-2.2 13h-4l.6-2.8zm-4.7-.3c3.6 0 4.6-2.4 5.4-5.3h-1.7c-2.3 0-6 .4-6 3.4 0 1.3 1.2 2 2.3 2" fill="#1f262d"/></svg>