<svg xmlns="http://www.w3.org/2000/svg" xmlns:xlink="http://www.w3.org/1999/xlink" viewBox="0 0 180.41 95.11">
  <defs>
    <style>
      .a {
        fill: #10357f;
      }

      .b, .d {
        fill: #fff;
      }

      .c {
        fill: #003b75;
      }

      .d {
        isolation: isolate;
      }

      .e {
        fill: #da2128;
      }

      .f {
        fill: url(#a);
      }
    </style>
    <linearGradient id="a" data-name="Visa Blue Gradient 01" x1="301.42" y1="254.8" x2="404.27" y2="254.8" gradientUnits="userSpaceOnUse">
      <stop offset="0" stop-color="#231f5c"/>
      <stop offset="1" stop-color="#034ea2"/>
    </linearGradient>
  </defs>
  <title>Visa_proud_sponsor</title>
  <g>
    <g>
      <path class="a" d="M351.69,305.32c0-.81,0-1.46-0.05-2.05h1l0.05,1.08h0a2.48,2.48,0,0,1,2.24-1.22c1.52,0,2.66,1.29,2.66,3.2,0,2.26-1.38,3.38-2.86,3.38a2.21,2.21,0,0,1-1.94-1h0v3.42h-1.13v-6.81Zm1.13,1.68a2.64,2.64,0,0,0,.05.47,1.77,1.77,0,0,0,1.72,1.34c1.21,0,1.91-1,1.91-2.43,0-1.26-.66-2.34-1.87-2.34a1.82,1.82,0,0,0-1.73,1.42,1.85,1.85,0,0,0-.08.47V307Z" transform="translate(-301.42 -217.02)"/>
      <path class="a" d="M359.41,305.23c0-.74,0-1.38-0.05-2h1l0,1.23h0.05a1.89,1.89,0,0,1,1.74-1.38,1.17,1.17,0,0,1,.32,0v1.08a1.74,1.74,0,0,0-.39,0,1.61,1.61,0,0,0-1.53,1.47,3.3,3.3,0,0,0-.05.53v3.36h-1.13v-4.33Z" transform="translate(-301.42 -217.02)"/>
      <path class="a" d="M369.52,306.36a3.08,3.08,0,0,1-3.13,3.34,3,3,0,0,1-3-3.24,3.07,3.07,0,0,1,3.12-3.34A3,3,0,0,1,369.52,306.36Zm-5,.06c0,1.38.79,2.42,1.91,2.42s1.91-1,1.91-2.45c0-1.07-.53-2.42-1.89-2.42S364.53,305.23,364.53,306.42Z" transform="translate(-301.42 -217.02)"/>
      <path class="a" d="M376.55,307.84c0,0.65,0,1.22.05,1.72h-1l-0.06-1h0a2.37,2.37,0,0,1-2.08,1.17c-1,0-2.17-.55-2.17-2.76v-3.68h1.14v3.48c0,1.2.36,2,1.4,2a1.61,1.61,0,0,0,1.61-1.62v-3.86h1.14v4.58Z" transform="translate(-301.42 -217.02)"/>
      <path class="a" d="M384.21,300.33v7.61c0,0.56,0,1.2.05,1.63h-1l-0.05-1.09h0A2.33,2.33,0,0,1,381,309.7c-1.52,0-2.69-1.29-2.69-3.2,0-2.09,1.29-3.38,2.82-3.38a2.1,2.1,0,0,1,1.9,1h0v-3.76h1.14Zm-1.14,5.5a2,2,0,0,0-.05-0.48,1.68,1.68,0,0,0-1.65-1.33c-1.18,0-1.88,1-1.88,2.43s0.62,2.33,1.86,2.33a1.72,1.72,0,0,0,1.68-1.37,2,2,0,0,0,.05-0.49v-1.09Z" transform="translate(-301.42 -217.02)"/>
      <path class="a" d="M389.35,308.39a3,3,0,0,0,1.51.46,1,1,0,0,0,1.22-.94c0-.54-0.33-0.84-1.17-1.16-1.13-.4-1.66-1-1.66-1.78a1.94,1.94,0,0,1,2.17-1.85,3.15,3.15,0,0,1,1.55.39l-0.29.83a2.47,2.47,0,0,0-1.29-.36,0.92,0.92,0,0,0-1.05.86c0,0.52.38,0.75,1.2,1.07,1.09,0.42,1.65,1,1.65,1.9,0,1.11-.86,1.88-2.35,1.88a3.59,3.59,0,0,1-1.77-.43Z" transform="translate(-301.42 -217.02)"/>
      <path class="a" d="M395,305.32c0-.81,0-1.46-0.05-2.05h1l0.05,1.08h0a2.48,2.48,0,0,1,2.24-1.22c1.52,0,2.67,1.29,2.67,3.2,0,2.26-1.38,3.38-2.86,3.38a2.21,2.21,0,0,1-1.94-1h0v3.42H395v-6.81Zm1.13,1.68a2.62,2.62,0,0,0,.05.47,1.77,1.77,0,0,0,1.72,1.34c1.21,0,1.91-1,1.91-2.43,0-1.26-.66-2.34-1.87-2.34a1.82,1.82,0,0,0-1.73,1.42,1.85,1.85,0,0,0-.08.47V307Z" transform="translate(-301.42 -217.02)"/>
      <path class="a" d="M408.4,306.36a3.08,3.08,0,0,1-3.13,3.34,3,3,0,0,1-3-3.24,3.07,3.07,0,0,1,3.12-3.34A3,3,0,0,1,408.4,306.36Zm-5,.06c0,1.38.79,2.42,1.91,2.42s1.91-1,1.91-2.45c0-1.07-.53-2.42-1.89-2.42S403.41,305.23,403.41,306.42Z" transform="translate(-301.42 -217.02)"/>
      <path class="a" d="M410.16,305c0-.65,0-1.18-0.05-1.7h1l0.07,1h0a2.31,2.31,0,0,1,2.08-1.18c0.87,0,2.22.52,2.22,2.68v3.76h-1.14v-3.63c0-1-.38-1.86-1.46-1.86a1.63,1.63,0,0,0-1.53,1.17,1.65,1.65,0,0,0-.08.53v3.78h-1.14V305Z" transform="translate(-301.42 -217.02)"/>
      <path class="a" d="M417.55,308.39a3,3,0,0,0,1.51.46,1,1,0,0,0,1.22-.94c0-.54-0.33-0.84-1.17-1.16-1.13-.4-1.66-1-1.66-1.78a1.94,1.94,0,0,1,2.17-1.85,3.15,3.15,0,0,1,1.55.39l-0.29.83a2.47,2.47,0,0,0-1.29-.36,0.92,0.92,0,0,0-1.05.86c0,0.52.38,0.75,1.2,1.07,1.09,0.42,1.65,1,1.65,1.9,0,1.11-.86,1.88-2.35,1.88a3.59,3.59,0,0,1-1.77-.43Z" transform="translate(-301.42 -217.02)"/>
      <path class="a" d="M428.87,306.36a3.08,3.08,0,0,1-3.13,3.34,3,3,0,0,1-3-3.24,3.07,3.07,0,0,1,3.12-3.34A3,3,0,0,1,428.87,306.36Zm-5,.06c0,1.38.79,2.42,1.91,2.42s1.91-1,1.91-2.45c0-1.07-.53-2.42-1.89-2.42S423.88,305.23,423.88,306.42Z" transform="translate(-301.42 -217.02)"/>
      <path class="a" d="M430.64,305.23c0-.74,0-1.38-0.05-2h1l0,1.23h0.05a1.89,1.89,0,0,1,1.74-1.38,1.19,1.19,0,0,1,.33,0v1.08a1.76,1.76,0,0,0-.39,0,1.61,1.61,0,0,0-1.53,1.47,3.29,3.29,0,0,0-.05.53v3.36h-1.13v-4.33Z" transform="translate(-301.42 -217.02)"/>
    </g>
    <g>
      <rect class="a" x="114.38" width="0.5" height="75.55"/>
      <g>
        <path class="b" d="M480.12,227a14.4,14.4,0,0,1-12,2.43,17.5,17.5,0,0,1-12.22-10.53,17.5,17.5,0,0,1-12.22,10.53,14.4,14.4,0,0,1-12-2.43H430V271.1a8.72,8.72,0,0,0,2.08,5.52c2.23,2.72,6,4.48,11.27,5.24,4.18,0.6,7.26,1.91,9.44,4a22.46,22.46,0,0,1,3.12,4.21,23.44,23.44,0,0,1,3.12-4.21c2.18-2.1,5.27-3.41,9.44-4,5.24-.76,9-2.52,11.27-5.24a8.75,8.75,0,0,0,2.08-5.52V227h-1.71Z" transform="translate(-301.42 -217.02)"/>
        <path class="c" d="M480.28,228.68a15.4,15.4,0,0,1-12.51,2.22,18.85,18.85,0,0,1-11.84-8.52,18.84,18.84,0,0,1-11.85,8.52,15.4,15.4,0,0,1-12.51-2.22V271.1c0,1.44.61,7.56,12,9.21,4.51,0.65,7.88,2.1,10.3,4.43a13.67,13.67,0,0,1,2,2.46,13.9,13.9,0,0,1,2-2.46c2.42-2.33,5.79-3.78,10.3-4.43,11.42-1.65,12-7.77,12-9.21V228.68Z" transform="translate(-301.42 -217.02)"/>
        <path class="d" d="M455.92,282.89s3.31-4.09,11.92-5.42c9.87-1.52,9.57-6.15,9.57-6.39V248.88h-43v22.21c0,0.23-.29,4.86,9.57,6.39C452.61,278.81,455.92,282.89,455.92,282.89Z" transform="translate(-301.42 -217.02)"/>
        <g>
          <path class="e" d="M445.9,265.11V254.55l-1.33-.74v-2.74h6v2.74l-1.26.74v21.55l-3.23-1-4.66-13.76v9.07l1.48,1.14v2.8l-6.48-1.65v-2.38l1.48-.58V254.56l-1.52-.75v-2.74h4.9Z" transform="translate(-301.42 -217.02)"/>
          <path class="e" d="M457,274.78l1.29,1.55v2.74l-6.41-2.4v-2.33l1.41-.58V254.55l-1.41-.71v-2.77H463v5.57h-2.45l-0.74-2.29H457v6.44h2.12l0.84-1.22h1.71v5.73H460l-0.8-1.16H457v10.63Z" transform="translate(-301.42 -217.02)"/>
          <path class="e" d="M464.1,275.74V273l1.6-1.31V254.55l-1.36-.71v-2.77h6.43v2.77l-1.26.71v16.09l2.76-.75,0.53-4.22h2.64v7Z" transform="translate(-301.42 -217.02)"/>
        </g>
        <g>
          <path class="b" d="M435.54,244.33l-1.94-1.46H436l0.78-2.25,0.79,2.25h2.38L438,244.33l0.72,2.29-1.93-1.36-1.93,1.36Z" transform="translate(-301.42 -217.02)"/>
          <path class="b" d="M444,244.33L442,242.87h2.38l0.78-2.25,0.79,2.25h2.38l-1.95,1.46,0.72,2.29-1.93-1.36-1.93,1.36Z" transform="translate(-301.42 -217.02)"/>
          <path class="b" d="M435.54,236.72l-1.94-1.46H436l0.78-2.25,0.79,2.25h2.38L438,236.72l0.72,2.29-1.93-1.36L434.83,239Z" transform="translate(-301.42 -217.02)"/>
          <path class="b" d="M444,236.72L442,235.26h2.38L445.2,233l0.79,2.25h2.38l-1.95,1.46,0.72,2.29-1.93-1.36L443.26,239Z" transform="translate(-301.42 -217.02)"/>
        </g>
        <g>
          <path class="b" d="M477,246.62l-1.93-1.36-1.93,1.36,0.72-2.29-1.95-1.46h2.38l0.79-2.25,0.78,2.25h2.38l-1.94,1.46Z" transform="translate(-301.42 -217.02)"/>
          <path class="b" d="M468.58,246.62l-1.93-1.36-1.93,1.36,0.71-2.29-1.94-1.46h2.37l0.79-2.25,0.78,2.25h2.38l-1.94,1.46Z" transform="translate(-301.42 -217.02)"/>
          <path class="b" d="M477,239l-1.93-1.36L473.15,239l0.72-2.29-1.95-1.46h2.38l0.79-2.25,0.78,2.25h2.38l-1.94,1.46Z" transform="translate(-301.42 -217.02)"/>
          <path class="b" d="M468.58,239l-1.93-1.36L464.72,239l0.71-2.29-1.94-1.46h2.37l0.79-2.25,0.78,2.25h2.38l-1.94,1.46Z" transform="translate(-301.42 -217.02)"/>
        </g>
        <path class="b" d="M461.28,230.61a11.5,11.5,0,0,0-2.41,1.91,6.88,6.88,0,0,1,.88.6l-0.63.58a6.56,6.56,0,0,0-2.6-1.32l0.76-.51a6.92,6.92,0,0,1,.78.26,13.24,13.24,0,0,1,3-1.73,1.44,1.44,0,0,0-.58-0.07c-6.24.08-12,4.74-10.9,12.71a10,10,0,0,0,.86,3.06,24.17,24.17,0,0,1,2.12-7.41,6.61,6.61,0,0,0-.94-0.26c0.15-.32.36-0.72,0.36-0.72a6.62,6.62,0,0,1,2.9,1.33c-0.2.33-.34,0.54-0.44,0.71a6.71,6.71,0,0,0-.92-0.61,25.77,25.77,0,0,0-2.75,7.09,0.33,0.33,0,0,0,.35.12c6.84-.89,10-4.37,11-8.15a11.63,11.63,0,0,0-.43-7.19A0.48,0.48,0,0,0,461.28,230.61Zm-5.88,7.53a6.54,6.54,0,0,0-2.95-1.39s0.31-.51.49-0.78a6.61,6.61,0,0,1,3,1.43Zm1.13-1.58a6.61,6.61,0,0,0-3-1.44c0.18-.22.38-0.46,0.57-0.68a6.7,6.7,0,0,1,3,1.41C456.88,236.1,456.7,236.34,456.52,236.57Zm1.25-1.5a6.67,6.67,0,0,0-2.87-1.4c0.25-.24.51-0.44,0.73-0.62a6.59,6.59,0,0,1,2.75,1.38C458.17,234.64,458,234.85,457.77,235.06Z" transform="translate(-301.42 -217.02)"/>
      </g>
      <path class="f" d="M340.47,238.78L327,270.9h-8.78l-6.63-25.64c-0.4-1.58-.75-2.16-2-2.82a34.72,34.72,0,0,0-8.2-2.73l0.2-.93h14.14a3.87,3.87,0,0,1,3.83,3.27l3.5,18.59,8.65-21.86h8.73Zm34.42,21.63c0-8.48-11.72-8.94-11.64-12.73,0-1.15,1.12-2.38,3.53-2.69a15.67,15.67,0,0,1,8.19,1.44l1.46-6.81a22.3,22.3,0,0,0-7.77-1.42c-8.21,0-14,4.37-14,10.62-0.06,4.63,4.13,7.2,7.27,8.74s4.32,2.58,4.31,4c0,2.16-2.58,3.11-5,3.15a17.4,17.4,0,0,1-8.54-2l-1.5,7a25.16,25.16,0,0,0,9.24,1.71c8.73,0,14.44-4.31,14.47-11m21.69,10.49h7.69l-6.71-32.12h-7.09a3.78,3.78,0,0,0-3.54,2.35L374.46,270.9h8.72l1.73-4.8h10.66Zm-9.27-11.38,4.37-12.06,2.52,12.06h-6.89Zm-35-20.74-6.87,32.12h-8.31L344,238.78h8.31Z" transform="translate(-301.42 -217.02)"/>
    </g>
  </g>
</svg>
