<svg xmlns="http://www.w3.org/2000/svg" viewBox="0 0 216 88.63"><defs><style>.a{fill:#fff}.b{fill:#da2128}.e{fill:#231f20}</style></defs><path class="a" d="M0 0H216V61.26H0z"/><path class="b" d="M3.16 3.11H57.239999999999995V58.15H3.16z"/><path class="b" d="M284.33 183.45v32H437.12v-32H284.33zM284.33 218v20.5H437.14V218H284.33z" transform="translate(-224.53 -180.34)"/><path class="a" d="M271.25,191.71a9.85,9.85,0,0,1-8.2,1.66,12,12,0,0,1-8.37-7.21,12,12,0,0,1-8.37,7.21,9.86,9.86,0,0,1-8.2-1.66h-1.17v30.22a6,6,0,0,0,1.42,3.78c1.53,1.86,4.13,3.07,7.72,3.58a11.33,11.33,0,0,1,6.46,2.74,15.37,15.37,0,0,1,2.14,2.88,16.16,16.16,0,0,1,2.13-2.88,11.35,11.35,0,0,1,6.46-2.74c3.59-.52,6.19-1.73,7.72-3.58a6,6,0,0,0,1.43-3.78V191.71h-1.17Z" transform="translate(-224.53 -180.34)"/><path d="M271.35,192.89a10.54,10.54,0,0,1-8.57,1.51,12.9,12.9,0,0,1-8.11-5.83,12.9,12.9,0,0,1-8.11,5.83,10.55,10.55,0,0,1-8.57-1.51v29c0,1,.41,5.18,8.23,6.31a12.33,12.33,0,0,1,7,3,9.62,9.62,0,0,1,1.4,1.69,9.55,9.55,0,0,1,1.39-1.69,12.34,12.34,0,0,1,7.05-3c7.82-1.13,8.23-5.32,8.23-6.31v-29Z" transform="translate(-224.53 -180.34)" fill="#003b75"/><path d="M254.68,230s2.27-2.79,8.17-3.71c6.75-1,6.55-4.21,6.55-4.37V206.72H240v15.21c0,0.16-.2,3.33,6.55,4.37C252.41,227.21,254.68,230,254.68,230Z" transform="translate(-224.53 -180.34)" style="isolation:isolate" fill="#fff"/><path class="b" d="M247.82 217.83V210.6l-.91-.51v-1.87H251v1.87l-.87.51v14.75l-2.21-.66-3.2-9.43v6.21l1 .78v1.91L241.35 223v-1.63l1-.4V210.61l-1-.52v-1.87h3.35zM255.42 224.45l.89 1.06v1.87l-4.39-1.64v-1.59l1-.4V210.6l-1-.49v-1.89h7.63V212h-1.68l-.51-1.57h-1.94v4.41h1.46l.57-.84h1.17V218h-1.17l-.55-.79h-1.48v7.27zM260.28 225.11v-1.88l1.09-.89V210.6l-.93-.49v-1.89h4.4v1.89l-.87.49v11l1.89-.51.36-2.89H268V223z" transform="translate(-224.53 -180.34)"/><path class="a" d="M240.73 203.61l-1.33-1H241l.54-1.54.54 1.54h1.63l-1.33 1 .49 1.57-1.32-.93-1.32.93zM246.5 203.61l-1.33-1h1.63l.54-1.54.54 1.54h1.63l-1.33 1 .49 1.57-1.32-.93-1.32.93zM240.73 198.39l-1.33-1H241l.54-1.54.54 1.54h1.63l-1.33 1 .49 1.57-1.32-.93-1.32.93zM246.5 198.39l-1.33-1h1.63l.54-1.54.54 1.54h1.63l-1.33 1 .49 1.57-1.32-.93L246 200zM269.12 205.17l-1.32-.93-1.32.93.49-1.57-1.33-1h1.63l.54-1.54.54 1.54H270l-1.33 1zM263.34 205.17l-1.32-.93-1.32.93.49-1.57-1.33-1h1.62l.54-1.54.54 1.54h1.63l-1.33 1zM269.12 200L267.8 199l-1.32.93.49-1.57-1.33-1h1.63l.54-1.54.54 1.54H270l-1.33 1zM263.34 200L262 199l-1.32.93.49-1.57-1.33-1h1.62l.54-1.54.54 1.54h1.63l-1.33 1zM258.35 194.21a7.84 7.84 0 0 0-1.65 1.31 4.54 4.54 0 0 1 .6.41l-.43.4a4.5 4.5 0 0 0-1.78-.9l.52-.35a4.41 4.41 0 0 1 .53.18 9 9 0 0 1 2-1.19 1 1 0 0 0-.4 0c-4.27.06-8.21 3.24-7.46 8.7a6.82 6.82 0 0 0 .59 2.09 16.55 16.55 0 0 1 1.45-5.07 4.48 4.48 0 0 0-.64-.18c.1-.22.25-.49.25-.49a4.52 4.52 0 0 1 2 .91c-.14.22-.23.37-.3.48A4.41 4.41 0 0 0 253 200a17.56 17.56 0 0 0-1.88 4.85.22.22 0 0 0 .23.08c4.68-.61 6.87-3 7.54-5.58a8 8 0 0 0-.29-4.92A.33.33 0 0 0 258.35 194.21zm-4 5.16a4.47 4.47 0 0 0-2-1l.34-.53a4.54 4.54 0 0 1 2 1zm.77-1.08a4.55 4.55 0 0 0-2-1c.12-.15.26-.32.39-.47a4.57 4.57 0 0 1 2 1zm.86-1a4.56 4.56 0 0 0-2-1c.17-.16.35-.3.5-.43a4.51 4.51 0 0 1 1.88.94zM318.71 233l-3.32-6.18.16 6.18H313.4v-9.42h2.5l3.32 6.18-.16-6.18h2.14V233h-2.5zM329.75 223.59v1.84h-4.25v2.23h3.84v1.8h-3.84V233H323.3v-9.42h6.45zM331.48 233v-9.42h2.18v7.59h4.2V233h-6.38zM339.26 232.2l.81-1.83a6.31 6.31 0 0 0 3 .77c1.14 0 1.83-.11 1.83-.89s-.48-.9-2-1.13c-2.42-.36-3.23-1-3.23-2.81s1.48-2.85 3.81-2.85a6.72 6.72 0 0 1 3.57.89l-.82 1.83a5.65 5.65 0 0 0-2.77-.7c-1 0-1.51.22-1.51.79s.17.81 1.55 1c2.38.34 3.69.77 3.69 2.92s-1.68 3-4.09 3A7.35 7.35 0 0 1 339.26 232.2zM351.1 229.17V233H348.9v-9.42h2.19v3.78h3.15v-3.78h2.19V233h-2.19v-3.84H351.1zM366.32 229.65c0 2.17-1.14 3.5-4 3.5s-4-1.33-4-3.5V227c0-2.17 1.14-3.5 4-3.5s4 1.33 4 3.5v2.69zm-5.76-.11a1.79 1.79 0 0 0 3.58 0v-2.48a1.79 1.79 0 0 0-3.58 0v2.48zM372.2 223.59c2.29 0 3.19 1.16 3.19 3.18v0c0 2-.9 3.18-3.19 3.18h-1.75v3h-2.19v-9.42h3.94zm-.27 1.84h-1.48v2.72h1.48c.9 0 1.2-.4 1.2-1.36S372.84 225.43 371.94 225.43zM376.91 230.49a1.33 1.33 0 1 1-1.33 1.32A1.32 1.32 0 0 1 376.91 230.49zM379.72 227c0-2.17 1-3.5 4-3.5a5.27 5.27 0 0 1 3.16.9l-.79 1.76a4.28 4.28 0 0 0-2.42-.7c-1.48 0-1.79.75-1.79 1.71v2.34c0 1 .31 1.71 1.79 1.71a4.28 4.28 0 0 0 2.42-.7l.79 1.76a5.27 5.27 0 0 1-3.16.9c-3 0-4-1.33-4-3.5V227zM396.21 229.65c0 2.17-1.14 3.5-4 3.5s-4-1.33-4-3.5V227c0-2.17 1.14-3.5 4-3.5s4 1.33 4 3.5v2.69zm-5.76-.11a1.79 1.79 0 0 0 3.58 0v-2.48a1.79 1.79 0 0 0-3.58 0v2.48zM403.06 229l1.56-5.41h3.57V233h-2.34L406 226l-1.88 6.18h-2L400.2 226l.12 7.05h-2.17v-9.42h3.34zM304.34 209.41l-6-12.79.19 9.34 2.13.57v2.88H292.6v-2.93l1.88-.51V194l-1.88-.51v-2.93h7.56l6 12.79L306 194l-2.15-.57v-2.88h8.08v2.93L310 194v15.4h-5.68zM326.07 203.11h-2.45l-.35-1.27h-3V206l2.15.57v2.88h-8.61v-2.93l1.88-.51V194l-1.88-.51v-2.93h15.61v5.92h-3.12l-.62-2.29h-5.41v4.41h3l.35-1.29h2.45v5.79zM337.86 205.78h4.87l.62-2.29h3.12v5.92H331.4v-2.93l1.88-.51V194l-1.88-.51v-2.93H340v2.88l-2.15.57v11.76zM359.72 195.87c0 1.48 1.1 1.67 3.9 2.07 5 .75 7.29 1.43 7.29 5.76s-3.23 6-8.51 6a16.51 16.51 0 0 1-7.24-1.32v-5.3h3.1l.73 2.5a12 12 0 0 0 3.28.4c2.8 0 4-.54 4-2s-1.21-1.72-4.36-2.21c-5-.78-6.84-1.88-6.84-5.95 0-3.74 3.31-5.46 8.37-5.46a14.33 14.33 0 0 1 6.62 1.35v5.28h-3.1l-.73-2.45a8.66 8.66 0 0 0-2.67-.46C360.64 194 359.72 194.47 359.72 195.87zM379.2 201.23V206l2.15.57v2.88h-8.61v-2.93l1.88-.51V194l-1.88-.51v-2.93h8.61v2.88l-2.15.57v4H386v-4l-2.15-.57v-2.88h8.61v2.93l-1.86.51v12l1.86.51v2.93h-8.61v-2.88L386 206v-4.74H379.2zM394.21 200c0-7.11 2.32-9.66 8.75-9.66s8.75 2.56 8.75 9.66V200c0 7.11-2.32 9.66-8.75 9.66s-8.75-2.56-8.75-9.66V200zM407 200c0-3.5-.27-5.87-4-5.87s-4 2.37-4 5.87V200c0 3.5.27 5.87 4 5.87s4-2.37 4-5.87V200zM419.87 206l2.15.57v2.88h-8.61v-2.93l1.88-.51V194l-1.88-.51v-2.93h9.66c4.58 0 6.3 2 6.3 6v.05c0 4-1.72 6-6.3 6h-3.2V206zm2.61-11.76h-2.61v5h2.61c1.88 0 2.42-.65 2.42-2.5S424.36 194.2 422.48 194.2z" transform="translate(-224.53 -180.34)"/><path class="e" d="M300.89 256.84c2.14 0 3.58 1.65 3.58 4.11v4.57a.12.12 0 0 1-.12.12h-2.1a.12.12 0 0 1-.12-.12V261a1.76 1.76 0 0 0-1.76-2h0a1.93 1.93 0 0 0-1.84 1.92v4.61a.12.12 0 0 1-.12.12h-2.08a.12.12 0 0 1-.12-.12v-8.45a.12.12 0 0 1 .12-.12h2a.12.12 0 0 1 .12.12v.75a3.59 3.59 0 0 1 2.47-1m31.9 7.27a.12.12 0 0 0 0 .16 4.91 4.91 0 0 0 3.76 1.41 3.48 3.48 0 0 0 3.39-1.73 2.57 2.57 0 0 0 .23-1.08c0-2.23-1.92-2.64-3.6-2.74-1.34-.08-1.34-.55-1.34-.71 0-.56.9-.63 1.29-.63a2.55 2.55 0 0 1 1.78.59.12.12 0 0 0 .17 0l1.18-1.38a.12.12 0 0 0 0-.17 4.48 4.48 0 0 0-3.15-1 4.69 4.69 0 0 0-2.33.58 2.35 2.35 0 0 0-1.23 2.1c0 1.55 1.24 2.49 3.48 2.66 1.27.07 1.43.44 1.43.76a1.06 1.06 0 0 1-1.22.71h-.05a3.86 3.86 0 0 1-2.55-1 .12.12 0 0 0-.18 0zm-21-1.43a2.36 2.36 0 0 0 .51-1.56 2.24 2.24 0 1 0-2.26 2.3 2.38 2.38 0 0 0 1.76-.74m.45-5.63a.12.12 0 0 1 .12-.12h2.08a.12.12 0 0 1 .12.12v8.47a.12.12 0 0 1-.12.12h-2.08a.12.12 0 0 1-.12-.12v-.64a3.22 3.22 0 0 1-2.34.7h-.13a4.24 4.24 0 0 1-3.05-1.13 4.5 4.5 0 0 1-1.22-3.31 4.07 4.07 0 0 1 4.32-4.37h0a3.68 3.68 0 0 1 2.38.64v-.36zm-25.78-2.22v-2a.15.15 0 0 0-.15-.15h-7.54a.15.15 0 0 0-.15.15v12.69a.15.15 0 0 0 .15.15h2a.15.15 0 0 0 .15-.15v-5.18a.15.15 0 0 1 .15-.15h3.8A.15.15 0 0 0 285 260v-2a.15.15 0 0 0-.15-.15h-3.8a.15.15 0 0 1-.15-.15v-2.55a.15.15 0 0 1 .15-.15h5.21a.15.15 0 0 0 .15-.15m44.37 8.09a.12.12 0 0 0-.16 0 2.29 2.29 0 0 1-1.42.52 2.22 2.22 0 0 1 0-4.45 2.29 2.29 0 0 1 1.42.52.12.12 0 0 0 .16 0l1.34-1.42a.12.12 0 0 0 0-.17 4 4 0 0 0-3-1.17 4.46 4.46 0 1 0 0 8.92 4 4 0 0 0 3-1.17.12.12 0 0 0 0-.17zM320 265.64a.12.12 0 0 0 .12-.12v-1.89a.12.12 0 0 0-.12-.12h-1a.82.82 0 0 1-.88-1V259.3H320a.12.12 0 0 0 .12-.12v-2.1A.12.12 0 0 0 320 257h-1.89v-1.84A.12.12 0 0 0 318 255h-2.1a.12.12 0 0 0-.12.12v7.42a2.8 2.8 0 0 0 3.06 3.1H320zm-27.79-3a2.36 2.36 0 0 0 .51-1.56 2.24 2.24 0 1 0-2.26 2.3 2.38 2.38 0 0 0 1.76-.74m.45-5.63a.12.12 0 0 1 .12-.12h2.08a.12.12 0 0 1 .12.12v8.47a.12.12 0 0 1-.12.12h-2.08a.12.12 0 0 1-.12-.12v-.64a3.22 3.22 0 0 1-2.34.7h-.13a4.24 4.24 0 0 1-3.05-1.13 4.5 4.5 0 0 1-1.22-3.31 4.07 4.07 0 0 1 4.32-4.37h0a3.68 3.68 0 0 1 2.38.64v-.36zm28.73 8.58h2.1a.12.12 0 0 0 .12-.12v-8.47a.12.12 0 0 0-.12-.12h-2.1a.12.12 0 0 0-.12.12v8.47a.12.12 0 0 0 .12.12m2.36-11.27a1.29 1.29 0 0 0-2.58 0 1.29 1.29 0 0 0 2.58 0M275.06 250.21l-2.17 3.37a.17.17 0 0 1-.21.07c-5-2.52-10.8 2.12-15.91 1a.18.18 0 0 1-.12-.08l-3.29-5.07a.23.23 0 0 1 .23-.35 29.87 29.87 0 0 0 3.86.63c7.75.42 11.94-4.23 17.56.17A.17.17 0 0 1 275.06 250.21zm-21.51-1l-.23.35.23-.35 15.17 10.72a.09.09 0 0 0 .11 0l2.64-4.08a.09.09 0 0 0-.05-.13c-3.81-1.31-7.36 1.21-12.79 1.35a.23.23 0 0 0-.19.34l5.86 9a.14.14 0 0 0 .26-.08l-1.26-5.73a.1.1 0 0 1 .07-.11c.46-.17 3.78-1.29 5.35-.57h0zM352.91 265.32h-8.24V254.16h8.19v1.74h-6.4v3h6.15v1.66h-6.15v3h6.45v1.75zM359.64 257.46h2v0L359 261.32l2.82 4v0h-2l-1.93-2.85L356 265.32h-2v0l2.82-4-2.65-3.81v0h2l1.75 2.8zM363.11 269v-11.5h1.55l.1 1.27a2.92 2.92 0 0 1 1.21-1.08 3.57 3.57 0 0 1 1.56-.36 4.08 4.08 0 0 1 1.61.31 3.8 3.8 0 0 1 1.26.85 3.74 3.74 0 0 1 .81 1.3 4.57 4.57 0 0 1 .29 1.63 4.79 4.79 0 0 1-.28 1.67 3.86 3.86 0 0 1-.79 1.31 3.47 3.47 0 0 1-1.25.85 4.33 4.33 0 0 1-1.65.3 4.73 4.73 0 0 1-.76-.06 3.31 3.31 0 0 1-.76-.22 3.11 3.11 0 0 1-.7-.41 2.29 2.29 0 0 1-.55-.62V269h-1.64zm4.25-5a2.54 2.54 0 0 0 1-.19 2.45 2.45 0 0 0 .79-.53 2.33 2.33 0 0 0 .52-.8 2.75 2.75 0 0 0 .18-1 2.49 2.49 0 0 0-.67-1.81 2.41 2.41 0 0 0-1.82-.69 2.62 2.62 0 0 0-1 .19 2.21 2.21 0 0 0-.77.53 2.44 2.44 0 0 0-.49.8 2.69 2.69 0 0 0-.18 1 2.65 2.65 0 0 0 .18 1 2.47 2.47 0 0 0 .51.8 2.39 2.39 0 0 0 .78.54A2.45 2.45 0 0 0 367.37 263.93zM374.47 262a2.08 2.08 0 0 0 .79 1.44A2.79 2.79 0 0 0 377 264a4 4 0 0 0 1.26-.22 2.28 2.28 0 0 0 1-.63l1.07 1a3.43 3.43 0 0 1-.7.59 4.58 4.58 0 0 1-.84.42 4.75 4.75 0 0 1-.92.25 5.64 5.64 0 0 1-.92.08 4.93 4.93 0 0 1-1.75-.29 3.64 3.64 0 0 1-2.18-2.15 4.65 4.65 0 0 1-.3-1.71 4.39 4.39 0 0 1 .3-1.65 3.73 3.73 0 0 1 2.14-2.14 4.49 4.49 0 0 1 1.68-.3 4.82 4.82 0 0 1 1.73.29 3.35 3.35 0 0 1 1.31.88 3.6 3.6 0 0 1 .78 1.48 5.82 5.82 0 0 1 .14 2.09h-6.37zm4.8-1.39a1.88 1.88 0 0 0-.7-1.43 2.62 2.62 0 0 0-1.62-.47 2.68 2.68 0 0 0-1.58.47 2.18 2.18 0 0 0-.86 1.43h4.76zM384 257.46l.11 1a2.08 2.08 0 0 1 1.05-1 3.59 3.59 0 0 1 1.26-.23 3.26 3.26 0 0 1 1.09.18 2.5 2.5 0 0 1 .85.49l-.75 1.43A2.38 2.38 0 0 0 387 259a2.17 2.17 0 0 0-.77-.12 2.42 2.42 0 0 0-.81.14 1.87 1.87 0 0 0-1.13 1.07 2.38 2.38 0 0 0-.18.95v4.25h-1.64v-7.85H384zM389.34 255.15a.9.9 0 0 1 .32-.76 1.12 1.12 0 0 1 1.4 0 .9.9 0 0 1 .32.76.92.92 0 0 1-.32.76 1.09 1.09 0 0 1-1.4 0A.92.92 0 0 1 389.34 255.15zm1.83 2.28v7.89h-1.64v-7.89h1.64zM394.63 262a2.08 2.08 0 0 0 .79 1.44 2.79 2.79 0 0 0 1.78.53 4 4 0 0 0 1.26-.22 2.28 2.28 0 0 0 1-.63l1.07 1a3.43 3.43 0 0 1-.7.59 4.58 4.58 0 0 1-.84.42 4.75 4.75 0 0 1-.92.25 5.64 5.64 0 0 1-.92.08 4.93 4.93 0 0 1-1.75-.29 3.64 3.64 0 0 1-2.18-2.15 4.65 4.65 0 0 1-.3-1.71 4.39 4.39 0 0 1 .3-1.65 3.73 3.73 0 0 1 2.14-2.14 4.49 4.49 0 0 1 1.68-.3 4.82 4.82 0 0 1 1.73.29 3.35 3.35 0 0 1 1.31.88 3.6 3.6 0 0 1 .78 1.48A5.82 5.82 0 0 1 401 262h-6.37zm4.8-1.39a1.88 1.88 0 0 0-.7-1.43 2.62 2.62 0 0 0-1.62-.47 2.68 2.68 0 0 0-1.58.47 2.18 2.18 0 0 0-.86 1.43h4.76zM408.63 265.32v-4.21a2.45 2.45 0 0 0-.55-1.66 2 2 0 0 0-1.57-.64 2.08 2.08 0 0 0-1.59.71 2.36 2.36 0 0 0-.45.76 2.65 2.65 0 0 0-.16.92v4.11h-1.64v-7.87h1.5l.1 1.15a3.39 3.39 0 0 1 2.64-1.29 3.53 3.53 0 0 1 1.33.25 3 3 0 0 1 1.07.72 3.43 3.43 0 0 1 .72 1.19 4.68 4.68 0 0 1 .26 1.63v4.22h-1.66zM419 264.31a4 4 0 0 1-1.39.95 4.38 4.38 0 0 1-1.59.28 4.84 4.84 0 0 1-1.6-.26 3.76 3.76 0 0 1-1.32-.78 3.64 3.64 0 0 1-.89-1.29 5.08 5.08 0 0 1 0-3.58 3.64 3.64 0 0 1 .89-1.29 3.78 3.78 0 0 1 1.31-.78 4.82 4.82 0 0 1 1.61-.26 4.1 4.1 0 0 1 1.51.27 4 4 0 0 1 1.33.89l-1 1.07A2.62 2.62 0 0 0 417 259a2.77 2.77 0 0 0-.93-.17 2.66 2.66 0 0 0-1 .18 2.41 2.41 0 0 0-.8.52 2.34 2.34 0 0 0-.53.8 3.06 3.06 0 0 0 0 2.15 2.35 2.35 0 0 0 .54.8 2.18 2.18 0 0 0 .8.49 2.89 2.89 0 0 0 1 .16 3 3 0 0 0 1-.17 2.17 2.17 0 0 0 .87-.57zM421.54 262a2.08 2.08 0 0 0 .79 1.44 2.79 2.79 0 0 0 1.78.53 4 4 0 0 0 1.26-.22 2.28 2.28 0 0 0 1-.63l1.07 1a3.43 3.43 0 0 1-.7.59 4.58 4.58 0 0 1-.84.42 4.75 4.75 0 0 1-.92.25 5.64 5.64 0 0 1-.92.08 4.93 4.93 0 0 1-1.75-.29 3.64 3.64 0 0 1-2.18-2.15 4.65 4.65 0 0 1-.3-1.71 4.39 4.39 0 0 1 .3-1.65 3.73 3.73 0 0 1 2.14-2.14 4.49 4.49 0 0 1 1.68-.3 4.82 4.82 0 0 1 1.73.29 3.35 3.35 0 0 1 1.31.88 3.6 3.6 0 0 1 .78 1.48 5.82 5.82 0 0 1 .14 2.09h-6.37zm4.8-1.39a1.88 1.88 0 0 0-.7-1.43 2.62 2.62 0 0 0-1.62-.47 2.68 2.68 0 0 0-1.58.47 2.18 2.18 0 0 0-.86 1.43h4.76zM249.53 263.26h-6l-1.05 2.34h-1.9l5-11.15h1.94l5 11.15h-1.9zm-3-6.93l-2.36 5.31h4.72z" transform="translate(-224.53 -180.34)"/></svg>