<svg xmlns="http://www.w3.org/2000/svg" viewBox="0 0 359.48 256.27"><title>spalding-fastS-logo</title><path d="M195.47,151.44c-10.44,10.48-11.64,26.15-7.49,38,4.21,12.05,22.19,66.73,22.93,68.91,1.51,6.55.84,11.9-5.09,16.93-4.29,3.58-11.94,4.29-16.34,2.11-6.81-3.37-8.44-11.51-7.31-17.3l-15,2.2-7.44,38c43-7.47,61.13-6.54,73.93-19.33,10.5-10.51,11.7-26.19,7.5-38-4.19-12-19.3-59.8-21.38-67s-3.58-12.8,3.6-18.78c4.24-3.55,11.88-4.29,16.32-2.09,6.78,3.33,8.57,12.22,7.42,18l15-2.32,7.28-38.62c-43,7.5-61.13,6.53-74,19.36" transform="translate(-36.17 -88.36)" fill="#231f20"/><path d="M72.74,176.72v.41l.41.14c159.25-100.44,277.2-65,279.19-3.86,1.43,45.33-26.72,84.72-93.31,118l-.15.45.37.24c94.32-31.9,136.48-76.25,136.4-125.59-.07-50.94-49.82-78.14-114.61-78.15-66,0-147.67,28.24-208.3,88.36" transform="translate(-36.17 -88.36)" fill="#231f20"/><path d="M173.33,142.1h0l.12-.07-.12.06M36.17,267.18C36.29,370,240.81,374.57,359.52,255.91v-.41l-.49-.13c-159.43,101.73-277.55,66-279.56,4.9C78,215,106.77,175.41,173.33,142.1l.23-.47-.41-.21c-94.28,31.91-137,76.39-137,125.76" transform="translate(-36.17 -88.36)" fill="#231f20"/><path d="M333.15,307.79a9.92,9.92,0,1,1,9.91,9.92A9.93,9.93,0,0,1,333.15,307.79Zm17.41,0c0-4.64-3.35-8-7.5-8s-7.5,3.35-7.5,8,3.35,8,7.5,8S350.56,312.44,350.56,307.79Zm-11.31-5.65h4.17c2.69,0,4.14.93,4.14,3.3,0,1.91-1.09,2.85-2.94,3l3,4.91H345.5l-2.9-4.83h-1.26v4.83h-2.09Zm2.09,4.8h1.84c1.23,0,2.3-.16,2.3-1.67,0-1.32-1.2-1.53-2.28-1.53h-1.86Z" transform="translate(-36.17 -88.36)" fill="#231f20"/></svg>