<?xml version="1.0" encoding="UTF-8"?>
<svg width="60px" height="22px" viewBox="0 0 60 22" version="1.1" xmlns="http://www.w3.org/2000/svg" xmlns:xlink="http://www.w3.org/1999/xlink">
    <!-- Generator: Sketch 59.1 (86144) - https://sketch.com -->
    <title>gym-logo-60x22</title>
    <desc>Created with Sketch.</desc>
    <g id="gym-logo-60x22" stroke="none" stroke-width="1" fill="none" fill-rule="evenodd">
        <g id="brand/gymboree-logo" transform="translate(0.000000, 0.000000)">
            <rect id="Rectangle" x="0" y="0" width="60" height="22"></rect>
            <g id="Gymboree-Logo" stroke-width="1" fill-rule="evenodd" transform="translate(0.000000, 3.903226)" fill="#F7971F">
                <path d="M6.92378204,7.26353278 L4.21102154,7.26353278 C4.0407646,7.26353278 3.96131137,7.20161419 3.96131137,7.37705019 L3.96131137,7.83111985 L3.96131137,8.51222433 L3.96131137,8.85277657 C3.96131137,8.99725328 3.89320859,9.0798114 4.08616645,9.0798114 L4.80124558,9.0798114 C4.94880159,9.0798114 5.03960529,9.01789281 5.03960529,9.18300904 C5.05095575,9.31716599 5.03960529,9.45132293 5.03960529,9.59579964 C5.02825483,10.5245785 5.03960529,11.4533573 5.03960529,12.3821362 C5.03960529,12.5575722 4.97150252,12.4956536 4.81259604,12.4956536 L4.46073171,12.4956536 L3.75700304,12.4956536 C3.33703594,12.433735 3.03057345,12.1447816 2.87166698,11.8042293 C2.50845218,10.9992877 2.3835971,10.0911484 2.32684479,9.2242881 C2.27009247,8.33678833 2.2019897,7.42864902 2.23604109,6.54114924 C2.27009247,5.62269017 2.2019897,4.64231251 2.42899895,3.74449297 C2.55385403,3.09434778 2.72411097,1.90757482 3.68890027,2.02109223 C4.55153541,2.11397012 4.68774096,3.37298143 4.77854466,3.97152779 C4.81259604,4.18824285 4.83529697,4.40495792 4.84664743,4.62167298 C4.85799789,4.74551016 4.82394651,4.72487063 4.9147502,4.72487063 L6.96918389,4.72487063 C6.73082418,3.12530707 6.50381494,1.08199363 4.74449327,0.246092679 C3.98401229,-0.125418856 2.96247068,-0.0531805017 2.22469062,0.308011268 C1.86147583,0.54536586 1.50961149,0.803359981 1.27125179,1.14391222 C1.01019115,1.50510399 0.794532366,1.88693529 0.635625893,2.29972589 C0.124855086,3.54841743 0,4.96222522 0,6.28315512 C0,7.7279222 0.0454018495,9.19332881 0.340513871,10.6174564 C0.646976355,12.0519037 1.21449947,14.0952171 3.12137715,14.3222519 L6.91243158,14.363531 C7.09403898,14.363531 7.04863713,14.3119322 7.04863713,14.1674555 L7.04863713,7.49056761 C7.04863713,7.33577114 7.1167399,7.26353278 6.92378204,7.26353278" id="Fill-6"></path>
                <path d="M34.8456238,11.0922746 C34.7852377,11.4538449 34.7349997,11.8670681 34.4838096,12.1564276 C34.2326194,12.4456839 33.7705301,12.4146921 33.569578,12.0841136 C33.3584778,11.7432044 33.2982927,11.3505391 33.2480547,10.957977 C33.187769,10.4828736 33.137531,10.0075636 33.1174358,9.53235692 C33.0771449,8.62336915 33.0671978,7.71427808 33.0671978,6.79475312 C33.0671978,5.88576535 33.0671978,4.97657097 33.137531,4.07791378 C33.1776209,3.51995914 33.227859,2.07367789 33.9814293,2.00136382 C34.8255286,1.91871918 34.8857137,3.34433927 34.9660946,3.92295508 C34.9963379,4.84227343 35.0465759,5.76169508 35.0465759,6.69144731 C35.0465759,7.23896807 35.1168087,7.83814173 35.0264807,8.37533191 C35.0465759,9.28442299 35.0063855,10.1936174 34.8456238,11.0922746 M36.7947586,3.35477316 C36.7144783,2.9104549 36.6140022,2.49723168 36.4632882,2.07367789 C36.3326693,1.68111583 36.1215691,1.19557855 35.8604319,0.885661142 C35.337856,0.265826319 34.6245765,-0.0543183666 33.8307153,0.00756180984 C33.0269069,0.0695452921 32.4039554,0.617169358 32.0020512,1.30921494 C31.1380577,2.80714909 31.0878196,4.75962878 31.067624,6.44351338 C31.0576768,7.34227388 31.077772,8.27202611 31.1681,9.16055933 C31.2586289,10.0386587 31.359105,10.9269853 31.5901999,11.7844234 C31.7308663,12.3009525 31.9015752,12.8072542 32.1728605,13.2616964 C32.4240506,13.6749196 32.8259548,14.1294652 33.2982927,14.2535355 C33.8509109,14.4084942 34.3532912,14.3980603 34.9059094,14.232771 C35.3781469,14.0881429 35.7397601,13.6027089 35.9909503,13.1894857 C36.6039546,12.1769855 36.7546687,10.9684109 36.8852876,9.81138589 C36.9454727,9.20177834 36.9957107,8.59237741 37.0159064,7.98276986 C37.0360016,7.3836995 37.1063349,6.7534308 37.0360016,6.15425713 C37.0258535,5.21427763 36.9556208,4.27409151 36.7947586,3.35477316" id="Fill-8"></path>
                <path d="M47.877195,6.52621049 C47.8671184,6.08224118 47.8671184,5.62794701 47.8973482,5.18397771 C47.9377555,4.7400084 47.9074248,4.27538936 47.9678846,3.83142006 C48.0283443,3.27387721 48.1492638,1.83872062 48.9856234,2.01424337 C49.3383052,2.08651744 49.4996319,2.44788781 49.5801441,2.77828357 C49.6708337,3.13965393 49.7515475,3.5010243 49.7917532,3.87271953 C49.8421363,4.28571423 49.8219831,4.71935867 49.8523137,5.14267824 C49.8925194,5.60729728 49.8723662,6.06159145 49.8824428,6.52621049 L47.877195,6.52621049 Z M50.436657,0.641035984 C49.7816766,0.0525185339 48.9150871,-0.174628552 48.0787274,0.145442342 C46.4766453,0.754609527 46.1540926,2.89185711 46.0029432,4.40961264 C45.8216648,6.2371142 45.8820238,8.10591522 46.0432497,9.92309191 C46.1339393,10.85233 46.3354718,11.7815681 46.6680003,12.6488569 C46.970299,13.4542999 47.715969,14.3937596 48.6530949,14.362785 C49.1065429,14.3421352 49.4793779,14.3421352 49.9026968,14.1356379 C50.2452012,13.9705432 50.5576773,13.5884199 50.7592097,13.2580241 C51.2327102,12.4734374 51.363807,11.5853956 51.5954686,10.71821 C51.2427868,10.6458326 50.8296453,10.7077818 50.4668869,10.7077818 L49.8320597,10.7077818 C49.6708337,10.7077818 49.7111402,10.7698343 49.7011644,10.9142792 C49.690987,11.0175279 49.6809104,11.1207765 49.6607571,11.2240252 C49.610374,11.5441994 49.4996319,11.9157913 49.3080753,12.173913 C49.1166195,12.4320347 48.6027118,12.4320347 48.4213326,12.1636914 C48.2198001,11.864167 48.1291105,11.4409507 48.0889048,11.0795803 C48.0385217,10.6871321 47.9678846,10.2741374 47.9678846,9.88179244 C47.9678846,9.46879774 47.9275781,9.05580304 47.9377555,8.65323645 C47.9377555,8.53955966 47.8369893,8.2711131 47.9981144,8.2711131 L51.8473841,8.2711131 C51.9380737,6.45393642 51.9180213,4.66773433 51.5653395,2.88153224 C51.3939361,2.09684231 51.0211011,1.1779291 50.436657,0.641035984 L50.436657,0.641035984 Z" id="Fill-10"></path>
                <path d="M54.9691566,5.52099494 C54.9792657,5.14999845 54.9691566,4.78930743 54.9994838,4.41831094 C55.0600373,3.77937255 55.1005747,3.11982324 55.3330838,2.52210668 C55.5049383,2.08927745 56.0103928,1.76980825 56.3945381,2.19233203 C56.5561825,2.37783027 56.6774915,2.74882676 56.718029,2.98585229 C56.7785824,3.33623786 56.8393381,3.68662343 56.8696653,4.037009 C56.9302188,4.71716922 56.9302188,5.4076349 56.950538,6.09810058 C56.950538,6.1908497 57.0313097,6.5103189 56.9100006,6.5103189 L56.5764007,6.5103189 L54.9387282,6.5103189 C54.898393,6.1908497 54.9589464,5.84046414 54.9691566,5.52099494 M57.4762107,10.6840294 C57.2538107,10.6840294 57.0213017,10.6840294 56.7989017,10.6943348 C56.7785824,10.900444 56.7583643,11.1065531 56.7078188,11.3126623 C56.6472654,11.6115206 56.5461745,12.0649607 56.273128,12.2401535 C55.9496371,12.4462627 55.5757019,12.2916808 55.4038474,11.9825171 C55.0298111,11.2816429 55.0702475,10.3748656 54.9994838,9.60195628 C54.9691566,9.18973796 54.9387282,8.76721419 54.9489384,8.34458736 C54.9589464,8.21071946 54.9691566,8.24153278 55.0903646,8.24153278 L58.9218104,8.24153278 C58.9723559,7.30383916 58.9520366,6.36604249 58.9318184,5.43855128 C58.9117013,4.51106006 58.7398468,3.60417976 58.5780003,2.68699401 C58.5174468,2.30569206 58.3252731,1.91408466 58.1636287,1.57400455 C58.0725458,1.37820085 57.9714549,1.19270261 57.8603561,1.01750982 C57.7592652,0.842317038 57.5975197,0.728957001 57.4559925,0.58468059 C56.8191199,0.0694076934 55.9901746,-0.167617839 55.2016656,0.131240441 C53.6044296,0.739262459 53.2809387,2.76943767 53.0685467,4.27403453 C52.9169104,6.06718421 52.8967933,7.89125026 53.1090842,9.67409449 C53.2201831,10.6221966 53.3517023,11.5806042 53.6953103,12.477179 C53.8571568,12.8997028 54.0694477,13.3325321 54.3727203,13.6623067 C54.6962112,14.0125892 55.0702475,14.208496 55.5251565,14.3115506 C56.3945381,14.5176597 57.3649096,14.0951359 57.8198186,13.3222266 C58.305156,12.49779 58.4567923,11.6115206 58.6993094,10.7046403 C58.305156,10.6428075 57.8703641,10.6840294 57.4762107,10.6840294" id="Fill-12"></path>
                <polygon id="Fill-14" points="11.6165835 6.48979977 9.83954244 0 7.76632781 0 10.4977058 9.06894476 10.4977058 14.363531 12.7574001 14.363531 12.7574001 8.82780519 15.5326556 0 13.3716859 0"></polygon>
                <path d="M21.658608,0 L19.7046907,6.50601951 L17.7902465,0 L16.5172397,0 L15.8856705,14.363531 L17.8494561,14.363531 L17.9678753,5.88789528 L19.4382474,10.6443089 C19.497457,10.8538425 19.4678522,10.9375512 19.6750859,10.9375512 C19.9612657,10.9375512 19.9612657,10.9899346 20.0402118,10.7280176 L21.550057,5.65740827 L21.6882128,14.3530543 L23.6519983,14.3530543 L23.0500339,0 L21.658608,0 Z" id="Fill-16"></path>
                <path d="M28.0481122,12.1650314 C27.7379313,12.5837932 27.3421831,12.5628551 26.839476,12.5733242 L26.529295,12.5733242 L26.529295,7.59005829 C26.9999144,7.60052734 27.5026215,7.49583688 27.8876738,7.83095104 C28.2513343,8.16585582 28.1978548,8.69977716 28.1978548,9.14994613 L28.1978548,10.7307721 C28.1978548,11.1914101 28.2727261,11.7462695 28.0481122,12.1650314 L28.0481122,12.1650314 Z M26.529295,1.9367735 C26.529295,1.75879971 26.5934704,1.82161399 26.7432129,1.82161399 C27.1603529,1.81114494 27.6416682,1.79020685 27.9411533,2.12521632 C28.2299425,2.44975675 28.1978548,2.93133286 28.1978548,3.3291566 L28.1978548,4.82623017 C28.176463,5.14030155 28.1122876,5.53812529 27.7914107,5.69516098 C27.5454051,5.95688713 26.8501719,5.83125858 26.529295,5.83125858 L26.529295,1.9367735 Z M30.337034,8.61612948 C30.2621627,7.73662494 29.8022392,6.88863222 28.8396085,6.72112748 C28.893088,6.60596798 29.1925731,6.57456084 29.310228,6.53268465 C29.4599705,6.45940133 29.609713,6.36517992 29.7273679,6.25002041 C30.0482448,5.95688713 30.1445078,5.60093957 30.230075,5.19264678 C30.2942504,4.28183978 30.2728586,3.35009469 30.230075,2.42881865 C30.0482448,1.64364021 29.8343269,0.889868903 29.0856141,0.439699929 C28.582907,0.146566643 27.9839369,0 27.3956626,0 L24.3580281,0 L24.3580281,0.0104690459 L24.3580281,14.363531 L26.3902484,14.363531 C27.3207913,14.3321239 28.3475973,14.4787952 29.1925731,13.9866453 C30.0375489,13.4946002 30.3049463,12.6047313 30.3477299,11.6939243 C30.3691217,11.2018791 30.3477299,10.7099387 30.3477299,10.2177888 C30.3477299,9.68386748 30.3798176,9.13958178 30.337034,8.61612948 L30.337034,8.61612948 Z" id="Fill-18"></path>
                <path d="M42.2100792,5.3876318 C42.0583703,5.71193585 41.5216709,5.79562722 41.1715735,5.82701148 C40.9381752,5.84793433 40.704777,5.84793433 40.4713787,5.83747291 L40.4713787,5.03194349 C40.4713787,4.07995418 40.4595921,3.11750345 40.4713787,2.16551414 C40.4713787,2.05043851 40.4713787,1.93536288 40.4829319,1.82028725 L40.8680391,1.82028725 C41.1014373,1.82028725 41.3698454,1.80982583 41.6032436,1.86213293 C42.0583703,1.97720856 42.3151084,2.27012835 42.3034385,2.69904661 L42.3034385,4.07995418 C42.2802154,4.47748818 42.3851279,5.01102065 42.2100792,5.3876318 M44.8475964,9.73958293 C44.81247,9.10143625 44.9174992,8.33775252 44.5790717,7.74145152 C44.2173044,7.09284342 43.3420608,6.84176932 42.5835164,6.78946221 C42.6652058,6.70577085 43.0853227,6.684848 43.2253617,6.64300232 C43.4237502,6.5802338 43.6104689,6.48608101 43.7855176,6.37100538 C44.1589548,6.11993127 44.3573434,5.75378154 44.4623726,5.35624754 C44.7074408,4.50887244 44.6024116,3.5882674 44.5907416,2.70950803 C44.5790717,1.8935172 44.1939646,1.11937204 43.5287795,0.575378154 C42.9569537,0.10461421 42.0700402,0 41.3231657,0 L38.1489491,0 L38.1489491,0.010461421 L38.1256092,14.363531 L40.4595921,14.363531 C40.4479221,12.5850894 40.4595921,10.7961864 40.4595921,9.01774488 C40.4595921,8.56790378 40.4595921,8.11806268 40.4713787,7.66822158 C40.9030488,7.65776016 41.416525,7.60545305 41.8366419,7.72052868 C42.7935749,7.98206421 42.5251668,9.1746662 42.5251668,9.88604282 C42.5251668,10.7648022 42.5136136,11.6435615 42.5601766,12.5327823 C42.5835164,12.9617006 42.6303128,13.3906189 42.7118855,13.8090757 C42.7352253,13.9764584 42.6768757,14.363531 42.910274,14.363531 L45.1859073,14.363531 C45.1158878,13.5789244 44.9758488,12.8152407 44.9291691,12.0306341 C44.8824895,11.2669504 44.8941594,10.5032667 44.8475964,9.73958293" id="Fill-20"></path>
            </g>
            <g id="Group" stroke-width="1" fill-rule="evenodd" transform="translate(58.604651, 17.032258)">
                <ellipse id="Oval" stroke="#F06D22" stroke-width="0.25" cx="0.697674419" cy="0.709677419" rx="1" ry="1"></ellipse>
                <path d="M0.744232023,0.810284254 L0.616193879,0.810284254 L0.616193879,0.533056531 C0.651081656,0.533056531 0.697714986,0.523254551 0.767374248,0.523254551 C0.93030017,0.523254551 1.01170498,0.582561482 1.01170498,0.671769403 C1.01170498,0.770779304 0.895412392,0.810284254 0.744232023,0.810284254 M1.06985128,0.879591185 L1.06985128,0.869789205 C1.19765684,0.839987225 1.30243647,0.760779304 1.30243647,0.641967423 C1.30243647,0.542957522 1.25580314,0.473749601 1.18614387,0.43404663 C1.10473906,0.38454168 1.01170498,0.35483871 0.790632767,0.35483871 C0.604680912,0.35483871 0.453500542,0.3747397 0.348837209,0.38454168 L0.348837209,1.35483871 L0.616193879,1.35483871 L0.616193879,0.968799106 L0.744232023,0.968799106 C0.883666841,0.968799106 0.953558689,1.01830406 0.976817207,1.11731396 C1.01170498,1.23602683 1.0349635,1.31533376 1.06985128,1.35483871 L1.34883721,1.35483871 C1.32569498,1.31533376 1.30243647,1.26582881 1.26754869,1.11731396 C1.23254462,0.988502076 1.18614387,0.909294155 1.06985128,0.879591185" id="Fill-1" fill="#F06D22"></path>
            </g>
        </g>
    </g>
</svg>