<svg xmlns="http://www.w3.org/2000/svg" width="25" height="25" viewBox="0 0 25 25">
    <path fill="#1A1A1A" fill-rule="nonzero" d="M12.5 16.346c6.892 0 12.5 3.54 12.5 7.89 0 .422-.35.764-.781.764a.773.773 0 0 1-.782-.764c0-3.508-4.906-6.363-10.937-6.363S1.562 20.728 1.562 24.236c0 .422-.349.764-.78.764A.773.773 0 0 1 0 24.236c0-4.35 5.608-7.89 12.5-7.89zM12.98 0a7.212 7.212 0 1 1 0 14.423A7.212 7.212 0 0 1 12.98 0zm0 1.545a5.673 5.673 0 0 0-5.665 5.667 5.673 5.673 0 0 0 5.666 5.666 5.673 5.673 0 0 0 5.666-5.666 5.673 5.673 0 0 0-5.666-5.667z"/>
</svg>
