<svg fill="none" xmlns="http://www.w3.org/2000/svg" viewBox="0 0 24 24"><path d="M12 24c6.628 0 12-5.372 12-12 0-6.627-5.372-12-12-12C5.373 0 0 5.373 0 12c0 6.628 5.373 12 12 12z" fill="#2470A6"/><path d="M13.056 19.5a6.266 6.266 0 01-3.274-.887c-2.203-1.354-3.116-3.7-3.653-5.055l-.161-.21c-.161-.416-.43-1.25-.698-2.762v-.052c-.053-.313 0-.626.161-.938.161-.26.483-.47.807-.52.642-.157 1.234.26 1.449.937.107.521.268 1.252.481 1.824a13.212 13.212 0 01.163-3.543c.161-.991.858-2.554.912-2.712.269-.626 1.021-.939 1.72-.677.32.156.59.364.698.677.107.313.107.678 0 .99-.162.366-.646 1.566-.753 2.138-.108.47-.161 1.147-.214 1.773.214-.99.536-2.138 1.074-3.077.46-.809.962-1.592 1.503-2.345.429-.573 1.234-.73 1.878-.365.146.085.272.206.365.35.093.146.153.312.173.485.053.364 0 .676-.215.99-.215.312-.967 1.408-1.397 2.137a9.307 9.307 0 00-.698 1.563c.108-.051.163-.104.27-.155l.053-.053c1.182-.677 3.168-.677 4.457.521.376.366.644.886.59 1.303a.983.983 0 01-.16.521c.967.313.913 1.147.913 1.565v.104c0 .157-.055.417-.055.52-.214 1.774-1.503 4.066-4.51 4.692-.644.208-1.288.26-1.878.26h-.001zm2.631-7.193c-.86 0-1.557.677-1.557 1.511 0 .834.698 1.511 1.557 1.511.86 0 1.557-.676 1.557-1.511 0-.313 0-.573.108-.781-.215-.053-.377-.105-.537-.262a1.57 1.57 0 00-1.128-.468z" fill="#fff"/></svg>