<svg xmlns="http://www.w3.org/2000/svg" viewBox="0 0 32 32"><path d="M25.125 15.125L22.5 12.339l-.054-.143q-.036 0-.071-.071-.036-.036-.036-.054l-.054-.161q-.036-.071-.036-.161 0-.143.036-.214.036-.143.054-.161 0-.125.089-.161 0-.018.036-.054l.071-.071.036-.018q.018-.018.054-.045t.071-.063.125-.054l.143-.071h.375l.161.071q.071.036.161.125.018 0 .054.036.071.036.071.054l4.661 4.875-4.661 4.911q0 .018-.071.054l-.054.071q-.018.036-.161.054-.089.089-.161.107h-.375l-.143-.071q-.089-.018-.125-.054-.071-.036-.161-.125-.036-.071-.089-.125-.107-.143-.107-.161-.018-.018-.054-.161-.036-.071-.036-.196 0-.107.036-.179 0-.089.036-.161.089-.036.089-.161.036-.071.089-.125l2.661-2.804h-14.5v-1.75h14.464zm-3.786 13.321H4.446q-.143 0-.357-.071-.107-.036-.268-.179-.143-.143-.196-.286-.054-.214-.054-.339V4.446q0-.143.054-.357.018-.054.196-.268.214-.179.268-.196.161-.054.357-.054h16.893v1.768h-16V26.66h16z" fill="#000000"/></svg>