<svg width="315" height="315" viewBox="0 0 315 315" fill="none" xmlns="http://www.w3.org/2000/svg">
<path d="M154.45 3.59405C156.048 1.71151 158.952 1.71151 160.55 3.59405L167.432 11.7042C168.85 13.3754 171.349 13.594 173.036 12.1944L181.222 5.40262C183.122 3.82609 185.983 4.33049 187.229 6.46183L192.598 15.6438C193.705 17.5359 196.128 18.1851 198.032 17.0998L207.273 11.8326C209.418 10.61 212.148 11.6034 213.005 13.9188L216.698 23.8937C217.459 25.9491 219.733 27.0093 221.797 26.2711L231.812 22.6886C234.136 21.857 236.652 23.3094 237.094 25.7385L238.999 36.2031C239.392 38.3595 241.447 39.7983 243.607 39.4297L254.092 37.6408C256.526 37.2255 258.751 39.0927 258.765 41.5616L258.824 52.1981C258.836 54.3899 260.61 56.1637 262.802 56.1759L273.438 56.2348C275.907 56.2485 277.774 58.4737 277.359 60.9075L275.57 71.3926C275.202 73.5532 276.64 75.6081 278.797 76.0007L289.262 77.9058C291.691 78.348 293.143 80.8635 292.311 83.1883L288.729 93.2035C287.991 95.2672 289.051 97.5408 291.106 98.3018L301.081 101.995C303.397 102.852 304.39 105.582 303.167 107.727L297.9 116.968C296.815 118.872 297.464 121.295 299.356 122.402L308.538 127.771C310.67 129.017 311.174 131.878 309.597 133.778L302.806 141.964C301.406 143.651 301.625 146.15 303.296 147.568L311.406 154.45C313.288 156.048 313.288 158.952 311.406 160.55L303.296 167.432C301.625 168.85 301.406 171.349 302.806 173.036L309.597 181.222C311.174 183.122 310.67 185.983 308.538 187.229L299.356 192.598C297.464 193.705 296.815 196.128 297.9 198.032L303.167 207.273C304.39 209.418 303.397 212.148 301.081 213.005L291.106 216.698C289.051 217.459 287.991 219.733 288.729 221.797L292.311 231.812C293.143 234.136 291.691 236.652 289.262 237.094L278.797 238.999C276.64 239.392 275.202 241.447 275.57 243.607L277.359 254.092C277.774 256.526 275.907 258.751 273.438 258.765L262.802 258.824C260.61 258.836 258.836 260.61 258.824 262.802L258.765 273.438C258.751 275.907 256.526 277.774 254.092 277.359L243.607 275.57C241.447 275.202 239.392 276.64 238.999 278.797L237.094 289.262C236.652 291.691 234.136 293.143 231.812 292.311L221.797 288.729C219.733 287.991 217.459 289.051 216.698 291.106L213.005 301.081C212.148 303.397 209.418 304.39 207.273 303.167L198.032 297.9C196.128 296.815 193.705 297.464 192.598 299.356L187.229 308.538C185.983 310.67 183.122 311.174 181.222 309.597L173.036 302.806C171.349 301.406 168.85 301.625 167.432 303.296L160.55 311.406C158.952 313.288 156.048 313.288 154.45 311.406L147.568 303.296C146.15 301.625 143.651 301.406 141.964 302.806L133.778 309.597C131.878 311.174 129.017 310.67 127.771 308.538L122.402 299.356C121.295 297.464 118.872 296.815 116.968 297.9L107.727 303.167C105.582 304.39 102.852 303.397 101.995 301.081L98.3018 291.106C97.5408 289.051 95.2672 287.991 93.2035 288.729L83.1883 292.311C80.8635 293.143 78.348 291.691 77.9058 289.262L76.0007 278.797C75.6081 276.64 73.5532 275.202 71.3926 275.57L60.9075 277.359C58.4737 277.774 56.2485 275.907 56.2348 273.438L56.1759 262.802C56.1637 260.61 54.3899 258.836 52.1981 258.824L41.5616 258.765C39.0927 258.751 37.2255 256.526 37.6408 254.092L39.4297 243.607C39.7983 241.447 38.3595 239.392 36.2031 238.999L25.7385 237.094C23.3094 236.652 21.857 234.136 22.6886 231.812L26.2711 221.797C27.0093 219.733 25.9491 217.459 23.8937 216.698L13.9188 213.005C11.6034 212.148 10.61 209.418 11.8326 207.273L17.0998 198.032C18.1851 196.128 17.5359 193.705 15.6438 192.598L6.46183 187.229C4.33049 185.983 3.82608 183.122 5.40262 181.222L12.1944 173.036C13.594 171.349 13.3754 168.85 11.7042 167.432L3.59405 160.55C1.71151 158.952 1.71151 156.048 3.59405 154.45L11.7042 147.568C13.3754 146.15 13.594 143.651 12.1944 141.964L5.40262 133.778C3.82609 131.878 4.33049 129.017 6.46183 127.771L15.6438 122.402C17.5359 121.295 18.1851 118.872 17.0998 116.968L11.8326 107.727C10.61 105.582 11.6034 102.852 13.9188 101.995L23.8937 98.3018C25.9491 97.5408 27.0093 95.2672 26.2711 93.2035L22.6886 83.1883C21.857 80.8636 23.3094 78.348 25.7385 77.9058L36.2031 76.0007C38.3595 75.6081 39.7983 73.5532 39.4297 71.3926L37.6408 60.9075C37.2255 58.4737 39.0927 56.2485 41.5616 56.2348L52.1981 56.1759C54.3899 56.1637 56.1637 54.3899 56.1759 52.1981L56.2348 41.5616C56.2485 39.0927 58.4737 37.2255 60.9075 37.6408L71.3926 39.4297C73.5532 39.7983 75.6081 38.3595 76.0007 36.2031L77.9058 25.7385C78.348 23.3094 80.8635 21.857 83.1883 22.6886L93.2035 26.2711C95.2672 27.0093 97.5408 25.9491 98.3018 23.8937L101.995 13.9188C102.852 11.6035 105.582 10.61 107.727 11.8326L116.968 17.0998C118.872 18.1851 121.295 17.5359 122.402 15.6438L127.771 6.46183C129.017 4.33049 131.878 3.82608 133.778 5.40262L141.964 12.1944C143.651 13.594 146.15 13.3754 147.568 11.7042L154.45 3.59405Z" fill="#A8A8A8"/>
<path d="M153.45 3.59405C155.048 1.71151 157.952 1.71151 159.55 3.59405L166.273 11.5172C167.692 13.1884 170.191 13.4071 171.877 12.0075L179.875 5.37224C181.775 3.79571 184.635 4.30011 185.882 6.43145L191.127 15.4018C192.234 17.2939 194.657 17.9431 196.561 16.8577L205.589 11.712C207.734 10.4893 210.464 11.4828 211.321 13.7982L214.929 23.5431C215.69 25.5986 217.964 26.6588 220.027 25.9206L229.812 22.4206C232.136 21.5891 234.652 23.0415 235.094 25.4705L236.955 35.694C237.348 37.8504 239.403 39.2892 241.563 38.9206L251.807 37.1729C254.241 36.7576 256.466 38.6248 256.48 41.0937L256.537 51.485C256.549 53.6768 258.323 55.4506 260.515 55.4628L270.906 55.5204C273.375 55.5341 275.242 57.7592 274.827 60.1931L273.079 70.4365C272.711 72.5971 274.15 74.652 276.306 75.0446L286.529 76.9058C288.959 77.348 290.411 79.8635 289.579 82.1883L286.079 91.9726C285.341 94.0364 286.401 96.3099 288.457 97.071L298.202 100.679C300.517 101.536 301.511 104.266 300.288 106.411L295.142 115.439C294.057 117.343 294.706 119.766 296.598 120.873L305.569 126.118C307.7 127.365 308.204 130.225 306.628 132.125L299.992 140.123C298.593 141.809 298.812 144.308 300.483 145.727L308.406 152.45C310.288 154.048 310.288 156.952 308.406 158.55L300.483 165.273C298.812 166.692 298.593 169.191 299.992 170.877L306.628 178.875C308.204 180.775 307.7 183.635 305.569 184.882L296.598 190.127C294.706 191.234 294.057 193.657 295.142 195.561L300.288 204.589C301.511 206.734 300.517 209.464 298.202 210.321L288.457 213.929C286.401 214.69 285.341 216.964 286.079 219.027L289.579 228.812C290.411 231.136 288.959 233.652 286.529 234.094L276.306 235.955C274.15 236.348 272.711 238.403 273.079 240.563L274.827 250.807C275.242 253.241 273.375 255.466 270.906 255.48L260.515 255.537C258.323 255.549 256.549 257.323 256.537 259.515L256.48 269.906C256.466 272.375 254.241 274.242 251.807 273.827L241.563 272.079C239.403 271.711 237.348 273.15 236.955 275.306L235.094 285.529C234.652 287.959 232.136 289.411 229.812 288.579L220.027 285.079C217.964 284.341 215.69 285.401 214.929 287.457L211.321 297.202C210.464 299.517 207.734 300.511 205.589 299.288L196.561 294.142C194.657 293.057 192.234 293.706 191.127 295.598L185.882 304.569C184.635 306.7 181.775 307.204 179.875 305.628L171.877 298.992C170.191 297.593 167.692 297.812 166.273 299.483L159.55 307.406C157.952 309.288 155.048 309.288 153.45 307.406L146.727 299.483C145.308 297.812 142.809 297.593 141.123 298.992L133.125 305.628C131.225 307.204 128.365 306.7 127.118 304.569L121.873 295.598C120.766 293.706 118.343 293.057 116.439 294.142L107.411 299.288C105.266 300.511 102.536 299.517 101.679 297.202L98.071 287.457C97.3099 285.401 95.0364 284.341 92.9726 285.079L83.1883 288.579C80.8635 289.411 78.348 287.959 77.9058 285.529L76.0446 275.306C75.652 273.15 73.5971 271.711 71.4365 272.079L61.1931 273.827C58.7592 274.242 56.5341 272.375 56.5204 269.906L56.4628 259.515C56.4506 257.323 54.6768 255.549 52.485 255.537L42.0937 255.48C39.6248 255.466 37.7576 253.241 38.1729 250.807L39.9206 240.563C40.2892 238.403 38.8504 236.348 36.694 235.955L26.4705 234.094C24.0415 233.652 22.5891 231.136 23.4206 228.812L26.9205 219.027C27.6588 216.964 26.5986 214.69 24.5432 213.929L14.7982 210.321C12.4828 209.464 11.4893 206.734 12.712 204.589L17.8577 195.561C18.9431 193.657 18.2939 191.234 16.4018 190.127L7.43145 184.882C5.30011 183.635 4.79571 180.775 6.37224 178.875L13.0075 170.877C14.4071 169.191 14.1884 166.692 12.5172 165.273L4.59405 158.55C2.71151 156.952 2.71151 154.048 4.59405 152.45L12.5172 145.727C14.1884 144.308 14.4071 141.809 13.0075 140.123L6.37224 132.125C4.79571 130.225 5.30011 127.365 7.43145 126.118L16.4018 120.873C18.2939 119.766 18.9431 117.343 17.8577 115.439L12.712 106.411C11.4893 104.266 12.4828 101.536 14.7982 100.679L24.5431 97.071C26.5986 96.3099 27.6588 94.0364 26.9206 91.9726L23.4207 82.1883C22.5891 79.8636 24.0415 77.348 26.4705 76.9058L36.694 75.0446C38.8504 74.652 40.2892 72.5971 39.9206 70.4365L38.1729 60.1931C37.7576 57.7592 39.6248 55.5341 42.0937 55.5204L52.485 55.4628C54.6768 55.4506 56.4506 53.6768 56.4628 51.485L56.5204 41.0937C56.5341 38.6248 58.7592 36.7576 61.1931 37.1729L71.4365 38.9206C73.5971 39.2892 75.652 37.8504 76.0446 35.694L77.9058 25.4705C78.348 23.0415 80.8635 21.5891 83.1883 22.4206L92.9726 25.9205C95.0364 26.6588 97.3099 25.5986 98.071 23.5432L101.679 13.7982C102.536 11.4828 105.266 10.4893 107.411 11.712L116.439 16.8577C118.343 17.9431 120.766 17.2939 121.873 15.4018L127.118 6.43145C128.365 4.30011 131.225 3.79571 133.125 5.37224L141.123 12.0075C142.809 13.4071 145.308 13.1884 146.727 11.5172L153.45 3.59405Z" fill="url(#paint0_linear)"/>
<ellipse cx="159" cy="159" rx="90" ry="90" transform="rotate(-180 159 159)" fill="url(#paint1_linear)"/>
<circle cx="159" cy="159" r="83" fill="url(#paint2_linear)"/>
<path d="M31 185.34H64.8V170.84H49.19V161.62H63.18V147.98H49.19V139.19H64.8V125H31V185.34Z" fill="#DA3931"/>
<path d="M97.24 137.72C91.8 137.72 87.67 141.01 84.85 147.6L85.02 144.62C85.08 143.79 85.12 142.88 85.15 141.9C85.18 140.92 85.21 139.86 85.24 138.71H67.75V185.34H85.24V161.83C85.24 157.26 86.46 154.97 88.9 154.97C89.95 154.97 90.68 155.39 91.1 156.22C91.52 157.05 91.73 158.53 91.73 160.66V185.33H109.22V153.55C109.22 148.58 108.16 144.69 106.04 141.9C103.95 139.12 101.01 137.72 97.24 137.72Z" fill="#DA3931"/>
<path d="M157.01 147.82L157.93 138.72H140.44H134.64V128H117.1V138.72H112.13V152.65H117.1V185.34H134.63V152.65H140.43V185.34H157.92V165.33C157.92 162.11 158.55 159.66 159.82 157.98C161.09 156.3 162.89 155.46 165.25 155.46C166.59 155.46 168.22 155.98 170.13 157.01V137.59C164.03 137.59 159.65 141 157.01 147.82Z" fill="#DA3931"/>
<path d="M215.55 138.72H198.06V164.99C198.06 167.69 197.8 169.52 197.27 170.47C196.78 171.42 195.82 171.89 194.39 171.89C192.94 171.89 191.95 171.42 191.42 170.47C190.93 169.32 190.68 167.49 190.68 164.99V138.72H173.2V167.32C173.2 169.22 173.35 170.94 173.66 172.47C173.97 174.01 174.45 175.41 175.1 176.68C175.75 177.95 176.6 179.09 177.63 180.11C178.66 181.13 179.9 182.07 181.36 182.94C185.14 185.18 189.49 186.3 194.4 186.3C199.26 186.3 203.6 185.18 207.44 182.94C208.86 182.08 210.09 181.13 211.13 180.09C212.16 179.05 213.01 177.91 213.66 176.66C214.31 175.41 214.79 174.01 215.1 172.48C215.41 170.94 215.56 169.22 215.56 167.33V138.72H215.55Z" fill="#DA3931"/>
<path d="M239.84 156.7C236.35 155.32 234.61 153.84 234.61 152.26C234.61 150.79 235.53 150.06 237.36 150.06C239.22 150.06 241.62 151.43 244.56 154.16L250.54 141.52C245.71 138.99 241.03 137.72 236.5 137.72C230.98 137.72 226.37 139.23 222.68 142.25C219.02 145.27 217.19 149.06 217.19 153.64C217.19 159.88 221.3 164.44 229.53 167.31C232.58 168.4 234.11 169.64 234.11 171.02C234.11 172.63 232.98 173.44 230.71 173.44C228.01 173.44 225.08 171.82 221.94 168.57L215.57 181.51C217.4 182.43 219.04 183.21 220.5 183.86C221.95 184.51 223.29 184.99 224.51 185.31C227.13 185.97 229.76 186.3 232.4 186.3C237.92 186.3 242.44 184.78 245.96 181.73C249.48 178.68 251.24 174.76 251.24 169.96C251.24 166.62 250.41 164.01 248.75 162.11C247.16 160.2 244.2 158.4 239.84 156.7Z" fill="#DA3931"/>
<path d="M275.75 138.72V128H258.21V138.72H253.24V152.65H258.21V185.34H275.75V152.65H281.55V138.72H275.75Z" fill="#DA3931"/>
<path d="M79.5677 63.8514L78.566 66.8752C77.6013 66.5413 76.8408 66.43 76.3214 66.5227C75.7463 66.6155 75.1898 66.8937 74.6147 67.3946C73.9098 68.0068 73.5016 68.7302 73.3718 69.5279C73.2419 70.3256 73.446 71.0305 73.9654 71.6241C74.6889 72.4404 75.8761 72.5702 77.5271 72.0137L79.8089 71.2346C81.6639 70.6039 83.2593 70.3998 84.5764 70.641C85.8935 70.8821 87.0807 71.587 88.0825 72.7557C89.4367 74.314 90.0303 76.0392 89.8819 77.9499C89.7335 79.8792 88.8802 81.5116 87.3404 82.8658C85.8749 84.1458 84.2796 84.758 82.5729 84.7209C80.8848 84.6653 79.2338 83.9603 77.6199 82.5876L79.6976 79.7679C80.6808 80.6583 81.4784 81.1592 82.0906 81.289C83.2408 81.5673 84.3352 81.2519 85.337 80.3801C86.1347 79.6937 86.5613 78.8404 86.617 77.8572C86.6726 76.874 86.3573 75.965 85.6523 75.1488C85.3741 74.8149 85.0587 74.5551 84.7248 74.3696C84.3909 74.1841 84.0384 74.0543 83.6489 73.9801C83.2593 73.9244 82.8141 73.9244 82.3318 73.9801C81.8494 74.0543 81.33 74.1656 80.7364 74.3511L78.5103 75.0931C75.3567 76.132 72.9451 75.7053 71.3127 73.8317C70.1996 72.5702 69.773 71.0862 69.9956 69.3795C70.2182 67.6729 71.053 66.1888 72.4814 64.9459C74.4663 63.2949 76.8222 62.9053 79.5677 63.8514Z" fill="white"/>
<path d="M96.4674 52.4245L88.8616 57.192L91.7184 61.7555L99.1016 57.1178L100.79 59.8076L93.4065 64.4267L97.3764 70.7711L104.982 66.0036L106.67 68.6934L96.2077 75.2418L84.3352 56.283L94.7978 49.7346L96.4674 52.4245Z" fill="white"/>
<path d="M118.172 40.5892L119.674 44.2993C117.244 43.5202 115.074 43.5387 113.144 44.3179C111.011 45.1897 109.527 46.6738 108.692 48.8071C107.839 50.9219 107.876 53.0923 108.766 55.2813C109.657 57.4517 111.141 58.9914 113.219 59.8819C115.296 60.7723 117.393 60.7909 119.526 59.919C120.62 59.4738 121.492 58.9172 122.104 58.2309C122.457 57.8784 122.809 57.4517 123.143 56.9694C123.477 56.4685 123.811 55.912 124.145 55.2813L125.685 59.0471C124.312 60.7909 122.642 62.0523 120.657 62.8685C117.689 64.0743 114.74 64.0743 111.809 62.8685C108.878 61.6256 106.8 59.548 105.613 56.5984C104.537 53.9642 104.444 51.2558 105.353 48.4732C106.466 45.0599 108.729 42.6669 112.143 41.2756C114.016 40.515 116.02 40.2924 118.172 40.5892Z" fill="white"/>
<path d="M129.469 36.3593L132.048 49.5859C132.419 51.4781 132.994 52.7952 133.773 53.5372C134.941 54.6132 136.351 55.0027 138.021 54.6688C139.69 54.3349 140.878 53.463 141.546 52.0161C141.991 51.0514 142.028 49.6045 141.657 47.6938L139.097 34.4857L142.417 33.8364L145.163 47.972C145.608 50.2909 145.256 52.3314 144.124 54.1123C142.825 56.0972 140.989 57.3216 138.633 57.7853C136.277 58.2491 134.125 57.8039 132.177 56.4497C130.452 55.2253 129.358 53.463 128.894 51.1442L126.148 37.0086L129.469 36.3593Z" fill="white"/>
<path d="M159.818 45.8018L166.867 55.2441L162.73 55.2998L156.238 46.2285H155.625L155.737 55.3925L152.361 55.4296L152.064 33.0575L156.034 33.0019C158.983 32.9648 161.135 33.4842 162.452 34.5787C163.918 35.803 164.66 37.4169 164.697 39.4575C164.715 41.0343 164.289 42.407 163.38 43.5572C162.471 44.7073 161.302 45.4494 159.818 45.8018ZM155.588 43.2789L156.664 43.2604C159.855 43.2233 161.45 41.9804 161.413 39.5317C161.376 37.25 159.818 36.1184 156.701 36.1555L155.496 36.1926L155.588 43.2789Z" fill="white"/>
<path d="M185.585 38.4928L176.718 37.1943L175.938 42.5183L184.564 43.7798L184.082 46.9148L175.456 45.6534L174.362 53.0551L183.229 54.3536L182.765 57.4887L170.54 55.6893L173.842 33.5583L186.067 35.3578L185.585 38.4928Z" fill="white"/>
<path d="M187.477 58.472L194.563 37.25L199.015 38.7341C201.149 39.439 202.763 40.2181 203.857 41.0529C205.044 41.9062 206.028 43.0193 206.77 44.3735C208.291 47.1004 208.513 50.0871 207.419 53.352C206.324 56.6169 204.302 58.8801 201.353 60.123C199.869 60.7537 198.44 61.0505 197.049 61.0134C195.751 61.0134 194.007 60.6609 191.855 59.9375L187.477 58.472ZM191.688 56.5427L193.135 57.025C194.582 57.5073 195.825 57.7485 196.882 57.767C197.94 57.767 198.978 57.5444 199.98 57.0992C202.039 56.1902 203.449 54.5763 204.228 52.276C205.007 49.9572 204.859 47.8053 203.783 45.839C202.818 44.0766 200.963 42.741 198.236 41.832L196.789 41.3497L191.688 56.5427Z" fill="white"/>
<path d="M216.639 70.6969L229.105 52.1091L231.906 53.9827C233.149 54.8175 234.076 55.5781 234.688 56.2645C235.301 56.9509 235.709 57.7114 235.931 58.5091C236.135 59.3253 236.154 60.1972 235.987 61.1062C235.82 62.0337 235.486 62.85 235.004 63.592C234.113 64.9276 232.852 65.7068 231.201 65.9479C231.961 66.9497 232.351 68.0627 232.351 69.287C232.37 70.5114 231.999 71.6801 231.257 72.7746C230.292 74.2215 228.938 75.112 227.25 75.4273C226.211 75.6314 225.228 75.5943 224.3 75.316C223.298 74.9821 222.167 74.3885 220.905 73.5352L216.639 70.6969ZM221.202 69.9363L222.927 71.105C224.189 71.9583 225.283 72.3294 226.211 72.2366C227.194 72.1253 227.973 71.643 228.53 70.8268C229.068 70.0291 229.216 69.1572 228.975 68.1926C228.752 67.265 227.88 66.2818 226.378 65.2801L224.949 64.334L221.202 69.9363ZM226.545 61.9781L227.417 62.5717C228.455 63.2766 229.383 63.5549 230.181 63.425C230.978 63.2952 231.683 62.7758 232.277 61.8668C232.87 60.9949 233.056 60.1601 232.87 59.381C232.685 58.6019 232.11 57.8784 231.164 57.2477L230.181 56.5798L226.545 61.9781Z" fill="white"/>
<path d="M240.309 76.2994L243.519 61.9968L246.375 64.631L244.094 74.6855L253.925 71.569L256.782 74.2032L242.776 78.5997L236.247 85.7231L233.761 83.4414L240.309 76.2994Z" fill="white"/>
<path d="M79.5677 61.8514L78.566 64.8752C77.6013 64.5413 76.8408 64.43 76.3214 64.5227C75.7463 64.6155 75.1898 64.8937 74.6147 65.3946C73.9098 66.0068 73.5016 66.7302 73.3718 67.5279C73.2419 68.3256 73.446 69.0305 73.9654 69.6241C74.6889 70.4404 75.8761 70.5702 77.5271 70.0137L79.8089 69.2346C81.6639 68.6039 83.2593 68.3998 84.5764 68.641C85.8935 68.8821 87.0807 69.587 88.0825 70.7557C89.4367 72.314 90.0303 74.0392 89.8819 75.9499C89.7335 77.8792 88.8802 79.5116 87.3404 80.8658C85.8749 82.1458 84.2796 82.758 82.5729 82.7209C80.8848 82.6653 79.2338 81.9603 77.6199 80.5876L79.6976 77.7679C80.6808 78.6583 81.4784 79.1592 82.0906 79.289C83.2408 79.5673 84.3352 79.2519 85.337 78.3801C86.1347 77.6937 86.5613 76.8404 86.617 75.8572C86.6726 74.874 86.3573 73.965 85.6523 73.1488C85.3741 72.8149 85.0587 72.5551 84.7248 72.3696C84.3909 72.1841 84.0384 72.0543 83.6489 71.9801C83.2593 71.9244 82.8141 71.9244 82.3318 71.9801C81.8494 72.0543 81.33 72.1656 80.7364 72.3511L78.5103 73.0931C75.3567 74.132 72.9451 73.7053 71.3127 71.8317C70.1996 70.5702 69.773 69.0862 69.9956 67.3795C70.2182 65.6729 71.053 64.1888 72.4814 62.9459C74.4663 61.2949 76.8222 60.9053 79.5677 61.8514Z" fill="black"/>
<path d="M96.4674 50.4245L88.8616 55.192L91.7184 59.7555L99.1016 55.1178L100.79 57.8076L93.4065 62.4267L97.3764 68.7711L104.982 64.0036L106.67 66.6934L96.2077 73.2418L84.3352 54.283L94.7978 47.7346L96.4674 50.4245Z" fill="black"/>
<path d="M118.172 38.5892L119.674 42.2993C117.244 41.5202 115.074 41.5387 113.144 42.3179C111.011 43.1897 109.527 44.6738 108.692 46.8071C107.839 48.9219 107.876 51.0923 108.766 53.2813C109.657 55.4517 111.141 56.9914 113.219 57.8819C115.296 58.7723 117.393 58.7909 119.526 57.919C120.62 57.4738 121.492 56.9172 122.104 56.2309C122.457 55.8784 122.809 55.4517 123.143 54.9694C123.477 54.4685 123.811 53.912 124.145 53.2813L125.685 57.0471C124.312 58.7909 122.642 60.0523 120.657 60.8685C117.689 62.0743 114.74 62.0743 111.809 60.8685C108.878 59.6256 106.8 57.548 105.613 54.5984C104.537 51.9642 104.444 49.2558 105.353 46.4732C106.466 43.0599 108.729 40.6669 112.143 39.2756C114.016 38.515 116.02 38.2924 118.172 38.5892Z" fill="black"/>
<path d="M129.469 34.3593L132.048 47.5859C132.419 49.4781 132.994 50.7952 133.773 51.5372C134.941 52.6132 136.351 53.0027 138.021 52.6688C139.69 52.3349 140.878 51.463 141.546 50.0161C141.991 49.0514 142.028 47.6045 141.657 45.6938L139.097 32.4857L142.417 31.8364L145.163 45.972C145.608 48.2909 145.256 50.3314 144.124 52.1123C142.825 54.0972 140.989 55.3216 138.633 55.7853C136.277 56.2491 134.125 55.8039 132.177 54.4497C130.452 53.2253 129.358 51.463 128.894 49.1442L126.148 35.0086L129.469 34.3593Z" fill="black"/>
<path d="M159.818 43.8018L166.867 53.2441L162.73 53.2998L156.238 44.2285H155.625L155.737 53.3925L152.361 53.4296L152.064 31.0575L156.034 31.0019C158.983 30.9648 161.135 31.4842 162.452 32.5787C163.918 33.803 164.66 35.4169 164.697 37.4575C164.715 39.0343 164.289 40.407 163.38 41.5572C162.471 42.7073 161.302 43.4494 159.818 43.8018ZM155.588 41.2789L156.664 41.2604C159.855 41.2233 161.45 39.9804 161.413 37.5317C161.376 35.25 159.818 34.1184 156.701 34.1555L155.496 34.1926L155.588 41.2789Z" fill="black"/>
<path d="M185.585 36.4928L176.718 35.1943L175.938 40.5183L184.564 41.7798L184.082 44.9148L175.456 43.6534L174.362 51.0551L183.229 52.3536L182.765 55.4887L170.54 53.6893L173.842 31.5583L186.067 33.3578L185.585 36.4928Z" fill="black"/>
<path d="M187.477 56.472L194.563 35.25L199.015 36.7341C201.149 37.439 202.763 38.2181 203.857 39.0529C205.044 39.9062 206.028 41.0193 206.77 42.3735C208.291 45.1004 208.513 48.0871 207.419 51.352C206.324 54.6169 204.302 56.8801 201.353 58.123C199.869 58.7537 198.44 59.0505 197.049 59.0134C195.751 59.0134 194.007 58.6609 191.855 57.9375L187.477 56.472ZM191.688 54.5427L193.135 55.025C194.582 55.5073 195.825 55.7485 196.882 55.767C197.94 55.767 198.978 55.5444 199.98 55.0992C202.039 54.1902 203.449 52.5763 204.228 50.276C205.007 47.9572 204.859 45.8053 203.783 43.839C202.818 42.0766 200.963 40.741 198.236 39.832L196.789 39.3497L191.688 54.5427Z" fill="black"/>
<path d="M216.639 68.6969L229.105 50.1091L231.906 51.9827C233.149 52.8175 234.076 53.5781 234.688 54.2645C235.301 54.9509 235.709 55.7114 235.931 56.5091C236.135 57.3253 236.154 58.1972 235.987 59.1062C235.82 60.0337 235.486 60.85 235.004 61.592C234.113 62.9276 232.852 63.7068 231.201 63.9479C231.961 64.9497 232.351 66.0627 232.351 67.287C232.37 68.5114 231.999 69.6801 231.257 70.7746C230.292 72.2215 228.938 73.112 227.25 73.4273C226.211 73.6314 225.228 73.5943 224.3 73.316C223.298 72.9821 222.167 72.3885 220.905 71.5352L216.639 68.6969ZM221.202 67.9363L222.927 69.105C224.189 69.9583 225.283 70.3294 226.211 70.2366C227.194 70.1253 227.973 69.643 228.53 68.8268C229.068 68.0291 229.216 67.1572 228.975 66.1926C228.752 65.265 227.88 64.2818 226.378 63.2801L224.949 62.334L221.202 67.9363ZM226.545 59.9781L227.417 60.5717C228.455 61.2766 229.383 61.5549 230.181 61.425C230.978 61.2952 231.683 60.7758 232.277 59.8668C232.87 58.9949 233.056 58.1601 232.87 57.381C232.685 56.6019 232.11 55.8784 231.164 55.2477L230.181 54.5798L226.545 59.9781Z" fill="black"/>
<path d="M240.309 74.2994L243.519 59.9968L246.375 62.631L244.094 72.6855L253.925 69.569L256.782 72.2032L242.776 76.5997L236.247 83.7231L233.761 81.4414L240.309 74.2994Z" fill="black"/>
<path d="M119.374 254.59L118.781 271.285L130.783 259.635L134.159 261.119L115.256 279.076L115.998 253.105L119.374 254.59Z" fill="white"/>
<path d="M147.757 267.093L138.982 265.201L137.851 270.45L146.365 272.305L145.698 275.403L137.183 273.548L135.606 280.857L144.381 282.75L143.713 285.847L131.655 283.232L136.348 261.379L148.406 263.995L147.757 267.093Z" fill="white"/>
<path d="M159.592 277.444L166.27 287.146L162.134 287.034L155.975 277.722L155.363 277.703L155.14 286.867L151.764 286.793L152.32 264.421L156.272 264.514C159.221 264.588 161.354 265.2 162.634 266.332C164.044 267.612 164.731 269.263 164.694 271.285C164.656 272.862 164.174 274.216 163.228 275.329C162.301 276.461 161.076 277.165 159.592 277.444ZM155.455 274.772L156.531 274.791C159.722 274.865 161.354 273.696 161.41 271.248C161.466 268.966 159.945 267.779 156.828 267.705L155.622 267.668L155.455 274.772Z" fill="white"/>
<path d="M173.357 263.754L176.065 285.959L172.707 286.367L169.999 264.162L173.357 263.754Z" fill="white"/>
<path d="M190.275 263.197L182.725 265.163L184.079 270.357L191.351 268.446L192.149 271.526L184.877 273.437L187.567 283.751L184.302 284.604L178.662 262.955L189.477 260.136L190.275 263.197Z" fill="white"/>
<path d="M202.222 268.539L190.219 260.117L193.744 258.466L202.166 264.403L203.019 254.126L206.544 252.475L205.282 267.093L209.382 275.848L206.321 277.277L202.222 268.539Z" fill="white"/>
<path d="M97.7627 246.483L106.797 260.841C107.224 261.509 106.741 262.381 105.944 262.381H89.5077C88.5987 262.381 88.1535 261.286 88.7842 260.656L94.1639 255.276C94.3123 255.146 94.4236 254.961 94.4607 254.756L95.9077 246.835C96.0746 245.926 97.2619 245.685 97.7627 246.483Z" fill="white"/>
<path d="M119.374 252.59L118.781 269.285L130.783 257.635L134.159 259.119L115.256 277.076L115.998 251.105L119.374 252.59Z" fill="black"/>
<path d="M147.757 265.093L138.982 263.201L137.851 268.45L146.365 270.305L145.698 273.403L137.183 271.548L135.606 278.857L144.381 280.75L143.713 283.847L131.655 281.232L136.348 259.379L148.406 261.995L147.757 265.093Z" fill="black"/>
<path d="M159.592 275.444L166.27 285.146L162.134 285.034L155.975 275.722L155.363 275.703L155.14 284.867L151.764 284.793L152.32 262.421L156.272 262.514C159.221 262.588 161.354 263.2 162.634 264.332C164.044 265.612 164.731 267.263 164.694 269.285C164.656 270.862 164.174 272.216 163.228 273.329C162.301 274.461 161.076 275.165 159.592 275.444ZM155.455 272.772L156.531 272.791C159.722 272.865 161.354 271.696 161.41 269.248C161.466 266.966 159.945 265.779 156.828 265.705L155.622 265.668L155.455 272.772Z" fill="black"/>
<path d="M173.357 261.754L176.065 283.959L172.707 284.367L169.999 262.162L173.357 261.754Z" fill="black"/>
<path d="M190.275 261.197L182.725 263.163L184.079 268.357L191.351 266.446L192.149 269.526L184.877 271.437L187.567 281.751L184.302 282.604L178.662 260.955L189.477 258.136L190.275 261.197Z" fill="black"/>
<path d="M202.222 266.539L190.219 258.117L193.744 256.466L202.166 262.403L203.019 252.126L206.544 250.475L205.282 265.093L209.382 273.848L206.321 275.277L202.222 266.539Z" fill="black"/>
<path d="M97.7627 244.483L106.797 258.841C107.224 259.509 106.741 260.381 105.944 260.381H89.5077C88.5987 260.381 88.1535 259.286 88.7842 258.656L94.1639 253.276C94.3123 253.146 94.4236 252.961 94.4607 252.756L95.9077 244.835C96.0746 243.926 97.2619 243.685 97.7627 244.483Z" fill="black"/>
<path d="M284.944 132.928L286.635 135.096H285.421L283.876 133.04V135.096H282.882V129.91H283.921C284.648 129.91 285.178 130.039 285.511 130.296C285.882 130.595 286.067 130.985 286.067 131.467C286.067 131.792 285.968 132.092 285.77 132.368C285.571 132.637 285.318 132.816 285.011 132.906L284.944 132.928ZM283.871 132.212H284.039C284.751 132.212 285.107 131.967 285.107 131.478C285.107 131.022 284.762 130.795 284.073 130.795H283.871V132.212ZM289 132.492C289 133.742 288.562 134.806 287.685 135.684C286.809 136.561 285.749 137 284.506 137C283.262 137 282.199 136.559 281.315 135.678C280.438 134.801 280 133.735 280 132.48C280 131.786 280.142 131.153 280.427 130.582C280.715 129.973 281.116 129.458 281.629 129.036C282.468 128.345 283.41 128 284.455 128C285.148 128 285.775 128.131 286.337 128.392C287.135 128.739 287.777 129.29 288.264 130.044C288.755 130.802 289 131.618 289 132.492ZM284.472 128.655C283.446 128.655 282.566 129.032 281.831 129.787C281.094 130.544 280.725 131.444 280.725 132.486C280.725 133.55 281.094 134.461 281.831 135.219C282.566 135.973 283.457 136.35 284.506 136.35C285.543 136.35 286.431 135.975 287.169 135.225C287.903 134.47 288.27 133.559 288.27 132.492C288.27 131.92 288.125 131.33 287.837 130.722C287.552 130.151 287.174 129.697 286.702 129.361C286.039 128.89 285.296 128.655 284.472 128.655Z" fill="#DA3931"/>
<defs>
<linearGradient id="paint0_linear" x1="1" y1="155.5" x2="312" y2="155.5" gradientUnits="userSpaceOnUse">
<stop stop-color="#C8C9CA"/>
<stop offset="1" stop-color="#DFDFDF"/>
</linearGradient>
<linearGradient id="paint1_linear" x1="88.4211" y1="99.7895" x2="221.526" y2="213" gradientUnits="userSpaceOnUse">
<stop stop-color="#929292"/>
<stop offset="1" stop-color="#DFDFDF"/>
<stop offset="1" stop-color="#ECECEC"/>
</linearGradient>
<linearGradient id="paint2_linear" x1="76" y1="159" x2="242" y2="159" gradientUnits="userSpaceOnUse">
<stop stop-color="#C8C9CA"/>
<stop offset="1" stop-color="#DFDFDF"/>
</linearGradient>
</defs>
</svg>
