<svg xmlns="http://www.w3.org/2000/svg" fill="none" viewBox="0 0 113 42"><path fill="#424242" fill-rule="evenodd" d="M2.58 0A2.58 2.58 0 0 0 0 2.58v36.17a2.58 2.58 0 0 0 2.58 2.59h107.65a2.58 2.58 0 0 0 2.58-2.59V2.58A2.58 2.58 0 0 0 110.23 0H2.58z" clip-rule="evenodd"/><path fill="#fff" fill-rule="evenodd" d="M25.06 20.27c-.02-2.76 2.26-4.1 2.37-4.16a5.09 5.09 0 0 0-4.01-2.17c-1.69-.18-3.32 1-4.18 1-.88 0-2.2-.98-3.62-.96a5.34 5.34 0 0 0-4.5 2.74c-1.94 3.37-.49 8.3 1.37 11.02.93 1.34 2.02 2.82 3.44 2.77 1.4-.06 1.92-.89 3.6-.89 1.66 0 2.15.89 3.6.86 1.5-.03 2.44-1.34 3.34-2.68a11 11 0 0 0 1.52-3.1 4.8 4.8 0 0 1-2.93-4.43zM22.32 12.15a4.89 4.89 0 0 0 1.12-3.5 4.98 4.98 0 0 0-3.22 1.66c-.7.8-1.31 2.13-1.15 3.38 1.22.09 2.47-.62 3.25-1.54zM45.22 30.32h-1.95l-1.07-3.35h-3.7l-1.02 3.35h-1.9l3.68-11.4h2.27l3.69 11.4zm-3.34-4.76l-.96-2.98c-.1-.3-.3-1.02-.58-2.14h-.03c-.11.48-.3 1.2-.54 2.14l-.95 2.98h3.06zM54.66 26.1c0 1.4-.38 2.51-1.14 3.32A3.32 3.32 0 0 1 51 30.5c-1.08 0-1.86-.38-2.33-1.16h-.04v4.33h-1.82V24.8c0-.88-.03-1.78-.07-2.7h1.6l.1 1.3h.04a3.04 3.04 0 0 1 2.78-1.47c.97 0 1.78.38 2.43 1.15.64.76.97 1.77.97 3.03zm-1.86.07c0-.8-.18-1.46-.54-1.98-.4-.54-.93-.81-1.6-.81-.45 0-.86.15-1.22.45-.37.3-.6.69-.72 1.17a2.4 2.4 0 0 0-.09.56v1.37c0 .6.19 1.1.55 1.52.37.41.85.62 1.43.62.7 0 1.23-.27 1.61-.8a3.5 3.5 0 0 0 .58-2.1zM64.12 26.1c0 1.4-.38 2.51-1.14 3.32a3.31 3.31 0 0 1-2.52 1.08c-1.08 0-1.86-.38-2.33-1.16h-.04v4.33h-1.82V24.8c0-.88-.03-1.78-.07-2.7h1.6l.1 1.3h.04a3.04 3.04 0 0 1 2.78-1.47c.97 0 1.78.38 2.43 1.15.64.76.97 1.77.97 3.03zm-1.86.07c0-.8-.18-1.46-.55-1.98-.4-.54-.92-.81-1.59-.81-.45 0-.86.15-1.22.45-.37.3-.6.69-.72 1.17-.06.23-.09.42-.09.56v1.37c0 .6.19 1.1.55 1.52.37.41.85.62 1.43.62.7 0 1.23-.27 1.61-.8a3.5 3.5 0 0 0 .58-2.1zM74.7 27.12c0 .97-.34 1.76-1.02 2.37-.74.67-1.78 1-3.1 1a5.44 5.44 0 0 1-2.96-.71l.42-1.53a5 5 0 0 0 2.64.73 2.5 2.5 0 0 0 1.61-.46c.39-.31.58-.73.58-1.25 0-.46-.16-.85-.48-1.17a4.4 4.4 0 0 0-1.57-.88c-2-.75-3-1.84-3-3.27 0-.94.35-1.7 1.05-2.3.7-.6 1.63-.9 2.8-.9 1.03 0 1.9.18 2.58.54l-.45 1.49a4.5 4.5 0 0 0-2.19-.53c-.64 0-1.14.16-1.5.48-.3.28-.46.62-.46 1.03 0 .45.18.82.53 1.12.3.27.85.56 1.66.88.98.4 1.7.85 2.16 1.38.46.53.7 1.2.7 1.98zM80.74 23.47h-2.02v3.99c0 1.01.36 1.52 1.07 1.52.32 0 .6-.03.81-.08l.05 1.38c-.36.14-.83.2-1.42.2a2.2 2.2 0 0 1-1.7-.65c-.4-.44-.6-1.18-.6-2.22v-4.15h-1.2V22.1h1.2v-1.5l1.8-.54v2.04h2v1.38zM89.82 26.14c0 1.26-.36 2.3-1.08 3.11a3.87 3.87 0 0 1-3.01 1.25c-1.21 0-2.17-.4-2.89-1.2a4.37 4.37 0 0 1-1.07-3.03c0-1.27.37-2.31 1.1-3.13a3.84 3.84 0 0 1 3-1.21c1.2 0 2.17.4 2.9 1.2.7.78 1.05 1.78 1.05 3zm-1.9.06c0-.76-.15-1.41-.48-1.95a1.8 1.8 0 0 0-1.64-.99c-.74 0-1.3.33-1.68.99-.33.54-.49 1.2-.49 1.98 0 .76.16 1.41.5 1.95.39.66.94.99 1.65.99.7 0 1.25-.34 1.64-1 .34-.56.5-1.21.5-1.97zM95.76 23.7a3.17 3.17 0 0 0-.57-.05c-.65 0-1.14.24-1.5.73-.3.43-.45.97-.45 1.62v4.32h-1.83l.02-5.64c0-.94-.02-1.8-.07-2.58h1.6l.06 1.57h.05c.2-.54.5-.98.92-1.3.4-.3.84-.44 1.32-.44.16 0 .32 0 .45.03v1.74zM103.94 25.82c0 .32-.03.6-.07.83h-5.48c.02.8.28 1.43.8 1.86.45.38 1.05.57 1.78.57.82 0 1.56-.13 2.22-.39l.29 1.27c-.78.34-1.7.51-2.76.51a4 4 0 0 1-3-1.12 4.16 4.16 0 0 1-1.1-3.02c0-1.24.34-2.28 1.02-3.1a3.5 3.5 0 0 1 2.88-1.32c1.18 0 2.08.44 2.69 1.32.48.7.73 1.56.73 2.59zm-1.75-.48c.01-.54-.1-1-.35-1.4a1.6 1.6 0 0 0-1.46-.76c-.6 0-1.08.24-1.45.74-.3.4-.49.87-.54 1.42h3.8zM41.28 11.9c0 1-.3 1.76-.9 2.27a3.6 3.6 0 0 1-2.4.71c-.5 0-.94-.02-1.3-.07v-5.5c.47-.09.98-.12 1.54-.12.98 0 1.72.2 2.22.64.56.48.84 1.17.84 2.07zm-.95.02c0-.65-.17-1.15-.52-1.5-.34-.35-.85-.53-1.52-.53-.28 0-.52.02-.72.06v4.2l.6.02c.7 0 1.22-.2 1.6-.58.37-.38.56-.94.56-1.67zM46.3 12.78c0 .62-.18 1.13-.53 1.53a1.9 1.9 0 0 1-1.48.61c-.6 0-1.07-.2-1.42-.59-.35-.4-.53-.89-.53-1.49 0-.62.18-1.14.55-1.53.36-.4.85-.6 1.46-.6.6 0 1.07.2 1.43.59.35.38.52.87.52 1.48zm-.93.03c0-.38-.08-.7-.24-.96a.89.89 0 0 0-.8-.49.9.9 0 0 0-.83.49c-.16.26-.24.59-.24.97s.08.7.24.96c.2.32.46.49.81.49.35 0 .61-.17.8-.5.17-.27.26-.6.26-.96zM53.03 10.79l-1.26 4.04h-.82l-.53-1.75c-.13-.44-.24-.88-.32-1.3h-.02c-.08.43-.19.87-.32 1.3l-.56 1.75h-.83l-1.2-4.04h.93l.46 1.92c.1.46.2.89.27 1.3h.02c.07-.34.18-.77.33-1.29l.58-1.93h.73l.55 1.89c.13.46.24.9.32 1.33h.03c.06-.42.15-.86.27-1.33l.5-1.89h.87zM57.69 14.83h-.9v-2.31c0-.72-.27-1.07-.81-1.07-.27 0-.48.1-.65.3-.17.19-.25.42-.25.68v2.4h-.9v-2.89l-.03-1.15h.79l.04.63H55c.1-.2.26-.36.47-.49.24-.15.52-.22.81-.22.38 0 .7.12.94.36.31.3.47.75.47 1.34v2.42zM60.17 14.83h-.9v-5.9h.9v5.9zM65.45 12.78c0 .62-.17 1.13-.53 1.53a1.9 1.9 0 0 1-1.48.61c-.6 0-1.06-.2-1.42-.59-.35-.4-.52-.89-.52-1.49 0-.62.18-1.14.54-1.53.36-.4.85-.6 1.47-.6.6 0 1.07.2 1.43.59.34.38.51.87.51 1.48zm-.93.03c0-.38-.08-.7-.24-.96a.89.89 0 0 0-.8-.49.9.9 0 0 0-.83.49c-.16.26-.24.59-.24.97s.08.7.24.96c.2.32.47.49.82.49.34 0 .6-.17.8-.5.17-.27.25-.6.25-.96zM69.8 14.83H69l-.07-.46h-.03c-.27.37-.67.55-1.18.55-.38 0-.69-.12-.92-.36-.21-.22-.32-.5-.32-.83 0-.49.21-.87.62-1.13.42-.26 1-.39 1.75-.38v-.07c0-.54-.28-.8-.84-.8-.4 0-.75.1-1.06.3l-.18-.6c.38-.23.84-.34 1.39-.34 1.05 0 1.58.56 1.58 1.67v1.49c0 .4.02.72.06.96zm-.93-1.39v-.62c-1-.02-1.49.25-1.49.81 0 .21.06.37.17.48.12.1.27.16.44.16a.9.9 0 0 0 .55-.2.76.76 0 0 0 .33-.63zM74.9 14.83h-.8l-.03-.65h-.03c-.25.5-.69.74-1.3.74-.48 0-.89-.19-1.21-.57a2.23 2.23 0 0 1-.48-1.49c0-.65.17-1.18.52-1.59.34-.37.76-.56 1.25-.56.54 0 .92.18 1.14.55h.01V8.94h.9v4.8c0 .4.01.76.03 1.1zm-.93-1.7v-.68c0-.11 0-.2-.02-.28-.05-.22-.16-.4-.33-.54a.88.88 0 0 0-.6-.22c-.33 0-.6.13-.79.4-.19.26-.28.6-.28 1.02 0 .4.09.72.27.97.2.27.46.4.79.4.3 0 .53-.11.7-.33.18-.2.26-.46.26-.74zM82.59 12.78c0 .62-.18 1.13-.54 1.53a1.9 1.9 0 0 1-1.48.61c-.59 0-1.06-.2-1.41-.59-.35-.4-.53-.89-.53-1.49 0-.62.18-1.14.54-1.53.37-.4.86-.6 1.47-.6.6 0 1.07.2 1.43.59.34.38.52.87.52 1.48zm-.93.03c0-.38-.08-.7-.24-.96a.89.89 0 0 0-.81-.49.9.9 0 0 0-.82.49c-.17.26-.25.59-.25.97s.08.7.25.96c.19.32.46.49.81.49.34 0 .61-.17.8-.5.17-.27.26-.6.26-.96zM87.42 14.83h-.9v-2.31c0-.72-.27-1.07-.82-1.07a.8.8 0 0 0-.64.3c-.17.19-.25.42-.25.68v2.4h-.9v-2.89l-.03-1.15h.78l.05.63h.02c.1-.2.26-.36.47-.49.24-.15.51-.22.81-.22.38 0 .7.12.94.36.31.3.47.75.47 1.34v2.42zM93.46 11.46h-.99v1.97c0 .5.18.74.53.74.16 0 .3-.01.4-.04l.02.68c-.18.07-.41.1-.7.1-.35 0-.63-.1-.83-.32-.2-.22-.3-.58-.3-1.09v-2.04H91v-.67h.6v-.74l.87-.27v1.01h.99v.67zM98.22 14.83h-.9v-2.3c0-.72-.27-1.08-.82-1.08-.41 0-.7.2-.85.63-.03.09-.05.2-.05.32v2.43h-.9v-5.9h.9v2.44h.02c.28-.44.69-.66 1.22-.66.37 0 .68.12.92.36.3.3.46.76.46 1.36v2.4zM103.12 12.62c0 .16-.01.3-.03.4h-2.7c.02.4.14.71.4.92.22.19.52.28.88.28.4 0 .76-.06 1.08-.19l.15.63c-.39.16-.84.25-1.36.25-.63 0-1.12-.19-1.48-.56a2.04 2.04 0 0 1-.53-1.48c0-.61.16-1.12.5-1.52.35-.43.82-.65 1.41-.65.58 0 1.02.22 1.32.65.24.34.36.77.36 1.27zm-.86-.23c.01-.27-.05-.5-.17-.7a.78.78 0 0 0-.71-.37c-.3 0-.54.12-.72.37-.15.2-.24.43-.27.7h1.87z" clip-rule="evenodd"/></svg>
