<svg xmlns="http://www.w3.org/2000/svg" fill="none" viewBox="0 0 113 42"><path fill="#424242" fill-rule="evenodd" d="M2.58 0A2.58 2.58 0 0 0 0 2.58v36.17a2.58 2.58 0 0 0 2.58 2.59h107.65a2.58 2.58 0 0 0 2.58-2.59V2.58A2.58 2.58 0 0 0 110.23 0H2.58z" clip-rule="evenodd"/><path fill="url(#paint0_linear)" fill-rule="evenodd" d="M20.06 23.34l-11.32-6.2c-.3-.18-.6-.22-.86-.13l9.3 9.26 2.88-2.93z" clip-rule="evenodd"/><path fill="url(#paint1_linear)" fill-rule="evenodd" d="M20.1 29.2l3.88-2.12c.78-.43.78-1.12 0-1.55l-3.87-2.15-2.93 2.89 2.93 2.92z" clip-rule="evenodd"/><path fill="url(#paint2_linear)" fill-rule="evenodd" d="M7.88 16.96c-.34.13-.56.48-.56 1v16.62c0 .51.22.86.56.99l9.3-9.3-9.3-9.3z" clip-rule="evenodd"/><path fill="url(#paint3_linear)" fill-rule="evenodd" d="M7.88 35.57c.26.08.56.04.86-.13l11.32-6.25-2.88-2.92-9.3 9.3z" clip-rule="evenodd"/><path fill="#fff" fill-rule="evenodd" d="M101.07 33.59l4.85-11.2h-1.58l-2.25 5.58h-.03l-2.3-5.58h-1.59l3.2 7.28-1.8 3.91h1.5zM94.3 22.39c-1.95 0-2.88 1.16-3.15 1.86l1.33.57c.27-.72 1.04-1.11 1.85-1.11 1.09 0 2.02.7 2.02 1.86v.22a4.48 4.48 0 0 0-2.1-.47c-1.82 0-3.4.94-3.4 2.68 0 1.6 1.31 2.57 2.9 2.57 1.32 0 2.11-.67 2.54-1.32h.06v1.07h1.4v-4.64c0-2.16-1.56-3.29-3.45-3.29zm-.32 6.86c-.76 0-1.61-.4-1.61-1.22 0-.7.6-1.52 2.13-1.52 1.23 0 1.85.5 1.85.5 0 1.26-1.22 2.24-2.37 2.24zM88.7 19.38H90v11.2h-1.3v-11.2zM83.9 19.38H80.1v11.2h1.44v-4.54h2.37c1.86 0 3.5-1.38 3.5-3.33 0-1.96-1.64-3.33-3.5-3.33zm.03 5.28h-2.4v-3.9h2.4c1.29 0 2 1.06 2 1.95 0 .89-.71 1.95-2 1.95zM69.96 26.76a2.08 2.08 0 0 1 2-2.2c.67 0 1.23.33 1.42.8l-3.42 1.4zm2.13 3.88a3.82 3.82 0 0 0 3.19-1.67l-1.3-.86a2.2 2.2 0 0 1-1.89 1.04c-.85 0-1.46-.38-1.85-1.14l5.11-2.08-.17-.43c-.32-.84-1.3-2.4-3.28-2.4a3.6 3.6 0 0 0-3.6 3.77 3.71 3.71 0 0 0 3.8 3.77zM65.8 30.4h1.69V19.35H65.8v11.07zM64.65 30.1c0 2.78-1.67 3.92-3.64 3.92a3.64 3.64 0 0 1-3.39-2.23l1.46-.6c.26.62.9 1.34 1.93 1.34 1.26 0 2.04-.77 2.04-2.2v-.55H63c-.38.46-1.1.86-2.02.86a3.77 3.77 0 0 1 0-7.53c.91 0 1.64.4 2.01.84h.06v-.61h1.6v6.75zM59 26.88c0 1.3.97 2.26 2.13 2.26 1.14 0 2.04-.95 2.04-2.26 0-1.33-.9-2.3-2.04-2.3-1.16 0-2.13.97-2.13 2.3zM56.62 26.87a3.75 3.75 0 0 1-3.84 3.77 3.75 3.75 0 0 1-3.84-3.77 3.74 3.74 0 0 1 3.84-3.76 3.74 3.74 0 0 1 3.84 3.76zm-6 0c0 1.34 1 2.28 2.16 2.28a2.2 2.2 0 0 0 2.16-2.28c0-1.35-1-2.28-2.16-2.28-1.16 0-2.16.93-2.16 2.28zM48.25 26.87a3.75 3.75 0 0 1-3.84 3.77 3.75 3.75 0 0 1-3.84-3.77 3.74 3.74 0 0 1 3.84-3.76 3.74 3.74 0 0 1 3.84 3.76zm-6 0c0 1.34 1 2.28 2.16 2.28a2.2 2.2 0 0 0 2.16-2.28c0-1.35-1-2.28-2.16-2.28-1.16 0-2.16.93-2.16 2.28zM34.44 30.64c1.77 0 3.1-.57 4.15-1.64a5.23 5.23 0 0 0 1.4-3.74c0-.37-.03-.71-.08-1h-5.47v1.6h3.89a3.3 3.3 0 0 1-.89 2.01 4 4 0 0 1-3 1.17 4.23 4.23 0 0 1-4.25-4.25 4.23 4.23 0 0 1 4.25-4.25c1.3 0 2.23.5 2.93 1.14l1.14-1.12a5.7 5.7 0 0 0-4.07-1.61 5.98 5.98 0 0 0-6.02 5.84 5.98 5.98 0 0 0 6.02 5.85zM32.71 13.06a1.69 1.69 0 0 1-.57.45c-.14.07-.32.13-.52.18-.2.05-.44.07-.71.07-.31 0-.6-.05-.85-.16-.26-.1-.48-.26-.66-.46-.18-.2-.33-.44-.43-.73-.1-.3-.15-.63-.15-1v-.32c0-.38.04-.7.14-1 .09-.3.22-.54.4-.74.17-.2.38-.36.63-.46.24-.11.53-.16.84-.16.3 0 .56.04.78.11a1.51 1.51 0 0 1 .92.82c.1.2.15.4.18.63h-.83a1.44 1.44 0 0 0-.1-.35.86.86 0 0 0-.5-.46 1.23 1.23 0 0 0-.43-.07c-.2 0-.37.04-.52.11a.97.97 0 0 0-.37.33c-.1.14-.17.31-.22.52-.04.2-.07.44-.07.7v.34c0 .27.03.5.09.71.06.21.14.38.25.53.1.14.24.25.4.32.15.07.33.11.53.11a2.12 2.12 0 0 0 .64-.1.78.78 0 0 0 .29-.2v-.95h-1.01v-.65h1.85v1.88zm3.8-1.55H34.5V13h2.35v.68h-3.2V8.8h3.18v.7H34.5v1.34h2.01v.68zm4.57-2.03h-1.52v4.21h-.85V9.5H37.2v-.7h3.88v.7zm3.26 4.21h-.85V8.8h.85v4.9zm4.58-4.2H47.4v4.2h-.85V9.5h-1.51v-.7h3.88v.7zm6.27 1.88c0 .37-.05.7-.15 1-.1.3-.23.55-.4.75-.18.2-.4.36-.65.47-.25.11-.52.17-.82.17-.3 0-.58-.06-.83-.17a1.84 1.84 0 0 1-.64-.47c-.18-.2-.32-.45-.42-.75-.1-.3-.15-.63-.15-1v-.25c0-.37.05-.7.15-1 .1-.3.24-.55.41-.75.18-.21.4-.37.64-.48.25-.1.53-.16.83-.16.3 0 .58.05.83.16s.46.27.64.48c.18.2.32.45.41.75.1.3.15.63.15 1v.25zm-.85-.25c0-.28-.03-.52-.08-.73a1.55 1.55 0 0 0-.23-.53 1 1 0 0 0-.37-.32 1.1 1.1 0 0 0-.5-.1c-.18 0-.35.03-.5.1-.14.08-.26.18-.36.32-.1.15-.18.32-.24.53-.05.21-.08.45-.08.73v.25c0 .27.03.52.08.73.06.2.13.39.24.53a1.02 1.02 0 0 0 .87.43 1 1 0 0 0 .87-.43c.2-.29.3-.7.3-1.26v-.25zm5.58 2.57h-.85l-2.18-3.47v3.47h-.85V8.8h.85l2.19 3.5v-3.5h.84v4.9z" clip-rule="evenodd"/><defs><linearGradient id="paint0_linear" x1="24.44" x2="22.52" y1="24.27" y2="10.01" gradientUnits="userSpaceOnUse"><stop stop-color="#D6FFA1"/><stop offset=".33" stop-color="#93E2A7"/><stop offset="1" stop-color="#00A3B5"/></linearGradient><linearGradient id="paint1_linear" x1="5.81" x2="11.31" y1="19.1" y2="34.28" gradientUnits="userSpaceOnUse"><stop stop-color="#FF177B"/><stop offset=".67" stop-color="#FFA976"/><stop offset="1" stop-color="#FFEC73"/></linearGradient><linearGradient id="paint2_linear" x1="17.46" x2="5.51" y1="26.12" y2="13.17" gradientUnits="userSpaceOnUse"><stop stop-color="#63FFD4"/><stop offset=".49" stop-color="#32A0BA"/><stop offset=".83" stop-color="#1262A9"/><stop offset="1" stop-color="#064AA2"/></linearGradient><linearGradient id="paint3_linear" x1="20.89" x2="3.88" y1="22.92" y2="26.89" gradientUnits="userSpaceOnUse"><stop stop-color="#FF4521"/><stop offset=".34" stop-color="#D43E65"/><stop offset=".79" stop-color="#9F36B9"/><stop offset="1" stop-color="#8A33DB"/></linearGradient></defs></svg>
