<svg width="73" height="26" viewBox="0 0 73 26" fill="none" xmlns="http://www.w3.org/2000/svg">
<path fill-rule="evenodd" clip-rule="evenodd" d="M41.8759 8.60797L40.3747 7.72351L40.2632 7.89678C39.9211 8.42987 39.4535 8.70021 38.874 8.6997C37.8812 8.69918 37.1329 7.95643 37.1334 6.97179C37.1339 5.98732 37.8831 5.24561 38.8759 5.24595C39.4636 5.24647 39.9052 5.5025 40.2653 6.05198L40.3775 6.22266L41.8856 5.3363L41.7552 5.14923C41.0349 4.11442 40.0932 3.61132 38.877 3.61046C36.5776 3.60943 35.3358 5.34095 35.3351 6.97058C35.3342 8.60056 36.5737 10.3336 38.8732 10.3347C40.0445 10.3354 41.1498 9.74451 41.758 8.79245L41.8759 8.60797ZM46.0639 4.94182L46.9038 7.03317L45.2124 7.03214L46.0639 4.94182ZM41.8006 10.3364L43.8762 10.3376L44.4928 8.81642L47.6073 8.81814L48.2223 10.3398L50.3066 10.3412L46.5888 1.42601L44.7374 1.4248L45.2303 2.60668L41.8006 10.3364ZM51.1659 10.3414L52.987 10.3424L52.9893 6.34146L54.1768 6.34215L54.1777 4.66355L52.9901 4.66286L52.9907 3.8696C52.9907 3.52926 53.2207 3.16771 53.6467 3.16788C53.8807 3.16805 54.022 3.20771 54.1627 3.26754L54.3656 3.35409L55.1221 1.71618L54.9043 1.62791C54.5657 1.49015 54.0944 1.44084 53.7656 1.44067C52.9397 1.44015 52.259 1.7079 51.7965 2.21462C51.3926 2.65703 51.1699 3.27254 51.1694 3.94701L51.1689 4.66183L50.3647 4.66148L50.3638 6.34008L51.1682 6.34025L51.1659 10.3414Z" fill="#AD262A"/>
<path fill-rule="evenodd" clip-rule="evenodd" d="M26.7493 1.37305V10.3278L28.7282 10.3292L28.731 5.20943L30.6485 6.62684L32.5681 5.20943V10.3313L34.5443 10.332L34.5491 1.37305L30.6499 4.29489L26.7493 1.37305Z" fill="#AD262A"/>
<path fill-rule="evenodd" clip-rule="evenodd" d="M56.6898 6.16499C56.9275 5.55414 57.4406 5.19759 58.1034 5.19776C58.7731 5.19811 59.2961 5.54741 59.5733 6.16654L56.6898 6.16499ZM58.2781 3.64124C55.9858 3.64003 54.7477 5.36656 54.7465 6.99136C54.7459 8.61668 55.982 10.3442 58.2744 10.3456H58.2769C59.3281 10.3342 60.3138 9.85942 61.0769 9.00271L59.5915 8.19944C59.2106 8.58616 58.7481 8.78961 58.2378 8.78926C57.4898 8.78875 56.8265 8.29444 56.6529 7.64807L61.6063 7.65066L61.6067 7.20463C61.6079 4.74812 59.6611 3.64193 58.2781 3.64124ZM64.1347 6.16913C64.3722 5.55828 64.8848 5.20156 65.5481 5.20208C66.2178 5.20225 66.741 5.55172 67.0182 6.17085L64.1347 6.16913ZM65.7227 3.64537C63.4302 3.64399 62.1926 5.37052 62.1915 6.9955C62.1905 8.62099 63.4264 10.3484 65.7192 10.3496H65.7214C66.7728 10.3384 67.7587 9.86321 68.5214 9.00685L67.0361 8.20358C66.6551 8.5903 66.1928 8.79375 65.6827 8.7934C64.9343 8.79288 64.271 8.29875 64.0977 7.65221L69.0509 7.6548L69.0514 7.20877C69.0528 4.75225 67.1058 3.64606 65.7227 3.64537Z" fill="#AD262A"/>
<path fill-rule="evenodd" clip-rule="evenodd" d="M70.0845 13.0348H71.2884V13.2579H70.8153V14.5088H70.5556V13.2579H70.0845V13.0348Z" fill="white"/>
<path fill-rule="evenodd" clip-rule="evenodd" d="M71.4569 13.0348H71.8237L72.234 14.189H72.2381L72.6381 13.0348H73V14.5088H72.7521V13.3712H72.7479L72.3362 14.5088H72.1214L71.7083 13.3712H71.7049V14.5088H71.4569V13.0348Z" fill="white"/>
<path fill-rule="evenodd" clip-rule="evenodd" d="M31.538 20.9824C32.0946 20.541 32.3729 19.9367 32.3729 19.1698C32.3729 18.616 32.2245 18.1483 31.9277 17.7667C31.6307 17.3852 31.082 17.0047 30.2813 16.625C29.6757 16.3385 29.292 16.1398 29.1299 16.0295C28.9677 15.9192 28.8497 15.8048 28.7754 15.6866C28.7012 15.5686 28.6641 15.4302 28.6641 15.2712C28.6641 15.0157 28.7559 14.8085 28.9396 14.6497C29.123 14.4909 29.3867 14.4114 29.7305 14.4114C30.0195 14.4114 30.3135 14.4483 30.6122 14.5219C30.9111 14.5954 31.2889 14.7252 31.746 14.9111L32.3319 13.5109C31.8905 13.3211 31.4676 13.1739 31.0634 13.0694C30.6591 12.9647 30.2344 12.9125 29.7891 12.9125C28.8827 12.9125 28.173 13.1275 27.6592 13.5573C27.1456 13.9873 26.8888 14.578 26.8888 15.3293C26.8888 15.7285 26.9668 16.0769 27.1231 16.3752C27.2793 16.6735 27.4883 16.935 27.7501 17.1595C28.0118 17.3841 28.4044 17.6186 28.9277 17.8626C29.4862 18.126 29.8565 18.3177 30.0381 18.4377C30.2197 18.5579 30.3575 18.6827 30.4512 18.8124C30.5449 18.9422 30.5918 19.0905 30.5918 19.2569C30.5918 19.5553 30.4852 19.78 30.2724 19.931C30.0594 20.082 29.754 20.1575 29.3554 20.1575C29.0234 20.1575 28.6572 20.1051 28.2569 20.0006C27.8565 19.8962 27.3672 19.716 26.7893 19.4603V21.1336C27.4923 21.4744 28.3008 21.6448 29.215 21.6448C30.2069 21.6448 30.9813 21.4241 31.538 20.9824ZM33.7639 21.5289H38.6972V20.0411H35.5798V17.8507H38.4803V16.3753H35.5798V14.5103H38.6972V13.0349H33.7639V21.5289ZM43.7985 14.4114C43.1148 14.4114 42.5858 14.6661 42.2107 15.1756C41.8359 15.6849 41.6483 16.3947 41.6483 17.3048C41.6483 19.1989 42.3649 20.1458 43.7985 20.1458C44.4001 20.1458 45.1286 19.9969 45.984 19.6984V21.2091C45.2809 21.4996 44.4957 21.6448 43.6286 21.6448C42.3825 21.6448 41.4295 21.2701 40.7693 20.5207C40.1092 19.7712 39.7793 18.6955 39.7793 17.2933C39.7793 16.4102 39.9412 15.6366 40.2655 14.9721C40.5896 14.3078 41.0554 13.7985 41.663 13.444C42.2704 13.0897 42.982 12.9125 43.7985 12.9125C44.6305 12.9125 45.4663 13.112 46.3062 13.5109L45.7203 14.975C45.4 14.824 45.0777 14.6923 44.7536 14.5799C44.4293 14.4676 44.1109 14.4114 43.7985 14.4114ZM54.5083 13.0346V18.5309C54.5083 19.1581 54.3668 19.7082 54.0837 20.1808C53.8003 20.6532 53.3912 21.0155 52.8561 21.2672C52.3209 21.5191 51.6884 21.6448 50.9578 21.6448C49.8565 21.6448 49.001 21.3651 48.3916 20.8053C47.7822 20.2457 47.4776 19.4796 47.4776 18.5076V13.0346H49.2881V18.2345C49.2881 18.8891 49.4209 19.3693 49.6864 19.6751C49.9519 19.9813 50.3915 20.1341 51.0047 20.1341C51.5983 20.1341 52.029 19.9803 52.2967 19.6724C52.5641 19.3645 52.698 18.8814 52.698 18.2228V13.0346H54.5083ZM58.0577 16.8052H58.6438C59.2179 16.8052 59.6417 16.7104 59.9152 16.5204C60.1885 16.3307 60.3253 16.0324 60.3253 15.6257C60.3253 15.223 60.1857 14.9362 59.9063 14.7659C59.6271 14.5954 59.1946 14.5102 58.6085 14.5102H58.0577V16.8052ZM58.0577 18.2693V21.5286H56.2415V13.0346H58.7375C59.9014 13.0346 60.7628 13.2446 61.3214 13.6649C61.8799 14.0852 62.1591 14.7233 62.1591 15.5792C62.1591 16.079 62.0204 16.5233 61.7432 16.9126C61.4659 17.3019 61.0733 17.6069 60.5654 17.8276C61.8545 19.7374 62.6941 20.9708 63.085 21.5286H61.0695L59.0246 18.2693H58.0577ZM64.0204 21.5289H68.9537V20.0411H65.8371V17.8507H68.7368V16.3753H65.8371V14.5103H68.9537V13.0349H64.0204V21.5289Z" fill="#0E1111"/>
<path fill-rule="evenodd" clip-rule="evenodd" d="M4.99156 17.7105V7.57727L11.4376 10.5336V5.64457L0.51416 0.635986V20.5439L11.4376 25.5566V20.6675L4.99156 17.7105Z" fill="#AD262A"/>
<path fill-rule="evenodd" clip-rule="evenodd" d="M17.8788 17.7105V7.57727L11.4327 10.5336V5.64457L22.3562 0.635986V20.5439L11.4327 25.5566V20.6675L17.8788 17.7105Z" fill="#5E1D1B"/>
</svg>
