<svg xmlns="http://www.w3.org/2000/svg" viewBox="0 0 70 18"><path fill="#fff" d="M30.5 0H0v16h30.5V0z"/><path fill="#B22234" d="M30.5 0H0v1.2h30.5V0zM30.5 2.5H0v1.2h30.5V2.5zM30.5 5H0v1.2h30.5V4.9zM30.5 7.4H0v1.2h30.5V7.4zM30.5 9.8H0v1.3h30.5V9.8zM30.5 12.3H0v1.2h30.5v-1.2zM30.5 14.8H0V16h30.5v-1.2z"/><path fill="#3C3B6E" d="M12.2 0H0v8.6h12.2V0z"/><path fill="#fff" d="M1 .4v.3H.5l.3.2-.1.4L1 1l.3.3V.9l.2-.2h-.3L1 .4zM3 .4v.3h-.4l.3.2-.1.4L3 1l.3.3-.1-.4.2-.2h-.3L3 .4zM5.1.4L5 .7h-.4l.3.2v.4L5 1l.3.3-.1-.4.3-.2h-.4L5.1.4zM7.1.4v.3h-.4l.2.2v.4L7 1l.3.3-.1-.4.3-.2h-.4V.4zM9.1.4v.3h-.4l.3.2-.1.4L9 1l.3.3V.9l.2-.2h-.3L9 .4zM11 1l-.1.3.3-.3.3.3-.1-.4.2-.2h-.3l-.1-.3-.1.3h-.4l.3.2zM2 1.2v.4h-.4l.3.2-.1.3L2 2l.2.2v-.3l.2-.2h-.3L2 1.2zM4 1.2v.4h-.4l.3.2-.1.3L4 2l.3.2-.1-.3.3-.2h-.4L4 1.2zM6.1 1.2l-.1.4h-.4l.3.2V2L6 2l.3.2-.1-.3.3-.2h-.4v-.4zM8.1 1.2v.4h-.4l.3.2-.2.3.3-.2.3.2v-.3l.2-.2h-.4v-.4zM10.2 1.2l-.2.4h-.3l.3.2-.1.3.3-.2.3.2-.2-.3.3-.2h-.3l-.1-.4zM1 2v.4H.5l.3.2-.1.4.2-.2.3.2v-.4l.2-.2h-.3L1 2.1zM3 2v.4h-.4l.3.2-.1.4.3-.2.3.2-.1-.4.2-.2h-.3L3 2.1zM5.1 2l-.1.4h-.4l.3.2V3l.2-.2.3.2-.1-.4.3-.2h-.4l-.1-.3zM7.1 2v.4h-.4l.2.2V3l.2-.2.3.2-.1-.4.3-.2h-.4v-.3zM9.1 2v.4h-.4l.3.2-.1.4.2-.2.3.2v-.4l.2-.2h-.3L9 2.1zM11.2 2l-.1.4h-.4l.3.2-.1.4.3-.2.3.2-.1-.4.2-.2h-.3l-.1-.3zM2 3v.3h-.4l.3.2-.1.3.3-.2.2.2v-.3l.2-.2h-.3L2 3zM4 3v.3h-.4l.3.2-.1.3.3-.2.3.2-.1-.3.3-.2h-.4L4 3zM6.1 3l-.1.3h-.4l.3.2v.3l.2-.2.3.2-.1-.3.3-.2h-.4V3zM8.1 3v.3h-.4l.3.2-.2.3.3-.2.3.2v-.3l.2-.2h-.4V3zM10.2 3l-.2.3h-.3l.3.2-.1.3.3-.2.3.2-.2-.3.3-.2h-.3l-.1-.3zM1 3.8v.4H.5l.3.2-.1.3.2-.2.3.2v-.3l.2-.2h-.3L1 3.8zM3 3.8v.4h-.4l.3.2-.1.3.3-.2.3.2-.1-.3.2-.2h-.3L3 3.8zM5.1 3.8l-.1.4h-.4l.3.2v.3l.2-.2.3.2-.1-.3.3-.2h-.4l-.1-.4zM7.1 3.8v.4h-.4l.2.2v.3l.2-.2.3.2-.1-.3.3-.2h-.4v-.4zM9.1 3.8v.4h-.4l.3.2-.1.3.2-.2.3.2v-.3l.2-.2h-.3L9 3.8zM11.2 3.8l-.1.4h-.4l.3.2-.1.3.3-.2.3.2-.1-.3.2-.2h-.3l-.1-.4zM2 4.7V5h-.4l.3.2-.1.4.3-.2.3.2-.2-.4.3-.2h-.3L2 4.7zM4 4.7V5h-.4l.3.2-.1.4.3-.2.3.2-.1-.4.3-.2h-.4l-.1-.3zM6.1 4.7L6 5h-.4l.3.2v.4l.2-.2.3.2-.1-.4.3-.2h-.4v-.3zM8.1 4.7V5h-.4l.3.2-.2.4.3-.2.3.2v-.4l.2-.2h-.3L8 4.7zM10.2 4.7L10 5h-.3l.3.2-.1.4.3-.2.3.2-.2-.4.3-.2h-.3l-.1-.3zM1 5.5V6H.5l.3.2-.1.3.2-.2.3.2v-.3l.2-.2h-.3L1 5.5zM3 5.5V6h-.4l.3.2-.1.3.3-.2.3.2-.1-.3.2-.2h-.3L3 5.5zM5.1 5.5L5 6h-.4L5 6v.3l.2-.2.3.2-.1-.3.3-.2h-.4l-.1-.4zM7.1 5.5V6h-.4l.2.2v.3l.2-.2.3.2-.1-.3.3-.2h-.4v-.4zM9.1 5.5V6h-.4L9 6l-.1.3.2-.2.3.2v-.3l.2-.2h-.3L9 5.5zM11.2 5.5L11 6h-.4l.3.2-.1.3.3-.2.3.2-.1-.3.2-.2h-.3l-.1-.4zM2.2 6.7L2 6.4l-.2.3h-.3l.3.3-.1.3.3-.2.2.2V7l.2-.3h-.3zM4.2 6.7L4 6.4l-.1.3h-.4L4 7l-.1.3.3-.2.3.2-.1-.3.3-.3h-.4zM6.2 6.7v-.3l-.2.3h-.4L6 7v.3l.2-.2.3.2-.1-.3.3-.3h-.4zM8.2 6.7v-.3l-.2.3h-.3L8 7l-.2.3.3-.2.3.2V7l.2-.3h-.4zM10.3 6.7l-.1-.3-.2.3h-.3l.3.3-.1.3.3-.2.3.2-.2-.3.3-.3h-.3zM1.2 7.6L1 7.3v.3H.5l.3.2-.1.4L1 8l.3.2v-.4l.2-.2h-.3zM3.2 7.6L3 7.3l-.1.3h-.4l.3.2-.1.4L3 8l.3.2-.1-.4.2-.2h-.3zM5.2 7.6l-.1-.3-.1.3h-.4l.3.2v.4L5 8l.3.2-.1-.4.3-.2h-.4zM7.2 7.6v-.3l-.2.3h-.3l.2.2v.4L7 8l.3.2-.1-.4.3-.2h-.4zM9.3 7.6L9 7.3v.3h-.4l.3.2-.1.4L9 8l.3.2v-.4l.2-.2h-.3zM11.3 7.6l-.1-.3-.1.3h-.4l.3.2-.1.4.3-.2.3.2-.1-.4.2-.2h-.3z"/><path fill="#757575" d="M38.9 5h-1V3.2h-1.6V5h-1V.7h1v1.8H38V.7h.9V5zM43.1 3c0 .4 0 .8-.2 1a1.7 1.7 0 0 1-1.6 1c-.3 0-.7 0-1-.2l-.6-.7-.2-1.1v-.2c0-.4 0-.8.2-1.1a1.7 1.7 0 0 1 1.6-1c.4 0 .7 0 1 .2l.6.8c.2.3.2.7.2 1V3zm-.9-.2c0-.5 0-.8-.2-1a.8.8 0 0 0-.7-.4c-.3 0-.5.1-.7.3l-.2 1V3c0 .4 0 .7.2 1 .2.2.4.3.7.3.3 0 .5 0 .7-.3.2-.2.2-.6.2-1v-.2zM47.2 5h-.8l-1.8-2.8V5h-.8V.7h.8l1.8 2.8V.7h.8V5zM51.5 3c0 .4 0 .8-.2 1a1.7 1.7 0 0 1-1.6 1c-.4 0-.7 0-1-.2l-.6-.7-.2-1.1v-.2c0-.4 0-.8.2-1.1a1.7 1.7 0 0 1 1.6-1c.3 0 .7 0 1 .2l.6.8.2 1V3zm-.9-.2c0-.5 0-.8-.2-1a.8.8 0 0 0-.7-.4c-.3 0-.5.1-.7.3-.2.3-.2.6-.2 1V3c0 .4 0 .7.2 1 .2.2.4.3.7.3.3 0 .5 0 .7-.3l.2-1v-.2zM53.7 3.4H53V5h-.9V.7h1.6c.5 0 1 .1 1.2.4.3.2.4.5.4 1 0 .2 0 .5-.2.7l-.6.4 1 1.8h-1l-.8-1.6zm-.7-.7h.7l.5-.1c.2-.2.2-.3.2-.5l-.1-.5-.6-.2H53v1.3zM57 5h-1V.7h1V5zM61.2 5h-.9l-1.7-2.8V5h-.9V.7h1l1.6 2.8V.7h.9V5zM65.3 4.5c-.1.2-.3.3-.6.4l-1 .2a2 2 0 0 1-1-.3c-.2-.1-.5-.4-.6-.7-.2-.3-.2-.7-.2-1v-.4c0-.4 0-.7.2-1 .1-.4.3-.6.6-.8l1-.2c.5 0 .8.1 1.1.3.3.3.5.6.5 1h-.8c0-.2-.1-.3-.3-.4a.8.8 0 0 0-.5-.2c-.3 0-.6.1-.7.3-.2.2-.2.6-.2 1V3c0 .4 0 .8.2 1 .2.2.4.4.8.4.3 0 .5-.1.7-.3v-.7h-.8v-.6h1.6v1.7zM38.6 7.4h-1.3V11h-.9V7.4h-1.3v-.7h3.5v.7zM42.6 11h-1V9.2H40V11H39V6.7h.9v1.8h1.7V6.7h.9V11zM46.8 9c0 .4 0 .8-.2 1a1.7 1.7 0 0 1-1.6 1c-.3 0-.6 0-1-.2l-.6-.7-.2-1.1v-.2c0-.4 0-.8.2-1.1a1.7 1.7 0 0 1 1.6-1c.4 0 .7 0 1 .2.2.2.5.4.6.8.2.3.2.7.2 1V9zm-.8-.2c0-.5-.1-.8-.3-1a.8.8 0 0 0-.7-.4c-.3 0-.5.1-.7.3l-.2 1V9c0 .4 0 .7.2 1 .2.2.4.3.7.3.3 0 .6 0 .7-.3.2-.2.2-.6.3-1v-.2zM49.7 9.9c0-.2 0-.3-.2-.4l-.6-.3c-.3 0-.6-.2-.7-.3-.5-.2-.8-.6-.8-1l.2-.6c.2-.2.3-.4.6-.5l.8-.1.8.1.6.5.2.7h-.9c0-.2 0-.4-.2-.5a.8.8 0 0 0-.5-.1l-.5.1-.2.4c0 .1 0 .2.2.3l.6.3c.5.1.9.3 1.1.5.3.3.4.5.4.9 0 .3-.2.6-.4.8-.3.3-.7.4-1.2.4l-.9-.2-.6-.5-.2-.7h.9c0 .4.3.7.8.7.2 0 .4 0 .5-.2l.2-.3zM53.7 9.2h-1.6v1h2v.8h-3V6.7h3v.7h-2v1h1.6v.8zM59.4 9.8l.5-3h1l-1 4.2h-1l-.6-2.9-.7 2.9h-.9l-1-4.3h1l.5 3 .7-3h.8l.7 3zM64.8 11h-1V9.2h-1.6V11h-1V6.7h1v1.8h1.7V6.7h.9V11zM69 9c0 .4 0 .8-.2 1a1.7 1.7 0 0 1-1.6 1c-.3 0-.6 0-1-.2l-.6-.7-.2-1.1v-.2c0-.4 0-.8.2-1.1a1.7 1.7 0 0 1 1.6-1c.4 0 .7 0 1 .2.2.2.5.4.6.8.2.3.2.7.2 1V9zm-.9-.2c0-.5 0-.8-.2-1a.8.8 0 0 0-.7-.4c-.3 0-.5.1-.7.3l-.2 1V9c0 .4 0 .7.2 1 .2.2.4.3.7.3.3 0 .5 0 .7-.3.2-.2.2-.6.2-1v-.2zM37.6 15.9c0-.2 0-.3-.2-.4l-.6-.3c-.3 0-.6-.2-.7-.3-.5-.2-.8-.6-.8-1l.2-.6c.2-.2.3-.4.6-.5l.8-.1.8.1.6.5.2.7h-.9c0-.2 0-.4-.2-.5a.8.8 0 0 0-.5-.1l-.5.1-.2.4c0 .1 0 .2.2.3l.6.3c.5.1.9.3 1.1.5.3.3.4.5.4.9 0 .3-.2.6-.4.8-.3.3-.7.4-1.2.4l-.9-.2-.6-.5-.2-.7h.9c0 .4.3.7.8.7.2 0 .4 0 .5-.2l.2-.3zM41.6 15.2H40v1h2v.8h-3v-4.3h3v.7h-2v1h1.6v.8zM44 15.4h-.7V17h-.9v-4.3H44c.5 0 1 .1 1.2.4.3.2.4.5.4 1 0 .2 0 .5-.2.7l-.6.4 1 1.8h-1l-.8-1.6zm-.7-.7h.7l.5-.1c.2-.2.2-.3.2-.5l-.1-.5-.6-.2h-.7v1.3zM47.8 16l1-3.3h1L48.2 17h-1L46 12.7h1l.9 3.2zM52.7 15.2H51v1h2v.8h-2.9v-4.3H53v.7h-2v1h1.7v.8z"/></svg>
