<?xml version="1.0" encoding="utf-8"?>
<!-- Generator: Adobe Illustrator 23.0.2, SVG Export Plug-In . SVG Version: 6.00 Build 0)  -->
<svg version="1.1" id="Layer_1" xmlns="http://www.w3.org/2000/svg" xmlns:xlink="http://www.w3.org/1999/xlink" x="0px" y="0px"
	 viewBox="0 0 30 30" style="enable-background:new 0 0 30 30;" xml:space="preserve">
<style type="text/css">
	.st0{display:none;}
	.st1{display:inline;}
	.st2{fill:#FFFFFF;}
	.st3{fill:#330001;}
	.st4{clip-path:url(#SVGID_4_);fill:#330001;}
	.st5{fill:#FFFDFD;}
</style>
<g class="st0">
	<g class="st1">
		<g>
			<g>
				<path id="SVGID_1_" class="st2" d="M23.8,10.5l-1.9,5.6H11.5l-1.9-5.6H23.8z M12.2,20.6c0.6,0,1.1,0.5,1.1,1.1s-0.5,1.1-1.1,1.1
					s-1.1-0.5-1.1-1.1S11.6,20.6,12.2,20.6z M21.7,20.6c0.6,0,1.1,0.5,1.1,1.1s-0.5,1.1-1.1,1.1s-1.1-0.5-1.1-1.1
					S21.1,20.6,21.7,20.6z M5.4,7.1h1.8l4.2,12.5c-0.9,0.3-1.5,1.1-1.5,2.1c0,1.2,1,2.2,2.2,2.2s2.2-1,2.2-2.2
					c0-0.4-0.1-0.8-0.3-1.1h5.7c-0.2,0.3-0.3,0.7-0.3,1.1c0,1.2,1,2.2,2.2,2.2s2.2-1,2.2-2.2s-1-2.2-2.2-2.2h-9.2l-0.7-2.2h10.5
					c0.2,0,0.5-0.2,0.5-0.4l2.2-6.8c0.1-0.2,0-0.4-0.1-0.5s-0.3-0.2-0.5-0.2H9.2l-1-3C8.1,6.2,7.9,6,7.7,6H5.4
					C5.1,6,4.9,6.3,4.9,6.6C4.9,6.9,5.1,7.1,5.4,7.1z"/>
			</g>
		</g>
	</g>
</g>
<g class="st0">
	<g id="Wb3WM8.tif" class="st1">
		
			<image style="overflow:visible;enable-background:new    ;" width="22" height="22" id="Layer_1_1_" xlink:href="C6AAEBCA5ED08EE5.png"  transform="matrix(1 0 0 1 4 4)">
		</image>
	</g>
</g>
<g id="Layer_3" class="st0">
	<g class="st1">
		<g>
			<path id="SVGID_3_" class="st3" d="M13,6.5c1.3,0,2.5,0.4,3.6,1.1s1.9,1.7,2.4,2.9s0.6,2.5,0.4,3.8c-0.3,1.3-0.9,2.4-1.8,3.3
				s-2.1,1.5-3.3,1.8c-1.3,0.3-2.6,0.1-3.8-0.4s-2.2-1.3-2.9-2.4S6.5,14.3,6.5,13c0-1.7,0.7-3.4,1.9-4.6C9.6,7.1,11.2,6.5,13,6.5z
				 M13,21.1c1.9,0,3.7-0.7,5.1-1.9c0,0,0,0.1,0.1,0.1l5.6,5.6c0.2,0.2,0.4,0.2,0.6,0.2s0.4-0.1,0.6-0.2s0.2-0.4,0.2-0.6
				s-0.1-0.4-0.2-0.6l-5.6-5.6L19.3,18c1.2-1.4,1.9-3.3,1.9-5.1c0-1.6-0.5-3.2-1.4-4.5s-2.2-2.4-3.7-3S13,4.6,11.4,4.9
				C9.8,5.3,8.3,6,7.2,7.2C6,8.3,5.3,9.8,5,11.4s-0.2,3.2,0.5,4.7c0.6,1.5,1.7,2.8,3,3.7C9.8,20.6,11.3,21.1,13,21.1z"/>
		</g>
		<g>
			<g>
				<defs>
					<path id="SVGID_2_" d="M13,6.5c1.3,0,2.5,0.4,3.6,1.1s1.9,1.7,2.4,2.9s0.6,2.5,0.4,3.8c-0.3,1.3-0.9,2.4-1.8,3.3
						s-2.1,1.5-3.3,1.8c-1.3,0.3-2.6,0.1-3.8-0.4s-2.2-1.3-2.9-2.4S6.5,14.3,6.5,13c0-1.7,0.7-3.4,1.9-4.6C9.6,7.1,11.2,6.5,13,6.5z
						 M13,21.1c1.9,0,3.7-0.7,5.1-1.9c0,0,0,0.1,0.1,0.1l5.6,5.6c0.2,0.2,0.4,0.2,0.6,0.2s0.4-0.1,0.6-0.2s0.2-0.4,0.2-0.6
						s-0.1-0.4-0.2-0.6l-5.6-5.6L19.3,18c1.2-1.4,1.9-3.3,1.9-5.1c0-1.6-0.5-3.2-1.4-4.5s-2.2-2.4-3.7-3S13,4.6,11.4,4.9
						C9.8,5.3,8.3,6,7.2,7.2C6,8.3,5.3,9.8,5,11.4s-0.2,3.2,0.5,4.7c0.6,1.5,1.7,2.8,3,3.7C9.8,20.6,11.3,21.1,13,21.1z"/>
				</defs>
				<clipPath id="SVGID_4_">
					<use xlink:href="#SVGID_2_"  style="overflow:visible;"/>
				</clipPath>
				<rect x="-3.5" y="-3.5" class="st4" width="37" height="37"/>
			</g>
		</g>
	</g>
</g>
<g id="Layer_4">
	<g>
		<rect x="14.2" y="2" transform="matrix(0.7071 -0.7071 0.7071 0.7071 -6.2132 14.9999)" class="st5" width="1.6" height="26"/>
		<rect x="2" y="14.2" transform="matrix(0.7071 -0.7071 0.7071 0.7071 -6.2132 14.9998)" class="st5" width="26" height="1.6"/>
	</g>
</g>
</svg>
