<?xml version="1.0" encoding="utf-8"?>
<!-- Generator: Adobe Illustrator 23.0.2, SVG Export Plug-In . SVG Version: 6.00 Build 0)  -->
<svg version="1.1" id="Layer_1" xmlns="http://www.w3.org/2000/svg" xmlns:xlink="http://www.w3.org/1999/xlink" x="0px" y="0px"
	 viewBox="0 0 30 30" style="enable-background:new 0 0 30 30;" xml:space="preserve">
<g>
	<g>
		<defs>
			<path id="SVGID_1_" d="M23.8,10.5l-1.9,5.6H11.5l-1.9-5.6H23.8z M12.2,20.6c0.6,0,1.1,0.5,1.1,1.1s-0.5,1.1-1.1,1.1
				s-1.1-0.5-1.1-1.1S11.6,20.6,12.2,20.6z M21.7,20.6c0.6,0,1.1,0.5,1.1,1.1s-0.5,1.1-1.1,1.1s-1.1-0.5-1.1-1.1
				S21.1,20.6,21.7,20.6z M5.4,7.1h1.8l4.2,12.5c-0.9,0.3-1.5,1.1-1.5,2.1c0,1.2,1,2.2,2.2,2.2s2.2-1,2.2-2.2c0-0.4-0.1-0.8-0.3-1.1
				h5.7c-0.2,0.3-0.3,0.7-0.3,1.1c0,1.2,1,2.2,2.2,2.2s2.2-1,2.2-2.2s-1-2.2-2.2-2.2h-9.2l-0.7-2.2h10.5c0.2,0,0.5-0.2,0.5-0.4
				l2.2-6.8c0.1-0.2,0-0.4-0.1-0.5s-0.3-0.2-0.5-0.2H9.2l-1-3C8.1,6.2,7.9,6,7.7,6H5.4C5.1,6,4.9,6.3,4.9,6.6
				C4.9,6.9,5.1,7.1,5.4,7.1z"/>
		</defs>
		<use xlink:href="#SVGID_1_"  style="overflow:visible;fill:#FFFFFF;"/>
		<clipPath id="SVGID_2_">
			<use xlink:href="#SVGID_1_"  style="overflow:visible;"/>
		</clipPath>
	</g>
</g>
</svg>
