<?xml version="1.0" encoding="utf-8"?>
<!-- Generator: Adobe Illustrator 21.0.0, SVG Export Plug-In . SVG Version: 6.00 Build 0)  -->
<svg version="1.1" id="Layer_1" xmlns="http://www.w3.org/2000/svg" xmlns:xlink="http://www.w3.org/1999/xlink" x="0px" y="0px"
	 viewBox="0 0 400 400" style="enable-background:new 0 0 400 400;" xml:space="preserve">
<style type="text/css">
	.st0{fill:#821A53;}
	.st1{fill:#FFFFFF;}
</style>
<circle class="st0" cx="200" cy="200" r="200"/>
<g>
	<path id="XMLID_27170_" class="st1" d="M162.2,210.1c0,15.5,5.2,20.4,9.9,20.4c4,0,10-3.3,10-20.6c0-6.4-0.6-20.7-9.8-20.7
		C166.4,189.2,162.2,195.6,162.2,210.1L162.2,210.1z M153.7,209.9c0-17.2,9-25.6,19-25.6c8.2,0,18.1,5.7,18.1,25
		c0,17-8.2,26.3-18.8,26.3c-10,0-18.2-8.4-18.2-25.6V209.9z"/>
	<polygon id="XMLID_27169_" class="st1" points="206.7,185 214.2,220.4 222.2,185 227.1,185 234.8,220.3 242.3,185 248,185 
		236.4,234.9 231.4,234.9 223.5,198.4 215.2,234.8 210.2,234.8 198.7,185 	"/>
	<polygon id="XMLID_27168_" class="st1" points="265.2,185 286.5,220.4 286.5,185 292.1,185 292.1,234.9 287,234.9 265.7,199.5 
		265.6,234.9 260,234.9 260,185 	"/>
	<polygon id="XMLID_27167_" class="st1" points="331.5,185 331.5,190.3 314.9,190.3 314.9,206.5 330.4,206.5 330.4,211.7 
		314.9,211.7 314.9,229.4 331.8,229.4 331.8,234.9 307.1,234.9 307.1,185 	"/>
	<path id="XMLID_27166_" class="st1" d="M99.9,191.8l-0.4-0.2c-1.9-0.9-4.5-2-7.5-2c-7,0-12.3,7.5-12.3,20.4
		c0,14.4,5.9,20.4,11.8,20.4c3.3,0,6-1.6,7.8-2.8l0.4-0.2l2.3,4.7l-0.4,0.2c-2.5,1.4-6.1,3.4-11.4,3.4c-12.7,0-19.1-11.7-19.1-25.5
		c0-13.9,7-25.8,20.2-25.8c3.1,0,6.8,0.6,10.3,2.5l0.3,0.2L99.9,191.8z"/>
	<path id="XMLID_27163_" class="st1" d="M122.7,190l0,17.8l2.3,0c3.7,0,9.9,0,9.9-9.6c0-4.2-1.3-6.2-3-7.1c-0.9-0.5-1.9-0.8-3-0.9
		c-1.1-0.1-2.3-0.1-3.4-0.1L122.7,190z M125.9,184.9c4.9,0,8.1,0.1,11.6,2.1c4.3,2.5,5.4,7.3,5.4,10.2c0,5.6-2.6,11.7-10.9,13.9
		l15.2,23.6l-9.1,0l-13.2-22.4l-2.2,0l0,22.4l-7.7,0l0-49.9L125.9,184.9z"/>
</g>
<g>
	<path id="XMLID_27158_" class="st1" d="M294.4,250.6c0.8,0.9,1.2,1.9,1.2,3.1c0,1.3-0.4,2.3-1.2,3.2c-0.8,0.9-1.8,1.3-3,1.3
		c-1.1,0-2.1-0.5-2.9-1.3c-0.8-0.9-1.2-1.9-1.2-3.2c0-1.2,0.4-2.3,1.2-3.1c0.8-0.9,1.8-1.3,2.9-1.3
		C292.6,249.3,293.5,249.8,294.4,250.6 M294.8,250.1c-0.9-1-2-1.5-3.4-1.5c-1.4,0-2.5,0.5-3.4,1.5c-1,1-1.4,2.2-1.4,3.6
		c0,1.4,0.4,2.7,1.4,3.7c0.9,1,2.1,1.5,3.4,1.5c1.4,0,2.5-0.5,3.4-1.5c0.9-1,1.4-2.3,1.4-3.7C296.2,252.3,295.8,251.1,294.8,250.1
		 M292.1,253.5c-0.2,0.1-0.5,0.1-0.9,0.1l-0.9,0l0-2l0.8,0c0.5,0,0.9,0.1,1.1,0.2c0.3,0.2,0.4,0.4,0.4,0.9
		C292.7,253.1,292.5,253.4,292.1,253.5 M289.5,256.6l0.9,0l0-2.2l0.7,0c0.5,0,0.8,0,1.1,0.2c0.3,0.2,0.5,0.6,0.5,1.3v0.5l0,0.3
		l0.9,0c0-0.1-0.1-0.2-0.1-0.4c0-0.1,0-0.3,0-0.4l0-0.5c0-0.3-0.1-0.6-0.3-0.9c-0.2-0.3-0.5-0.5-0.9-0.6c0.3,0,0.6-0.1,0.8-0.3
		c0.3-0.3,0.5-0.6,0.5-1.1c0-0.7-0.3-1.2-0.8-1.4c-0.3-0.1-0.8-0.2-1.5-0.2l-1.8,0L289.5,256.6z"/>
	<path id="XMLID_27155_" class="st1" d="M267.9,276.6l9.7,0l-4.8-16.4L267.9,276.6z M276.3,248.6l15.5,48.8l-8.1,0l-4.8-16l-12.5,0
		l-4.7,15.9l-5.6,0l15.4-48.7L276.3,248.6z"/>
	<path id="XMLID_27152_" class="st1" d="M111.4,253.5l0,17.2l4.1,0c4.4,0.1,9.1-0.8,9.1-9.4c0-4.1-1.3-6-3-6.9
		c-0.9-0.4-1.9-0.7-2.9-0.8c-1.1-0.1-2.1-0.1-3.1-0.1L111.4,253.5z M115.8,248.5c5.3,0,8.9,0.1,12.2,2.4c4,2.9,4.6,7.7,4.6,10.3
		c0,7.3-4.4,14.6-15.7,14.6l-5.5,0l0,21.3l-7.6,0l0-48.7L115.8,248.5z"/>
	<polygon id="XMLID_27151_" class="st1" points="150.2,248.5 150.1,291.9 166,291.9 166,297.3 142.5,297.3 142.5,248.5 	"/>
	<path id="XMLID_27148_" class="st1" d="M185.3,276.5l9.7,0l-4.8-16.3L185.3,276.5z M193.8,248.6l15.6,48.8l-8.1,0l-4.8-16l-12.5,0
		l-4.7,16l-5.7,0l15.4-48.7L193.8,248.6z"/>
	<polygon id="XMLID_27147_" class="st1" points="247.5,248.6 247.5,252.7 225.7,291.9 248.7,291.9 248.7,297.3 216.8,297.3 
		216.8,293.2 238.7,253.7 218.2,253.7 218.2,248.6 	"/>
</g>
<g>
	<path id="XMLID_27121_" class="st1" d="M205.8,106.6c-2.6,7.5-16.5,0.5-23.7-3.1c-5.3-2.6-8.9-4.7-11-5.9l5.3,6.9l-7.1,0
		c2,1.2,5.7,3.3,10.8,5.9c7.2,3.5,21.1,10.6,23.7,3.1c4.4-12.9,29.7,3.1,32.2,4.7l2-6.9C235.2,109.5,210.1,93.7,205.8,106.6"/>
	<path id="XMLID_27120_" class="st1" d="M202.2,119c-2.5,7.6-16.5,0.5-23.7-3.1c-5.3-2.6-9-4.7-11-5.9l5.2,6.9l-7.1,0
		c2.1,1.2,5.7,3.4,10.9,5.9c7.2,3.5,21.1,10.6,23.7,3.1c4.4-13,29.9,3.2,32.2,4.7l1.9-6.9C231.8,122.1,206.6,106.1,202.2,119"/>
	<path id="XMLID_27119_" class="st1" d="M198.6,131.4c-2.6,7.6-16.5,0.5-23.7-3.1c-5.3-2.6-9-4.7-11-5.9l5.2,6.9l-7.1,0
		c2,1.2,5.7,3.3,10.9,5.9c7.2,3.5,21.1,10.6,23.7,3.1c4.4-13.1,30.1,3.3,32.2,4.7l1.9-6.9C228.5,134.7,203,118.5,198.6,131.4"/>
	<path id="XMLID_27116_" class="st1" d="M200,86.3c-42.2,0-76.5,15.2-76.5,34.1c0,18.8,34.2,34.1,76.4,34.1
		c42.2,0,76.5-15.2,76.5-34.1C276.4,101.6,242.2,86.3,200,86.3 M200,151.6c-37.7,0-68.2-14-68.2-31.2c0-17.3,30.5-31.2,68.2-31.2
		c37.7,0,68.2,14,68.2,31.2C268.2,137.7,237.6,151.7,200,151.6"/>
</g>
</svg>
