<svg xmlns="http://www.w3.org/2000/svg" viewBox="0 0 512 512">
  <g fill="none" fill-rule="evenodd">
    <circle cx="256" cy="256" r="256" fill="#9F2241"/>
    <path fill="#FFF" fill-rule="nonzero" d="M69.2365274,263.639841 C75.9799758,263.639841 81.3173186,266.569228 84.4166098,272.023746 L81.487223,275.123037 C79.0909846,270.769968 75.6284494,267.670677 70.0098855,267.670677 C62.5047965,267.670677 57.3900871,273.271665 57.3900871,283.120263 C57.3900871,293.185636 63.2078493,298.569849 69.9571565,298.622578 C75.5581441,298.622578 79.0382556,296.068153 81.5458107,291.498309 L84.4283273,293.730502 C81.3290361,299.495535 76.0502811,302.811601 68.9787413,302.811601 C58.3040558,302.811601 49.4338725,295.359241 49.4338725,283.553812 C49.4338725,271.748383 58.2220329,263.639841 69.2365274,263.639841 Z M111.038877,291.662355 L95.7181841,291.662355 L91.2010697,302.266735 L86.7191078,302.266735 L103.422471,263.973791 L106.351858,263.973791 L123.16068,302.272594 L115.714178,302.272594 L111.038877,291.662355 Z M97.2180302,288.147091 L109.521455,288.147091 L103.258426,273.933706 L97.2180302,288.147091 Z M157.135708,264.184707 L161.705551,264.184707 L161.705551,302.378052 L158.934351,302.378052 L134.128304,272.176074 L134.128304,302.260876 L129.552602,302.260876 L129.552602,264.178848 L136.354638,264.178848 L157.135708,289.641078 L157.135708,264.184707 Z M171.683043,302.266735 L171.683043,264.184707 L184.250112,264.184707 C197.309319,264.184707 205.851411,271.09806 205.851411,283.067534 C205.851411,295.634604 196.981227,302.266735 184.959024,302.266735 L171.683043,302.266735 Z M183.711105,267.834723 L178.760441,267.834723 L178.760441,298.622578 L184.144654,298.622578 C192.932815,298.622578 198.205711,293.677773 198.205711,283.067534 C198.246722,273.43571 192.973826,267.834723 183.711105,267.834723 Z M212.618294,264.184707 L219.695693,264.184707 L219.695693,298.353074 L238.953482,298.353074 L238.953482,302.266735 L212.589,302.266735 L212.618294,264.184707 Z M246.417559,264.184707 L273.567116,264.184707 L273.567116,268.074932 L253.494958,268.074932 L253.494958,280.671296 L268.235632,280.671296 L268.235632,284.532228 L253.494958,284.532228 L253.494958,298.353074 L274.440073,298.353074 L274.440073,302.266735 L246.417559,302.266735 L246.417559,264.184707 Z M304.489723,278.111012 L295.836315,302.48351 L292.953798,302.48351 L278.306864,264.184707 L285.601037,264.184707 L295.836315,292.095904 L302.532893,272.562753 L299.53906,264.184707 L306.663328,264.184707 L315.750286,291.551038 L325.487568,264.184707 L329.951953,264.184707 L316.008072,302.48351 L313.137273,302.48351 L304.489723,278.111012 Z M351.793461,263.639841 C362.731792,263.639841 371.215296,272.076475 371.215296,283.23158 C371.215296,294.386685 362.731792,302.811601 351.793461,302.811601 C340.855131,302.811601 332.371627,294.380826 332.371627,283.23158 C332.371627,272.082334 340.802402,263.639841 351.793461,263.639841 Z M351.793461,299.278761 C359.193093,299.278761 363.270799,293.238365 363.270799,283.23158 C363.270799,273.224794 359.169657,267.125811 351.793461,267.125811 C344.417265,267.125811 340.316124,273.166207 340.316124,283.23158 C340.316124,293.296953 344.341101,299.278761 351.793461,299.278761 Z M394.79686,263.639841 C405.729331,263.639841 414.218694,272.076475 414.218694,283.23158 C414.218694,294.386685 405.729331,302.811601 394.79686,302.811601 C383.864388,302.811601 375.375025,294.380826 375.375025,283.23158 C375.375025,272.082334 383.805801,263.639841 394.79686,263.639841 Z M394.79686,299.278761 C402.196491,299.278761 406.274197,293.238365 406.274197,283.23158 C406.274197,273.224794 402.173056,267.125811 394.79686,267.125811 C387.420664,267.125811 383.313664,273.166207 383.313664,283.23158 C383.313664,293.296953 387.3445,299.278761 394.79686,299.278761 Z M420.985578,302.266735 L420.985578,264.184707 L433.552647,264.184707 C446.605995,264.184707 455.153946,271.09806 455.153946,283.067534 C455.153946,295.634604 446.283762,302.266735 434.261559,302.266735 L420.985578,302.266735 Z M433.007781,267.834723 L428.057118,267.834723 L428.057118,298.622578 L433.441331,298.622578 C442.229491,298.622578 447.502387,293.677773 447.502387,283.067534 C447.531681,273.43571 442.258785,267.834723 433.007781,267.834723 Z M201.926032,327.600072 L198.674413,326.721256 C194.678729,325.602231 192.305926,323.909045 192.305926,320.218018 C192.305926,316.152029 195.932507,313.275371 200.947617,313.275371 C205.048759,313.275371 208.124615,315.033003 209.735778,317.540558 L207.942993,319.473953 C206.468875,317.01158 203.781318,315.535663 200.912464,315.613022 C198.235005,315.613022 196.371915,316.896093 196.371915,319.063839 C196.371915,321.06754 197.625692,321.911203 200.437904,322.655267 L203.724676,323.569236 C207.62076,324.623815 210.128315,326.4166 210.128315,330.107628 C210.128315,334.794646 206.062326,337.665445 200.976911,337.665445 C196.676571,337.665445 192.885945,335.73205 191.122454,332.615183 L193.020696,330.857551 C194.716839,333.610785 197.743851,335.260261 200.976911,335.193043 C203.859428,335.193043 206.09162,333.974418 206.09162,331.437569 C206.09162,329.228811 204.568339,328.344137 201.926032,327.600072 Z M233.950089,313.609321 L233.950089,328.074633 C233.950089,334.378673 229.989558,337.665445 224.400288,337.665445 C218.096247,337.665445 214.40522,334.150181 214.40522,328.109786 L214.40522,313.609321 L218.811018,313.609321 L218.811018,327.734824 C218.811018,332.310526 221.008058,334.917681 225.0096,334.917681 C229.011143,334.917681 231.102725,332.615183 231.102725,327.734824 L231.102725,313.609321 L233.950089,313.609321 Z M244.191225,337.325637 L239.791286,337.325637 L239.791286,313.609321 L244.191225,313.609321 L244.191225,337.325637 Z M257.344172,315.982124 L248.397825,315.982124 L248.397825,313.609321 L270.661164,313.609321 L270.661164,315.982124 L261.744111,315.982124 L261.744111,337.325637 L257.344172,337.325637 L257.344172,315.982124 Z M274.902916,313.609321 L291.805478,313.609321 L291.805478,316.017277 L279.308714,316.017277 L279.308714,323.873892 L288.471836,323.873892 L288.471836,326.281848 L279.308714,326.281848 L279.308714,334.864952 L292.350344,334.864952 L292.350344,337.302202 L274.902916,337.302202 L274.902916,313.609321 Z M305.26894,327.600072 L302.011462,326.721256 C298.015778,325.602231 295.642975,323.909045 295.642975,320.218018 C295.642975,316.152029 299.269556,313.275371 304.284666,313.275371 C308.385808,313.275371 311.467523,315.033003 313.072827,317.540558 L311.280042,319.473953 C309.805924,317.01158 307.118367,315.535663 304.249514,315.613022 C301.572054,315.613022 299.708964,316.896093 299.708964,319.063839 C299.708964,321.06754 300.962742,321.911203 303.774953,322.655267 L307.061725,323.569236 C310.957809,324.623815 313.465364,326.4166 313.465364,330.107628 C313.465364,334.794646 309.399376,337.665445 304.319819,337.665445 C300.01362,337.665445 296.222994,335.73205 294.459503,332.615183 L296.357745,330.857551 C298.056645,333.610828 301.085268,335.259968 304.319819,335.193043 C307.196477,335.193043 309.434528,333.974418 309.434528,331.437569 C309.434528,329.228811 307.911247,328.344137 305.26894,327.600072 Z M252.293909,174.334555 C260.964355,174.334555 269.279682,177.778876 275.410613,183.909807 C281.541545,190.040738 284.985866,198.356065 284.985866,207.026511 C284.985866,225.08178 270.349178,239.718468 252.293909,239.718468 C234.23864,239.718468 219.601952,225.08178 219.601952,207.026511 C219.601952,188.971242 234.23864,174.334555 252.293909,174.334555 Z M251.397517,232.887138 C255.141273,231.404868 265.780806,225.499225 265.780806,215.574462 C265.780806,202.855065 253.254748,198.378961 253.254748,189.321297 C253.297862,186.213422 254.373797,183.208225 256.313028,180.779206 C256.313028,180.779206 241.273556,186.696567 239.222985,200.593578 C238.168406,207.6534 241.947315,213.441868 241.947315,213.441868 C242.603498,206.850748 247.120612,204.876341 247.220211,205.128269 C248.245497,207.647541 255.041674,212.697804 255.041674,222.341346 C255.041674,227.362315 251.397517,232.887138 251.397517,232.887138 Z M456.747872,296.57789 C459.102145,296.577895 461.224377,297.996704 462.124212,300.172218 C463.024047,302.347732 462.524108,304.851112 460.857696,306.514137 C459.191285,308.177162 456.686885,308.672015 454.513194,307.767768 C452.339502,306.863521 450.925001,304.738421 450.929776,302.384162 C450.926621,300.841231 451.538963,299.360757 452.631093,298.270846 C453.723224,297.180934 455.204944,296.571602 456.747872,296.57789 Z M456.855009,307.19912 L456.855009,307.222722 C458.151425,307.244 459.398682,306.730458 460.29961,305.804455 C461.200538,304.878451 461.674464,303.622903 461.60847,302.336957 C461.602926,300.364591 460.395241,298.591973 458.553693,297.853214 C456.712146,297.114455 454.603511,297.556691 453.220014,298.971826 C451.836516,300.386962 451.453701,302.493149 452.251705,304.299316 C453.049708,306.105482 454.869593,307.2519 456.855009,307.19912 Z M457.365336,302.713973 L458.609764,304.659552 L457.538977,304.659552 L456.400664,302.84815 L455.90868,302.84815 L455.90868,304.726641 L454.886127,304.726641 L454.886127,300.068751 L456.535718,300.068751 C457.625798,300.068751 458.330009,300.509621 458.330009,301.468035 C458.357671,302.061614 457.949898,302.588279 457.365336,302.713973 Z M457.317103,301.506372 L457.317103,301.487203 C457.317103,300.988828 457.027701,300.825898 456.506777,300.825898 L455.90868,300.825898 L455.90868,302.186845 L456.506777,302.186845 C457.046994,302.186845 457.317103,301.947242 457.317103,301.506372 Z"/>
  </g>
</svg>
