<?xml version="1.0" encoding="utf-8"?>
<!-- Generator: Adobe Illustrator 21.0.0, SVG Export Plug-In . SVG Version: 6.00 Build 0)  -->
<svg version="1.1" id="Layer_1" xmlns="http://www.w3.org/2000/svg" xmlns:xlink="http://www.w3.org/1999/xlink" x="0px" y="0px"
	 viewBox="0 0 400 400" style="enable-background:new 0 0 400 400;" xml:space="preserve">
<style type="text/css">
	.st0{fill:#23356E;}
	.st1{fill:#FFFFFF;}
</style>
<circle class="st0" cx="200" cy="200" r="200"/>
<g>
	<rect x="201.6" y="129.1" class="st1" width="141.7" height="141.7"/>
	<path id="Regisgered_16_" class="st0" d="M334.6,192c0.9,0,1.5,0.7,1.5,1.5c0,0.9-0.7,1.5-1.5,1.5c-0.9,0-1.5-0.7-1.5-1.5
		C333,192.7,333.7,192,334.6,192z M334.6,194.9c0.7,0,1.3-0.6,1.3-1.3c0-0.7-0.5-1.3-1.3-1.3c-0.7,0-1.3,0.6-1.3,1.3
		C333.3,194.3,333.8,194.9,334.6,194.9z M334,192.6h0.7c0.4,0,0.6,0.2,0.6,0.5s-0.2,0.5-0.5,0.5l0.5,0.8H335l-0.5-0.8h-0.2v0.8H334
		L334,192.6L334,192.6z M334.3,193.4h0.4c0.2,0,0.4,0,0.4-0.3c0-0.2-0.2-0.3-0.4-0.3h-0.4V193.4z"/>
	<g id="EXPRESS_2_">
		<g>
			<path class="st0" d="M246,212.6l-2.8-6.5l8.7-10.4H248l-6.1,7.6l-3.2-7.6h-4.4l4.4,10.2l-9.1,10.6h3.9l6.4-7.7l1.9,4.3
				c0.6,1.3,1,2.1,1.6,2.7c0.8,0.7,1.8,1.1,3.1,1.1c0.4,0,0.9-0.1,1.3-0.2l-1.6-3.8C246.1,212.8,246.1,212.7,246,212.6z M262,195.3
				c0,0-2.5-0.1-8.1,1.1l-1.4,6.7l0,0l-1.3,6.1l0,0l-2.4,11.5c-0.2,0.7-1.1,4.4,2.7,4.4h0.6l1.8-8.5c0.9,0.3,2.2,0.4,3.2,0.4
				c7.8,0,12.8-6.9,12.8-14.4C269.9,197.6,266.7,195.3,262,195.3z M256.8,214c-0.9,0-1.8-0.1-2.4-0.3l1-4.5l0,0l2.2-10.4
				c0.9-0.4,2.4-0.6,3.5-0.6c3,0,4.5,1.5,4.5,4.6C265.6,208.5,262.1,214,256.8,214z M283.5,198.9l0.8-3.5c-0.3-0.1-1-0.2-1.5-0.2
				c-2.7,0-4.6,1.5-5.8,3.6v-3.2h-3.1c0,0,0,0.9-0.3,3l-2.5,11.7l-0.4,1.8c-0.2,0.7-1.1,4.4,2.7,4.4h0.6l0.9-4.3l0,0l1-4.8
				c0.6-3,1.3-5.8,2.8-7.3c0.8-0.8,1.8-1.3,3.3-1.3C282.7,198.8,283.3,198.9,283.5,198.9z M290.3,208.5c6.3,0,10.4-3.5,10.4-7.8
				c0-3.7-3.1-5.4-6.5-5.4c-7.1,0-12.5,7.3-12.5,14.1c0,4.8,3.4,7.6,8.1,7.6c2.6,0,5.5-0.8,7.4-2l0.6-3.2c-1.7,1.1-4.6,2.2-7,2.2
				c-3.1,0-4.9-1.8-4.9-4.8c0-0.4,0-0.9,0.1-1.2C287.2,208.2,289,208.5,290.3,208.5z M294,198.2c1.7,0,2.7,1,2.7,2.5
				c0,3-2.5,4.9-6.6,4.9c-1.1,0-2.8-0.2-3.5-0.4C287.5,202,290.3,198.2,294,198.2z M310,204.4c-2.2-1-3.7-1.9-3.7-3.3
				c0-1.7,1.8-3,4.6-3c1.7,0,3.8,0.5,5.1,1.2l0.6-2.9c-1.3-0.6-3.7-1.2-5.5-1.2c-5.1,0-8.9,2.6-8.9,6.4c0,3,2.3,4.5,4.8,5.6
				c2.8,1.3,4.1,2,4.1,3.6c0,1.8-1.7,3.1-4.8,3.1c-2.1,0-4.5-0.6-6.2-1.8l-0.7,3c1.9,1.2,4.4,1.7,6.6,1.7c5.2,0,9-2.4,9-6.7
				C315.3,207.3,313.3,205.9,310,204.4z M326.9,198.1c1.7,0,3.8,0.5,5.1,1.2l0.6-2.9c-1.3-0.6-3.7-1.2-5.5-1.2
				c-5.1,0-8.9,2.6-8.9,6.4c0,3,2.3,4.5,4.8,5.6c2.8,1.3,4.1,2,4.1,3.6c0,1.8-1.7,3.1-4.8,3.1c-2.1,0-4.5-0.6-6.2-1.8l-0.7,3
				c1.9,1.2,4.4,1.7,6.6,1.7c5.2,0,9-2.4,9-6.7c0-2.9-2-4.3-5.3-5.8c-2.2-1-3.6-1.9-3.6-3.3C322.2,199.4,324,198.1,326.9,198.1z"/>
			<g>
				<path class="st0" d="M217.6,188.3h12.9l0,0h3.5c0,0.3-0.1,0.6-0.2,0.9c-0.7,1.8-1.8,2.2-3.6,2.2H225l0,0h-3.5l-1.9,8.7h6.2l0,0
					h3.4c0,0.3-0.1,0.6-0.2,0.9c-0.7,1.8-1.7,2.2-3.5,2.2h-0.7l0,0h-5.9l-2.1,10.2h8.9l0,0h0.4l0,0h3.5c0,0.3-0.1,0.6-0.2,0.9
					c-0.7,1.8-1.8,2.2-3.6,2.2h-5.3l0,0h-4.9l0,0h-0.1c-4,0-3-3.9-2.9-4.6L217.6,188.3z"/>
			</g>
		</g>
	</g>
	<g id="HI_2_">
		<g>
			<path class="st0" d="M265.9,160.8l-1.4,6.7c-0.3-0.1-0.8-0.1-1.3-0.1c-5,0-8.5,4.1-8.5,8.6c0,2.8,1.7,4.5,4.3,4.5
				c1.6,0,2.9-0.6,3.6-1.5c0.2,0.9,1.1,1.4,2.2,1.4h0.5l4.2-19.6H265.9z M262.8,175.1c-0.2,0.9-0.5,1.8-1,2.3s-1,0.8-1.9,0.8
				c-1.2,0-1.9-0.8-1.9-2.3c0-3,2.2-6.3,4.9-6.3c0.4,0,0.9,0.1,1,0.2L262.8,175.1z M253.4,162.3c-1.2,0-2.4,1.1-2.4,2.3
				c0,0.9,0.7,1.5,1.5,1.5c1.2,0,2.4-1.1,2.4-2.3C255,162.9,254.3,162.3,253.4,162.3z M241.9,177c-0.1,0.6-0.9,3.6,2.2,3.6h0.5
				l3.6-17.4h-3.4L241.9,177z M248.6,177c-0.1,0.6-0.9,3.6,2.2,3.6h0.5l2.7-12.9h-3.5L248.6,177z M236.1,167.4
				c-1.8,0-3.5,0.6-4.7,1.6c-1.9,1.6-3.1,4.2-3.1,6.9c0,3.1,2.1,4.6,5,4.6c1.8,0,3.4-0.6,4.7-1.6c1.9-1.6,3.1-4.2,3.1-6.9
				C241.1,169,239,167.4,236.1,167.4z M236,177c-0.6,0.7-1.3,1.2-2.2,1.2c-1.4,0-1.9-1-1.9-2.3c0-1.5,0.5-3.6,1.6-5
				c0.6-0.7,1.3-1.2,2.2-1.2c1.4,0,1.9,1,1.9,2.3C237.6,173.5,237.1,175.7,236,177z M276.8,167.4c-4.8,0-8.5,3.8-8.5,8.6
				c0,2.8,1.6,4.5,4.2,4.5c1.6,0,2.9-0.6,3.6-1.5c0.2,0.9,1.1,1.4,2.2,1.4h0.5l2.5-11.8C280,167.9,278.4,167.4,276.8,167.4z
				 M276.4,175.1c-0.2,0.9-0.5,1.8-1,2.3s-1.1,0.8-1.9,0.8c-1.2,0-1.8-0.8-1.8-2.3c0-2.7,1.9-6.3,5-6.3c0.3,0,0.6,0.1,0.8,0.2
				L276.4,175.1z M328.5,167.3c-1.7,0-3.1,0.8-4,1.7l-0.3-1.5h-2.7c0,1.1-0.2,2.6-0.6,4.8l-1.7,7.9h3.4l1.2-5.7
				c0.3-1.6,0.9-4.6,3.3-4.6c1.2,0,1.8,0.8,1.4,2.6l-0.9,4.4c-0.1,0.6-0.9,3.6,2.2,3.6h0.5l1.7-8.1
				C333,168.8,331.1,167.3,328.5,167.3z M291.1,173.4c-0.3,1.6-0.9,4.6-3.3,4.6c-2.2,0-1.5-2.4-1.4-3l1.5-7.3h-3.4l-1.5,7.2
				c-0.2,0.8-0.3,1.5-0.3,2.2c0,0.9,0.3,1.7,0.9,2.3c-2,0.5-3,1.5-3,3c0,2.2,2.2,3.5,5.1,3.5c2.5,0,4.4-0.8,5.7-2.2
				c1-1.1,1.6-2.7,2.1-4.9l2.3-11h-3.4L291.1,173.4z M289.6,180.3c-0.3,1-0.7,1.9-1.4,2.6c-0.7,0.6-1.5,1-2.5,1
				c-1.2,0-2.2-0.6-2.2-1.6c0-1.3,1.3-1.6,3.2-1.8c1.3-0.2,2.5-0.5,3.2-1.1L289.6,180.3z M314.5,167.3c-1.7,0-3.1,0.8-4,1.7
				l-0.3-1.5h-2.7c0,1.1-0.2,2.6-0.6,4.8l-1.7,7.9h3.5l1.2-5.7c0.3-1.6,0.9-4.6,3.3-4.6c1.2,0,1.8,0.8,1.4,2.6l-0.9,4.4
				c-0.1,0.6-0.9,3.6,2.2,3.6h0.5l1.7-8.1C319,168.8,317.1,167.3,314.5,167.3z M303,160.2l-3.5,16.8c-0.1,0.6-0.9,3.6,2.2,3.6h0.5
				l4.3-20.3H303V160.2z M226.2,160.1l-1.5,7.4l0,0c-2.6,0.5-4.6,1-6.5,1.5l0.3-1.5l1.6-7.4h-3.4l-2.2,10.4c-0.5,0.2-1,0.5-1.6,0.8
				c-0.9,0.5-1.3,1.2-1.4,1.6c-0.1,0.2-0.1,0.7,0,1c0.8-0.3,1.6-0.6,2.5-0.9l-0.8,4c-0.1,0.6-0.9,3.6,2.2,3.6h0.5l1.8-8.5
				c1.9-0.5,3.9-1,6.5-1.5v0.2l-1.3,6.3c-0.1,0.6-0.9,3.6,2.2,3.6h0.5l4.3-20.3h-3.7V160.1z"/>
		</g>
	</g>
	<rect x="56.7" y="129.1" class="st1" width="141.7" height="141.7"/>
	<g id="TM">
		<polygon class="st0" points="140.8,243.6 140.2,243.6 140.2,241.2 139.3,241.2 139.3,240.7 141.7,240.7 141.7,241.2 140.8,241.2 
					"/>
		<polygon class="st0" points="144.9,243.6 144.3,243.6 144.3,241.1 144.3,241.1 143.8,243.6 143.2,243.6 142.6,241.1 142.6,241.1 
			142.6,243.6 142.1,243.6 142.1,240.7 143,240.7 143.5,243 143.5,243 144,240.7 144.9,240.7 		"/>
	</g>
	<path id="Monogram_H_2_" class="st0" d="M149.6,170.2c3.6-11.6,7.7-22.6,12.2-32.7c-1.5-0.5-4-0.9-6.3-0.9c-5,0-8.3,2.2-10.5,6.5
		c-3.6,7-7.7,18.7-11.5,31.9c-8.4,2.8-16.4,5.9-24,9.3c3.9-13.8,8.5-27,13.9-38.7c-1.1-0.4-3.3-0.7-4.8-0.7c-5.9,0-9.4,2.2-12.1,8.1
		c-4.2,9.1-8.9,23.8-12.6,39c-8.4,4.5-12.4,6.4-19.4,11.5c-3.6,2.6-4.5,5.8-4.8,7.4c-0.2,1,0.1,2.9,0.8,4.2
		c7-4.1,13.9-7.8,20.7-11.3c-2.6,12.6-4.3,24.7-4.3,33.4c0,5.2,3.2,8.2,7.7,8.2c1.3,0,3.3-0.3,4-0.6c1.3-16,3.9-32.4,7.6-48.2
		c8-3.6,15.9-6.7,23.8-9.4c-6.5,24.9-11.6,52.2-11.6,65.3c0,5.4,3.3,7.7,8.9,7.7c1.2,0,3.5-0.3,4.1-0.6c2.3-24.4,7.2-51.6,14.4-77.2
		c16.8-4.5,33.7-7,52.8-7.7V163C180.7,163.8,164.7,166.4,149.6,170.2z"/>
</g>
</svg>
