<?xml version="1.0" encoding="utf-8"?>
<!-- Generator: Adobe Illustrator 21.0.0, SVG Export Plug-In . SVG Version: 6.00 Build 0)  -->
<svg version="1.1" id="Layer_1" xmlns="http://www.w3.org/2000/svg" xmlns:xlink="http://www.w3.org/1999/xlink" x="0px" y="0px"
	 viewBox="0 0 400 400" style="enable-background:new 0 0 400 400;" xml:space="preserve">
<style type="text/css">
	.st0{fill:#42A247;}
	.st1{fill:#FFFFFF;}
</style>
<circle class="st0" cx="200" cy="200" r="200"/>
<g>
	<g>
		<path id="Regisgered_53_" class="st1" d="M345.5,260.8c1.4,0,2.5,1.1,2.5,2.5c0,1.4-1.1,2.5-2.5,2.5c-1.4,0-2.5-1.1-2.5-2.5
			C342.9,262,344.1,260.8,345.5,260.8z M345.5,265.5c1.2,0,2-0.9,2-2.2c0-1.2-0.9-2.2-2-2.2c-1.2,0-2.1,0.9-2.1,2.2
			C343.4,264.6,344.3,265.5,345.5,265.5z M344.5,261.9h1.1c0.7,0,1,0.3,1,0.8c0,0.5-0.3,0.8-0.8,0.8l0.8,1.3h-0.5l-0.8-1.3H345v1.3
			h-0.5V261.9z M345,263.2h0.6c0.4,0,0.6-0.1,0.6-0.5c0-0.3-0.3-0.4-0.6-0.4H345V263.2z"/>
		<path class="st1" d="M183.3,246.6l-3.5,16.1c-0.8-0.2-2-0.3-3.2-0.3c-12,0-20.5,9.7-20.5,20.6c0,6.7,4.1,10.9,10.4,10.9
			c3.8,0,7-1.5,8.7-3.6c0.6,2.2,2.7,3.3,5.2,3.3h1.1l10.1-47.1H183.3z M176,280.8c-0.5,2.3-1.2,4.2-2.4,5.5c-1.1,1.3-2.5,2-4.5,2
			c-2.8,0-4.6-1.9-4.6-5.5c0-7.3,5.3-15.1,11.7-15.1c0.9,0,2.1,0.2,2.5,0.4L176,280.8z M153.5,250c-2.9,0-5.7,2.6-5.7,5.6
			c0,2.2,1.6,3.7,3.7,3.7c2.9,0,5.8-2.6,5.8-5.6C157.2,251.5,155.6,250,153.5,250z M125.7,285.4c-0.3,1.4-2.2,8.5,5.3,8.5h1.1
			l8.8-41.8h-8.3L125.7,285.4z M141.8,285.4c-0.3,1.4-2.2,8.5,5.3,8.5h1.1l6.6-31h-8.3L141.8,285.4z M111.9,262.4
			c-4.4,0-8.3,1.4-11.2,3.9c-4.6,3.8-7.3,10-7.3,16.6c0,7.3,5,11.1,12,11.1c4.4,0,8.3-1.4,11.2-3.9c4.6-3.8,7.3-10,7.3-16.6
			C123.8,266.1,118.8,262.4,111.9,262.4z M111.5,285.5c-1.4,1.8-3.1,2.9-5.2,2.9c-3.3,0-4.6-2.3-4.6-5.6c0-3.5,1.3-8.7,3.9-12
			c1.4-1.8,3.2-3,5.3-3c3.3,0,4.6,2.3,4.6,5.6C115.4,277,114.1,282.2,111.5,285.5z M209.5,262.4c-11.4,0-20.5,9.2-20.5,20.7
			c0,6.7,3.8,10.8,10.1,10.8c3.8,0,7-1.5,8.7-3.6c0.6,2.2,2.7,3.3,5.2,3.3h1.1l6.1-28.3C217.1,263.5,213.5,262.4,209.5,262.4z
			 M208.6,280.8c-0.5,2.3-1.2,4.2-2.3,5.5c-1.1,1.3-2.6,2-4.6,2c-2.8,0-4.3-1.9-4.3-5.4c0-6.4,4.6-15.2,11.9-15.2
			c0.8,0,1.4,0.2,1.9,0.5L208.6,280.8z M333.5,262.1c-4,0-7.4,1.8-9.5,4.2l-0.8-3.6h-6.3c0,2.6-0.4,6.2-1.6,11.5l-4,18.9h8.3
			l2.9-13.7c0.8-3.8,2.2-11.1,8-11.1c2.9,0,4.4,1.8,3.5,6.2l-2.2,10.7c-0.3,1.4-2.2,8.5,5.3,8.5h1.1l4.2-19.5
			C344.3,265.8,339.8,262.1,333.5,262.1z M333.5,262.1c-4,0-7.4,1.8-9.5,4.2l-0.8-3.6h-6.3c0,2.6-0.4,6.2-1.6,11.5l-4,18.9h8.3
			l2.9-13.7c0.8-3.8,2.2-11.1,8-11.1c2.9,0,4.4,1.8,3.5,6.2l-2.2,10.7c-0.3,1.4-2.2,8.5,5.3,8.5h1.1l4.2-19.5
			C344.3,265.8,339.8,262.1,333.5,262.1z M243.8,276.7c-0.8,3.8-2.2,11.1-8,11.1c-5.2,0-3.6-5.8-3.3-7.3l3.7-17.6H228l-3.7,17.3
			c-0.4,1.8-0.7,3.7-0.7,5.3c0,2.3,0.8,4.1,2.1,5.5c-4.8,1.2-7.1,3.7-7.1,7.3c0,5.3,5.2,8.4,12.2,8.4c6,0,10.7-2,13.7-5.4
			c2.4-2.8,3.9-6.5,5.1-11.8l5.6-26.5h-8.3L243.8,276.7z M240.1,293.3c-0.6,2.4-1.8,4.6-3.4,6.2c-1.6,1.5-3.7,2.3-6,2.3
			c-2.9,0-5.3-1.4-5.3-3.8c0-3.1,3.1-3.9,7.6-4.4c3.2-0.4,6-1.1,7.7-2.6L240.1,293.3z M299.9,262.1c-4,0-7.4,1.8-9.5,4.2l-0.8-3.6
			h-6.3c0,2.6-0.4,6.2-1.5,11.5l-4,18.9h8.3l3-13.7c0.8-3.8,2.2-11.1,8-11.1c2.9,0,4.4,1.8,3.5,6.2l-2.2,10.7
			c-0.3,1.4-2.2,8.5,5.3,8.5h1.1l4.2-19.5C310.7,265.8,306.2,262.1,299.9,262.1z M272.4,245.2l-8.4,40.2c-0.3,1.4-2.2,8.5,5.3,8.5
			h1.1l10.2-48.8H272.4z M88,244.9l-3.7,17.8l0,0c-6.3,1.2-11,2.3-15.5,3.6l0.8-3.6l3.7-17.8H65l-5.2,24.9c-1.2,0.5-2.4,1.1-3.9,1.9
			c-2.2,1.2-3,2.9-3.3,3.7c-0.2,0.6-0.2,1.6,0.1,2.4c2-0.8,3.9-1.5,5.9-2.3l-2,9.6c-0.3,1.4-2.2,8.5,5.3,8.5h1.1l4.3-20.5
			c4.6-1.3,9.4-2.3,15.5-3.5l-0.1,0.4l-3.2,15.1c-0.3,1.4-2.2,8.5,5.3,8.5h1.1l10.2-48.8H88z"/>
	</g>
	<rect x="130" y="94.1" class="st1" width="133.1" height="133.1"/>
	<g id="TM">
		<polygon class="st0" points="209.7,202 209.1,202 209.1,199.8 208.2,199.8 208.2,199.3 210.5,199.3 210.5,199.8 209.7,199.8 		"/>
		<polygon class="st0" points="213.5,202 212.9,202 212.9,199.7 212.9,199.7 212.4,202 211.9,202 211.3,199.7 211.3,199.7 
			211.3,202 210.8,202 210.8,199.3 211.6,199.3 212.1,201.5 212.2,201.5 212.6,199.3 213.5,199.3 		"/>
	</g>
	<path id="Monogram_H_1_" class="st0" d="M217.9,133c3.4-10.9,7.3-21.4,11.5-31c-1.4-0.5-3.8-0.9-6-0.9c-4.7,0-7.9,2.1-9.9,6.1
		c-3.4,6.6-7.2,17.6-10.9,30.2c-7.9,2.6-15.5,5.6-22.7,8.8c3.6-13.1,8.1-25.5,13.2-36.6c-1.1-0.3-3.1-0.7-4.6-0.7
		c-5.6,0-8.9,2.1-11.4,7.6c-4,8.7-8.4,22.5-11.9,36.9c-7.9,4.2-11.7,6.1-18.4,10.9c-3.4,2.4-4.3,5.5-4.5,7c-0.1,1,0.1,2.7,0.7,4
		c6.7-3.8,13.2-7.4,19.6-10.7c-2.5,11.9-4.1,23.4-4.1,31.6c0,4.9,3,7.7,7.3,7.7c1.2,0,3.1-0.3,3.8-0.6c1.2-15.2,3.7-30.7,7.2-45.6
		c7.6-3.4,15.1-6.4,22.6-8.9c-6.1,23.5-11,49.4-11,61.8c0,5.1,3.1,7.3,8.5,7.3c1.1,0,3.3-0.3,3.9-0.6c2.1-23.1,6.9-48.9,13.6-73
		c15.9-4.3,31.9-6.6,48.9-7.2v-11C247.3,126.9,232.2,129.3,217.9,133z"/>
</g>
</svg>
