<?xml version="1.0" encoding="utf-8"?>
<!-- Generator: Adobe Illustrator 21.0.0, SVG Export Plug-In . SVG Version: 6.00 Build 0)  -->
<svg version="1.1" id="Layer_1" xmlns="http://www.w3.org/2000/svg" xmlns:xlink="http://www.w3.org/1999/xlink" x="0px" y="0px"
	 viewBox="0 0 400 400" style="enable-background:new 0 0 400 400;" xml:space="preserve">
<style type="text/css">
	.st0{fill:#2E312C;}
	.st1{fill:#AD9B57;}
	.st2{fill-rule:evenodd;clip-rule:evenodd;fill:#FFFFFF;}
</style>
<circle class="st0" cx="200" cy="200" r="200"/>
<g>
	<path class="st1" d="M116.9,200c0-75.3,65.7-108.4,83.4-123.3c17.7,14.9,82.8,48.1,82.8,123.3c0,75.3-65.2,108.5-82.8,123.4
		C182.6,308.4,116.9,275.2,116.9,200"/>
	<path class="st2" d="M212.6,195v-28.9c0.1-14.8,9.6-23.8,20.1-23.8v-2.3h-64.5v2.3c10.4,0,20,9,20.1,23.8V195v39.1
		c-0.1,14.8-9.7,23.9-20.1,23.8v2.3h64.5v-2.3c-9.9,0.1-20-9-20.1-23.8V195z"/>
	<path class="st2" d="M133.6,200c0-63.3,51.8-91.2,66.6-103.8c14.9,12.6,66.2,40.4,66.2,103.8c0,63.3-51.3,91.3-66.2,103.9
		C185.4,291.3,133.6,263.3,133.6,200 M200.3,83.1v6.1c15.9,13.4,72,43.2,72,110.8c0,67.6-56.2,97.4-72,110.8v6.1
		c-16.7-14.2-77.8-45.6-77.8-116.9C122.4,128.6,183.5,97.3,200.3,83.1"/>
</g>
</svg>
