<?xml version="1.0" encoding="utf-8"?>
<!-- Generator: Adobe Illustrator 21.0.0, SVG Export Plug-In . SVG Version: 6.00 Build 0)  -->
<svg id="Layer_1" data-name="Layer 1" xmlns="http://www.w3.org/2000/svg" xmlns:xlink="http://www.w3.org/1999/xlink" viewBox="0 0 400 400"><defs><style>.cls-1{fill:none;}.cls-2{fill:#213161;}.cls-3{clip-path:url(#clip-path);}.cls-4{fill:#fff;}.cls-5{clip-path:url(#clip-path-2);}</style><clipPath id="clip-path"><rect class="cls-1" x="60.93" y="148.91" width="278.15" height="102.18"/></clipPath><clipPath id="clip-path-2"><rect class="cls-1" x="60.93" y="148.91" width="278.15" height="102.18"/></clipPath></defs><circle class="cls-2" cx="200" cy="200" r="200"/><g id="Artwork_2" data-name="Artwork 2"><g class="cls-3"><polygon class="cls-4" points="141.43 149.52 141.4 161.68 128.84 161.68 128.84 149.51 123.09 149.51 123.09 176.7 128.84 176.7 128.84 163.75 141.4 163.75 141.4 176.7 147.12 176.7 147.12 149.51 141.43 149.52"/><polygon class="cls-4" points="190.93 149.51 190.93 151.91 198.6 151.91 198.6 176.7 204.4 176.7 204.4 151.91 212.08 151.91 212.08 149.51 190.93 149.51"/><polygon class="cls-4" points="222.03 149.51 222.03 176.7 239.7 176.7 239.7 173.98 228.28 173.98 228.28 163.75 237.66 163.75 237.66 161.68 228.28 161.68 228.28 151.91 239.5 151.91 239.5 149.51 222.03 149.51"/><polygon class="cls-4" points="251.73 149.51 251.73 176.7 270.17 176.7 270.17 173.98 258.02 173.98 258.02 149.51 251.73 149.51"/><g class="cls-5"><path class="cls-4" d="M170.71,177.26c-8.88,0-14.43-5.52-14.43-14.18s5.55-14.17,14.43-14.17c9.11,0,14.46,5.4,14.46,14.17,0,8.54-5.55,14.18-14.46,14.18m0-26.69c-5.35,0-8.43,4.28-8.43,12.52,0,8,3.08,12.49,8.43,12.49s8.46-4.42,8.46-12.49-3.12-12.52-8.46-12.52"/><path class="cls-4" d="M122.5,235.8V202.54h4.19v47.51h-5L92,216c-.44-.5-1-1.11-1.61-1.9H90v35.92H85.8V202.54h7.36l27.25,31.16a20.58,20.58,0,0,1,1.68,2.1Z"/><path class="cls-4" d="M160.45,250.05H141.62V202.54h18.83c16.81,0,26,6.32,26,22.78,0,17.81-13.65,24.73-26,24.73m-1.18-44.76h-7.91v41.94H158c8.91,0,17.85-4.62,17.85-21.91,0-15.21-7.57-20-16.6-20"/><rect class="cls-4" x="60.93" y="202.54" width="9.72" height="47.51"/><rect class="cls-4" x="199.99" y="202.54" width="9.73" height="47.51"/><path class="cls-4" d="M307.59,251.09c-15.51,0-25.2-9.64-25.2-24.76s9.69-24.76,25.2-24.76c15.92,0,25.27,9.43,25.27,24.76,0,14.91-9.7,24.76-25.27,24.76m0-46.63c-9.33,0-14.72,7.49-14.72,21.87,0,14,5.39,21.82,14.72,21.82s14.78-7.72,14.78-21.82-5.45-21.87-14.78-21.87"/><path class="cls-4" d="M260.44,229.67v16.41c-.84.53-3.75,2.09-8.87,2.11-11.74.05-17.66-8.72-17.62-21.93.05-13.46,8.7-21.61,17.46-21.68,6.09-.06,11.86,1.81,15.8,7.12h.22a30.9,30.9,0,0,1,1.72-6s-6-4.13-17.78-4.13c-16.53,0-28.06,11.08-28.06,24.76,0,17.35,12.44,24.76,28.29,24.76,8.93,0,18.56-3,18.56-3V229.67Z"/><path class="cls-4" d="M332.86,204.68a3.11,3.11,0,1,1,3.1,3.08,3.05,3.05,0,0,1-3.1-3.08m5.65,0a2.55,2.55,0,1,0-2.55,2.59,2.47,2.47,0,0,0,2.55-2.59m-3.61-1.57H336c.71,0,1.18.3,1.18.93h0a.82.82,0,0,1-.63.83l.81,1.3h-.7l-.75-1.19h-.32v1.19h-.67Zm1.06,1.42q.54,0,.54-.45h0c0-.33-.2-.44-.54-.44h-.39v.9Z"/></g></g></g></svg>
