<?xml version="1.0" encoding="utf-8"?>
<!-- Generator: Adobe Illustrator 21.0.0, SVG Export Plug-In . SVG Version: 6.00 Build 0)  -->
<svg version="1.1" id="Layer_1" xmlns="http://www.w3.org/2000/svg" xmlns:xlink="http://www.w3.org/1999/xlink" x="0px" y="0px"
	 viewBox="0 0 400 400" style="enable-background:new 0 0 400 400;" xml:space="preserve">
<style type="text/css">
	.st0{fill:#187DB5;}
	.st1{fill:#FFFFFF;}
</style>
<circle class="st0" cx="200" cy="200" r="200"/>
<g>
	<g>
		<polygon class="st1" points="91.9,152.7 91.9,204.4 91.9,204.4 98.5,204.4 98.5,204.4 98.5,152.7 		"/>
		<path class="st1" d="M80.2,197.7c-1.2,0-2.4-2-2.4-2l-15.3-21.1l20.9-21.9h-9.3l-24.7,25.8v-25.8h-6.6v51.6h6.6v-16l8.4-8.8
			L72.7,200c0,0,2.9,4.4,7.4,4.4h3.3v-6.6H80.2z"/>
		<path class="st1" d="M189.7,152.7h-17.3v51.6h6.6l0,0v-17.8h10.7c10.1,0,18.4-6.8,18.4-16.9C208.1,159.6,199.8,152.7,189.7,152.7z
			 M189.7,179.9H179v-20.6h10.7c6.5,0,11.7,3.9,11.7,10.3C201.4,176.1,196.2,179.9,189.7,179.9z"/>
		<polygon class="st1" points="212,152.7 212,159.5 228.3,159.5 228.3,204.4 228.3,204.4 234.9,204.4 234.9,204.4 234.9,159.5 
			251.2,159.5 251.2,152.7 		"/>
		<path class="st1" d="M277.9,152.1c-14.2,0-25.8,11.9-25.8,26.5c0,14.6,11.6,26.4,25.8,26.4c14.2,0,25.8-11.8,25.8-26.4
			C303.6,164,292.1,152.1,277.9,152.1z M277.9,198.2c-10.5,0-19-8.8-19-19.6c0-10.8,8.5-19.7,19-19.7c10.5,0,19,8.8,19,19.7
			C296.9,189.4,288.4,198.2,277.9,198.2z"/>
		<polygon class="st1" points="345.9,152.8 345.9,192 318,152.8 311.5,152.8 311.5,204.4 318,204.4 318,164.5 346.8,204.4 
			352.5,204.4 352.5,152.8 		"/>
		<polygon class="st1" points="155.7,152.8 135.6,179.9 115.4,152.8 108.6,152.8 108.6,204.4 115.1,204.4 115.1,164.5 133.8,189 
			137.3,189 156,164.5 156,204.4 162.6,204.4 162.6,152.8 		"/>
	</g>
	<g>
		<path class="st1" d="M42.9,231.6c0-0.2,0.2-0.4,0.4-0.4h1.6c0.3,0,0.4,0.2,0.4,0.4v6.6H54v-6.6c0-0.2,0.2-0.4,0.4-0.4H56
			c0.2,0,0.4,0.2,0.4,0.4v15.6c0,0.2-0.2,0.4-0.4,0.4h-1.6c-0.3,0-0.4-0.2-0.4-0.4v-6.8h-8.6v6.8c0,0.2-0.2,0.4-0.4,0.4h-1.6
			c-0.2,0-0.4-0.2-0.4-0.4V231.6z"/>
		<path class="st1" d="M70.4,230.9c4.7,0,8.5,3.8,8.5,8.5c0,4.7-3.8,8.5-8.5,8.5c-4.7,0-8.5-3.8-8.5-8.5
			C61.9,234.7,65.7,230.9,70.4,230.9z M70.4,245.5c3.4,0,6.1-2.7,6.1-6.1c0-3.3-2.8-6.2-6.1-6.2c-3.4,0-6.1,2.8-6.1,6.2
			C64.3,242.8,67,245.5,70.4,245.5z"/>
		<path class="st1" d="M86.4,233.3h-3.8c-0.3,0-0.4-0.2-0.4-0.4v-1.3c0-0.2,0.2-0.4,0.4-0.4h10.1c0.3,0,0.4,0.2,0.4,0.4v1.3
			c0,0.2-0.2,0.4-0.4,0.4h-3.8v13.9c0,0.2-0.2,0.4-0.4,0.4h-1.6c-0.2,0-0.4-0.2-0.4-0.4V233.3z"/>
		<path class="st1" d="M97.8,231.6c0-0.2,0.2-0.4,0.4-0.4h9.4c0.3,0,0.4,0.2,0.4,0.4v1.3c0,0.2-0.2,0.4-0.4,0.4h-7.5v4.8h6.3
			c0.2,0,0.4,0.2,0.4,0.4v1.3c0,0.3-0.2,0.4-0.4,0.4h-6.3v5.1h7.5c0.3,0,0.4,0.2,0.4,0.4v1.3c0,0.2-0.2,0.4-0.4,0.4h-9.4
			c-0.3,0-0.4-0.2-0.4-0.4V231.6z"/>
		<path class="st1" d="M113.9,231.6c0-0.2,0.2-0.4,0.4-0.4h1.6c0.2,0,0.4,0.2,0.4,0.4v13.9h6.4c0.3,0,0.4,0.2,0.4,0.4v1.3
			c0,0.2-0.2,0.4-0.4,0.4h-8.4c-0.3,0-0.4-0.2-0.4-0.4V231.6z"/>
		<path class="st1" d="M126.7,245.3c0.2-0.3,0.4-0.7,0.6-1c0.2-0.3,0.5-0.4,0.8-0.2c0.1,0.1,2,1.6,3.8,1.6c1.6,0,2.7-1,2.7-2.2
			c0-1.4-1.2-2.3-3.6-3.3c-2.4-1-4.3-2.3-4.3-5c0-1.8,1.4-4.4,5.2-4.4c2.4,0,4.1,1.2,4.4,1.4c0.2,0.1,0.4,0.4,0.1,0.8
			c-0.2,0.3-0.4,0.6-0.6,0.9c-0.2,0.3-0.5,0.4-0.8,0.2c-0.2-0.1-1.8-1.2-3.2-1.2c-2,0-2.7,1.3-2.7,2.1c0,1.3,1,2.2,3,3
			c2.7,1.1,5.1,2.4,5.1,5.3c0,2.5-2.2,4.5-5.3,4.5c-2.9,0-4.7-1.5-5.1-1.9C126.6,245.8,126.5,245.7,126.7,245.3z"/>
		<path class="st1" d="M152.7,238.8L152.7,238.8l-0.5-0.6c-0.9-1-1.7-2-1.6-3.4c0-1.8,1.4-3.8,4.3-3.8c2.6,0,4.2,1.7,4.2,3.8
			c0,2.3-2.3,3.8-3.2,4.4l3.3,3.3c0.5-1,0.8-2.2,0.9-3.4c0-0.5,0.2-0.7,0.7-0.6l1,0.2c0.5,0.1,0.4,0.5,0.4,0.7
			c-0.2,1.8-0.8,3.5-1.4,4.5l2.2,2.1c0.3,0.3,0.5,0.5,0,1.1l-0.6,0.6c-0.3,0.3-0.7,0.3-1-0.1l-1.9-1.9c-0.9,1-2.5,2.2-5.1,2.2
			c-3,0-4.8-2-4.8-4.4C149.4,240.7,151.9,239.3,152.7,238.8z M154.4,245.9c1.7,0,2.9-0.9,3.5-1.7l-3.9-4.2c-0.7,0.5-2.3,1.4-2.3,3.3
			C151.7,244.8,152.9,245.9,154.4,245.9z M157,234.7c0-1-0.8-2-2.2-2c-1.3,0-2.1,0.9-2.1,2c0,0.9,0.6,1.6,1.4,2.4l0.5,0.5
			C155.3,237.2,157,236.3,157,234.7z"/>
		<path class="st1" d="M175.3,231.6c0-0.2,0.2-0.4,0.4-0.4h6.4c2.8,0,5.1,2.2,5.1,5.1c0,2.2-1.4,4-3.5,4.8l3.2,6
			c0.2,0.3,0,0.7-0.4,0.7h-1.8c-0.2,0-0.3-0.1-0.4-0.2l-3.1-6.3h-3.6v6c0,0.2-0.2,0.4-0.4,0.4h-1.5c-0.3,0-0.4-0.2-0.4-0.4V231.6z
			 M182,239.2c1.5,0,2.9-1.3,2.9-2.9c0-1.5-1.3-2.8-2.9-2.8h-4.2v5.7H182z"/>
		<path class="st1" d="M193.1,231.6c0-0.2,0.2-0.4,0.4-0.4h9.4c0.3,0,0.4,0.2,0.4,0.4v1.3c0,0.2-0.2,0.4-0.4,0.4h-7.5v4.8h6.3
			c0.2,0,0.4,0.2,0.4,0.4v1.3c0,0.3-0.2,0.4-0.4,0.4h-6.3v5.1h7.5c0.3,0,0.4,0.2,0.4,0.4v1.3c0,0.2-0.2,0.4-0.4,0.4h-9.4
			c-0.3,0-0.4-0.2-0.4-0.4V231.6z"/>
		<path class="st1" d="M208.1,245.3c0.2-0.3,0.4-0.7,0.6-1c0.2-0.3,0.5-0.4,0.8-0.2c0.1,0.1,2,1.6,3.8,1.6c1.6,0,2.7-1,2.7-2.2
			c0-1.4-1.2-2.3-3.6-3.3c-2.4-1-4.3-2.3-4.3-5c0-1.8,1.4-4.4,5.2-4.4c2.4,0,4.1,1.2,4.4,1.4c0.2,0.1,0.4,0.4,0.1,0.8
			c-0.2,0.3-0.4,0.6-0.6,0.9c-0.2,0.3-0.5,0.4-0.8,0.2c-0.2-0.1-1.8-1.2-3.2-1.2c-2,0-2.7,1.3-2.7,2.1c0,1.3,1,2.2,3,3
			c2.7,1.1,5.1,2.4,5.1,5.3c0,2.5-2.2,4.5-5.3,4.5c-2.9,0-4.7-1.5-5.1-1.9C208,245.8,207.9,245.7,208.1,245.3z"/>
		<path class="st1" d="M226.2,233.3h-3.8c-0.3,0-0.4-0.2-0.4-0.4v-1.3c0-0.2,0.2-0.4,0.4-0.4h10.1c0.3,0,0.4,0.2,0.4,0.4v1.3
			c0,0.2-0.2,0.4-0.4,0.4h-3.8v13.9c0,0.2-0.2,0.4-0.4,0.4h-1.6c-0.2,0-0.4-0.2-0.4-0.4V233.3z"/>
		<path class="st1" d="M234.5,247l7.2-15.9c0.1-0.1,0.3-0.3,0.4-0.3h0.2c0.1,0,0.3,0.1,0.4,0.3L250,247c0.1,0.3,0,0.6-0.4,0.6h-1.5
			c-0.3,0-0.4-0.1-0.5-0.4l-1.5-3.2h-7.7c-0.5,1.1-1,2.1-1.4,3.2c-0.1,0.2-0.3,0.4-0.5,0.4h-1.5C234.6,247.7,234.4,247.3,234.5,247z
			 M245.2,242l-2.9-6.5h-0.1l-2.9,6.5H245.2z"/>
		<path class="st1" d="M254.1,231.6c0-0.2,0.2-0.4,0.4-0.4h1.6c0.3,0,0.4,0.2,0.4,0.4v9.7c0,2.4,1.5,4.2,3.9,4.2c2.4,0,4-1.8,4-4.2
			v-9.8c0-0.2,0.2-0.4,0.5-0.4h1.6c0.2,0,0.4,0.2,0.4,0.4v9.9c0,3.6-2.7,6.4-6.4,6.4c-3.7,0-6.4-2.8-6.4-6.4V231.6z"/>
		<path class="st1" d="M273.4,231.6c0-0.2,0.2-0.4,0.4-0.4h6.4c2.8,0,5.1,2.2,5.1,5.1c0,2.2-1.4,4-3.5,4.8l3.2,6
			c0.2,0.3,0,0.7-0.4,0.7h-1.8c-0.2,0-0.3-0.1-0.4-0.2l-3.1-6.3h-3.6v6c0,0.2-0.2,0.4-0.4,0.4h-1.5c-0.3,0-0.4-0.2-0.4-0.4V231.6z
			 M280.1,239.2c1.5,0,2.9-1.3,2.9-2.9c0-1.5-1.3-2.8-2.9-2.8h-4.2v5.7H280.1z"/>
		<path class="st1" d="M289,247l7.2-15.9c0.1-0.1,0.3-0.3,0.4-0.3h0.2c0.1,0,0.3,0.1,0.4,0.3l7.2,15.9c0.1,0.3,0,0.6-0.4,0.6h-1.5
			c-0.3,0-0.4-0.1-0.5-0.4l-1.5-3.2h-7.7c-0.5,1.1-1,2.1-1.4,3.2c-0.1,0.2-0.3,0.4-0.5,0.4h-1.5C289.1,247.7,288.9,247.3,289,247z
			 M299.7,242l-2.9-6.5h-0.1l-2.9,6.5H299.7z"/>
		<path class="st1" d="M309,231.3c0-0.2,0.2-0.4,0.4-0.4h0.6l10.2,11.8h0v-11.2c0-0.2,0.2-0.4,0.4-0.4h1.5c0.2,0,0.4,0.2,0.4,0.4
			v15.9c0,0.2-0.2,0.4-0.4,0.4h-0.6l-10.2-12.2h0v11.5c0,0.2-0.2,0.4-0.4,0.4h-1.5c-0.2,0-0.4-0.2-0.4-0.4V231.3z"/>
		<path class="st1" d="M331.7,233.3h-3.8c-0.3,0-0.4-0.2-0.4-0.4v-1.3c0-0.2,0.2-0.4,0.4-0.4H338c0.3,0,0.4,0.2,0.4,0.4v1.3
			c0,0.2-0.2,0.4-0.4,0.4h-3.8v13.9c0,0.2-0.2,0.4-0.4,0.4h-1.6c-0.2,0-0.4-0.2-0.4-0.4V233.3z"/>
		<path class="st1" d="M342,245.3c0.2-0.3,0.4-0.7,0.6-1c0.2-0.3,0.5-0.4,0.8-0.2c0.1,0.1,2,1.6,3.8,1.6c1.6,0,2.7-1,2.7-2.2
			c0-1.4-1.2-2.3-3.6-3.3c-2.4-1-4.3-2.3-4.3-5c0-1.8,1.4-4.4,5.2-4.4c2.4,0,4.1,1.2,4.4,1.4c0.2,0.1,0.4,0.4,0.1,0.8
			c-0.2,0.3-0.4,0.6-0.6,0.9c-0.2,0.3-0.5,0.4-0.8,0.2c-0.2-0.1-1.8-1.2-3.2-1.2c-2,0-2.7,1.3-2.7,2.1c0,1.3,1,2.2,3,3
			c2.7,1.1,5.1,2.4,5.1,5.3c0,2.5-2.2,4.5-5.3,4.5c-2.9,0-4.7-1.5-5.1-1.9C342,245.8,341.8,245.7,342,245.3z"/>
	</g>
	<g>
		<path class="st1" d="M363.2,153.3c3.3,0,6.1,2.7,6.1,6.1s-2.7,6-6.1,6s-6-2.7-6-6S359.9,153.3,363.2,153.3z M363.2,164.2
			c2.7,0,4.9-2.2,4.9-4.9c0-2.7-2.2-4.9-4.9-4.9c-2.7,0-4.9,2.2-4.9,4.9C358.3,162.1,360.5,164.2,363.2,164.2z M361,156.6
			c0-0.2,0.1-0.3,0.3-0.3h2.5c1,0,2.1,0.7,2.1,2c0,1.2-0.8,1.7-1.3,1.9c0.3,0.6,0.6,1.3,0.9,1.9c0.1,0.2-0.1,0.5-0.3,0.5h-0.8
			c-0.1,0-0.3-0.1-0.3-0.2l-0.8-2h-1v1.9c0,0.2-0.1,0.3-0.3,0.3h-0.6c-0.2,0-0.3-0.2-0.3-0.3V156.6z M363.7,159.1
			c0.5,0,0.8-0.4,0.8-0.8c0-0.5-0.3-0.8-0.8-0.8h-1.5v1.6H363.7z"/>
	</g>
</g>
</svg>
