<?xml version="1.0" encoding="utf-8"?>
<!-- Generator: Adobe Illustrator 21.0.0, SVG Export Plug-In . SVG Version: 6.00 Build 0)  -->
<svg version="1.1" id="Layer_1" xmlns="http://www.w3.org/2000/svg" xmlns:xlink="http://www.w3.org/1999/xlink" x="0px" y="0px"
	 viewBox="0 0 400 400" style="enable-background:new 0 0 400 400;" xml:space="preserve">
<style type="text/css">
	.st0{fill:#412815;}
	.st1{fill:#FFFFFF;}
</style>
<circle class="st0" cx="200" cy="200" r="200"/>
<g id="XMLID_2264_">
	<path id="XMLID_2265_" class="st1" d="M83.9,193.9c-2.2,0-4.3-0.9-6.1-2.7l-0.2-0.3l-2.5,3.3l0.2,0.2c2.2,2.2,5.8,3.6,9.3,3.6
		c4.4,0,9.4-3.7,9.4-8.7c0-4.5-2.5-7.4-6.4-10.7c-4.4-2.9-6.2-4.9-6.2-6.8c0-1.8,1.9-3.9,4.6-3.9c1.2,0,2.2,0.5,3.3,1.1
		c0.7,0.4,1.4,0.7,2.2,1l0.2,0.1l1.6-2.5l-0.1-0.2c-1.4-2.2-4.4-3.6-7.2-3.6c-5.1,0-9.4,3.7-9.4,8c0,4.5,2.3,6.2,4.8,7.9
		c0.3,0.2,0.6,0.4,0.9,0.7c0.5,0.5,1.1,1,1.8,1.6c2.3,1.9,5.1,4.2,5.1,7.3C89.3,192.3,87.5,193.9,83.9,193.9"/>
	<polygon id="XMLID_2266_" class="st1" points="106.8,197.2 111.5,197.2 111.5,168.6 121.3,168.6 121.3,164.5 97,164.5 97,168.6 
		106.8,168.6 	"/>
	<path id="XMLID_2267_" class="st1" d="M119.2,197.2h4.1l3.5-9.8h11.5l2.7,9.6l0,0.2h5.5l-11.4-32.7h-3.9l-12,32.4L119.2,197.2z
		 M129.8,180.3c1-2.8,2.2-6,3.1-9.4c1.3,5,2.6,9.4,3.8,13.2l-8.3,0C128.8,182.9,129.3,181.6,129.8,180.3"/>
	<polygon id="XMLID_2270_" class="st1" points="154.3,197.2 159.1,197.2 159.1,183 169.8,164.6 165.7,163.7 157.4,178.8 
		150.7,163.9 150.6,163.7 145.1,165.3 154.3,183 	"/>
	<path id="XMLID_2271_" class="st1" d="M193.4,187.8c0-5.3-3.5-8-7.2-8.6c2.3-1,5.1-3.1,5.1-8.2c0-3.6-3.6-6.6-8-6.6h-10.1v32.7h8.7
		C188.2,197.2,193.4,193,193.4,187.8 M178,168.6h3.2c2.4,0,5.3,0.7,5.3,3.9c0,3.4-3.5,6-6.7,6H178V168.6z M178,181.9h3.2
		c3.2,0,6.7,1.9,6.7,6c0,3.5-2,5.3-6,5.3H178V181.9z"/>
	<path id="XMLID_2275_" class="st1" d="M203.9,184h4.4l6.9,13.8l0.1,0.2l4.7-1.6l-7.7-14.1c2.7-2,4.8-4.2,4.8-9.2
		c0-5.5-3.3-8.7-8.7-8.7h-9.4v32.7h4.8V184z M203.9,168.6h3.2c1.6,0,5.3,0.5,5.3,5.3c0,1.7-1.1,6-6,6h-2.5V168.6z"/>
	<rect id="XMLID_2278_" x="224.3" y="164.5" class="st1" width="4.8" height="32.7"/>
	<path id="XMLID_2279_" class="st1" d="M260.5,180.2c0-7.3-3.9-15.7-15-15.7h-9.4v32.7h8.7C254.7,197.2,260.5,190.9,260.5,180.2
		 M241,168.6h4.6c6.8,0,10.2,3.9,10.2,11.6c0,8.5-3.8,13-10.9,13H241V168.6z"/>
	<path id="XMLID_2282_" class="st1" d="M279.2,197.9c2.6,0,5.2-0.8,7.6-1.5c0.8-0.2,1.6-0.5,2.3-0.6l0.2-0.1V182h-4.8v11.3
		c-1.3,0.6-2.7,0.6-5.3,0.6c-5.6,0-10.2-5.8-10.2-13c0-7.9,4.3-13,10.9-13c2.8,0,5.5,1.4,6.8,2.7l0.3,0.3l1.7-3.3l-0.1-0.2
		c-1.3-1.3-4.2-3.6-8.6-3.6c-10.2,0-15.7,8.8-15.7,17.1C264.2,191.2,270,197.9,279.2,197.9"/>
	<polygon id="XMLID_2283_" class="st1" points="313,193.2 300.4,193.2 300.4,181.9 310.9,181.9 310.9,178.5 300.4,178.5 
		300.4,168.6 310.9,168.6 310.9,164.5 295.6,164.5 295.6,197.2 313,197.2 	"/>
	<rect id="XMLID_2284_" x="179.8" y="226.7" class="st1" width="3.5" height="15.9"/>
	<polygon id="XMLID_2285_" class="st1" points="204.1,229.8 207.3,229.8 207.3,242.5 211.1,242.5 211.1,229.8 213.6,229.8 
		213.6,226.7 204.1,226.7 	"/>
	<polygon id="XMLID_2286_" class="st1" points="234.7,242.5 243.5,242.5 243.5,239.4 238.4,239.4 238.4,236.2 243.5,236.2 
		243.5,233 238.4,233 238.4,229.8 243.5,229.8 243.5,226.7 234.7,226.7 	"/>
	<rect id="XMLID_2287_" x="46.8" y="182.5" class="st1" width="9.2" height="56.2"/>
	<rect id="XMLID_2288_" x="46.9" y="156.8" class="st1" width="22.9" height="20.6"/>
	<rect id="XMLID_2289_" x="334.8" y="182.5" class="st1" width="9.3" height="56.2"/>
	<path id="XMLID_2290_" class="st1" d="M321,219.3c-123.7-26.2-227.2-5-251.1,0.6v-37.5h-9.2v56.2h9.2v-14.1
		c21.5-5.2,126-27.4,251.1-0.7v14.8h9.2v-56.2H321V219.3z"/>
	<rect id="XMLID_2291_" x="321.1" y="156.8" class="st1" width="23" height="20.6"/>
	<path id="XMLID_2292_" class="st1" d="M352.7,233.8c-0.3-0.6-0.8-1-1.3-1.3c-0.6-0.3-1.1-0.4-1.7-0.4c-0.6,0-1.2,0.1-1.7,0.4
		c-0.6,0.3-1,0.7-1.3,1.3c-0.3,0.6-0.5,1.2-0.5,1.8c0,0.6,0.2,1.2,0.5,1.8c0.3,0.6,0.7,1,1.3,1.3c0.6,0.3,1.2,0.5,1.8,0.5
		c0.6,0,1.2-0.1,1.8-0.5c0.6-0.3,1-0.7,1.3-1.3c0.3-0.6,0.5-1.2,0.5-1.8C353.2,234.9,353.1,234.3,352.7,233.8 M352.2,237
		c-0.3,0.4-0.6,0.8-1.1,1.1c-0.5,0.3-1,0.4-1.5,0.4c-0.5,0-1-0.1-1.5-0.4c-0.5-0.3-0.9-0.6-1.1-1.1c-0.3-0.5-0.4-1-0.4-1.5
		c0-0.5,0.1-1,0.4-1.5c0.3-0.5,0.6-0.8,1.1-1.1c0.5-0.3,1-0.4,1.5-0.4c0.5,0,1,0.1,1.5,0.4c0.5,0.3,0.8,0.6,1.1,1.1
		c0.3,0.5,0.4,1,0.4,1.5C352.6,236,352.5,236.5,352.2,237"/>
	<path id="XMLID_2295_" class="st1" d="M350.3,236c-0.1-0.1-0.2-0.2-0.3-0.2c0.3,0,0.6-0.1,0.8-0.4c0.2-0.2,0.3-0.4,0.3-0.7
		c0-0.2-0.1-0.4-0.2-0.6c-0.1-0.2-0.3-0.3-0.5-0.4c-0.2-0.1-0.5-0.1-1-0.1h-1.3v3.8h0.6v-1.6h0.4c0.2,0,0.4,0,0.5,0.1
		c0.2,0.1,0.4,0.4,0.6,0.9l0.4,0.6h0.7l-0.4-0.8C350.6,236.4,350.4,236.1,350.3,236 M349.5,235.3h-0.7v-1.1h0.7c0.3,0,0.5,0,0.6,0.1
		c0.1,0.1,0.2,0.1,0.3,0.2c0.1,0.1,0.1,0.2,0.1,0.3c0,0.2,0,0.3-0.2,0.4C350.1,235.3,349.9,235.3,349.5,235.3"/>
	<path id="XMLID_2298_" class="st1" d="M153.8,226.7v9.8c0,1.5-0.2,1.9-0.4,2.4c-0.3,0.6-1.1,0.9-1.7,0.9c-0.7,0-1.4-0.4-1.7-0.9
		c-0.2-0.5-0.4-0.9-0.4-2.4v-9.8h-3.3v9.8c0,1.5,0,3.2,1.4,4.6c1.3,1.3,2.6,2,4.1,2c1.5,0,2.8-0.6,4.1-2c1.4-1.4,1.4-3.1,1.4-4.6
		v-9.8H153.8z"/>
	<path id="XMLID_2299_" class="st1" d="M273.6,234.1c-0.7-0.7-1.7-1.2-2.9-1.8c-1.2-0.5-2-0.8-2.2-1.6c-0.1-0.4,0-0.8,0.2-1.1
		c0.3-0.4,0.7-0.5,1.2-0.4c0.6,0.1,1.2,0.6,1.3,1.4c0,0.1,0,0.3,0,0.4h3.6c0-1.2-0.5-2.7-1.4-3.6c-0.9-0.9-2.2-1.4-3.5-1.4
		c-3,0-4.9,1.8-4.9,4.7c0,1.2,0.6,2.4,1.3,3.1c0.7,0.6,1.9,1.3,3.2,1.9c1.2,0.6,2.2,1.1,2.2,2.3c0.1,1.6-1,2-1.7,2
		c-0.9,0-1.4-0.5-1.6-1c-0.2-0.4-0.3-1.1-0.3-1.6l-3.5,0l0,0.3c0.1,3.2,2.4,5.5,5.4,5.5c1.5,0,2.8-0.5,3.7-1.5
		c0.9-0.9,1.4-2.2,1.3-3.6C275.2,236.4,274.5,235,273.6,234.1"/>
	<path id="XMLID_2300_" class="st1" d="M122.7,234.1c-0.7-0.7-1.7-1.2-2.8-1.8c-1.2-0.5-2.1-0.8-2.2-1.6c-0.1-0.4,0.1-0.8,0.2-1.1
		c0.3-0.4,0.7-0.5,1.2-0.4c0.6,0.1,1.2,0.6,1.3,1.4c0,0.1,0,0.3,0,0.4h3.5c0-1.2-0.5-2.7-1.4-3.6c-0.9-0.9-2.2-1.4-3.5-1.4
		c-2.9,0-4.9,1.8-4.9,4.7c0,1.2,0.6,2.4,1.4,3.1c0.7,0.6,1.9,1.3,3.2,1.9c1.2,0.6,2.1,1.1,2.2,2.3c0.1,1.6-1,2-1.7,2
		c-0.9,0-1.4-0.5-1.6-1c-0.2-0.4-0.3-1.1-0.3-1.6l-3.5,0l0,0.3c0.1,3.2,2.5,5.5,5.4,5.5c1.5,0,2.8-0.5,3.7-1.5
		c0.9-0.9,1.4-2.2,1.4-3.6C124.3,236.4,123.6,235,122.7,234.1"/>
</g>
</svg>
