<svg width="171" height="37" viewBox="0 0 171 37" xmlns="http://www.w3.org/2000/svg"><path d="M7.425 9.634h4.833V7.312H.054v2.322h4.833V27.67h2.538zm9.153 5.886V7.312H14.04V27.67h2.538v-9.774h9.693v9.774h2.538V7.312h-2.538v8.208zm15.903 12.15h10.935v-2.322h-8.397v-7.695h8.154v-2.322h-8.154V9.634h8.397V7.312H32.481zM54.837 7.312h-2.754l8.451 21.168 5.751-14.931 5.751 14.931 8.451-21.168h-2.754l-5.697 14.58L66.285 6.88l-5.751 15.012zM92.556 17.41v2.322h5.265c-.108 3.321-3.51 6.048-6.669 6.048-4.401 0-7.911-4.05-7.911-8.316 0-4.563 3.564-8.262 8.127-8.262 2.484 0 4.941 1.323 6.399 3.321l1.782-1.701c-1.998-2.511-5.13-3.942-8.289-3.942-5.859 0-10.557 4.806-10.557 10.665 0 5.643 4.59 10.557 10.287 10.557 5.697 0 9.639-4.293 9.639-9.882v-.81zm10.233-10.098v12.879c0 4.482 2.781 7.911 7.452 7.911 4.671 0 7.452-3.429 7.452-7.911V7.312h-2.538v12.015c0 3.321-.999 6.399-4.914 6.399-3.915 0-4.914-3.078-4.914-6.399V7.312z" fill="#FFF"/></svg>