<svg width="278.667" height="15" viewBox="0 0 278.667 15" xmlns="http://www.w3.org/2000/svg"><path d="M5.445 9.521l.363 1.749h1.727L5.742 2.756H4.488L-.099 11.27h1.705l.957-1.749zm-.242-1.32H3.234l1.397-3.014h.022zm11.68 3.069h1.628l.11-8.514h-1.166l-2.827 5.467-1.177-5.467h-1.144l-2.75 8.514h1.628l1.551-5.148h.022l.979 5.258h.561l2.717-5.258h.022zm6.532-3.608h.264c.814 0 1.683.044 1.518 1.122-.176 1.078-.935 1.188-1.804 1.188h-.341zm-2.189 3.608h2.541c1.507 0 2.761-.726 3.025-2.354.143-.913-.143-1.903-1.089-2.079.572-.33.88-1.012.979-1.606.264-1.65-.594-2.255-2.134-2.255h-2.013zm2.728-6.996h.209c.682 0 1.133.22.99 1.067-.132.858-.55 1.089-1.342 1.089h-.198zm8.281-1.298h-1.617l-1.309 8.294h1.617zm5.652 1.408h1.672l.22-1.408h-4.961l-.22 1.408h1.672l-1.089 6.886h1.617zm6.103-1.408h-1.617l-1.309 8.294h1.617zm10.338 4.136c.385-2.464-.935-4.356-3.41-4.356s-4.411 1.892-4.796 4.356c-.385 2.442.88 4.378 3.41 4.378 2.53 0 4.411-1.936 4.796-4.378zm-1.661-.066c-.209 1.276-1.089 2.849-2.882 2.849-1.793 0-2.189-1.573-1.98-2.849.209-1.342 1.331-2.695 2.86-2.695s2.211 1.353 2.002 2.695zm3.793 4.224h1.617l.891-5.632h.022l3.454 5.797h1.166l1.331-8.459h-1.617l-.88 5.577h-.022l-3.443-5.797h-1.166zm15.528 0h1.617l.891-5.632h.022l3.454 5.797h1.166l1.331-8.459h-1.617l-.88 5.577h-.022l-3.443-5.797h-1.166zm15.728-6.886l.22-1.408h-4.29l-1.309 8.294h4.29l.22-1.408h-2.673l.363-2.244h2.574l.22-1.408h-2.574l.286-1.826zm4.288-1.408h-1.738l1.826 8.514h.946l4.565-8.514h-1.738l-2.728 5.588h-.022zm12.109 1.408l.22-1.408h-4.29l-1.309 8.294h4.29l.22-1.408h-2.673l.363-2.244h2.574l.22-1.408h-2.574l.286-1.826zm5.806 3.388c1.144-.187 1.892-1.243 2.057-2.299.286-1.771-.737-2.497-2.376-2.497h-2.189l-1.309 8.294h1.617l.528-3.344h.022l1.485 3.344h1.958zm-1.1-3.476h.22c.858 0 1.485.198 1.32 1.221-.165 1.012-.836 1.276-1.727 1.276h-.209zm14.417 3.476c1.144-.187 1.892-1.243 2.057-2.299.286-1.771-.737-2.497-2.376-2.497h-2.189l-1.309 8.294h1.617l.528-3.344h.022l1.485 3.344h1.958zm-1.1-3.476h.22c.858 0 1.485.198 1.32 1.221-.165 1.012-.836 1.276-1.727 1.276h-.209zm10.8.088l.22-1.408h-4.29l-1.309 8.294h4.29l.22-1.408h-2.673l.363-2.244h2.574l.22-1.408h-2.574l.286-1.826zm7.852-.704c-.418-.561-1.375-.924-2.112-.924-1.397 0-2.596 1.111-2.816 2.486-.209 1.287.495 1.826 1.485 2.266.616.253 1.364.495 1.232 1.353-.099.638-.605 1.199-1.265 1.199-.693 0-1.177-.572-1.298-1.21l-1.21 1.023c.418.957 1.155 1.617 2.299 1.617 1.694 0 2.915-1.177 3.179-2.838.44-2.783-2.948-2.2-2.728-3.597.088-.539.649-.935 1.166-.935.539 0 .891.264 1.133.682zm5.707.704h1.672l.22-1.408h-4.961l-.22 1.408h1.672l-1.089 6.886h1.617zm9.04-.704c-.418-.561-1.375-.924-2.112-.924-1.397 0-2.596 1.111-2.816 2.486-.209 1.287.495 1.826 1.485 2.266.616.253 1.364.495 1.232 1.353-.099.638-.605 1.199-1.265 1.199-.693 0-1.177-.572-1.298-1.21l-1.21 1.023c.418.957 1.155 1.617 2.299 1.617 1.694 0 2.915-1.177 3.179-2.838.44-2.783-2.948-2.2-2.728-3.597.088-.539.649-.935 1.166-.935.539 0 .891.264 1.133.682zm6.84-.704h-3.74l-.121.825h1.397l-.605 3.806h.946l.605-3.806h1.397zm6.336 0h-1.628l-1.595 3.025h-.022l-.605-3.025h-1.639l-.726 4.631h.946l.583-3.685h.022l.715 3.685h.913l1.925-3.685h.022l-.583 3.685h.946z" fill="#fff"/></svg>