<svg width="171" height="37" viewBox="0 0 171 37" xmlns="http://www.w3.org/2000/svg"><path d="M1.728 27.67h4.131c6.426 0 11.502-3.348 11.502-10.287 0-6.777-5.184-10.071-11.421-10.071H1.728zM4.266 9.634h.891c5.184 0 9.666 1.917 9.666 7.857 0 5.913-4.482 7.857-9.666 7.857h-.891zm18.09-2.322h-2.538V27.67h2.538zm13.635 2.322V7.312h-9.855V27.67h2.538v-9.99h7.074v-2.322h-7.074V9.634zm12.798 0V7.312h-9.855V27.67h2.538v-9.99h7.074v-2.322h-7.074V9.634zm2.97 18.036h10.935v-2.322h-8.397v-7.695h8.154v-2.322h-8.154V9.634h8.397V7.312H51.759zm20.304-8.856c2.943-.351 4.887-2.781 4.887-5.697 0-1.944-.972-3.861-2.673-4.86-1.62-.918-3.564-.945-5.373-.945h-3.078V27.67h2.538v-8.613h1.053l5.994 8.613h3.078zM68.364 9.58h.675c2.511 0 5.535.459 5.535 3.645 0 3.24-2.808 3.726-5.4 3.726h-.81zm12.123 18.09h10.935v-2.322h-8.397v-7.695h8.154v-2.322h-8.154V9.634h8.397V7.312H80.487zm13.824 0h2.538V12.496l15.282 16.011V7.312h-2.538v15.039L94.311 6.34zm36.261-19.413c-1.539-.945-3.348-1.377-5.13-1.377-5.994 0-10.827 4.698-10.827 10.719 0 5.886 4.806 10.503 10.611 10.503 1.782 0 3.78-.513 5.346-1.431v-2.997c-1.512 1.35-3.429 2.106-5.427 2.106-4.536 0-7.992-3.807-7.992-8.262 0-4.509 3.483-8.316 8.046-8.316 1.917 0 3.915.702 5.373 1.998zm3.024 19.413h10.935v-2.322h-8.397v-7.695h8.154v-2.322h-8.154V9.634h8.397V7.312h-10.935zm16.038-2.7c-.864 0-1.566.729-1.566 1.566a1.567 1.567 0 0 0 3.132 0c0-.837-.702-1.566-1.566-1.566z" fill="#FFF"/></svg>