<svg id="Layer_1" xmlns="http://www.w3.org/2000/svg" viewBox="0 0 118.8 26.15" width="100%" height="100%" preserveAspectRatio="none"><defs><style>.cls-1{fill:#fbfbfb;}</style></defs><path class="cls-1" d="M2.25,4.68a1.12,1.12,0,0,0-1-.78H0V.48H10.69V3.9H8.41l2.76,12h.07L15.07.48H19.6L23.41,16h.06l2.4-9.75c.39-1.56.16-2.3-1.19-2.3h-.91V.48h9.44V3.9h-1a1.42,1.42,0,0,0-1.24,1L26.23,23.23H19.8l-3.22-13h-.06l-3.22,13H6.87Z"/><path class="cls-1" d="M32.13,12c0-7.57,4.33-11.8,11.42-11.8a22.33,22.33,0,0,1,3.74.29h4.39V8H47.62L47,4.64a8.66,8.66,0,0,0-2.79-.42c-3.18,0-5.44,2.11-5.44,7.51,0,5.17,1.54,7.93,4.85,7.93A7.93,7.93,0,0,0,46,19.37v-4h-2V12.05h9.58V15.4H53a1.11,1.11,0,0,0-.92,1v6.85H48.9a1.14,1.14,0,0,0-.92-.68,10.62,10.62,0,0,1-4.76,1C36,23.53,32.13,19.46,32.13,12"/><path class="cls-1" d="M55.69,14.72V4.84a1.07,1.07,0,0,0-.92-.94H53.69V.48H64.41V3.9H62V15.08c0,3.44,1.41,4.51,4,4.51s4-1.07,4-4.51V3.9H67.56V.48h9.06V3.9H75.57a1.1,1.1,0,0,0-.92.94v9.88c0,5.75-3,8.77-9.38,8.77s-9.58-3-9.58-8.77"/><path class="cls-1" d="M114.4,6.75l-1.92,1.57h0a6.8,6.8,0,0,1-5.31,11.14,6.91,6.91,0,0,1-4.72-1.86V14.8a5,5,0,1,0,6.6-6.72l.07,0a12.71,12.71,0,0,0,1.66-.93l8-6.53a17.19,17.19,0,0,0-6.75-.44,25.34,25.34,0,0,0-5.62,1.52,15.56,15.56,0,0,0-7-1.36,15.53,15.53,0,0,0-7,1.36A25.34,25.34,0,0,0,86.91.15a17.25,17.25,0,0,0-6.76.44l8,6.53a13.64,13.64,0,0,0,1.66.93l.11,0A5,5,0,0,0,92,17.66a5.08,5.08,0,0,0,4.44-2.61V10.28s0-.06,0-.08v0a1.51,1.51,0,0,1,3,0v0h0V21.81L96.56,19,96,18.38c-.95.91-2.07,1.08-3.8,1.08a6.84,6.84,0,0,1-6.87-6.81,5.5,5.5,0,0,1,1.35-4.13L84.76,7a8.2,8.2,0,0,0-1.93,5.7,9.33,9.33,0,0,0,9.36,9.28,12.4,12.4,0,0,0,2.47-.2c1.25,1.12,5,4.42,5,4.42l5.11-4.56a9.44,9.44,0,0,0,2.43.34A9.26,9.26,0,0,0,114.4,6.75Zm-7.32,2.88a3.13,3.13,0,0,1,1.43.37l-.21,0A1.68,1.68,0,1,0,110,11.83a3,3,0,0,1,.12.79,3,3,0,1,1-3-3Zm-15,6a3,3,0,1,1,0-6A3.13,3.13,0,0,1,93.5,10l-.21,0A1.68,1.68,0,1,0,95,11.83a3,3,0,0,1,.12.79A3,3,0,0,1,92.07,15.61Z"/><path class="cls-1" d="M114.35,22.2a1.29,1.29,0,1,1,1.29,1.29A1.28,1.28,0,0,1,114.35,22.2Zm.28,0a1,1,0,1,0,1-1A1,1,0,0,0,114.63,22.2Zm1.6.66h-.3l-.32-.53h-.23v.53h-.28V21.52h.65c.31,0,.52.05.52.41a.35.35,0,0,1-.36.4Zm-.47-.78c.15,0,.24,0,.24-.17s-.18-.15-.31-.15h-.31v.32Z"/></svg>