<svg width="193.333" height="50" viewBox="0 0 193.333 50" xmlns="http://www.w3.org/2000/svg"><path d="M5.775 5.402h3.759V3.596H.042v1.806h3.759V19.43h1.974zm7.245 12.684c-1.995 0-3.108-1.722-3.108-3.57 0-1.827 1.155-3.528 3.108-3.528 2.037 0 3.192 1.617 3.192 3.528 0 1.932-1.134 3.57-3.192 3.57zm4.977-8.484h-1.89v1.638h-.042c-.777-1.176-1.953-1.932-3.402-1.932-2.856 0-4.641 2.457-4.641 5.145 0 2.814 1.701 5.313 4.704 5.313 1.407 0 2.583-.756 3.339-1.869h.042v1.533h1.89zm4.473-8.4h-1.89V19.43h1.89v-3.822l.651-.651 3.507 4.473h2.457l-4.62-5.754 4.2-4.074h-2.499l-3.696 3.696zm16.317 13.629v-.294c0-2.919-1.47-5.229-4.599-5.229-3.171 0-4.788 2.268-4.788 5.292 0 2.898 1.827 5.166 4.83 5.166 1.911 0 3.633-.987 4.557-2.688l-1.596-.903c-.714 1.176-1.491 1.911-2.94 1.911-1.806 0-2.94-1.575-2.961-3.255zm-7.392-1.428c.231-1.407 1.323-2.457 2.793-2.457 1.512 0 2.478.987 2.709 2.457zm19.32 4.683c-1.995 0-3.108-1.722-3.108-3.57 0-1.827 1.155-3.528 3.108-3.528 2.037 0 3.192 1.617 3.192 3.528 0 1.932-1.134 3.57-3.192 3.57zm4.977-8.484h-1.89v1.638h-.042c-.777-1.176-1.953-1.932-3.402-1.932-2.856 0-4.641 2.457-4.641 5.145 0 2.814 1.701 5.313 4.704 5.313 1.407 0 2.583-.756 3.339-1.869h.042v1.533h1.89zm7.938 1.428c-.525-1.071-1.491-1.722-2.688-1.722-1.596 0-2.898 1.26-2.898 2.856 0 1.344.798 1.89 1.89 2.478l1.848.987c.441.294.693.546.693 1.071 0 .84-.693 1.386-1.491 1.386-.903 0-1.386-.525-1.785-1.26l-1.617.735c.525 1.386 1.974 2.205 3.402 2.205 1.827 0 3.381-1.386 3.381-3.255 0-1.554-1.113-2.268-2.268-2.793-1.155-.525-2.289-.903-2.289-1.764 0-.546.504-.966 1.029-.966.546 0 1.029.378 1.26.861zm10.479-1.428h-1.89v9.828h1.89V14.6c0-1.533.168-3.612 2.184-3.612 1.743 0 1.806 1.953 1.806 3.234v5.208h1.89V14.6c0-1.512.147-3.612 2.163-3.612 1.659 0 1.827 1.617 1.827 2.877v5.565h1.89v-5.88c0-2.226-.672-4.242-3.255-4.242a3.546 3.546 0 0 0-3.024 1.743c-.63-1.092-1.554-1.743-2.835-1.743-1.071 0-2.058.672-2.604 1.533h-.042zm18.522 8.484c-1.995 0-3.108-1.722-3.108-3.57 0-1.827 1.155-3.528 3.108-3.528 2.037 0 3.192 1.617 3.192 3.528 0 1.932-1.134 3.57-3.192 3.57zm4.977-8.484h-1.89v1.638h-.042c-.777-1.176-1.953-1.932-3.402-1.932-2.856 0-4.641 2.457-4.641 5.145 0 2.814 1.701 5.313 4.704 5.313 1.407 0 2.583-.756 3.339-1.869h.042v1.533h1.89zm4.347 0h-1.89v9.828h1.89v-4.515c0-1.785 0-3.927 2.436-3.927 1.932 0 2.163 1.134 2.163 2.814v5.628h1.89v-5.859c0-2.394-.714-4.263-3.486-4.263-1.197 0-2.373.567-2.961 1.617h-.042zm12.012 8.148l-3.864 7.308h2.142l7.959-15.456h-2.121l-3.087 6.237-3.318-6.237h-2.205zm20.538-7.791c-.756-.441-1.722-.651-2.604-.651-3.024 0-5.376 2.247-5.376 5.292 0 2.94 2.373 5.166 5.271 5.166.987 0 1.848-.189 2.709-.651V16.7c-.714.798-1.596 1.302-2.688 1.302-1.995 0-3.402-1.47-3.402-3.486 0-1.806 1.428-3.444 3.276-3.444 1.134 0 2.058.462 2.814 1.323zm6.405-.651c-2.94 0-5.25 2.268-5.25 5.229 0 2.961 2.31 5.229 5.25 5.229s5.25-2.268 5.25-5.229c0-2.961-2.31-5.229-5.25-5.229zm0 1.806c1.869 0 3.36 1.554 3.36 3.423 0 1.848-1.491 3.423-3.36 3.423-1.869 0-3.36-1.575-3.36-3.423 0-1.869 1.491-3.423 3.36-3.423zm6.888-1.512v5.649c0 2.688 1.26 4.515 4.158 4.515 2.898 0 4.158-1.827 4.158-4.515V9.602h-1.89v5.439c0 1.575-.399 2.961-2.268 2.961-1.869 0-2.268-1.386-2.268-2.961V9.602zm12.852 0h-1.89v9.828h1.89V14.6c0-1.596.252-3.486 2.289-3.486.441 0 .819.105 1.155.399l.861-1.722c-.462-.294-1.008-.483-1.554-.483-1.26 0-2.226.735-2.688 1.89h-.063zm10.836 1.428c-.525-1.071-1.491-1.722-2.688-1.722-1.596 0-2.898 1.26-2.898 2.856 0 1.344.798 1.89 1.89 2.478l1.848.987c.441.294.693.546.693 1.071 0 .84-.693 1.386-1.491 1.386-.903 0-1.386-.525-1.785-1.26l-1.617.735c.525 1.386 1.974 2.205 3.402 2.205 1.827 0 3.381-1.386 3.381-3.255 0-1.554-1.113-2.268-2.268-2.793-1.155-.525-2.289-.903-2.289-1.764 0-.546.504-.966 1.029-.966.546 0 1.029.378 1.26.861zm11.214 3.801v-.294c0-2.919-1.47-5.229-4.599-5.229-3.171 0-4.788 2.268-4.788 5.292 0 2.898 1.827 5.166 4.83 5.166 1.911 0 3.633-.987 4.557-2.688l-1.596-.903c-.714 1.176-1.491 1.911-2.94 1.911-1.806 0-2.94-1.575-2.961-3.255zm-7.392-1.428c.231-1.407 1.323-2.457 2.793-2.457 1.512 0 2.478.987 2.709 2.457zm14.49-2.373c-.525-1.071-1.491-1.722-2.688-1.722-1.596 0-2.898 1.26-2.898 2.856 0 1.344.798 1.89 1.89 2.478l1.848.987c.441.294.693.546.693 1.071 0 .84-.693 1.386-1.491 1.386-.903 0-1.386-.525-1.785-1.26l-1.617.735c.525 1.386 1.974 2.205 3.402 2.205 1.827 0 3.381-1.386 3.381-3.255 0-1.554-1.113-2.268-2.268-2.793-1.155-.525-2.289-.903-2.289-1.764 0-.546.504-.966 1.029-.966.546 0 1.029.378 1.26.861z" fill="#fff"/></svg>