<svg width="193.333" height="50" viewBox="0 0 193.333 50" xmlns="http://www.w3.org/2000/svg"><path d="M5.544 43.286c-1.995 0-3.108-1.722-3.108-3.57 0-1.827 1.155-3.528 3.108-3.528 2.037 0 3.192 1.617 3.192 3.528 0 1.932-1.134 3.57-3.192 3.57zm4.977-8.484h-1.89v1.638h-.042c-.777-1.176-1.953-1.932-3.402-1.932-2.856 0-4.641 2.457-4.641 5.145 0 2.814 1.701 5.313 4.704 5.313 1.407 0 2.583-.756 3.339-1.869h.042v1.533h1.89zm7.938 1.428c-.525-1.071-1.491-1.722-2.688-1.722-1.596 0-2.898 1.26-2.898 2.856 0 1.344.798 1.89 1.89 2.478l1.848.987c.441.294.693.546.693 1.071 0 .84-.693 1.386-1.491 1.386-.903 0-1.386-.525-1.785-1.26l-1.617.735c.525 1.386 1.974 2.205 3.402 2.205 1.827 0 3.381-1.386 3.381-3.255 0-1.554-1.113-2.268-2.268-2.793-1.155-.525-2.289-.903-2.289-1.764 0-.546.504-.966 1.029-.966.546 0 1.029.378 1.26.861zm11.571 6.72l-3.864 7.308h2.142l7.959-15.456h-2.121l-3.087 6.237-3.318-6.237h-2.205zm11.613-8.442c-2.94 0-5.25 2.268-5.25 5.229 0 2.961 2.31 5.229 5.25 5.229s5.25-2.268 5.25-5.229c0-2.961-2.31-5.229-5.25-5.229zm0 1.806c1.869 0 3.36 1.554 3.36 3.423 0 1.848-1.491 3.423-3.36 3.423-1.869 0-3.36-1.575-3.36-3.423 0-1.869 1.491-3.423 3.36-3.423zm6.888-1.512v5.649c0 2.688 1.26 4.515 4.158 4.515 2.898 0 4.158-1.827 4.158-4.515v-5.649h-1.89v5.439c0 1.575-.399 2.961-2.268 2.961-1.869 0-2.268-1.386-2.268-2.961v-5.439zm24.129.357c-.756-.441-1.722-.651-2.604-.651-3.024 0-5.376 2.247-5.376 5.292 0 2.94 2.373 5.166 5.271 5.166.987 0 1.848-.189 2.709-.651V41.9c-.714.798-1.596 1.302-2.688 1.302-1.995 0-3.402-1.47-3.402-3.486 0-1.806 1.428-3.444 3.276-3.444 1.134 0 2.058.462 2.814 1.323zm6.279 8.127c-1.995 0-3.108-1.722-3.108-3.57 0-1.827 1.155-3.528 3.108-3.528 2.037 0 3.192 1.617 3.192 3.528 0 1.932-1.134 3.57-3.192 3.57zm4.977-8.484h-1.89v1.638h-.042c-.777-1.176-1.953-1.932-3.402-1.932-2.856 0-4.641 2.457-4.641 5.145 0 2.814 1.701 5.313 4.704 5.313 1.407 0 2.583-.756 3.339-1.869h.042v1.533h1.89zm4.347 0h-1.89v9.828h1.89v-4.515c0-1.785 0-3.927 2.436-3.927 1.932 0 2.163 1.134 2.163 2.814v5.628h1.89v-5.859c0-2.394-.714-4.263-3.486-4.263-1.197 0-2.373.567-2.961 1.617h-.042zm10.521 2.31v1.575h15.54v-1.575z" fill="#fff"/></svg>