<?xml version="1.0" encoding="UTF-8"?>
<svg width="141px" height="77px" viewBox="0 0 141 77" version="1.1" xmlns="http://www.w3.org/2000/svg" xmlns:xlink="http://www.w3.org/1999/xlink">
    <!-- Generator: Sketch 57.1 (83088) - https://sketch.com -->
    <title>Artboard</title>
    <desc>Created with Sketch.</desc>
    <defs>
        <polygon id="path-1" points="0 1 28 1 28 45 0 45"></polygon>
        <polygon id="path-3" points="0 1 28 1 28 45 0 45"></polygon>
        <polygon id="path-5" points="0 0 16 0 16 19 0 19"></polygon>
        <polygon id="path-7" points="1 0 7 0 7 6 1 6"></polygon>
    </defs>
    <g id="Artboard" stroke="none" stroke-width="1" fill="none" fill-rule="evenodd">
        <polygon id="Fill-1" fill="#626262" points="20 52 24.4433944 52 29.3981099 61.8257585 29.3981099 52 34 52 34 71 29.7919374 71 24.6008565 60.7127072 24.6008565 71 20 71"></polygon>
        <polygon id="Fill-2" fill="#626262" points="42.1045896 63.5084141 37 52 41.9473612 52 44.5390491 59.1112762 47.169958 52 52 52 46.8950664 63.5084141 46.8950664 71 42.1045896 71"></polygon>
        <polygon id="Fill-3" fill="#626262" points="58.5099097 55.1481388 55 55.1481388 55 52 67 52 67 55.1481388 63.4904479 55.1481388 63.4904479 71 58.5099097 71"></polygon>
        <polygon id="Fill-4" fill="#626262" points="71 52 75.8798658 52 75.8798658 59.8712073 80.1201342 59.8712073 80.1201342 52 85 52 85 71 80.1201342 71 80.1201342 63.0200344 75.8798658 63.0200344 75.8798658 71 71 71"></polygon>
        <polygon id="Fill-5" fill="#626262" points="90 71 95 71 95 52 90 52"></polygon>
        <polygon id="Fill-6" fill="#626262" points="101 52 105.443394 52 110.39811 61.8257585 110.39811 52 115 52 115 71 110.791937 71 105.600856 60.7127072 105.600856 71 101 71"></polygon>
        <path d="M120,61.8168786 L120,61.1831214 C120,55.114244 123.840134,52 129.359736,52 C130.839784,52 132.080108,52.2114755 133.080008,52.5276848 L133.080008,55.8791695 C131.879638,55.4043535 130.79983,55.0874749 129.519902,55.0874749 C126.719621,55.0874749 124.959545,56.9609735 124.959545,61.0512839 L124.959545,61.9487161 C124.959545,66.8835899 127.119161,68.0182628 129.119662,68.0182628 C129.279828,68.0182628 129.319431,68.0182628 129.559505,67.9918284 L129.559505,63.136258 L127.159816,63.136258 L127.159816,60.2599239 L134,60.2599239 L134,70.2086401 C132.239573,70.7095558 130.79983,71 128.919541,71 C124.039904,71 120,68.3612412 120,61.8168786" id="Fill-7" fill="#626262"></path>
        <path d="M83.0212542,10.1019271 L78.6069135,10.1019271 C77.1673479,10.1019271 76,8.97988704 76,7.59585802 L76,1 L97.3927362,1 C98.8326521,1 100,2.12170333 100,3.50573235 L100,10.1019271 L92.9797968,10.1019271 L92.9797968,45 L83.0212542,45 L83.0212542,10.1019271 Z" id="Fill-9" fill="#D4451D"></path>
        <g id="Group-13" transform="translate(42.000000, 0.000000)">
            <mask id="mask-2" fill="white">
                <use xlink:href="#path-1"></use>
            </mask>
            <g id="Clip-12"></g>
            <path d="M16.7806385,36.0072157 L11.2193615,36.0072157 C10.5139032,36.0072157 9.94198421,35.446303 9.94198421,34.7540842 L9.94198421,1 L0,1 L0,42.494747 C0,43.8781746 1.14383797,45 2.55509784,45 L25.4449022,45 C26.856162,45 28,43.8781746 28,42.494747 L28,1 L18.0580158,1 L18.0580158,34.7540842 C18.0580158,35.446303 17.4860968,36.0072157 16.7806385,36.0072157" id="Fill-11" fill="#D4451D" mask="url(#mask-2)"></path>
        </g>
        <g id="Group-16" transform="translate(106.000000, 0.000000)">
            <mask id="mask-4" fill="white">
                <use xlink:href="#path-3"></use>
            </mask>
            <g id="Clip-15"></g>
            <path d="M11.2193615,9.99490304 L16.7806385,9.99490304 C17.4860968,9.99490304 18.0580158,10.5559059 18.0580158,11.2478992 L18.0580158,34.7601824 C18.0580158,35.4525125 17.4860968,36.0131786 16.7806385,36.0131786 L11.2193615,36.0131786 C10.5139032,36.0131786 9.94198421,35.4525125 9.94198421,34.7601824 L9.94198421,11.2478992 C9.94198421,10.5559059 10.5139032,9.99490304 11.2193615,9.99490304 M0,3.50565564 L0,42.4940076 C0,43.8779943 1.14383797,45 2.55509784,45 L25.4449022,45 C26.856162,45 28,43.8779943 28,42.4940076 L28,28.2150368 L28,3.50565564 C28,2.12200572 26.856162,1 25.4449022,1 L2.55509784,1 C1.14383797,1 0,2.12200572 0,3.50565564" id="Fill-14" fill="#D4451D" mask="url(#mask-4)"></path>
        </g>
        <g id="Group-19" fill="#D4451D">
            <path d="M18.3353751,1.47059724 L0.2324693,40.4560796 C-0.538482789,42.1160184 0.702343585,44 2.56668349,44 L18.4900478,44 L18.4900478,35.0241348 L14.6115181,35.0241348 C14.1499114,35.0241348 13.8422884,34.5571822 14.0338207,34.1458193 L21.9324626,17.1559571 C22.2152828,16.5478407 23.1453859,16.7449311 23.1453859,17.4126799 L23.1453859,44 L33,44 L33,0 L20.6695893,0 C19.6637001,0 18.7511656,0.575099541 18.3353751,1.47059724" id="Fill-17"></path>
        </g>
        <g id="Group-22" transform="translate(0.000000, 52.000000)">
            <mask id="mask-6" fill="white">
                <use xlink:href="#path-5"></use>
            </mask>
            <g id="Clip-21"></g>
            <path d="M9.41405559,12.2604007 L7.9189237,6.00852647 L6.3834307,12.2604007 L9.41405559,12.2604007 Z M5.37369446,0 L10.6263055,0 L16,19 L11.070986,19 L10.141618,15.237549 L5.65657639,15.237549 L4.76756948,19 L0,19 L5.37369446,0 Z" id="Fill-20" fill="#626262" mask="url(#mask-6)"></path>
        </g>
        <g id="Group-25" transform="translate(134.000000, 71.000000)">
            <mask id="mask-8" fill="white">
                <use xlink:href="#path-7"></use>
            </mask>
            <g id="Clip-24"></g>
            <path d="M3.83504034,2.93358568 C4.18899125,2.93358568 4.44887567,2.76806607 4.44887567,2.41982106 L4.44887567,2.38644184 C4.44887567,1.9889883 4.16564628,1.88953889 3.81135206,1.88953889 L3.66956571,1.88953889 L3.66956571,2.93358568 L3.83504034,2.93358568 Z M2.86622418,1.35925671 L3.83504034,1.35925671 C4.73244836,1.35925671 5.29925044,1.7071576 5.29925044,2.36992429 L5.29925044,2.41982106 C5.29925044,2.83413627 5.01567775,3.11596696 4.68507181,3.26531315 L5.37031527,4.54163799 L4.49625222,4.54163799 L3.90576186,3.44735031 L3.66956571,3.44735031 L3.66956571,4.54163799 L2.86622418,4.54163799 L2.86622418,1.35925671 Z M6.40950964,3.13248451 L6.40950964,2.86751549 C6.40950964,1.39229181 5.51175831,0.38128011 3.99982835,0.38128011 C2.48824169,0.38128011 1.59083367,1.39229181 1.59083367,2.86751549 L1.59083367,3.13248451 C1.59083367,4.60770819 2.48824169,5.61906401 3.99982835,5.61906401 C5.51175831,5.61906401 6.40950964,4.60770819 6.40950964,3.13248451 L6.40950964,3.13248451 Z M1,3.13248451 L1,2.86751549 C1,1.12697866 2.22835727,0 3.99982835,0 C5.77198604,0 7,1.12697866 7,2.86751549 L7,3.13248451 C7,4.87302134 5.77198604,6 3.99982835,6 C2.22835727,6 1,4.87302134 1,3.13248451 L1,3.13248451 Z" id="Fill-23" fill="#626262" mask="url(#mask-8)"></path>
        </g>
    </g>
</svg>