<svg width="150.667" height="25" viewBox="0 0 150.667 25" xmlns="http://www.w3.org/2000/svg"><path d="M6.174 1.202A3.53 3.53 0 0 0 4.851.95C2.415.95 1.68 2.672 1.68 4.814v4.788H.819v1.764h.861v8.064h1.89v-8.064h2.604V9.602H3.57V5.381c0-.966 0-2.667 1.344-2.667.399 0 .882.231 1.26.399zm5.271 8.106c-2.94 0-5.25 2.268-5.25 5.229 0 2.961 2.31 5.229 5.25 5.229s5.25-2.268 5.25-5.229c0-2.961-2.31-5.229-5.25-5.229zm0 1.806c1.869 0 3.36 1.554 3.36 3.423 0 1.848-1.491 3.423-3.36 3.423-1.869 0-3.36-1.575-3.36-3.423 0-1.869 1.491-3.423 3.36-3.423zm8.988-1.512h-1.89v9.828h1.89V14.6c0-1.596.252-3.486 2.289-3.486.441 0 .819.105 1.155.399l.861-1.722c-.462-.294-1.008-.483-1.554-.483-1.26 0-2.226.735-2.688 1.89h-.063zm15.792-.294c-2.94 0-5.25 2.268-5.25 5.229 0 2.961 2.31 5.229 5.25 5.229s5.25-2.268 5.25-5.229c0-2.961-2.31-5.229-5.25-5.229zm0 1.806c1.869 0 3.36 1.554 3.36 3.423 0 1.848-1.491 3.423-3.36 3.423-1.869 0-3.36-1.575-3.36-3.423 0-1.869 1.491-3.423 3.36-3.423zm8.862-1.512h-1.89v9.828h1.89v-4.515c0-1.785 0-3.927 2.436-3.927 1.932 0 2.163 1.134 2.163 2.814v5.628h1.89v-5.859c0-2.394-.714-4.263-3.486-4.263-1.197 0-2.373.567-2.961 1.617h-.042zm17.724 5.229v-.294c0-2.919-1.47-5.229-4.599-5.229-3.171 0-4.788 2.268-4.788 5.292 0 2.898 1.827 5.166 4.83 5.166 1.911 0 3.633-.987 4.557-2.688l-1.596-.903c-.714 1.176-1.491 1.911-2.94 1.911-1.806 0-2.94-1.575-2.961-3.255zm-7.392-1.428c.231-1.407 1.323-2.457 2.793-2.457 1.512 0 2.478.987 2.709 2.457zm19.95-12.201A3.53 3.53 0 0 0 74.046.95c-2.436 0-3.171 1.722-3.171 3.864v4.788h-.861v1.764h.861v8.064h1.89v-8.064h2.604V9.602h-2.604V5.381c0-.966 0-2.667 1.344-2.667.399 0 .882.231 1.26.399zm2.877 0h-1.89V19.43h1.89zm6.93 16.884c-1.995 0-3.108-1.722-3.108-3.57 0-1.827 1.155-3.528 3.108-3.528 2.037 0 3.192 1.617 3.192 3.528 0 1.932-1.134 3.57-3.192 3.57zm4.977-8.484h-1.89v1.638h-.042c-.777-1.176-1.953-1.932-3.402-1.932-2.856 0-4.641 2.457-4.641 5.145 0 2.814 1.701 5.313 4.704 5.313 1.407 0 2.583-.756 3.339-1.869h.042v1.533h1.89zm4.62 1.764h1.848V9.602h-1.848V5.843h-1.89v3.759h-1.029v1.764h1.029v8.064h1.89zm10.962-1.764h-1.89v9.828h1.89V14.6c0-1.596.252-3.486 2.289-3.486.441 0 .819.105 1.155.399l.861-1.722c-.462-.294-1.008-.483-1.554-.483-1.26 0-2.226.735-2.688 1.89h-.063zm9.597 8.484c-1.995 0-3.108-1.722-3.108-3.57 0-1.827 1.155-3.528 3.108-3.528 2.037 0 3.192 1.617 3.192 3.528 0 1.932-1.134 3.57-3.192 3.57zm4.977-8.484h-1.89v1.638h-.042c-.777-1.176-1.953-1.932-3.402-1.932-2.856 0-4.641 2.457-4.641 5.145 0 2.814 1.701 5.313 4.704 5.313 1.407 0 2.583-.756 3.339-1.869h.042v1.533h1.89zm4.62 1.764h1.848V9.602h-1.848V5.843h-1.89v3.759h-1.029v1.764h1.029v8.064h1.89zm11.508 3.465v-.294c0-2.919-1.47-5.229-4.599-5.229-3.171 0-4.788 2.268-4.788 5.292 0 2.898 1.827 5.166 4.83 5.166 1.911 0 3.633-.987 4.557-2.688l-1.596-.903c-.714 1.176-1.491 1.911-2.94 1.911-1.806 0-2.94-1.575-2.961-3.255zm-7.392-1.428c.231-1.407 1.323-2.457 2.793-2.457 1.512 0 2.478.987 2.709 2.457zm10.752 3.927c-.672 0-1.218.567-1.218 1.218a1.219 1.219 0 0 0 2.436 0c0-.651-.546-1.218-1.218-1.218z" fill="#FFF"/></svg>