<?xml version="1.0" encoding="utf-8"?>
<!-- Generator: Adobe Illustrator 23.0.6, SVG Export Plug-In . SVG Version: 6.00 Build 0)  -->
<svg version="1.1" id="Layer_1" xmlns="http://www.w3.org/2000/svg" xmlns:xlink="http://www.w3.org/1999/xlink" x="0px" y="0px"
	 viewBox="0 0 96 48" style="enable-background:new 0 0 96 48;" xml:space="preserve">
<style type="text/css">
	.st0{fill-rule:evenodd;clip-rule:evenodd;fill:#85C150;stroke:#D1E97A;stroke-width:4.2;}
	.st1{fill:none;stroke:#85C150;stroke-width:2.8;}
	.st2{fill-rule:evenodd;clip-rule:evenodd;fill:#D1E97A;}
	.st3{fill-rule:evenodd;clip-rule:evenodd;fill:#D1E97A;stroke:#85C150;stroke-width:4.2;}
	.st4{fill:none;stroke:#D1E97A;stroke-width:2.8;}
	.st5{fill-rule:evenodd;clip-rule:evenodd;fill:#85C150;}
	.st6{filter:url(#currency-illustration-c);}
	.st7{fill-rule:evenodd;clip-rule:evenodd;}
	.st8{fill-rule:evenodd;clip-rule:evenodd;fill:#DA9429;}
	.st9{fill-rule:evenodd;clip-rule:evenodd;fill:#FFD985;}
	.st10{fill:none;stroke:#FFD985;stroke-width:1.89;stroke-linecap:round;stroke-linejoin:round;}
	.st11{fill:#DA9429;}
</style>
<filter  filterUnits="objectBoundingBox" height="140.8%" id="currency-illustration-c" width="141.7%" x="-13.3%" y="-16.7%">
	<feOffset  dx="2" dy="1" in="SourceAlpha" result="shadowOffsetOuter1"></feOffset>
	<feGaussianBlur  in="shadowOffsetOuter1" result="shadowBlurOuter1" stdDeviation="1.5"></feGaussianBlur>
	<feColorMatrix  in="shadowBlurOuter1" values="0 0 0 0 0   0 0 0 0 0   0 0 0 0 0  0 0 0 0.317312 0"></feColorMatrix>
</filter>
<g transform="translate(25 .5)">
	<g transform="rotate(-29 24.316 20.533)">
		<path class="st0" d="M12,13.7c-0.4,0-0.7,0.3-0.7,0.7l-0.1,17.5c0,0,0,0,0,0c0,0.4,0.3,0.7,0.7,0.7l35.8-0.2
			c0.4,0,0.7-0.3,0.7-0.7l0.1-17.5c0,0,0,0,0,0c0-0.4-0.3-0.7-0.7-0.7L12,13.7z"/>
		<path class="st1" d="M12,13c-0.8,0-1.4,0.6-1.4,1.4l-0.1,17.5c0,0,0,0,0,0c0,0.8,0.6,1.4,1.4,1.4L47.7,33c0.8,0,1.4-0.6,1.4-1.4
			l0.1-17.5c0,0,0,0,0,0c0-0.8-0.6-1.4-1.4-1.4L12,13z"/>
	</g>
	<ellipse class="st2" cx="30.3" cy="19.7" rx="4.4" ry="4.5"/>
	<g>
		<path class="st3" d="M26.5,25.5c-0.4,0-0.7,0.3-0.7,0.7v17.5c0,0.4,0.3,0.7,0.7,0.7h35.7c0.4,0,0.7-0.3,0.7-0.7V26.2
			c0-0.4-0.3-0.7-0.7-0.7H26.5z"/>
		<path class="st4" d="M26.5,24.8c-0.8,0-1.4,0.6-1.4,1.4v17.5c0,0.8,0.6,1.4,1.4,1.4h35.7c0.8,0,1.4-0.6,1.4-1.4V26.2
			c0-0.8-0.6-1.4-1.4-1.4H26.5z"/>
	</g>
	<ellipse class="st5" cx="44.3" cy="34.6" rx="4.4" ry="4.5"/>
</g>
<g transform="translate(0 15.5)">
	<g class="st6">
		<ellipse id="currency-illustration-d_1_" class="st7" cx="36.8" cy="16.7" rx="13.2" ry="13.5"/>
	</g>
	<g>
		<ellipse class="st8" cx="36.8" cy="16.7" rx="13.2" ry="13.5"/>
	</g>
	<ellipse class="st9" cx="32.8" cy="16.3" rx="13.6" ry="13.8"/>
	<path class="st10" d="M17.2,0.7l1.9,4 M10.8,6.6l3.9,1.8 M11.3,15.5l3.8-1.8"/>
	<path class="st11" d="M37.5,14.3c0,0.2-0.1,0.4-0.4,0.4h-2c-0.2,0-0.3-0.1-0.4-0.3c-0.2-1.1-0.9-1.6-2.2-1.6c-1.2,0-2,0.5-2,1.3
		c0,0.6,0.5,1,1.6,1.2l1.5,0.3c2.5,0.5,3.8,1.6,3.8,3.5c0,2-1.4,3.5-3.6,3.9v1.6c0,0.2-0.2,0.4-0.4,0.4h-1.8c-0.2,0-0.4-0.2-0.4-0.4
		V23c-2.4-0.4-3.9-2-4.1-4.3c0-0.2,0.2-0.4,0.4-0.4h2c0.2,0,0.3,0.1,0.4,0.3c0.2,1.2,1.2,1.9,2.7,1.9c1.2,0,1.9-0.5,1.9-1.2
		c0-0.5-0.4-0.9-1.4-1.1l-1.9-0.4c-2.4-0.4-3.6-1.7-3.6-3.6c0-2,1.4-3.5,3.6-3.9V8.8c0-0.2,0.2-0.4,0.4-0.4h1.8
		c0.2,0,0.4,0.2,0.4,0.4v1.6C35.9,10.9,37.3,12.2,37.5,14.3z"/>
</g>
</svg>
