<svg xmlns="http://www.w3.org/2000/svg" xmlns:xlink="http://www.w3.org/1999/xlink" width="1000" height="1000"><style><![CDATA[.B{fill:#FFF}.C{fill:#FDD0CC}.D{fill:#FFDAD9}.E{fill-rule:nonzero}.F{fill:#D5D8DF}.G{fill:#664C1A}.H{fill:#3E266A}.I{fill:#FFD88A}.J{fill:#E9B44E}.K{fill:#4B2D81}.L{fill:#0B5CA0}.M{fill:#3B9BED}.N{stroke-linecap:round}.O{stroke-width:2}.P{fill:#97CEFD}.Q{fill:#B07FEF}.R{fill:#0B5FA2}.S{fill:#D4D8E1}.T{fill:#F8F9FB}.U{fill:#C3912F}.V{stroke-linejoin:round}]]></style><defs><path id="A" d="M74 2L61 1c-9 1-21 1-33 8L1 159a19 19 0 0 0 16 23c19 2 32 4 39 3 14 0 20 2 32-7a552 552 0 0 0 2-160c-1-8-8-15-16-16z"/><path id="B" d="M4 3c16 9 27 8 32-3 13 4 23 8 29 14l1 3-3 3H1V10l3-7z"/><path id="C" d="M5 2c19 10 29 10 32-2 13 3 23 7 29 13v6H1L2 9l3-7z"/><path id="D" d="M7 3c1 23 3 41 8 53 4 11 16 22 22 33 16 31 26 53 30 65-7 24-7 45 0 65 7 19 9 34 4 47 7 5 15 4 25-2V159c3-17 3-32 0-43-4-11-12-45-24-102L7 3z"/><path id="E" d="M104 6L93 2C78-1 58 2 36 18 19 36 8 55 2 75c-1 2-3 5 1 6l26 10c3 0 5-1 6-3l8-16c-16 36-23 70-20 102 35 12 64 8 87-10-1-36 1-64 4-84 2-13 7-29 4-46 0-4-2-11-6-19-2-4-4-7-8-9z"/></defs><g fill="none" fill-rule="evenodd"><path d="M320 846h-57c-23 0-44-13-55-33-7-14-22-26-44-37-57-29-113-103-87-190s44-133 197-212 14-219 170-285c155-67 129 114 259 112 131-3 199-7 157 146-42 154-17 129 66 193 83 63-66 99-83 155-16 56 137 97-16 151H320z" class="T"/><path d="M154 315h234v535H154z" fill="#E1E4E9"/><path d="M154 315h234v31H154z" class="S"/><path d="M178 376h36v37h-36zm76 0h36v37h-36zm76 0h36v37h-36zm0 199h36v37h-36zm-76 0h36v37h-36zm-81 96h36v37h-36zm5-218h36v37h-36z" class="T"/><path d="M526 711h78v139h-78zM406 129h315v42H406z" class="S"/><path d="M406 129h315v720H406z" fill="#E1E4E9"/><path d="M406 130h315v31H406z" class="S"/><path d="M438 211h48v49h-48zm103 0h48v49h-48zm102 0h48v49h-48zm0 268h48v49h-48zm-102 0h48v49h-48zM432 608h48v49h-48zm6-293h48v49h-48z" class="T"/><path d="M741 804c26 0 32-24 32-55 0-30-6-54-32-54s-35 24-35 54c0 31 9 55 35 55z" class="F"/><g class="B E"><path d="M737 739v102a2 2 0 1 0 4 0V739a2 2 0 1 0-4 0z"/><path d="M741 770l9-11a2 2 0 0 0-3-3l-9 12a2 2 0 1 0 3 2z"/><path d="M737 770l-9-11a2 2 0 0 1 3-3l9 12a2 2 0 1 1-3 2zm4-18l9-11a2 2 0 0 0-3-2l-9 11a2 2 0 1 0 3 2z"/><path d="M737 752l-9-11a2 2 0 0 1 3-2l9 11a2 2 0 1 1-3 2zm1 40l-16-19a2 2 0 0 1 3-3l16 20a2 2 0 1 1-3 2z"/><path d="M741 792l16-19a2 2 0 1 0-3-3l-16 20a2 2 0 1 0 3 2z"/></g><path d="M699 810c23 0 28-21 28-48s-5-49-28-49-32 22-32 49 9 48 32 48z" class="B"/><g class="F"><g class="E"><path d="M696 752v91a2 2 0 0 0 3 0v-91a2 2 0 0 0-3 0z"/><path d="M699 780l8-10a2 2 0 0 0-3-2l-7 10a2 2 0 0 0 2 2z"/><path d="M695 780l-8-10a2 2 0 0 1 3-2l8 10a2 2 0 0 1-3 2zm4-16l8-10a2 2 0 1 0-3-2l-7 10a2 2 0 1 0 2 2z"/><path d="M695 764l-8-10a2 2 0 1 1 3-2l8 10a2 2 0 1 1-3 2zm0 34l-14-17a2 2 0 1 1 3-3l14 18a2 2 0 1 1-3 2z"/><path d="M700 798l14-17a2 2 0 1 0-3-3l-14 18a2 2 0 1 0 3 2z"/></g><path d="M696 847c-2-20 1-31 8-32 12-3-8 18-4 32h-4z"/></g><path d="M693 848c-1-13-6-24-15-32-13-12 29-6 20 32h-5z" class="B"/><path d="M741 847c-2-20 1-31 8-32 12-3-8 18-4 32h-4z" class="F"/><path d="M738 848c-1-13-6-24-15-32-13-12 29-6 20 32h-5z" class="B"/><path d="M521 847c-2-20 1-31 8-32 12-3-8 18-4 32h-4z" class="F"/><path d="M518 848c-1-13-6-24-15-32-13-12 29-6 20 32h-5z" class="B"/><path d="M356 847c-2-20 1-31 8-32 12-3-8 18-4 32h-4z" class="F"/><path d="M353 848c-1-13-6-24-15-32-13-12 29-6 20 32h-5z" class="B"/><path d="M401 804c26 0 32-24 32-55 0-30-6-54-32-54s-35 24-35 54c0 31 9 55 35 55z" class="F"/><g class="B"><g class="E"><path d="M397 739v102a2 2 0 1 0 4 0V739a2 2 0 1 0-4 0z"/><path d="M401 770l9-11a2 2 0 0 0-3-3l-9 12a2 2 0 1 0 3 2z"/><path d="M397 770l-9-11a2 2 0 0 1 3-3l9 12a2 2 0 1 1-3 2zm4-18l9-11a2 2 0 0 0-3-2l-9 11a2 2 0 1 0 3 2z"/><path d="M397 752l-9-11a2 2 0 0 1 3-2l9 11a2 2 0 1 1-3 2zm1 40l-16-19a2 2 0 0 1 3-3l16 20a2 2 0 1 1-3 2z"/><path d="M401 792l16-19a2 2 0 1 0-3-3l-16 20a2 2 0 1 0 3 2z"/></g><path d="M359 810c23 0 28-21 28-48s-5-49-28-49-32 22-32 49 9 48 32 48z"/></g><g class="F"><g class="E"><path d="M356 752v91a2 2 0 0 0 3 0v-91a2 2 0 0 0-3 0z"/><path d="M359 780l8-10a2 2 0 0 0-3-2l-7 10a2 2 0 0 0 2 2z"/><path d="M355 780l-8-10a2 2 0 0 1 3-2l8 10a2 2 0 0 1-3 2zm4-16l8-10a2 2 0 1 0-3-2l-7 10a2 2 0 1 0 2 2z"/><path d="M355 764l-8-10a2 2 0 1 1 3-2l8 10a2 2 0 1 1-3 2zm0 34l-14-17a2 2 0 1 1 3-3l14 18a2 2 0 1 1-3 2z"/><path d="M360 798l14-17a2 2 0 1 0-3-3l-14 18a2 2 0 1 0 3 2z"/></g><path d="M231 804c26 0 32-24 32-55 0-30-6-54-32-54s-35 24-35 54c0 31 9 55 35 55z"/></g><g class="B"><g class="E"><path d="M227 739v102a2 2 0 1 0 4 0V739a2 2 0 1 0-4 0z"/><path d="M231 770l9-11a2 2 0 0 0-3-3l-9 12a2 2 0 1 0 3 2z"/><path d="M227 770l-9-11a2 2 0 0 1 3-3l9 12a2 2 0 1 1-3 2zm4-18l9-11a2 2 0 0 0-3-2l-9 11a2 2 0 1 0 3 2z"/><path d="M227 752l-9-11a2 2 0 0 1 3-2l9 11a2 2 0 1 1-3 2zm1 40l-16-19a2 2 0 0 1 3-3l16 20a2 2 0 1 1-3 2z"/><path d="M231 792l16-19a2 2 0 1 0-3-3l-16 20a2 2 0 1 0 3 2z"/></g><path d="M189 810c23 0 28-21 28-48s-5-49-28-49-32 22-32 49 9 48 32 48z"/></g><g class="E F"><path d="M186 752v91a2 2 0 0 0 3 0v-91a2 2 0 0 0-3 0z"/><path d="M189 780l8-10a2 2 0 0 0-3-2l-7 10a2 2 0 0 0 2 2z"/><path d="M185 780l-8-10a2 2 0 0 1 3-2l8 10a2 2 0 0 1-3 2zm4-16l8-10a2 2 0 1 0-3-2l-7 10a2 2 0 1 0 2 2z"/><path d="M185 764l-8-10a2 2 0 1 1 3-2l8 10a2 2 0 1 1-3 2zm0 34l-14-17a2 2 0 1 1 3-3l14 18a2 2 0 1 1-3 2z"/><path d="M190 798l14-17a2 2 0 1 0-3-3l-14 18a2 2 0 1 0 3 2z"/></g><rect width="706" height="15" rx="5" x="127" y="836" class="S"/><path d="M843 615c5 6-21 8-22-17-3-3-13-8-28-20l-23-19-10-17 14-10 10 20c3 4 11 8 20 15 12 9 25 21 26 24 3 2 10 20 13 24z" class="C"/><path d="M746 476c3 0 5 2 6 4l27 59c4 4-4 17-16 13l-21-39 4-37z" class="J"/><path d="M761 620c-3 43-12 77-25 102s-8-9 14-103l11 1z" class="G"/><path d="M677 851l-2 5-1 3a7 7 0 0 0 7 10l37 1a3 3 0 0 0 2-5c-10-8-20-13-31-13l-12-1z" class="C"/><path d="M676 855c17 8 27 9 29 1 7 2 12 5 16 10 1 3 0 4-3 4l-40-1c-4-1-6-4-5-8l3-6z" class="K"/><path d="M717 607a83 83 0 0 0-14 56c2 35 13 72 6 88s-23 18-22 68c0 10-4 21-10 32l9 3 9-2 34-91c9-30 12-79 21-108l10-29-43-17z" class="G"/><path d="M739 855l-3 7a7 7 0 0 0 6 11l49 1a3 3 0 0 0 2-5c-12-8-25-13-38-13l-16-1z" class="D"/><path d="M738 858c17 10 27 10 29 0 13 3 22 7 27 12v3l-3 1c-3 1-20 0-52-1-4-2-5-5-4-8l3-7z" class="K"/><path d="M672 618c-3 17 1 35 12 56 16 32 42 61 42 78s-13 26 9 70c4 10 5 21 4 34l7 2 10-1 1-2-9-102c-4-31-22-77-26-108l-3-30-47 3z" fill="#846427"/><path d="M708 470c-4 3-9 4-14 4-8 1-23 1-25 12s-13 62-10 73 9 18 67 37l6-13c-13-3-22-8-30-14-11-9-27-15-27-22 1-6 11-20 11-40 2 20 1 35-4 44-5 10-14 29-14 50-1 8-2 17 2 26l2 4c51 1 81-1 89-8l1-1v-3c-11-23-22-45-14-66 10-30 19-33 2-58l-1-18-3-1c-9 0-15-2-19-5-5-5-11-5-19-1z" class="I"/><path d="M712 477c0 6 1 15 12 14 10 0 8-7 8-12 0-3-1-5-3-6l-14-5c-2 2-3 5-3 9zm-27-2c-7 1-15 3-16 11-2 11-13 62-10 73s16-5 16-12c1-6 11-20 11-40 2-22 2-32-1-32z" class="J"/><path d="M734 576l-10 41-47-25 11-41z" class="Q"/><rect width="15" height="34" x="715" y="454" rx="7" class="C"/><g class="H"><path d="M719 456c14 6 24 7 29 4 6-4 11-12 14-24-22-14-35-8-39 18l-4 2z"/><path d="M693 448c4 11 12 15 22 12 16-5-7-37-21-17l-1 5z"/></g><path d="M701 421c0 23 6 37 18 41 17 6 30-18 28-43-2-24-25-42-43-12l-3 14z" class="D"/><g fill="#4D2F7B"><path d="M721 397c-2 11-7 18-15 20-12 3 5 12-1 25-5 12-32 4-31-12 0-16 16-27 37-48 14-14 17-9 10 15z"/><path d="M719 393c1 10 8 16 19 18 18 3-7 12 5 29 11 18 27 7 31-3s-20-9-15-34c5-26-20-41-40-34-13 5-13 13 0 24z"/></g><path d="M670 572c8 2 16 7 23 13 20 19-8 57-17 56-5-1-18-7-38-18-6-3-9-10-8-16l3-13 3-8c7-12 21-18 34-14z" fill="#99CFFF"/><path d="M651 573c-2 33 14 45 49 35 2-10 0-17-6-22-7-7-23-20-41-14l-2 1z" class="M"/><circle cx="41" cy="33" r="4" transform="matrix(.999391 .034899 -.034899 .999391 629.176659 567.589223)" fill="#D49F3A"/><path d="M690 473c11 50 13 80 4 92l4 3c11-17 10-49-3-95h-5z" fill="#99CFFF"/><path d="M754 588c9-3 6 24-28 6-39-13-60-20-63-27s1-13 13-17a304 304 0 0 0 56 32l7 1c4 0 7-1 8-3 2-2 4 5-2 7 2 2 4 3 9 1z" class="D"/><path d="M725 490l5 20" stroke="#E9B44E" stroke-width="3" class="N V"/><path d="M634 592c-3 16-5 28-8 36a484 484 0 0 1-116 194c-8 1-14-2-18-8 16-38 31-61 43-70 18-13 18-111 21-134 1-11 22-24 51-25 7-1 16 2 27 7z" class="G"/><path d="M533 476l-7 3c-5 2-8 7-9 12a155 155 0 0 0-2 65c0 5 3 10 8 13l6 3 4-96z" class="L"/><path d="M599 434c-61-3-87 44-76 142 2 13 16 22 42 25s37-52 34-167z" class="M"/><path d="M521 540l2 36c2 13 16 22 42 25 9 1 18-12 28-38l-72-23z" class="L"/><path d="M632 528c4 10 8 15 11 21 19 41 46 52 44 68-1 8 3 14 13 16 15-3 17-11 4-23-14-14-30-50-47-75-4-5-5-13-7-16-1-1-19 9-18 9z" class="C"/><path d="M628 452l14 27 12 24c4 7 2 16-4 21l-9 7a7 7 0 0 1-11-2l-2-77z" fill="#C4A8F3"/><path d="M654 502v1c4 7 2 16-4 21l-9 7a7 7 0 0 1-11-2c7-4 12-8 15-12 3-3 6-8 9-15z" class="Q"/><path d="M552 610c-2 22 5 40 21 56l42 43c3 3 5 7 5 11 4 45 10 83 18 115 1 7 0 19 2 26l18-5-1-143a371 371 0 0 0-39-113c-12-19-34-16-66 10z" fill="#846427"/><path d="M593 625l6 17a1 1 0 0 1-2 1l-15-14 11-4z" class="G"/><g transform="matrix(-1 0 0 1 702 830)"><path d="M43 3c-3 18-12 30-29 33-25 5-11 15 13 15h38l2-51-10 3H43z" class="K"/><circle cx="56" cy="20" r="5" class="B"/><path d="M14 36c-8 0-12 2-14 6-2 5 8 10 22 10h43v-4l-38 1c0-8-3-12-11-13h-2z" fill="#C5AAF2"/></g><path d="M662 845c-4 0-6 1-7 3m9 1c-3-1-6 0-7 3m11 1c-4-1-6 0-7 2m11 1c-4 0-6 1-7 3m10 1c-3 0-6 0-7 3" stroke="#FFF3FF" class="N O"/><g transform="scale(-1 1) rotate(-15 2873 2524)"><path d="M43 3c-3 18-12 30-29 33-25 5-11 18 13 15l41-9a117 117 0 0 0-1-42L43 3z" class="K"/><circle cx="56" cy="20" r="5" class="B"/><path d="M14 36c-8 0-12 2-14 6-2 5 8 10 22 10 10-1 26-4 47-10v-4c-15 5-29 9-42 11 0-8-3-12-11-13h-2z" fill="#C5AAF2"/></g><path d="M512 834c-3-1-6-1-7 1m9 3c-4-1-6-1-8 1m10 4c-3-2-5-1-7 0m10 4c-3-1-6-1-8 1m10 4c-3-2-5-1-7 1" stroke="#FFF" class="N O V"/><g transform="translate(543 444)"><mask id="F" fill="#fff"><use xlink:href="#A"/></mask><use xlink:href="#A" class="Q"/><path d="M2 153c30 12 62 13 95 3l-1 8c-34 10-66 9-95-4l1-7zm10-57l1-8c27 12 56 14 86 6v6c-28 8-57 7-87-4zm-6 33l1-7c30 14 61 15 92 3v7c-31 11-61 9-93-3zm29-75l2-7c18 7 37 7 58 1l1 6c-19 7-39 7-61 0z" mask="url(#F)" class="B"/></g><path d="M597 430v19a9 9 0 0 0 15 6l1-27-16 2z" class="C"/><path d="M586 358c-4 3-6 10-7 20-1 16-3 62 25 61s28-42 27-57c-1-16-5-33-42-28l-3 4z" class="D"/><path d="M580 412c4-3 13-3 27 0 12 2 19-7 23-28 0-4-2-8-6-9-5-1-8-6-8-14-17 3-27 2-30-3-6-7 38-15 45 10 6 26 3 84-37 69-5-3-8-6-9-9-2-3-3-8-5-16z" fill="#3E2868"/><path d="M579 445c-3 1-4 4-5 7l3-2 2-5z" class="R"/><path d="M557 475c-11 25-15 31-15 50-1 19 29 16 32 5l10-82h-8c-2 1-8 2-19 27z" fill="#C4A8F3"/><path d="M542 518v7c-1 19 29 16 32 5l1-7c0-1-1 7-19 7-7 0-11-4-14-12z" fill="#A87FFF"/><path d="M580 445l7-3a5 5 0 0 1 6 4c6 29 9 48 9 59 1 49-14 69-21 69-10 0-14-4-11-14 9-16 14-30 15-42 1-13-2-35-8-68-1-2 1-5 3-5z" class="P"/><path d="M585 457c10 42 10 73 0 94-1 1 0 2 1 3l2-1c11-22 11-54 0-97a2 2 0 0 0-3 1z" class="E M"/><g class="L"><path d="M576 564c-8 11-18 17-30 18l-1 6a3 3 0 0 0 4 4c15-6 26-14 32-26l-2-2h-3z"/><path d="M578 557c5-1 8 1 9 5 2 6-13 12-13 4 0-5 1-8 4-9z"/></g><path d="M527 446c-2-16-1-23 2-24 4 0 8 6 13 19 4 0 4 7 1 20 11 23 18 41 22 55 6 22 2 30-10 29-7-1-11-7-12-20l-6-44c-1-19-7-22-10-31v-4z" class="D"/><path d="M525 854l-7 13a5 5 0 0 0 4 7l30 2a9 9 0 0 0 3-18l-8-1c-3-1-3-7-5-7l-17 4z" class="C"/><g transform="rotate(1 -48794 30062)"><mask id="G" fill="#fff"><use xlink:href="#B"/></mask><use xlink:href="#B" class="K"/><path d="M-1 16h67v5H-1z" mask="url(#G)" class="I"/></g><path d="M424 855l-4 12a5 5 0 0 0 4 7l30 1a9 9 0 0 0 2-18l-15-2h-17z" class="C"/><g transform="rotate(1 -48854 24366)"><mask id="H" fill="#fff"><use xlink:href="#C"/></mask><use xlink:href="#C" class="K"/><path d="M0 15h67v5H0z" mask="url(#H)" class="I"/></g><g class="H"><path d="M450 575c-6 27-7 58-4 94l6 73c-15 20-23 41-24 62 0 21-1 37-3 48-3 6 2 8 14 6l38-101c10-15 15-29 16-41l15-106-58-35z"/><path d="M512 615c-3 44-12 85-29 124l-9-54 26-70h12z"/></g><g transform="translate(445 592)"><mask id="I" fill="#fff"><use xlink:href="#D"/></mask><use transform="rotate(-3 53 136)" xlink:href="#D" fill="#4C3278"/><path d="M43 24c5 13 6 19 2 19s-10-6-20-19h18z" mask="url(#I)" class="H"/></g><path d="M482 472c20 14 33 36 39 64 2 11 3 23 7 32 5 9 12 16 18 23 11 15 21 28 21 35 1 10-2 17-7 21-8-2-11-8-9-18 3-14-28-22-38-54l-31-103z" class="C"/><path d="M490 472c13 16 21 28 23 37 4 18-6 38-5 51 0 19 9 29 5 52-22 8-45 8-68 0v-58c-5-37-12-61-3-69 13-11 29-16 48-13z" class="J"/><path d="M490 465c-3 2-3 6 0 12 4 8 6 28-8 20-15-8-12-37-6-43l6 7 8 4z" class="C"/><path d="M510 390c12 20 14 39 5 57-14 28-22 18-27 17-6 0-34-25-16-49 13-15 25-24 38-25z" class="D"/><g fill="#3E2868"><path d="M509 388c25 9 28 23 11 44l-2-22-9-22z"/><path d="M487 428c-28 10 15 21 0 40-15 18-49 5-42-16 6-20 12-25 8-41s21-46 61-22c0 20-9 33-27 39z"/></g><ellipse cx="491" cy="527" rx="12" ry="18" class="I"/><path d="M462 500l-12 33c-5 11-15 32-15 36-2 35 9 71 4 82-7 15-6 18-17 31s-12-20-2-33c11-14-12-45-6-83 4-22 12-46 24-72 6-13 27-8 24 6z" class="D"/><g transform="translate(120 331)"><path d="M304 277c-13 39-36 79-68 120-26 32-48 56-65 74l-11 16c-10 1-17-1-20-7 25-47 43-73 55-80 18-9 30-97 35-116 3-10 23-19 50-17 6 1 14 4 24 10z" class="H"/><path d="M149 459l24 13-6 11-24-12z" fill="#C3A7F5"/><path d="M228 272c-5 19-1 37 12 53l31 42c2 4 3 9 2 13-5 30-4 72 2 127h21l13-131v-19c-6-39-13-67-21-85-9-19-29-19-60 0z" fill="#4C3278"/><path d="M263 285c2 12 2 18 0 18-2 1-6-4-14-15l14-3z" class="H"/><path d="M272 491h27v13h-27z" fill="#C3A7F5"/><path d="M196 162l-7 3c-5 2-9 7-9 12a155 155 0 0 0-2 65c0 5 3 10 8 12l6 4 4-96z" class="U"/><path d="M270 107c-65-4-92 46-80 150 1 14 16 23 44 27 28 3 40-56 36-177z" class="J"/><path d="M187 219l3 38c1 14 16 23 44 27 9 1 19-14 30-45l-77-20z" class="U"/><path d="M187 219l34 8v8l-34-8z" class="B"/><path d="M281 132c-24 0-39 9-45 29-6 22-21 61-16 103 0 10 11 16 32 19 22 3 31-47 29-151z" class="G"/><path d="M252 35V20c0-4 2-7 6-9l23-9c3-1 8 0 10 3l12 12-51 18z" fill="#AA7AFF"/><g transform="translate(200 110)"><mask id="J" fill="#fff"><use xlink:href="#E"/></mask><use xlink:href="#E" class="Q"/><path d="M40 80c36 8 62 7 77-1M36 90c39 8 67 7 83-1m-86 11c39 8 67 7 83-1" mask="url(#J)" stroke="#FFF" class="O"/></g><path d="M240 121c20 17 22 49 8 97 7 5 14 5 20 0l3-4c8-18 14-81-12-103l-19 10z" class="I"/><path d="M264 65c-26 9-34 2-25-20 6-15 23-24 38-28 20-6 38-5 46 5 9 11 4 21-15 28l-44 15z" fill="#4B2E7A"/><path d="M253 218l1-5 4-2 4 1a3 3 0 0 1 3 4l-1 2c-1 3-3 5-6 5l-3-1c-2-1-3-2-2-4z" class="G"/><path d="M290 94c-3 5-3 10 0 15 3 9-16 12-21 4-1-3 2-7 2-11l3-18 16 10z" class="C"/><path d="M264 51c-2 19 3 32 14 41 18 12 42-17 26-56-7 0-15 1-22 4s-13 7-18 11z" class="D"/><path d="M183 292h-11l-3 3c0 2 2 3 3 3h43c2 0 3-1 3-3 0-1-1-3-3-3h-32z" fill="#D49F3A"/><path d="M255 221c-12 17-22 27-32 29l-3 6 2 5c22-10 35-23 38-40h-5z" class="G"/><g class="L"><path d="M206 294l-42 81 9-1 41-81z"/><path d="M193 319l-42 81 9-2 41-80z"/></g><path d="M254 121c12 28 15 51 9 69a2 2 0 1 0 4 2c7-20 4-44-8-73a2 2 0 0 0-5 2z" class="E J"/><path d="M212 195l-6 22c-7 37-5 59-9 68-2 6-6 10-8 12-5 4-9 0-15 2-10 3 13 27 32 5 4-5 12-32 16-59l4-28c1-6 6-12 6-16 0-1-19-7-20-6z" class="D"/><g transform="rotate(-7 4226 -221)"><ellipse cx="25" cy="23" rx="15" ry="17" transform="rotate(24 25 23)" class="R"/><ellipse cx="21" cy="21" rx="15" ry="16" transform="rotate(24 21 21)" class="M"/></g><circle cx="173" cy="297" r="5" transform="rotate(-7 173 297)" class="L"/><path d="M40 541c-24-9-30-25-17-49 19-36 51-95 60-104 12-11 24-15 41-12 7 2 20 9 37 22L40 541z" class="M"/><g class="L"><path d="M156 323l-42 81 9-1 41-81z"/><path d="M171 294l-42 81 9-1 41-81z"/></g><path d="M161 398c-28-12-48-3-59 28L40 540c11 11 23 13 36 5 13-7 41-56 85-147z" class="P"/><g transform="rotate(-7 4254 125)"><ellipse cx="25" cy="22" rx="15" ry="17" transform="rotate(24 25 22)" class="R"/><ellipse cx="20" cy="21" rx="15" ry="16" transform="rotate(24 20 21)" class="P"/></g><path d="M44 471l14-20 14 10-16 19z" class="P"/><path d="M42 457l-5 7c3 14 14 21 32 21l5-7c-8 0-16-2-22-6-5-3-8-8-10-15z" class="R"/><path d="M297 504c3 19 13 30 29 33 7 1 11 7 14 16h-65l-1-49h23z" class="J"/><path d="M293 504h-19v6h13c3 0 6-3 6-6z" class="I"/><path d="M339 550l1 3h-65v-4z" class="H"/><path d="M300 517c-4-1-6 0-7 2m9 1c-3 0-6 1-7 3m11 1c-4-1-6 0-7 3m11 1c-4-1-6 0-7 2m10 1c-3 0-6 1-7 3" stroke="#3E266A" class="N O"/><path d="M165 482l-2 9c-1 14 5 25 16 33 9 6 10 12 3 20l-58-35 20-38 21 11z" class="J"/><path d="M161 480l-17-9-3 6 11 5c3 2 7 1 9-2z" class="I"/><path d="M182 544l-58-34 2-5 59 36z" class="H"/><path d="M162 495c-3-2-5-2-7 0m8 4c-3-2-5-2-7 0m9 5c-3-2-5-2-7 0m9 5c-3-2-5-2-7 0m9 5c-3-2-5-2-7 0" stroke="#3E266A" class="N O"/><path d="M240 121l-4 7 7-5-3-2z" class="U"/></g></g></svg>