<?xml version="1.0" encoding="utf-8"?>
<!DOCTYPE svg PUBLIC "-//W3C//DTD SVG 1.1 Tiny//EN" "http://www.w3.org/Graphics/SVG/1.1/DTD/svg11-tiny.dtd">
<svg version="1.1" baseProfile="tiny" id="Layer_1" xmlns="http://www.w3.org/2000/svg" xmlns:xlink="http://www.w3.org/1999/xlink"
x="0px" y="0px" width="186.5px" height="27.732px" viewBox="0 0 186.5 27.732" xml:space="preserve">
<g>
<path fill="#FCB12B" d="M11.918,10.091c3.643,2.537,5.737,9.747,2.42,11.475s-7.984,2.037-11.682-1.659
c-3.697-3.697-3.249-8.571-0.415-9.882C5.077,8.708,8.738,7.879,11.918,10.091z"/>
<path fill="#FCB12B" d="M3.476,7.692C1.938,7.3,1.782,5.84,3.035,3.852c1.246-1.987,3.17-2.321,3.106-1.51
c-0.064,0.811-0.112,2.155-0.65,3.14C4.994,6.391,4.15,7.864,3.476,7.692z"/>
<path fill="#FCB12B" d="M11.076,4.341c-0.824,1.801-2.157,2.96-2.97,2.586C7.292,6.558,7.303,4.79,8.132,2.99
c0.824-1.804,2.158-2.963,2.969-2.592C11.912,0.771,11.904,2.536,11.076,4.341z"/>
<path fill="#FCB12B" d="M16.756,6.479c-0.891,1.951-2.377,3.188-3.312,2.763c-0.938-0.433-0.969-2.361-0.074-4.315
s2.38-3.188,3.317-2.763C17.622,2.595,17.651,4.525,16.756,6.479z"/>
<path fill="#FCB12B" d="M19.859,11.86c-1.104,1.671-2.611,2.62-3.369,2.117c-0.758-0.5-0.48-2.258,0.622-3.93
c1.104-1.672,2.613-2.617,3.37-2.115C21.239,8.431,20.958,10.19,19.859,11.86z"/>
<path fill="#FCB12B" d="M31.823,20.761c2.431,2.23,2.348,8.721,7.44,6.525c5.099-2.189,1.233-5.134,1.723-8.269
c0.484-3.139,3.158-6.159,0.24-8.833c-2.917-2.679-4.524,1.025-7.941,1.173c-3.417,0.146-8.48-1.709-8.266,3.265
C25.235,19.597,29.067,18.24,31.823,20.761z"/>
<path fill="#FCB12B" d="M35.265,6.548c-1.847,1.82-3.073,2.494-4.648,1.607c-1.576-0.883-2.266-2.64-1.047-4.81
c1.223-2.17,3.891-3.938,5.463-3.053C36.608,1.175,37.039,4.799,35.265,6.548z"/>
<path fill="#FCB12B" d="M45.609,16.601c-1.851,1.789-2.557,2.959-1.755,4.388c0.8,1.432,2.49,2.008,4.662,0.788
c2.172-1.221,4.006-3.776,3.203-5.202C50.915,15.144,47.394,14.884,45.609,16.601z"/>
<path fill="#FCB12B" d="M43.436,6.026c-1.488,1.625-2.403,2.029-4.486,1.301c-1.704-0.6-1.207-3.521,0.277-5.145
c1.485-1.623,4.326-2.564,5.655-1.352C46.215,2.046,44.915,4.401,43.436,6.026z"/>
<path fill="#FCB12B" d="M45.368,7.763c-1.62,1.488-2.027,2.399-1.295,4.486c0.592,1.699,3.515,1.203,5.141-0.281
c1.623-1.482,2.568-4.325,1.352-5.658C49.348,4.985,46.992,6.281,45.368,7.763z"/>
</g>
<g>
<text transform="matrix(1 0 0 1 182.2002 10.6624)" fill="#FFFFFF" font-family="'ArialMT'" font-size="5.5559">®</text>
<g>
<path fill="#FFFFFF" d="M71.576,18.823h-7.148v-4.308h2.451h3.913c0.475,0,0.827-0.108,1.053-0.326
c0.228-0.217,0.341-0.497,0.341-0.842s-0.116-0.621-0.346-0.832c-0.23-0.209-0.58-0.313-1.048-0.313h-6.363V8.481h6.91
c0.49,0,0.853-0.108,1.09-0.325c0.238-0.218,0.356-0.505,0.356-0.861c0-0.353-0.118-0.636-0.356-0.854
c-0.237-0.217-0.601-0.324-1.09-0.324H63.24c-0.434,0-0.79,0.063-1.069,0.19c-0.279,0.128-0.484,0.331-0.615,0.61
c-0.131,0.277-0.196,0.639-0.196,1.078v5.76v5.624c0,0.662,0.146,1.141,0.439,1.436c0.292,0.297,0.772,0.445,1.441,0.445h8.336
c0.482,0,0.845-0.111,1.09-0.336c0.244-0.225,0.367-0.514,0.367-0.871c0-0.373-0.123-0.67-0.367-0.895
C72.421,18.933,72.058,18.823,71.576,18.823z"/>
<path fill="#FFFFFF" d="M93.223,19.164c-0.159,0-0.379,0.026-0.662,0.086c-0.282,0.059-0.506,0.088-0.671,0.088
c-0.303,0-0.522-0.074-0.656-0.221c-0.134-0.148-0.217-0.343-0.248-0.578c-0.031-0.238-0.046-0.578-0.046-1.021v-0.635v-4.55
h0.527c0.557,0,0.986-0.075,1.286-0.229c0.299-0.149,0.45-0.416,0.45-0.795c0-0.297-0.105-0.538-0.315-0.729
c-0.21-0.189-0.515-0.284-0.914-0.284H90.94v-1.92c0-0.476-0.026-0.842-0.078-1.101c-0.051-0.26-0.173-0.478-0.367-0.655
c-0.289-0.271-0.612-0.402-0.971-0.402c-0.255,0-0.485,0.061-0.692,0.18c-0.207,0.121-0.365,0.277-0.475,0.471
c-0.11,0.187-0.177,0.409-0.202,0.667c-0.023,0.258-0.036,0.614-0.036,1.067v1.694h-0.31c-0.427,0-0.752,0.095-0.976,0.284
s-0.335,0.432-0.335,0.729s0.107,0.541,0.32,0.733c0.213,0.192,0.523,0.289,0.929,0.289h0.372v4.353v1.062
c0,0.875,0.071,1.574,0.212,2.096c0.141,0.523,0.438,0.934,0.893,1.23c0.455,0.296,1.123,0.442,2.004,0.442
c0.93,0,1.642-0.119,2.138-0.36c0.495-0.24,0.743-0.589,0.743-1.043c0-0.271-0.09-0.494-0.272-0.677
C93.655,19.253,93.45,19.164,93.223,19.164z"/>
<path fill="#FFFFFF" d="M160.563,16.476c0.736,0,1.309-0.104,1.715-0.313c0.063-0.033,0.119-0.072,0.172-0.115
c0.291-0.244,0.438-0.665,0.438-1.264c0-0.766-0.195-1.517-0.588-2.252c-0.393-0.736-0.984-1.339-1.771-1.804
c-0.788-0.465-1.733-0.696-2.836-0.696c-0.848,0-1.618,0.137-2.313,0.409c-0.694,0.271-1.28,0.661-1.756,1.172
s-0.837,1.119-1.084,1.832c-0.248,0.714-0.372,1.486-0.372,2.319c0,0.383,0.023,0.748,0.07,1.094
c0.171,1.265,0.648,2.302,1.438,3.111c1.006,1.033,2.413,1.549,4.227,1.549c0.791,0,1.492-0.104,2.102-0.311
c0.609-0.205,1.115-0.465,1.52-0.779c0.402-0.313,0.703-0.641,0.902-0.979c0.199-0.343,0.301-0.64,0.301-0.896
c0-0.287-0.09-0.512-0.27-0.67s-0.413-0.238-0.703-0.238c-0.268,0-0.475,0.063-0.619,0.187c-0.351,0.33-0.637,0.592-0.857,0.785
c-0.219,0.192-0.461,0.375-0.723,0.543s-0.531,0.293-0.812,0.371c-0.278,0.079-0.587,0.118-0.925,0.118
c-0.502,0-0.963-0.125-1.379-0.371c-0.416-0.247-0.75-0.616-1.002-1.104c-0.228-0.441-0.354-0.947-0.381-1.514
c0.791-0.058,1.577-0.119,2.361-0.183L160.563,16.476L160.563,16.476z M155.046,14.876c0.097-0.951,0.37-1.669,0.82-2.154
c0.45-0.484,1.028-0.729,1.729-0.729c0.736,0,1.332,0.237,1.782,0.719c0.452,0.479,0.712,1.199,0.78,2.164H155.046z"/>
<path fill="#FFFFFF" d="M170.83,19.164c-0.158,0-0.378,0.026-0.66,0.086c-0.283,0.059-0.506,0.088-0.672,0.088
c-0.303,0-0.521-0.074-0.656-0.221c-0.134-0.148-0.217-0.343-0.248-0.578c-0.031-0.238-0.046-0.578-0.046-1.021v-2.083v-3.102
h0.526c0.559,0,0.986-0.075,1.285-0.229c0.301-0.149,0.451-0.416,0.451-0.795c0-0.297-0.105-0.538-0.316-0.729
c-0.209-0.189-0.514-0.284-0.914-0.284h-1.032v-1.92c0-0.476-0.026-0.842-0.077-1.101c-0.051-0.26-0.174-0.478-0.367-0.655
c-0.289-0.271-0.612-0.402-0.971-0.402c-0.255,0-0.486,0.061-0.691,0.18c-0.207,0.121-0.365,0.277-0.477,0.471
c-0.109,0.187-0.177,0.409-0.201,0.667c-0.022,0.258-0.035,0.614-0.035,1.067v1.694h-0.311c-0.428,0-0.752,0.095-0.977,0.284
s-0.336,0.432-0.336,0.729s0.106,0.541,0.319,0.733c0.214,0.192,0.523,0.289,0.931,0.289h0.373v3.396v2.019
c0,0.875,0.068,1.574,0.211,2.096c0.141,0.523,0.438,0.934,0.894,1.23s1.122,0.442,2.005,0.442c0.93,0,1.643-0.119,2.137-0.36
c0.496-0.24,0.744-0.589,0.744-1.043c0-0.271-0.091-0.494-0.273-0.677C171.262,19.253,171.059,19.164,170.83,19.164z"/>
<path fill="#FFFFFF" d="M181.402,16.451c-0.285-0.402-0.705-0.752-1.26-1.05c-0.556-0.295-1.27-0.55-2.144-0.764
c-0.334-0.08-0.633-0.156-0.901-0.226c-0.324-0.085-0.604-0.161-0.834-0.229c-0.421-0.124-0.755-0.278-1.003-0.47
c-0.247-0.188-0.37-0.432-0.37-0.729c0-0.323,0.168-0.595,0.506-0.811c0.338-0.217,0.76-0.326,1.27-0.326
c0.496,0,0.889,0.082,1.18,0.248c0.288,0.165,0.539,0.386,0.754,0.662c0.262,0.329,0.493,0.577,0.696,0.742
c0.202,0.166,0.449,0.248,0.738,0.248c0.399,0,0.708-0.104,0.925-0.311s0.325-0.472,0.325-0.796c0-0.295-0.103-0.599-0.306-0.908
c-0.203-0.311-0.498-0.593-0.888-0.848c-0.39-0.254-0.875-0.457-1.457-0.609c-0.582-0.149-1.237-0.227-1.969-0.227
c-0.929,0-1.724,0.149-2.38,0.449c-0.657,0.3-1.155,0.7-1.493,1.203c-0.338,0.504-0.506,1.037-0.506,1.602
c0,0.633,0.183,1.166,0.547,1.602c0.013,0.013,0.022,0.023,0.033,0.037c0.36,0.416,0.838,0.755,1.43,1.011
c0.609,0.266,1.397,0.52,2.369,0.76c0.86,0.207,1.479,0.424,1.854,0.65c0.375,0.226,0.563,0.59,0.563,1.084
c0,0.323-0.181,0.612-0.543,0.864c-0.36,0.25-0.824,0.375-1.39,0.375c-0.694,0-1.243-0.123-1.646-0.371
c-0.402-0.248-0.749-0.625-1.038-1.125c-0.146-0.264-0.296-0.465-0.454-0.61s-0.386-0.217-0.683-0.217
c-0.338,0-0.616,0.11-0.836,0.329c-0.222,0.222-0.331,0.486-0.331,0.798c0,0.469,0.172,0.934,0.518,1.399
c0.344,0.463,0.877,0.851,1.602,1.16c0.723,0.309,1.59,0.465,2.603,0.465c1.062,0,1.962-0.143,2.702-0.43
c0.739-0.285,1.299-0.705,1.678-1.26c0.379-0.554,0.568-1.22,0.568-1.998C181.832,17.314,181.688,16.853,181.402,16.451z"/>
<path fill="#FFFFFF" d="M84.401,11.911c-0.29-0.593-0.727-1.052-1.312-1.375c-0.586-0.322-1.25-0.484-1.994-0.484
c-0.765,0-1.441,0.152-2.03,0.459c-0.588,0.307-1.131,0.787-1.627,1.441v-0.342c0-0.337-0.06-0.623-0.181-0.857
c-0.121-0.233-0.28-0.408-0.48-0.525c-0.201-0.117-0.424-0.176-0.671-0.176c-0.407,0-0.727,0.133-0.96,0.397
c-0.234,0.265-0.352,0.667-0.352,1.203v3.841v4.309c0,0.551,0.131,0.975,0.393,1.271c0.261,0.297,0.595,0.442,1.001,0.442
c0.42,0,0.763-0.143,1.028-0.43c0.266-0.285,0.398-0.715,0.398-1.285v-3.533c0-0.17,0.002-0.33,0.005-0.483
c0.018-0.888,0.084-1.513,0.202-1.87c0.192-0.523,0.496-0.937,0.909-1.234c0.413-0.301,0.871-0.449,1.374-0.449
c0.771,0,1.286,0.246,1.544,0.738c0.258,0.492,0.388,1.203,0.388,2.133v1.095v3.604c0,0.551,0.13,0.975,0.392,1.271
c0.262,0.296,0.603,0.442,1.023,0.442c0.413,0,0.749-0.145,1.007-0.434s0.387-0.717,0.387-1.281v-3.369v-1.877
c0-0.62-0.028-1.13-0.083-1.529C84.708,12.628,84.587,12.255,84.401,11.911z"/>
<path fill="#FFFFFF" d="M97.541,6.333c-0.283-0.234-0.605-0.353-0.971-0.353c-0.379,0-0.711,0.13-0.997,0.389
c-0.286,0.257-0.429,0.587-0.429,0.985c0,0.44,0.139,0.782,0.418,1.022c0.278,0.241,0.614,0.361,1.008,0.361
c0.379,0,0.705-0.122,0.979-0.367c0.275-0.244,0.414-0.582,0.414-1.018C97.964,6.907,97.823,6.566,97.541,6.333z"/>
<path fill="#FFFFFF" d="M96.539,10.052c-0.413,0-0.749,0.141-1.008,0.424c-0.258,0.281-0.387,0.701-0.387,1.26v5.407v2.66
c0,0.551,0.129,0.975,0.387,1.271c0.259,0.297,0.595,0.442,1.008,0.442s0.754-0.145,1.021-0.434
c0.269-0.289,0.403-0.717,0.403-1.281v-2.51v-5.64c0-0.504-0.135-0.896-0.403-1.178C97.292,10.192,96.952,10.052,96.539,10.052z"
/>
<path fill="#FFFFFF" d="M107.768,10.495c-0.56-0.296-1.134-0.443-1.726-0.443c-0.594,0-1.065,0.147-1.421,0.443
s-0.7,0.732-1.038,1.313c-0.021-0.579-0.135-1.017-0.341-1.313c-0.207-0.296-0.544-0.443-1.014-0.443
c-0.916,0-1.373,0.633-1.373,1.9v5.477v2.373c0,0.564,0.131,0.992,0.393,1.281s0.596,0.434,1.002,0.434
c0.413,0,0.754-0.143,1.023-0.43c0.268-0.285,0.401-0.715,0.401-1.285v-2.258v-0.098c0-0.847,0.027-1.564,0.083-2.153
c0.055-0.588,0.154-1.097,0.299-1.523c0.146-0.426,0.348-0.75,0.609-0.967c0.261-0.217,0.6-0.324,1.014-0.324
c0.303,0,0.651,0.063,1.047,0.189c0.396,0.129,0.646,0.19,0.75,0.19c0.275,0,0.531-0.11,0.771-0.335
c0.237-0.224,0.354-0.508,0.354-0.853C108.604,11.185,108.324,10.791,107.768,10.495z"/>
<path fill="#FFFFFF" d="M119.203,16.162c0.406-0.209,0.607-0.67,0.607-1.379c0-0.766-0.195-1.517-0.588-2.252
c-0.394-0.736-0.983-1.339-1.771-1.804s-1.733-0.696-2.835-0.696c-0.849,0-1.618,0.137-2.314,0.409
c-0.696,0.271-1.28,0.661-1.756,1.172s-0.837,1.119-1.085,1.832c-0.247,0.714-0.371,1.486-0.371,2.319
c0,0.715,0.083,1.367,0.246,1.961c0.242,0.879,0.662,1.627,1.262,2.244c1.006,1.033,2.414,1.549,4.226,1.549
c0.792,0,1.491-0.104,2.102-0.311c0.61-0.205,1.117-0.465,1.521-0.779c0.402-0.313,0.703-0.641,0.904-0.979
c0.198-0.343,0.299-0.64,0.299-0.896c0-0.287-0.09-0.512-0.271-0.67c-0.003-0.004-0.009-0.006-0.014-0.01
c-0.177-0.152-0.406-0.229-0.688-0.229c-0.27,0-0.476,0.063-0.619,0.187c-0.014,0.012-0.024,0.022-0.037,0.035
c-0.334,0.313-0.608,0.563-0.82,0.75c-0.221,0.192-0.463,0.375-0.725,0.543s-0.531,0.293-0.811,0.371
c-0.279,0.079-0.586,0.118-0.924,0.118c-0.504,0-0.963-0.125-1.379-0.371c-0.418-0.247-0.752-0.616-1.002-1.104
c-0.064-0.123-0.119-0.252-0.168-0.385c-0.143-0.396-0.215-0.83-0.221-1.312h5.518C118.225,16.476,118.795,16.371,119.203,16.162z
 M111.971,14.876c0.096-0.951,0.37-1.669,0.821-2.154c0.451-0.484,1.026-0.729,1.729-0.729c0.736,0,1.33,0.237,1.781,0.719
c0.451,0.479,0.711,1.199,0.78,2.164H111.971z"/>
<path fill="#FFFFFF" d="M123.582,5.857c-0.428,0-0.766,0.146-1.018,0.435c-0.252,0.289-0.377,0.718-0.377,1.282v10.301v1.928
c0,0.551,0.129,0.975,0.387,1.271c0.26,0.297,0.595,0.442,1.008,0.442c0.42,0,0.764-0.143,1.027-0.43
c0.266-0.285,0.397-0.715,0.397-1.285v-1.938V7.573c0-0.572-0.131-1.002-0.393-1.287C124.352,6.001,124.008,5.857,123.582,5.857z"
/>
<path fill="#FFFFFF" d="M136.727,10.222c-0.197-0.113-0.4-0.17-0.615-0.17c-0.295,0-0.524,0.051-0.687,0.154
c-0.161,0.104-0.313,0.303-0.46,0.6c-0.146,0.296-0.307,0.706-0.484,1.229l-2.264,6.457l-0.251-0.732l-2.135-6.209
c-0.158-0.482-0.341-0.854-0.549-1.109c-0.205-0.26-0.513-0.389-0.918-0.389c-0.234,0-0.46,0.062-0.677,0.187
s-0.389,0.288-0.512,0.495c-0.125,0.206-0.188,0.431-0.188,0.673c0,0.227,0.107,0.592,0.32,1.094l2.108,5.311l1.362,3.429
l-0.26,0.631c-0.191,0.461-0.362,0.811-0.51,1.049c-0.15,0.236-0.316,0.404-0.502,0.5s-0.441,0.145-0.766,0.145
c-0.131,0-0.285-0.021-0.465-0.061c-0.145-0.043-0.291-0.063-0.443-0.063c-0.385,0-0.677,0.089-0.873,0.265
c-0.195,0.174-0.294,0.426-0.294,0.748c0,0.475,0.206,0.803,0.62,0.979c0.412,0.181,1.033,0.271,1.859,0.271
c0.847,0,1.52-0.129,2.02-0.39c0.498-0.258,0.898-0.627,1.203-1.108c0.303-0.482,0.613-1.146,0.93-1.994l1.73-4.527l1.947-5.099
c0.088-0.248,0.164-0.492,0.227-0.733c0.063-0.239,0.107-0.428,0.135-0.558c0-0.213-0.054-0.417-0.16-0.609
C137.074,10.49,136.923,10.336,136.727,10.222z"/>
<path fill="#FFFFFF" d="M149.752,7.241c-0.45-0.398-0.986-0.685-1.605-0.856c-0.627-0.179-1.521-0.27-2.687-0.27h-3.937
c-0.676,0-1.168,0.146-1.478,0.435s-0.464,0.771-0.464,1.445v9.531v2.144c0,0.604,0.141,1.063,0.424,1.377
c0.281,0.313,0.652,0.471,1.114,0.471c0.44,0,0.806-0.158,1.095-0.475c0.289-0.318,0.434-0.781,0.434-1.396v-2.25V15.36h2.812
c1.88,0,3.295-0.396,4.245-1.191c0.949-0.796,1.425-1.964,1.425-3.507c0-0.724-0.116-1.374-0.351-1.952
C150.546,8.13,150.203,7.642,149.752,7.241z M147.641,12.076c-0.257,0.345-0.625,0.593-1.111,0.742
c-0.484,0.152-1.09,0.229-1.813,0.229h-2.065V8.419h2.065c1.371,0,2.275,0.225,2.718,0.672c0.393,0.42,0.588,0.965,0.588,1.632
C148.021,11.281,147.895,11.731,147.641,12.076z"/>
</g>
</g>
</svg>
