<?xml version="1.0" encoding="UTF-8"?>
<svg width="33px" height="33px" viewBox="0 0 33 33" version="1.1" xmlns="http://www.w3.org/2000/svg" xmlns:xlink="http://www.w3.org/1999/xlink">
    <!-- Generator: Sketch 51.3 (57544) - http://www.bohemiancoding.com/sketch -->
    <title>Chat Icon</title>
    <desc>Created with Sketch.</desc>
    <defs></defs>
    <g id="Page-1" stroke="none" stroke-width="1" fill="none" fill-rule="evenodd">
        <g id="iPhone-X" transform="translate(-326.000000, -701.000000)">
            <g id="Chat-Icon" transform="translate(326.000000, 700.992188)">
                <path d="M16.5,0 C25.6135,0 33,7.387875 33,16.5 L33,33 L16.5,33 C7.387875,33 0,25.6135 0,16.5 C0,7.387875 7.387875,0 16.5,0" id="Fill-1" fill="#000000"></path>
                <path d="M9.729775,15.229775 C10.898525,15.229775 11.8459,16.175775 11.8459,17.344525 C11.8459,18.513275 10.898525,19.459275 9.729775,19.459275 C8.561025,19.459275 7.615025,18.513275 7.615025,17.344525 C7.615025,16.175775 8.561025,15.229775 9.729775,15.229775" id="Fill-3" fill="#FFFFFF"></path>
                <path d="M16.5,15.229775 C17.66875,15.229775 18.61475,16.175775 18.61475,17.344525 C18.61475,18.513275 17.66875,19.459275 16.5,19.459275 C15.33125,19.459275 14.383875,18.513275 14.383875,17.344525 C14.383875,16.175775 15.33125,15.229775 16.5,15.229775" id="Fill-5" fill="#FFFFFF"></path>
                <path d="M23.2689875,15.229775 C24.4377375,15.229775 25.3837375,16.175775 25.3837375,17.344525 C25.3837375,18.513275 24.4377375,19.459275 23.2689875,19.459275 C22.1002375,19.459275 21.1528625,18.513275 21.1528625,17.344525 C21.1528625,16.175775 22.1002375,15.229775 23.2689875,15.229775" id="Fill-7" fill="#FFFFFF"></path>
            </g>
        </g>
    </g>
</svg>