<svg xmlns="http://www.w3.org/2000/svg" viewBox="0 0 54 27.9"><path d="M2.8 26.5v-8.7c0-1 .3-1.2 1.2-1.2v-.1H0v.1c.9 0 1.2.3 1.2 1.3v8.7c0 1-.3 1.2-1.2 1.2v.1h4v-.1c-.9-.1-1.2-.4-1.2-1.3zM13.8 16.4h-2.7v.1c1 0 1.4.6 1.4 2.2v6.9l-6.2-9.2H4v.1c.9 0 1.2.3 1.2 1.3v7.8c0 1.5-.3 2.1-1.2 2.1v.1h2.8v-.1c-1.1 0-1.4-.7-1.4-2.2v-7.6l6.8 10h.5v-9.2c0-1.6.3-2.1 1.1-2.1v-.2zM17.9 21.3c-1.3-.7-2.5-1.4-2.5-2.9 0-1.1.6-1.8 1.9-1.8 1.1 0 1.5.5 1.5 1.1 0 .3-.1.6-.3.8.1.3.5.5.9.5.5 0 .8-.3.8-.9 0-.9-1-1.7-2.6-1.7-1.9 0-3.4 1.1-3.4 2.9 0 1.8 1.4 2.6 2.8 3.4 1.3.7 2.5 1.5 2.5 3 0 1.4-1 2-2.4 2-1.5 0-2-.8-2-1.5 0-.4.1-.7.4-.9-.2-.3-.4-.5-.9-.5s-.9.4-.9 1c0 .9.9 2.2 3.2 2.2 2.2 0 3.7-1.2 3.7-3.1.1-2-1.3-2.8-2.7-3.6zM24 26.5v-8.7c0-1 .3-1.2 1.2-1.2v-.1h-4v.1c.9 0 1.2.3 1.2 1.3v8.7c0 1-.3 1.2-1.2 1.2v.1h4v-.1c-.9-.1-1.2-.4-1.2-1.3zM30.2 16.4c-1.1 0-2.3.1-3.3.1h-1v.1c.9 0 1.2.3 1.2 1.3v8.6c0 .9-.3 1.2-1.1 1.2v.1h4.3c2.7 0 6-.9 6-5.8-.1-3.7-2.1-5.6-6.1-5.6zm.1 11.3c-1.4 0-1.7-.3-1.7-1.1v-9.9c.5-.1 1-.1 1.5-.1 3.1 0 4.5 1.8 4.5 5.6s-1.6 5.5-4.3 5.5z"/><path d="M40.1 27.7h-1.3V22h1.3c1.1 0 1.4.4 1.7 1.9h.2v-4h-.1c-.4 1.5-.6 1.9-1.7 1.9h-1.3v-5.3h1.5c1.7 0 2.1.5 2.8 2.6h.1v-2.8h-7.1v.1c.9 0 1.2.3 1.2 1.3v8.7c0 1-.3 1.2-1.1 1.2v.1h7l.4-3.1h-.1c-1 2.5-1.6 3.1-3.5 3.1zM48.7 22.2c2.6-.2 3.7-1.2 3.7-2.9 0-2-1.6-2.9-4.3-2.9H44.2v.1c.9 0 1.2.3 1.2 1.3v8.6c0 .9-.3 1.2-1.1 1.2v.1h3.9v-.1c-.9 0-1.2-.3-1.2-1.3v-4h.6c2.6 0 2.9 1.6 3.2 3 .3 1.3.6 2.5 2.3 2.5.2 0 .6 0 .9-.1v-.1c-2.7-.2.1-5.3-5.3-5.4zm-1.7 0v-5.5c.3-.1.7-.1 1-.1 1.7 0 2.8.8 2.8 2.7 0 2.1-.8 2.9-3.1 2.9H47zM42.8 14.5c-.4 0-.6-.2-.7-.6-.3 0-.6.3-.6.8 0 .4.3.8.8.8 1.1 0 2.1-1.6 3.4-3.6l2-3.2c1.6-2.6 1.9-3.5 1.9-4.1 0-.6-.3-1.1-.9-1.1-.5 0-.9.3-.8.9.4 0 .8.4.8 1 0 .8-.4 2.1-1.5 3.9l-.8 1.3-1.1-6.9-.1-.1-2.2.5v.1c.1 0 .3-.1.4-.1.4 0 .6.3.8 1.2l1.1 6.8c-.9 1.4-1.7 2.4-2.5 2.4zM37.8 9.9v.6c0 1 .5 1.6 1.5 1.6 1.1 0 2.2-.9 2.8-2.5H42c-.5 1.2-1.2 1.8-2 1.8-.6 0-.8-.4-.8-1 0-.2 0-.5.1-.7l1-5.5h2.3v-.3h-2.3l.4-2.1-.1-.1c-.5 1.1-1.9 2.1-3.1 2.3v.2h1.4l-1.1 5.7zM29.4 4.3c.3 0 .5.2.5.6 0 .3 0 .6-.1 1l-.5 3.2c0 .3-.1.6-.1.8 0 1.2.6 2.1 1.8 2.1 1.1 0 2-.9 2.6-2.5-.1.7-.1.8-.1 1 0 1 .5 1.4 1.2 1.4 1 0 1.9-1 2.3-2.5h-.1c-.5 1.1-1 1.8-1.5 1.8-.3 0-.5-.2-.5-.7 0-.2 0-.5.1-.8l1-6.3v-.1l-2.7.9v.1c.2-.1.4-.1.5-.1.4 0 .5.2.5.7 0 .2 0 .5-.1.7l-.3 1.8c-.4 2.4-1.3 3.6-2.4 3.6-.8 0-1-.6-1-1.4 0-.3 0-.5.1-.8l.9-5.5-.1-.1-2.6.9v.1c.3.2.4.1.6.1zM25 9.3c-.1.5-.2.9-.2 1.3 0 1 .4 1.5 1.2 1.5 1 0 1.9-1 2.3-2.5h-.1c-.4 1-.9 1.8-1.5 1.8-.4 0-.5-.3-.5-.7 0-.2 0-.5.1-.8l1.1-6.3-.1-.1-1.4.4c-.5-.3-1.1-.4-1.7-.4-2.5 0-4 2.9-4 5.8 0 1.8.8 2.8 2 2.8 1.2-.1 2.1-1 2.8-2.8zm-3.3-.2c0-2.3.8-5.5 2.6-5.5.5 0 .9.2 1.3.5v.7c-.1 3-1.1 6.4-2.8 6.4-.7.1-1.1-.6-1.1-2.1zM16 12.1c1.4 0 2.6-.8 3.4-2.6l-.1-.1c-.7 1.3-1.6 1.9-2.6 1.9-1.2 0-1.9-1-1.9-2.8v-.6c.4.1.8.1 1.3.1 2.4 0 3.6-1.2 3.6-2.6 0-1.2-.9-2-2.3-2-2.5 0-4.1 2.8-4.1 5.4 0 2.2 1.1 3.3 2.7 3.3zm1.3-8.5c.8 0 1.2.7 1.2 1.6 0 1.5-.7 2.6-2.3 2.6-.4 0-.8-.1-1.3-.2.2-1.9 1-4 2.4-4zM8 11.5c3.1 0 5-1.4 5-3.6 0-1.5-1-2.3-3.1-2.5.3 0 .7-.1.9-.2 1.7-.5 2.5-1.7 2.5-3 0-1.5-1.1-2.3-3.5-2.3H8.2c-.7.1-1.4.1-2.1.1v.1c.7 0 1 .2 1 .8 0 .1 0 .3-.1.5l-1.6 8.7c-.2.9-.5 1.2-1.4 1.2v.1h4zM8.9.2c.3 0 .7-.1.9-.1 1.5 0 2.1.7 2.1 1.9 0 1.6-.8 3.4-3 3.4h-1l1-5.2zM7.1 9.9l.8-4.3h.9c1.8 0 2.7.6 2.7 2 0 2.1-1 3.7-3.3 3.7-.8 0-1.1-.2-1.1-.8-.1-.2 0-.4 0-.6z"/></svg>