<svg width="24" height="24" xmlns="http://www.w3.org/2000/svg"><g fill-rule="nonzero" fill="none" opacity=".6"><path d="M13.571 17.58c-.317.185-.633.344-1.003.397h-.026c-.924.184-1.874-.08-2.613-.607L9.402 17l.026-.053c.053 0 .106.027.158.027.555.079 1.082-.106 1.531-.449a.63.63 0 01.37-.132c.21 0 .369.106.5.238.106-.159.291-.238.502-.238a.63.63 0 01.37.132c.448.343.976.554 1.53.449.053 0 .106-.027.159-.027l.026.053-1.003.58zm3.22-5.673c.132.554.369 1.056 1.345 1.161v.027c-.343.079-1.53-.211-2.348-.898.105.581.37 1.188 1.055 1.425v.027c-.37 0-1.398-.528-2.032-1.399-.026.554.08 1.161.634 1.557v.027c-1.9-1.135-2.032-2.402-2.164-2.666l.158-.079c.765 1.267 3.193.897 3.642-.053.053.08.475 1.214 2.137 1.24l.027.027c-.317.158-1.53.106-2.454-.396z" fill="#FFF"/><path d="M12.259.006c6.23.21 11.3 5.275 11.485 11.473.211 6.858-5.386 12.476-12.251 12.265C5.262 23.534.193 18.47.007 12.271-.227 5.512 5.232-.042 11.961 0l.298.005zm-.031 1C5.936.811.789 5.96 1.007 12.24c.169 5.67 4.815 10.31 10.517 10.504 6.283.193 11.414-4.948 11.22-11.236-.166-5.574-4.658-10.153-10.216-10.49l-.3-.014z" fill="#000"/><path d="M15.84 4.967c.027 0 .027.026.053.026.37 1.768 1.32 4.038 3.721 4.961.343 1.425.317 3.009-.185 4.618-.66 1.98-2.823 4.17-4.802 4.83-4.513 1.53-8.735-.871-10.186-4.671 5.462-1.24 5.04-7.627 5.04-7.627l.03.111c.116.433.494 2.065.155 3.716 4.565-.08 5.832-3.721 6.175-5.964zm.128 3.087l-.07.145c-1.112 2.237-3.112 3.678-6.215 3.732-.04 0-.08-.001-.118-.005l-.075-.012c-.737 1.496-1.867 2.653-3.427 3.335l-.232.096.052.09c1.6 2.74 4.869 4.105 8.185 3.096l.242-.078c1.672-.557 3.608-2.507 4.165-4.178a7.763 7.763 0 00.286-3.48l-.024-.131-.226-.116c-1.023-.547-1.82-1.33-2.42-2.29l-.123-.204z" fill="#000"/><path d="M14.521 16.947c-.053 0-.105.027-.158.027-.554.079-1.082-.106-1.53-.449a.63.63 0 00-.37-.132c-.211 0-.37.106-.502.238a.59.59 0 00-.475-.264.572.572 0 00-.369.132c-.449.343-.976.554-1.53.448-.053 0-.106-.026-.159-.026l-.026.053.527.37c.766.553 1.716.79 2.613.606h.026c.343-.079.686-.21 1.003-.396l.977-.58-.027-.027zM19.245 12.303v-.026c-1.663-.027-2.111-1.188-2.138-1.24-.475.976-2.903 1.319-3.668.052l-.158.08c.132.263.264 1.556 2.164 2.665v-.027c-.554-.396-.66-.976-.634-1.557.634.845 1.663 1.399 2.032 1.399v-.027c-.686-.237-.95-.844-1.055-1.425.818.713 2.005.977 2.348.898v-.027c-.976-.132-1.213-.607-1.345-1.16.923.5 2.137.553 2.454.395z" fill="#010101"/></g></svg>