<?xml version="1.0" encoding="utf-8"?>
<!-- Generator: Adobe Illustrator 16.0.3, SVG Export Plug-In . SVG Version: 6.00 Build 0)  -->
<!DOCTYPE svg PUBLIC "-//W3C//DTD SVG 1.1//EN" "http://www.w3.org/Graphics/SVG/1.1/DTD/svg11.dtd">
<svg version="1.1" id="Layer_1" xmlns="http://www.w3.org/2000/svg" xmlns:xlink="http://www.w3.org/1999/xlink" x="0px" y="0px"
	 width="141.7px" height="141.7px" viewBox="0 0 141.7 141.7" style="enable-background:new 0 0 141.7 141.7;" xml:space="preserve"
	>
<style type="text/css">
<![CDATA[
	.st0{fill:#FFFFFF;}
	.st1{fill:#DDA448;}
]]>
</style>
<circle class="st1" cx="70.9" cy="70.9" r="70.9"/>
<g>
	<path class="st0" d="M30.6,51.6L48,79.8V51.6h4.4v35.2h-4.9L29.8,58.1v28.7h-4.5V51.6H30.6z"/>
	<path class="st0" d="M69.7,83.8c3.7,0,5.8-1.6,6.3-4.9h4.5c-0.4,2.7-1.6,4.8-3.6,6.2c-2,1.5-4.4,2.2-7.3,2.2
		c-3.6,0-6.5-1.3-8.7-3.8c-2.2-2.6-3.4-6-3.4-10.2s1.1-7.7,3.4-10.2c2.3-2.5,5.3-3.8,9-3.8s6.6,1.5,8.4,4.4
		c1.8,2.9,2.5,6.5,1.9,10.6H62c0,2.8,0.7,5,2,6.8C65.4,82.9,67.2,83.8,69.7,83.8z M72.9,63.5c-0.9-0.4-1.9-0.7-3.1-0.7
		c-2.3,0-4.1,0.8-5.4,2.3C63,66.7,62.3,68.7,62,71h14.3C76.3,67.3,75.2,64.8,72.9,63.5z"/>
	<path class="st0" d="M87,60l6.5,21.3l6.4-20h3.7l6.3,20.3l6.6-21.6h4.4l-8.7,26.8h-4.3L101.6,68l-6,18.8h-4.3L82.4,60H87z"/>
</g>
</svg>
