<?xml version="1.0" encoding="utf-8"?>
<!-- Generator: Adobe Illustrator 22.0.1, SVG Export Plug-In . SVG Version: 6.00 Build 0)  -->
<svg version="1.1" id="Layer_1" xmlns="http://www.w3.org/2000/svg" xmlns:xlink="http://www.w3.org/1999/xlink" x="0px" y="0px"
	 viewBox="0 0 1750 344" style="enable-background:new 0 0 1750 344;" xml:space="preserve">
<style type="text/css">
	.st0{fill:#FFFFFF;}
</style>
<path class="st0" d="M268.1,201.9L243.2,177v-42.9c-0.2-7.9-6.8-14.1-14.7-13.9c-7.6,0.2-13.7,6.3-13.9,13.9v14.3l-32.7-32.7
	c-5.6-5.6-14.6-5.6-20.2,0l-86.2,86.1c-5.5,5.7-5.4,14.7,0.2,20.2c5.6,5.4,14.4,5.4,20,0l76-76l76,76c5.7,5.5,14.7,5.4,20.2-0.2
	C273.4,216.3,273.4,207.5,268.1,201.9 M171.8,0C76.9,0,0,76.9,0,171.8s76.9,171.8,171.8,171.8s171.8-76.9,171.8-171.8
	S266.7,0,171.8,0 M171.8,28.6c79.1,0,143.2,64.1,143.2,143.2S250.9,315,171.8,315S28.6,250.9,28.6,171.8c0-38,15.1-74.4,41.9-101.2
	C97.3,43.6,133.8,28.5,171.8,28.6 M463.9,343.6c-6.7,0-12.1-5.4-12.1-12.1V12.1C451.8,5.4,457.3,0,464,0s12.1,5.4,12.1,12.1v319.3
	C476.1,338.1,470.7,343.6,463.9,343.6 M1742.9,282.5l6.2-13.5c-4.2-2.7-8.8-4.8-13.7-6.2c-5-1.5-10.2-2.3-15.5-2.3
	c-5.4-0.1-10.8,0.9-15.8,2.9c-4.2,1.7-7.9,4.5-10.6,8.1c-2.5,3.6-3.8,7.9-3.7,12.3c0,5.1,1.2,9.2,3.7,12.3c2.3,3,5.4,5.4,8.9,7
	c4.4,1.9,8.8,3.4,13.4,4.7c4,1.2,7.1,2.2,9.4,3.1c2.1,0.8,4.1,2,5.7,3.6c3.1,3.3,3,8.4-0.3,11.5c-0.4,0.3-0.7,0.6-1.2,0.9
	c-2.5,1.7-5.8,2.5-10.1,2.5c-4.9-0.1-9.7-1.2-14.2-3.2c-5.1-2.1-9.7-5.1-13.7-8.9l-6.5,13.1c4.6,4,9.9,7.2,15.7,9.4
	c5.9,2.3,12.1,3.5,18.4,3.5c5.5,0.1,10.9-0.9,16-2.9c4.4-1.7,8.2-4.6,10.9-8.3s4.1-8.2,4-12.8c0-5.1-1.2-9.3-3.7-12.4
	c-2.4-3.1-5.4-5.5-8.9-7.1c-4.4-1.9-8.8-3.5-13.4-4.8c-3.1-0.9-6.2-1.9-9.3-3.2c-2.1-0.9-4-2.1-5.6-3.7c-1.5-1.5-2.3-3.5-2.2-5.6
	c-0.1-2.4,1.2-4.6,3.2-5.8c2.1-1.4,5.1-2.1,8.8-2.1c3.9,0.1,7.8,0.8,11.5,2.1C1734.7,278.1,1739,280,1742.9,282.5 M1616,342.4h60.5
	v-13.5h-45.1v-20.3h39.2v-13.5h-39.2v-19.9h43.7v-13.5H1616V342.4z M1584.7,324.6c-2.7,1.6-5.7,2.9-8.7,3.7
	c-2.8,0.9-5.8,1.3-8.7,1.3c-4.9,0.1-9.8-1.2-14.1-3.7c-4.2-2.4-7.6-5.8-10.1-10c-7.7-13-3.4-29.8,9.6-37.5c0.1-0.1,0.2-0.1,0.4-0.2
	c4.3-2.4,9.1-3.7,14-3.6c4.2,0,8.3,0.8,12.2,2.4c4,1.6,7.6,3.9,10.7,6.8l8.8-11.4c-4.3-3.7-9.2-6.6-14.5-8.5
	c-5.5-2-11.2-3.1-17.1-3.1c-7.7-0.1-15.3,1.8-22.1,5.5c-6.4,3.5-11.9,8.6-15.7,14.8c-3.8,6.3-5.8,13.5-5.8,20.9
	c-0.1,7.4,1.9,14.6,5.6,21c3.7,6.3,9,11.4,15.4,15c6.6,3.7,14,5.6,21.6,5.5c5.8,0,11.5-1,16.9-2.9c5.4-1.8,10.4-4.3,15-7.7v-30.6
	h-13.5L1584.7,324.6L1584.7,324.6z M1487.3,261.8h-16l-35.4,80.7h16l7.1-17.1h39.4l7.1,17.1h16.6L1487.3,261.8L1487.3,261.8z
	 M1464.6,312.1l14.3-33.9l14.1,33.9H1464.6z M1377.4,275.5h25.1v66.9h15.5v-66.9h25.1v-13.7h-65.8v13.7H1377.4z M1307.3,275.5h25.1
	v66.9h15.6v-66.9h25.1v-13.7h-65.8L1307.3,275.5L1307.3,275.5z M1298.9,281c-3.7-6.3-9.1-11.4-15.5-14.9c-13.7-7.2-30-7.2-43.7,0
	c-19.9,11.1-27,36.3-15.9,56.2c0.1,0.2,0.3,0.5,0.4,0.7c3.7,6.3,9.1,11.5,15.5,15c13.6,7.4,30,7.4,43.7,0c6.4-3.5,11.8-8.7,15.5-15
	C1306.4,310,1306.4,294,1298.9,281L1298.9,281z M1285.1,315.9c-2.3,4.1-5.7,7.6-9.8,10s-8.7,3.7-13.5,3.7s-9.5-1.2-13.6-3.7
	c-4.1-2.4-7.6-5.9-10-10c-7.7-13-3.4-29.9,9.7-37.6c4.2-2.5,9.1-3.8,14-3.8c4.7,0,9.4,1.2,13.5,3.6s7.5,5.8,9.8,9.9
	c2.4,4.2,3.7,9,3.6,13.9C1288.8,306.9,1287.6,311.7,1285.1,315.9z M1204.8,285l9-11.3c-4-4.1-8.8-7.4-14.2-9.6
	c-12.5-5.2-26.7-4.5-38.5,2c-6.4,3.5-11.7,8.6-15.4,14.9c-3.8,6.3-5.7,13.6-5.6,21c-0.1,7.4,1.8,14.6,5.5,21
	c3.6,6.3,8.9,11.4,15.2,15c6.5,3.7,13.8,5.6,21.3,5.5c5.9,0,11.7-1.3,17.1-3.7c5.5-2.4,10.5-5.9,14.7-10.2l-9.1-10.1
	c-3,3-6.5,5.3-10.3,7c-3.6,1.6-7.6,2.5-11.6,2.5c-4.8,0-9.6-1.2-13.7-3.6s-7.5-5.8-9.8-9.9c-4.8-8.6-4.8-19,0-27.5
	c2.3-4.1,5.7-7.5,9.8-9.8c7.9-4.5,17.4-4.8,25.5-0.8C1198.6,279.1,1202,281.7,1204.8,285 M1081.1,261.8l-21.7,37.9l-22-37.9h-15.7
	l30.1,54.8v25.8h15.4V316l29.4-54.3L1081.1,261.8L1081.1,261.8z M993,261.8h-16l-35.4,80.7h16l7.1-17.1h39.4l7.1,17.1h16.6
	L993,261.8L993,261.8z M970.3,312.1l14.3-33.9l14.1,33.9H970.3L970.3,312.1z M934.8,281.2c-3.6-6.1-8.8-11.1-15-14.3
	c-6.7-3.5-14.1-5.3-21.7-5.1h-33.5v80.7h33c7.7,0.1,15.2-1.7,22-5.2c6.3-3.3,11.5-8.3,15.1-14.3c3.7-6.3,5.6-13.5,5.5-20.8
	C940.3,294.8,938.4,287.6,934.8,281.2L934.8,281.2z M921.1,316c-2.1,4-5.4,7.2-9.3,9.4c-4.1,2.3-8.7,3.5-13.3,3.4H880v-53.5h17.9
	c4.7-0.1,9.4,1.1,13.5,3.4c4,2.2,7.3,5.6,9.5,9.6C925.5,297,925.6,307.3,921.1,316L921.1,316z M829.3,261.7h15.4v80.7h-15.4V261.7z
	 M767,342.4h50.2v-13.9h-34.8v-66.7H767V342.4L767,342.4z M747.8,281c-3.7-6.3-9.1-11.4-15.5-14.9c-13.7-7.2-30-7.2-43.7,0
	c-19.9,11.1-27,36.3-15.9,56.2c0.1,0.2,0.3,0.5,0.4,0.7c3.7,6.3,9.1,11.5,15.5,15c13.6,7.4,30,7.4,43.7,0c6.4-3.5,11.8-8.7,15.5-15
	C755.3,310,755.3,294,747.8,281L747.8,281z M734,315.9c-2.3,4.1-5.7,7.6-9.8,10s-8.7,3.7-13.5,3.7s-9.5-1.2-13.7-3.7
	c-4.1-2.4-7.6-5.9-10-10c-7.7-13-3.4-29.9,9.7-37.6c4.2-2.5,9.1-3.8,14-3.8c4.7,0,9.4,1.2,13.5,3.6s7.5,5.8,9.8,9.9
	c2.4,4.2,3.7,9,3.6,13.9C737.7,306.9,736.4,311.7,734,315.9z M582.8,342.4h15.4v-32.7h40.2v32.7h15.4v-80.7h-15.4v34.4h-40.2v-34.4
	h-15.4V342.4z M1726.5,72.9l23.5-49.5c-11.2-7.1-24.4-12.7-39.5-17c-14.9-4.2-30.2-6.4-45.7-6.4c-16.8,0-31.5,2.6-44.1,7.8
	c-12.7,5.2-22.4,12.7-29.3,22.5s-10.3,21.2-10.3,34.2c0,13.4,3.4,24.1,10.1,32.1c6.4,7.8,14.6,13.9,23.9,17.8
	c11.3,4.5,22.8,8.1,34.6,11c11.3,2.8,19.7,5.5,25,8s8,6,8,10.5c0,3.7-1.4,6.5-4.2,8.2s-6.6,2.6-11.5,2.6c-10.1,0-22.5-3-37.4-9.1
	s-27.3-13.4-37.2-21.9l-24,48.9c12.9,9.9,28.1,17.7,45.7,23.3c16.9,5.6,34.6,8.4,52.4,8.5c15.3,0,29.1-2.3,41.6-7
	s22.4-11.8,29.8-21.4c7.3-9.6,11-21.5,11-35.6c0-13.8-3.4-24.9-10.3-33.4c-6.4-8.1-14.7-14.5-24.2-18.6c-11.3-4.6-23-8.6-34.8-11.7
	c-11.2-3-19.3-5.7-24.4-8.1s-7.7-5.9-7.8-10.3c0-5.8,4-8.7,12-8.7c8.2,0,18.8,2.3,31.9,7C1703.3,61.1,1715.1,66.5,1726.5,72.9
	 M1339.4,200.9h168.2v-49.2h-103.4v-24.3h91.6V78.2h-91.6v-24h100.9V5h-165.7V200.9z M1203.6,83.3L1273.8,5h-74.6l-58.4,71.5V5H1076
	v195.9h64.8v-47.5l18.4-20.7l41.4,68.2h77.4L1203.6,83.3z M952.7,5l-38,75.4L875.3,5h-64.5l71.5,136.4v59.5h64.8V140l70.1-135H952.7
	L952.7,5z M741.2,72.9l23.5-49.5c-11.2-7.1-24.4-12.7-39.5-17C710.3,2.2,694.9,0,679.4,0c-16.8,0-31.5,2.6-44.2,7.8
	s-22.5,12.7-29.3,22.5c-6.9,9.8-10.3,21.2-10.3,34.2c0,13.4,3.4,24.1,10.1,32.1c6.4,7.8,14.6,13.9,23.9,17.8
	c11.2,4.5,22.8,8.1,34.5,11c11.3,2.8,19.7,5.5,25,8s8,6,8,10.5c0,3.7-1.4,6.5-4.2,8.2s-6.6,2.6-11.4,2.6c-10.1,0-22.5-3-37.4-9.1
	s-27.3-13.4-37.2-21.9l-24,48.9c12.9,9.9,28.1,17.7,45.7,23.3c16.9,5.6,34.6,8.4,52.4,8.5c15.3,0,29.2-2.3,41.6-7
	c12.5-4.7,22.4-11.8,29.8-21.4c7.3-9.6,11-21.5,11-35.6c0-13.8-3.4-24.9-10.3-33.4c-6.4-8.1-14.7-14.5-24.2-18.6
	c-11.3-4.6-23-8.6-34.8-11.7c-11.2-3-19.3-5.7-24.4-8.1s-7.7-5.8-7.7-10.3c0-5.8,4-8.7,12-8.7c8.2,0,18.8,2.3,31.8,7
	C718,61.1,729.9,66.5,741.2,72.9"/>
</svg>
