<svg xmlns="http://www.w3.org/2000/svg" width="16.753" height="15.561" viewBox="0 0 16.753 15.561">
  <path id="Path_12175" data-name="Path 12175" d="M387.97,291.691c-1.853-.11-3.707-.21-5.559-.341a2.851,2.851,0,0,1-1.036-.271c-1.064-.516-1.471-1.648-1.575-3.075a61.278,61.278,0,0,1-.052-7.52,16.208,16.208,0,0,1,.2-1.775,2.5,2.5,0,0,1,2.022-2.248c1.787-.161,3.579-.3,5.369-.328,1.855-.026,3.711.084,5.565.165a7.67,7.67,0,0,1,1.519.238,2.348,2.348,0,0,1,1.659,2.116,28.186,28.186,0,0,1,.322,5.446c-.032,1.542-.121,3.088-.265,4.619-.135,1.431-.929,2.444-2.01,2.543-1.849.169-3.7.24-5.556.349-.2.012-.4,0-.594,0Zm2.657-7.828-4.181-3.437V287.3Z" transform="translate(-379.657 -276.13)" fill="#004f99"/>
</svg>
