<svg width="123" height="48" fill="none" xmlns="http://www.w3.org/2000/svg"><path fill-rule="evenodd" clip-rule="evenodd" d="M35.555 5.56a22.517 22.517 0 0 0-10.57-2.606c-12.1 0-21.91 9.423-21.91 21.046s9.81 21.046 21.91 21.046S46.893 35.624 46.893 24c0-2.651-.51-5.188-1.442-7.524-.363.234-.74.456-1.134.668l-.379.201-.24.124c-.072.037-.137.07-.196.097l-.109.051-.315.14-.177.074a1.221 1.221 0 0 1-.773.028l-.042-.014-.096-.036-.167-.07a12.667 12.667 0 0 1-.136-.06l-.16-.073-.52-.26-.382-.204a16.536 16.536 0 0 1-1.243-.739 14.05 14.05 0 0 1-1.308-.988 9.365 9.365 0 0 1-1.244-1.249 6.292 6.292 0 0 1-.901-1.51 4.498 4.498 0 0 1-.375-1.78V5.561z" fill="#4F4F51"/><path fill-rule="evenodd" clip-rule="evenodd" d="M24.984 48C38.783 48 49.97 37.255 49.97 24c0-3.405-.739-6.645-2.07-9.58-.3.341-.644.672-1.028.995-.157.132-.31.257-.46.375A21.333 21.333 0 0 1 48.047 24c0 12.235-10.326 22.154-23.063 22.154-12.737 0-23.062-9.919-23.062-22.154S12.247 1.846 24.984 1.846c3.81 0 7.404.888 10.57 2.459v-.496c0-.312.128-.593.365-.812.078-.073.29-.175.596-.294A25.701 25.701 0 0 0 24.985 0C11.184 0 0 10.745 0 24s11.186 24 24.984 24z" fill="#C6C7C9"/><path d="M1.226 21.046c-.022.253.112.533-.16.739l.16-.739z" fill="#E4E4E5"/><path d="M67.65 30.44c0 1.773 0 1.76-1.849 2.008a6.115 6.115 0 0 1-2.162-.125c-1.372-.27-2.394-1.392-2.501-2.75-.168-1.4.633-2.742 1.967-3.296 1.211-.527 2.464-.515 3.74-.26.38.077.654.201.417.651-.156.304.017.884-.726.624a3.501 3.501 0 0 0-1.61-.152c-1.45.192-2.183.981-2.075 2.236.098 1.12 1.103 1.868 2.433 1.852.594-.008.896-.178.83-.831-.04-.385-.138-.573-.543-.514-.563.082-.674-.171-.69-.68-.021-.626.355-.554.747-.55h.156c1.866-.003 1.866-.003 1.866 1.786zM95.09 25.846c.32.008.64.03.957.07.936.15.98.265.66 1.115-.116.31-.217.374-.557.25a2.757 2.757 0 0 0-1.64-.14c-.26.066-.52.186-.56.47-.04.286.181.461.436.562.512.2 1.042.367 1.55.574.828.336 1.332.908 1.31 1.79-.022.84-.61 1.5-1.57 1.775-.963.274-1.885.207-2.832-.008-.549-.126-.697-.354-.528-.891.16-.486.293-.662.84-.422a2.947 2.947 0 0 0 1.797.15c.306-.064.542-.215.574-.54a.565.565 0 0 0-.412-.583c-.362-.15-.741-.266-1.116-.39-1.308-.44-1.873-1.131-1.713-2.1.16-.97 1.072-1.61 2.328-1.662h.479l-.003-.02z" fill="#0066B2"/><path d="M108.957 28.067c.776-.724 1.579-.907 2.454-.604.904.32 1.138 1.08 1.178 1.892.04.776 0 1.558.032 2.334.021.564-.401.414-.713.42-.311.006-.721.115-.695-.438.032-.701.019-1.407 0-2.116-.017-.773-.392-1.208-1.003-1.219-.612-.01-1.11.493-1.124 1.209-.015.653-.044 1.309 0 1.964.041.537-.206.628-.696.605-.436-.015-.756 0-.727-.58.055-1.13 0-2.267.03-3.391 0-.238-.272-.664.273-.714.445-.02.969-.133.991.638z" fill="#0267B3"/><path d="M71.513 36.428c-.693.054-1.218.05-1.768-.222a2.142 2.142 0 0 0-2.232.18c-.698.473-.708 1.22-.056 1.74.87.697 2.31.517 3.024-.476h-1.517c-.225 0-.451-.06-.445-.322.007-.262.237-.308.46-.308.837 0 1.674.01 2.512 0 .406-.01.419.226.364.5A1.52 1.52 0 0 1 71 38.566c-1.443.748-2.918.77-4.351.016-1.236-.65-1.218-1.902-.013-2.599a4.393 4.393 0 0 1 4.876.444z" fill="#0367B3"/><path d="M74.727 37.523c.42-.641.787-1.198 1.146-1.761.118-.185.231-.347.483-.303.223.04.26.235.31.402.277.862.56 1.717.797 2.594.05.181.411.528-.053.606-.323.054-.806.25-.978-.313-.143-.468-.27-.928-.416-1.438-.4.346-.548.802-.812 1.175-.322.454-.641.477-.953.01-.255-.38-.483-.781-.785-1.262-.169.55-.32.986-.433 1.433-.074.3-.217.412-.532.427-.54.024-.766-.071-.53-.686.31-.818.545-1.67.805-2.51.06-.196.07-.424.341-.45.247-.02.365.157.48.33.365.568.727 1.125 1.13 1.746z" fill="#0166B3"/><path d="M91.081 28.93c0 1.026-.029 2.052.013 3.075.021.537-.351.494-.748.48-.36-.01-.792.113-.787-.446.022-2.025.026-4.048 0-6.072 0-.617.452-.453.839-.483.458-.035.72.045.698.527-.042.972-.015 1.947-.015 2.92z" fill="#0669B4"/><path d="M69.942 29.01c0 .976-.031 1.954.013 2.932.025.56-.23.538-.583.55-.382.01-.576-.05-.569-.572.029-1.976.029-3.954 0-5.931-.008-.6.311-.479.622-.506.359-.031.54.05.526.527-.032.997-.009 2-.009 3z" fill="#0066B2"/><path d="M54.621 4.061v40.616h-.08V4.08l.08-.019z" fill="#BEBEBE"/><path d="M99.915 30.138c0 .589-.052 1.183.015 1.767.07.607-.336.561-.811.584-.539.026-.727-.108-.718-.594a52.663 52.663 0 0 0 0-3.69c-.022-.593.398-.49.81-.509.45-.021.74.028.706.52-.03.636-.002 1.278-.002 1.922z" fill="#0066B2"/><path d="M99.938 26.171c-.024.473-.277.753-.72.78-.471.028-.805-.217-.818-.736-.012-.481.307-.727.738-.738.431-.01.721.23.8.694z" fill="#086AB5"/><path d="M64.159 38.142c.39-.246.09-.987.663-.8.343.112-.058.58-.118.893-.072.314-.173.62-.302.918-.102.264-.338.438-.608.314-.364-.168-.032-.287.064-.467.195-.367-.182-.69-.23-1.041-.028-.216-.407-.493-.061-.631.407-.164.378.28.49.5.04.102.074.207.102.313z" fill="#1371B8"/><path d="M25.1 35.077h-8.427c-1.067 0-1.296-.227-1.298-1.269V22.323c0-1.004.261-1.29 1.32-1.236.682.034.754-.234.76-.789.018-1.397-.169-2.807.172-4.194.873-3.558 4.5-6.093 8.21-5.731 3.933.381 6.927 3.394 7.071 7.136.04.993.048 1.992.038 2.984 0 .401.075.582.56.59 1.353.018 1.472.164 1.472 1.479v11.177c0 1.139-.206 1.338-1.386 1.338H25.1z" fill="#FEFEFE"/><path fill-rule="evenodd" clip-rule="evenodd" d="M105.672 27.427c.066.012.129.024.188.031.278.036.239.225.202.402-.012.061-.025.12-.023.172 0 .325.003.65.007.976.01.973.02 1.944-.05 2.91-.118 1.694-.947 2.375-2.722 2.419a5.534 5.534 0 0 1-1.449-.156c-.446-.107-.677-.26-.514-.808.143-.464.35-.378.576-.283.067.028.136.056.205.071.311.084.629.138.951.164 1.144.032 1.658-.513 1.581-1.634-1.419.805-2.634.68-3.448-.356-.757-.967-.576-2.556.382-3.401.794-.7 1.875-.807 2.852-.277.037.022.071.05.105.078.122.103.229.192.383-.132.137-.291.477-.23.774-.176zm-3.596 2.414c.013.774.594 1.4 1.315 1.424.794.026 1.256-.505 1.256-1.46.005-1.004-.387-1.49-1.201-1.49-.788-.002-1.39.67-1.37 1.526z" fill="#0166B3"/><path fill-rule="evenodd" clip-rule="evenodd" d="M80.906 27.57a2.162 2.162 0 0 1 1.67.864c.706.967.562 2.617-.307 3.422-.912.85-2.179.855-3.378-.025.011.627-.397.583-.772.542l-.138-.014c-.42-.034-.353-.267-.292-.486.022-.076.043-.15.043-.214-.008-.788-.006-1.576-.004-2.363.003-1.051.006-2.102-.014-3.153-.01-.544.174-.652.706-.665.591-.017.618.251.602.677-.011.43-.008.86-.004 1.316.002.237.004.482.004.737.593-.42 1.19-.691 1.884-.638zm-1.884 2.454c-.011.904.495 1.468 1.312 1.46.807-.009 1.346-.597 1.344-1.466-.001-.869-.534-1.461-1.34-1.463-.806-.001-1.305.566-1.316 1.47z" fill="#0066B2"/><path fill-rule="evenodd" clip-rule="evenodd" d="M71.494 29.973c0-1.598 1.03-2.62 2.678-2.65 1.605-.028 2.708.984 2.703 2.515.01 1.567-1.073 2.632-2.686 2.654-1.613.022-2.695-.988-2.695-2.52zm1.317-.095c-.02.905.581 1.661 1.339 1.661.803 0 1.337-.634 1.337-1.628 0-.994-.53-1.633-1.337-1.61-.764.019-1.319.671-1.34 1.577zM88.36 30.948c.004.23.008.46-.005.688-.004.069.01.149.025.229.036.198.072.398-.159.448-.04.008-.08.018-.123.029-.308.074-.686.165-.904-.177-.157-.243-.234-.199-.409-.063-.129.095-.27.171-.421.227-1.033.406-2.176.025-2.473-.817-.34-.963.234-1.872 1.413-2.19.212-.058.432-.085.653-.112.153-.019.306-.038.457-.067a.725.725 0 0 1 .171-.002c.159.01.322.02.35-.21.033-.265-.168-.438-.392-.55-.498-.245-1.01-.12-1.494.017a2.313 2.313 0 0 0-.166.055c-.26.095-.484.176-.626-.292-.138-.455.12-.52.376-.583.063-.016.125-.031.181-.052.432-.153.89-.22 1.348-.2 1.46.028 2.166.729 2.193 2.166v1.113c0 .114.002.229.004.343zm-1.68.295c.23-.205.368-.491.383-.795h-.002c.026-.315-.048-.485-.44-.468-.846.038-1.493.415-1.455.924a.64.64 0 0 0 .202.455c.126.12.295.184.47.18.31.015.613-.091.843-.296z" fill="#0166B3"/><path fill-rule="evenodd" clip-rule="evenodd" d="M78.648 36.175c1.208-.958 3.622-.972 4.851-.04.928.708.905 1.708-.069 2.359-.72.475-1.522.644-2.444.644-.775-.028-1.582-.19-2.281-.694-.883-.638-.902-1.598-.057-2.269zm.623 1.088c-.022.682.762 1.272 1.746 1.312.998.04 1.95-.609 1.93-1.3-.02-.69-.89-1.28-1.881-1.272-.966.017-1.773.578-1.795 1.26z" fill="#0267B3"/><path fill-rule="evenodd" clip-rule="evenodd" d="M62.324 36.796c-.046.417.12.432.437.447.535.025.692.535.656 1.046-.035.512-.276.79-.78.84-.805.082-.772-.408-.74-.88.01-.139.019-.277.006-.397v-1.023c.002-.148.066-.275.194-.275s.244.077.227.242zm-.002 1.408c.006.236.079.426.31.44h.007c.285.02.33-.225.336-.478a.495.495 0 0 0-.075-.333.377.377 0 0 0-.26-.17c-.272.062-.323.304-.318.54z" fill="#096BB5"/><path d="M25.555 21.78h-4.933c-.318 0-.646.044-.622-.445.07-1.48-.134-2.971.116-4.447.506-2.907 2.893-4.83 5.826-4.697 2.671.122 4.98 2.45 5.146 5.263.075 1.276.011 2.562.046 3.841.011.445-.2.493-.573.49-1.664-.013-3.337-.005-5.006-.005zM25.166 32.48c-1.4 0-1.402 0-1.288-1.355.03-.358.088-.712.113-1.069.063-.879.32-1.696-.507-2.517-.772-.758-.41-2.095.491-2.776a2.083 2.083 0 0 1 2.78.309c.737.788.71 2.02-.059 2.776-.39.369-.463.699-.388 1.201.146.909.166 1.837.31 2.745.089.559-.061.75-.618.687a7.412 7.412 0 0 0-.834-.002z" fill="#4F4F51"/><path d="M62.23 16.852c.046.796.238 1.442.575 1.938.641.93 1.776 1.393 3.403 1.392a6.09 6.09 0 0 0 1.985-.306c1.154-.394 1.731-1.099 1.733-2.116 0-.763-.245-1.307-.735-1.632-.489-.324-1.266-.6-2.33-.83l-1.945-.429c-1.271-.28-2.172-.586-2.701-.918-.914-.585-1.371-1.46-1.371-2.623 0-1.26.45-2.294 1.348-3.1.899-.808 2.17-1.212 3.813-1.213 1.513 0 2.8.357 3.859 1.072 1.06.714 1.59 1.847 1.588 3.4h-1.897c-.098-.757-.304-1.34-.62-1.748-.587-.731-1.585-1.097-2.993-1.097-1.135 0-1.952.236-2.45.707a2.191 2.191 0 0 0-.746 1.64c0 .688.294 1.19.88 1.508.386.204 1.257.46 2.614.765l2.016.456c.973.217 1.723.513 2.251.888.914.655 1.371 1.606 1.371 2.852 0 1.552-.582 2.662-1.748 3.33-1.166.669-2.519 1-4.058.997-1.8 0-3.208-.446-4.227-1.336-1.019-.891-1.518-2.09-1.497-3.597h1.883z" fill="#000"/><path fill-rule="evenodd" clip-rule="evenodd" d="M82.544 12.886a3.96 3.96 0 0 0-1.6-1.308 4.927 4.927 0 0 0-2.176-.501c-1.48-.004-2.678.502-3.594 1.517-.916 1.015-1.374 2.336-1.374 3.962 0 1.65.455 2.934 1.365 3.852a4.506 4.506 0 0 0 3.328 1.376c.485.006.97-.045 1.442-.152a4.156 4.156 0 0 0 1.99-1.02c.35-.328.643-.706.87-1.121.233-.383.39-.805.46-1.243H81.51c-.12.438-.344.844-.653 1.186-.548.59-1.283.885-2.204.885-.989-.001-1.718-.313-2.187-.934-.469-.622-.72-1.45-.754-2.48h7.697c0-1.02-.053-1.765-.159-2.232a4.411 4.411 0 0 0-.707-1.787zm-1.456.898c.29.55.457 1.153.49 1.769h-5.82a3.138 3.138 0 0 1 .872-2.15 2.728 2.728 0 0 1 2.038-.847c1.13 0 1.937.41 2.42 1.228z" fill="#000"/><path d="M92.8 11.904c.76.555 1.218 1.51 1.372 2.864h-1.766a2.977 2.977 0 0 0-.736-1.556c-.383-.412-.996-.618-1.84-.618-1.154 0-1.978.528-2.473 1.586-.323.687-.484 1.533-.484 2.539 0 1.005.228 1.857.684 2.557.457.693 1.174 1.04 2.152 1.038.752 0 1.348-.215 1.785-.644.438-.43.741-1.018.91-1.765h1.76c-.201 1.342-.704 2.323-1.508 2.943-.805.62-1.832.931-3.083.937-1.408 0-2.531-.484-3.368-1.451-.836-.967-1.256-2.175-1.258-3.623 0-1.777.46-3.16 1.378-4.149.87-.968 2.16-1.514 3.51-1.484 1.21-.004 2.199.271 2.964.826zM97.542 11.077V18c-.017.448.07.893.252 1.304.31.625.89.938 1.737.938 1.216 0 2.044-.546 2.483-1.637.239-.585.359-1.386.359-2.404v-5.124h1.793V21.5h-1.694l.019-1.54a3.485 3.485 0 0 1-.85 1.004 3.75 3.75 0 0 1-2.442.818c-1.491 0-2.508-.496-3.05-1.49-.293-.533-.44-1.244-.44-2.132v-7.084h1.833zM107.241 11.304h1.767v1.747c.143-.34.498-.753 1.064-1.242a2.893 2.893 0 0 1 2.128-.723l.422.038v1.795c-.1-.018-.201-.03-.303-.037-.093 0-.196-.01-.305-.01-.938 0-1.656.276-2.155.826a2.74 2.74 0 0 0-.754 1.903v5.814h-1.864v-10.11z" fill="#000"/><path fill-rule="evenodd" clip-rule="evenodd" d="M122.136 12.886a3.975 3.975 0 0 0-1.601-1.308 4.935 4.935 0 0 0-2.174-.501c-1.481-.004-2.679.502-3.596 1.517-.916 1.015-1.374 2.336-1.374 3.962 0 1.65.455 2.934 1.365 3.852a4.509 4.509 0 0 0 3.329 1.376c.485.006.969-.045 1.441-.152a4.156 4.156 0 0 0 1.992-1.02c.35-.328.644-.706.872-1.121.233-.383.388-.805.458-1.243h-1.744a2.972 2.972 0 0 1-.653 1.186c-.549.59-1.285.885-2.207.885-.988-.001-1.717-.313-2.188-.934-.472-.622-.723-1.45-.755-2.48H123c0-1.02-.053-1.765-.159-2.232a4.42 4.42 0 0 0-.705-1.787zm-1.468.898c.293.55.464 1.153.501 1.769h-5.832a3.134 3.134 0 0 1 .872-2.15 2.73 2.73 0 0 1 2.039-.847c1.13 0 1.937.41 2.42 1.228z" fill="#000"/><path d="M48.122 3.782l-.241-.09a21.01 21.01 0 0 0-.191-.068l-.182-.063-.386-.129c-.333-.109-.69-.22-1.049-.325l-.34-.098c-1.346-.38-2.494-.609-3.193-.609-.75 0-1.998.25-3.451.66l-.389.111c-.438.13-.867.264-1.247.392l-.354.121c-.107.038-.202.073-.282.103l-.11.042v7.047c0 .454.096.906.29 1.359.201.472.45.888.743 1.249.304.373.669.74 1.095 1.097.436.367.836.67 1.199.908.295.193.6.379.916.556l.24.13.36.193.492.246.135.061.116.052.133.056.045.017.01-.001.125-.052.3-.133.14-.067c.093-.046.206-.103.338-.173l.373-.198c.402-.216.787-.445 1.156-.687.363-.239.763-.541 1.2-.908.425-.358.79-.724 1.094-1.097.294-.36.541-.777.743-1.25a3.43 3.43 0 0 0 .289-1.358V3.828l-.117-.046z" fill="#979797"/><path d="M48.122 3.782l-.241-.09a21.01 21.01 0 0 0-.191-.068l-.182-.063-.386-.129c-.333-.109-.69-.22-1.049-.325l-.34-.098c-1.346-.38-2.494-.609-3.193-.609-.75 0-1.998.25-3.451.66l-.389.111c-.438.13-.867.264-1.247.392l-.354.121c-.107.038-.202.073-.282.103l-.11.042v7.047c0 .454.096.906.29 1.359.201.472.45.888.743 1.249.304.373.669.74 1.095 1.097.436.367.836.67 1.199.908.295.193.6.379.916.556l.24.13.36.193.492.246.135.061.116.052.133.056.045.017.01-.001.125-.052.3-.133.14-.067c.093-.046.206-.103.338-.173l.373-.198c.402-.216.787-.445 1.156-.687.363-.239.763-.541 1.2-.908.425-.358.79-.724 1.094-1.097.294-.36.541-.777.743-1.25a3.43 3.43 0 0 0 .289-1.358V3.828l-.117-.046z" fill="#4F4F51"/><path fill-rule="evenodd" clip-rule="evenodd" d="M40.13 7.071a.906.906 0 0 0-.957-.291.579.579 0 0 0-.361.34.826.826 0 0 0-.056.316c0 .21.066.373.197.487.11.096.248.187.415.275l.104.052c.127.06.256.13.387.21.131.08.25.176.358.288.107.112.195.245.263.4.068.154.102.336.102.547 0 .243-.04.458-.12.645a1.43 1.43 0 0 1-.322.474c-.134.128-.29.226-.47.291-.181.065-.37.098-.57.098-.288 0-.553-.054-.797-.161a1.675 1.675 0 0 1-.584-.407l.475-.617a1.206 1.206 0 0 0 .89.42c.186 0 .34-.06.461-.182.122-.122.183-.292.183-.512a.642.642 0 0 0-.22-.512 2.349 2.349 0 0 0-.446-.296l-.108-.055a3.355 3.355 0 0 1-.399-.217 1.502 1.502 0 0 1-.328-.285A1.28 1.28 0 0 1 38 7.994a1.492 1.492 0 0 1-.084-.53c0-.257.043-.478.128-.663.085-.185.197-.338.336-.46a1.36 1.36 0 0 1 .471-.27 1.904 1.904 0 0 1 1.238.035c.207.082.381.203.522.362l-.482.603zm3.4 0a.906.906 0 0 0-.957-.291.579.579 0 0 0-.361.34.828.828 0 0 0-.055.316c0 .21.066.373.197.488.11.095.248.186.415.274l.104.052c.126.06.255.13.387.21.131.08.25.176.358.288.107.112.194.245.263.4.068.154.102.336.102.547 0 .243-.04.458-.12.645a1.43 1.43 0 0 1-.322.474c-.134.129-.29.226-.471.291-.18.066-.37.098-.57.098-.287 0-.552-.054-.796-.161a1.676 1.676 0 0 1-.584-.407l.475-.617a1.202 1.202 0 0 0 .89.42c.186 0 .34-.06.46-.182.123-.122.183-.292.183-.512a.642.642 0 0 0-.219-.512 2.349 2.349 0 0 0-.446-.296l-.109-.055a3.346 3.346 0 0 1-.398-.217 1.503 1.503 0 0 1-.328-.284 1.28 1.28 0 0 1-.227-.386 1.492 1.492 0 0 1-.084-.53c0-.257.043-.478.128-.663.085-.185.197-.338.336-.46.139-.121.296-.211.471-.27a1.904 1.904 0 0 1 1.238.035c.207.082.38.203.522.362l-.482.603zm1.37-.961v4.967h2.308v-.779h-1.424V6.11H44.9z" fill="#fff"/></svg>
