<svg xmlns="http://www.w3.org/2000/svg" width="13.313" height="13.249" viewBox="0 0 13.313 13.249">
  <g id="phone_icon" data-name="phone icon" transform="translate(-1639.258 -505.186)">
    <path id="Path_1" data-name="Path 1" d="M1648.82,517.81c-1.453,0-3.327-.8-5.7-3.175-4.277-4.278-3.455-6.94-2.011-8.421a1.41,1.41,0,0,1,.99-.4l1.01.024a.816.816,0,0,1,.733.5l1.056,2.553a.851.851,0,0,1,.025.587,3.633,3.633,0,0,1-.925,1.417,12.05,12.05,0,0,0,2.864,2.865,3.568,3.568,0,0,1,1.414-.924.841.841,0,0,1,.588.021l2.554,1.057a.817.817,0,0,1,.5.731l.023,1.014a1.346,1.346,0,0,1-.4.99A3.833,3.833,0,0,1,1648.82,517.81Zm2.181-2.89h0Zm-2.384-1.05h0Zm-4.725-4.563v0Zm-.809-2.381h0Z" transform="translate(0 0)" fill="none" stroke="#000" stroke-width="1.25"/>
  </g>
</svg>
