<?xml version="1.0" encoding="utf-8"?>
<!-- Generator: Adobe Illustrator 23.0.3, SVG Export Plug-In . SVG Version: 6.00 Build 0)  -->
<svg version="1.1" id="Layer_1" xmlns="http://www.w3.org/2000/svg" xmlns:xlink="http://www.w3.org/1999/xlink" x="0px" y="0px"
	 viewBox="0 0 203.14 42.16" style="enable-background:new 0 0 203.14 42.16;" xml:space="preserve">
<style type="text/css">
	.st0{fill:#FFFFFF;}
</style>
<g id="Artwork_1_1_">
	<g>
		<path class="st0" d="M153.02,1.48c-0.94-0.78-2.2-1.18-3.77-1.18h-1.21c-1.49,0-2.73,0.4-3.71,1.21c-0.99,0.81-1.48,2.27-1.48,4.4
			v19.31c0,2.13,0.49,3.6,1.48,4.41c0.98,0.8,2.26,1.2,3.83,1.2h1.2c1.49,0,2.71-0.41,3.65-1.24c0.95-0.82,1.42-2.28,1.42-4.37V5.91
			C154.43,3.74,153.96,2.26,153.02,1.48z"/>
		<path class="st0" d="M186.21,3.56c-0.85-1.09-1.94-1.95-3.29-2.6C181.58,0.32,179.93,0,178.01,0c-2.41,0-4.4,0.51-5.94,1.54
			c-1.55,1.03-2.84,2.34-3.89,3.95c-0.28-1.01-0.65-1.84-1.12-2.5c-0.46-0.67-0.99-1.2-1.59-1.6c-0.61-0.4-1.24-0.69-1.9-0.84
			c-0.67-0.16-1.34-0.24-2.02-0.24c-1.17,0-2.21,0.17-3.11,0.51c-0.9,0.34-1.36,0.61-1.36,0.81v23.59c0,2.13,0.49,3.6,1.47,4.41
			c0.99,0.8,2.25,1.2,3.77,1.2h1.21c1.49,0,2.72-0.4,3.68-1.2c0.96-0.8,1.44-2.27,1.44-4.41V11.82c0.44-0.68,1.05-1.26,1.81-1.72
			c0.76-0.46,1.67-0.7,2.72-0.7c1.2,0,2.15,0.4,2.83,1.18c0.68,0.78,1.03,1.86,1.03,3.23v11.4c0,2.13,0.49,3.6,1.48,4.41
			c0.98,0.8,2.26,1.2,3.83,1.2h1.14c1.52,0,2.76-0.41,3.71-1.24c0.95-0.82,1.42-2.28,1.42-4.37V11.82c0-1.57-0.19-3.07-0.58-4.49
			C187.66,5.9,187.05,4.64,186.21,3.56z"/>
		
			<ellipse transform="matrix(0.7071 -0.7071 0.7071 0.7071 40.1047 146.3261)" class="st0" cx="196.68" cy="24.75" rx="6.46" ry="6.46"/>
		<path class="st0" d="M64.1,4.31c-1.42-1.39-3.13-2.45-5.12-3.2C56.98,0.37,54.76,0,52.31,0c-2.45,0-4.7,0.37-6.73,1.11
			c-2.03,0.75-3.77,1.8-5.22,3.17c-1.44,1.37-2.56,3.02-3.34,4.95c-0.79,1.93-1.18,4.07-1.18,6.39c0,2.42,0.38,4.59,1.14,6.52
			c0.77,1.93,1.85,3.58,3.26,4.95c1.41,1.37,3.12,2.42,5.13,3.17c2.01,0.74,4.26,1.11,6.76,1.11c2.49,0,4.74-0.37,6.75-1.11
			c2.01-0.75,3.73-1.8,5.15-3.17c1.43-1.37,2.54-3.02,3.32-4.95c0.78-1.93,1.18-4.08,1.18-6.45c0-2.37-0.38-4.51-1.15-6.43
			C66.62,7.35,65.53,5.7,64.1,4.31z M52.27,22.08c-3.58,0-6.46-2.89-6.46-6.46c0-3.57,2.89-6.46,6.46-6.46
			c3.57,0,6.45,2.89,6.45,6.46C58.72,19.19,55.84,22.08,52.27,22.08z"/>
		<path class="st0" d="M30.22,4.2c-1.21-1.35-2.66-2.39-4.34-3.11C24.19,0.36,22.32,0,20.27,0c-2.17,0-4.06,0.52-5.67,1.57
			C12.99,2.61,11.84,4,11.16,5.73c-0.24-1.09-0.6-1.97-1.08-2.65C9.59,2.4,9.05,1.84,8.44,1.42C7.84,1,7.2,0.7,6.51,0.54
			C5.83,0.39,5.15,0.3,4.46,0.3c-1.17,0-2.2,0.17-3.11,0.51C0.45,1.16,0,1.42,0,1.63v34.99c0,2.14,0.49,3.59,1.48,4.38
			c0.99,0.78,2.24,1.17,3.77,1.17h1.21c1.48,0,2.71-0.4,3.68-1.2c0.96-0.8,1.44-2.25,1.44-4.35V26.18c0.73,1.53,1.84,2.78,3.35,3.75
			c1.5,0.97,3.28,1.44,5.34,1.44s3.92-0.39,5.61-1.18c1.68-0.78,3.13-1.87,4.34-3.25c1.21-1.39,2.12-3.05,2.77-4.98
			c0.64-1.93,0.96-4.04,0.96-6.34c0-2.41-0.32-4.58-0.96-6.51C32.35,7.18,31.43,5.54,30.22,4.2z M17.64,22.08
			c-3.57,0-6.46-2.89-6.46-6.46c0-3.57,2.89-6.46,6.46-6.46c3.57,0,6.46,2.89,6.46,6.46C24.11,19.19,21.21,22.08,17.64,22.08z"/>
		<path class="st0" d="M100.92,4.2c-1.21-1.35-2.66-2.39-4.34-3.11C94.89,0.36,93.02,0,90.97,0c-2.17,0-4.06,0.52-5.67,1.57
			c-1.6,1.05-2.75,2.43-3.44,4.16c-0.24-1.09-0.6-1.97-1.09-2.65c-0.48-0.68-1.02-1.24-1.63-1.66C78.54,1,77.9,0.7,77.21,0.54
			c-0.68-0.16-1.37-0.24-2.05-0.24c-1.17,0-2.2,0.17-3.11,0.51c-0.91,0.34-1.36,0.61-1.36,0.81v34.99c0,2.14,0.49,3.59,1.47,4.38
			c0.99,0.78,2.24,1.17,3.77,1.17h1.2c1.49,0,2.72-0.4,3.68-1.2c0.97-0.8,1.45-2.25,1.45-4.35V26.18c0.73,1.53,1.84,2.78,3.35,3.75
			c1.51,0.97,3.29,1.44,5.34,1.44c2.05,0,3.92-0.39,5.61-1.18c1.69-0.78,3.14-1.87,4.34-3.25c1.21-1.39,2.13-3.05,2.78-4.98
			c0.64-1.93,0.96-4.04,0.96-6.34c0-2.41-0.33-4.58-0.96-6.51C103.05,7.18,102.13,5.54,100.92,4.2z M88.34,22.08
			c-3.57,0-6.46-2.89-6.46-6.46c0-3.57,2.89-6.46,6.46-6.46c3.56,0,6.46,2.89,6.46,6.46C94.81,19.19,91.91,22.08,88.34,22.08z"/>
		<path class="st0" d="M136.95,4.2c-1.21-1.35-2.65-2.39-4.34-3.11C130.91,0.36,129.04,0,126.99,0c-2.17,0-4.06,0.52-5.66,1.57
			c-1.61,1.05-2.76,2.43-3.44,4.16c-0.24-1.09-0.6-1.97-1.09-2.65c-0.48-0.68-1.02-1.24-1.62-1.66c-0.6-0.42-1.25-0.72-1.93-0.88
			c-0.69-0.16-1.37-0.24-2.06-0.24c-1.16,0-2.2,0.17-3.1,0.51c-0.91,0.34-1.36,0.61-1.36,0.81v34.99c0,2.14,0.49,3.59,1.47,4.38
			c0.99,0.78,2.24,1.17,3.78,1.17h1.2c1.49,0,2.71-0.4,3.68-1.2c0.96-0.8,1.44-2.25,1.44-4.35V26.18c0.72,1.53,1.84,2.78,3.35,3.75
			c1.51,0.97,3.28,1.44,5.33,1.44c2.06,0,3.92-0.39,5.62-1.18c1.69-0.78,3.13-1.87,4.34-3.25c1.21-1.39,2.13-3.05,2.77-4.98
			c0.65-1.93,0.97-4.04,0.97-6.34c0-2.41-0.32-4.58-0.97-6.51C139.08,7.18,138.15,5.54,136.95,4.2z M124.37,22.08
			c-3.57,0-6.46-2.89-6.46-6.46c0-3.57,2.89-6.46,6.46-6.46c3.57,0,6.46,2.89,6.46,6.46C130.83,19.19,127.94,22.08,124.37,22.08z"/>
	</g>
</g>
</svg>
