<?xml version="1.0" encoding="utf-8"?>
<!-- Generator: Adobe Illustrator 23.0.3, SVG Export Plug-In . SVG Version: 6.00 Build 0)  -->
<svg version="1.1" id="Layer_1" xmlns="http://www.w3.org/2000/svg" xmlns:xlink="http://www.w3.org/1999/xlink" x="0px" y="0px"
	 viewBox="0 0 247.89 44.34" style="enable-background:new 0 0 247.89 44.34;" xml:space="preserve">
<style type="text/css">
	.st0{opacity:0.6;}
	.st1{fill:#96999C;}
	.st2{fill:#F4752B;}
</style>
<g id="Artwork_3_1_">
	<g>
		<g id="Poppin_Logo_solo_1_" class="st0">
			<g>
				<path class="st1" d="M122.45,10.86c-0.75-0.62-1.75-0.94-3-0.94h-0.96c-1.18,0-2.17,0.32-2.95,0.96
					c-0.79,0.64-1.18,1.81-1.18,3.5v15.37c0,1.7,0.39,2.87,1.18,3.51c0.78,0.64,1.8,0.96,3.05,0.96h0.96c1.19,0,2.16-0.33,2.91-0.98
					c0.75-0.66,1.13-1.82,1.13-3.48V14.39C123.58,12.66,123.21,11.49,122.45,10.86z"/>
				<path class="st1" d="M148.88,12.52c-0.68-0.87-1.54-1.56-2.62-2.07c-1.07-0.51-2.38-0.77-3.91-0.77c-1.92,0-3.5,0.41-4.73,1.22
					c-1.23,0.82-2.26,1.87-3.1,3.15c-0.22-0.8-0.52-1.47-0.89-1.99c-0.36-0.53-0.79-0.95-1.27-1.27c-0.48-0.32-0.99-0.55-1.51-0.67
					c-0.53-0.12-1.07-0.19-1.61-0.19c-0.93,0-1.76,0.14-2.47,0.41c-0.72,0.27-1.08,0.49-1.08,0.65v18.78c0,1.7,0.39,2.87,1.17,3.51
					c0.79,0.64,1.79,0.96,3,0.96h0.96c1.18,0,2.16-0.32,2.93-0.96c0.76-0.64,1.15-1.81,1.15-3.51V19.1c0.35-0.54,0.83-1,1.44-1.37
					c0.61-0.37,1.33-0.55,2.16-0.55c0.96,0,1.71,0.31,2.26,0.94c0.54,0.62,0.82,1.48,0.82,2.57v9.08c0,1.7,0.39,2.87,1.18,3.51
					c0.78,0.64,1.8,0.96,3.05,0.96h0.91c1.21,0,2.2-0.33,2.95-0.98c0.75-0.66,1.13-1.82,1.13-3.48V19.1c0-1.25-0.15-2.44-0.46-3.58
					C150.04,14.38,149.55,13.38,148.88,12.52z"/>
				<path class="st1" d="M51.66,13.12c-1.13-1.11-2.49-1.95-4.08-2.55C46,9.98,44.23,9.68,42.28,9.68c-1.95,0-3.74,0.3-5.35,0.89
					c-1.62,0.59-3,1.43-4.16,2.52c-1.15,1.09-2.04,2.4-2.66,3.94c-0.63,1.54-0.94,3.24-0.94,5.09c0,1.93,0.3,3.65,0.91,5.19
					c0.61,1.54,1.48,2.85,2.6,3.94c1.12,1.09,2.48,1.93,4.08,2.52c1.6,0.59,3.4,0.88,5.38,0.88c1.98,0,3.77-0.3,5.38-0.88
					c1.6-0.59,2.97-1.43,4.1-2.52c1.14-1.09,2.02-2.4,2.65-3.94c0.62-1.54,0.94-3.25,0.94-5.14c0-1.89-0.3-3.59-0.92-5.12
					C53.68,15.54,52.8,14.22,51.66,13.12z M42.25,27.26c-2.85,0-5.15-2.3-5.15-5.14c0-2.84,2.3-5.15,5.15-5.15
					c2.84,0,5.14,2.3,5.14,5.15C47.39,24.96,45.09,27.26,42.25,27.26z"/>
				<path class="st1" d="M24.7,13.03c-0.96-1.08-2.12-1.9-3.46-2.48c-1.35-0.58-2.84-0.86-4.47-0.86c-1.73,0-3.23,0.42-4.51,1.25
					c-1.28,0.83-2.2,1.94-2.74,3.31c-0.19-0.87-0.48-1.57-0.86-2.11c-0.39-0.54-0.82-0.99-1.3-1.32c-0.48-0.34-0.99-0.57-1.54-0.7
					C5.27,9.99,4.74,9.92,4.19,9.92c-0.93,0-1.75,0.14-2.47,0.41c-0.72,0.27-1.08,0.49-1.08,0.65v27.85c0,1.7,0.39,2.86,1.18,3.48
					c0.79,0.62,1.78,0.93,3,0.93h0.96c1.18,0,2.16-0.32,2.93-0.96c0.77-0.64,1.15-1.79,1.15-3.46v-8.31
					c0.58,1.22,1.46,2.21,2.67,2.98c1.2,0.77,2.61,1.15,4.25,1.15s3.12-0.31,4.47-0.94c1.34-0.62,2.49-1.49,3.46-2.59
					c0.96-1.11,1.69-2.43,2.21-3.96c0.51-1.54,0.77-3.22,0.77-5.04c0-1.92-0.26-3.65-0.77-5.18C26.39,15.4,25.66,14.09,24.7,13.03z
					 M14.68,27.26c-2.84,0-5.14-2.3-5.14-5.14c0-2.84,2.3-5.15,5.14-5.15c2.84,0,5.15,2.3,5.15,5.15
					C19.83,24.96,17.52,27.26,14.68,27.26z"/>
				<path class="st1" d="M80.98,13.03c-0.96-1.08-2.12-1.9-3.46-2.48c-1.34-0.58-2.83-0.86-4.47-0.86c-1.73,0-3.23,0.42-4.52,1.25
					c-1.28,0.83-2.19,1.94-2.74,3.31c-0.19-0.87-0.48-1.57-0.86-2.11c-0.39-0.54-0.81-0.99-1.3-1.32c-0.48-0.34-0.99-0.57-1.54-0.7
					c-0.54-0.12-1.09-0.19-1.63-0.19c-0.93,0-1.75,0.14-2.48,0.41c-0.72,0.27-1.08,0.49-1.08,0.65v27.85c0,1.7,0.39,2.86,1.17,3.48
					c0.79,0.62,1.78,0.93,3.01,0.93h0.96c1.19,0,2.16-0.32,2.93-0.96c0.77-0.64,1.15-1.79,1.15-3.46v-8.31
					c0.58,1.22,1.47,2.21,2.67,2.98c1.2,0.77,2.62,1.15,4.25,1.15c1.63,0,3.12-0.31,4.47-0.94c1.34-0.62,2.5-1.49,3.46-2.59
					c0.96-1.11,1.7-2.43,2.21-3.96c0.51-1.54,0.77-3.22,0.77-5.04c0-1.92-0.26-3.65-0.77-5.18C82.68,15.4,81.94,14.09,80.98,13.03z
					 M70.97,27.26c-2.84,0-5.14-2.3-5.14-5.14c0-2.84,2.3-5.15,5.14-5.15c2.84,0,5.15,2.3,5.15,5.15
					C76.11,24.96,73.8,27.26,70.97,27.26z"/>
				<path class="st1" d="M109.66,13.03c-0.96-1.08-2.11-1.9-3.46-2.48c-1.35-0.58-2.84-0.86-4.47-0.86c-1.72,0-3.23,0.42-4.51,1.25
					c-1.28,0.83-2.2,1.94-2.74,3.31c-0.19-0.87-0.48-1.57-0.87-2.11c-0.38-0.54-0.81-0.99-1.29-1.32c-0.48-0.34-0.99-0.57-1.54-0.7
					c-0.55-0.12-1.09-0.19-1.64-0.19c-0.92,0-1.75,0.14-2.47,0.41c-0.72,0.27-1.08,0.49-1.08,0.65v27.85c0,1.7,0.39,2.86,1.17,3.48
					c0.79,0.62,1.79,0.93,3.01,0.93h0.96c1.19,0,2.16-0.32,2.93-0.96c0.77-0.64,1.15-1.79,1.15-3.46v-8.31
					c0.57,1.22,1.47,2.21,2.67,2.98c1.2,0.77,2.61,1.15,4.24,1.15c1.64,0,3.12-0.31,4.47-0.94c1.34-0.62,2.5-1.49,3.46-2.59
					c0.96-1.11,1.7-2.43,2.21-3.96c0.52-1.54,0.77-3.22,0.77-5.04c0-1.92-0.26-3.65-0.77-5.18
					C111.36,15.4,110.62,14.09,109.66,13.03z M99.65,27.26c-2.84,0-5.14-2.3-5.14-5.14c0-2.84,2.3-5.15,5.14-5.15
					c2.84,0,5.15,2.3,5.15,5.15C104.79,24.96,102.49,27.26,99.65,27.26z"/>
			</g>
		</g>
		<g>
			<g>
				
					<ellipse transform="matrix(0.7071 -0.7071 0.7071 0.7071 50.3157 180.2544)" class="st2" cx="242.74" cy="29.39" rx="5.14" ry="5.14"/>
				<path class="st2" d="M203.94,13.12c-1.13-1.11-2.49-1.95-4.08-2.55c-1.58-0.59-3.36-0.89-5.31-0.89c-1.95,0-3.74,0.3-5.35,0.89
					c-1.62,0.59-3,1.43-4.16,2.52c-1.15,1.09-2.04,2.4-2.66,3.94c-0.63,1.54-0.94,3.24-0.94,5.09c0,1.93,0.3,3.65,0.91,5.19
					c0.61,1.54,1.48,2.85,2.6,3.94c1.12,1.09,2.48,1.93,4.08,2.52c1.6,0.59,3.4,0.88,5.38,0.88c1.98,0,3.77-0.3,5.38-0.88
					c1.6-0.59,2.97-1.43,4.1-2.52c1.14-1.09,2.02-2.4,2.65-3.94c0.62-1.54,0.94-3.25,0.94-5.14c0-1.89-0.3-3.59-0.92-5.12
					C205.95,15.54,205.08,14.22,203.94,13.12z M194.52,27.26c-2.85,0-5.15-2.3-5.15-5.14c0-2.84,2.3-5.15,5.15-5.15
					c2.84,0,5.14,2.3,5.14,5.15C199.66,24.96,197.36,27.26,194.52,27.26z"/>
				<path class="st2" d="M176.97,13.03c-0.96-1.08-2.12-1.9-3.46-2.48c-1.35-0.58-2.84-0.86-4.47-0.86c-1.73,0-3.23,0.42-4.51,1.25
					c-1.28,0.83-2.2,1.94-2.74,3.31c-0.19-0.87-0.48-1.57-0.86-2.11c-0.39-0.54-0.82-0.99-1.3-1.32c-0.48-0.34-0.99-0.57-1.54-0.7
					c-0.55-0.12-1.08-0.19-1.63-0.19c-0.93,0-1.75,0.14-2.47,0.41c-0.72,0.27-1.08,0.49-1.08,0.65v27.85c0,1.7,0.39,2.86,1.18,3.48
					c0.79,0.62,1.78,0.93,3,0.93h0.96c1.18,0,2.16-0.32,2.93-0.96c0.77-0.64,1.15-1.79,1.15-3.46v-8.31
					c0.58,1.22,1.46,2.21,2.67,2.98c1.2,0.77,2.61,1.15,4.25,1.15c1.63,0,3.12-0.31,4.47-0.94c1.34-0.62,2.49-1.49,3.46-2.59
					c0.96-1.11,1.69-2.43,2.21-3.96c0.51-1.54,0.77-3.22,0.77-5.04c0-1.92-0.26-3.65-0.77-5.18
					C178.66,15.4,177.93,14.09,176.97,13.03z M166.95,27.26c-2.84,0-5.14-2.3-5.14-5.14c0-2.84,2.3-5.15,5.14-5.15
					c2.84,0,5.15,2.3,5.15,5.15C172.1,24.96,169.79,27.26,166.95,27.26z"/>
				<path class="st2" d="M212.17,31.32c0.96,1.08,2.12,1.9,3.46,2.48c1.34,0.58,2.83,0.86,4.47,0.86c1.73,0,3.23-0.42,4.52-1.25
					c1.28-0.83,2.19-1.94,2.74-3.31c0.19,0.87,0.48,1.57,0.86,2.11c0.39,0.54,0.81,0.99,1.3,1.32c0.48,0.34,0.99,0.57,1.54,0.7
					c0.54,0.12,1.09,0.19,1.63,0.19c0.93,0,1.75-0.14,2.48-0.41c0.72-0.27,1.08-0.49,1.08-0.65V5.51c0-1.7-0.39-2.86-1.17-3.48
					c-0.79-0.62-1.78-0.93-3.01-0.93h-0.96c-1.19,0-2.16,0.32-2.93,0.96c-0.77,0.64-1.15,1.79-1.15,3.46v8.31
					c-0.58-1.22-1.47-2.21-2.67-2.98c-1.2-0.77-2.62-1.15-4.25-1.15c-1.63,0-3.12,0.31-4.47,0.94c-1.34,0.62-2.5,1.49-3.46,2.59
					c-0.96,1.11-1.7,2.43-2.21,3.96c-0.51,1.54-0.77,3.22-0.77,5.04c0,1.92,0.26,3.65,0.77,5.18
					C210.48,28.94,211.21,30.25,212.17,31.32z M222.19,17.08c2.84,0,5.14,2.3,5.14,5.14c0,2.84-2.3,5.15-5.14,5.15
					c-2.84,0-5.15-2.3-5.15-5.15C217.04,19.38,219.35,17.08,222.19,17.08z"/>
			</g>
		</g>
	</g>
</g>
</svg>
