<?xml version="1.0" encoding="utf-8"?>
<!-- Generator: Adobe Illustrator 24.1.0, SVG Export Plug-In . SVG Version: 6.00 Build 0)  -->
<svg version="1.1" id="Layer_1" xmlns="http://www.w3.org/2000/svg" xmlns:xlink="http://www.w3.org/1999/xlink" x="0px" y="0px"
	 viewBox="0 0 395.3 86.6" style="enable-background:new 0 0 395.3 86.6;" xml:space="preserve">
<g>
	<path d="M42.3,54.3c0.5,1.2,0.3,2.8,0.1,3.8c-0.4,1.7-1.6,3.4-5,3.4c-3.2,0-5.1-1.8-5.1-4.6l0-5H18.5l0,4c0,11.4,9,14.9,18.6,14.9
		c9.3,0,16.9-3.2,18.1-11.7c0.6-4.4,0.2-7.3-0.1-8.4c-2.2-10.7-21.6-13.9-23-19.9c-0.3-1-0.2-2.1-0.1-2.7c0.4-1.6,1.5-3.4,4.7-3.4
		c3,0,4.8,1.8,4.8,4.6c0,0.9,0,3.2,0,3.2h12.8v-3.6c0-11.1-10-12.9-17.3-12.9c-9.1,0-16.5,3-17.9,11.4c-0.4,2.3-0.4,4.3,0.1,6.9
		C21.4,44.6,39.6,47.6,42.3,54.3z"/>
	<path d="M208.8,54.2c0.5,1.2,0.3,2.8,0.1,3.7c-0.4,1.7-1.6,3.4-4.9,3.4c-3.2,0-5.1-1.8-5.1-4.6l0-4.9h-13.6l0,3.9
		c0,11.3,8.9,14.7,18.4,14.7c9.2,0,16.7-3.1,17.9-11.6c0.6-4.4,0.2-7.2-0.1-8.3c-2.1-10.6-21.4-13.8-22.8-19.7
		c-0.2-1-0.2-2.1-0.1-2.7c0.4-1.6,1.5-3.4,4.6-3.4c3,0,4.7,1.8,4.7,4.6c0,0.9,0,3.1,0,3.1h12.7v-3.6c0-11-9.9-12.8-17.1-12.8
		c-9,0-16.4,3-17.7,11.3c-0.4,2.3-0.4,4.3,0.1,6.8C188.1,44.6,206.2,47.6,208.8,54.2z"/>
	<polygon points="315,58.7 314.3,17.5 327,17.5 327,68.1 308.7,68.1 295.8,25.6 296.5,68.1 283.9,68.1 283.9,17.5 302.9,17.5 	"/>
	<polygon points="84.8,21.3 77.7,68.7 63.9,68.7 73.3,17.5 96.1,17.5 105.6,68.7 91.8,68.7 	"/>
	<polygon points="159.6,21.3 150.7,68.7 137.8,68.7 128.9,21.3 128.6,68.7 115.8,68.7 116.9,17.5 137.8,17.5 144.2,57.5 144.2,57.5 
		150.7,17.5 171.6,17.5 172.7,68.7 159.9,68.7 	"/>
	<path d="M251.8,61c3.6,0,4.7-2.4,4.9-3.7c0.1-0.5,0.1-1.3,0.1-1.9V17.5h13v36.7c0,0.9-0.1,2.9-0.1,3.4c-0.9,9.6-8.4,12.7-17.9,12.7
		c-9.4,0-17-3.1-17.9-12.7c0-0.5-0.1-2.4-0.1-3.4V17.5h13v37.9c0,0.7,0,1.4,0.1,1.9C247.1,58.6,248.2,61,251.8,61z"/>
	<path d="M358.6,60.5c3.7,0,5-2.4,5.2-3.7c0.1-0.6,0.1-1.3,0.1-1.9v-7.4h-5.3v-7.5h18.1v13.7c0,1,0,1.7-0.2,3.4
		c-0.8,9.3-8.9,12.7-18,12.7c-9.1,0-17.2-3.3-18-12.7c-0.2-1.7-0.2-2.4-0.2-3.4l0-21.5c0-0.9,0.1-2.5,0.2-3.4
		c1.1-9.6,8.9-12.7,18-12.7c9.1,0,17,3.1,18,12.7c0.2,1.6,0.1,3.4,0.1,3.4v1.7h-12.9V31c0,0,0-1.2-0.2-2c-0.2-1.1-1.2-3.7-5.1-3.7
		c-3.7,0-4.8,2.5-5.1,3.7c-0.2,0.7-0.2,1.6-0.2,2.4v23.4c0,0.7,0,1.4,0.1,1.9C353.6,58.1,354.9,60.5,358.6,60.5z"/>
</g>
</svg>
