<svg width="26" height="26" viewBox="0 0 26 26" fill="none" xmlns="http://www.w3.org/2000/svg">
<path d="M13.6165 20.3667V13.8528H15.7172L16.0308 11.303H13.6165V9.67964C13.6165 8.942 13.8136 8.44249 14.8237 8.44249H16.114V6.16568C15.4924 6.09889 14.8653 6.06404 14.2409 6.06694C12.3844 6.06694 11.119 7.25181 11.119 9.42698V11.303H9.02386V13.8528H11.119V20.3667H13.6165Z" fill="#999999"/>
<path d="M25.2825 13.0001C25.2825 19.9076 19.7308 25.5 12.8912 25.5C6.0517 25.5 0.5 19.9076 0.5 13.0001C0.5 6.09257 6.0517 0.500122 12.8912 0.500122C19.7308 0.500122 25.2825 6.09257 25.2825 13.0001Z" stroke="#999999"/>
</svg>
