<svg width="28" height="28" viewBox="0 0 28 28" fill="none" xmlns="http://www.w3.org/2000/svg">
<g clip-path="url(#clip0)">
<rect opacity="0.9" width="28" height="28" rx="14" fill="#F5F5F6"/>
<path d="M12.3978 7.08734H9.18949L4.52283 12.4832H9.48116L12.3978 7.08734Z" fill="white" stroke="black" stroke-width="0.291667"/>
<path d="M18.6667 12.4832H23.4792L14.2917 21.6707L18.6667 12.4832H9.33337L12.5417 7.08734H15.6042L18.6667 12.4832Z" fill="white"/>
<path d="M9.33533 12.4833H4.52283L13.8562 21.9625L9.33533 12.4833Z" fill="white"/>
<path d="M18.8145 7.08734H15.6062L18.6687 12.3373H23.4812L18.8145 7.08734Z" fill="white"/>
<path d="M18.6687 12.4832H9.4812L14.002 22.1082L18.6687 12.4832Z" fill="white"/>
<path d="M4.375 12.4542H9.30417L14 22.1375L23.625 12.4542L18.7542 7C15.575 7 12.3667 7 9.1875 7L4.375 12.4542ZM4.375 12.4542L14 22.1375L18.7542 12.4542L15.4583 7H12.6L9.30417 12.4542C14.0875 12.4542 18.8417 12.4542 23.625 12.4542H4.375Z" stroke="black" stroke-width="0.875" stroke-miterlimit="10" stroke-linejoin="bevel"/>
<path d="M23.625 12.4542L14 22.1375L4.375 12.4542L9.1875 7H18.7542L23.625 12.4542Z" stroke="black" stroke-width="0.875" stroke-miterlimit="10" stroke-linejoin="bevel"/>
</g>
<defs>
<clipPath id="clip0">
<rect width="28" height="28" fill="white"/>
</clipPath>
</defs>
</svg>
