<svg width="17" height="17" viewBox="0 0 17 17" fill="none" xmlns="http://www.w3.org/2000/svg">
<path fill-rule="evenodd" clip-rule="evenodd" d="M10.5625 12.0433C8.1882 13.9876 4.67962 13.8492 2.46704 11.6311C0.111666 9.27014 0.116422 5.44675 2.47764 3.09168C4.8386 0.736598 8.66168 0.741354 11.017 3.10231C13.2767 5.36759 13.3639 8.97917 11.2818 11.3484L15.2383 15.3049L14.5312 16.012L10.5625 12.0433ZM10.2999 10.9337C12.2698 8.96866 12.2738 5.77847 10.3088 3.80854C8.34345 1.83857 5.1535 1.8346 3.18353 3.79968C1.21335 5.76472 1.20939 8.95488 3.17469 10.9248C5.13973 12.8948 8.32992 12.8988 10.2999 10.9337Z" fill="#999999"/>
</svg>
