<svg width="26" height="26" viewBox="0 0 26 26" fill="none" xmlns="http://www.w3.org/2000/svg">
<path d="M13.001 7.29632C14.8082 7.29632 15.022 7.30337 15.7358 7.33615C16.3956 7.36649 16.754 7.47756 16.9925 7.57103C17.3085 7.69484 17.5338 7.84275 17.7708 8.08143C18.0077 8.32037 18.1544 8.54767 18.2769 8.86626C18.3696 9.10683 18.4797 9.46823 18.5098 10.1336C18.5423 10.8531 18.5493 11.0691 18.5493 12.8915C18.5493 14.7139 18.5423 14.9296 18.5098 15.6494C18.4797 16.3147 18.3696 16.6761 18.2769 16.9167C18.1541 17.2353 18.0075 17.4626 17.7708 17.7015C17.5338 17.9405 17.3085 18.0884 16.9925 18.2119C16.754 18.3054 16.3956 18.4165 15.7358 18.4468C15.0223 18.4796 14.8082 18.4866 13.001 18.4866C11.1939 18.4866 10.9798 18.4796 10.2663 18.4468C9.60649 18.4165 9.24812 18.3054 9.00956 18.2119C8.69364 18.0881 8.46825 17.9402 8.23131 17.7015C7.99436 17.4626 7.84768 17.2353 7.72518 16.9167C7.6325 16.6761 7.52236 16.3147 7.49227 15.6494C7.45977 14.9298 7.45278 14.7139 7.45278 12.8915C7.45278 11.0691 7.45977 10.8534 7.49227 10.1336C7.52236 9.46823 7.6325 9.10683 7.72518 8.86626C7.84795 8.54767 7.99463 8.32037 8.23131 8.08143C8.46825 7.84248 8.69364 7.69457 9.00956 7.57103C9.24812 7.47756 9.60649 7.36649 10.2663 7.33615C10.9801 7.30337 11.1939 7.29632 13.001 7.29632ZM13.001 6.06665C11.163 6.06665 10.9325 6.07451 10.2107 6.10783C9.49043 6.14088 8.99855 6.25629 8.56791 6.42507C8.12277 6.59954 7.74533 6.83279 7.36923 7.21234C6.99313 7.59162 6.76156 7.97225 6.58883 8.42088C6.42146 8.85516 6.30702 9.3512 6.27425 10.0775C6.2412 10.8055 6.23341 11.0379 6.23341 12.8915C6.23341 14.7451 6.2412 14.9775 6.27425 15.7055C6.30702 16.4318 6.42146 16.9278 6.58883 17.3621C6.76183 17.811 6.99313 18.1916 7.3695 18.5709C7.74587 18.9504 8.12304 19.1837 8.56818 19.3582C8.99855 19.527 9.4907 19.6424 10.2109 19.6754C10.9328 19.7087 11.1633 19.7166 13.0013 19.7166C14.8394 19.7166 15.0699 19.7087 15.7917 19.6754C16.5119 19.6424 17.0041 19.527 17.4345 19.3582C17.8796 19.1837 18.257 18.9504 18.6331 18.5709C19.0095 18.1914 19.2408 17.811 19.4138 17.3621C19.5812 16.9281 19.6956 16.4318 19.7284 15.7055C19.7614 14.9775 19.7692 14.7451 19.7692 12.8915C19.7692 11.0379 19.7614 10.8055 19.7284 10.0775C19.6956 9.3512 19.5812 8.85488 19.4138 8.42088C19.2408 7.97198 19.0095 7.59135 18.6331 7.21207C18.2568 6.83252 17.8796 6.59926 17.4345 6.4248C17.0035 6.25629 16.5117 6.14088 15.7914 6.10783C15.0696 6.07451 14.8391 6.06665 13.001 6.06665Z" fill="#999999"/>
<path d="M12.9329 9.09998C10.894 9.09998 9.24136 10.7668 9.24136 12.8227C9.24136 14.8786 10.8942 16.5454 12.9329 16.5454C14.9717 16.5454 16.6245 14.8786 16.6245 12.8227C16.6245 10.7668 14.9719 9.09998 12.9329 9.09998ZM12.9329 15.2392C11.6094 15.2392 10.5367 14.1571 10.5367 12.8227C10.5367 11.488 11.6097 10.4062 12.9329 10.4062C14.2562 10.4062 15.3292 11.4883 15.3292 12.8227C15.3292 14.1574 14.2565 15.2392 12.9329 15.2392Z" fill="#999999"/>
<path d="M16.8752 9.32977C17.215 9.32977 17.4905 9.05199 17.4905 8.70932C17.4905 8.36665 17.215 8.08887 16.8752 8.08887C16.5354 8.08887 16.2599 8.36665 16.2599 8.70932C16.2599 9.05199 16.5354 9.32977 16.8752 9.32977Z" fill="#999999"/>
<path d="M25.5 12.9999C25.5 19.9074 19.9483 25.4999 13.1087 25.4999C6.2692 25.4999 0.717499 19.9074 0.717499 12.9999C0.717499 6.09245 6.2692 0.5 13.1087 0.5C19.9483 0.5 25.5 6.09245 25.5 12.9999Z" stroke="#999999"/>
</svg>
