<svg width="109" height="38" viewBox="0 0 109 38" fill="none" xmlns="http://www.w3.org/2000/svg">
<path d="M0.103516 0H108.103V38H0.104047L0.103516 0Z" fill="#F47900" fill-opacity="0.8"/>
<path d="M22.8214 28.5119C25.8313 28.5119 29.4169 26.8369 29.4169 22.754C29.4169 19.1684 26.852 18.3309 23.6328 17.0746C21.4866 16.2371 20.4921 15.766 20.4921 14.6144C20.5183 13.4366 21.4605 12.7562 22.7429 12.7562C23.8945 12.7562 25.2555 13.3319 26.7996 14.5882L28.9458 11.8139C27.0875 10.2959 24.9676 9.45843 22.6644 9.45843C19.3405 9.4846 16.6971 11.7878 16.6971 14.7714C16.6971 18.3047 19.4975 19.5872 22.3242 20.5555C24.575 21.3407 25.5434 21.838 25.5434 23.1989C25.5434 24.3505 24.6797 25.1619 22.9 25.1619C21.4343 25.1619 19.6546 24.4029 18.2674 22.8325L16.0428 25.5545C18.0057 27.5697 20.4397 28.5119 22.8214 28.5119ZM42.7395 28.5119C48.1833 28.5119 52.1877 24.6384 52.1877 18.9852C52.1877 13.3058 48.1833 9.45843 42.7395 9.45843C37.1124 9.45843 33.265 13.4628 33.265 18.9852C33.265 24.5076 37.1124 28.5119 42.7395 28.5119ZM42.7395 25.0572C39.3894 25.0572 37.0862 22.3614 37.0862 18.9852C37.0862 15.6089 39.3894 12.9132 42.7395 12.9132C45.9325 12.9132 48.3404 15.4781 48.3404 18.9852C48.3404 22.4923 45.9325 25.0572 42.7395 25.0572ZM57.0384 28.2764H68.9992V25.0048H60.781V9.69398H57.0384V28.2764ZM73.3818 28.2764H79.6109C85.5782 28.2764 89.19 24.4814 89.19 19.0114C89.19 13.5152 85.4211 9.69398 79.5324 9.69398H73.3818V28.2764ZM77.0198 25.0048V12.9655H79.5847C82.9609 12.9655 85.3426 15.5304 85.3426 19.0114C85.3426 22.4138 82.9871 25.0048 79.3753 25.0048H77.0198Z" fill="white"/>
</svg>
