<svg width="26" height="26" viewBox="0 0 26 26" fill="none" xmlns="http://www.w3.org/2000/svg">
<path d="M10.5791 19.7888C15.9301 19.7888 18.8581 15.2862 18.8581 11.3881C18.8581 11.2614 18.8581 11.1348 18.8524 11.0081C19.4198 10.5935 19.9135 10.0696 20.305 9.47651C19.783 9.71258 19.2212 9.86804 18.6311 9.94289C19.2326 9.58015 19.6922 8.99861 19.9135 8.30767C19.3517 8.64738 18.7276 8.88921 18.0637 9.02164C17.5303 8.44585 16.7756 8.08887 15.9414 8.08887C14.3356 8.08887 13.0304 9.41317 13.0304 11.0426C13.0304 11.273 13.0588 11.4975 13.1042 11.7163C10.6869 11.5954 8.54198 10.415 7.10635 8.63011C6.85668 9.0677 6.71482 9.57439 6.71482 10.1156C6.71482 11.1405 7.23119 12.0445 8.00859 12.5742C7.53194 12.557 7.08366 12.4245 6.69212 12.2057C6.69212 12.2172 6.69212 12.2288 6.69212 12.246C6.69212 13.674 7.69649 14.8716 9.02431 15.1422C8.78031 15.2113 8.52496 15.2459 8.25826 15.2459C8.071 15.2459 7.88942 15.2286 7.71352 15.1941C8.08235 16.3687 9.16049 17.2208 10.4316 17.2438C9.43287 18.0384 8.17882 18.5106 6.81696 18.5106C6.58431 18.5106 6.35166 18.4991 6.12468 18.4703C7.4071 19.2994 8.93919 19.7888 10.5791 19.7888Z" fill="#999999"/>
<path d="M25.3913 12.9999C25.3913 19.9074 19.8396 25.4999 13 25.4999C6.16046 25.4999 0.608765 19.9074 0.608765 12.9999C0.608765 6.09245 6.16046 0.5 13 0.5C19.8396 0.5 25.3913 6.09245 25.3913 12.9999Z" stroke="#999999"/>
</svg>
