<?xml version="1.0" encoding="utf-8"?>
<!-- Generator: Adobe Illustrator 21.1.0, SVG Export Plug-In . SVG Version: 6.00 Build 0)  -->
<svg version="1.1" id="Layer_1" xmlns="http://www.w3.org/2000/svg" xmlns:xlink="http://www.w3.org/1999/xlink" x="0px" y="0px"
	 viewBox="0 0 144 144" style="enable-background:new 0 0 144 144;" xml:space="preserve">
<style type="text/css">
	.st0{fill:#522555;}
</style>
<path class="st0" d="M117.4,36h-4.5h-4.5v-9c0-14.9-12.1-27-27-27c-3.2,0-6.2,0.6-9,1.6c-2.8-1-5.8-1.6-9-1.6c-14.9,0-27,12.1-27,27
	v9h-27v108h103.5h4.5h18V36H117.4z M99.4,27v9h-9v-9c0-6.8-2.6-13-6.7-17.8C92.5,10.4,99.4,17.9,99.4,27z M72.4,11.5
	c5.4,3.1,9,8.9,9,15.5v9h-18v-9C63.4,20.4,67,14.6,72.4,11.5z M45.4,27c0-9.1,6.9-16.6,15.7-17.8c-4.2,4.8-6.7,11-6.7,17.8v9h-9V27z
	 M108.4,135h-90V45h18v9h9v-9h36v9h9v-9h18V135z M126.4,135h-9V45h9V135z"/>
</svg>
