<?xml version="1.0" encoding="utf-8"?>
<svg width="113.7" height="32" version="1.1" viewBox="0 0 113.7 32" xml:space="preserve" xmlns="http://www.w3.org/2000/svg">
	<style type="text/css">
		.st0{fill:#FFFFFF;}
	</style>
    <path class="st0" d="m101.4 30.7-5.4-14.5v14.5h-3.3v-29.4h3.3v14.3l5.7-14.3h3.5l-5.9 14.5 5.8 15h-3.7zm-11.7-11.3v6.1c0 3.7-1.8 5.5-5.4 5.5h-1.1c-3.6 0-5.4-1.8-5.4-5.5v-19c0-3.7 1.8-5.5 5.4-5.5h1.1c3.5 0 5.3 1.8 5.3 5.4v5.3h-3.2v-5.4c0-1.5-0.7-2.2-2.2-2.2h-0.8c-1.5 0-2.2 0.7-2.2 2.2v19.4c0 1.5 0.7 2.2 2.2 2.2h0.9c1.5 0 2.2-0.7 2.2-2.2v-6.3zm-19.8-15.3h-1c-1.5 0-2.2 0.7-2.2 2.2v19.4c0 1.5 0.7 2.2 2.2 2.2h1c1.5 0 2.2-0.7 2.2-2.2v-19.4c0-1.5-0.7-2.2-2.2-2.2m0.1 26.9h-1.2c-3.6 0-5.4-1.8-5.4-5.5v-19c0-3.7 1.8-5.5 5.4-5.5h1.2c3.6 0 5.4 1.8 5.4 5.5v19c0 3.7-1.8 5.5-5.4 5.5m-15.7-0.3v-26.3h-4.3v-3.1h12v3.1h-4.3v26.3zm-5.6-9.5v4.3c0 3.7-1.8 5.5-5.4 5.5h-0.9c-3.5 0-5.3-1.8-5.3-5.4v-6.2h3.2v6.3c0 1.5 0.7 2.2 2.2 2.2h0.7c1.5 0 2.2-0.7 2.2-2.2v-4.4c0-1.5-0.5-2.1-1.4-2.8l-4-3c-2.1-1.6-2.8-3.1-2.8-5.5v-3.5c0-3.7 1.8-5.5 5.4-5.5h0.8c3.5 0 5.3 1.8 5.3 5.4v5.3h-3.2v-5.4c0-1.5-0.7-2.2-2.2-2.2h-0.6c-1.5 0-2.2 0.7-2.2 2.2v3.7c0 1.5 0.5 2.1 1.5 2.8l4 2.9c2 1.6 2.7 3 2.7 5.5m-20.5-3v-3.1h5.9v10.4c0 3.7-1.8 5.5-5.4 5.5h-1.2c-3.6 0-5.4-1.8-5.4-5.5v-19c0-3.7 1.8-5.5 5.4-5.5h1.2c3.5 0 5.3 1.8 5.3 5.4v4h-3.2v-4.1c0-1.5-0.7-2.2-2.2-2.2h-1c-1.5 0-2.2 0.7-2.2 2.2v19.4c0 1.5 0.7 2.2 2.2 2.2h1.1c1.5 0 2.2-0.7 2.2-2.2v-7.5zm-9.2 12.5h-3.3v-29.4h3.3zm-14.7-3h2.8c1.5 0 2.2-0.7 2.2-2.2v-5.8c0-1.7-0.8-2.5-2.4-2.5h-2.5v10.5zm2.6-23.4h-2.7v9.9h2.4c1.7 0 2.4-0.8 2.4-2.5v-5.2c0.1-1.5-0.6-2.2-2.1-2.2m5.6 16v5c0 3.7-1.8 5.5-5.4 5.5h-6.1v-29.5h6c3.6 0 5.4 1.8 5.4 5.5v4.3c0 2.6-0.9 4-2.5 4.6 1.7 0.7 2.6 2 2.6 4.6"/>
    <g transform="translate(-13.8,-16.3)">
        <path class="st0" d="m121.2 18.1h-1v-0.5h2.5v0.5h-1v2.6h-0.6v-2.6z"/>
        <path class="st0" d="m123.3 17.6h0.6l1 1.5 1-1.5h0.6v3.1h-0.6v-2.3l-1 1.5-1-1.5v2.2h-0.5v-3z"/>
    </g>
</svg>
