<svg xmlns="http://www.w3.org/2000/svg" viewBox="0 0 657.18 145.58"><defs><style>.cls-1{fill:#d52b1e}</style></defs><title>Asset 1</title><g id="Layer_2" data-name="Layer 2"><g id="Logo"><path class="cls-1" d="M642.66 0l-35.81 76.81-13.54-29.15h-14.63l22.22 47.66h11.83L657.18 0h-14.52z"/><path d="M488.66 142.61h28.93V89.76c0-12.06 7-20.59 17.43-20.59 10 0 15.21 7 15.21 17.07v56.37h28.93V80.67c0-21-12.61-35.79-33-35.79-13 0-22.07 5.56-28.93 15.76h-.56v-13h-28zm-56.75-97.55c-30.23 0-50.44 21.7-50.44 50.26 0 28.38 20.21 50.26 50.44 50.26s50.44-21.88 50.44-50.26c0-28.56-20.21-50.26-50.44-50.26zm-.18 79.19c-13.73 0-21-11.5-21-28.93 0-17.62 7.23-28.93 21-28.93s21.32 11.31 21.32 28.93c0 17.43-7.6 28.93-21.32 28.93zm-132.6 18.36h81.23V119.8h-46v-.56l43.95-49.33V47.66h-79.18v22.81h44.51V71l-44.51 49.7zm-37.09 0h29.11v-95H262zm-67.51 0h28.93V99c0-19.84 11.87-28.56 30-26.15h.55v-25a16.36 16.36 0 0 0-5.93-.74c-11.31 0-18.92 5.19-25.41 16.31h-.55V47.66h-27.59zm-53.22-18.17c-12.8 0-20.58-8.35-22.07-21.14h68.43c.19-20.4-5.19-36.72-16.5-46.92-8-7.42-18.55-11.5-31.9-11.5-28.56 0-48.4 21.7-48.4 50.07 0 28.56 18.92 50.44 50.26 50.44 11.87 0 21.32-3.15 29.11-8.53 8.35-5.75 14.28-14.09 15.95-22.44h-27.82c-2.78 6.31-8.53 10.02-17.06 10.02zm-1.48-58.79c10.2 0 17.24 7.6 18.36 18.73h-38.76c2.22-11.31 8.34-18.73 20.4-18.73zM33 142.61h30.42l33-95h-29.1l-18.55 61h-.37l-18.54-61H0zm229-128.7h29.11v25.78H262z"/></g></g></svg>