<?xml version="1.0" encoding="UTF-8" standalone="no"?><svg xmlns="http://www.w3.org/2000/svg" id="horizontal" style="" viewBox="-22.801 -5.765 501.622 126.830"><defs><style>.cls-1{fill:#ffcf37;}.cls-2{fill:#f57e27;}.cls-3{fill:#6b644e;}.cls-4{fill:#010101;}</style></defs><title>Choice hotels horizontal</title><path class="cls-1" d="M56.4,161.4v39.9h0A34.59,34.59,0,0,0,91,166.8v-5.4Z" transform="translate(-11.1 -161.4)"/><path class="cls-1" d="M91.1,243.4V203.5h0A34.59,34.59,0,0,0,56.5,238v5.4Z" transform="translate(-11.1 -161.4)"/><path class="cls-2" d="M44.6,243.4a41.84,41.84,0,0,1,0-82Z" transform="translate(-11.1 -161.4)"/><path class="cls-3" d="M150,235.6c-11.4,0-20.6-3.5-27.1-10.4-5.9-6.2-8.9-14-8.9-23.1a35,35,0,0,1,9.7-24.8c7.2-7.6,17-11.5,29.1-11.5a42.81,42.81,0,0,1,19.6,4.3.82.82,0,0,1,.4.6V185a.73.73,0,0,1-.6.7H172c-.3,0-.5-.2-.7-.5-3.4-8.5-10.2-12.7-20.6-12.7-8.1,0-14.5,2.9-19.2,8.5-4.3,5.1-6.5,11.5-6.5,19a29.77,29.77,0,0,0,6.7,19.5c4.9,5.9,11.7,8.8,20.1,8.8,8,0,15.2-3.3,21.4-9.9a.76.76,0,0,1,.5-.2h.2a.75.75,0,0,1,.5.7v6.4a.76.76,0,0,1-.2.5c-6.2,6.5-14.3,9.8-24.2,9.8" transform="translate(-11.1 -161.4)"/><path class="cls-3" d="M286.7,172.5c-9.6,0-17.6,3.1-23.7,9.2a31.36,31.36,0,0,0-9.3,23c0,8.9,2.9,16.4,8.7,22.1s13.3,8.7,22.6,8.7c9.7,0,17.7-3.2,23.8-9.4,5.9-6,9-13.7,9-22.8,0-8.9-2.9-16.4-8.6-22.1s-13.2-8.7-22.5-8.7m21.4,32.8c0,6.9-2,12.6-5.9,16.9s-9,6.4-15.2,6.4c-6.9,0-12.6-2.5-16.8-7.4s-6.4-11.4-6.4-19.2c0-6.8,2-12.4,5.8-16.6s9-6.2,15.3-6.2c7,0,12.7,2.4,16.9,7.3s6.3,11.2,6.3,18.8" transform="translate(-11.1 -161.4)"/><path class="cls-3" d="M341.3,180.2v-.5a4.69,4.69,0,0,1,3.7-3.8h.1a.92.92,0,0,0,.7-1.1,1,1,0,0,0-1-.9H328a1,1,0,0,0-1,.9,1.17,1.17,0,0,0,.8,1.1h0a4.83,4.83,0,0,1,3.8,4.6v.3h0v46.8a4.71,4.71,0,0,1-3.8,4.6h0a.52.52,0,0,0-.4.2,1.14,1.14,0,0,0-.3.8,1,1,0,0,0,1,.9h16.8a1,1,0,0,0,1-1c0-.4-.3-.9-.7-.9h-.1a4.63,4.63,0,0,1-3.8-4.6v-.5h0V180.6h0v-.4" transform="translate(-11.1 -161.4)"/><path class="cls-3" d="M409.3,219.5a.91.91,0,0,0-1.1.2c-5.5,5.8-11.8,8.8-18.9,8.8-7.4,0-13.4-2.6-17.7-7.8a26.21,26.21,0,0,1-5.9-17.2,25.51,25.51,0,0,1,5.7-16.8c4.1-5,9.8-7.5,16.9-7.5,9.2,0,15.1,3.6,18.1,11.1a1,1,0,0,0,1.1.6,1,1,0,0,0,.8-1V177.2a1,1,0,0,0-.6-.9,38.75,38.75,0,0,0-17.7-3.9c-10.9,0-19.7,3.5-26.2,10.4a31.51,31.51,0,0,0-8.7,22.4c0,8.3,2.7,15.3,8.1,20.9,5.9,6.2,14.2,9.4,24.5,9.4,8.9,0,16.3-3,21.9-8.8a.91.91,0,0,0,.3-.7v-5.7a1,1,0,0,0-.6-.8" transform="translate(-11.1 -161.4)"/><path class="cls-3" d="M466.4,218.8a1,1,0,0,0-1.2.6c-.1.1-.1.3-.2.4a12.05,12.05,0,0,1-11.3,7.9H434.2V206.5h18.1c3.8,0,5.8,1.1,6.1,3.3a1,1,0,0,0,1,.8h.1a1,1,0,0,0,.9-1V197.1a1.06,1.06,0,0,0-.9-1,1,1,0,0,0-1.1.8c-.5,2.2-2.5,3.3-6.2,3.3h-18V179.6h20.4a8.56,8.56,0,0,1,8.3,6.9v.1a1.08,1.08,0,0,0,1,.8h.1a1.06,1.06,0,0,0,.9-1V174.9a1,1,0,0,0-1-1H420.4a1,1,0,0,0-1,.9,1.08,1.08,0,0,0,.8,1.1h.2a4.64,4.64,0,0,1,4,4.6v47.1a4.62,4.62,0,0,1-3.6,4.5h-.2a1.17,1.17,0,0,0-.9,1.1,1,1,0,0,0,1,.9h43.2a1.08,1.08,0,0,0,1-.8l2.2-13.4a.92.92,0,0,0-.7-1.1" transform="translate(-11.1 -161.4)"/><path class="cls-3" d="M241.2,180.5a4.81,4.81,0,0,1,3.7-4.6h.1a1.05,1.05,0,0,0,.8-1,1,1,0,0,0-1-.9H227.9a1,1,0,0,0-1,.9,1,1,0,0,0,.8,1h0a4.64,4.64,0,0,1,3.7,4.6v19.8h-33V180.7h0v-.2a4.72,4.72,0,0,1,3.8-4.6h0a.87.87,0,0,0,.7-1,1,1,0,0,0-1-.9h-17a1,1,0,0,0-.3,1.9,1,1,0,0,1,.4.1,4.74,4.74,0,0,1,3.4,3.8,1.09,1.09,0,0,0,.1.5v47h0v.3a4.71,4.71,0,0,1-3.6,4.5h0l-.4.2a1.1,1.1,0,0,0-.6,1,1,1,0,0,0,1,.9h17a1,1,0,0,0,1-.9,1.1,1.1,0,0,0-.6-1l-.4-.1h0a4.6,4.6,0,0,1-3.6-4.5v-.5h0V206.9h33v20.3a6.74,6.74,0,0,1-.2,2.1,4.41,4.41,0,0,1-3.3,2.9l-.4.2a1.1,1.1,0,0,0-.6,1,1,1,0,0,0,1,.9h16.9a1,1,0,0,0,1-1,1,1,0,0,0-.6-.9l-.4-.2a4.6,4.6,0,0,1-3.6-4.5V180.5Z" transform="translate(-11.1 -161.4)"/><polygon class="cls-2" points="202.9 107.1 202.9 114.9 199.6 114.9 199.6 96.4 202.9 96.4 202.9 104.1 211.7 104.1 211.7 96.4 215 96.4 215 114.9 211.7 114.9 211.7 107.1 202.9 107.1"/><path class="cls-2" d="M249.5,276.7a9.6,9.6,0,1,1,9.7-9.6,9.44,9.44,0,0,1-9.7,9.6m0-16.3a6.61,6.61,0,1,0,6.3,6.6,6.47,6.47,0,0,0-6.3-6.6" transform="translate(-11.1 -161.4)"/><polygon class="cls-2" points="268.3 114.9 265 114.9 265 99.4 259.1 99.4 259.1 96.4 274.2 96.4 274.2 99.4 268.3 99.4 268.3 114.9"/><polygon class="cls-2" points="302 99.3 291.5 99.3 291.5 104.1 300.8 104.1 300.8 107 291.5 107 291.5 112 302.1 112 302.1 114.9 288.2 114.9 288.2 96.4 302 96.4 302 99.3"/><polygon class="cls-2" points="318.4 96.4 321.7 96.4 321.7 112 331.5 112 331.5 114.9 318.4 114.9 318.4 96.4"/><path class="cls-2" d="M360.9,265.6c3.9,1,6,2.4,6,5.5,0,3.5-2.7,5.6-6.6,5.6a11.76,11.76,0,0,1-7.8-3l2-2.3a8.87,8.87,0,0,0,5.9,2.4c2,0,3.3-.9,3.3-2.4s-.7-2.1-4.2-2.9c-4-1-6.2-2.1-6.2-5.6,0-3.2,2.7-5.4,6.3-5.4a10.08,10.08,0,0,1,6.7,2.3l-1.8,2.5a8.68,8.68,0,0,0-5-1.9c-1.9,0-3,1-3,2.2,0,1.5.9,2.1,4.4,3" transform="translate(-11.1 -161.4)"/><polygon class="cls-4" points="362.4 97.5 360.1 97.5 360.1 96.5 365.8 96.5 365.8 97.5 363.4 97.5 363.4 103.9 362.4 103.9 362.4 97.5"/><polygon class="cls-4" points="366.8 96.5 368.3 96.5 370.6 102.1 370.6 102.1 372.9 96.5 374.4 96.5 374.4 103.9 373.4 103.9 373.4 97.8 373.4 97.8 370.9 103.9 370.3 103.9 367.8 97.8 367.8 97.8 367.8 103.9 366.8 103.9 366.8 96.5"/></svg>