<?xml version="1.0" encoding="UTF-8" standalone="no"?><svg xmlns="http://www.w3.org/2000/svg" data-name="Layer 1" id="Layer_1" style="" viewBox="-3.442 -0.470 75.724 10.351"><defs><style>.cls-1{fill:#6cbf56;}</style></defs><title>Getaroom</title><path class="cls-1" d="M5.43,3.05c0,.28,0,.38,0,.44a2,2,0,0,0-1.69-.83A2.56,2.56,0,0,0,1.21,5.44,2.56,2.56,0,0,0,3.77,8.2a2,2,0,0,0,1.66-.8v1c0,.41-.31.48-.58.48H2.91v1.28H5.23A1.52,1.52,0,0,0,6.94,8.54V2.8H5.43ZM4.11,6.9A1.34,1.34,0,0,1,2.77,5.44a1.35,1.35,0,1,1,2.69,0A1.34,1.34,0,0,1,4.11,6.9Z" transform="translate(-1.21 -0.77)"/><path class="cls-1" d="M10.22,2.66A2.71,2.71,0,0,0,7.44,5.47a2.72,2.72,0,0,0,2.8,2.81A2.71,2.71,0,0,0,12.91,6.6l-1.57-.16A1.27,1.27,0,0,1,9,5.92h4V5.86C13,3.62,11.69,2.66,10.22,2.66ZM9,4.9a1.19,1.19,0,0,1,1.21-1,1.17,1.17,0,0,1,1.18,1Z" transform="translate(-1.21 -0.77)"/><path class="cls-1" d="M15.59,6.5V4.08h1.16V2.8H15.59v-2H14.08v2h-.84V4.08h.84V7c0,1.07.78,1.2,1.54,1.2.44,0,1.18-.07,1.18-.07V6.85s-.32,0-.7,0S15.59,6.84,15.59,6.5Z" transform="translate(-1.21 -0.77)"/><path class="cls-1" d="M20,2.66a4.52,4.52,0,0,0-2.28.66l.59,1.14A3.59,3.59,0,0,1,19.87,4c.59,0,.89.24.89.63v0c0,.2-.12.32-.37.32H19.34c-1.19,0-1.94.63-1.94,1.64a1.75,1.75,0,0,0,1.87,1.68,1.8,1.8,0,0,0,1.49-.64v.5h1.52V4.63C22.28,3.22,21.17,2.66,20,2.66Zm.81,3.57a.92.92,0,0,1-1,.94c-.46,0-.76-.26-.76-.63s.28-.58.76-.58h.57a.68.68,0,0,0,.47-.11Z" transform="translate(-1.21 -0.77)"/><path class="cls-1" d="M24.53,3.65V2.8H23.06V8.14h1.51V5.59c0-.93.35-1.3,1.12-1.3h.64V2.78a1.51,1.51,0,0,0-.42,0A1.4,1.4,0,0,0,24.53,3.65Z" transform="translate(-1.21 -0.77)"/><path class="cls-1" d="M29.41,2.66a2.78,2.78,0,0,0-2.85,2.81,2.86,2.86,0,0,0,5.71,0A2.78,2.78,0,0,0,29.41,2.66Zm0,4.27a1.36,1.36,0,0,1-1.34-1.46,1.34,1.34,0,1,1,2.67,0A1.36,1.36,0,0,1,29.41,6.93Z" transform="translate(-1.21 -0.77)"/><path class="cls-1" d="M35.52,2.66a2.78,2.78,0,0,0-2.85,2.81,2.86,2.86,0,0,0,5.71,0A2.78,2.78,0,0,0,35.52,2.66Zm0,4.27a1.36,1.36,0,0,1-1.34-1.46,1.34,1.34,0,1,1,2.67,0A1.36,1.36,0,0,1,35.52,6.93Z" transform="translate(-1.21 -0.77)"/><path class="cls-1" d="M45.44,2.66a2.14,2.14,0,0,0-1.79,1,1.78,1.78,0,0,0-1.71-1,2.06,2.06,0,0,0-1.6.77s0-.23,0-.42V2.8H38.88V8.14H40.4V4.68a1.45,1.45,0,0,1,1.1-.61.85.85,0,0,1,.89.94V8.14h1.52V4.68A1.45,1.45,0,0,1,45,4.07.85.85,0,0,1,45.9,5V8.14h1.51V4.64A1.85,1.85,0,0,0,45.44,2.66Z" transform="translate(-1.21 -0.77)"/><path class="cls-1" d="M58.15,2.66a2.78,2.78,0,0,0-2.86,2.81,2.86,2.86,0,0,0,5.72,0A2.78,2.78,0,0,0,58.15,2.66Zm0,4.27a1.36,1.36,0,0,1-1.34-1.46,1.34,1.34,0,1,1,2.67,0A1.36,1.36,0,0,1,58.15,6.93Z" transform="translate(-1.21 -0.77)"/><path class="cls-1" d="M68.07,2.66a2.14,2.14,0,0,0-1.79,1,1.79,1.79,0,0,0-1.72-1A2.05,2.05,0,0,0,63,3.43S63,3.2,63,3V2.8H61.51V8.14H63V4.68a1.48,1.48,0,0,1,1.11-.61A.85.85,0,0,1,65,5V8.14h1.51V4.68a1.48,1.48,0,0,1,1.11-.61.85.85,0,0,1,.89.94V8.14H70V4.64A1.85,1.85,0,0,0,68.07,2.66Z" transform="translate(-1.21 -0.77)"/><path class="cls-1" d="M52.4,6.92a1.37,1.37,0,0,1-1.49-1.31A1.36,1.36,0,0,1,52.1,4,1.28,1.28,0,0,1,53.48,5L55,4.53a2.86,2.86,0,0,0-5.54,1.24,2.76,2.76,0,0,0,3.13,2.49A2.79,2.79,0,0,0,55,6.35L53.51,6A1.27,1.27,0,0,1,52.4,6.92Z" transform="translate(-1.21 -0.77)"/><path class="cls-1" d="M49.11,7.52a.58.58,0,1,1-.58-.62A.6.6,0,0,1,49.11,7.52Z" transform="translate(-1.21 -0.77)"/></svg>