<?xml version="1.0" encoding="UTF-8" standalone="no"?><svg xmlns="http://www.w3.org/2000/svg" id="horizontal" style="" viewBox="-23.629 -5.983 519.838 131.615"><defs><style>.cls-1{fill:#231f20;}</style></defs><title>Loews Hotels horizontal</title><polygon class="cls-1" points="207.63 101.81 217.83 101.81 217.83 119.22 220.96 119.22 220.96 101.81 231.16 101.81 231.16 98.88 207.63 98.88 207.63 101.81"/><polygon class="cls-1" points="143.07 107.28 125.52 107.28 125.52 98.88 122.38 98.88 122.38 119.22 125.52 119.22 125.52 110.21 143.07 110.21 143.07 119.22 146.2 119.22 146.2 98.88 143.07 98.88 143.07 107.28"/><path class="cls-1" d="M362.88,336.26c-9,0-13.66,4.56-13.66,10.6s4.68,10.61,13.66,10.61,13.65-4.56,13.65-10.61S371.85,336.26,362.88,336.26Zm0,18.27c-7.06,0-10.46-3.22-10.46-7.67s3.4-7.67,10.46-7.67,10.43,3.23,10.43,7.67S369.91,354.53,362.88,354.53Z" transform="translate(-184.66 -237.81)"/><polygon class="cls-1" points="251.68 110.21 268.85 110.21 268.85 107.28 251.68 107.28 251.68 101.81 270.6 101.81 270.6 98.88 248.54 98.88 248.54 119.22 271.18 119.22 271.18 116.28 251.68 116.28 251.68 110.21"/><path class="cls-1" d="M523.61,345.5c-4.56-.21-9-.44-9-3.11,0-3,5.55-3.2,7.44-3.2a46.93,46.93,0,0,1,10.58,1.22l.67-2.87a49,49,0,0,0-10.75-1.28c-4.74,0-11.13.93-11.13,6.3s6.22,5.64,12,5.93c5.11.29,8.19.44,8.19,2.67,0,3-5.72,3.4-8.22,3.4a37.55,37.55,0,0,1-11.83-1.92l-.84,2.79a37.46,37.46,0,0,0,12.11,2c5.15,0,12-1.14,12-6.45C534.85,346.22,529.33,345.73,523.61,345.5Z" transform="translate(-184.66 -237.81)"/><polygon class="cls-1" points="292.39 98.88 289.25 98.88 289.25 119.22 310.43 119.22 310.43 116.28 292.39 116.28 292.39 98.88"/><polygon class="cls-1" points="252.7 49.78 198.3 49.78 198.3 35.09 246.21 35.09 246.21 24.65 198.3 24.65 198.3 11.66 251.07 11.66 251.07 1.22 187.29 1.22 187.29 60.22 252.7 60.22 252.7 49.78"/><polygon class="cls-1" points="11.01 1.22 0 1.22 0 60.22 61.36 60.22 61.36 49.78 11.01 49.78 11.01 1.22"/><path class="cls-1" d="M302.91,237.81c-24.2,0-39.23,11.77-39.23,30.72s15,30.72,39.23,30.72,39.23-11.77,39.23-30.72S327.1,237.81,302.91,237.81Zm0,51c-17.57,0-28.06-7.58-28.06-20.28s10.49-20.27,28.06-20.27,28,7.57,28,20.27S320.43,288.81,302.91,288.81Z" transform="translate(-184.66 -237.81)"/><polygon class="cls-1" points="363.14 26.22 354.29 44.94 347.18 26.28 337.13 1.22 325.27 1.22 315.3 26.21 308.11 44.95 299.25 26.21 287.21 1.22 274.18 1.22 302.85 60.22 314.05 60.22 324.12 34.63 331.23 15.21 338.29 34.64 348.34 60.22 359.64 60.22 388.22 1.22 375.28 1.22 363.14 26.22"/><path class="cls-1" d="M624.79,263.6c-11.28-.51-24.06-1.08-24.06-7.56,0-7.22,15-7.78,19.63-7.78a128.35,128.35,0,0,1,29.25,3.37l1.1.26,2.37-10.22-1.09-.26a139.47,139.47,0,0,0-30.26-3.6c-21.05,0-32.17,6.48-32.17,18.72,0,15.93,18.4,16.85,34.62,17.67l.56,0c14.35.81,21.24,1.42,21.24,6.3,0,6.17-11.75,8.36-21.82,8.36a103.33,103.33,0,0,1-32.65-5.3l-1.09-.34-3,9.91,1,.35a106,106,0,0,0,34.17,5.74c12.93,0,34.61-2.48,34.61-19.13C657.23,264.91,638.47,264.15,624.79,263.6Z" transform="translate(-184.66 -237.81)"/></svg>