<?xml version="1.0" encoding="UTF-8" standalone="no"?><svg xmlns="http://www.w3.org/2000/svg" xmlns:cc="http://creativecommons.org/ns#" xmlns:dc="http://purl.org/dc/elements/1.1/" xmlns:inkscape="http://www.inkscape.org/namespaces/inkscape" xmlns:rdf="http://www.w3.org/1999/02/22-rdf-syntax-ns#" xmlns:sodipodi="http://sodipodi.sourceforge.net/DTD/sodipodi-0.dtd" xmlns:svg="http://www.w3.org/2000/svg" xmlns:xlink="http://www.w3.org/1999/xlink" id="svg3029" inkscape:version="0.48.1 " sodipodi:docname="PRICELINELOGO1.svg" style="background-color:#0077ff" version="1.1" viewBox="-19.980 -4.805 439.560 105.710" x="0px" xml:space="preserve" y="0px">
<style type="text/css">
	.st0{fill:#0077FF;}
	.st1{fill:#FFFFFF;}
	.st2{display:none;fill:#FFFFFF;}
</style>
<path class="st0" d="M-0.1,0.4h400.2v96.1H-0.1V0.4z" id="rect3037" inkscape:connector-curvature="0"/>
<path class="st1" d="M43.5,21.1c-4.8,0-9.4,2.2-13,5.7v-3.6H15.4v64.2v3.9v0.5h15.1  v-0.5l0,0V70.7c3.6,3.6,8.1,5.7,13,5.7C55.4,76.4,65,64.1,65,48.8S55.4,21.1,43.5,21.1L43.5,21.1z M39.8,33.3c2.2,0,4.1,1,5.8,2.7  c0.5,0.5,1,1,1.4,1.5l0.2,0.2l0,0c0.5,0.7,0.9,1.4,1.2,2.1V40c0,0.2,0.2,0.3,0.2,0.5c0.3,0.7,0.5,1.4,0.9,2.1  c0.2,0.9,0.3,1.7,0.5,2.7l0,0c0.2,1,0.2,1.9,0.2,2.9l0,0c0,1-0.2,2.1-0.2,2.9l0,0c-0.2,1-0.3,1.9-0.5,2.7l0,0  c-1.5,5.5-5.3,9.3-9.8,9.3c-0.7,0-1.4-0.2-2.2-0.3c-0.7-0.2-1.4-0.5-1.9-0.9l0,0c-0.7-0.3-1.2-0.9-1.7-1.4c-0.5-0.5-1-1.2-1.5-1.9  c-0.3-0.5-0.7-1.2-1-1.7v-0.2c-0.2-0.3-0.3-0.5-0.3-0.9c0-0.2-0.2-0.3-0.2-0.5l0,0c-0.9-2.1-1.2-4.5-1.2-7.2  C29.3,40.2,33.9,33.3,39.8,33.3L39.8,33.3z" id="path2997" inkscape:connector-curvature="0"/>
<path class="st1" d="M69.3,23.2v46.2V74v0.5h15.3V74l0,0V42.3  c2.1-3.1,7.2-5.5,13.9-6.2c0.3,0,0.5,0,0.9,0V23h-2.6c-0.7,0.2-1.4,0.2-2.2,0.3s-1.7,0.5-2.6,0.7h-0.2L88,26l-1,0.5l-2.4,1.2v-5  L69.3,23.2L69.3,23.2z" id="rect3031" inkscape:connector-curvature="0"/>
<path class="st1" d="M104.5,23.7h15.3v50.8h-15.3V23.7z" id="rect3030" inkscape:connector-curvature="0"/>
<path class="st1" d="M150.3,21.7c-14.4,0-26.1,12.2-26.1,27.1s11.7,27.3,26.1,27.3  c6.7,0,12.7-2.6,17.2-6.9l-7.4-10.6c-2.2,3.6-5.5,5.8-9.1,5.8c-6.5,0-12-7-12-15.8s5.3-15.8,12-15.8c3.8,0,7.2,2.4,9.4,6.2l6.5-11.3  C162.5,24.1,156.6,21.7,150.3,21.7L150.3,21.7z" id="path3008" inkscape:connector-curvature="0"/>
<path class="st1" d="M300.1,22.7c-5,0-9.6,1.7-12.9,4.5v-3.4h-15.3v50.8h15.3v-34  c1.5-3.1,4.5-5.3,7.7-5.3s6,2.1,7.6,5.1v7.4v2.9v0.5v9.4v14.6h15.3V40c0-0.7,0-1.5,0-2.4c0-0.2,0-0.3,0-0.5c0-0.5,0-0.9,0-1.4v-0.2  C316.9,28.4,309.4,22.7,300.1,22.7L300.1,22.7z" id="rect3403" inkscape:connector-curvature="0"/>
<path class="st1" d="M192.8,20.8c-10.1,0-18.9,6.2-23.2,15.1c0,0.2-0.2,0.3-0.2,0.5  c-1.5,4.5-2.2,9.1-2.2,13.7c0,0.5,0,1,0,1.4c0.2,3.1,0.9,6,1.5,8.9c0.2,0.3,0.3,0.7,0.3,1c1.7,3.9,4.3,7.4,7.4,10.1l0.2,0.2  c4.3,3.1,9.8,4.8,15.8,4.8c11.7,0,21.5-6.9,24.5-16.3l-10.5-4.5c-2.2,5.3-6.9,8.9-12,8.9c-5.8,0-10.6-4.5-12.5-10.6  c0-0.2-0.2-0.3-0.2-0.7v-0.3c-0.2-0.5-0.3-1-0.3-1.5l0,0h0.3h0.5h24.7h11.5c0-3.4-0.2-7-0.9-10.6c0-0.2-0.2-0.3-0.2-0.7  C214.5,29,204.7,20.8,192.8,20.8L192.8,20.8z M192.1,32c0.3,0,0.9,0,1.2,0c5.5,0,9.8,4.5,10.8,10.5h-21.6  C183.2,36.9,187.2,32.5,192.1,32z" id="path3235" inkscape:connector-curvature="0"/>
<path class="st1" d="M223.7,3H239v71.6h-15.3V3z" id="rect3035" inkscape:connector-curvature="0"/>
<path class="st1" d="M248.1,23.7h15.3v50.8h-15.3V23.7z" id="rect3269" inkscape:connector-curvature="0"/>
<path class="st1" d="M347.5,20.8c-10.1,0-18.9,6.2-23.2,15.1c0,0.2-0.2,0.3-0.2,0.5  c-1.5,4.5-2.2,9.1-2.2,13.7c0,0.5,0,1,0,1.4c0.2,3.1,0.9,6,1.5,8.9c0.2,0.3,0.3,0.7,0.3,1c1.7,3.9,4.3,7.4,7.4,10.1l0.2,0.2  c4.3,3.1,9.8,4.8,15.8,4.8c11.7,0,21.5-6.9,24.5-16.3l-10.5-4.5c-2.2,5.3-6.9,8.9-12,8.9c-5.8,0-10.6-4.5-12.5-10.6  c0-0.2-0.2-0.3-0.2-0.7v-0.3c-0.2-0.5-0.3-1-0.3-1.5l0,0h0.3h0.5h24.7h11.5c0-3.4-0.2-7-0.9-10.6c0-0.2-0.2-0.3-0.2-0.7  C368.9,29,359.1,20.8,347.5,20.8L347.5,20.8z M346.6,32c0.3,0,0.9,0,1.2,0c5.5,0,9.8,4.5,10.8,10.5H337  C337.8,36.9,341.8,32.5,346.6,32L346.6,32z" id="path3060" inkscape:connector-curvature="0"/>
<path class="st2" d="M306.8,56.6c0,1.9-1.5,3.4-3.4,3.4s-3.4-1.5-3.4-3.4  s1.5-3.4,3.4-3.4C305.2,53.2,306.8,54.7,306.8,56.6z" id="path3278" inkscape:connector-curvature="0"/>
<path class="st2" d="M317.2,42.7c-4.9,0-8.8,3.9-8.8,8.7s3.9,8.8,8.8,8.8  c2.2,0,4.3-0.8,5.8-2.2l-2.5-3.4c-0.7,1.1-1.8,1.9-3.1,1.9c-2.2,0-4-2.3-4-5.1c0-2.8,1.8-5.1,4-5.1c1.3,0,2.4,0.8,3.2,2l2.2-3.6  C321.3,43.4,319.4,42.7,317.2,42.7L317.2,42.7z" id="path3282" inkscape:connector-curvature="0"/>
<path class="st2" d="M332.5,42.4c-5,0-9.1,4-9.1,8.9s4.1,8.9,9.1,8.9s9-4,9-8.9  S337.5,42.4,332.5,42.4z M332.4,46.4c2.2,0,4,2.2,4,4.9s-1.8,4.9-4,4.9c-2.2,0-3.9-2.2-3.9-4.9C328.5,48.6,330.2,46.4,332.4,46.4z" id="path3286" inkscape:connector-curvature="0"/>
<path class="st2" d="M352.8,42.7c-1.6,0-3.1,0.5-4.1,1.4v-0.5h-5.1v15.8h5.1V47.9  c0.4-1,1.1-1.6,2-1.6s1.7,0.7,2,1.6l0,0v11.4h5.1v-9.1v-2.3v-0.1c0.4-0.9,1.1-1.5,2-1.5s1.7,0.7,2,1.6v11.4h5.1V47v-1.9l0,0  c-1-1.4-2.8-2.4-5-2.4c-1.9,0-3.5,0.7-4.6,1.8C356.3,43.4,354.7,42.7,352.8,42.7z" id="path3449" inkscape:connector-curvature="0"/>
<path class="st1" d="M119.6,11.5c0,4.3-3.4,7.7-7.7,7.7c-4.3,0-7.7-3.4-7.7-7.7  s3.4-7.7,7.7-7.7C116.1,4,119.6,7.4,119.6,11.5z" id="path3255" inkscape:connector-curvature="0"/>
<path class="st1" d="M263.2,11.5c0,4.3-3.4,7.7-7.7,7.7c-4.3,0-7.7-3.4-7.7-7.7  s3.4-7.7,7.7-7.7C259.8,4,263.2,7.4,263.2,11.5z" id="path3271" inkscape:connector-curvature="0"/>
<path class="st1" d="M374.7,15.1c-4.3,0-7.7,3.4-7.7,7.7s3.4,7.7,7.7,7.7  s7.7-3.4,7.7-7.7S379,15.1,374.7,15.1z M374.7,16.3c3.6,0,6.5,2.9,6.5,6.5s-2.9,6.5-6.5,6.5s-6.5-2.9-6.5-6.5S371.1,16.3,374.7,16.3  z" id="path3575" inkscape:connector-curvature="0"/>
<path class="st1" d="M372.3,19.4v6.9h0.9v-2.7h2.9l0.7,0.7v2.1h0.9v-2.4l0,0l0,0  l-0.7-0.7c0.7-0.3,1-1,1-1.9c0-1-0.7-1.9-1.5-2.1l0,0h-0.2h-3.1H373h-0.7V19.4z M373,20.3h3.1c0.5,0.2,0.7,0.7,0.7,1.2  s-0.3,1-0.7,1.2H373V20.3z" id="path3357" inkscape:connector-curvature="0"/>
</svg>