<svg id="Calque_1" data-name="Calque 1" xmlns="http://www.w3.org/2000/svg" viewBox="0 0 150 150"><defs><style>.cls-1{fill:#44403f;}</style></defs><title>centre-de-beaute</title><path class="cls-1" d="M140,58.11A9.72,9.72,0,0,0,132,54h-7a7.63,7.63,0,0,0-3,.52,16.86,16.86,0,0,0-15.34-16.38,13.58,13.58,0,0,0,5.46-10.92v-.65l-.46-10.73A13.63,13.63,0,0,0,98.1,2.73H50.65A13.64,13.64,0,0,0,37,15.86l-.45,10.73A13.65,13.65,0,0,0,42,38.16,16.85,16.85,0,0,0,26.67,54.54a7.63,7.63,0,0,0-3-.52h-7a9.91,9.91,0,0,0-8.06,4.09A9.78,9.78,0,0,0,7.23,67l10.08,33a10,10,0,0,0,9.49,7l34.71-.07V125c0,3.38-5.66,5.85-15.21,6.69a7.74,7.74,0,0,0-7.09,7.74,7.84,7.84,0,0,0,7.8,7.86h54.73a7.84,7.84,0,0,0,7.8-7.86,7.73,7.73,0,0,0-7.08-7.74c-9.56-.84-15.21-3.31-15.21-6.69V106.86l34.71.07a10,10,0,0,0,9.49-7l10.07-33A9.57,9.57,0,0,0,140,58.11ZM41.1,26.78l.45-10.72a9.16,9.16,0,0,1,9.1-8.78H98.1a9.14,9.14,0,0,1,9.1,8.78l.46,10.72a9.1,9.1,0,0,1-8.26,9.49,278.9,278.9,0,0,1-50.05,0A9.09,9.09,0,0,1,41.1,26.78ZM31.22,57.27V54.86A12.26,12.26,0,0,1,43.5,42.64h61.75a12.27,12.27,0,0,1,12.29,12.22v2.41a.24.24,0,0,0,.06.19,9.05,9.05,0,0,0-2,3.51l-6.7,22h-69L33.17,61a9.07,9.07,0,0,0-2-3.51A.22.22,0,0,0,31.22,57.27Zm70.85,78.91a3.29,3.29,0,0,1-.33,6.56H47a3.29,3.29,0,0,1-.32-6.56c16.05-1.37,19.37-6.83,19.37-11.18V106.8H82.7V125C82.7,129.35,86,134.81,102.07,136.18Zm35.1-70.59-10.08,33a5.36,5.36,0,0,1-5.13,3.77l-36.86-.13H63.65l-36.85.13a5.38,5.38,0,0,1-5.14-3.77l-10.07-33a5.27,5.27,0,0,1,.78-4.81,5.43,5.43,0,0,1,4.35-2.21h7a5.29,5.29,0,0,1,5.13,3.77L36,85.87a2.3,2.3,0,0,0,2.21,1.62h72.28a2.31,2.31,0,0,0,2.21-1.62l7.21-23.53a5.3,5.3,0,0,1,5.14-3.77h7a5.44,5.44,0,0,1,4.36,2.21A5.27,5.27,0,0,1,137.17,65.59Z"/></svg>