<svg id="Calque_1" data-name="Calque 1" xmlns="http://www.w3.org/2000/svg" viewBox="0 0 150 150"><defs><style>.cls-1{fill:#45403f;}</style></defs><title>bar</title><path class="cls-1" d="M82.66,94.3l.15-.15,55-53.63V34.1H61.21l-.08-.23L48.82,2h-38V7.14H45.2l.07.22L55.62,34.1H22.24v6.35L77.6,94.37v.08l-.23,48.49H52V148h56v-5.06H82.51v-.3Zm-2.57-4.69-.15-.15L29.41,40.37H58l.08.15L74,81.84,78.81,80,63.55,40.37H130.7l-.53.45Z"/><path class="cls-1" d="M105.47,59.86a6.61,6.61,0,1,1-6.57-6.65A6.64,6.64,0,0,1,105.47,59.86Z"/></svg>