<svg id="Calque_1" data-name="Calque 1" xmlns="http://www.w3.org/2000/svg" viewBox="0 0 150 150"><defs><style>.cls-1{fill:#44403f;}</style></defs><title>massage</title><path class="cls-1" d="M145.48,136.85H111.34a11.08,11.08,0,0,1-7.89-3.27l-15-15a6,6,0,0,0-4.33-1.8H3.79a2.52,2.52,0,1,1,0-5H84.07A11,11,0,0,1,92,115L107,130a6.17,6.17,0,0,0,4.33,1.79h34.14a2.52,2.52,0,1,1,0,5Z"/><path class="cls-1" d="M121,116.74a18,18,0,1,1,18-18A18,18,0,0,1,121,116.74Zm0-30.89A12.93,12.93,0,1,0,133.9,98.78,12.94,12.94,0,0,0,121,85.85Z"/><path class="cls-1" d="M69,50.22a18,18,0,1,1,18-18A18,18,0,0,1,69,50.22Zm0-30.89A12.93,12.93,0,1,0,81.94,32.26,12.94,12.94,0,0,0,69,19.33Z"/><path class="cls-1" d="M20,101.29a2.51,2.51,0,0,1-1.87-4.2L54.42,56.68a2.52,2.52,0,0,1,4.37,2c-.15,1.07-3.48,26.38,20.92,36.14a2.52,2.52,0,0,1-1.87,4.68C58.2,91.68,54.25,74.7,53.67,65.06L21.9,100.45A2.51,2.51,0,0,1,20,101.29Z"/><path class="cls-1" d="M44.86,24.8a2.6,2.6,0,0,1-1-.2,2.52,2.52,0,0,1-1.34-3.3,29.61,29.61,0,0,1,5.7-9.21,2.52,2.52,0,0,1,3.69,3.42,24.76,24.76,0,0,0-4.75,7.75A2.53,2.53,0,0,1,44.86,24.8Z"/></svg>