<svg id="Calque_1" data-name="Calque 1" xmlns="http://www.w3.org/2000/svg" viewBox="0 0 150 150"><defs><style>.cls-1{fill:#44403f;}</style></defs><title>spa</title><path class="cls-1" d="M145.92,55.87l-.14-2.49-2.43-.14a90.89,90.89,0,0,0-18.66,1.35A98.45,98.45,0,0,0,118,34.78l-1.08-2.22-2.29.81a94.38,94.38,0,0,0-18.46,9.5A101,101,0,0,0,77,19.89l-1.81-1.55-1.76,1.55A103.41,103.41,0,0,0,54.22,43,99.28,99.28,0,0,0,35.9,33.57l-2.29-.81-1.08,2.16a100,100,0,0,0-6.94,20.95A94.64,94.64,0,0,0,5.65,54.25l-2.43.14-.13,2.49C3,58.3,1.27,92.45,22,113.14,38.53,129.71,64.13,131.87,74.37,132h1.55c10-.4,34.83-3.1,50.93-19.13C147.73,92,146.05,57.29,145.92,55.87ZM106.23,75.81a51.71,51.71,0,0,0-.87-9.43c13.74-6.6,28.56-7.61,35.1-7.68,0,8.76-1.62,34.43-17.52,50.33C111,120.88,93.43,124.72,82.65,125.94,90.87,117.38,106.23,98.38,106.23,75.81Zm-2.15-15a71.36,71.36,0,0,0-5.26-13.21,102.5,102.5,0,0,1,15.23-8.15,104.39,104.39,0,0,1,5.25,16.24A80.5,80.5,0,0,0,104.08,60.86ZM36.44,39.7a103.32,103.32,0,0,1,15.09,8.15,67.94,67.94,0,0,0-5.66,14.69A72.38,72.38,0,0,0,31,57.08,99.47,99.47,0,0,1,36.44,39.7ZM25.79,109.23C10.16,93.6,8.61,68.4,8.55,59.71c6.87.14,22.3,1.21,36.17,8.42a61,61,0,0,0-.53,7.68c0,22.77,15.56,41.84,23.78,50.4C56.78,125.2,38.32,121.69,25.79,109.23Zm49.39,16.3c-6.67-6.26-25.54-26.07-25.54-49.72a46.59,46.59,0,0,1,1-9.43l.27-1.14c4.31-19.07,19-34.43,24.26-39.55,5.45,5.19,25.6,26.14,25.6,50.12C100.78,99.39,81.91,119.27,75.18,125.53Z"/></svg>