<svg id="Calque_1" data-name="Calque 1" xmlns="http://www.w3.org/2000/svg" viewBox="0 0 150 150"><defs><style>.cls-1{fill:#44403f;}</style></defs><title>animaux-acceptes</title><path class="cls-1" d="M114.4,83.64c-8.32-14-21.54-23.83-34.7-25.94l-.62-.07c-.25-.06-.43-.06-.62-.12l-1.36-.12-1.68-.13H73.5l-1.68.13c-.43.06-.87.06-1.37.12C56.86,59.25,43.08,69.24,34.52,83.64c-6.39,10.8-9.37,22.72-8.32,33.7,1.06,11.17,6.08,19.92,14.15,24.77A18.37,18.37,0,0,0,50,144.65a53.14,53.14,0,0,0,11.3-1.74,59.59,59.59,0,0,1,13.16-1.86A61.3,61.3,0,0,1,87.77,143a51.25,51.25,0,0,0,11.17,1.68,18.6,18.6,0,0,0,9.62-2.54c8.07-4.85,13.1-13.6,14.15-24.77C123.77,106.36,120.79,94.44,114.4,83.64Zm4.16,29.42c0,11-4.16,20.48-12.23,25.32-5.22,3.1-10.68,1.86-17.63.31a64.06,64.06,0,0,0-14.27-2,65.12,65.12,0,0,0-14.22,2c-7,1.55-12.41,2.79-17.62-.31-14.46-8.69-16.45-32.21-4.35-52.44,7.95-13.35,20.55-22.53,32.84-24.08.37-.07.74-.07,1.3-.13l1.24-.06h1.92l1.18.06c.38.06.75.06,1.24.13,12.23,1.55,24.77,10.73,32.71,24.08A53.56,53.56,0,0,1,118.56,113.06Z"/><path class="cls-1" d="M33.84,54.47C30.92,46.9,25.77,40.94,20,38.52a12.78,12.78,0,0,0-10.25-.06c-8.31,3.72-11.23,17-6.45,29.48,2.92,7.63,8.13,13.59,13.9,16A14.12,14.12,0,0,0,22.6,85a11.73,11.73,0,0,0,4.84-1C35.76,80.23,38.61,67,33.84,54.47ZM14.6,41.81a9.53,9.53,0,0,1,3.72.8c4.65,1.93,8.94,7,11.42,13.41a31.44,31.44,0,0,1,2.05,10.8c0,6.21-2.17,11.42-6.15,13.16a8.27,8.27,0,0,1-6.76-.13c-4.72-1.92-9-6.95-11.48-13.46-3.91-10.18-2-21.17,4.15-24A7.18,7.18,0,0,1,14.6,41.81Z"/><path class="cls-1" d="M68.1,26.54c-2.24-7.94-7-14.4-12.48-17.32A12.75,12.75,0,0,0,45.5,8.11C36.88,11,32.84,23.93,36.5,36.9c2.3,7.89,7,14.34,12.54,17.26a13.43,13.43,0,0,0,6.39,1.67,12.27,12.27,0,0,0,3.67-.55C67.72,52.36,71.76,39.45,68.1,26.54ZM51,50.31c-4.53-2.42-8.38-7.88-10.3-14.65a31.37,31.37,0,0,1-1.18-8.5c0-7.26,2.73-13.34,7.32-14.9a7.63,7.63,0,0,1,2.3-.37,10,10,0,0,1,4.4,1.18C58.1,15.49,62,21,63.88,27.72c3,10.55.18,21.29-6.15,23.4A8.67,8.67,0,0,1,51,50.31Z"/><path class="cls-1" d="M139.16,38.46a12.76,12.76,0,0,0-10.24.06c-5.77,2.42-10.92,8.38-13.84,15.95C110.3,67,113.16,80.23,121.47,84a11.76,11.76,0,0,0,4.84,1,14.12,14.12,0,0,0,5.4-1.12c5.78-2.36,10.93-8.32,13.84-16a33.22,33.22,0,0,0,2.36-12.17C147.91,47.77,144.75,40.94,139.16,38.46ZM123.27,80c-6.14-2.73-8-13.72-4.09-24,2.48-6.45,6.76-11.48,11.42-13.41a9.49,9.49,0,0,1,3.72-.8,7.1,7.1,0,0,1,3,.62c4,1.8,6.15,7.07,6.15,13.28a30.43,30.43,0,0,1-2,10.68C139,72.9,134.69,77.93,130,79.85A8.3,8.3,0,0,1,123.27,80Z"/><path class="cls-1" d="M103.41,8.11A12.76,12.76,0,0,0,93.29,9.22c-5.52,2.92-10.24,9.38-12.47,17.32a34.56,34.56,0,0,0-1.37,9.56c0,9.18,3.91,17,10.37,19.18a12.25,12.25,0,0,0,3.66.55,13.43,13.43,0,0,0,6.39-1.67c5.59-2.92,10.24-9.37,12.48-17.32C116.07,23.93,112,11,103.41,8.11Zm-3.72,3.78a7.81,7.81,0,0,1,2.36.37c6.33,2.11,9.12,12.85,6.14,23.4-1.92,6.77-5.83,12.23-10.36,14.65a8.56,8.56,0,0,1-6.65.81c-4.59-1.55-7.32-7.64-7.32-14.9A31.37,31.37,0,0,1,85,27.72C87,21,90.81,15.49,95.34,13.07A10,10,0,0,1,99.69,11.89Z"/></svg>