<svg id="Calque_1" data-name="Calque 1" xmlns="http://www.w3.org/2000/svg" viewBox="0 0 150 150"><defs><style>.cls-1{fill:#44403f;}</style></defs><title>parking-payant</title><path class="cls-1" d="M146.1,98.63h-2.75V81.42a1.86,1.86,0,0,0-1.85-1.9h-28a56.22,56.22,0,0,0,1.3-12,56.87,56.87,0,1,0-56.89,56.84,41.34,41.34,0,0,0,5-.25,23.91,23.91,0,0,0,2.16,4.75c3.3,5.76,8.35,9.41,14.25,10.41a16.9,16.9,0,0,0,3.16.25c.55,0,1.15,0,1.7-.1a1.58,1.58,0,0,0,1.15.45h49.73A1.86,1.86,0,0,0,137,138V120.75h9.11a1.9,1.9,0,0,0,1.9-1.9V100.53A1.9,1.9,0,0,0,146.1,98.63Zm-6.51-15.36V97.88H115.18a20.49,20.49,0,0,0-5.81-6.1A18.91,18.91,0,0,0,106,90.13a13.73,13.73,0,0,0-2-.55L93.61,88.13V83.27ZM61.84,109.44a32.5,32.5,0,0,0,.1,11c-1.35.1-2.65.15-4,.15a53.11,53.11,0,1,1,53.14-53.09,49.43,49.43,0,0,1-1.41,12H91.76a1.9,1.9,0,0,0-1.9,1.9v5.91a17.94,17.94,0,0,0-1.75-.4C76.05,85,64.29,95,61.84,109.44ZM87.26,135c-.65.2-1.3.35-1.9.5a15.26,15.26,0,0,1-3.1.25,20.68,20.68,0,0,1-2.25-.2A16.69,16.69,0,0,1,68.35,127a25.78,25.78,0,0,1-1.6-3.35,21.35,21.35,0,0,1-1-3.6,27.7,27.7,0,0,1-.15-10c1.8-10.91,9.7-19,18.36-19.61a1.43,1.43,0,0,1,.65,0,1.38,1.38,0,0,1,.45,0,21.05,21.05,0,0,1,2.5.2,18,18,0,0,1,2.35.6l.85.3a18,18,0,0,1,2.9,1.6,18.35,18.35,0,0,1,4.71,4.75l.45.75a4.17,4.17,0,0,1,.4.6c.1.15.45.85.55,1a12.09,12.09,0,0,1,.65,1.36l.3.75a12,12,0,0,1,.6,1.9,24.59,24.59,0,0,1,1,7.2,29.2,29.2,0,0,1-.4,4.65c0,.3-.1.56-.15.86s-.76,2.69-1.35,4.55a24.39,24.39,0,0,1-6.61,9.7A19.18,19.18,0,0,1,87.26,135Zm7.59.66-.49-.11a17,17,0,0,0,1.91-1.5,27.52,27.52,0,0,0,8.15-12.51c.1-.25.45-1.46.75-2.7.1-.35.35-1.55.4-1.85,0-.1.05-.15.05-.25a30.07,30.07,0,0,0-1-14.36,4.4,4.4,0,0,0-.25-.75l-.3-.91s-.3-.7-.45-1a10.7,10.7,0,0,0-.5-1.1c-.15-.25-.25-.5-.4-.75s-.2-.35-.3-.55a2.79,2.79,0,0,0-.25-.4,21.45,21.45,0,0,0-3.3-4.25l4.5.6a6,6,0,0,1,.9.25,10.16,10.16,0,0,1,3.35,1.55,13.41,13.41,0,0,1,3,2.8,3.94,3.94,0,0,1,.6.75,5.35,5.35,0,0,1,.75,1.1,7,7,0,0,1,.5.8c.2.35.4.76.6,1.11s.25.5.35.75a25.93,25.93,0,0,1,1.8,12.85c0,.6-.15,1.2-.25,1.76s-.24,1.34-.34,1.8c-.16.64-.36,1.6-.51,2a4.91,4.91,0,0,1-.25.8,22.65,22.65,0,0,1-7.46,11.06A14.84,14.84,0,0,1,94.85,135.67Zm38.39.44H108c.25-.15.45-.35.7-.5a27.3,27.3,0,0,0,9.11-14.06h15.41Zm11-19.11H118.78a13.67,13.67,0,0,0,.2-1.41,28.73,28.73,0,0,0-1.6-13.2h26.87Z"/><path class="cls-1" d="M63.89,44.45H47.08a1.45,1.45,0,0,0-1.45,1.45V96.38a1.45,1.45,0,0,0,1.45,1.45H50a1.48,1.48,0,0,0,1.4-1.45V78.47H64a17,17,0,1,0-.1-34Zm-.35,28.37H51.39V50.25H63.54c6.26,0,11.61,4.75,11.61,10.91A11.66,11.66,0,0,1,63.54,72.82Z"/><path class="cls-1" d="M84.32,110.85V107a28.42,28.42,0,0,1,2.87,1.6.51.51,0,0,0,.75-.15l1.56-2.26a.72.72,0,0,0-.2-.85,9.75,9.75,0,0,0-5-2v-.91a.57.57,0,0,0-.15-.37.51.51,0,0,0-.35-.13h-.45a.5.5,0,0,0-.51.5v.86c-3.57.35-5.48,2.66-5.48,5.32,0,3.17,3.12,5.08,5.43,6v4.37a12.42,12.42,0,0,1-3.11-1.61c-.41-.3-.81-.1-1.06.35l-1.16,2c-.2.41-.13.47.16.76a8.35,8.35,0,0,0,5.17,2.06v2.76a.58.58,0,0,0,.09.32.44.44,0,0,0,.41.19h.46a.51.51,0,0,0,.5-.51v-2.76a7.91,7.91,0,0,0,2-.45,6.33,6.33,0,0,0,1.86-1.11,6.18,6.18,0,0,0,1.06-1.21,4.85,4.85,0,0,0,.72-1.9,7.2,7.2,0,0,0,.08-.86C90,113.46,86.43,111.65,84.32,110.85Zm-1.56-.66c-1.1-.65-1.51-1.3-1.51-2.11a1.68,1.68,0,0,1,1.51-1.41Zm1.61,9.1v-3.92a2.91,2.91,0,0,1,1.41,2.26A1.72,1.72,0,0,1,84.37,119.29Z"/></svg>