<svg id="Calque_1" data-name="Calque 1" xmlns="http://www.w3.org/2000/svg" viewBox="0 0 64 64"><title>bar-rooftop</title><path d="M21.79,33.53H10.87a1.12,1.12,0,0,1-1.13-1.12V21.15A1.12,1.12,0,0,1,10.87,20H21.79a1.12,1.12,0,0,1,1.12,1.12V32.41A1.12,1.12,0,0,1,21.79,33.53ZM12,31.29h8.67v-9H12Z"/><path d="M40.77,33.53H29.85a1.12,1.12,0,0,1-1.12-1.12V21.15A1.12,1.12,0,0,1,29.85,20H40.77a1.13,1.13,0,0,1,1.13,1.12V32.41A1.13,1.13,0,0,1,40.77,33.53ZM31,31.29h8.67v-9H31Z"/><path d="M21.79,51.14H10.87A1.12,1.12,0,0,1,9.74,50V38.76a1.12,1.12,0,0,1,1.13-1.12H21.79a1.12,1.12,0,0,1,1.12,1.12V50A1.12,1.12,0,0,1,21.79,51.14ZM12,48.89h8.67v-9H12Z"/><path d="M40.77,51.14H29.85A1.12,1.12,0,0,1,28.73,50V38.76a1.12,1.12,0,0,1,1.12-1.12H40.77a1.13,1.13,0,0,1,1.13,1.12V50A1.13,1.13,0,0,1,40.77,51.14ZM31,48.89h8.67v-9H31Z"/><path d="M51.61,37.63h-2.8V15.77h1.7a1.13,1.13,0,0,0,1.13-1.12,1.11,1.11,0,0,0-1.13-1.12H40.33l0-5.09a24.74,24.74,0,0,0,7.92-1.37l1.55-.52L48.54,5.47S43.09.78,39.58.78s-8.79,4.85-8.84,4.9l-1.23,1.1,1.55.47a28.2,28.2,0,0,0,7.38,1.16l0,5.12H12.66l0-5.77a24.53,24.53,0,0,0,7.95-1.37l1.52-.51L20.87,4.82c-.05-.06-5.45-4.71-9-4.71S3.14,5,3.1,5L1.86,6.1l1.53.5a30.44,30.44,0,0,0,7.38,1.14l0,5.79H1.12A1.11,1.11,0,0,0,0,14.65a1.12,1.12,0,0,0,1.12,1.12H2.81V62.88A1.12,1.12,0,0,0,3.93,64H47.69a1.12,1.12,0,0,0,1.12-1.12V51.14h8.55V62.88A1.12,1.12,0,0,0,58.48,64a1.11,1.11,0,0,0,1.12-1.12V51.14h3.28A1.14,1.14,0,0,0,64,50,12.42,12.42,0,0,0,51.61,37.63ZM39.54,2.6c1.8.36,4.67,2.07,6.35,3.23a28.41,28.41,0,0,1-12.45.09C35.07,4.71,37.79,3,39.54,2.6ZM5.77,5.27c1.66-1.23,4.35-3,6.1-3.34a22.8,22.8,0,0,1,6.37,3.23A28.88,28.88,0,0,1,5.77,5.27ZM46.56,61.75H5.05v-46H46.56ZM48.81,48.9v-9h2.8a10.16,10.16,0,0,1,10.08,9Z"/></svg>