<svg id="Calque_1" data-name="Calque 1" xmlns="http://www.w3.org/2000/svg" viewBox="0 0 150 150"><defs><style>.cls-1{fill:#44403f;}</style></defs><title>acces-aux-personnes-a-mobilite-reduite</title><path class="cls-1" d="M57.4,50.14A24.07,24.07,0,1,1,81.46,26.08,24.09,24.09,0,0,1,57.4,50.14ZM57.4,7A19.07,19.07,0,1,0,76.47,26.08,19.09,19.09,0,0,0,57.4,7Z"/><path class="cls-1" d="M67.35,149A53.31,53.31,0,0,1,17.49,76.8,54.08,54.08,0,0,1,24,64.6,2.48,2.48,0,0,1,27.51,64a2.51,2.51,0,0,1,.58,3.49,48.29,48.29,0,0,0-4.81,48,48.29,48.29,0,0,0,76.05,16.33,2.5,2.5,0,0,1,3.31,3.75A53.22,53.22,0,0,1,67.35,149Z"/><path class="cls-1" d="M54,119.75A2.5,2.5,0,0,1,51.57,118L43.5,91.55a2.42,2.42,0,0,1,0-1.55l8.58-24.68A2.49,2.49,0,1,1,56.82,67L48.51,90.87l7.84,25.65a2.5,2.5,0,0,1-1.66,3.12A2.64,2.64,0,0,1,54,119.75Z"/><path class="cls-1" d="M133.56,140.58l-.42,0-13.55-2.29a2.51,2.51,0,0,1-2.08-2.27l-2.3-29.62-37.7-.23a2.5,2.5,0,0,1,0-5h0l40,.25a2.49,2.49,0,0,1,2.47,2.3l2.33,30,11.63,2a2.5,2.5,0,0,1-.41,5Z"/></svg>