<svg id="Calque_1" data-name="Calque 1" xmlns="http://www.w3.org/2000/svg" viewBox="0 0 150 150"><defs><style>.cls-1{fill:#44403f;}</style></defs><title>jacuzzi</title><path class="cls-1" d="M147.34,53.7a1.13,1.13,0,0,1,.07.51V123.9c0,5.94-4.58,12.45-10.2,14.39A183.56,183.56,0,0,1,75.2,149a184.1,184.1,0,0,1-62-10.71C7.58,136.35,3,129.84,3,123.9V54.21a1.3,1.3,0,0,1,.06-.51A.43.43,0,0,1,3,53.44C3,48,7.26,42,12.42,40.08a169,169,0,0,1,17.36-5.29,16.41,16.41,0,0,0,.32,3c.13.58.26,1.16.45,1.74q-8.32,2.13-16.45,5A6.34,6.34,0,0,0,12,45.82a8.64,8.64,0,0,1,2.78.58,180.27,180.27,0,0,0,100.85,5.81,10.36,10.36,0,0,0,.39,3.36,11.87,11.87,0,0,0,.45,1.35,157.71,157.71,0,0,1-19,3.29V117.9a2.42,2.42,0,1,1-4.84,0V60.79c-5.81.58-11.62.84-17.43.84a177.19,177.19,0,0,1-24.77-1.74v58a2.42,2.42,0,1,1-4.84,0V60a1.79,1.79,0,0,1,.19-.84A180.33,180.33,0,0,1,13.2,50.92a6.8,6.8,0,0,0-2.13-.39,3.63,3.63,0,0,0-1.94.52,3.89,3.89,0,0,0-1.29,3.16V123.9c0,3.94,3.29,8.52,7,9.87a180.4,180.4,0,0,0,120.79,0,11.55,11.55,0,0,0,7-9.87V54.21a3.89,3.89,0,0,0-1.29-3.16,4.59,4.59,0,0,0-4.07-.13q-2.61,1-5.22,1.74a4.45,4.45,0,0,0-.2-1.29,10.86,10.86,0,0,0-1.42-3.22q2.63-.78,5.23-1.75a8.58,8.58,0,0,1,2.78-.58,6.34,6.34,0,0,0-2.07-1.22c-3-1.1-6.13-2.13-9.23-3a24.82,24.82,0,0,0,3.42-4c2.52.78,5,1.62,7.49,2.52,5.16,1.87,9.42,7.87,9.42,13.36A.38.38,0,0,1,147.34,53.7Z"/><path class="cls-1" d="M109.15,2.27A20.34,20.34,0,0,0,88.82,22.66a19.84,19.84,0,0,0,1.29,7.1,17.85,17.85,0,0,0,2.77,5A20.13,20.13,0,0,0,109.15,43a19.84,19.84,0,0,0,11.09-3.29,19.39,19.39,0,0,0,4.46-3.87A20.37,20.37,0,0,0,109.15,2.27ZM119.21,34.4a14.83,14.83,0,0,1-6.84,3.42h-.06a16.52,16.52,0,0,1-3.16.32,14.88,14.88,0,0,1-8.07-2.32H101a15,15,0,0,1-5.3-5.55h-.06a15.24,15.24,0,0,1-2-7.61,15.52,15.52,0,1,1,31,0A15.31,15.31,0,0,1,119.21,34.4Z"/><path class="cls-1" d="M42,32.08a2,2,0,0,0-.07.71,3.23,3.23,0,0,0,.33,1.68,11,11,0,0,1,.58,2.38,5.71,5.71,0,0,1,.06,1,9.34,9.34,0,0,1-.64,3.48A3.1,3.1,0,0,0,42,43.05a2.44,2.44,0,0,1-2.45,2.39,2.39,2.39,0,0,1-2.39-2.39,9.15,9.15,0,0,1,.65-3.49,3.05,3.05,0,0,0,.32-1.67v-.07a3.25,3.25,0,0,0-.32-1.61,8.82,8.82,0,0,1-.65-3.16v-.26a9.48,9.48,0,0,1,.65-3.49,3,3,0,0,0,.32-1.61A3.24,3.24,0,0,0,37.78,26a8.68,8.68,0,0,1-.65-3.42,8.72,8.72,0,0,1,.65-3.42,1,1,0,0,0,.13-.38,3.41,3.41,0,0,0,.19-1.29,2.44,2.44,0,0,1,2.45-2.39,2.18,2.18,0,0,1,1.55.58,2.39,2.39,0,0,1,.84,1.81A9.62,9.62,0,0,1,42.3,21,3,3,0,0,0,42,22.59a3,3,0,0,0,.33,1.62,9.62,9.62,0,0,1,.64,3.48,9,9,0,0,1-.64,3.42A1.77,1.77,0,0,0,42,32.08Z"/><path class="cls-1" d="M60,31.11a5.33,5.33,0,0,0-.46,2.26,5.48,5.48,0,0,0,.13,1.16A6.32,6.32,0,0,0,60,35.69a9.27,9.27,0,0,1,.84,4.07A9.21,9.21,0,0,1,60,43.82a5.33,5.33,0,0,0-.46,2.26,2.42,2.42,0,1,1-4.83,0A10.69,10.69,0,0,1,55.46,42,4.55,4.55,0,0,0,56,39.76a4.18,4.18,0,0,0-.52-2.26,11.47,11.47,0,0,1-.65-2.39,14.71,14.71,0,0,1-.12-1.74,9.51,9.51,0,0,1,.45-3.1c.13-.38.19-.64.32-1A4.15,4.15,0,0,0,56,27.05a4.52,4.52,0,0,0-.52-2.26,10.48,10.48,0,0,1-.77-4.07,10.42,10.42,0,0,1,.77-4.06A4.21,4.21,0,0,0,56,14.4,2.38,2.38,0,0,1,58.36,12a2.44,2.44,0,0,1,2.46,2.39A9.21,9.21,0,0,1,60,18.46,5.78,5.78,0,0,0,60,23a9.23,9.23,0,0,1,.84,4.07,9.43,9.43,0,0,1-.33,2.71C60.3,30.27,60.17,30.72,60,31.11Z"/><path class="cls-1" d="M79.27,31.11A4.15,4.15,0,0,0,79,32.79,5.06,5.06,0,0,0,79.08,34h.06a1.94,1.94,0,0,0,.13.46A7.53,7.53,0,0,1,80,37.89a7.88,7.88,0,0,1-.71,3.48A3.94,3.94,0,0,0,79,43.05a2.42,2.42,0,0,1-4.84,0,7.79,7.79,0,0,1,.71-3.49,3.86,3.86,0,0,0,.32-1.67,4.37,4.37,0,0,0-.32-1.68,6.81,6.81,0,0,1-.65-2.32,6.41,6.41,0,0,1-.06-1.1,8,8,0,0,1,.71-3.49c0-.06.06-.12.06-.19a4,4,0,0,0,.26-1.42A4.15,4.15,0,0,0,74.82,26a7.4,7.4,0,0,1-.71-3.42,7.43,7.43,0,0,1,.71-3.42,4.13,4.13,0,0,0,.32-1.67,2.42,2.42,0,0,1,4.84,0A8.1,8.1,0,0,1,79.27,21a4.24,4.24,0,0,0,0,3.23A8.1,8.1,0,0,1,80,27.69a11.39,11.39,0,0,1-.13,1.55A7.29,7.29,0,0,1,79.27,31.11Z"/><path class="cls-1" d="M129.59,63.78a2.25,2.25,0,0,1-.19.59l-8.78,20.34a2.3,2.3,0,0,1-2.2,1.48,2.61,2.61,0,0,1-1-.19,2.35,2.35,0,0,1-1.22-3.17L123.85,65l1.09-2.52a6.29,6.29,0,0,0-.19-5.49,6,6,0,0,0-1.1-1.68L121.46,53h-.07l-3.1-3.29c-.06-.07-.19-.2-.19-.33s-.19-.13-.19-.25a2.46,2.46,0,0,1,.45-2.85,2.43,2.43,0,0,1,3.1-.12.5.5,0,0,1,.32.19l1,1,3.94,4.13.45.52a10.36,10.36,0,0,1,2.32,3.68A10.7,10.7,0,0,1,129.59,63.78Z"/></svg>