<svg id="Calque_1" data-name="Calque 1" xmlns="http://www.w3.org/2000/svg" viewBox="0 0 150 150"><defs><style>.cls-1{fill:#44403f;}</style></defs><title>piscine-exterieure</title><path class="cls-1" d="M109.44,110.5a50.51,50.51,0,0,1-17.82-2.85A46.1,46.1,0,0,0,75.19,105a46.06,46.06,0,0,0-16.41,2.63A50.44,50.44,0,0,1,41,110.5a50.44,50.44,0,0,1-17.81-2.85A45.89,45.89,0,0,0,6.77,105a2.31,2.31,0,1,1,0-4.61,50.38,50.38,0,0,1,17.8,2.85A46,46,0,0,0,41,105.89a46.06,46.06,0,0,0,16.41-2.63,50.44,50.44,0,0,1,17.81-2.85A50.53,50.53,0,0,1,93,103.26a46.08,46.08,0,0,0,16.42,2.63,46.1,46.1,0,0,0,16.43-2.63,50.53,50.53,0,0,1,17.83-2.85,2.31,2.31,0,0,1,0,4.61,46.1,46.1,0,0,0-16.43,2.63A50.53,50.53,0,0,1,109.44,110.5Z"/><path class="cls-1" d="M109.33,130.81A50.62,50.62,0,0,1,91.5,128a46.08,46.08,0,0,0-16.42-2.63A46,46,0,0,0,58.67,128a50.55,50.55,0,0,1-17.82,2.84A50.4,50.4,0,0,1,23.06,128c-1-.32-2-.65-3.06-1a2.3,2.3,0,1,1,1.27-4.42c1.1.31,2.15.64,3.19,1a46,46,0,0,0,16.39,2.62,46,46,0,0,0,16.41-2.63,50.78,50.78,0,0,1,17.82-2.84,50.85,50.85,0,0,1,17.83,2.84,46,46,0,0,0,16.42,2.63,46.1,46.1,0,0,0,16.43-2.63c1.12-.36,2.25-.72,3.44-1a2.31,2.31,0,0,1,1.25,4.44c-1.14.32-2.22.66-3.28,1A50.36,50.36,0,0,1,109.33,130.81Z"/><path class="cls-1" d="M104.35,25.74A14.89,14.89,0,0,0,89.48,40.68V55.06H63.42V40.68A10.11,10.11,0,0,1,73.5,30.35c3.07,0,5.84,2.4,7.56,4.43l3.5-3c-3.38-3.94-7.25-6-11.06-6A14.67,14.67,0,0,0,58.81,40.68V96.59h4.61V78.77H89.48V96.59H94V40.68a10.31,10.31,0,0,1,10.33-10.33,10,10,0,0,1,7.43,3.81l3.5-3C112.21,27.59,108.46,25.74,104.35,25.74ZM89.48,74.17H63.42V59.66H89.48Z"/></svg>