<svg id="Calque_1" data-name="Calque 1" xmlns="http://www.w3.org/2000/svg" viewBox="0 0 150 150"><defs><style>.cls-1{fill:#44403f;}</style></defs><title>business-center</title><path class="cls-1" d="M136.34,28.34H105.93v-5A12.75,12.75,0,0,0,93.2,10.59H57A12.69,12.69,0,0,0,44.3,23.32v5H13.82A12.67,12.67,0,0,0,1.16,41v85.13a12.73,12.73,0,0,0,12.66,12.73H136.34A12.74,12.74,0,0,0,149,126.13V41A12.68,12.68,0,0,0,136.34,28.34Zm-86.58-5A7.23,7.23,0,0,1,57,16.05H93.2a7.29,7.29,0,0,1,7.27,7.27v5H49.76Zm93.78,102.81a7.23,7.23,0,0,1-7.2,7.27H13.82a7.23,7.23,0,0,1-7.2-7.27V41a7.17,7.17,0,0,1,7.2-7.2H136.34a7.17,7.17,0,0,1,7.2,7.2Z"/><rect class="cls-1" x="37.32" y="58.93" width="75.51" height="5.46"/></svg>