<svg id="Calque_1" data-name="Calque 1" xmlns="http://www.w3.org/2000/svg" viewBox="0 0 150 150"><defs><style>.cls-1{fill:#44403f;}</style></defs><title>parking-a-proximite</title><path class="cls-1" d="M75.54,1.05A46.41,46.41,0,0,0,29.18,47.41C29.18,70,62.63,148,75.54,148S121.9,70,121.9,47.41A46.41,46.41,0,0,0,75.54,1.05ZM75.61,143C68,141.45,34.2,71.77,34.2,47.41a41.34,41.34,0,1,1,82.68,0C116.88,71.77,83.05,141.45,75.61,143Z"/><path class="cls-1" d="M79.92,36.32H67.14a1.94,1.94,0,0,0-1.94,1.93V76.57a1.94,1.94,0,0,0,1.94,1.93h2.19a2,2,0,0,0,1.94-1.93V63.8H80a13.74,13.74,0,1,0-.06-27.48Zm-.28,21.53H71.27V42.4h8.37a7.71,7.71,0,0,1,8,7.43A8,8,0,0,1,79.64,57.85Z"/></svg>