<svg id="Calque_1" data-name="Calque 1" xmlns="http://www.w3.org/2000/svg" viewBox="0 0 150 150"><defs><style>.cls-1{fill:#44403f;}</style></defs><title>wifi-gratuit</title><path class="cls-1" d="M123.65,99l-4-4a62.9,62.9,0,0,0,0-88.95l4-4A68.65,68.65,0,0,1,123.65,99Z"/><path class="cls-1" d="M26.69,99a68.55,68.55,0,0,1,0-97l4,4a62.88,62.88,0,0,0,0,89Z"/><path class="cls-1" d="M98,73.38l-4-4a26.65,26.65,0,0,0,0-37.65l4-4A32.33,32.33,0,0,1,98,73.38Z"/><path class="cls-1" d="M52.34,73.37a32.3,32.3,0,0,1,0-45.63l4,4a26.67,26.67,0,0,0,0,37.66Z"/><path class="cls-1" d="M111.46,86.85l-4-4a45.65,45.65,0,0,0,0-64.58l4-4a51.34,51.34,0,0,1,0,72.59Z"/><path class="cls-1" d="M38.87,86.85a51.34,51.34,0,0,1,0-72.59l4,4a45.65,45.65,0,0,0,0,64.58Z"/><path class="cls-1" d="M85.26,50.56A9.82,9.82,0,0,1,78,60.13V148H72.37V60.2a10,10,0,0,1-7.31-9.64,10.1,10.1,0,0,1,20.2,0Z"/></svg>