<svg id="Calque_1" data-name="Calque 1" xmlns="http://www.w3.org/2000/svg" viewBox="0 0 150 150"><defs><style>.cls-1{fill:#44403f;}</style></defs><title>wifi-payant</title><path class="cls-1" d="M132.07,94.77a1.94,1.94,0,0,1-1.36-3.3,46,46,0,0,0,0-65,1.93,1.93,0,1,1,2.72-2.73,49.85,49.85,0,0,1,0,70.44A1.88,1.88,0,0,1,132.07,94.77Z"/><path class="cls-1" d="M65.71,26.51A45.81,45.81,0,0,0,54.29,72.35h-4A49.7,49.7,0,0,1,63,23.78a1.93,1.93,0,1,1,2.73,2.73Z"/><path class="cls-1" d="M113.38,76.08a1.94,1.94,0,0,1-1.36-3.3,19.53,19.53,0,0,0,0-27.6,1.93,1.93,0,1,1,2.72-2.73,23.37,23.37,0,0,1,0,33.06A1.9,1.9,0,0,1,113.38,76.08Z"/><path class="cls-1" d="M123.19,85.89a1.93,1.93,0,0,1-1.36-3.3,33.39,33.39,0,0,0,0-47.22,1.93,1.93,0,1,1,2.73-2.74,37.28,37.28,0,0,1,0,52.7A2,2,0,0,1,123.19,85.89Z"/><path class="cls-1" d="M74.61,35.36a33.46,33.46,0,0,0-7,37H63.5A35.53,35.53,0,0,1,61,59,37,37,0,0,1,71.88,32.63a1.9,1.9,0,0,1,2.73,0A2,2,0,0,1,74.61,35.36Z"/><path class="cls-1" d="M105.53,58.4a7.3,7.3,0,0,1-5.4,7.1V130a1.93,1.93,0,0,1-3.86,0V65.45a7.23,7.23,0,0,1-5.4-7.05,7.33,7.33,0,1,1,14.66,0Z"/><path class="cls-1" d="M92.82,109.75h-3.5V93a1.91,1.91,0,0,0-1.9-2H82.33V76a3.05,3.05,0,0,0,.72.1,1.67,1.67,0,0,0,1.33-.56,1.9,1.9,0,0,0,0-2.73,19.51,19.51,0,0,1,0-27.58,1.92,1.92,0,0,0-2.72-2.72A23.42,23.42,0,0,0,79,72.35H31.75a1.89,1.89,0,0,0-1.9,1.9V80a16,16,0,0,0-1.65-.36C16.42,77.65,4.79,87.52,2.43,101.67a28.61,28.61,0,0,0,3.19,19c3.24,5.61,8.23,9.26,14,10.24a20,20,0,0,0,3,.2,16,16,0,0,0,2.67-.2H35a23.72,23.72,0,0,0,8.65-1.6v.26a1.94,1.94,0,0,0,2,1.9H92.82a1.89,1.89,0,0,0,1.9-1.9v-18A1.86,1.86,0,0,0,92.82,109.75ZM85.46,94.88V109H58.3l.15-1.24A28.54,28.54,0,0,0,57,94.88ZM33.71,76.21H78.47v14H54.7c-2.78-4.42-6.79-7.31-11-8.08l-10-1.39Zm-8.39,50.88a13.19,13.19,0,0,1-2.83.25,5.62,5.62,0,0,1-.92,0h-.06a10.32,10.32,0,0,1-1.23-.15A16.27,16.27,0,0,1,9,118.8a25,25,0,0,1-2.73-16.51c1.81-10.6,9.52-18.52,18-19a19.82,19.82,0,0,1,3.35.16,18.75,18.75,0,0,1,2.26.62,15.83,15.83,0,0,1,1.9.77,9.72,9.72,0,0,1,2,1.18A17,17,0,0,1,38,90.25l.46.77a7.84,7.84,0,0,1,.72,1.19c.16.25.26.51.41.77a7.79,7.79,0,0,1,.52,1.13c.1.26.2.51.31.77a25.56,25.56,0,0,1,1.18,13.33l-.16.77c-.1.61-.25,1.28-.41,1.9s-.41,1.34-.61,2C37.72,120.45,31.91,126,25.32,127.09ZM43.64,125A18.65,18.65,0,0,1,35,127.09h-.46a27.13,27.13,0,0,0,2.73-2.27,27.12,27.12,0,0,0,6.38-9.67,17.88,17.88,0,0,0,.77-2.31,12.52,12.52,0,0,0,.51-2,5.35,5.35,0,0,0,.26-1c0-.26.1-.56.15-.87a.18.18,0,0,0,.06-.16,30,30,0,0,0-.93-13.94c-.1-.26-.21-.51-.31-.77A7.53,7.53,0,0,0,43.74,93a4.87,4.87,0,0,0-.36-.77A8,8,0,0,0,42.87,91c-.16-.26-.26-.51-.42-.77a21.88,21.88,0,0,0-3.55-4.84l4.22.57A12.07,12.07,0,0,1,50,90.25a4.62,4.62,0,0,1,.62.77,6.05,6.05,0,0,1,.83,1.19,6,6,0,0,1,.51.77,8,8,0,0,1,.57,1.13,6.65,6.65,0,0,1,.36.77,25,25,0,0,1,1.75,12.45,9.63,9.63,0,0,1-.26,1.65,4.17,4.17,0,0,1-.1.77,9.09,9.09,0,0,1-.21,1.13l-.16.77c-.15.36-.25.77-.41,1.19a4.6,4.6,0,0,1-.2.77,21.13,21.13,0,0,1-5.76,8.8,13.15,13.15,0,0,1-1.91,1.49A13.06,13.06,0,0,1,43.64,125Zm47.23,2.62H47.5v-.31a24.17,24.17,0,0,0,9.82-13.73H90.87Z"/><path class="cls-1" d="M24.37,102.83V99.12a26.24,26.24,0,0,1,2.78,1.56.5.5,0,0,0,.73-.15l1.52-2.19a.72.72,0,0,0-.2-.83,9.41,9.41,0,0,0-4.83-1.9v-.88a.52.52,0,0,0-.15-.36.47.47,0,0,0-.34-.13h-.43a.49.49,0,0,0-.49.49v.83c-3.47.34-5.32,2.58-5.32,5.17,0,3.07,3,4.93,5.27,5.85v4.25a12.6,12.6,0,0,1-3-1.56c-.39-.3-.78-.1-1,.34l-1.12,2c-.2.39-.13.45.14.73a8.1,8.1,0,0,0,5,2V117a.53.53,0,0,0,.08.31.45.45,0,0,0,.41.18h.44a.49.49,0,0,0,.48-.49v-2.68a7.36,7.36,0,0,0,1.95-.44,5.78,5.78,0,0,0,1.81-1.07,5.72,5.72,0,0,0,1-1.17,4.67,4.67,0,0,0,.71-1.85c0-.25.07-.54.07-.84C29.88,105.36,26.42,103.61,24.37,102.83Zm-1.51-.64c-1.07-.63-1.46-1.27-1.46-2a1.6,1.6,0,0,1,1.46-1.36ZM24.42,111v-3.8a2.83,2.83,0,0,1,1.37,2.19A1.67,1.67,0,0,1,24.42,111Z"/></svg>