<svg id="Calque_1" data-name="Calque 1" xmlns="http://www.w3.org/2000/svg" viewBox="0 0 150 150"><defs><style>.cls-1{fill:#45403f;}</style></defs><title>terrasse</title><path class="cls-1" d="M145.41,59.74,149,58.52,146.1,56c-1.8-1.57-45-38-70.77-38H75c-25.74.29-68.4,38-70.2,39.65L2,60.2l3.65,1.16c.47.17,28.06,8.81,65.33,9.5L71.09,86H44.66v4.35H71.15l.23,37.16,4.35-.06-.23-37.1h27V86H75.44l-.11-15.07h.58C97.35,70.92,121.58,68.2,145.41,59.74ZM10.75,58.34c9.51-8,39.25-31.88,59.76-35.47L54.28,45.59l3.54,2.55L75.27,23.62,98.74,48.43l3.19-3L80.6,22.93c20.46,3.77,50.26,26.37,59.71,34C83.73,75.44,25.94,62.34,10.75,58.34Z"/><path class="cls-1" d="M41.44,129.65H16V125.3H41.44a4.7,4.7,0,0,0,4.69-4.7V112a4.7,4.7,0,0,0-4.69-4.7H22.15a9,9,0,0,1-8.93-7.64c-.81-5.3-3-15.12-8.54-21.3l3.24-2.9c6,6.67,8.51,16.48,9.6,23.54a4.65,4.65,0,0,0,4.63,4H41.44a9.06,9.06,0,0,1,9,9v8.59A9.06,9.06,0,0,1,41.44,129.65Z"/><path class="cls-1" d="M130.74,129.65H105.29a9.05,9.05,0,0,1-9-9.05V112a9,9,0,0,1,9-9h19.28a4.66,4.66,0,0,0,4.64-4c1.08-7.05,3.62-16.86,9.6-23.54l3.24,2.9c-5.54,6.19-7.73,16-8.54,21.3a9,9,0,0,1-8.94,7.64H105.29a4.71,4.71,0,0,0-4.7,4.7v8.59a4.71,4.71,0,0,0,4.7,4.7h25.45Z"/></svg>