<svg id="Calque_1" data-name="Calque 1" xmlns="http://www.w3.org/2000/svg" viewBox="0 0 150 150"><defs><style>.cls-1{fill:#44403f;}</style></defs><title>piscine-interieure</title><path class="cls-1" d="M145.05,75.36a2.3,2.3,0,0,1-2.3-2.3,64.77,64.77,0,0,0-129.54,0,2.31,2.31,0,0,1-4.61,0,69.38,69.38,0,0,1,138.76,0A2.3,2.3,0,0,1,145.05,75.36Z"/><path class="cls-1" d="M109.4,124.81a51.07,51.07,0,0,1-18-2.88,46.59,46.59,0,0,0-16.63-2.66,46.59,46.59,0,0,0-16.63,2.66,50.94,50.94,0,0,1-18,2.88,51,51,0,0,1-18-2.88,46.44,46.44,0,0,0-16.6-2.66,2.31,2.31,0,1,1,0-4.61,50.92,50.92,0,0,1,18,2.88,46.46,46.46,0,0,0,16.61,2.66,46.57,46.57,0,0,0,16.62-2.66,51,51,0,0,1,18-2.88,51.12,51.12,0,0,1,18,2.88,46.59,46.59,0,0,0,16.63,2.66A46.69,46.69,0,0,0,126,117.54a51.07,51.07,0,0,1,18-2.88,2.31,2.31,0,0,1,0,4.61,46.65,46.65,0,0,0-16.64,2.66A51.07,51.07,0,0,1,109.4,124.81Z"/><path class="cls-1" d="M109.29,145.38a51.42,51.42,0,0,1-18.05-2.88,46.54,46.54,0,0,0-16.63-2.67A46.52,46.52,0,0,0,58,142.5a51.28,51.28,0,0,1-18,2.88,51.07,51.07,0,0,1-18-2.88c-1-.33-2-.65-3.1-1a2.3,2.3,0,1,1,1.26-4.43c1.12.32,2.18.66,3.24,1A46.46,46.46,0,0,0,40,140.77a46.48,46.48,0,0,0,16.62-2.67,51.28,51.28,0,0,1,18-2.88,51.3,51.3,0,0,1,18,2.88,46.56,46.56,0,0,0,16.64,2.67,46.57,46.57,0,0,0,16.62-2.66c1.15-.37,2.29-.73,3.5-1.07a2.31,2.31,0,1,1,1.25,4.44c-1.16.32-2.25.67-3.34,1A51.28,51.28,0,0,1,109.29,145.38Z"/><path class="cls-1" d="M104.24,39.05A15.08,15.08,0,0,0,89.18,54.1V68.73H62.82V54.1A10.24,10.24,0,0,1,73,43.65c3.13,0,5.9,2.46,7.68,4.49l3.5-3C80.76,41.2,76.89,39.05,73,39.05A14.79,14.79,0,0,0,58.21,54.1v56.66h4.61V92.69H89.18v18.07h4.61V54.1a10.48,10.48,0,0,1,10.45-10.45,10,10,0,0,1,7.55,3.88l3.51-3A14.54,14.54,0,0,0,104.24,39.05Zm-41.42,49V73.33H89.18V88.08Z"/></svg>