<svg id="Calque_1" data-name="Calque 1" xmlns="http://www.w3.org/2000/svg" viewBox="0 0 150 150"><defs><style>.cls-1{fill:#44403f;}</style></defs><title>sauna</title><path class="cls-1" d="M147.83,107.45,130.51,62.14a2.36,2.36,0,0,0-1.87-1.54,2.41,2.41,0,0,0-2.33.8L107.85,81.73l-13-8.13a2.47,2.47,0,0,0-2.6,4.2l12.19,7.72-8.73,9.67c-.73-1.74-1.26-2.8-1.33-3a2.44,2.44,0,0,0-2.27-1.4H62.07a2.52,2.52,0,0,0-2.26,3.6,74.87,74.87,0,0,1,3.46,8.79H43a2.4,2.4,0,0,0-1.6.6L2.9,136a2.44,2.44,0,0,0-.33,3.46,2.65,2.65,0,0,0,1.93.93,2.4,2.4,0,0,0,1.6-.6l37.78-31.58H64.8c1.67,6,2.87,13.19,2.14,19.72a2.5,2.5,0,0,0,.6,1.94,2.58,2.58,0,0,0,1.86.86H99.52a2.46,2.46,0,0,0,2.47-2.2c1.13-9.92-1.74-20.79-4.27-28l11.06-12.26,35.39,22.26a2.44,2.44,0,0,0,1.33.4,2.53,2.53,0,0,0,1.6-.6A2.48,2.48,0,0,0,147.83,107.45ZM72.13,125.7c.34-7.33-1.26-14.85-3.13-21a74.4,74.4,0,0,0-3.13-8.93H90.53c.46,1.13,1.19,2.86,2,5v.07c2.34,6.2,5.14,15.93,4.67,24.85Zm40.05-41.24,15.13-16.73,13.19,34.52Z"/><path class="cls-1" d="M118.56,49.6A19.61,19.61,0,1,1,138.16,30,19.64,19.64,0,0,1,118.56,49.6Zm0-34.21A14.61,14.61,0,1,0,133.17,30,14.62,14.62,0,0,0,118.56,15.39Z"/><path class="cls-1" d="M39.57,74.92a2.5,2.5,0,0,1-2.5-2.5,12.25,12.25,0,0,1,1-5.07,7,7,0,0,0,.65-3.19A7.14,7.14,0,0,0,38.07,61a12.18,12.18,0,0,1-1-5.05,12,12,0,0,1,1-5,7.23,7.23,0,0,0,.64-3.19,7.12,7.12,0,0,0-.64-3.18,12,12,0,0,1-1-5,12,12,0,0,1,1-5,7.17,7.17,0,0,0,.64-3.19,2.5,2.5,0,0,1,5,0,12,12,0,0,1-1,5.05,7.23,7.23,0,0,0-.64,3.19,7.12,7.12,0,0,0,.64,3.18,13.13,13.13,0,0,1,0,10.1,7.17,7.17,0,0,0-.64,3.19,7.09,7.09,0,0,0,.65,3.2,13.28,13.28,0,0,1,0,10.11,7.11,7.11,0,0,0-.65,3.21A2.5,2.5,0,0,1,39.57,74.92Z"/><path class="cls-1" d="M57.64,79.9a2.49,2.49,0,0,1-2.49-2.5,14.42,14.42,0,0,1,1.2-6.06,10.78,10.78,0,0,0,0-8.39,14.35,14.35,0,0,1-1.2-6.06,14.27,14.27,0,0,1,1.2-6,9.47,9.47,0,0,0,.85-4.19,9.45,9.45,0,0,0-.85-4.18,14.27,14.27,0,0,1-1.2-6,14.37,14.37,0,0,1,1.2-6,9.39,9.39,0,0,0,.85-4.18,2.5,2.5,0,1,1,5,0,14.27,14.27,0,0,1-1.2,6,9.47,9.47,0,0,0-.85,4.19A9.45,9.45,0,0,0,61,40.62a14.24,14.24,0,0,1,1.2,6A14.37,14.37,0,0,1,61,52.71a9.42,9.42,0,0,0-.85,4.18,9.52,9.52,0,0,0,.85,4.2A15.88,15.88,0,0,1,61,73.2a9.52,9.52,0,0,0-.85,4.2A2.5,2.5,0,0,1,57.64,79.9Z"/><path class="cls-1" d="M77.78,74.92a2.5,2.5,0,0,1-2.5-2.5,12.25,12.25,0,0,1,1-5.07,7,7,0,0,0,.65-3.19A7.14,7.14,0,0,0,76.28,61a12.18,12.18,0,0,1-1-5.05,12,12,0,0,1,1-5,7.23,7.23,0,0,0,.64-3.19,7.12,7.12,0,0,0-.64-3.18,12,12,0,0,1-1-5,12,12,0,0,1,1-5,7.17,7.17,0,0,0,.64-3.19,2.5,2.5,0,0,1,5,0,12,12,0,0,1-1,5.05,7.23,7.23,0,0,0-.64,3.19,7.12,7.12,0,0,0,.64,3.18,13.13,13.13,0,0,1,0,10.1,7.17,7.17,0,0,0-.64,3.19,7.09,7.09,0,0,0,.65,3.2,13.28,13.28,0,0,1,0,10.11,7.11,7.11,0,0,0-.65,3.21A2.5,2.5,0,0,1,77.78,74.92Z"/></svg>