<svg id="Calque_1" data-name="Calque 1" xmlns="http://www.w3.org/2000/svg" viewBox="0 0 150 150"><defs><style>.cls-1{fill:#44403f;}</style></defs><title>ascenseur</title><path class="cls-1" d="M146.09,68.65a1.9,1.9,0,0,1-1.37-.57L135.63,59l-9.09,9.09a1.93,1.93,0,1,1-2.74-2.73l10.46-10.47a2,2,0,0,1,2.74,0l10.47,10.47a1.93,1.93,0,0,1-1.38,3.3Z"/><path class="cls-1" d="M135.63,95.45a1.91,1.91,0,0,1-1.37-.57L123.8,84.41a1.94,1.94,0,1,1,2.74-2.74l9.09,9.1,9.09-9.1a1.94,1.94,0,1,1,2.75,2.74L137,94.88A1.9,1.9,0,0,1,135.63,95.45Z"/><path class="cls-1" d="M102.67,17.79H12.86A10.38,10.38,0,0,0,2.52,28.18v93.43A10.41,10.41,0,0,0,12.86,132h89.81a10.43,10.43,0,0,0,10.39-10.39V28.18A10.39,10.39,0,0,0,102.67,17.79Zm6.51,103.82a6.52,6.52,0,0,1-6.51,6.51h-43l-.57-87.79a1.91,1.91,0,0,0-1.91-1.91h0a1.94,1.94,0,0,0-1.91,1.91l.56,87.79h-43a6.5,6.5,0,0,1-6.46-6.51V28.18a6.47,6.47,0,0,1,6.46-6.51h89.81a6.49,6.49,0,0,1,6.51,6.51Z"/></svg>