<svg id="Calque_1" data-name="Calque 1" xmlns="http://www.w3.org/2000/svg" viewBox="0 0 150 150"><defs><style>.cls-1{fill:#44403f;}</style></defs><title>espace-fumeur</title><path class="cls-1" d="M101,122.61H3.38a2,2,0,0,1-2-2V102.91a2,2,0,0,1,2-2H101a2,2,0,0,1,2,2v17.74A2,2,0,0,1,101,122.61ZM5.34,118.69H99V104.87H5.34Z"/><path class="cls-1" d="M110.31,123a2,2,0,0,1-2-2V102.51a2,2,0,1,1,3.92,0v18.54A2,2,0,0,1,110.31,123Z"/><path class="cls-1" d="M119.58,123a2,2,0,0,1-2-2V102.51a2,2,0,0,1,3.92,0v18.54A2,2,0,0,1,119.58,123Z"/><path class="cls-1" d="M76.89,88.54A35.22,35.22,0,0,1,60.78,22a2,2,0,1,1,1.78,3.49A31.31,31.31,0,0,0,91.09,81.19a2,2,0,0,1,2.64.85,2,2,0,0,1-.85,2.64A35,35,0,0,1,76.89,88.54Z"/><path class="cls-1" d="M148,90.19a25,25,0,0,1-12.44,21.54,1.92,1.92,0,0,1-.94.26,2,2,0,0,1-1.73-1,2,2,0,0,1,.73-2.67,21,21,0,0,0-5.17-38.42A2,2,0,0,1,127,67.5a1.67,1.67,0,0,1,.47-.84A31.22,31.22,0,0,0,81.4,29a2,2,0,1,1-2.15-3.29,35.13,35.13,0,0,1,52.39,41A25,25,0,0,1,148,90.19Z"/><path class="cls-1" d="M73.29,68a14.09,14.09,0,0,1-12.42-20.7,2,2,0,1,1,3.46,1.83,10.18,10.18,0,1,0,18,9.54,2,2,0,1,1,3.46,1.83A14.12,14.12,0,0,1,73.29,68Z"/><path class="cls-1" d="M108.89,63.15a1.86,1.86,0,0,1-.91-.23,2,2,0,0,1-.82-2.65,10.17,10.17,0,0,0-4.22-13.76,10.21,10.21,0,0,0-13.77,4.23,2,2,0,0,1-3.46-1.84,14.1,14.1,0,0,1,24.92,13.21A2,2,0,0,1,108.89,63.15Z"/></svg>