<svg id="Calque_1" data-name="Calque 1" xmlns="http://www.w3.org/2000/svg" viewBox="0 0 150 150"><defs><style>.cls-1{fill:#44403f;}</style></defs><title>hammam</title><path class="cls-1" d="M119.79,52a19.47,19.47,0,1,1,19.46-19.47A19.49,19.49,0,0,1,119.79,52Zm0-33.9a14.44,14.44,0,1,0,14.44,14.43A14.44,14.44,0,0,0,119.79,18.13Z"/><path class="cls-1" d="M148.86,109.31,131.7,64.4a2.54,2.54,0,0,0-1.88-1.54,2.36,2.36,0,0,0-2.34.8l-18.3,20.11-12.81-8A2.53,2.53,0,0,0,93.69,80l12.07,7.57L97.18,97c-.74-1.67-1.21-2.68-1.27-2.88a2.48,2.48,0,0,0-2.28-1.41H63.86A2.55,2.55,0,0,0,61.72,94a2.37,2.37,0,0,0-.13,2.41c0,.07,1.67,3.56,3.35,8.65h-20a2.4,2.4,0,0,0-1.6.6L5.21,137.46A2.54,2.54,0,0,0,6.82,142a2.54,2.54,0,0,0,1.61-.6l37.4-31.3H66.48c1.67,5.9,2.88,13,2.14,19.5a2.57,2.57,0,0,0,.61,1.95,2.62,2.62,0,0,0,1.87.87h29.83a2.47,2.47,0,0,0,2.48-2.21c1.14-9.86-1.67-20.65-4.22-27.82l10.93-12.07,35,22.06a2.68,2.68,0,0,0,2.89-.2A2.52,2.52,0,0,0,148.86,109.31Zm-75,18a66.17,66.17,0,0,0-3.08-20.78c-1.07-3.55-2.21-6.63-3.08-8.78H92c.47,1,1.07,2.55,1.81,4.42,0,.07,0,.07.06.14s.14.33.21.53c2.21,6.1,5,15.69,4.49,24.47Zm39.68-40.82L128.42,70l13,34Z"/><path class="cls-1" d="M33.89,84.12A29.86,29.86,0,0,1,6,43.65,19.22,19.22,0,0,1,7.19,17.77a2.52,2.52,0,0,1,3.56,3.56A14.15,14.15,0,0,0,10,40.61a2.52,2.52,0,0,1,1.37,3.18l-.09.2a24.84,24.84,0,0,0,45,21.06V64.8a2.51,2.51,0,0,1,2.51-2.52,19.36,19.36,0,1,0,0-38.72,2.54,2.54,0,0,1-.94-.19,2.86,2.86,0,0,1-1.82-2.6A6.6,6.6,0,0,0,54.46,16,6.54,6.54,0,0,0,43,19.89a2.51,2.51,0,1,1-5-.34,11.57,11.57,0,0,1,23-.93,24.4,24.4,0,0,1-.14,48.61A29.91,29.91,0,0,1,33.89,84.12Z"/></svg>