<svg id="Calque_1" data-name="Calque 1" xmlns="http://www.w3.org/2000/svg" viewBox="0 0 150 150"><defs><style>.cls-1{fill:#44403f;}.cls-2{fill:#45403f;}</style></defs><title>navette-aeroport-payante</title><path class="cls-1" d="M138.25,63.92H102.14L93,33.52a5.3,5.3,0,0,0-5.15-4.2h-5a5.24,5.24,0,0,0-5.19,5.87l5.11,28.73H54.52a3.22,3.22,0,0,1-3-2.28,6.15,6.15,0,0,0-5.91-4.47H41.1a5.1,5.1,0,0,0-5,6.19l2.36,10.3-.12.56H26.24a1.51,1.51,0,0,0-1.52,1.48v4.76a14.36,14.36,0,0,0-1.4-.32c-9.59-1.6-19,6.47-21,18a23.32,23.32,0,0,0,2.59,15.5,16.35,16.35,0,0,0,11.39,8.31,17.83,17.83,0,0,0,2.52.2,14.69,14.69,0,0,0,2.31-.2,5.74,5.74,0,0,0,.88-.16.21.21,0,0,0,.08.16,1.44,1.44,0,0,0,1.08.48H62.91a1.51,1.51,0,0,0,1.52-1.48V107.14h5.19a1.52,1.52,0,0,0,1.52-1.52V91a1.52,1.52,0,0,0-1.52-1.52h-2.2V83.73H82.76l-5,28.57A5.37,5.37,0,0,0,79,116.57a5.19,5.19,0,0,0,3.87,1.76h5A5.28,5.28,0,0,0,93,114.25l9.15-30.52h36.11A9.84,9.84,0,0,0,148,73.62,9.72,9.72,0,0,0,138.25,63.92ZM27.71,77.22H64.43V88.85H44.93A11,11,0,0,0,44,87.53l0,0a13.85,13.85,0,0,0-4.59-4,0,0,0,0,1,0,0,8.26,8.26,0,0,0-1.36-.6,5.7,5.7,0,0,0-1.4-.44h0a3,3,0,0,0-.56-.16L27.71,81.1Zm-3,40.43a12.31,12.31,0,0,1-1.52.64,9.14,9.14,0,0,1-1.48.48,4.72,4.72,0,0,1-.8.16,10.89,10.89,0,0,1-2.27.2,4.35,4.35,0,0,1-.72,0,5,5,0,0,1-1.08-.12,13.28,13.28,0,0,1-9.31-6.87A20.35,20.35,0,0,1,5.3,98.59C6.78,89.88,13.05,83.45,20,83a1,1,0,0,1,.48,0,1.11,1.11,0,0,1,.36,0,11.54,11.54,0,0,1,2,.16,14.37,14.37,0,0,1,1.88.48l.56.2a10.23,10.23,0,0,1,1,.44,7.63,7.63,0,0,1,1.47.88,13.88,13.88,0,0,1,3.72,3.76,3.73,3.73,0,0,1,.4.63,3.34,3.34,0,0,1,.32.48,1.25,1.25,0,0,1,.2.4,3.19,3.19,0,0,1,.32.64,4.24,4.24,0,0,1,.44.84c.08.2.16.44.24.64a19.86,19.86,0,0,1,1.32,7.23,23.86,23.86,0,0,1-.32,3.76c0,.24-.08.44-.12.68s-.28,1.19-.36,1.47-.36,1.24-.48,1.52a3.52,3.52,0,0,1-.2.6,19.35,19.35,0,0,1-5.32,7.75A15.5,15.5,0,0,1,24.72,117.65Zm4.11,1.28h-.48c.48-.36,1-.76,1.48-1.16a22.49,22.49,0,0,0,6.51-10,10.94,10.94,0,0,0,.44-1.48,3.75,3.75,0,0,0,.16-.64,5.55,5.55,0,0,0,.2-.87l.12-.6c0-.08,0-.12,0-.2a24,24,0,0,0-.8-11.47,3.93,3.93,0,0,0-.2-.64c-.08-.28-.2-.56-.28-.84s-.2-.4-.32-.64a8.56,8.56,0,0,0-.4-.88c-.12-.19-.23-.43-.35-.63a1.87,1.87,0,0,0-.2-.4,17.85,17.85,0,0,0-2.84-3.76l3.59.52.48.12h0a6.94,6.94,0,0,1,1.52.56,10.79,10.79,0,0,1,3.72,3,.48.48,0,0,1,.2.2,3.66,3.66,0,0,1,.32.43,4.28,4.28,0,0,1,.6.88.31.31,0,0,1,.08.12s0,0,0,0a3,3,0,0,1,.28.48c.15.28.31.56.43.84s.2.4.32.64A20.7,20.7,0,0,1,45,102.75c0,.48-.12,1-.2,1.4a1.61,1.61,0,0,1-.12.6,3.33,3.33,0,0,1-.16.87,3,3,0,0,1-.16.64,5.65,5.65,0,0,1-.24.88,3.52,3.52,0,0,1-.2.6,18.24,18.24,0,0,1-6,8.87A11.47,11.47,0,0,1,28.83,118.93Zm32.6.48H39.14a6.1,6.1,0,0,0,.64-.44,21.71,21.71,0,0,0,7.27-11.23H61.43Zm6.71-26.93v11.67H47.81A10.78,10.78,0,0,0,48,103a22.87,22.87,0,0,0-1.28-10.55Zm70.11-11.74H101a1.61,1.61,0,0,0-.6.12.94.94,0,0,0-.36.24.47.47,0,0,0-.2.2.22.22,0,0,0-.12.2.56.56,0,0,0-.16.27v0l-9.51,31.72a2.22,2.22,0,0,1-2.19,1.8h-5a2.12,2.12,0,0,1-1.59-.72,2.42,2.42,0,0,1-.56-1.84L86,82.53a.89.89,0,0,0,0-.36,1.22,1.22,0,0,0-.36-.87,1.09,1.09,0,0,0-.4-.32,1.2,1.2,0,0,0-.4-.16s-.08,0-.16,0a.36.36,0,0,0-.2,0H67.42v-5A1.47,1.47,0,0,0,66,74.22H41.38l0-.24a3.77,3.77,0,0,0,0-.67L39,62.72a2.24,2.24,0,0,1,.44-1.8,2.13,2.13,0,0,1,1.64-.76h4.47a3.17,3.17,0,0,1,3,2.28,6.11,6.11,0,0,0,5.91,4.47h30a1.4,1.4,0,0,0,.88-.32.54.54,0,0,0,.28-.24A1.32,1.32,0,0,0,86,65.4a1.28,1.28,0,0,0-.12-.56L80.61,34.79A2.51,2.51,0,0,1,81.17,33a2.37,2.37,0,0,1,1.67-.72h5a2.29,2.29,0,0,1,2.23,1.92l9.47,31.6a.3.3,0,0,0,.08.16,1.64,1.64,0,0,0,.32.47.58.58,0,0,0,.36.24,1,1,0,0,0,.68.2h37.23a6.92,6.92,0,0,1,0,13.83Z"/><path class="cls-2" d="M20.16,99.07V96a22,22,0,0,1,2.28,1.31.42.42,0,0,0,.6-.11l1.24-1.84a.58.58,0,0,0-.16-.68,7.78,7.78,0,0,0-4-1.56V92.4a.36.36,0,0,0-.12-.28.43.43,0,0,0-.28-.12h-.35a.4.4,0,0,0-.4.4v.68c-2.84.28-4.36,2.12-4.36,4.27,0,2.52,2.48,4,4.32,4.8v3.47a10.29,10.29,0,0,1-2.48-1.27c-.32-.24-.64-.08-.84.28l-.92,1.59c-.16.32-.12.36.12.6A6.65,6.65,0,0,0,19,108.46v2.2a.29.29,0,0,0,.08.24.32.32,0,0,0,.32.16h.35a.4.4,0,0,0,.4-.4v-2.2a6.27,6.27,0,0,0,1.6-.36A4.77,4.77,0,0,0,24,106.26a3.93,3.93,0,0,0,.6-1.51c0-.2,0-.44,0-.68C24.68,101.15,21.84,99.71,20.16,99.07Zm-1.23-.52c-.88-.52-1.2-1-1.2-1.67a1.32,1.32,0,0,1,1.2-1.16Zm1.27,7.23v-3.11a2.33,2.33,0,0,1,1.12,1.8A1.36,1.36,0,0,1,20.2,105.78Z"/></svg>