<svg version="1.1" id="App" xmlns="http://www.w3.org/2000/svg" x="0" y="0" viewBox="0 0 18.2 31" xml:space="preserve"><style>.st0{fill:#3d3c3d}</style><path class="st0" d="M9.1 15.4h-.6c-2-.2-3.9-1.1-5.2-2.7-1.3-1.6-2-3.6-1.8-5.6.2-2 1.1-3.9 2.7-5.2 3.2-2.8 8.1-2.4 10.9.9 2.7 3.2 2.4 8.1-.9 10.9-1.5 1.1-3.3 1.7-5.1 1.7zM9.1 1C7.5 1 6 1.5 4.7 2.6 3.4 3.8 2.5 5.4 2.4 7.2c-.1 1.7.4 3.5 1.6 4.8 2.4 2.8 6.6 3.2 9.4.8 2.8-2.4 3.2-6.6.8-9.4C12.9 1.8 11 1 9.1 1zm8.6 30c-.3 0-.5-.2-.5-.5v-4.3c0-4.5-3.6-8.1-8.1-8.1S1 21.7 1 26.2v4.2c0 .3-.2.5-.5.5s-.5-.2-.5-.5v-4.2c0-5 4.1-9.1 9.1-9.1s9.1 4.1 9.1 9.1v4.3c0 .3-.3.5-.5.5z"/><path class="st0" d="M3.8 30.9c-.3 0-.5-.2-.5-.5v-2.5c0-.3.2-.5.5-.5s.5.2.5.5v2.5c0 .3-.3.5-.5.5zm10.7 0c-.3 0-.5-.2-.5-.5v-2.5c0-.3.2-.5.5-.5s.5.2.5.5v2.5c0 .3-.3.5-.5.5z"/></svg>