<svg id="Calque_1" data-name="Calque 1" xmlns="http://www.w3.org/2000/svg" viewBox="0 0 150 150"><defs><style>.cls-1{fill:#44403f;}</style></defs><title>restaurant</title><path class="cls-1" d="M108.54,148h-5.68V18.64c0-8.19,5.75-15.3,13.38-16.54A16.06,16.06,0,0,1,135,17.93V83a12,12,0,0,1-12,12h-1.21V89.26H123A6.32,6.32,0,0,0,129.29,83v-65A10.4,10.4,0,0,0,117.15,7.7c-4.91.8-8.61,5.5-8.61,10.94Z"/><path class="cls-1" d="M48.26,148H42.58V101.25a12,12,0,0,1,12-12h4.82A6.32,6.32,0,0,0,65.7,83V4.72h5.67V83a12,12,0,0,1-12,12H54.57a6.32,6.32,0,0,0-6.31,6.32Z"/><rect class="cls-1" x="42.58" y="4.72" width="5.68" height="68.84"/><rect class="cls-1" x="19" y="4.72" width="5.68" height="68.84"/></svg>