<svg id="Calque_1" data-name="Calque 1" xmlns="http://www.w3.org/2000/svg" viewBox="0 0 150 150"><defs><style>.cls-1{fill:#44403f;}</style></defs><title>parking-gratuit</title><path class="cls-1" d="M74.83,147.29A73.17,73.17,0,1,1,148,74.13,73.24,73.24,0,0,1,74.83,147.29Zm0-141.51a68.34,68.34,0,1,0,68.34,68.35A68.42,68.42,0,0,0,74.83,5.78Z"/><path class="cls-1" d="M59.18,44.47a1.87,1.87,0,0,1,1.87-1.86H82.73a21.89,21.89,0,1,1,.1,43.77H66.64v23.05a1.92,1.92,0,0,1-1.86,1.86H61.05a1.86,1.86,0,0,1-1.87-1.86ZM82.24,79.11a15,15,0,0,0,14.92-15c0-7.95-6.87-14-14.92-14H66.64v29Z"/></svg>