<svg id="Calque_1" data-name="Calque 1" xmlns="http://www.w3.org/2000/svg" viewBox="0 0 150 150"><defs><style>.cls-1{fill:#44403f;}</style></defs><title>navette-aeroport-gratuite</title><path class="cls-1" d="M135.38,66.57H88.63L76.84,27.21a6.85,6.85,0,0,0-6.67-5.43H63.65a6.78,6.78,0,0,0-6.72,7.6l6.62,37.19H27a4.16,4.16,0,0,1-3.93-2.95,8,8,0,0,0-7.66-5.79H9.61a6.53,6.53,0,0,0-5.17,2.48,6.61,6.61,0,0,0-1.29,5.53L6.2,79.18,3.15,92.94a6.61,6.61,0,0,0,1.29,5.53A6.73,6.73,0,0,0,9.61,101H15.4a8,8,0,0,0,7.66-5.8A4.08,4.08,0,0,1,27,92.22H63.55l-6.52,37a7,7,0,0,0,1.61,5.53,6.7,6.7,0,0,0,5,2.28h6.52a6.83,6.83,0,0,0,6.62-5.27L88.63,92.22h46.75A12.75,12.75,0,0,0,148,79.13,12.59,12.59,0,0,0,135.38,66.57ZM67.64,67.75c-.53-2.75-6.88-38.88-6.88-38.88a3.25,3.25,0,0,1,.72-2.28,3.1,3.1,0,0,1,2.17-.93h6.52a3,3,0,0,1,2.9,2.48S84.84,67.5,85.32,69.05a1.8,1.8,0,0,0,1.86,1.39h48.2a9,9,0,0,1,0,17.9H87.18a2,2,0,0,0-1.86,1.39L73,130.79a2.87,2.87,0,0,1-2.84,2.33H63.65a2.75,2.75,0,0,1-2.06-.93,3.13,3.13,0,0,1-.73-2.38S67.37,93,67.74,90.66a1.87,1.87,0,0,0-1.91-2.32H27a7.94,7.94,0,0,0-7.66,5.79,4.15,4.15,0,0,1-3.93,3H9.61a2.66,2.66,0,0,1-2.12-1,2.74,2.74,0,0,1-.57-2.27L10,79.6a4.29,4.29,0,0,0-.06-.88L6.92,65a2.9,2.9,0,0,1,.57-2.32,2.76,2.76,0,0,1,2.12-1H15.4a4.09,4.09,0,0,1,3.93,3A7.94,7.94,0,0,0,27,70.44H65.83S68.16,70.51,67.64,67.75Z"/></svg>