<svg id="Calque_1" data-name="Calque 1" xmlns="http://www.w3.org/2000/svg" viewBox="0 0 64 64"><title>piscine-rooftop</title><path d="M8.61,8a7.68,7.68,0,1,0,7.68,7.68A7.68,7.68,0,0,0,8.61,8Zm.82,8.17v3.67H7.79V16.17H5.54L8.61,11l3.07,5.14Z"/><path d="M47.47,47.77a22.78,22.78,0,0,1-8-1.27,20.67,20.67,0,0,0-7.4-1.19,20.58,20.58,0,0,0-7.38,1.19,22.82,22.82,0,0,1-8,1.27,22.74,22.74,0,0,1-8-1.27,20.63,20.63,0,0,0-7.38-1.19,1,1,0,1,1,0-1.9,22.46,22.46,0,0,1,8,1.27,20.63,20.63,0,0,0,7.38,1.19,20.6,20.6,0,0,0,7.39-1.19,22.57,22.57,0,0,1,8-1.27,22.54,22.54,0,0,1,8,1.27,20.67,20.67,0,0,0,7.4,1.19,20.65,20.65,0,0,0,7.39-1.19,22.59,22.59,0,0,1,8-1.27,1,1,0,1,1,0,1.9,20.71,20.71,0,0,0-7.4,1.19A22.76,22.76,0,0,1,47.47,47.77Z"/><path d="M47.41,56.89a22.48,22.48,0,0,1-8-1.28A20.71,20.71,0,0,0,32,54.43a20.69,20.69,0,0,0-7.39,1.18,22.48,22.48,0,0,1-8,1.28,22.41,22.41,0,0,1-8-1.28c-.45-.14-.9-.29-1.37-.42a1,1,0,0,1,.52-1.83c.5.14,1,.29,1.43.44A20.62,20.62,0,0,0,16.68,55a20.69,20.69,0,0,0,7.39-1.18,22.48,22.48,0,0,1,8-1.28,22.54,22.54,0,0,1,8,1.28A20.69,20.69,0,0,0,47.41,55a20.71,20.71,0,0,0,7.4-1.18c.5-.16,1-.33,1.55-.48a1,1,0,0,1,.51,1.84c-.51.14-1,.3-1.48.45A22.5,22.5,0,0,1,47.41,56.89Z"/><path d="M45.17,9.9a6.61,6.61,0,0,0-6.6,6.6v6.55H26.74V16.5a4.6,4.6,0,0,1,4.6-4.7,5,5,0,0,1,3.46,2l1.44-1.25a6.65,6.65,0,0,0-4.9-2.67,6.49,6.49,0,0,0-6.51,6.6V41.61h1.91V33.54H38.57v8.07h1.91V16.5a4.7,4.7,0,0,1,4.69-4.7,4.59,4.59,0,0,1,3.41,1.73L50,12.29A6.36,6.36,0,0,0,45.17,9.9ZM26.74,31.64V25H38.57v6.69Z"/></svg>