<svg id="Calque_1" data-name="Calque 1" xmlns="http://www.w3.org/2000/svg" viewBox="0 0 150 150"><defs><style>.cls-1{fill:#44403f;}</style></defs><title>salle-de-sport</title><path class="cls-1" d="M145.87,60.4H134.22V47.72a9,9,0,0,0-9-9,8.83,8.83,0,0,0-4.83,1.42,9,9,0,0,0-17.91.51V60.4H47.47V40.63a9,9,0,0,0-18-.51,8.66,8.66,0,0,0-4.77-1.42,9,9,0,0,0-9,9V60.4H4.06A2.08,2.08,0,0,0,2,62.46V83.4a2,2,0,0,0,2.06,2.06H15.72V98.14a9,9,0,0,0,9,9,8.66,8.66,0,0,0,4.77-1.42,9,9,0,0,0,18-.45V85.46h55.06v19.83a9,9,0,0,0,17.91.45,8.83,8.83,0,0,0,4.83,1.42,9,9,0,0,0,9-9V85.46h11.65A2.1,2.1,0,0,0,148,83.4V62.46A2.14,2.14,0,0,0,145.87,60.4ZM15.72,81.27H6.19V64.59h9.53Zm27.56,24a4.81,4.81,0,0,1-4.83,4.77,4.75,4.75,0,0,1-4.76-4.77V98.14a2.1,2.1,0,0,0-4.19,0A4.81,4.81,0,0,1,24.73,103a4.87,4.87,0,0,1-4.83-4.83V47.72a4.87,4.87,0,0,1,4.83-4.83,4.81,4.81,0,0,1,4.77,4.83,2.1,2.1,0,0,0,4.19,0V40.63a4.81,4.81,0,0,1,4.76-4.83,4.87,4.87,0,0,1,4.83,4.83Zm59.25-24H47.47V64.59h55.06ZM130,98.14a4.77,4.77,0,1,1-9.53,0,2.13,2.13,0,0,0-4.25,0v7.15a4.77,4.77,0,1,1-9.53,0V40.63a4.77,4.77,0,1,1,9.53,0v7.09a2.13,2.13,0,0,0,4.25,0,4.77,4.77,0,1,1,9.53,0Zm13.78-16.87h-9.59V64.59h9.59Z"/></svg>