<svg id="Calque_1" data-name="Calque 1" xmlns="http://www.w3.org/2000/svg" viewBox="0 0 150 150"><defs><style>.cls-1{fill:#44403f;}</style></defs><title>service-pressing-express</title><path class="cls-1" d="M122.35,92.55c-1.81-39.27-18-70.41-47-90.08a4.92,4.92,0,0,0-2-.47,2.73,2.73,0,0,0-1.41.47c-29,19.67-45.17,50.81-46.78,90.08a170.2,170.2,0,0,0,6.37,53.7A2.46,2.46,0,0,0,33.88,148h80a2.44,2.44,0,0,0,2.41-1.75A169,169,0,0,0,122.35,92.55ZM112,143H35.76C32.27,130.08,13.27,49.53,73.62,7.37,134,49.46,115.44,130,112,143Z"/><path class="cls-1" d="M48.51,112.15a5.24,5.24,0,1,0,5.31,5.24A5.24,5.24,0,0,0,48.51,112.15Zm0,8.8a3.56,3.56,0,1,1,3.63-3.56A3.58,3.58,0,0,1,48.51,121Z"/><path class="cls-1" d="M47.84,83.49a5.27,5.27,0,1,0,5.24,5.3A5.27,5.27,0,0,0,47.84,83.49Zm0,8.86a3.59,3.59,0,1,1,3.56-3.56A3.59,3.59,0,0,1,47.84,92.35Z"/><path class="cls-1" d="M53.82,50.87a5.24,5.24,0,1,0,5.23,5.23A5.24,5.24,0,0,0,53.82,50.87Zm0,8.79a3.54,3.54,0,0,1-3.56-3.56,3.49,3.49,0,0,1,3.56-3.55,3.54,3.54,0,0,1,3.56,3.55A3.59,3.59,0,0,1,53.82,59.66Z"/><path class="cls-1" d="M98.32,112.15a5.24,5.24,0,1,0,5.24,5.24A5.24,5.24,0,0,0,98.32,112.15Zm0,8.8a3.56,3.56,0,1,1,3.56-3.56A3.59,3.59,0,0,1,98.32,121Z"/><path class="cls-1" d="M99.06,83.49a5.27,5.27,0,1,0,5.24,5.3A5.26,5.26,0,0,0,99.06,83.49Zm0,8.86a3.59,3.59,0,1,1,3.56-3.56A3.58,3.58,0,0,1,99.06,92.35Z"/><path class="cls-1" d="M93.09,50.87a5.24,5.24,0,1,0,5.23,5.23A5.24,5.24,0,0,0,93.09,50.87Zm0,8.79a3.58,3.58,0,0,1-3.56-3.56,3.56,3.56,0,0,1,7.11,0A3.58,3.58,0,0,1,93.09,59.66Z"/><path class="cls-1" d="M73.28,25.9a5.24,5.24,0,1,0,5.24,5.23A5.24,5.24,0,0,0,73.28,25.9Zm0,8.79a3.56,3.56,0,0,1,0-7.11,3.56,3.56,0,1,1,0,7.11Z"/></svg>