<svg id="Calque_1" data-name="Calque 1" xmlns="http://www.w3.org/2000/svg" viewBox="0 0 150 150"><defs><style>.cls-1{fill:#44403f;}</style></defs><title>salle-de-reunion</title><path class="cls-1" d="M112.67,104.44,93.84,35.91l3.83-2.16a12.18,12.18,0,0,0,5.74-12.84l-1.67-9a11.4,11.4,0,0,0-11-9.57H48.28a11.4,11.4,0,0,0-11,9.57l-1.67,9a12.32,12.32,0,0,0,5.74,12.84l3.59,2.08L26.34,104.68c-1.43,5.9-2.95,12,3.59,17.15l31.68,23.46a12.86,12.86,0,0,0,15.79,0l31.68-23.54C115.78,116.73,114.1,110.18,112.67,104.44ZM44.3,28.49A6.08,6.08,0,0,1,41.5,22l1.68-9a5.43,5.43,0,0,1,5.1-4.71H90.73A5.42,5.42,0,0,1,95.83,13l1.68,9a6,6,0,0,1-2.79,6.46l-22.9,13a4.39,4.39,0,0,1-4.63,0ZM105.49,117,73.81,140.5a6.93,6.93,0,0,1-8.61,0L33.52,117c-3.27-2.55-2.79-5-1.35-11L50.28,38.86l14,7.9a10.94,10.94,0,0,0,10.53,0l13.72-7.82,18.35,67C108.52,112.58,108.6,114.65,105.49,117Z"/></svg>