<svg version="1.1" id="Layer_1" xmlns="http://www.w3.org/2000/svg" x="0" y="0" viewBox="0 0 32.2 38.4" xml:space="preserve"><style>.st0{fill:#fff}</style><path class="st0" d="M29.4 6.2l-7.9-.8.2-2c.1-.7-.4-1.4-1.2-1.4L13 1c-.4 0-.7.1-1 .3-.3.2-.4.5-.5.9l-.2 2-7.9-.8c-.9-.1-1.7.6-1.8 1.5l-.3 2.7c0 .4.1.9.4 1.2.3.4.7.6 1.1.6l26 2.8h.2c.4 0 .7-.1 1-.4.3-.3.5-.7.6-1.1l.2-2.7c.1-.9-.5-1.7-1.4-1.8zM12.2 2.3c0-.3.3-.6.7-.5l7.6.8c.3 0 .6.3.5.7l-.2 2-8.8-1 .2-2zm17.6 8.4c0 .2-.1.5-.3.6-.2.2-.4.2-.7.2l-26-2.8c-.2 0-.5-.1-.6-.3S2 8 2 7.7l.3-2.8c.1-.5.5-.8.9-.8h.1l26 2.8c.5.1.9.5.8 1l-.3 2.8zm-3.3 4.5H4.2c-.5 0-1 .4-1 1v19.4c0 1 .8 1.7 1.7 1.7h20.7c1 0 1.7-.8 1.7-1.7V16.2c.2-.5-.3-1-.8-1zm.3 20.4c0 .6-.5 1-1 1H5c-.6 0-1-.5-1-1V16.2c0-.2.1-.3.3-.3h22.3c.2 0 .3.1.3.3v19.4z"/><path class="st0" d="M7.6 20.6c-.2 0-.4.2-.4.3v10.6c0 .2.2.3.4.3s.4 0 .4-.2V21c0-.2-.2-.4-.4-.4zm4.8 0c-.2 0-.4.2-.4.3v10.6c0 .2.2.3.4.3s.4-.2.4-.3V21c-.1-.2-.2-.4-.4-.4zm4.7 0c-.2 0-.3.2-.3.3v10.6c0 .2.2.3.3.3s.3-.2.3-.3V21c.1-.2-.1-.4-.3-.4zm4.7 0c-.2 0-.3.2-.3.3v10.6c0 .2.2.3.3.3s.3-.2.3-.3V21c.1-.2-.1-.4-.3-.4z"/></svg>