<svg xmlns="http://www.w3.org/2000/svg" viewBox="0 0 14.1 30.1"><path d="M12.3 30.1c1 0 1.9-.8 1.9-1.9V7.6c0-.5 0-1.1-.1-1.6s-.2-.9-.5-1.8c-.3-.8-.6-1.4-1.2-2.1C11.4.9 10 .3 8.5.1 7.7 0 7.1 0 6.3.1c-.7 0-1.5.3-2.1.5-1.3.5-2.3 1.2-3.2 2.6-.4.6-.7 1.3-.9 2C-.1 6.1 0 7 0 7.8c.1 1.3 1.5 1.4 2 1 .6-.3.6-1 .6-1.6 0-.6 0-1.3.2-1.9.1-.5.3-.8.6-1.2C3.8 3.5 4.6 3 5 2.9c.5-.2 1.4-.4 2-.4 1.2 0 2.4.2 3.3 1.1 2.3 2.3 1.2 5.9-1.4 7.6-1.6 1-.9.6-3.1 2.1-1.4.9.3-.2-2.9 1.8-.3.2-.9.5-1.7 1.4-.2.2-.6.9-.8 1.5-.1.3-.4 1-.4 1.8v8.4c0 1 .8 1.9 1.9 1.9h10.4zm-3.5-4.6s0 .1 0 0l-3.5.1c-.1 0-.1 0-.1-.1l.5-3.4c0-.1 0-.1-.1-.2-.3-.3-.5-.7-.5-1.1-.1-1.2.8-2.1 2-2 .9.1 1.6.8 1.7 1.6.1.6-.1 1.2-.4 1.6 0 0-.1.1-.1.2l.5 3.3z" fill="#e63338"/></svg>