<svg version="1.1" id="App" xmlns="http://www.w3.org/2000/svg" x="0" y="0" viewBox="0 0 15.1 31.1" xml:space="preserve"><style>.st0{fill:#3d3c3d}</style><path class="st0" d="M15 6.5c-.1-.5-.2-1-.5-1.9-.3-.8-.6-1.5-1.3-2.3C12.2 1 10.9.3 9 .1 8.3 0 7.7 0 6.8.1 6 .1 5.1.4 4.5.6 3 1.2 2 2.1 1.1 3.5c-.4.6-.8 1.4-1 2.1C0 6.3 0 7.1 0 7.8v.5c0 .6.3 1.1.9 1.4.6.4 1.5.3 1.9 0 .9-.5.8-1.3.8-2v.1c0-.7.1-1.4.2-1.8.1-.4.3-.7.5-1.1.3-.5 1-.9 1.3-1 .5-.2 1.3-.4 1.8-.4 1.4 0 2.3.3 3 1 1.1 1.1 1.2 2.3 1.1 3.1-.2 1.4-1.1 2.9-2.4 3.7l-.7.5c-.6.4-.6.4-2 1.3l-.4.2c-.6.4-.6.4-.7.4-.1.1-.4.2-2.2 1.4l-.1.1c-.3.2-.9.6-1.7 1.5-.2.3-.7 1-.9 1.7-.1.2-.4 1-.4 1.9v8.4c0 .6.2 1.2.7 1.7s1 .7 1.7.7h10.4c1.3 0 2.4-1.1 2.4-2.4V8.2c-.1-.6-.1-1.2-.2-1.7zm-.9 22.2c0 .7-.6 1.4-1.4 1.4H2.3c-.4 0-.7-.1-1-.4s-.3-.6-.3-1v-8.4c0-.7.2-1.5.3-1.6.2-.6.6-1.2.7-1.4.7-.8 1.2-1.1 1.5-1.3h.2c1.8-1.1 2-1.3 2.1-1.4.1-.1.1-.1.7-.5l.5-.3c1.4-.9 1.4-.9 2-1.3l.7-.5c1.6-1 2.6-2.7 2.8-4.4.2-1.5-.3-2.9-1.4-3.9C10 2.6 8.6 2.5 7.4 2.5c-.7 0-1.6.3-2.2.5-.4.1-1.3.7-1.7 1.4-.3.4-.5.8-.7 1.3-.2.7-.2 1.6-.2 2v.1c0 .7 0 .9-.3 1.1-.2.1-.6.1-1 0-.2-.1-.3-.3-.3-.6v-.5c0-.7 0-1.4.1-2 .2-.6.5-1.2.8-1.8.8-1.2 1.7-1.9 3-2.5.7-.3 1.4-.5 2-.5.8-.1 1.4-.1 2 0 1.6.2 2.8.8 3.6 1.8.6.7.9 1.3 1.1 2 .3.9.4 1.3.4 1.8.1.5.1 1 .1 1.6v20.5z"/><path class="st0" d="M9.9 20.9c-.1-1.1-1-2-2.1-2.1-.7-.1-1.4.2-1.9.7-.5.5-.7 1.2-.7 1.9 0 .5.2.9.6 1.3l-.5 3.2c0 .2 0 .3.1.5.1.1.3.2.4.2h3.4c.1 0 .4-.1.4-.2s.2-.3.1-.5l-.5-3.2c.6-.5.8-1.1.7-1.8zm-1.1 4.7H6.4l.5-2.9c0-.2 0-.4-.2-.6-.2-.2-.4-.5-.4-.8 0-.4.1-.8.4-1.1.3-.3.7-.4 1.1-.4.6.1 1.1.6 1.2 1.2 0 .4-.1.8-.4 1.1-.2.2-.2.4-.2.6l.4 2.9z"/></svg>