<svg version="1.1" id="App" xmlns="http://www.w3.org/2000/svg" x="0" y="0" viewBox="0 0 33 30.9" xml:space="preserve"><style>.st0{fill:#e3363f}</style><path class="st0" d="M26.8 17.1h-5.4c-.3 0-.5.2-.5.5V23c0 .3.2.5.5.5h5.4c.3 0 .5-.2.5-.5v-5.4c0-.3-.2-.5-.5-.5z"/><path class="st0" d="M30.8 2.9H28V.5c0-.3-.3-.5-.5-.5s-.5.2-.5.5v2.4H6.5V.5C6.5.2 6.3 0 6 0s-.5.2-.5.5v2.4H2.1C1 2.9 0 3.8 0 5v23.8c0 1.2 1 2.1 2.1 2.1h28.7c1.2 0 2.1-1 2.1-2.1V5c.1-1.2-.9-2.1-2.1-2.1zm0 27H2.1c-.6 0-1.1-.5-1.1-1.1V11.4h31v17.4c0 .6-.5 1.1-1.2 1.1z"/></svg>