<svg xmlns="http://www.w3.org/2000/svg" width="298" height="140" viewBox="0 0 298 140"><title>mr-and-mrs-smith-logo_</title><path d="M74.1,30.5C76,17.7,68.4,5.4,56.8,1.5S32,2.9,25.1,12.3c-3.5,4.3-6.9,10.1-6.9,16.6,0,6.1,3.5,11.9,7.3,16.2,8.2,8.6,18.3,14,26.6,21.2,16.6,14.3,34.5,29.4,43.4,49.2,1.9,5,2.2,10.4-1.5,14-3.5,3.5-8.6,4.7-13.6,5.4-10.8,1.5-22,.4-32.8-1.9-18.8-4.1-40-12.7-44.7-33.5C-2.4,78.6,14.2,60.3,32,53.1,14.5,59.6-3.5,76.7.6,97.9c3.2,21.2,24,32.8,42.3,37.8A88.48,88.48,0,0,0,77,139.2c5.8-.7,11.5-1.9,16.9-5,6.5-3.9,7.8-11.5,6.1-17.3C95.3,98.6,68.3,74.8,56.2,64.4,47.7,57.1,37.6,51.2,30,43.6c-3.9-4.1-7.3-8.4-7.6-13.8-0.4-5,1.9-9.7,5.4-14C34.3,7.2,45.1,2.2,55.5,5.4c10.1,3.2,16.6,14,15.1,24.8Z" style="fill:#e83438"/><path d="M160,76.1a71.83,71.83,0,0,1-3.5,10.8,19.35,19.35,0,0,1-2.8,5c-1.5-3.5-3.2-11.5-3.5-22a109.83,109.83,0,0,1,.7-18.6A64.2,64.2,0,0,0,165.2,44,200.82,200.82,0,0,1,160,76.1m68.7,21.1c-6.5,2.2-13.6-1.5-16.6-7.3-3.5-5.8-4.7-12.3-6.9-19a37.93,37.93,0,0,0-4.7-8.9c-3.2-.4-6.1,3.9-8.2,6.1-1.9,2.2-4.3,5.4-6.9,6.9-2.8,1.5-5.8.4-8.2-1.1-3.9-4.3-4.3-11.9-5-18.3-0.4-5.4-.4-10.8-0.7-16.2a171.66,171.66,0,0,0,12.9-14.3c-4.3,3.5-8.6,7.3-13.2,10.4h0c-0.4-4.3-.7-11.5-1.9-13.6a21.25,21.25,0,0,0-3.2.7v7.8c0,3.2-.4,6.1-0.4,8.9a58.25,58.25,0,0,1-14.3,8.2c1.5-15.1,4.3-29.4,4.3-29.4s-1.9-.4-3.5-0.7c0,0-3.9,18.6-6.9,31.7a42.37,42.37,0,0,1-19.4,0l-0.7,3.5a40.67,40.67,0,0,0,19,0c-0.4,1.5-.7,3.2-1.1,4.3a139.26,139.26,0,0,1-7.8,21.6c-1.5,3.5-3.9,7.3-5,8.2a10.63,10.63,0,0,0-1.1-1.9,26.32,26.32,0,0,1-1.9-5.4c-1.1-3.2-4.3-19-6.5-23.3h-3.2c-0.4.7-4.3,10.4-4.3,10.4-1.5,3.5-2.8,7.3-4.7,10.4a21.78,21.78,0,0,1-3.2,4.7,3.32,3.32,0,0,1-1.1,1.1c-1.5-3.5-3.2-6.1-4.3-10.1-1.1-3.5-2.2-7.3-3.5-11.2l-2.8-8.9-3.2-.4S86.2,61,84.7,64.4c-0.7,1.9-2.2,5.4-3.5,6.9-3.5-5.4-5-12.9-5-19.7H72.7C73.1,68.5,80,76,80,76a9.72,9.72,0,0,0,2.8-.4,69.42,69.42,0,0,0,5-9.3c1.5-3.5,3.9-9.3,3.9-9.3l1.1,4.3a96.25,96.25,0,0,0,3.5,11.2,86.77,86.77,0,0,0,4.3,10.8l1.1,2.8,2.8,0.4a26.53,26.53,0,0,0,5.8-6.9c4.3-6.9,6.9-15.5,8.2-18.6a36.27,36.27,0,0,1,1.5,5.4,91.57,91.57,0,0,0,2.8,11.2c1.1,3.9,2.2,7.8,4.7,11.2l0.7,1.1a11,11,0,0,1,2.8.4s2.2-2.8,3.2-3.9c1.1-1.5,2.2-3.5,3.2-5a152.33,152.33,0,0,0,8.6-22l1.1-3.9c0,3.2-.4,5.4-0.4,8.6,0,7.8.4,15.8,2.8,23.7a32.73,32.73,0,0,0,1.9,5.8l0.4,1.1a20.83,20.83,0,0,0,2.8.7l1.1-1.5c1.9-2.2,4.7-7.3,6.5-13.6,5-16.2,6.5-36.3,6.5-36.3s0.4,4.3.4,6.1c0.7,6.9.7,14.3,4.3,20.9a11,11,0,0,0,9.7,5.4c4.3-.4,6.5-3.5,8.9-6.5a82.63,82.63,0,0,1,7.3-8.2c0.4,0.7,1.1,1.1,1.5,1.9l2.2,4.7c2.8,6.1,4.3,13.2,7.8,19.4,3.2,6.1,10.8,10.8,17.9,8.6,6.1-1.9,14.3-5.8,18.6.7-4.6-4.8-12.8-1.9-18.6.2" style="fill:#e83438"/><path d="M137.8,127.7V112.6l-6.1,15.1H131l-5.8-15.1v15.1H123V109.4h3.2l5.4,13.6,5.4-13.6h3.2v18.3h-2.4Z" style="fill:#fff"/><path d="M144.5,127.7V114.5h1.9v1.9a5.4,5.4,0,0,1,4.3-2.2v2.2H150a6.08,6.08,0,0,0-3.5,1.9v9.3h-1.9v0.1h-0.1Z" style="fill:#fff"/><path d="M170.8,127.7l-1.9-1.9c-1.3.9-3.2,2.2-5,2.2-3.2,0-5.4-1.5-5.4-5,0-2.8,1.9-4.3,3.9-5.4a9.8,9.8,0,0,1-1.1-4.3A4.5,4.5,0,0,1,166,109c2.2,0,3.9,1.1,3.9,3.5,0,2.8-2.2,3.9-4.7,5a28,28,0,0,1,1.9,2.8,12.42,12.42,0,0,1,1.9,2.2,15.32,15.32,0,0,0,1.9-4.3l1.5,0.7-2.2,4.7,3.5,3.5h-2.8l-0.1.6h0Zm-3.2-3.1a8.3,8.3,0,0,1-2.2-2.8,34.19,34.19,0,0,1-2.2-2.8,4.26,4.26,0,0,0-2.8,3.9,3.31,3.31,0,0,0,3.5,3.5A10.64,10.64,0,0,0,167.6,124.6Zm-3.7-8.2c1.9-.7,3.5-1.9,3.5-3.9a1.78,1.78,0,0,0-1.9-1.9c-1.5,0-2.2,1.1-2.2,2.8A3.69,3.69,0,0,0,163.9,116.4Z" style="fill:#fff"/><path d="M198.2,127.7V112.6l-6.1,15.1h-0.7l-5.8-15.1v15.1h-2.2V109.4h3.2L192,123l5.4-13.6h3.2v18.3h-2.4Z" style="fill:#fff"/><path d="M204.9,127.7V114.5h1.9v1.9a5.4,5.4,0,0,1,4.3-2.2v2.2h-0.7a6.08,6.08,0,0,0-3.5,1.9v9.3H205v0.1h-0.1Z" style="fill:#fff"/><path d="M212.5,125.7l1.1-1.5a4.91,4.91,0,0,0,4.3,1.9c1.9,0,3.2-.7,3.2-2.2s-1.5-1.9-3.5-2.2c-2.2-.4-4.7-1.1-4.7-3.9,0-1.9,1.5-3.9,4.7-3.9,2.2,0,3.9.7,4.7,1.9l-0.7,1.5a5.86,5.86,0,0,0-3.9-1.5c-1.9,0-2.8.7-2.8,1.9s1.5,1.5,3.2,1.9c2.2,0.4,4.7,1.1,4.7,4.3,0,2.2-1.5,3.9-5,3.9A5.28,5.28,0,0,1,212.5,125.7Z" style="fill:#fff"/><path d="M232.3,124.9l1.1-1.5c1.1,1.1,3.2,2.8,5.4,2.8,3.2,0,4.3-1.5,4.3-3.2,0-2.2-2.2-2.8-4.7-3.5-2.8-.7-6.1-1.5-6.1-5,0-3.2,2.8-5,6.1-5,2.8,0,4.7.7,6.1,2.8l-0.7,1.1a6.32,6.32,0,0,0-5-2.2c-2.2,0-3.5,1.1-3.5,2.8,0,1.9,1.9,2.2,4.3,3.2,2.8,0.7,6.1,1.5,6.1,5.4,0,2.8-1.9,5.4-6.5,5.4A7.65,7.65,0,0,1,232.3,124.9Z" style="fill:#fff"/><path d="M264.3,127.7v-8.9c0-1.5-.7-2.8-2.2-2.8a6.08,6.08,0,0,0-3.5,1.9v9.7h-1.9v-8.9c0-1.5-.7-2.8-2.2-2.8a6.08,6.08,0,0,0-3.5,1.9v9.7h-2V114.3h1.9v1.9a5.65,5.65,0,0,1,4.3-2.2,3.48,3.48,0,0,1,3.5,2.2A5.06,5.06,0,0,1,263,114c2.2,0,3.5,1.1,3.5,3.9v9.7h-2.2v0.1Z" style="fill:#fff"/><path d="M270.6,111a1.68,1.68,0,0,1,1.1-1.5,1.3,1.3,0,0,1,1.1,1.5,1.57,1.57,0,0,1-1.1,1.5C271,112.7,270.6,111.9,270.6,111Zm0,16.7V114.5h1.9v13.2h-1.9Z" style="fill:#fff"/><path d="M277.5,124.9v-8.6h-2.2v-1.9h2.2V111h1.9v3.5h2.8v1.9h-2.8v8.2c0,1.1.4,1.5,1.1,1.5,0.4,0,1.1-.4,1.5-0.4l0.7,1.5a3,3,0,0,1-2.2.7C278.3,128.1,277.5,126.8,277.5,124.9Z" style="fill:#fff"/><path d="M293.7,127.7v-8.6c0-2.2-1.1-3.2-2.8-3.2a6,6,0,0,0-3.9,1.9v9.7h-1.9V109.2H287v6.9a6.2,6.2,0,0,1,4.7-2.2c2.8,0,4.3,1.1,4.3,4.3v9.3h-2.2v0.2h-0.1Z" style="fill:#fff"/></svg>