<?xml version="1.0" encoding="UTF-8" standalone="no"?>
<svg
   xmlns:dc="http://purl.org/dc/elements/1.1/"
   xmlns:cc="http://creativecommons.org/ns#"
   xmlns:rdf="http://www.w3.org/1999/02/22-rdf-syntax-ns#"
   xmlns:svg="http://www.w3.org/2000/svg"
   xmlns="http://www.w3.org/2000/svg"
   version="1.1"
   id="svg2"
   height="27.997858"
   width="163.00003">
  <defs
     id="defs4" />
  <metadata
     id="metadata7">
    <rdf:RDF>
      <cc:Work
         rdf:about="">
        <dc:format>image/svg+xml</dc:format>
        <dc:type
           rdf:resource="http://purl.org/dc/dcmitype/StillImage" />
        <dc:title></dc:title>
      </cc:Work>
    </rdf:RDF>
  </metadata>
  <g
     transform="translate(-56.381077,-230.06903)"
     id="layer1">
    <path
       d="m 74.100349,257.63872 15.143913,0 0.737781,-3.68891 -9.591145,0 0,-0.0777 c 0.718359,-0.62129 1.407599,-1.25229 2.067727,-1.89299 0.660109,-0.64069 1.407597,-1.4076 2.242463,-2.30072 l 7.338973,-8.03792 0.543628,-2.91229 -14.21198,0 -0.737779,3.6889 8.814533,0 -0.03883,0.11649 c -0.759632,0.67794 -1.473143,1.33158 -2.140533,1.96095 -0.667409,0.62939 -1.390625,1.36069 -2.169658,2.19392 l -7.494294,8.19324 z"
       style="font-style:italic;font-variant:normal;font-weight:bold;font-stretch:normal;font-size:151.18310547px;line-height:125%;font-family:'Myriad Pro Light';-inkscape-font-specification:'Myriad Pro Light, Bold Italic';text-align:start;writing-mode:lr-tb;text-anchor:start;fill:#d20000;fill-opacity:1;stroke:none"
       id="path3069" />
    <path
       d="m 109.26526,257.63872 c -0.0357,-1.16735 0.0162,-2.53126 0.15533,-4.09178 0.13913,-1.5605 0.34622,-3.07003 0.62128,-4.52861 l 1.94153,-9.86295 c -0.73779,-0.23945 -1.61148,-0.44007 -2.62107,-0.60187 -1.0096,-0.16179 -2.03861,-0.24592 -3.08702,-0.25241 -2.93938,0.0451 -5.39625,0.71862 -7.370607,2.02063 -1.974376,1.30204 -3.459042,2.96216 -4.454009,4.98038 -0.994976,2.01823 -1.493064,4.12419 -1.494262,6.31788 0.02181,1.93343 0.531494,3.48341 1.528957,4.64995 0.997454,1.16653 2.351673,1.76517 4.06265,1.79591 1.218295,0.0226 2.412331,-0.32359 3.582111,-1.03872 1.16976,-0.71512 2.22789,-1.93505 3.1744,-3.65978 l 0.11649,0 c -0.0801,0.82111 -0.15291,1.5961 -0.21841,2.32499 -0.0655,0.72887 -0.10924,1.37767 -0.13107,1.94638 z m -3.33942,-10.67841 c -0.49107,2.41722 -1.26606,4.26166 -2.32498,5.53335 -1.05896,1.27171 -2.13488,1.91241 -3.22779,1.92212 -0.979667,-0.0267 -1.680237,-0.38102 -2.101704,-1.06299 -0.421477,-0.68195 -0.626954,-1.53137 -0.616441,-2.54826 0.04693,-2.26105 0.758814,-4.30127 2.135696,-6.12066 1.376849,-1.81935 3.137159,-2.78204 5.280939,-2.88801 0.40528,7.6e-4 0.75962,0.0186 1.06299,0.0534 0.30335,0.0347 0.57031,0.0818 0.80088,0.14076 z"
       style="font-style:italic;font-variant:normal;font-weight:bold;font-stretch:normal;font-size:151.18310547px;line-height:125%;font-family:'Myriad Pro Light';-inkscape-font-specification:'Myriad Pro Light, Bold Italic';text-align:start;writing-mode:lr-tb;text-anchor:start;fill:#d20000;fill-opacity:1;stroke:none"
       id="path3071" />
    <path
       d="m 118.12132,257.63872 5.24213,-27.56969 -4.50434,0 -5.28096,27.56969 z"
       style="font-style:italic;font-variant:normal;font-weight:bold;font-stretch:normal;font-size:151.18310547px;line-height:125%;font-family:'Myriad Pro Light';-inkscape-font-specification:'Myriad Pro Light, Bold Italic';text-align:start;writing-mode:lr-tb;text-anchor:start;fill:#d20000;fill-opacity:1;stroke:none"
       id="path3073" />
    <path
       d="m 127.75324,257.63872 5.24213,-27.56969 -4.50434,0 -5.28095,27.56969 z"
       style="font-style:italic;font-variant:normal;font-weight:bold;font-stretch:normal;font-size:151.18310547px;line-height:125%;font-family:'Myriad Pro Light';-inkscape-font-specification:'Myriad Pro Light, Bold Italic';text-align:start;writing-mode:lr-tb;text-anchor:start;fill:#d20000;fill-opacity:1;stroke:none"
       id="path3075" />
    <path
       d="m 149.46147,257.63872 c -0.0356,-1.16735 0.0162,-2.53126 0.15531,-4.09178 0.13913,-1.5605 0.34623,-3.07003 0.62129,-4.52861 l 1.94153,-9.86295 c -0.7378,-0.23945 -1.61148,-0.44007 -2.62105,-0.60187 -1.00962,-0.16179 -2.03863,-0.24592 -3.08704,-0.25241 -2.93939,0.0451 -5.39625,0.71862 -7.3706,2.02063 -1.97438,1.30204 -3.45905,2.96216 -4.45402,4.98038 -0.99498,2.01823 -1.49305,4.12419 -1.49426,6.31788 0.0218,1.93343 0.5315,3.48341 1.52896,4.64995 0.99745,1.16653 2.35167,1.76517 4.06264,1.79591 1.21831,0.0226 2.41234,-0.32359 3.58212,-1.03872 1.16976,-0.71512 2.22789,-1.93505 3.17439,-3.65978 l 0.1165,0 c -0.0802,0.82111 -0.1529,1.5961 -0.21842,2.32499 -0.0655,0.72887 -0.10923,1.37767 -0.13105,1.94638 z m -3.33944,-10.67841 c -0.49105,2.41722 -1.26605,4.26166 -2.32497,5.53335 -1.05895,1.27171 -2.13489,1.91241 -3.22779,1.92212 -0.97967,-0.0267 -1.68023,-0.38102 -2.1017,-1.06299 -0.42148,-0.68195 -0.62696,-1.53137 -0.61643,-2.54826 0.0469,-2.26105 0.7588,-4.30127 2.13568,-6.12066 1.37685,-1.81935 3.13716,-2.78204 5.28095,-2.88801 0.40528,7.6e-4 0.7596,0.0186 1.06298,0.0534 0.30335,0.0347 0.57031,0.0818 0.80088,0.14076 z"
       style="font-style:italic;font-variant:normal;font-weight:bold;font-stretch:normal;font-size:151.18310547px;line-height:125%;font-family:'Myriad Pro Light';-inkscape-font-specification:'Myriad Pro Light, Bold Italic';text-align:start;writing-mode:lr-tb;text-anchor:start;fill:#d20000;fill-opacity:1;stroke:none"
       id="path3077" />
    <path
       d="m 153.0754,256.66795 c 0.52341,0.3786 1.2531,0.69895 2.18908,0.96106 0.93597,0.2621 1.9666,0.40771 3.09187,0.43684 2.32255,-0.0105 4.23009,-0.57194 5.72265,-1.68427 1.49255,-1.11234 2.2643,-2.71247 2.31528,-4.80043 -0.0348,-1.19484 -0.43119,-2.20282 -1.18919,-3.02393 -0.75801,-0.8211 -1.66891,-1.50872 -2.7327,-2.06287 -0.79846,-0.39962 -1.40518,-0.80411 -1.82018,-1.21345 -0.41501,-0.40934 -0.62373,-0.87206 -0.62615,-1.3882 0.0129,-0.65282 0.27829,-1.18189 0.79604,-1.5872 0.51773,-0.40527 1.2102,-0.61398 2.07743,-0.62614 0.78307,0.0114 1.47879,0.10518 2.08714,0.28152 0.60833,0.17637 1.09048,0.36728 1.44645,0.57275 l 1.16491,-3.26176 c -0.43605,-0.26129 -1.03955,-0.48618 -1.81047,-0.67468 -0.77097,-0.18848 -1.65598,-0.28717 -2.65505,-0.29609 -2.2724,0.0308 -4.10553,0.60998 -5.49937,1.73767 -1.39386,1.12772 -2.11061,2.61946 -2.15025,4.47522 0.0194,1.08403 0.36889,2.03214 1.04843,2.84434 0.67953,0.81221 1.57263,1.50792 2.67931,2.08713 0.91898,0.47084 1.56616,0.92709 1.94153,1.36878 0.37535,0.44171 0.55656,0.95621 0.54363,1.54352 -0.007,0.63828 -0.26455,1.17705 -0.77177,1.61632 -0.50722,0.43928 -1.22074,0.67711 -2.14053,0.71352 -0.87611,-0.0194 -1.72553,-0.16504 -2.54826,-0.43685 -0.82272,-0.27182 -1.48769,-0.55333 -1.99492,-0.84457 z"
       style="font-style:italic;font-variant:normal;font-weight:bold;font-stretch:normal;font-size:151.18310547px;line-height:125%;font-family:'Myriad Pro Light';-inkscape-font-specification:'Myriad Pro Light, Bold Italic';text-align:start;writing-mode:lr-tb;text-anchor:start;fill:#d20000;fill-opacity:1;stroke:none"
       id="path3079" />
    <path
       d="m 171.84957,258.02701 c 0.94972,-0.0194 1.71986,-0.33005 2.31042,-0.93192 0.59053,-0.60188 0.8947,-1.37848 0.91251,-2.32983 -0.0129,-0.86721 -0.26858,-1.5597 -0.76691,-2.07744 -0.49833,-0.51774 -1.16168,-0.78309 -1.99006,-0.79603 -0.94811,0.0251 -1.71179,0.35353 -2.291,0.98533 -0.57923,0.6318 -0.87692,1.41651 -0.8931,2.35409 0.0121,0.81303 0.25968,1.478 0.74262,1.99493 0.48297,0.51693 1.12852,0.78389 1.93668,0.80087 z"
       style="font-style:italic;font-variant:normal;font-weight:bold;font-stretch:normal;font-size:151.18310547px;line-height:125%;font-family:'Myriad Pro Light';-inkscape-font-specification:'Myriad Pro Light, Bold Italic';text-align:start;writing-mode:lr-tb;text-anchor:start;fill:#d20000;fill-opacity:1;stroke:none"
       id="path3081" />
    <path
       d="m 182.92731,257.63872 1.70854,-9.00869 c 0.41096,-2.02647 1.13255,-3.63308 2.16481,-4.81984 1.03223,-1.18675 2.12272,-1.79347 3.27148,-1.82019 0.84616,0.017 1.4545,0.26455 1.82502,0.74264 0.3705,0.47811 0.55171,1.08484 0.54363,1.82018 -0.003,0.46518 -0.0267,0.90363 -0.0728,1.31538 -0.0461,0.41179 -0.0995,0.80171 -0.16017,1.16977 l -2.01919,10.60075 4.50435,0 2.09684,-10.91139 c 0.0979,-0.53714 0.17391,-1.10342 0.22813,-1.69884 0.0542,-0.59539 0.0817,-1.14225 0.0826,-1.64058 -0.0348,-1.7239 -0.49915,-3.0037 -1.39305,-3.83938 -0.89392,-0.83564 -2.00869,-1.25146 -3.34428,-1.24743 -1.31944,0.0121 -2.50539,0.30824 -3.55785,0.88826 -1.05247,0.58004 -1.97631,1.3712 -2.77153,2.3735 l -0.0777,0 2.21334,-11.49383 -4.54317,0 -5.20329,27.56969 z"
       style="font-style:italic;font-variant:normal;font-weight:bold;font-stretch:normal;font-size:151.18310547px;line-height:125%;font-family:'Myriad Pro Light';-inkscape-font-specification:'Myriad Pro Light, Bold Italic';text-align:start;writing-mode:lr-tb;text-anchor:start;fill:#d20000;fill-opacity:1;stroke:none"
       id="path3083" />
    <path
       d="m 214.87662,238.72824 -1.74737,9.20284 c -0.41178,1.98279 -1.12206,3.54086 -2.13082,4.67422 -1.0088,1.13338 -2.05884,1.71097 -3.15013,1.73282 -0.88179,-0.0145 -1.50631,-0.26696 -1.87357,-0.7572 -0.36729,-0.49023 -0.54526,-1.13093 -0.53393,-1.92211 7.7e-4,-0.37293 0.0284,-0.78227 0.0826,-1.22802 0.0542,-0.44573 0.13024,-0.90361 0.22813,-1.37362 l 1.94153,-10.32893 -4.50434,0 -2.0192,10.60073 c -0.1351,0.63829 -0.23379,1.23531 -0.29608,1.79106 -0.0623,0.55577 -0.093,1.08484 -0.0922,1.5872 0.0332,1.92212 0.51046,3.3006 1.43188,4.13545 0.92141,0.83486 2.08794,1.24258 3.4996,1.22317 1.19565,-0.003 2.35732,-0.31792 3.48504,-0.94649 1.1277,-0.62857 2.15347,-1.55565 3.07731,-2.78124 l 0.0777,0 -0.3883,3.3006 3.99955,0 c 0.11404,-0.81706 0.2451,-1.71664 0.39315,-2.69873 0.14803,-0.98208 0.32762,-2.03698 0.53878,-3.16469 l 2.48516,-13.04706 z"
       style="font-style:italic;font-variant:normal;font-weight:bold;font-stretch:normal;font-size:151.18310547px;line-height:125%;font-family:'Myriad Pro Light';-inkscape-font-specification:'Myriad Pro Light, Bold Italic';text-align:start;writing-mode:lr-tb;text-anchor:start;fill:#d20000;fill-opacity:1;stroke:none"
       id="path3085" />
    <path
       d="m 56.381077,256.20198 c 0.600254,0.48297 1.5063,0.90524 2.718138,1.26684 1.211833,0.36162 2.622676,0.56062 4.23253,0.59703 2.985897,-0.0267 5.401476,-0.78874 7.24675,-2.28615 1.845244,-1.49741 2.794972,-3.56997 2.849192,-6.21774 -0.01297,-1.57829 -0.462746,-2.92603 -1.349363,-4.04323 -0.886646,-1.11717 -2.132457,-2.08631 -3.73744,-2.90744 -1.233689,-0.67627 -2.193126,-1.33317 -2.878313,-1.97065 -0.685206,-0.63744 -1.033063,-1.3914 -1.04357,-2.26188 0.0081,-0.90683 0.399621,-1.69476 1.174623,-2.3638 0.774982,-0.66901 1.884888,-1.02009 3.329719,-1.05328 1.078345,0.003 2.028072,0.13349 2.849192,0.39315 0.821085,0.2597 1.450465,0.51696 1.888133,0.77176 l 1.475563,-3.76657 c -0.502389,-0.3098 -1.235314,-0.60265 -2.198781,-0.87853 -0.963498,-0.27584 -2.172098,-0.42307 -3.625802,-0.4417 -2.711677,0.0267 -4.976788,0.75965 -6.795344,2.19878 -1.818569,1.43918 -2.763445,3.42439 -2.83463,5.95564 0.03236,1.5419 0.540388,2.86538 1.524098,3.97041 0.983701,1.10507 2.248928,2.05966 3.795686,2.86376 1.274926,0.66417 2.210093,1.32591 2.805506,1.98521 0.595388,0.65932 0.889855,1.40843 0.883395,2.24732 -0.0445,1.26604 -0.537976,2.22872 -1.480414,2.88802 -0.942461,0.65932 -2.066927,0.99099 -3.373403,0.99504 -1.156024,-0.009 -2.241661,-0.16584 -3.256912,-0.47083 -1.015261,-0.30497 -1.897038,-0.7046 -2.645331,-1.19888 z"
       style="font-style:italic;font-variant:normal;font-weight:bold;font-stretch:normal;font-size:151.18310547px;line-height:125%;font-family:'Myriad Pro Light';-inkscape-font-specification:'Myriad Pro Light, Bold Italic';text-align:start;writing-mode:lr-tb;text-anchor:start;fill:#d20000;fill-opacity:1;stroke:none"
       id="path3066" />
  </g>
</svg>
