<?xml version="1.0" encoding="utf-8"?>
<!-- Generator: Adobe Illustrator 19.1.0, SVG Export Plug-In . SVG Version: 6.00 Build 0)  -->
<svg version="1.1" id="Réteg_1" xmlns="http://www.w3.org/2000/svg" xmlns:xlink="http://www.w3.org/1999/xlink" x="0px" y="0px"
	 viewBox="0 0 141.7 141.7" style="enable-background:new 0 0 141.7 141.7;" xml:space="preserve">
<style type="text/css">
	.st0{opacity:0.2;fill:url(#SVGID_1_);}
	.st1{fill:#FFFFFF;}
	.st2{fill:url(#SVGID_2_);}
	.st3{opacity:0.2;fill:url(#SVGID_3_);}
</style>
<linearGradient id="SVGID_1_" gradientUnits="userSpaceOnUse" x1="-33.273" y1="49.411" x2="123.5201" y2="49.411">
	<stop  offset="0" style="stop-color:#FFFFFF"/>
	<stop  offset="0.9726" style="stop-color:#FFFFFF;stop-opacity:2.739726e-002"/>
	<stop  offset="1" style="stop-color:#2483C5;stop-opacity:0"/>
</linearGradient>
<path class="st0" d="M118.9,39.5C110.5,20.6,91.6,7.5,69.6,7.5c-29.8,0-53.9,24.1-53.9,53.9c0,9.8,2.6,18.9,7.1,26.8
	c7.1,2.1,14.5,3.2,22.2,3.2C79.1,91.4,108,69.7,118.9,39.5z"/>
<g>
	<path class="st1" d="M35.7,59.1c-1.3,0-2.4-0.2-3.3-0.6c-0.9-0.4-1.6-0.9-2.2-1.5c-0.6-0.7-1-1.4-1.2-2.3c-0.3-0.9-0.4-1.8-0.4-2.9
		c0-1.1,0.1-2.3,0.4-3.4l2.3-11h4.2l-2.3,11c-0.1,0.5-0.2,0.9-0.2,1.4c-0.1,0.5-0.1,0.9-0.1,1.3c0,0.6,0.1,1.2,0.2,1.7
		c0.1,0.5,0.3,1,0.6,1.4c0.3,0.4,0.7,0.7,1.1,0.9c0.5,0.2,1,0.3,1.7,0.3c0.9,0,1.7-0.2,2.4-0.6c0.7-0.4,1.3-0.9,1.8-1.6
		c0.5-0.6,0.9-1.4,1.3-2.2c0.3-0.8,0.6-1.7,0.8-2.6l2.3-11h4.2l-2.3,11c-0.3,1.5-0.8,2.9-1.4,4.2s-1.4,2.4-2.3,3.4
		c-0.9,1-2,1.7-3.3,2.3C38.7,58.8,37.3,59.1,35.7,59.1z M41.4,35.2l-2.6-0.5l2.3-3.6h3.8L41.4,35.2z"/>
	<path class="st1" d="M53.3,65.7c-1.7,0-3-0.3-4-0.9c-1-0.6-1.8-1.4-2.4-2.4l2.7-2.2c0.4,0.7,1,1.3,1.8,1.8c0.8,0.4,1.7,0.6,2.6,0.6
		c0.6,0,1.2-0.1,1.7-0.3c0.6-0.2,1.1-0.4,1.6-0.8c0.5-0.4,0.9-0.8,1.2-1.4c0.4-0.6,0.6-1.2,0.8-2l0.4-2c-0.7,0.9-1.5,1.6-2.5,2.1
		c-1,0.5-2,0.7-3,0.7c-0.9,0-1.6-0.2-2.2-0.5c-0.6-0.3-1.2-0.8-1.7-1.4c-0.5-0.6-0.8-1.2-1-2s-0.3-1.6-0.3-2.5
		c0-1.3,0.2-2.6,0.7-3.8c0.5-1.2,1.1-2.3,2-3.2s1.8-1.6,2.9-2.2c1.1-0.5,2.2-0.8,3.4-0.8c1.2,0,2.1,0.3,2.9,0.8
		c0.8,0.6,1.3,1.3,1.7,2.2l0.6-2.8h3.6l-3.3,15.2c-0.2,1.2-0.7,2.2-1.3,3.2c-0.6,0.9-1.4,1.7-2.3,2.4c-0.9,0.6-1.9,1.1-3,1.5
		C55.7,65.5,54.6,65.7,53.3,65.7z M56.3,55.7c0.8,0,1.6-0.3,2.3-0.8c0.8-0.5,1.4-1.2,1.8-1.9l0.8-3.8c-0.1-0.9-0.5-1.7-1.1-2.2
		c-0.6-0.6-1.3-0.9-2-0.9c-0.7,0-1.3,0.2-1.9,0.5C55.6,47,55,47.5,54.6,48c-0.5,0.6-0.8,1.2-1.1,1.9c-0.3,0.7-0.4,1.4-0.4,2.1
		c0,0.5,0.1,1,0.2,1.5c0.2,0.4,0.4,0.8,0.6,1.2c0.3,0.3,0.6,0.6,1,0.8C55.4,55.6,55.8,55.7,56.3,55.7z"/>
	<path class="st1" d="M65.6,62.7c0.6-0.1,1.1-0.1,1.6-0.2c0.4-0.1,0.8-0.2,1.2-0.4c0.3-0.2,0.6-0.4,0.9-0.7s0.6-0.6,0.9-1l0.9-1.2
		L68.4,43h4.2l1.4,12.4l1-1.7c0.6-1,1.2-2,1.6-2.9s0.9-1.8,1.2-2.6c0.4-0.9,0.7-1.7,0.9-2.5c0.3-0.8,0.5-1.7,0.7-2.6h4
		c-0.3,1-0.6,1.9-0.9,2.7c-0.3,0.9-0.7,1.8-1.2,2.7c-0.5,1-1,2-1.7,3.2c-0.7,1.2-1.5,2.6-2.5,4.2l-2.4,3.9c-0.7,1.1-1.4,2.1-2.1,2.9
		c-0.7,0.8-1.3,1.4-2,1.9s-1.4,0.8-2.1,1c-0.7,0.2-1.6,0.3-2.5,0.3L65.6,62.7z"/>
	<path class="st1" d="M92.6,43h4.1l-3.4,15.9h-4.1L92.6,43z M94,36.7h4.1l-0.9,4h-4.1L94,36.7z"/>
	<path class="st1" d="M102.7,59.2c-1.3,0-2.5-0.2-3.6-0.6c-1.1-0.4-2-1-2.7-1.8l2-2.6c1.6,1.4,3.2,2.1,4.8,2.1c0.9,0,1.5-0.2,2-0.5
		c0.5-0.4,0.7-0.9,0.7-1.5c0-0.4-0.2-0.8-0.7-1c-0.4-0.3-1.1-0.5-2.1-0.8c-0.8-0.2-1.5-0.5-2.1-0.7c-0.6-0.2-1.1-0.5-1.4-0.8
		s-0.6-0.6-0.8-1c-0.2-0.4-0.3-0.8-0.3-1.2c0-0.9,0.2-1.7,0.6-2.4s0.9-1.4,1.6-1.9c0.7-0.5,1.4-0.9,2.3-1.2c0.9-0.3,1.8-0.4,2.8-0.4
		c1.1,0,2.2,0.2,3.1,0.5c0.9,0.3,1.7,0.9,2.4,1.7l-2.2,2.5c-0.6-0.6-1.3-1.1-2-1.3s-1.3-0.4-2-0.4c-0.7,0-1.3,0.2-1.8,0.5
		c-0.5,0.3-0.8,0.9-0.8,1.6c0,0.4,0.2,0.8,0.6,1c0.4,0.2,1,0.5,1.9,0.7c1.7,0.5,3,1,3.8,1.6c0.8,0.6,1.2,1.4,1.2,2.4
		c0,0.9-0.2,1.7-0.5,2.4c-0.4,0.7-0.9,1.3-1.5,1.9s-1.4,0.9-2.3,1.2C104.7,59.1,103.8,59.2,102.7,59.2z"/>
	<path class="st1" d="M44.2,93.1c-1,0-1.8-0.2-2.4-0.7s-0.8-1.2-0.8-2.1c0-0.2,0-0.4,0-0.5c0-0.2,0.1-0.4,0.1-0.6l3.9-18.5h4
		l-3.6,17.1c0,0.1,0,0.2,0,0.3s0,0.2,0,0.3c0,0.8,0.4,1.2,1.2,1.2c0.2,0,0.5,0,0.8-0.1c0.3-0.1,0.6-0.2,0.8-0.3l-0.1,3.1
		c-0.6,0.3-1.3,0.5-2,0.6C45.5,93,44.8,93.1,44.2,93.1z"/>
	<path class="st1" d="M56.8,93.1c-1,0-1.9-0.2-2.7-0.5c-0.8-0.3-1.5-0.8-2.1-1.4c-0.6-0.6-1-1.3-1.3-2.1c-0.3-0.8-0.4-1.7-0.4-2.7
		c0-1.3,0.3-2.6,0.8-3.8c0.5-1.2,1.2-2.2,2.1-3.1c0.9-0.9,2-1.6,3.2-2.1c1.2-0.5,2.5-0.8,4-0.8c1.7,0,3.1,0.4,4.1,1.1
		c1,0.8,1.5,1.9,1.5,3.3c0,3.4-3.1,5.1-9.2,5.1c-0.4,0-0.7,0-1.1,0s-0.8,0-1.2-0.1v0.4c0,1.1,0.2,1.9,0.7,2.6c0.5,0.7,1.3,1,2.3,1
		c0.8,0,1.6-0.2,2.3-0.6c0.7-0.4,1.3-0.9,1.7-1.6l3.2,1c-0.4,0.6-0.9,1.2-1.5,1.7c-0.6,0.5-1.2,1-1.9,1.3c-0.7,0.4-1.4,0.6-2.2,0.9
		C58.4,93,57.6,93.1,56.8,93.1z M59.7,79.6c-0.6,0-1.1,0.1-1.6,0.3c-0.5,0.2-1,0.5-1.4,0.9c-0.4,0.4-0.7,0.8-1,1.3
		c-0.3,0.5-0.5,1-0.7,1.5c0.3,0,0.6,0,0.9,0s0.6,0,0.9,0c1,0,1.8,0,2.5-0.2c0.7-0.1,1.2-0.3,1.6-0.5c0.4-0.2,0.7-0.4,0.9-0.7
		s0.3-0.6,0.3-1c0-0.6-0.2-1-0.7-1.3C61,79.7,60.5,79.6,59.7,79.6z"/>
	<path class="st1" d="M71.1,93.1c-1,0-1.8-0.2-2.4-0.7c-0.6-0.4-0.9-1.1-0.9-2.1c0-0.4,0-0.8,0.1-1.1l1.9-9.1h-2l0.7-3.1h1.9
		l1.1-5.2h4.1l-1.1,5.2h3.2L77.1,80H74l-1.7,7.8c0,0.1,0,0.2,0,0.3c0,0.1,0,0.1,0,0.2c0,0.4,0.1,0.7,0.3,0.8s0.5,0.2,0.8,0.2
		c0.4,0,0.8-0.1,1.2-0.2c0.4-0.1,0.7-0.3,1-0.4l0.1,3.2c-0.6,0.3-1.3,0.5-2.1,0.8C72.8,93,71.9,93.1,71.1,93.1z"/>
	<path class="st1" d="M82.5,93.1c-1,0-1.8-0.2-2.4-0.7s-0.9-1.1-0.9-2.1c0-0.4,0-0.8,0.1-1.1l1.9-9.1h-2l0.7-3.1h1.9l1.1-5.2H87
		l-1.1,5.2h3.2L88.5,80h-3.2l-1.7,7.8c0,0.1,0,0.2,0,0.3c0,0.1,0,0.1,0,0.2c0,0.4,0.1,0.7,0.3,0.8s0.5,0.2,0.8,0.2
		c0.4,0,0.8-0.1,1.2-0.2c0.4-0.1,0.7-0.3,1-0.4l0.1,3.2c-0.6,0.3-1.3,0.5-2.1,0.8C84.1,93,83.3,93.1,82.5,93.1z"/>
	<path class="st1" d="M89.5,92.8l1-4.6h4.1l-1,4.6H89.5z M91.2,84.7L94.1,71h4.1l-2.9,13.7H91.2z"/>
</g>
<g>
	<radialGradient id="SVGID_2_" cx="57.3259" cy="-37.5446" r="194.207" gradientUnits="userSpaceOnUse">
		<stop  offset="0" style="stop-color:#9B258E"/>
		<stop  offset="4.331535e-002" style="stop-color:#A02585"/>
		<stop  offset="0.2251" style="stop-color:#B12363"/>
		<stop  offset="0.4108" style="stop-color:#BF2248"/>
		<stop  offset="0.5997" style="stop-color:#C82135"/>
		<stop  offset="0.7935" style="stop-color:#CE202A"/>
		<stop  offset="1" style="stop-color:#D02026"/>
	</radialGradient>
	<path class="st2" d="M120.2,39.5c-8.4-19-27.5-32.3-49.6-32.3c-30,0-54.3,24.3-54.3,54.3c0,9.8,2.6,19,7.2,27
		c8.9,15.6,25.4,26.3,44.4,27.2c-0.3,0.2-0.6,0.4-0.7,0.7c-2.3,5.6-3.8,11.5-5.8,17.9c1.6-0.1,2.5,0,3.3-0.2
		c19.8-4.3,37.2-17.5,47.9-34.5c7.1-11.3,12.1-24.7,12.1-38.1C124.8,53.7,123.1,46.3,120.2,39.5z"/>
	<linearGradient id="SVGID_3_" gradientUnits="userSpaceOnUse" x1="-33.038" y1="49.5054" x2="124.8069" y2="49.5054">
		<stop  offset="0" style="stop-color:#FFFFFF"/>
		<stop  offset="0.9726" style="stop-color:#FFFFFF;stop-opacity:2.739726e-002"/>
		<stop  offset="1" style="stop-color:#2483C5;stop-opacity:0"/>
	</linearGradient>
	<path class="st3" d="M120.2,39.5c-8.4-19-27.5-32.3-49.6-32.3c-30,0-54.3,24.3-54.3,54.3c0,9.8,2.6,19,7.2,27
		c7.1,2.1,14.6,3.2,22.4,3.2C80.1,91.7,109.2,70,120.2,39.5z"/>
	<g>
		<path class="st1" d="M35.9,59.2c-1.3,0-2.4-0.2-3.4-0.6c-0.9-0.4-1.7-0.9-2.2-1.6c-0.6-0.7-1-1.4-1.3-2.4
			c-0.3-0.9-0.4-1.9-0.4-2.9c0-1.1,0.1-2.2,0.4-3.4l2.4-11.1h5L34,48.4c-0.2,0.9-0.3,1.7-0.3,2.5c0,0.6,0.1,1.1,0.2,1.5
			c0.1,0.5,0.3,0.9,0.5,1.2c0.2,0.3,0.6,0.6,1,0.8c0.4,0.2,0.9,0.3,1.5,0.3c0.8,0,1.5-0.2,2.1-0.5c0.6-0.4,1.1-0.8,1.6-1.4
			c0.4-0.6,0.8-1.3,1.1-2c0.3-0.8,0.6-1.5,0.7-2.3l2.4-11.1h5l-2.4,11.1c-0.3,1.5-0.8,2.9-1.5,4.2c-0.6,1.3-1.4,2.4-2.4,3.4
			c-1,1-2.1,1.7-3.3,2.3C39,59,37.5,59.2,35.9,59.2z M42,35.4L38.8,35l2.4-4h4.4L42,35.4z"/>
		<path class="st1" d="M53.6,65.9c-1.7,0-3-0.3-4.1-0.8c-1.1-0.6-1.9-1.3-2.6-2.4l3.2-2.7c0.4,0.7,1,1.2,1.7,1.6
			c0.7,0.4,1.6,0.6,2.5,0.6c0.6,0,1.1-0.1,1.6-0.2s1-0.4,1.5-0.7c0.4-0.3,0.8-0.8,1.2-1.3c0.3-0.5,0.6-1.2,0.7-1.9l0.3-1.6
			c-0.6,0.9-1.4,1.6-2.4,2c-1,0.5-2,0.7-3,0.7c-0.8,0-1.6-0.2-2.2-0.5c-0.6-0.3-1.2-0.8-1.6-1.3c-0.4-0.6-0.8-1.2-1-2
			s-0.4-1.6-0.4-2.5c0-1.4,0.2-2.7,0.7-3.9c0.5-1.2,1.2-2.3,2-3.2c0.8-0.9,1.8-1.6,2.9-2.2c1.1-0.5,2.3-0.8,3.5-0.8
			c1.1,0,2.1,0.3,2.8,0.8s1.3,1.2,1.6,2.2l0.6-2.6h4.3l-3.2,15c-0.3,1.2-0.7,2.3-1.4,3.3c-0.6,1-1.4,1.8-2.4,2.5
			c-0.9,0.7-2,1.2-3.2,1.6C56.2,65.7,54.9,65.9,53.6,65.9z M56.9,55.2c0.7,0,1.3-0.2,1.9-0.6c0.6-0.4,1.2-1,1.6-1.6l0.7-3.4
			c-0.1-0.9-0.4-1.5-0.9-2c-0.5-0.5-1.1-0.7-1.7-0.7c-0.6,0-1.1,0.2-1.6,0.5c-0.5,0.3-1,0.7-1.4,1.2c-0.4,0.5-0.7,1-0.9,1.7
			c-0.2,0.6-0.4,1.2-0.4,1.9c0,0.9,0.2,1.7,0.7,2.3C55.4,54.9,56,55.2,56.9,55.2z"/>
		<path class="st1" d="M66.1,62.5c0.6,0,1.1-0.1,1.6-0.1c0.4-0.1,0.8-0.2,1.1-0.3c0.3-0.1,0.6-0.3,0.9-0.6c0.3-0.2,0.5-0.5,0.8-0.9
			l0.9-1.1L69,43h5l0.9,11.9l1-1.7c1-1.7,1.9-3.3,2.5-4.9s1.2-3.4,1.6-5.2h4.7c-0.3,1-0.6,1.9-0.9,2.8s-0.7,1.8-1.2,2.7
			c-0.5,1-1,2-1.7,3.2c-0.7,1.2-1.5,2.6-2.5,4.2l-2.4,3.9c-0.7,1.2-1.4,2.1-2.1,2.9c-0.7,0.8-1.4,1.4-2.1,1.9
			c-0.7,0.5-1.5,0.8-2.3,1.1c-0.8,0.2-1.7,0.3-2.7,0.3L66.1,62.5z"/>
		<path class="st1" d="M93.5,43h4.9l-3.4,16.1H90L93.5,43z M94.8,36.7h4.9l-0.9,4.4h-4.9L94.8,36.7z"/>
		<path class="st1" d="M104.3,59.4c-1.3,0-2.5-0.2-3.7-0.7c-1.2-0.4-2.1-1.1-2.8-1.9l2.4-3c0.8,0.7,1.6,1.2,2.4,1.6
			c0.8,0.4,1.6,0.6,2.4,0.6c0.7,0,1.1-0.1,1.5-0.4c0.3-0.3,0.5-0.6,0.5-1.1c0-0.3-0.2-0.6-0.5-0.9c-0.3-0.2-0.9-0.5-1.8-0.7
			c-0.8-0.3-1.6-0.5-2.2-0.8c-0.6-0.3-1.1-0.5-1.5-0.8c-0.4-0.3-0.7-0.6-0.9-1c-0.2-0.4-0.3-0.8-0.3-1.2c0-0.9,0.2-1.7,0.6-2.5
			c0.4-0.8,0.9-1.4,1.6-2c0.7-0.6,1.5-1,2.4-1.3c0.9-0.3,1.9-0.5,2.9-0.5c1.1,0,2.2,0.2,3.1,0.5c0.9,0.3,1.8,0.9,2.6,1.8l-2.5,2.9
			c-0.8-0.6-1.4-1.1-2-1.4c-0.6-0.3-1.2-0.4-1.8-0.4c-0.5,0-1,0.1-1.4,0.4c-0.4,0.3-0.6,0.7-0.6,1.2c0,0.3,0.2,0.6,0.5,0.8
			c0.3,0.2,0.9,0.4,1.7,0.7c1.8,0.5,3,1.1,3.8,1.7c0.8,0.6,1.2,1.4,1.2,2.4c0,0.9-0.2,1.7-0.6,2.5s-0.9,1.4-1.5,1.9
			c-0.7,0.5-1.5,1-2.4,1.3C106.4,59.2,105.4,59.4,104.3,59.4z"/>
		<path class="st1" d="M43.9,93.5c-1.2,0-2-0.3-2.6-0.8c-0.6-0.5-0.9-1.3-0.9-2.2c0-0.2,0-0.4,0-0.6c0-0.2,0.1-0.4,0.1-0.7l3.9-18.3
			h4.9l-3.5,16.6c0,0.1,0,0.2,0,0.3c0,0.1,0,0.2,0,0.3c0,0.8,0.4,1.2,1.2,1.2c0.2,0,0.5,0,0.8-0.1c0.3-0.1,0.6-0.2,0.8-0.3l-0.2,3.7
			c-0.7,0.3-1.4,0.5-2.2,0.7S44.6,93.5,43.9,93.5z"/>
		<path class="st1" d="M57,93.5c-1,0-2-0.2-2.8-0.5c-0.8-0.3-1.5-0.8-2.1-1.4c-0.6-0.6-1-1.3-1.3-2.1c-0.3-0.8-0.5-1.8-0.5-2.8
			c0-1.3,0.3-2.6,0.8-3.8s1.3-2.3,2.2-3.2c0.9-0.9,2-1.6,3.3-2.1c1.3-0.5,2.6-0.8,4.1-0.8c1.9,0,3.3,0.4,4.4,1.2
			c1,0.8,1.6,1.9,1.6,3.4c0,1.8-0.8,3.1-2.4,4c-1.6,0.9-4,1.3-7.2,1.3c-0.3,0-0.5,0-0.8,0s-0.6,0-0.8,0c0,1.1,0.2,1.9,0.6,2.4
			c0.4,0.6,1,0.8,2,0.8c0.7,0,1.4-0.2,2-0.5s1.1-0.8,1.5-1.4l3.9,1.2c-0.4,0.6-0.9,1.2-1.6,1.7c-0.6,0.5-1.3,1-2,1.3
			c-0.7,0.4-1.5,0.7-2.3,0.9S57.8,93.5,57,93.5z M59.8,80.4c-0.9,0-1.7,0.3-2.4,0.9c-0.7,0.6-1.2,1.4-1.5,2.4H57
			c1.8,0,3-0.2,3.8-0.5c0.7-0.3,1.1-0.8,1.1-1.4c0-0.5-0.2-0.8-0.6-1.1C60.9,80.5,60.4,80.4,59.8,80.4z"/>
		<path class="st1" d="M71.8,93.5c-1,0-1.9-0.2-2.6-0.7c-0.7-0.5-1-1.2-1-2.3c0-0.4,0-0.8,0.1-1.3l1.8-8.4h-1.9l0.8-3.7h1.9L72,72
			h4.9l-1.1,5.1h3.1l-0.8,3.7H75l-1.4,6.7c0,0.1,0,0.2,0,0.3c0,0.1,0,0.2,0,0.2c0,0.3,0.1,0.6,0.3,0.7C74,89,74.3,89,74.6,89
			c0.3,0,0.7-0.1,1.1-0.2c0.4-0.1,0.8-0.3,1.1-0.4v3.9c-0.7,0.3-1.5,0.6-2.4,0.8C73.5,93.4,72.6,93.5,71.8,93.5z"/>
		<path class="st1" d="M83.8,93.5c-1,0-1.9-0.2-2.6-0.7c-0.7-0.5-1-1.2-1-2.3c0-0.4,0-0.8,0.1-1.3l1.8-8.4h-1.9l0.8-3.7h1.9L84,72
			h4.9l-1.1,5.1h3.1l-0.8,3.7H87l-1.4,6.7c0,0.1,0,0.2,0,0.3c0,0.1,0,0.2,0,0.2c0,0.3,0.1,0.6,0.3,0.7C86,89,86.2,89,86.6,89
			c0.3,0,0.7-0.1,1.1-0.2c0.4-0.1,0.8-0.3,1.1-0.4v3.9c-0.7,0.3-1.5,0.6-2.4,0.8C85.5,93.4,84.6,93.5,83.8,93.5z"/>
		<path class="st1" d="M91.1,93.2l1.1-5.1h4.9L96,93.2H91.1z M92.9,84.6l2.8-13.3h4.9l-2.8,13.3H92.9z"/>
	</g>
</g>
</svg>
