<?xml version="1.0" encoding="UTF-8" standalone="no"?>
<svg width="40px" height="47px" viewBox="0 0 40 47" version="1.1" xmlns="http://www.w3.org/2000/svg" xmlns:xlink="http://www.w3.org/1999/xlink">
    <!-- Generator: Sketch 41.2 (35397) - http://www.bohemiancoding.com/sketch -->
    <title>Empty Cart</title>
    <desc>Created with Sketch.</desc>
    <defs></defs>
    <g id="Page-1" stroke="none" stroke-width="1" fill="none" fill-rule="evenodd">
        <g id="Home-Mini-Empty-Dropdown" transform="translate(-1216.000000, -270.000000)" fill="#686D6D">
            <g id="Empty-Cart" transform="translate(1101.000000, 122.000000)">
                <g transform="translate(115.000000, 148.000000)" id="pages-1">
                    <g>
                        <g id="Group">
                            <g>
                                <g>
                                    <polygon id="Shape" points="38.4823848 31.6976744 38.4823848 29.5116279 39.0243902 29.5116279 39.0243902 31.6976744 38.4823848 31.6976744"></polygon>
                                    <polygon id="Shape" points="38.4823848 28.4186047 38.4823848 26.2325581 39.0243902 26.2325581 39.0243902 28.4186047 38.4823848 28.4186047"></polygon>
                                    <polygon id="Shape" points="38.4823848 25.1395349 38.4823848 22.9534884 39.0243902 22.9534884 39.0243902 25.1395349 38.4823848 25.1395349"></polygon>
                                    <polygon id="Shape" points="38.4823848 21.8604651 38.4823848 19.6744186 39.0243902 19.6744186 39.0243902 21.8604651 38.4823848 21.8604651"></polygon>
                                    <polygon id="Shape" points="38.4823848 18.5813953 38.4823848 16.3953488 39.0243902 16.3953488 39.0243902 18.5813953 38.4823848 18.5813953"></polygon>
                                    <polygon id="Shape" points="38.4823848 15.3023256 38.4823848 13.1162791 39.0243902 13.1162791 39.0243902 15.3023256 38.4823848 15.3023256"></polygon>
                                    <polygon id="Shape" points="38.4823848 12.0232558 38.4823848 9.8372093 39.0243902 9.8372093 39.0243902 12.0232558 38.4823848 12.0232558"></polygon>
                                    <polygon id="Shape" points="38.4823848 8.74418605 38.4823848 6.55813953 39.0243902 6.55813953 39.0243902 8.74418605 38.4823848 8.74418605"></polygon>
                                    <rect id="Rectangle-path" x="36.8563686" y="4.91860465" width="2.16802168" height="0.546511628"></rect>
                                    <polygon id="Shape" points="34.1463415 4.91860465 35.7723577 4.91860465 35.7723577 5.46511628 33.604336 5.46511628 33.604336 5.19186047 33.604336 3.27906977 34.1463415 3.27906977 34.1463415 4.91860465"></polygon>
                                    <rect id="Rectangle-path" x="33.604336" y="0" width="0.54200542" height="2.18604651"></rect>
                                    <polygon id="Shape" points="14.0921409 5.03979489 14.0921409 3.27906977 14.6341463 3.27906977 14.6341463 5.44778816 14.6385668 5.46566525 12.5349447 5.99451778 12.4038217 5.46423987 14.0921409 5.03979489"></polygon>
                                    <rect id="Rectangle-path" x="17.3441734" y="0" width="2.16802168" height="0.546511628"></rect>
                                    <polygon id="Shape" points="14.3631436 0 14.0921409 0 14.0921409 2.18604651 14.6341463 2.18604651 14.6341463 0.546511628 16.2601626 0.546511628 16.2601626 0 14.3631436 0"></polygon>
                                    <rect id="Rectangle-path" x="20.596206" y="0" width="2.16802168" height="0.546511628"></rect>
                                    <rect id="Rectangle-path" x="23.8482385" y="0" width="2.16802168" height="0.546511628"></rect>
                                    <rect id="Rectangle-path" x="27.100271" y="0" width="2.16802168" height="0.546511628"></rect>
                                    <rect id="Rectangle-path" x="30.3523035" y="0" width="2.16802168" height="0.546511628"></rect>
                                    <rect id="Rectangle-path" transform="translate(20.103001, 44.633528) rotate(-28.000000) translate(-20.103001, -44.633528) " x="19.0189903" y="44.1335284" width="2.16802168" height="0.546511628"></rect>
                                    <polygon id="Shape" transform="translate(16.743554, 45.248943) rotate(-28.000000) translate(-16.743554, -45.248943) " points="16.2015484 45.7954551 17.8275647 45.7954551 17.8275647 46.3419667 15.9305457 46.3419667 15.659543 46.3419667 15.659543 44.1559202 16.2015484 44.1559202 16.2015484 45.7954551"></polygon>
                                    <rect id="Rectangle-path" transform="translate(22.974375, 43.094098) rotate(-28.000000) translate(-22.974375, -43.094098) " x="21.8903645" y="42.5940982" width="2.16802168" height="0.546511628"></rect>
                                    <rect id="Rectangle-path" transform="translate(25.845750, 41.554668) rotate(-28.000000) translate(-25.845750, -41.554668) " x="24.7617389" y="41.0546684" width="2.16802168" height="0.546511628"></rect>
                                    <rect id="Rectangle-path" transform="translate(28.717124, 40.015238) rotate(-28.000000) translate(-28.717124, -40.015238) " x="27.6331131" y="39.5152382" width="2.16802168" height="0.546511628"></rect>
                                    <rect id="Rectangle-path" transform="translate(31.588498, 38.475808) rotate(-28.000000) translate(-31.588498, -38.475808) " x="30.5044873" y="37.9758083" width="2.16802168" height="0.546511628"></rect>
                                    <rect id="Rectangle-path" transform="translate(34.459873, 36.936378) rotate(-28.000000) translate(-34.459873, -36.936378) " x="33.3758617" y="36.4363781" width="2.16802168" height="0.546511628"></rect>
                                    <polygon id="Shape" transform="translate(36.843174, 34.472933) rotate(-28.000000) translate(-36.843174, -34.472933) " points="37.3851794 35.019445 35.7591631 35.019445 35.7591631 35.5659567 37.6561821 35.5659567 37.9271848 35.5659567 37.9271848 33.3799102 37.3851794 33.3799102 37.3851794 35.019445"></polygon>
                                    <polygon id="Shape" transform="translate(36.236473, 31.085271) rotate(-28.000000) translate(-36.236473, -31.085271) " points="35.7364733 32.1782939 35.7364733 29.9922474 36.2784788 29.9922474 36.2784788 32.1782939 35.7364733 32.1782939"></polygon>
                                    <polygon id="Shape" transform="translate(34.709736, 28.190024) rotate(-28.000000) translate(-34.709736, -28.190024) " points="34.2097364 29.283047 34.2097364 27.0970005 34.7517418 27.0970005 34.7517418 29.283047 34.2097364 29.283047"></polygon>
                                    <polygon id="Shape" transform="translate(33.183000, 25.294777) rotate(-28.000000) translate(-33.183000, -25.294777) " points="32.6829998 26.3878003 32.6829998 24.2017538 33.2250052 24.2017538 33.2250052 26.3878003 32.6829998 26.3878003"></polygon>
                                    <polygon id="Shape" transform="translate(31.656263, 22.399530) rotate(-28.000000) translate(-31.656263, -22.399530) " points="31.1562628 23.4925537 31.1562628 21.3065072 31.6982682 21.3065072 31.6982682 23.4925537 31.1562628 23.4925537"></polygon>
                                    <polygon id="Shape" transform="translate(30.129526, 19.504283) rotate(-28.000000) translate(-30.129526, -19.504283) " points="29.6295261 20.5973067 29.6295261 18.4112602 30.1715315 18.4112602 30.1715315 20.5973067 29.6295261 20.5973067"></polygon>
                                    <polygon id="Shape" transform="translate(28.602789, 16.609037) rotate(-28.000000) translate(-28.602789, -16.609037) " points="28.1027892 17.7020601 28.1027892 15.5160136 28.6447946 15.5160136 28.6447946 17.7020601 28.1027892 17.7020601"></polygon>
                                    <polygon id="Shape" transform="translate(27.076052, 13.713790) rotate(-28.000000) translate(-27.076052, -13.713790) " points="26.5760525 14.8068131 26.5760525 12.6207666 27.1180579 12.6207666 27.1180579 14.8068131 26.5760525 14.8068131"></polygon>
                                    <polygon id="Shape" transform="translate(25.549316, 10.818543) rotate(-28.000000) translate(-25.549316, -10.818543) " points="25.0493156 11.9115666 25.0493156 9.72552005 25.591321 9.72552005 25.591321 11.9115666 25.0493156 11.9115666"></polygon>
                                    <rect id="Rectangle-path" transform="translate(23.590616, 9.339728) rotate(-28.000000) translate(-23.590616, -9.339728) " x="22.5066048" y="8.83972753" width="2.16802168" height="0.546511628"></rect>
                                    <polygon id="Shape" transform="translate(20.231168, 9.955143) rotate(-28.000000) translate(-20.231168, -9.955143) " points="19.689163 10.5016542 21.3151792 10.5016542 21.3151792 11.0481658 19.1471576 11.0481658 19.1471576 10.77491 19.1471576 8.86211934 19.689163 8.86211934 19.689163 10.5016542"></polygon>
                                    <rect id="Rectangle-path" transform="translate(18.188781, 7.337195) rotate(-28.000000) translate(-18.188781, -7.337195) " x="17.6887806" y="6.24417155" width="0.54200542" height="2.18604651"></rect>
                                    <polygon id="Shape" transform="translate(14.701166, 42.630996) rotate(-28.000000) translate(-14.701166, -42.630996) " points="14.201166 43.7240189 14.201166 41.5379724 14.7431714 41.5379724 14.7431714 43.7240189 14.201166 43.7240189"></polygon>
                                    <polygon id="Shape" transform="translate(13.174429, 39.735749) rotate(-28.000000) translate(-13.174429, -39.735749) " points="12.6744294 40.8287722 12.6744294 38.6427257 13.2164348 38.6427257 13.2164348 40.8287722 12.6744294 40.8287722"></polygon>
                                    <polygon id="Shape" transform="translate(11.647692, 36.840502) rotate(-28.000000) translate(-11.647692, -36.840502) " points="11.1476924 37.9335253 11.1476924 35.7474788 11.6896978 35.7474788 11.6896978 37.9335253 11.1476924 37.9335253"></polygon>
                                    <polygon id="Shape" transform="translate(10.120956, 33.945255) rotate(-28.000000) translate(-10.120956, -33.945255) " points="9.62095573 35.0382786 9.62095573 32.8522321 10.1629611 32.8522321 10.1629611 35.0382786 9.62095573 35.0382786"></polygon>
                                    <polygon id="Shape" transform="translate(8.594219, 31.050009) rotate(-28.000000) translate(-8.594219, -31.050009) " points="8.09421882 32.143032 8.09421882 29.9569855 8.63622424 29.9569855 8.63622424 32.143032 8.09421882 32.143032"></polygon>
                                    <polygon id="Shape" transform="translate(7.067482, 28.154762) rotate(-28.000000) translate(-7.067482, -28.154762) " points="6.56748213 29.2477851 6.56748213 27.0617386 7.10948755 27.0617386 7.10948755 29.2477851 6.56748213 29.2477851"></polygon>
                                    <polygon id="Shape" transform="translate(5.540745, 25.259515) rotate(-28.000000) translate(-5.540745, -25.259515) " points="5.04074545 26.3525384 5.04074545 24.1664919 5.58275088 24.1664919 5.58275088 26.3525384 5.04074545 26.3525384"></polygon>
                                    <polygon id="Shape" transform="translate(4.014008, 22.364268) rotate(-28.000000) translate(-4.014008, -22.364268) " points="3.51400849 23.4572915 3.51400849 21.271245 4.05601391 21.271245 4.05601391 23.4572915 3.51400849 23.4572915"></polygon>
                                    <polygon id="Shape" transform="translate(2.487272, 19.469022) rotate(-28.000000) translate(-2.487272, -19.469022) " points="1.98727183 20.5620448 1.98727183 18.3759983 2.52927725 18.3759983 2.52927725 20.5620448 1.98727183 20.5620448"></polygon>
                                    <rect id="Rectangle-path" transform="translate(4.072265, 14.233437) rotate(-28.000000) translate(-4.072265, -14.233437) " x="2.98825389" y="13.7334373" width="2.16802168" height="0.546511628"></rect>
                                    <polygon id="Shape" transform="translate(1.476186, 16.296476) rotate(-28.000000) translate(-1.476186, -16.296476) " points="0.663177899 15.2034525 0.392175189 15.2034525 0.392175189 17.389499 0.934180609 17.389499 0.934180609 15.7499641 2.56019687 15.7499641 2.56019687 15.2034525 0.663177899 15.2034525"></polygon>
                                    <polygon id="Shape" points="7.30087106 11.9357618 5.75289745 12.7656769 6.0073536 13.248218 7.91610439 12.2248794 7.93009051 12.2213633 7.40559859 10.1002517 6.87969306 10.2324648 7.30087106 11.9357618"></polygon>
                                    <rect id="Rectangle-path" transform="translate(9.815013, 11.154577) rotate(-28.000000) translate(-9.815013, -11.154577) " x="8.73100252" y="10.6545772" width="2.16802168" height="0.546511628"></rect>
                                    <rect id="Rectangle-path" transform="translate(12.686388, 9.615147) rotate(-28.000000) translate(-12.686388, -9.615147) " x="11.6023767" y="9.11514738" width="2.16802168" height="0.546511628"></rect>
                                    <rect id="Rectangle-path" transform="translate(15.557762, 8.075717) rotate(-28.000000) translate(-15.557762, -8.075717) " x="14.4737512" y="7.57571721" width="2.16802168" height="0.546511628"></rect>
                                    <polygon id="Shape" transform="translate(37.586739, 30.675237) rotate(-14.000000) translate(-37.586739, -30.675237) " points="37.0867392 31.7682599 37.0867392 29.5822134 37.6287446 29.5822134 37.6287446 31.7682599 37.0867392 31.7682599"></polygon>
                                    <polygon id="Shape" transform="translate(36.800001, 27.493569) rotate(-14.000000) translate(-36.800001, -27.493569) " points="36.3000014 28.5865926 36.3000014 26.4005461 36.8420068 26.4005461 36.8420068 28.5865926 36.3000014 28.5865926"></polygon>
                                    <polygon id="Shape" transform="translate(36.013264, 24.311902) rotate(-14.000000) translate(-36.013264, -24.311902) " points="35.5132635 25.4049251 35.5132635 23.2188786 36.0552689 23.2188786 36.0552689 25.4049251 35.5132635 25.4049251"></polygon>
                                    <polygon id="Shape" transform="translate(35.226526, 21.130235) rotate(-14.000000) translate(-35.226526, -21.130235) " points="34.7265257 22.2232578 34.7265257 20.0372113 35.2685311 20.0372113 35.2685311 22.2232578 34.7265257 22.2232578"></polygon>
                                    <polygon id="Shape" transform="translate(34.439788, 17.948567) rotate(-14.000000) translate(-34.439788, -17.948567) " points="33.9397878 19.0415904 33.9397878 16.8555439 34.4817932 16.8555439 34.4817932 19.0415904 33.9397878 19.0415904"></polygon>
                                    <polygon id="Shape" transform="translate(33.653050, 14.766900) rotate(-14.000000) translate(-33.653050, -14.766900) " points="33.1530499 15.859923 33.1530499 13.6738764 33.6950553 13.6738764 33.6950553 15.859923 33.1530499 15.859923"></polygon>
                                    <polygon id="Shape" transform="translate(32.866312, 11.585232) rotate(-14.000000) translate(-32.866312, -11.585232) " points="32.3663121 12.6782556 32.3663121 10.4922091 32.9083175 10.4922091 32.9083175 12.6782556 32.3663121 12.6782556"></polygon>
                                    <polygon id="Shape" transform="translate(32.079574, 8.403565) rotate(-14.000000) translate(-32.079574, -8.403565) " points="31.5795742 9.49658817 31.5795742 7.31054165 32.1215796 7.31054165 32.1215796 9.49658817 31.5795742 9.49658817"></polygon>
                                    <rect id="Rectangle-path" transform="translate(30.533290, 6.491069) rotate(-14.000000) translate(-30.533290, -6.491069) " x="29.4492794" y="5.99106864" width="2.16802168" height="0.546511628"></rect>
                                    <polygon id="Shape" transform="translate(27.126350, 6.268922) rotate(-14.000000) translate(-27.126350, -6.268922) " points="26.5843442 6.81543332 28.2103605 6.81543332 28.2103605 7.36194495 26.0423388 7.36194495 26.0423388 7.08868913 26.0423388 5.17589843 26.5843442 5.17589843 26.5843442 6.81543332"></polygon>
                                    <rect id="Rectangle-path" transform="translate(25.772949, 3.230148) rotate(-14.000000) translate(-25.772949, -3.230148) " x="25.2729486" y="2.1371251" width="0.54200542" height="2.18604651"></rect>
                                    <rect id="Rectangle-path" transform="translate(10.420584, 6.478240) rotate(-14.000000) translate(-10.420584, -6.478240) " x="9.33657304" y="5.97824024" width="2.16802168" height="0.546511628"></rect>
                                    <polygon id="Shape" transform="translate(7.407012, 7.846927) rotate(-14.000000) translate(-7.407012, -7.846927) " points="6.5940041 6.75390377 6.32300139 6.75390377 6.32300139 8.93995028 6.86500681 8.93995028 6.86500681 7.3004154 8.49102307 7.3004154 8.49102307 6.75390377 6.5940041 6.75390377"></polygon>
                                    <rect id="Rectangle-path" transform="translate(16.731450, 4.891683) rotate(-14.000000) translate(-16.731450, -4.891683) " x="15.6474396" y="4.39168273" width="2.16802168" height="0.546511628"></rect>
                                    <rect id="Rectangle-path" transform="translate(19.886884, 4.098404) rotate(-14.000000) translate(-19.886884, -4.098404) " x="18.8028728" y="3.59840391" width="2.16802168" height="0.546511628"></rect>
                                    <rect id="Rectangle-path" transform="translate(23.042317, 3.305125) rotate(-14.000000) translate(-23.042317, -3.305125) " x="21.9583061" y="2.80512521" width="2.16802168" height="0.546511628"></rect>
                                </g>
                            </g>
                        </g>
                    </g>
                </g>
            </g>
        </g>
    </g>
</svg>