<?xml version="1.0" encoding="utf-8"?>
<!-- Generator: Adobe Illustrator 21.1.0, SVG Export Plug-In . SVG Version: 6.00 Build 0)  -->
<svg version="1.1" id="phone" xmlns="http://www.w3.org/2000/svg" xmlns:xlink="http://www.w3.org/1999/xlink" x="0px" y="0px"
	 viewBox="0 0 24 24" style="enable-background:new 0 0 24 24;" xml:space="preserve">
<style type="text/css">
	.st0{fill:#010101;}
</style>
<title>footer-phone</title>
<metadata><?xpacket begin="﻿" id="W5M0MpCehiHzreSzNTczkc9d"?>
<x:xmpmeta xmlns:x="adobe:ns:meta/" x:xmptk="Adobe XMP Core 5.6-c137 79.159768, 2016/08/11-13:24:42        ">
   <rdf:RDF xmlns:rdf="http://www.w3.org/1999/02/22-rdf-syntax-ns#">
      <rdf:Description rdf:about=""
            xmlns:dc="http://purl.org/dc/elements/1.1/">
         <dc:title>
            <rdf:Alt>
               <rdf:li xml:lang="x-default">footer-phone</rdf:li>
            </rdf:Alt>
         </dc:title>
      </rdf:Description>
   </rdf:RDF>
</x:xmpmeta>
                                                                                                    
                                                                                                    
                                                                                                    
                                                                                                    
                                                                                                    
                                                                                                    
                                                                                                    
                                                                                                    
                                                                                                    
                                                                                                    
                                                                                                    
                                                                                                    
                                                                                                    
                                                                                                    
                                                                                                    
                                                                                                    
                                                                                                    
                                                                                                    
                                                                                                    
                                                                                                    
                           
<?xpacket end="w"?></metadata>
<g id="_Group_">
	<g id="_Path_">
		<path class="st0" d="M22.3,24C10,23.8,0.2,14,0,1.8C0,0.8,0.8,0,1.8,0h4.5C7.2,0,8,0.8,8,1.8c0.1,1.6,0.4,3.1,0.9,4.6
			C9.1,7,9,7.7,8.5,8.1l-2.4,2.5C7.6,13.5,10,16,13,17.4l2.8-2c0.4-0.4,1.1-0.6,1.7-0.4c1.6,0.5,3.2,0.8,4.9,0.9c0,0,0,0,0,0
			c0.9,0,1.7,0.8,1.7,1.8v4.5C24,23.2,23.2,24,22.3,24z M1.8,1C1.4,1,1,1.3,1,1.8C1.2,13.5,10.6,22.8,22.3,23c0.4,0,0.7-0.3,0.7-0.8
			v-4.5c0-0.4-0.3-0.8-0.8-0.8c-1.8-0.1-3.5-0.4-5.2-1c-0.3-0.1-0.6,0-0.8,0.2l-3.1,2.2c-0.1,0.1-0.3,0.1-0.5,0
			c-3.4-1.6-6.1-4.4-7.7-7.7C5,10.5,5,10.3,5.1,10.2l2.7-2.7C8,7.2,8.1,6.9,8,6.7C7.4,5.1,7.1,3.4,7,1.8C7,1.3,6.7,1,6.3,1H1.8z"/>
	</g>
</g>
</svg>
