<?xml version="1.0" encoding="utf-8"?>
<!-- Generator: Adobe Illustrator 21.1.0, SVG Export Plug-In . SVG Version: 6.00 Build 0)  -->
<svg version="1.1" id="email" xmlns="http://www.w3.org/2000/svg" xmlns:xlink="http://www.w3.org/1999/xlink" x="0px" y="0px"
	 viewBox="0 0 30 20" style="enable-background:new 0 0 30 20;" xml:space="preserve">
<style type="text/css">
	.st0{fill:#010101;}
</style>
<title>footer-icons</title>
<metadata><?xpacket begin="﻿" id="W5M0MpCehiHzreSzNTczkc9d"?>
<x:xmpmeta xmlns:x="adobe:ns:meta/" x:xmptk="Adobe XMP Core 5.6-c137 79.159768, 2016/08/11-13:24:42        ">
   <rdf:RDF xmlns:rdf="http://www.w3.org/1999/02/22-rdf-syntax-ns#">
      <rdf:Description rdf:about=""
            xmlns:dc="http://purl.org/dc/elements/1.1/">
         <dc:title>
            <rdf:Alt>
               <rdf:li xml:lang="x-default">footer-icons</rdf:li>
            </rdf:Alt>
         </dc:title>
      </rdf:Description>
   </rdf:RDF>
</x:xmpmeta>
                                                                                                    
                                                                                                    
                                                                                                    
                                                                                                    
                                                                                                    
                                                                                                    
                                                                                                    
                                                                                                    
                                                                                                    
                                                                                                    
                                                                                                    
                                                                                                    
                                                                                                    
                                                                                                    
                                                                                                    
                                                                                                    
                                                                                                    
                                                                                                    
                                                                                                    
                                                                                                    
                           
<?xpacket end="w"?></metadata>
<g>
	<path class="st0" d="M27.5,20h-25C1.1,20,0,18.9,0,17.5v-15C0,1.1,1.1,0,2.5,0h25C28.9,0,30,1.1,30,2.5v15C30,18.9,28.9,20,27.5,20
		z M2.5,1C1.7,1,1,1.7,1,2.5v15C1,18.3,1.7,19,2.5,19h25c0.8,0,1.5-0.7,1.5-1.5v-15C29,1.7,28.3,1,27.5,1H2.5z"/>
</g>
<g>
	<path class="st0" d="M14.7,11c-0.7,0-1.4-0.2-2-0.6L3.2,3.9C3,3.8,2.9,3.4,3.1,3.2C3.2,3,3.5,2.9,3.8,3.1l9.5,6.5
		c0.9,0.6,2.1,0.6,3,0l10-6.5c0.2-0.1,0.5-0.1,0.7,0.1c0.2,0.2,0.1,0.5-0.1,0.7l-10,6.5C16.1,10.8,15.4,11,14.7,11z"/>
</g>
<g>
	<path class="st0" d="M3.5,17c-0.1,0-0.3-0.1-0.4-0.2c-0.2-0.2-0.2-0.5,0.1-0.7l7-6c0.2-0.2,0.5-0.2,0.7,0.1
		c0.2,0.2,0.2,0.5-0.1,0.7l-7,6C3.7,17,3.6,17,3.5,17z"/>
</g>
<g>
	<path class="st0" d="M26.5,17c-0.1,0-0.2,0-0.3-0.1l-7-6c-0.2-0.2-0.2-0.5-0.1-0.7c0.2-0.2,0.5-0.2,0.7-0.1l7,6
		c0.2,0.2,0.2,0.5,0.1,0.7C26.8,16.9,26.6,17,26.5,17z"/>
</g>
</svg>
