<?xml version="1.0" encoding="utf-8"?>
<!-- Generator: Adobe Illustrator 21.1.0, SVG Export Plug-In . SVG Version: 6.00 Build 0)  -->
<svg version="1.1" id="Layer_1" xmlns="http://www.w3.org/2000/svg" xmlns:xlink="http://www.w3.org/1999/xlink" x="0px" y="0px"
	 viewBox="0 0 29 28" style="enable-background:new 0 0 29 28;" xml:space="preserve">
<style type="text/css">
	.st0{fill:#010101;}
</style>
<title>Asset 1</title>
<metadata><?xpacket begin="﻿" id="W5M0MpCehiHzreSzNTczkc9d"?>
<x:xmpmeta xmlns:x="adobe:ns:meta/" x:xmptk="Adobe XMP Core 5.6-c137 79.159768, 2016/08/11-13:24:42        ">
   <rdf:RDF xmlns:rdf="http://www.w3.org/1999/02/22-rdf-syntax-ns#">
      <rdf:Description rdf:about=""
            xmlns:dc="http://purl.org/dc/elements/1.1/">
         <dc:title>
            <rdf:Alt>
               <rdf:li xml:lang="x-default">Asset 1</rdf:li>
            </rdf:Alt>
         </dc:title>
      </rdf:Description>
   </rdf:RDF>
</x:xmpmeta>
                                                                                                    
                                                                                                    
                                                                                                    
                                                                                                    
                                                                                                    
                                                                                                    
                                                                                                    
                                                                                                    
                                                                                                    
                                                                                                    
                                                                                                    
                                                                                                    
                                                                                                    
                                                                                                    
                                                                                                    
                                                                                                    
                                                                                                    
                                                                                                    
                                                                                                    
                                                                                                    
                           
<?xpacket end="w"?></metadata>
<g id="Layer_2">
	<g id="chat">
		<g>
			<path class="st0" d="M2.5,28c-0.1,0-0.2,0-0.3-0.1C2,27.8,2,27.6,2,27.3l2.5-7.5c-2.7-1.9-4.4-5-4.5-8.3c0,0,0-0.1,0-0.2
				c0-1.8,0.6-3.6,1.6-5.1C4.1,2.4,9,0,14.5,0C22.5,0,29,5.2,29,11.5C29,17.8,22.5,23,14.5,23c0,0,0,0,0,0c-1.7,0-3.4-0.2-5-0.7
				l-6.6,5.6C2.7,28,2.6,28,2.5,28z M1,11.5c0.1,3.1,1.7,6,4.4,7.7c0.2,0.1,0.3,0.4,0.2,0.6l-2,6.2L9,21.3c0.1-0.1,0.3-0.1,0.5-0.1
				c1.6,0.5,3.3,0.7,5,0.8C21.9,22,28,17.3,28,11.5C28,5.7,21.9,1,14.5,1C9.4,1,4.7,3.2,2.4,6.8C1.5,8.2,1,9.8,1,11.4"/>
		</g>
		<g>
			<path class="st0" d="M8,14c-1.1,0-2-0.9-2-2s0.9-2,2-2s2,0.9,2,2S9.1,14,8,14z M8,11c-0.6,0-1,0.4-1,1s0.4,1,1,1s1-0.4,1-1
				S8.6,11,8,11z"/>
		</g>
		<g>
			<path class="st0" d="M14,14c-1.1,0-2-0.9-2-2s0.9-2,2-2c1.1,0,2,0.9,2,2S15.1,14,14,14z M14,11c-0.6,0-1,0.4-1,1s0.4,1,1,1
				s1-0.4,1-1S14.6,11,14,11z"/>
		</g>
		<g>
			<path class="st0" d="M20,14c-1.1,0-2-0.9-2-2s0.9-2,2-2s2,0.9,2,2S21.1,14,20,14z M20,11c-0.6,0-1,0.4-1,1s0.4,1,1,1s1-0.4,1-1
				S20.6,11,20,11z"/>
		</g>
	</g>
</g>
</svg>
