<?xml version="1.0" encoding="utf-8"?>
<!-- Generator: Adobe Illustrator 16.0.4, SVG Export Plug-In . SVG Version: 6.00 Build 0)  -->
<!DOCTYPE svg PUBLIC "-//W3C//DTD SVG 1.1//EN" "http://www.w3.org/Graphics/SVG/1.1/DTD/svg11.dtd">
<svg version="1.1" id="Layer_1" xmlns="http://www.w3.org/2000/svg" xmlns:xlink="http://www.w3.org/1999/xlink" x="0px" y="0px"
	 width="100px" height="33.085px" viewBox="0 0 100 33.085" enable-background="new 0 0 100 33.085" xml:space="preserve">
<g>
	<g>
		<path fill="#05868E" d="M13.957,22.698c0,0.625,0.222,1.199,0.59,1.646c-0.037-0.044-0.072-0.09-0.106-0.138L7.54,14.578
			c-0.305-0.425-0.485-0.946-0.485-1.509c0-1.429,1.158-2.587,2.586-2.587c0.866,0,1.632,0.426,2.102,1.079l4.801,6.697
			l-2.101,2.932C14.137,21.614,13.957,22.135,13.957,22.698z M23.446,10.482c-0.866,0-1.632,0.426-2.102,1.079l-4.801,6.697
			l2.102,2.932c0.305,0.424,0.485,0.945,0.485,1.508c0,0.625-0.222,1.199-0.591,1.646c0.037-0.044,0.072-0.091,0.106-0.138
			l6.902-9.628c0.306-0.425,0.485-0.946,0.485-1.509C26.032,11.64,24.874,10.482,23.446,10.482z"/>
		<path fill="#71CC98" d="M16.543,0C7.406,0,0,7.406,0,16.543s7.406,16.542,16.543,16.542c9.137,0,16.543-7.405,16.543-16.542
			S25.68,0,16.543,0z M25.547,14.578l-6.902,9.628c-0.002,0.004-0.004,0.006-0.006,0.01c0.102-0.141,0.189-0.293,0.262-0.453
			c-0.406,0.897-1.309,1.521-2.357,1.521c-1.116,0-2.066-0.705-2.429-1.695c0.083,0.225,0.195,0.436,0.334,0.627
			c-0.002-0.004-0.005-0.006-0.007-0.01L7.54,14.578c-0.305-0.425-0.485-0.946-0.485-1.509c0-1.429,1.158-2.587,2.586-2.587
			c0.866,0,1.632,0.426,2.102,1.079l4.801,6.697l4.801-6.697c0.47-0.653,1.236-1.079,2.102-1.079c1.428,0,2.586,1.158,2.586,2.587
			C26.032,13.632,25.853,14.153,25.547,14.578z"/>
		<path fill="#115E67" d="M19.13,22.698c0,1.429-1.158,2.586-2.586,2.586s-2.586-1.157-2.586-2.586c0-0.562,0.18-1.084,0.485-1.508
			l2.101-2.932l2.102,2.932C18.95,21.614,19.13,22.135,19.13,22.698z"/>
	</g>
	<g>
		<path fill="#404040" d="M83.156,28.057v0.424c0,0.316-0.261,0.576-0.577,0.576h-5.812c-0.34,0-0.623-0.258-0.623-0.604v-9.902
			c0-0.334,0.275-0.607,0.61-0.607h0.446c0.335,0,0.606,0.273,0.606,0.607v8.929h4.771C82.896,27.48,83.156,27.739,83.156,28.057z
			 M68.219,12.363h-4.696c0,0-0.696,1.977-0.747,2.118c-0.14,0.395-0.358,0.594-0.697,0.594h-0.54c-0.288,0-0.503-0.191-0.503-0.491
			c0-0.126,0.025-0.208,0.087-0.371c-0.03,0.085,3.235-8.822,3.504-9.541c0.171-0.457,0.38-0.71,0.927-0.71h0.639
			c0.667,0,0.82,0.392,0.961,0.803c0.106,0.291,3.416,9.292,3.506,9.533c0.029,0.08,0.055,0.184,0.055,0.29
			c0,0.233-0.148,0.487-0.518,0.487H69.7c-0.455,0-0.607-0.283-0.728-0.593C68.967,14.463,68.219,12.363,68.219,12.363z
			 M65.875,5.689l-1.863,5.283h3.727L65.875,5.689z M51.185,4.569c0-0.334-0.273-0.607-0.608-0.607H50.13
			c-0.334,0-0.607,0.273-0.607,0.607v9.898c0,0.333,0.273,0.607,0.607,0.607h0.446c0.335,0,0.608-0.273,0.608-0.607V4.569z
			 M88.33,4.569c0-0.334-0.273-0.607-0.607-0.607h-0.447c-0.334,0-0.607,0.273-0.607,0.607v9.898c0,0.333,0.273,0.607,0.607,0.607
			h0.447c0.334,0,0.607-0.273,0.607-0.607V4.569z M60.635,3.962h-7.156c-0.309,0-0.562,0.253-0.562,0.563v0.291
			c0,0.31,0.254,0.563,0.562,0.563h2.748v9.088c0,0.333,0.273,0.607,0.607,0.607h0.447c0.334,0,0.607-0.273,0.607-0.607V5.379h2.746
			c0.311,0,0.564-0.254,0.564-0.563V4.525C61.199,4.215,60.945,3.962,60.635,3.962z M41.036,14.256
			c0.167,0.543,0.533,0.818,1.088,0.818h0.552c0.518,0,0.903-0.286,1.058-0.791c0.092-0.32,3.208-9.261,3.314-9.56
			c0.036-0.102,0.058-0.202,0.058-0.29c0-0.272-0.198-0.472-0.52-0.472h-0.41c-0.491,0-0.608,0.231-0.746,0.612l-3.015,8.804
			l-3.007-8.777c-0.101-0.272-0.178-0.639-0.734-0.639h-0.427c-0.362,0-0.522,0.238-0.522,0.469c0,0.122,0.029,0.211,0.071,0.335
			C37.888,5.038,40.97,14.037,41.036,14.256z M84.062,14.274c-0.075-0.801-0.723-9.017-0.771-9.601
			c-0.039-0.468-0.229-0.712-0.672-0.712h-0.898c-0.26,0-0.627,0.055-0.815,0.536c-0.173,0.425-2.591,6.496-2.591,6.496
			s-2.423-6.073-2.592-6.496c-0.188-0.48-0.556-0.536-0.816-0.536h-0.938c-0.316,0-0.601,0.211-0.629,0.594
			c-0.017,0.22-0.699,8.917-0.775,9.718c-0.004,0.054-0.01,0.13-0.01,0.184c0,0.378,0.205,0.616,0.629,0.616h0.494
			c0.475,0,0.588-0.254,0.606-0.602c0.027-0.49,0.485-8.202,0.485-8.202s2.451,6.271,2.558,6.54s0.258,0.544,0.693,0.544h0.597
			c0.32,0,0.531-0.159,0.684-0.544c0.152-0.384,2.559-6.54,2.559-6.54s0.48,8.181,0.482,8.211c0.032,0.444,0.218,0.592,0.609,0.592
			h0.473c0.436,0,0.648-0.228,0.648-0.625C84.072,14.392,84.068,14.333,84.062,14.274z M93.512,23.42
			c0,3.57-1.861,5.637-5.953,5.637h-2.356c-0.385,0-0.634-0.273-0.634-0.635v-9.861c0-0.333,0.251-0.617,0.626-0.617h2.38
			C91.846,17.944,93.512,20.166,93.512,23.42z M91.807,23.403c-0.019-2.758-1.354-4.044-4.201-4.044H86.23v8.276h1.359
			C91.327,27.635,91.807,25.374,91.807,23.403z M58.471,17.768c-3.463,0-5.023,2.618-5.023,5.718c0,3.633,1.832,5.717,4.977,5.717
			c3.076,0,4.945-2.339,4.945-5.719C63.369,20.011,61.43,17.768,58.471,17.768z M58.439,27.702c-2.182,0-3.271-1.584-3.271-4.232
			c0-3.656,2.05-4.201,3.271-4.201c2.91,0,3.225,2.938,3.225,4.201C61.664,27.397,59.197,27.702,58.439,27.702z M51.781,17.944
			h-0.353c-0.616,0-0.726,0.473-0.766,0.631c-0.139,0.539-2.171,8.433-2.171,8.433s-2.211-7.579-2.43-8.333
			c-0.089-0.324-0.232-0.73-0.794-0.73h-0.358c-0.558,0-0.705,0.406-0.795,0.73c-0.239,0.82-2.429,8.333-2.429,8.333
			s-2.031-7.883-2.172-8.433c-0.053-0.204-0.161-0.631-0.777-0.631h-0.337c-0.44,0-0.614,0.244-0.614,0.559
			c0,0.09,0.015,0.178,0.03,0.248c0.152,0.566,2.431,8.891,2.575,9.418c0.066,0.242,0.234,0.889,0.917,0.889h0.678
			c0.447,0,0.776-0.127,0.932-0.744c0.157-0.545,2.17-7.51,2.17-7.51s2.011,6.994,2.17,7.51c0.156,0.617,0.485,0.744,0.932,0.744
			h0.678c0.683,0,0.853-0.646,0.917-0.889c0.118-0.408,2.479-9.078,2.538-9.291c0.054-0.195,0.065-0.273,0.065-0.381
			C52.389,18.211,52.238,17.944,51.781,17.944z M99.393,3.962h-0.447c-0.334,0-0.607,0.273-0.607,0.607v7.251l-5.287-7.383
			c-0.153-0.214-0.312-0.476-0.74-0.476h-0.866c-0.345,0-0.607,0.273-0.607,0.607v9.898c0,0.333,0.273,0.607,0.607,0.607h0.446
			c0.335,0,0.608-0.273,0.608-0.607V6.52l5.95,8.306c0.088,0.118,0.232,0.249,0.496,0.249h0.447c0.334,0,0.607-0.273,0.607-0.607
			V4.569C100,4.235,99.727,3.962,99.393,3.962z M73.119,29.203c-0.861,0-1.369-0.669-1.738-1.188l-1.903-2.695h-2.376v3.131
			c0,0.334-0.273,0.607-0.607,0.607h-0.448c-0.334,0-0.606-0.273-0.606-0.607v-9.896c0-0.335,0.272-0.609,0.606-0.609h3.44
			c2.576,0,4.234,1.385,4.234,3.646c0,2.422-1.668,3.211-2.49,3.475c0,0,0.992,1.451,1.287,1.868
			c0.492,0.696,0.829,0.839,1.002,0.931c0.16,0.084,0.553,0.245,0.553,0.633C74.072,28.815,73.818,29.203,73.119,29.203z
			 M69.502,23.901c1.59,0,2.498-0.912,2.498-2.305c0-1.48-1.119-2.236-2.514-2.236h-2.385v4.541H69.502z"/>
		<path fill="#404040" d="M94.305,19.076h0.083c0.119,0,0.196-0.042,0.196-0.155c0-0.107-0.084-0.156-0.19-0.156
			c-0.019,0-0.065,0-0.089,0.007V19.076z M94.305,19.651h-0.262V18.56c0.09-0.017,0.232-0.036,0.345-0.036
			c0.269,0,0.47,0.127,0.47,0.396c0,0.148-0.084,0.27-0.195,0.323l0.29,0.407H94.65l-0.238-0.347h-0.107V19.651z M95.315,19.118
			c0-0.521-0.363-0.929-0.887-0.929c-0.517,0-0.88,0.407-0.88,0.929c0,0.51,0.363,0.923,0.88,0.923
			C94.952,20.041,95.315,19.627,95.315,19.118 M93.316,19.118c0-0.641,0.47-1.138,1.112-1.138c0.649,0,1.119,0.497,1.119,1.138
			c0,0.635-0.47,1.133-1.119,1.133C93.786,20.25,93.316,19.752,93.316,19.118"/>
	</g>
</g>
</svg>
