<svg xmlns="http://www.w3.org/2000/svg" width="18" height="18" viewBox="0 0 18 18">
    <path fill="#000" fill-rule="evenodd" d="M14.906 16.2H3.094c-.635 0-1.105-.627-.865-1.204C3.34 12.328 5.955 10.8 8.999 10.8c3.046 0 5.66 1.528 6.773 4.196.24.577-.23 1.204-.866 1.204M5.325 5.4c0-1.985 1.65-3.6 3.675-3.6 2.027 0 3.675 1.615 3.675 3.6S11.027 9 9 9C6.974 9 5.325 7.385 5.325 5.4M17.96 15.872c-.668-3.023-2.757-5.254-5.507-6.266 1.457-1.15 2.307-3.008 1.995-5.043C14.086 2.203 12.08.313 9.66.038 6.321-.342 3.488 2.204 3.488 5.4c0 1.701.804 3.217 2.06 4.206C2.796 10.618.707 12.849.04 15.872-.203 16.972.7 18 1.849 18H16.15c1.149 0 2.053-1.029 1.81-2.128"/>
</svg>
