<svg id="Layer_1" data-name="Layer 1" width = "25px" height = "25px" xmlns="http://www.w3.org/2000/svg" viewBox="0 0 25 25"><defs><style>.cls-1,.cls-2,.cls-4,.cls-5{fill:none;}.cls-2,.cls-4,.cls-5{stroke:#000;}.cls-3{fill:#fff;}.cls-4,.cls-5{stroke-linejoin:round;}.cls-4{stroke-width:0.5px;}</style></defs><g id="Group_24594" data-name="Group 24594"><g id="Rectangle_1230" data-name="Rectangle 1230"><rect class="cls-1" x="4.5" y="3" width="15" height="20" rx="2"/><rect class="cls-2" x="5" y="3.5" width="14" height="19" rx="1.5"/></g><g id="Rectangle_1231" data-name="Rectangle 1231"><rect class="cls-3" x="7.5" y="1" width="9" height="5" rx="1"/><rect class="cls-2" x="8" y="1.5" width="8" height="4" rx="0.5"/></g><g id="Group_24593" data-name="Group 24593"><g id="Group_24590" data-name="Group 24590"><g id="Ellipse_427" data-name="Ellipse 427"><circle cx="8" cy="10.5" r="0.5"/></g><g id="Rectangle_1232" data-name="Rectangle 1232"><path class="cls-3" d="M11,10h5a.5.5,0,0,1,.5.5h0a.5.5,0,0,1-.5.5H11a.5.5,0,0,1-.5-.5h0A.5.5,0,0,1,11,10Z"/><path class="cls-4" d="M11,10.25h5a.25.25,0,0,1,.25.25h0a.25.25,0,0,1-.25.25H11a.25.25,0,0,1-.25-.25h0A.25.25,0,0,1,11,10.25Z"/></g></g><g id="Group_24591" data-name="Group 24591"><g id="Ellipse_427-2" data-name="Ellipse 427-2"><circle cx="8" cy="13.5" r="0.5"/></g><g id="Rectangle_1232-2" data-name="Rectangle 1232-2"><path class="cls-3" d="M11,13h5a.5.5,0,0,1,.5.5h0a.5.5,0,0,1-.5.5H11a.5.5,0,0,1-.5-.5h0A.5.5,0,0,1,11,13Z"/><polygon class="cls-5" points="11 13.5 16 13.5 16 13.5 11 13.5"/></g></g><g id="Group_24592" data-name="Group 24592"><g id="Ellipse_427-3" data-name="Ellipse 427-3"><circle cx="8" cy="17.5" r="0.5"/></g><g id="Rectangle_1232-3" data-name="Rectangle 1232-3"><path class="cls-3" d="M11,17h5a.5.5,0,0,1,.5.5h0a.5.5,0,0,1-.5.5H11a.5.5,0,0,1-.5-.5h0A.5.5,0,0,1,11,17Z"/><polygon class="cls-5" points="11 17.5 16 17.5 16 17.5 11 17.5"/></g></g></g></g></svg>