<svg id="Layer_1" data-name="Layer 1" xmlns="http://www.w3.org/2000/svg" width = "43px" height = "43px" viewBox="0 0 50 50"><g id="Group_24610" data-name="Group 24610"><g id="Group_24609" data-name="Group 24609"><path id="Path_20087" data-name="Path 20087" class="cls-1" d="M41.16,42.19c-.37,3.58-4.09,4.41-11.06,3.73a66.36,66.36,0,0,0-12,0c-4.41.3-7.88.55-9.73-1.17-1.06-1-1.58-2.67-1.58-5.15A17.3,17.3,0,0,1,18.11,23.4a10.37,10.37,0,0,0,12,0,17.47,17.47,0,0,1,6.08,3.85l1-1a19,19,0,0,0-5.82-3.87,10.44,10.44,0,1,0-14.77-.27l.29.28A18.68,18.68,0,0,0,5.44,39.59c0,2.89.7,4.86,2,6.17,2.62,2.63,8.05,1.69,10.78,1.54,5.24-.27,5.17-.52,11.76,0,6,.49,11.26.79,12.52-4.8ZM15.07,14.87a9,9,0,1,1,9.05,9A9,9,0,0,1,15.07,14.87Z"/></g></g><g id="Group_24612" data-name="Group 24612"><g id="Group_24611" data-name="Group 24611"><path id="Path_20088" data-name="Path 20088" class="cls-2" d="M39.86,27.65a6.7,6.7,0,1,0,6.7,6.7,6.7,6.7,0,0,0-6.7-6.7Zm0,12a5.3,5.3,0,1,1,5.29-5.3h0A5.31,5.31,0,0,1,39.86,39.65Z"/></g></g><g id="Group_24614" data-name="Group 24614"><g id="Group_24613" data-name="Group 24613"><path id="Path_20089" data-name="Path 20089" class="cls-2" d="M40.56,33.65v-3h-1.4v3h-3v1.4h3V38.1h1.4V35.05h3V33.66Z"/></g></g></svg>