<svg xmlns="http://www.w3.org/2000/svg" xmlns:xlink="http://www.w3.org/1999/xlink" width="52" height="42" viewBox="0 0 52 42">
  <defs>
    <clipPath id="clip-path">
      <rect id="Rectangle_1271" data-name="Rectangle 1271" width="32" height="17" transform="translate(0 102.254)" fill="#fff"/>
    </clipPath>
    <clipPath id="clip-Custom_Size_7">
      <rect width="52" height="42"/>
    </clipPath>
  </defs>
  <g id="Custom_Size_7" data-name="Custom Size – 7" clip-path="url(#clip-Custom_Size_7)">
    <g id="Group_24775" data-name="Group 24775" transform="translate(-556 -163)">
      <rect id="Rectangle_1265" data-name="Rectangle 1265" width="48" height="32" rx="3" transform="translate(558 166)"/>
      <g id="Group_24765" data-name="Group 24765" transform="translate(354 -257)">
        <g id="Mask_Group_6" data-name="Mask Group 6" transform="translate(212 327.746)" clip-path="url(#clip-path)">
          <g id="mail" transform="translate(6.25 104.254)">
            <g id="Group_24762" data-name="Group 24762" transform="translate(0 0)">
              <path id="Path_20121" data-name="Path 20121" d="M18.5,146.249H1a1,1,0,0,0-1,1v11a1,1,0,0,0,1,1H18.5a1,1,0,0,0,1-1v-11A1,1,0,0,0,18.5,146.249Zm-.375.75-7.8,5.85a1.046,1.046,0,0,1-1.151,0L1.375,147Zm-4.166,6.236,4.25,5.25.014.014H1.277l.014-.014,4.25-5.25a.375.375,0,0,0-.583-.472l-4.208,5.2V147.468l7.975,5.981a1.79,1.79,0,0,0,2.05,0l7.975-5.981v10.494l-4.208-5.2a.375.375,0,0,0-.583.472Z" transform="translate(0 -146.249)" fill="#fff" stroke="#fff" stroke-width="0.5"/>
            </g>
          </g>
        </g>
        <g id="Group_24763" data-name="Group 24763" transform="translate(-145.26 124.74)">
          <g id="Ellipse_428" data-name="Ellipse 428" transform="translate(377.26 315.26)" fill="#fff" stroke="#fff" stroke-width="0.6">
            <circle cx="5" cy="5" r="5" stroke="none"/>
            <circle cx="5" cy="5" r="4.7" fill="none"/>
          </g>
          <path id="icn_tick" d="M7886,1079.85l1.65,1.651,3.143-3.022" transform="translate(-7505.909 -759.953)" fill="none" stroke="#000" stroke-width="1"/>
        </g>
      </g>
    </g>
  </g>
</svg>
