<svg xmlns="http://www.w3.org/2000/svg" xmlns:xlink="http://www.w3.org/1999/xlink" width="52" height="42" viewBox="0 0 52 42">
  <defs>
    <clipPath id="clip-path">
      <rect id="Rectangle_1272" data-name="Rectangle 1272" width="32" height="17" transform="translate(0 102.254)" fill="none"/>
    </clipPath>
    <clipPath id="clip-path-2">
      <rect id="Rectangle_1270" data-name="Rectangle 1270" width="32" height="17" transform="translate(0 102.254)" fill="#fff"/>
    </clipPath>
    <clipPath id="clip-Custom_Size_9">
      <rect width="52" height="42"/>
    </clipPath>
  </defs>
  <g id="Custom_Size_9" data-name="Custom Size – 9" clip-path="url(#clip-Custom_Size_9)">
    <g id="Mask_Group_7" data-name="Mask Group 7" transform="translate(10 -92.254)" clip-path="url(#clip-path)">
      <g id="mail" transform="translate(6.25 104.254)">
        <g id="Group_24772" data-name="Group 24772" transform="translate(0 0)">
          <path id="Path_20122" data-name="Path 20122" d="M18.5,146.249H1a1,1,0,0,0-1,1v11a1,1,0,0,0,1,1H18.5a1,1,0,0,0,1-1v-11A1,1,0,0,0,18.5,146.249Zm-.375.75-7.8,5.85a1.046,1.046,0,0,1-1.151,0L1.375,147Zm-4.166,6.236,4.25,5.25.014.014H1.277l.014-.014,4.25-5.25a.375.375,0,0,0-.583-.472l-4.208,5.2V147.468l7.975,5.981a1.79,1.79,0,0,0,2.05,0l7.975-5.981v10.494l-4.208-5.2a.375.375,0,0,0-.583.472Z" transform="translate(0 -146.249)" stroke="#000" stroke-width="0.5"/>
        </g>
      </g>
    </g>
    <g id="Group_24773" data-name="Group 24773" transform="translate(115 -163)">
      <g id="Group_24759" data-name="Group 24759" transform="translate(-295 -108)">
        <rect id="Rectangle_1241" data-name="Rectangle 1241" width="48" height="32" rx="3" transform="translate(182 274)" fill="#000"/>
      </g>
      <g id="Mask_Group_5" data-name="Mask Group 5" transform="translate(-105 70.746)" clip-path="url(#clip-path-2)">
        <g id="mail-2" data-name="mail" transform="translate(6.25 104.254)">
          <g id="Group_24760" data-name="Group 24760" transform="translate(0 0)">
            <path id="Path_20120" data-name="Path 20120" d="M18.5,146.249H1a1,1,0,0,0-1,1v11a1,1,0,0,0,1,1H18.5a1,1,0,0,0,1-1v-11A1,1,0,0,0,18.5,146.249Zm-.375.75-7.8,5.85a1.046,1.046,0,0,1-1.151,0L1.375,147Zm-4.166,6.236,4.25,5.25.014.014H1.277l.014-.014,4.25-5.25a.375.375,0,0,0-.583-.472l-4.208,5.2V147.468l7.975,5.981a1.79,1.79,0,0,0,2.05,0l7.975-5.981v10.494l-4.208-5.2a.375.375,0,0,0-.583.472Z" transform="translate(0 -146.249)" fill="#fff" stroke="#fff" stroke-width="0.5"/>
          </g>
        </g>
      </g>
    </g>
  </g>
</svg>
