<svg xmlns="http://www.w3.org/2000/svg" viewBox="0 0 728 90"><defs><clipPath id="a"><path fill="none" d="M577.29 11.18h148.37v114.65H577.29z"/></clipPath></defs><g data-name="Layer 2"><path d="M0 0h728v90H0z"/><path d="M419.86 90c9.82-34.77 39.92-56.95 76.15-56.95 35.69 0 66 23.85 76.09 56.7" fill="#e52823"/><g clip-path="url(#a)" fill="#fff"><path d="M612.93 56c15.05-4.6 22.66 6.93 22.66 6.93s-4.78-16.1-22.66-6.93M642 56.58v-.54a11.25 11.25 0 0 0-5.94 8.63s2-4.76 6.87-6.2a2.89 2.89 0 0 1-.93-1.89M622.83 63.3v3.43c-.58 0-3.08-.16-4.17-.2v1.86c1.31 0 2.68.18 4 .17v3.15c-1.32 0-2.64-.1-4-.13v2c1.41 0 2.83.15 4.25.13v3.36c-2.8 0-6.12-.22-9.27-.48l.22-14c1.33.16 5.43.6 9 .7M624 63.34V67c1.32.06 2.51.07 2.51.07v10.14a33 33 0 0 0 5.06-.07l-.06-10S633.69 67 634 67v-3.73a89.52 89.52 0 0 1-10 .12M691.56 61.11v4.24c.86.05 1.83.22 2.69.29 0 3.54-.09 6.21-.09 9.75 2.37.28 4.06.56 4.72.68 0-3.54.13-6.33.14-9.86 0 0 2.52.39 2.56.43v-4.36a77.7 77.7 0 0 0-10-1.17M607.65 61.16l-6-1.08v14.68c1.53.3 2.94.55 4.43.72v-4.24l1.62.18c2.6.24 5.22-.74 5.25-5 0-3.77-2.48-4.86-5.26-5.27m-1.1 6.77l-.45-.05v-2.88h.42a1.46 1.46 0 0 1 1.44 1.6c0 1.19-.74 1.42-1.46 1.34M657.65 74.8c.68-1.75 1.35-3.38 2-5.13.1 1.67.17 3.19.28 4.86 1.67-.19 3-.28 4.7-.39-.44-4.46-.81-9.24-1.25-13.69q-2.16.18-4.32.39c-.8 2.1-1.61 4.66-2.42 6.77-.78-2-1.56-4.24-2.33-6.18-1.46.2-4.06.66-4.32.66-.5 4.54-1.07 9.6-1.57 14.14 1.15-.2 3.95-.64 4.8-.76.13-1.69.26-3.51.38-5.2l2 4.85 2.08-.32M688.41 70.13c1.28-.57 2.2-1.81 2.23-4.27.05-3.72-2.57-5.3-5.22-5.5q-3-.24-6-.32c-.07 4.71-.09 9-.15 13.74 1.5 0 3.15.16 4.46.27 0-1.33 0-2.31.06-3.64.85 1.39 1.56 2.53 2.41 3.94 1.85.16 3.75.4 5.59.67-1.15-1.73-2.2-3.2-3.35-4.89m-4.17-3h-.44V64.3h.42a1.4 1.4 0 0 1 1.46 1.49c0 1.17-.75 1.39-1.48 1.34M674.14 59.94c-1.79 0-3.25 0-4.77.09-1.23 4.57-2.68 9.47-3.91 14.06 1.37 0 2.75-.12 4.12-.12.12-.48.27-1 .39-1.53h2.09l1.84-.06c.05.18.22.66.46 1.46h4.1c-1.48-4.85-3-9.5-4.32-13.89m-3.28 9.28c.31-1.17.63-2.41.94-3.57.36 1.17.71 2.34 1.07 3.52a18.86 18.86 0 0 1-2 0M699.94 74.76a.75.75 0 1 1-.74.75.74.74 0 0 1 .74-.75zm0 .12a.64.64 0 1 0 .6.63.61.61 0 0 0-.6-.63zM699.8 76h-.13v-.84h.23a.49.49 0 0 1 .26.06.22.22 0 0 1 .08.18.2.2 0 0 1-.16.2c.07 0 .12.08.14.2a1 1 0 0 0 0 .21h-.14a.77.77 0 0 1-.06-.22.15.15 0 0 0-.18-.14h-.09zm0-.47h.1c.11 0 .2 0 .2-.14s-.05-.15-.2-.15h-.1zM635.59 75.9a12.37 12.37 0 0 0 5.55 1.4c3.13 0 6.41-1.88 6.48-5.39 0-2.5-1.54-3.69-3.76-4.19l-1.18-.27c-.4-.09-1.06-.17-1-.72s.69-.78 1.15-.78a8.49 8.49 0 0 1 3.2.67c.45-1.17.89-2.35 1.34-3.52a10.49 10.49 0 0 0-4.57-1.1c-3.16 0-6.33 1.92-6.4 5.41 0 2.31 1.66 3.57 3.71 4l1.06.2c.48.09 1.17.15 1.15.82s-.83.74-1.35.74a6.26 6.26 0 0 1-3.6-1.19c-.54 1.22-1.18 2.74-1.73 4M646.94 52a3.53 3.53 0 1 0 3.48 3.58 3.54 3.54 0 0 0-3.48-3.58m1.28 1.31a4.22 4.22 0 0 0-3.79 2.21.13.13 0 0 0 0 .06 2.53 2.53 0 0 1 .08-1 2.41 2.41 0 0 1 2.94-1.72 2.31 2.31 0 0 1 .83.45"/></g><path d="M11.64 15.72h9.83a6.05 6.05 0 0 1 2.92.66 4.47 4.47 0 0 1 2.45 4.1 4.46 4.46 0 0 1-.92 2.86 3.86 3.86 0 0 1-2.3 1.42 3.93 3.93 0 0 1 2.55 1.54 4.82 4.82 0 0 1 1 3.06A4.91 4.91 0 0 1 25.78 33a5.43 5.43 0 0 1-4 1.43H11.64zm9 7.5a2.18 2.18 0 0 0 1.59-.57 2 2 0 0 0 .59-1.5 1.94 1.94 0 0 0-.6-1.45 2.13 2.13 0 0 0-1.58-.59h-5v4.11zm.1 7.78a2.49 2.49 0 0 0 1.76-.6 2.26 2.26 0 0 0 0-3.17 2.42 2.42 0 0 0-1.76-.63h-5.13V31zM31.08 33.82a3.7 3.7 0 0 1-1-2.76V15.72h3.55v14.39a1.66 1.66 0 0 0 .37 1.06 1.06 1.06 0 0 0 .9.43 2.09 2.09 0 0 0 .72-.12.91.91 0 0 0 .48-.28l.76 2.69a4.34 4.34 0 0 1-2.94.87 3.92 3.92 0 0 1-2.84-.94zM47.76 32.66a5.59 5.59 0 0 1-1.86 1.55 5 5 0 0 1-2.31.55 5.77 5.77 0 0 1-3.08-.84 5.7 5.7 0 0 1-2.15-2.44 8.79 8.79 0 0 1-.77-3.82 8.69 8.69 0 0 1 .77-3.77 5.91 5.91 0 0 1 2.13-2.48 5.64 5.64 0 0 1 3.1-.87 5.09 5.09 0 0 1 2.29.53 5.33 5.33 0 0 1 1.88 1.54v-1.74h3.58V34.4h-3.58zm0-7.39a3.33 3.33 0 0 0-1.32-1.11 3.9 3.9 0 0 0-1.76-.43 3.15 3.15 0 0 0-2.47 1.08 4.17 4.17 0 0 0-1 2.85 4.2 4.2 0 0 0 1 2.84 3.13 3.13 0 0 0 2.47 1.1 3.92 3.92 0 0 0 1.76-.44 3.33 3.33 0 0 0 1.32-1.11zM54.92 24a6.71 6.71 0 0 1 2.55-2.52 7.43 7.43 0 0 1 3.7-.91 7.06 7.06 0 0 1 3.25.68 5.8 5.8 0 0 1 2.1 1.75l-2.33 2.19a3.22 3.22 0 0 0-2.85-1.46 3.47 3.47 0 0 0-2.65 1.08 4 4 0 0 0-1 2.85 4 4 0 0 0 1 2.87 3.71 3.71 0 0 0 4.27.72 3.35 3.35 0 0 0 1.23-1.08l2.33 2.16a6 6 0 0 1-2.09 1.76 6.89 6.89 0 0 1-3.26.7 7.43 7.43 0 0 1-3.7-.91 6.66 6.66 0 0 1-2.55-2.53 7.8 7.8 0 0 1 0-7.35zM74 29.19l-1.6 1.73v3.48h-3.56V15.72h3.56v11.17l5.12-6h4.37L76.54 27l5.52 7.4H77.6zM91.07 15.72h13.22v3.42h-9.24v4.06h9v3.41h-9v7.79h-4zM107 20.87h3.55v1.85a5.92 5.92 0 0 1 1.91-1.55 5 5 0 0 1 2.4-.63V24a4.15 4.15 0 0 0-1-.11 4.83 4.83 0 0 0-1.9.44 3.22 3.22 0 0 0-1.43 1.1v9H107zM117.32 18.25a2.13 2.13 0 0 1 3-3 2.14 2.14 0 0 1 0 3 2 2 0 0 1-1.51.63 2 2 0 0 1-1.49-.63zm-.26 2.62h3.55V34.4h-3.55zM133.44 32.66a5.53 5.53 0 0 1-1.87 1.55 5 5 0 0 1-2.31.55 5.79 5.79 0 0 1-3.08-.84 5.68 5.68 0 0 1-2.18-2.44 8.79 8.79 0 0 1-.77-3.82 8.69 8.69 0 0 1 .77-3.77 5.78 5.78 0 0 1 2.13-2.48 5.6 5.6 0 0 1 3.09-.87 5.1 5.1 0 0 1 2.3.53 5.33 5.33 0 0 1 1.88 1.54v-6.89h3.6V34.4h-3.58zm0-7.41a3.33 3.33 0 0 0-1.32-1.11 3.79 3.79 0 0 0-1.76-.44 3.1 3.1 0 0 0-2.47 1.1 4.22 4.22 0 0 0-1 2.86 4.2 4.2 0 0 0 1 2.84 3.13 3.13 0 0 0 2.47 1.1 3.92 3.92 0 0 0 1.76-.44 3.33 3.33 0 0 0 1.32-1.11zM149.84 32.66a5.4 5.4 0 0 1-1.84 1.55 5 5 0 0 1-2.31.55 5.79 5.79 0 0 1-3.08-.84 5.68 5.68 0 0 1-2.14-2.44 8.79 8.79 0 0 1-.77-3.82 8.69 8.69 0 0 1 .77-3.77 5.78 5.78 0 0 1 2.13-2.48 5.58 5.58 0 0 1 3.09-.87 5.14 5.14 0 0 1 2.3.53 5.21 5.21 0 0 1 1.87 1.54v-1.74h3.59V34.4h-3.59zm0-7.39a3.29 3.29 0 0 0-1.31-1.11 3.91 3.91 0 0 0-1.77-.43 3.13 3.13 0 0 0-2.46 1.08 4.17 4.17 0 0 0-1 2.85 4.2 4.2 0 0 0 1 2.84 3.11 3.11 0 0 0 2.46 1.1 3.93 3.93 0 0 0 1.77-.44 3.29 3.29 0 0 0 1.31-1.11zM158.38 35.29a4.32 4.32 0 0 0 1.8 1.26 6.21 6.21 0 0 0 2.26.42 3.79 3.79 0 0 0 2.69-.89 3.36 3.36 0 0 0 1-2.58v-1.4a6.51 6.51 0 0 1-2 1.46 6.28 6.28 0 0 1-2.76.58 4.37 4.37 0 0 1-3.32-1.14 4.27 4.27 0 0 1-1.05-3.11v-9h3.55v7.62a2.49 2.49 0 0 0 .65 1.92 2.67 2.67 0 0 0 1.8.57 3.58 3.58 0 0 0 1.77-.45 4.17 4.17 0 0 0 1.31-1.09v-8.59h3.56v12.46a6.11 6.11 0 0 1-1.95 4.83 7.6 7.6 0 0 1-5.25 1.72 8.26 8.26 0 0 1-5.65-2zM189.63 32.66a5.4 5.4 0 0 1-1.86 1.55 5 5 0 0 1-2.31.55 5.77 5.77 0 0 1-3.08-.84 5.62 5.62 0 0 1-2.14-2.44 8.65 8.65 0 0 1-.77-3.82 8.55 8.55 0 0 1 .77-3.77 5.78 5.78 0 0 1 2.13-2.48 5.58 5.58 0 0 1 3.09-.87 5.14 5.14 0 0 1 2.3.53 5.3 5.3 0 0 1 1.87 1.54v-6.89h3.59V34.4h-3.59zm0-7.41a3.36 3.36 0 0 0-1.31-1.11 3.8 3.8 0 0 0-1.77-.44 3.07 3.07 0 0 0-2.46 1.1 4.17 4.17 0 0 0-1 2.86 4.15 4.15 0 0 0 1 2.84 3.1 3.1 0 0 0 2.46 1.1 3.93 3.93 0 0 0 1.77-.44 3.36 3.36 0 0 0 1.31-1.11zM196.77 24.06a6.81 6.81 0 0 1 6.11-3.52 6.66 6.66 0 0 1 3.52.93 6.4 6.4 0 0 1 2.4 2.64 8.47 8.47 0 0 1 .85 3.87v.79H199.6a3.49 3.49 0 0 0 1.2 2.23 4 4 0 0 0 2.69.9 5.8 5.8 0 0 0 2-.36 4.6 4.6 0 0 0 1.63-1l1.57 2.29a6.68 6.68 0 0 1-2.46 1.39 9.78 9.78 0 0 1-3.11.49 7.86 7.86 0 0 1-3.7-.88 6.56 6.56 0 0 1-2.59-2.5 7.37 7.37 0 0 1-.93-3.75 7.17 7.17 0 0 1 .87-3.52zm3.75.21a3.73 3.73 0 0 0-1 2.09h6.67a3.42 3.42 0 0 0-.91-2.07 3.56 3.56 0 0 0-4.78 0zM221.52 32.66a5.4 5.4 0 0 1-1.86 1.55 5 5 0 0 1-2.31.55 5.79 5.79 0 0 1-3.08-.84 5.68 5.68 0 0 1-2.14-2.44 8.79 8.79 0 0 1-.77-3.82 8.69 8.69 0 0 1 .77-3.77 5.78 5.78 0 0 1 2.13-2.48 5.58 5.58 0 0 1 3.09-.87 5.14 5.14 0 0 1 2.3.53 5.21 5.21 0 0 1 1.87 1.54v-1.74h3.59V34.4h-3.59zm0-7.39a3.22 3.22 0 0 0-1.31-1.11 3.91 3.91 0 0 0-1.77-.43 3.13 3.13 0 0 0-2.44 1.08 4.17 4.17 0 0 0-.95 2.85 4.2 4.2 0 0 0 .95 2.84 3.11 3.11 0 0 0 2.46 1.1 3.93 3.93 0 0 0 1.77-.44 3.22 3.22 0 0 0 1.31-1.11zM229.6 33.82a3.7 3.7 0 0 1-1-2.76V15.72h3.55v14.39a1.61 1.61 0 0 0 .34 1.06 1.06 1.06 0 0 0 .89.43 2.15 2.15 0 0 0 .73-.12 1 1 0 0 0 .48-.28l.75 2.69a4.3 4.3 0 0 1-2.94.87 3.91 3.91 0 0 1-2.8-.94zM237.34 30.17a7.6 7.6 0 0 0 2.13 1.29A6.73 6.73 0 0 0 242 32a3.18 3.18 0 0 0 1.69-.37 1.15 1.15 0 0 0 .58-1 1.09 1.09 0 0 0-.67-1 9.09 9.09 0 0 0-2.05-.62 21.44 21.44 0 0 1-2.69-.67 4.35 4.35 0 0 1-1.86-1.21 3.3 3.3 0 0 1-.79-2.34 3.77 3.77 0 0 1 .66-2.13 4.48 4.48 0 0 1 1.92-1.55 7.15 7.15 0 0 1 3-.57 8.52 8.52 0 0 1 5.46 1.84l-1.43 2.44a5.08 5.08 0 0 0-1.72-1.12 5.88 5.88 0 0 0-2.29-.45 3 3 0 0 0-1.55.34 1 1 0 0 0-.57.92.94.94 0 0 0 .63.88 9.44 9.44 0 0 0 1.94.58 18 18 0 0 1 2.72.7 4.6 4.6 0 0 1 1.9 1.29 3.53 3.53 0 0 1 .81 2.45 3.91 3.91 0 0 1-.68 2.23 4.56 4.56 0 0 1-2 1.56 8.17 8.17 0 0 1-3.15.56 10.27 10.27 0 0 1-3.37-.56 7.52 7.52 0 0 1-2.68-1.54zM13.91 66a12.33 12.33 0 0 0 3.88 2.73 11.91 11.91 0 0 0 5 1 6 6 0 0 0 3.59-.93 2.71 2.71 0 0 0 1.28-2.24 2.34 2.34 0 0 0-1.38-2.17A18.44 18.44 0 0 0 22 63a45.86 45.86 0 0 1-5.33-1.51A9 9 0 0 1 13.09 59a6.59 6.59 0 0 1-1.54-4.61 7.51 7.51 0 0 1 1.31-4.29 8.69 8.69 0 0 1 3.71-3.1 13.16 13.16 0 0 1 5.61-1.12 15.47 15.47 0 0 1 10.92 3.95l-3.32 4.36A11.22 11.22 0 0 0 26 51.9a12.45 12.45 0 0 0-4.26-.77 5.13 5.13 0 0 0-3.05.78A2.47 2.47 0 0 0 17.64 54 2 2 0 0 0 19 55.93a24.15 24.15 0 0 0 4.28 1.33 37.79 37.79 0 0 1 5.31 1.54 9.28 9.28 0 0 1 3.66 2.54 6.66 6.66 0 0 1 1.53 4.59 8.21 8.21 0 0 1-2.88 6.53c-1.92 1.65-4.69 2.48-8.33 2.48q-7.44 0-11.89-4.45zM43.94 51.63h-8.19v-5.25h22.34v5.25h-8.15V74.4h-6zM77.07 69.57H64.56l-1.77 4.83h-6.55l10.84-28h7.47l10.8 28h-6.51zM66.15 64.4h9.29l-4.63-12.85zM98.28 64.36h-4.37v10H88v-28h13.1a10.37 10.37 0 0 1 5 1.16 8 8 0 0 1 3.28 3.21 9.56 9.56 0 0 1 1.13 4.66 8.44 8.44 0 0 1-1.83 5.61 7.81 7.81 0 0 1-4.35 2.73l6.3 10.67h-6.85zm4.9-11.78a4.32 4.32 0 0 0-3-1.07h-6.27v7.72h6.26a4.32 4.32 0 0 0 3-1.07 3.87 3.87 0 0 0 0-5.58zM121 51.63h-8.19v-5.25h22.35v5.25H127V74.4h-6zM155.7 55.58V74.4h-6v-28h6.13l13 18.15V46.38h6v28h-5.76zM180.9 53a13.58 13.58 0 0 1 5.22-5.17 16.06 16.06 0 0 1 15 0 13.53 13.53 0 0 1 5.27 5.17 15.71 15.71 0 0 1 0 14.94 13.53 13.53 0 0 1-5.23 5.17 16.06 16.06 0 0 1-15 0 13.58 13.58 0 0 1-5.22-5.17 15.71 15.71 0 0 1 0-14.94zm20.2 2.76a7.9 7.9 0 0 0-3-3.31 8.35 8.35 0 0 0-4.47-1.2 8.26 8.26 0 0 0-4.45 1.2 8 8 0 0 0-3 3.31 11.11 11.11 0 0 0 0 9.43 8 8 0 0 0 3 3.3 8.26 8.26 0 0 0 4.45 1.2 8.35 8.35 0 0 0 4.47-1.2 7.94 7.94 0 0 0 3-3.3 11.11 11.11 0 0 0 0-9.43zM228.15 55.16l-4.88 19.24h-6.34l-8-28h6.68l4.91 20.25 5.34-20.25h4.66l5.29 20.25 4.87-20.25h6.72l-8 28h-6.34z" fill="#fff"/><g><path fill="none" d="M0 0h728v90H0z"/></g></g></svg>