<svg xmlns="http://www.w3.org/2000/svg" width="12" height="16" viewBox="0 0 12 16">
    <path fill="#FFF" fill-rule="evenodd" d="M8.8 12a.8.8 0 0 1-.8.8H5.6a.8.8 0 0 1 0-1.6H8a.8.8 0 0 1 .8.8zm0-2.4a.8.8 0 0 1-.8.8H5.6a.8.8 0 0 1 0-1.6H8a.8.8 0 0 1 .8.8zm0-2.4A.8.8 0 0 1 8 8H5.6a.8.8 0 0 1 0-1.6H8a.8.8 0 0 1 .8.8zM4 12a.8.8 0 1 1-1.6 0A.8.8 0 0 1 4 12zm0-2.4a.8.8 0 1 1-1.6 0 .8.8 0 0 1 1.6 0zm0-2.4a.8.8 0 1 1-1.6 0 .8.8 0 0 1 1.6 0zm5.6 6.4a.8.8 0 0 1-.8.8H2.4a.8.8 0 0 1-.8-.8v-10c0-.22.18-.4.4-.4h.4A1.6 1.6 0 0 0 4 4.8h3.2a1.6 1.6 0 0 0 1.6-1.6h.4c.22 0 .4.18.4.4v10zM4 2.4a.8.8 0 0 1 .8-.8h1.6a.8.8 0 0 1 0 1.6H4.8a.8.8 0 0 1-.8-.8zm5.6-.8h-.8A1.6 1.6 0 0 0 7.2 0H4a1.6 1.6 0 0 0-1.6 1.6h-.8A1.6 1.6 0 0 0 0 3.2v11.2A1.6 1.6 0 0 0 1.6 16h8a1.6 1.6 0 0 0 1.6-1.6V3.2a1.6 1.6 0 0 0-1.6-1.6z"/>
</svg>
