<svg id="Layer_1" data-name="Layer 1" width = "25px" height = "25px" xmlns="http://www.w3.org/2000/svg" viewBox="0 0 25 25"><defs><style>.cls-1{fill:none;stroke:#000;stroke-linecap:round;stroke-linejoin:round;}</style></defs><g id="Group_24597" data-name="Group 24597"><path id="Path_20061" data-name="Path 20061" class="cls-1" d="M19.59,5.13H6.48A1.92,1.92,0,0,1,4.57,6.94v7a1.92,1.92,0,0,1,1.91,1.8H19.59a1.92,1.92,0,0,1,1.92-1.8v-7A1.93,1.93,0,0,1,19.59,5.13Z"/><path id="Path_20062" data-name="Path 20062" class="cls-1" d="M13.56,7.48l.67,1.38a.47.47,0,0,0,.34.24l1.51.22a.57.57,0,0,1,.49.65.59.59,0,0,1-.17.33l-1.1,1.07a.43.43,0,0,0-.12.39l.25,1.51a.58.58,0,0,1-.46.67.59.59,0,0,1-.37-.06l-1.35-.71a.45.45,0,0,0-.42,0l-1.35.71a.58.58,0,0,1-.78-.24.59.59,0,0,1-.06-.37l.26-1.51a.44.44,0,0,0-.13-.39L9.67,10.3a.57.57,0,0,1,0-.81A.62.62,0,0,1,10,9.32L11.5,9.1a.43.43,0,0,0,.34-.24l.68-1.38a.57.57,0,0,1,.76-.27A.61.61,0,0,1,13.56,7.48Z"/><path id="Path_20063" data-name="Path 20063" class="cls-1" d="M10.05,8.18l-.41-.84A.44.44,0,0,0,9,7.13a.47.47,0,0,0-.21.21L8.3,8.41A.36.36,0,0,1,8,8.6l-1.18.17a.44.44,0,0,0-.38.51.43.43,0,0,0,.13.26l.85.83a.36.36,0,0,1,.1.31l-.2,1.18a.44.44,0,0,0,.37.51.38.38,0,0,0,.28,0l1.06-.56a.38.38,0,0,1,.33,0l.26.14"/><line id="Line_97" data-name="Line 97" class="cls-1" x1="15.09" y1="7.14" x2="14.96" y2="7.54"/><line id="Line_98" data-name="Line 98" class="cls-1" x1="16.74" y1="13.27" x2="17.17" y2="13.7"/><line id="Line_99" data-name="Line 99" class="cls-1" x1="8.91" y1="13.7" x2="9.33" y2="13.28"/><path id="Path_20064" data-name="Path 20064" class="cls-1" d="M16,8.18l.42-.84a.44.44,0,0,1,.6-.21.45.45,0,0,1,.2.21l.53,1.07A.36.36,0,0,0,18,8.6l1.19.17a.46.46,0,0,1,.38.51.5.5,0,0,1-.13.26l-.86.83a.36.36,0,0,0-.1.31l.2,1.18a.44.44,0,0,1-.37.51.4.4,0,0,1-.28,0L17,11.77a.36.36,0,0,0-.32,0l-.27.14"/><line id="Line_100" data-name="Line 100" class="cls-1" x1="10.99" y1="7.14" x2="11.12" y2="7.54"/><path id="Path_20065" data-name="Path 20065" class="cls-1" d="M3.47,8.17l-.32,2.21-.34,2.43L2.49,15a1.89,1.89,0,0,1,1.62,2l12.82,1.82a1.92,1.92,0,0,1,2.12-1.52l.09-.56"/></g></svg>