<svg xmlns="http://www.w3.org/2000/svg" width="27.395" height="30.192" viewBox="0 0 27.395 30.192">
  <g id="Group_25023" data-name="Group 25023" transform="translate(-81.5 -754.293)">
    <g id="Group_25022" data-name="Group 25022" transform="translate(82 755)">
      <path id="Path_20109" data-name="Path 20109" d="M202.7,349.43v5.69l-9.964,4.922-10.587-4.922v-5.633" transform="translate(-179.069 -331.058)" fill="none" stroke="#da362c" stroke-linecap="round" stroke-linejoin="round" stroke-width="1"/>
      <path id="Path_20110" data-name="Path 20110" d="M182.145,334.431l10.587,4.306,9.964-4.306" transform="translate(-179.069 -321.573)" fill="none" stroke="#da362c" stroke-linecap="round" stroke-linejoin="round" stroke-width="1"/>
      <line id="Line_108" data-name="Line 108" y2="11.689" transform="translate(13.663 17.296)" fill="none" stroke="#da362c" stroke-linecap="round" stroke-linejoin="round" stroke-width="1"/>
      <path id="Path_20111" data-name="Path 20111" d="M187.108,338.738l-3.076,4.614-10.458-4.921,3.076-4" transform="translate(-173.574 -321.539)" fill="none" stroke="#da362c" stroke-linecap="round" stroke-linejoin="round" stroke-width="1"/>
      <line id="Line_109" data-name="Line 109" x2="4.552" y2="1.503" transform="translate(19.075 11.325)" fill="none" stroke="#da362c" stroke-linecap="round" stroke-linejoin="round" stroke-width="1"/>
      <line id="Line_110" data-name="Line 110" y1="1.503" x2="4.583" transform="translate(3.076 11.325)" fill="none" stroke="#da362c" stroke-linecap="round" stroke-linejoin="round" stroke-width="1"/>
      <path id="Path_20112" data-name="Path 20112" d="M221.129,334.431l2.768,4-9.228,4.614-3.384-4.306" transform="translate(-197.502 -321.542)" fill="none" stroke="#da362c" stroke-linecap="round" stroke-linejoin="round" stroke-width="1"/>
      <line id="Line_111" data-name="Line 111" y1="0.373" x2="0.373" transform="translate(20.973 4.024)" fill="none" stroke="#da362c" stroke-linecap="round" stroke-linejoin="round" stroke-width="1"/>
      <line id="Line_112" data-name="Line 112" y1="0.373" x2="0.373" transform="translate(23.035 2.01)" fill="none" stroke="#da362c" stroke-linecap="round" stroke-linejoin="round" stroke-width="1"/>
      <line id="Line_113" data-name="Line 113" x1="0.373" y1="0.373" transform="translate(23.035 4.024)" fill="none" stroke="#da362c" stroke-linecap="round" stroke-linejoin="round" stroke-width="1"/>
      <line id="Line_114" data-name="Line 114" x1="0.373" y1="0.373" transform="translate(20.973 2.01)" fill="none" stroke="#da362c" stroke-linecap="round" stroke-linejoin="round" stroke-width="1"/>
      <line id="Line_115" data-name="Line 115" x1="0.373" y2="0.373" transform="translate(7.544 0)" fill="none" stroke="#da362c" stroke-linecap="round" stroke-linejoin="round" stroke-width="1"/>
      <line id="Line_116" data-name="Line 116" x1="0.373" y2="0.373" transform="translate(5.511 2.014)" fill="none" stroke="#da362c" stroke-linecap="round" stroke-linejoin="round" stroke-width="1"/>
      <line id="Line_117" data-name="Line 117" x2="0.373" y2="0.373" transform="translate(5.511 0)" fill="none" stroke="#da362c" stroke-linecap="round" stroke-linejoin="round" stroke-width="1"/>
      <line id="Line_118" data-name="Line 118" x2="0.373" y2="0.373" transform="translate(7.544 2.014)" fill="none" stroke="#da362c" stroke-linecap="round" stroke-linejoin="round" stroke-width="1"/>
      <line id="Line_119" data-name="Line 119" x2="0.102" y2="0.102" transform="translate(4.006 8.533)" fill="none" stroke="#da362c" stroke-linecap="round" stroke-linejoin="round" stroke-width="1"/>
      <line id="Line_120" data-name="Line 120" x2="0.102" y2="0.102" transform="translate(2.54 7.053)" fill="none" stroke="#da362c" stroke-linecap="round" stroke-linejoin="round" stroke-width="1"/>
      <line id="Line_121" data-name="Line 121" y1="0.102" x2="0.102" transform="translate(4.006 7.053)" fill="none" stroke="#da362c" stroke-linecap="round" stroke-linejoin="round" stroke-width="1"/>
      <line id="Line_122" data-name="Line 122" y1="0.102" x2="0.102" transform="translate(2.54 8.533)" fill="none" stroke="#da362c" stroke-linecap="round" stroke-linejoin="round" stroke-width="1"/>
      <path id="Path_20113" data-name="Path 20113" d="M200.8,304.884l1.271,2.575a.638.638,0,0,0,.48.349l2.842.413a.638.638,0,0,1,.354,1.089l-2.057,2a.638.638,0,0,0-.183.565l.486,2.83a.638.638,0,0,1-.926.673l-2.542-1.336a.637.637,0,0,0-.594,0l-2.542,1.336a.638.638,0,0,1-.926-.673l.485-2.83a.638.638,0,0,0-.183-.565l-2.056-2a.638.638,0,0,1,.354-1.089l2.842-.413a.638.638,0,0,0,.481-.349l1.271-2.575A.638.638,0,0,1,200.8,304.884Z" transform="translate(-186.87 -302.544)" fill="none" stroke="#da362c" stroke-linecap="round" stroke-linejoin="round" stroke-width="1"/>
    </g>
  </g>
</svg>
