<svg xmlns="http://www.w3.org/2000/svg" width="28.901" height="31.628" viewBox="0 0 28.901 31.628">
  <g id="Group_25207" data-name="Group 25207" transform="translate(-316.5 -1153.5)">
    <g id="Group_25206" data-name="Group 25206" transform="translate(317 1154)">
      <g id="Group_25205" data-name="Group 25205">
        <path id="Path_20147" data-name="Path 20147" d="M173.673,503.179c3.392,0,3.731-2.714,6.785-4.41s5.767,2.035,5.767,2.035" transform="translate(-173.673 -472.551)" fill="none" stroke="#da362c" stroke-linecap="round" stroke-linejoin="round" stroke-width="1"/>
        <path id="Path_20148" data-name="Path 20148" d="M216.008,492.561a5.548,5.548,0,0,1,1.431.275c5.037,1.679,3.053,6.784,10.177,6.784" transform="translate(-199.8 -468.992)" fill="none" stroke="#da362c" stroke-linecap="round" stroke-linejoin="round" stroke-width="1"/>
        <path id="Path_20149" data-name="Path 20149" d="M203.776,495.259a5.932,5.932,0,0,1,.685-.422" transform="translate(-192.251 -470.397)" fill="none" stroke="#da362c" stroke-linecap="round" stroke-linejoin="round" stroke-width="1"/>
        <path id="Path_20150" data-name="Path 20150" d="M216.815,498.613a5.984,5.984,0,0,1,3.327,2.805" transform="translate(-200.298 -472.727)" fill="none" stroke="#da362c" stroke-linecap="round" stroke-linejoin="round" stroke-width="1"/>
        <path id="Path_20151" data-name="Path 20151" d="M193.166,468.866a11.362,11.362,0,0,1,6.784,9.837s-.678-8.481,5.767-12.89" transform="translate(-185.703 -452.485)" fill="none" stroke="#da362c" stroke-linecap="round" stroke-linejoin="round" stroke-width="1"/>
        <path id="Path_20152" data-name="Path 20152" d="M214.076,466.589a3.094,3.094,0,0,1-.944-3.433,5.241,5.241,0,0,1,2.773-2.86,11.579,11.579,0,0,1,5.072-1.087,12.918,12.918,0,0,0-.64,2.843,8.758,8.758,0,0,1-1.129,3.223C218.1,466.989,215.847,468.038,214.076,466.589Z" transform="translate(-197.916 -448.409)" fill="none" stroke="#da362c" stroke-linecap="round" stroke-linejoin="round" stroke-width="1"/>
        <path id="Path_20153" data-name="Path 20153" d="M184.329,467.965a12.638,12.638,0,0,0-1.339.23,12.926,12.926,0,0,1,1.241,2.637,8.754,8.754,0,0,0,1.8,2.9c1.451,1.434,3.879,1.969,5.295.171a3.056,3.056,0,0,0,.48-2.913" transform="translate(-179.423 -453.813)" fill="none" stroke="#da362c" stroke-linecap="round" stroke-linejoin="round" stroke-width="1"/>
        <path id="Path_20154" data-name="Path 20154" d="M191.005,504.38a5.65,5.65,0,0,1,.832-.633,2.057,2.057,0,0,1,1.966-.155" transform="translate(-184.369 -475.689)" fill="none" stroke="#da362c" stroke-linecap="round" stroke-linejoin="round" stroke-width="1"/>
        <line id="Line_152" data-name="Line 152" x1="0.093" y2="0.093" transform="translate(0.943 11.662)" fill="none" stroke="#da362c" stroke-linecap="round" stroke-linejoin="round" stroke-width="1"/>
        <line id="Line_153" data-name="Line 153" x1="0.093" y2="0.093" transform="translate(2.276 10.33)" fill="none" stroke="#da362c" stroke-linecap="round" stroke-linejoin="round" stroke-width="1"/>
        <line id="Line_154" data-name="Line 154" x2="0.093" y2="0.093" transform="translate(2.276 11.662)" fill="none" stroke="#da362c" stroke-linecap="round" stroke-linejoin="round" stroke-width="1"/>
        <line id="Line_155" data-name="Line 155" x2="0.093" y2="0.093" transform="translate(0.943 10.33)" fill="none" stroke="#da362c" stroke-linecap="round" stroke-linejoin="round" stroke-width="1"/>
        <line id="Line_156" data-name="Line 156" x1="0.339" y1="0.339" transform="translate(2.053 22.828)" fill="none" stroke="#da362c" stroke-linecap="round" stroke-linejoin="round" stroke-width="1"/>
        <line id="Line_157" data-name="Line 157" x1="0.339" y1="0.339" transform="translate(0.222 20.997)" fill="none" stroke="#da362c" stroke-linecap="round" stroke-linejoin="round" stroke-width="1"/>
        <line id="Line_158" data-name="Line 158" x1="0.339" y2="0.339" transform="translate(2.053 20.997)" fill="none" stroke="#da362c" stroke-linecap="round" stroke-linejoin="round" stroke-width="1"/>
        <line id="Line_159" data-name="Line 159" x1="0.339" y2="0.339" transform="translate(0.222 22.828)" fill="none" stroke="#da362c" stroke-linecap="round" stroke-linejoin="round" stroke-width="1"/>
        <line id="Line_160" data-name="Line 160" x1="0.093" y2="0.093" transform="translate(20.705 2.797)" fill="none" stroke="#da362c" stroke-linecap="round" stroke-linejoin="round" stroke-width="1"/>
        <line id="Line_161" data-name="Line 161" x1="0.093" y2="0.093" transform="translate(22.037 1.465)" fill="none" stroke="#da362c" stroke-linecap="round" stroke-linejoin="round" stroke-width="1"/>
        <line id="Line_162" data-name="Line 162" x2="0.093" y2="0.093" transform="translate(22.037 2.797)" fill="none" stroke="#da362c" stroke-linecap="round" stroke-linejoin="round" stroke-width="1"/>
        <line id="Line_163" data-name="Line 163" x2="0.093" y2="0.093" transform="translate(20.705 1.465)" fill="none" stroke="#da362c" stroke-linecap="round" stroke-linejoin="round" stroke-width="1"/>
        <line id="Line_164" data-name="Line 164" x1="0.339" y1="0.339" transform="translate(26.044 7.529)" fill="none" stroke="#da362c" stroke-linecap="round" stroke-linejoin="round" stroke-width="1"/>
        <line id="Line_165" data-name="Line 165" x1="0.339" y1="0.339" transform="translate(24.213 5.699)" fill="none" stroke="#da362c" stroke-linecap="round" stroke-linejoin="round" stroke-width="1"/>
        <line id="Line_166" data-name="Line 166" x1="0.339" y2="0.339" transform="translate(26.044 5.699)" fill="none" stroke="#da362c" stroke-linecap="round" stroke-linejoin="round" stroke-width="1"/>
        <line id="Line_167" data-name="Line 167" x1="0.339" y2="0.339" transform="translate(24.213 7.529)" fill="none" stroke="#da362c" stroke-linecap="round" stroke-linejoin="round" stroke-width="1"/>
        <line id="Line_168" data-name="Line 168" x1="0.093" y2="0.093" transform="translate(26.268 14.619)" fill="none" stroke="#da362c" stroke-linecap="round" stroke-linejoin="round" stroke-width="1"/>
        <line id="Line_169" data-name="Line 169" x1="0.093" y2="0.093" transform="translate(27.601 13.286)" fill="none" stroke="#da362c" stroke-linecap="round" stroke-linejoin="round" stroke-width="1"/>
        <line id="Line_170" data-name="Line 170" x2="0.093" y2="0.093" transform="translate(27.601 14.619)" fill="none" stroke="#da362c" stroke-linecap="round" stroke-linejoin="round" stroke-width="1"/>
        <line id="Line_171" data-name="Line 171" x2="0.093" y2="0.093" transform="translate(26.268 13.286)" fill="none" stroke="#da362c" stroke-linecap="round" stroke-linejoin="round" stroke-width="1"/>
        <line id="Line_172" data-name="Line 172" x1="0.093" y2="0.093" transform="translate(22.096 21.573)" fill="none" stroke="#da362c" stroke-linecap="round" stroke-linejoin="round" stroke-width="1"/>
        <line id="Line_173" data-name="Line 173" x1="0.093" y2="0.093" transform="translate(23.428 20.24)" fill="none" stroke="#da362c" stroke-linecap="round" stroke-linejoin="round" stroke-width="1"/>
        <line id="Line_174" data-name="Line 174" x2="0.093" y2="0.093" transform="translate(23.428 21.573)" fill="none" stroke="#da362c" stroke-linecap="round" stroke-linejoin="round" stroke-width="1"/>
        <line id="Line_175" data-name="Line 175" x2="0.093" y2="0.093" transform="translate(22.096 20.24)" fill="none" stroke="#da362c" stroke-linecap="round" stroke-linejoin="round" stroke-width="1"/>
        <path id="Path_20155" data-name="Path 20155" d="M199.567,440.68a7.738,7.738,0,1,0-5.921,5.65" transform="translate(-180.243 -431)" fill="none" stroke="#da362c" stroke-linecap="round" stroke-linejoin="round" stroke-width="1"/>
        <path id="Path_20156" data-name="Path 20156" d="M197.9,439.929l.979,1.984a.492.492,0,0,0,.37.269l2.19.318a.492.492,0,0,1,.273.839l-1.585,1.544a.491.491,0,0,0-.141.435l.374,2.181a.492.492,0,0,1-.714.518l-1.959-1.03a.491.491,0,0,0-.458,0l-1.959,1.03a.492.492,0,0,1-.713-.518l.374-2.181a.493.493,0,0,0-.141-.435l-1.585-1.544a.492.492,0,0,1,.272-.839l2.19-.318a.492.492,0,0,0,.37-.269l.979-1.984A.492.492,0,0,1,197.9,439.929Z" transform="translate(-185.633 -436.341)" fill="none" stroke="#da362c" stroke-linecap="round" stroke-linejoin="round" stroke-width="1"/>
      </g>
    </g>
  </g>
</svg>
