<svg xmlns="http://www.w3.org/2000/svg" width="30.996" height="31.277" viewBox="0 0 30.996 31.277">
  <g id="Group_25202" data-name="Group 25202" transform="translate(-358.5 -992.5)">
    <g id="Group_25201" data-name="Group 25201" transform="translate(359 993)">
      <path id="Path_20141" data-name="Path 20141" d="M439.92,100.665a12.568,12.568,0,0,1,4.678,1.043l.157.086.084.046h0c.532.286,1.093.571,1.678.854a10.759,10.759,0,0,0,4.633,1.257c2,.056,5.493-1.626,8.171-3.1,5.151-2.832,8.028-4.64,6.621-5.793-1.328-1.088-5.3,1.347-8.706,3.073" transform="translate(-436.31 -73.674)" fill="none" stroke="#da362c" stroke-linecap="round" stroke-linejoin="round" stroke-width="1"/>
      <path id="Path_20142" data-name="Path 20142" d="M446.242,95.236a22.519,22.519,0,0,1,6.09,1.608c2.164.74,3.547,1.212,3.908.016.379-1.259-2.209-3.179-4.929-4.276-1.96-.79-3.344-2.348-5.169-2.587a8.828,8.828,0,0,0-3.941.519c-.844.278-1.591.487-2.281.644" transform="translate(-436.31 -70.662)" fill="none" stroke="#da362c" stroke-linecap="round" stroke-linejoin="round" stroke-width="1"/>
      <path id="Path_20143" data-name="Path 20143" d="M488.823,92.258a1.509,1.509,0,0,0-1.126-.342c-1.476,0-3.772,1.565-5.838,2.879" transform="translate(-462.377 -71.889)" fill="none" stroke="#da362c" stroke-linecap="round" stroke-linejoin="round" stroke-width="1"/>
      <path id="Path_20144" data-name="Path 20144" d="M483.271,90.293a2.062,2.062,0,0,0-.626-.029c-1.179.1-2.494,1.322-4.257,2.616" transform="translate(-460.219 -70.856)" fill="none" stroke="#da362c" stroke-linecap="round" stroke-linejoin="round" stroke-width="1"/>
      <path id="Path_20145" data-name="Path 20145" d="M477.7,89.955a1.813,1.813,0,0,0-.6,0c-.881.131-1.24.813-2.563,1.889" transform="translate(-457.829 -70.656)" fill="none" stroke="#da362c" stroke-linecap="round" stroke-linejoin="round" stroke-width="1"/>
      <rect id="Rectangle_1390" data-name="Rectangle 1390" width="3.61" height="8.909" rx="0.768" transform="translate(0 19.398)" fill="none" stroke="#da362c" stroke-linecap="round" stroke-linejoin="round" stroke-width="1"/>
      <path id="Path_20146" data-name="Path 20146" d="M458.824,46.32l1.58,3.2a.794.794,0,0,0,.6.434l3.532.513a.793.793,0,0,1,.439,1.353l-2.556,2.491a.793.793,0,0,0-.228.7l.6,3.517a.793.793,0,0,1-1.151.836L458.483,57.7a.793.793,0,0,0-.738,0l-3.159,1.661a.793.793,0,0,1-1.151-.836l.6-3.517a.792.792,0,0,0-.228-.7l-2.556-2.491a.793.793,0,0,1,.44-1.353l3.531-.513a.794.794,0,0,0,.6-.434l1.579-3.2A.793.793,0,0,1,458.824,46.32Z" transform="translate(-443.206 -43.275)" fill="none" stroke="#da362c" stroke-linecap="round" stroke-linejoin="round" stroke-width="1"/>
      <line id="Line_144" data-name="Line 144" y1="0.319" transform="translate(14.979 0)" fill="none" stroke="#da362c" stroke-linecap="round" stroke-linejoin="round" stroke-width="1"/>
      <line id="Line_145" data-name="Line 145" y1="0.319" transform="translate(14.979 18.08)" fill="none" stroke="#da362c" stroke-linecap="round" stroke-linejoin="round" stroke-width="1"/>
      <line id="Line_146" data-name="Line 146" x1="0.425" transform="translate(23.795 9.393)" fill="none" stroke="#da362c" stroke-linecap="round" stroke-linejoin="round" stroke-width="1"/>
      <line id="Line_147" data-name="Line 147" x1="0.632" y1="0.632" transform="translate(21.898 16.312)" fill="none" stroke="#da362c" stroke-linecap="round" stroke-linejoin="round" stroke-width="1"/>
      <line id="Line_148" data-name="Line 148" x1="0.648" y2="0.648" transform="translate(21.121 2.603)" fill="none" stroke="#da362c" stroke-linecap="round" stroke-linejoin="round" stroke-width="1"/>
      <line id="Line_149" data-name="Line 149" x2="0.425" transform="translate(5.595 9.393)" fill="none" stroke="#da362c" stroke-linecap="round" stroke-linejoin="round" stroke-width="1"/>
      <line id="Line_150" data-name="Line 150" y1="0.632" x2="0.632" transform="translate(7.287 16.312)" fill="none" stroke="#da362c" stroke-linecap="round" stroke-linejoin="round" stroke-width="1"/>
      <line id="Line_151" data-name="Line 151" x2="0.648" y2="0.648" transform="translate(8.046 2.603)" fill="none" stroke="#da362c" stroke-linecap="round" stroke-linejoin="round" stroke-width="1"/>
    </g>
  </g>
</svg>
