<svg xmlns="http://www.w3.org/2000/svg" width="27" height="27" viewBox="0 0 27 27">
  <g id="Group_25200" data-name="Group 25200" transform="translate(-243.5 -953.5)">
    <g id="Group_25199" data-name="Group 25199" transform="translate(244 954)">
      <path id="Path_20132" data-name="Path 20132" d="M242.229,87.5a10.972,10.972,0,0,0,.427-1.676" transform="translate(-218.823 -70.973)" fill="none" stroke="#da362c" stroke-linecap="round" stroke-linejoin="round" stroke-width="1"/>
      <path id="Path_20133" data-name="Path 20133" d="M237.426,97.259a11.034,11.034,0,0,0,.876-1.4" transform="translate(-215.576 -77.76)" fill="none" stroke="#da362c" stroke-linecap="round" stroke-linejoin="round" stroke-width="1"/>
      <path id="Path_20134" data-name="Path 20134" d="M229.848,105.379a11.12,11.12,0,0,0,1.3-1.094" transform="translate(-210.454 -83.453)" fill="none" stroke="#da362c" stroke-linecap="round" stroke-linejoin="round" stroke-width="1"/>
      <path id="Path_20135" data-name="Path 20135" d="M236.359,62.837a11,11,0,0,0-3.683-8.228" transform="translate(-212.366 -49.875)" fill="none" stroke="#da362c" stroke-linecap="round" stroke-linejoin="round" stroke-width="1"/>
      <circle id="Ellipse_553" data-name="Ellipse 553" cx="13" cy="13" r="13" fill="none" stroke="#da362c" stroke-linecap="round" stroke-linejoin="round" stroke-width="1"/>
      <path id="Path_20136" data-name="Path 20136" d="M176.88,69.008a10.974,10.974,0,0,0-.427,1.676" transform="translate(-174.362 -59.608)" fill="none" stroke="#da362c" stroke-linecap="round" stroke-linejoin="round" stroke-width="1"/>
      <path id="Path_20137" data-name="Path 20137" d="M180.747,59.829a11.035,11.035,0,0,0-.876,1.4" transform="translate(-176.672 -53.403)" fill="none" stroke="#da362c" stroke-linecap="round" stroke-linejoin="round" stroke-width="1"/>
      <path id="Path_20138" data-name="Path 20138" d="M187.442,52.339a11.118,11.118,0,0,0-1.3,1.094" transform="translate(-180.912 -48.341)" fill="none" stroke="#da362c" stroke-linecap="round" stroke-linejoin="round" stroke-width="1"/>
      <path id="Path_20139" data-name="Path 20139" d="M175.957,80a11,11,0,0,0,3.231,7.8" transform="translate(-174.027 -67.038)" fill="none" stroke="#da362c" stroke-linecap="round" stroke-linejoin="round" stroke-width="1"/>
      <path id="Path_20140" data-name="Path 20140" d="M195.409,57.767l1.635,3.312a.821.821,0,0,0,.618.449l3.656.531a.821.821,0,0,1,.455,1.4l-2.645,2.578a.821.821,0,0,0-.236.727l.624,3.641a.821.821,0,0,1-1.191.865l-3.27-1.719a.82.82,0,0,0-.764,0l-3.27,1.719a.821.821,0,0,1-1.191-.865l.624-3.641a.821.821,0,0,0-.236-.727l-2.645-2.578a.821.821,0,0,1,.455-1.4l3.656-.531a.821.821,0,0,0,.618-.449l1.635-3.312A.821.821,0,0,1,195.409,57.767Z" transform="translate(-181.711 -51.7)" fill="none" stroke="#da362c" stroke-linecap="round" stroke-linejoin="round" stroke-width="1"/>
    </g>
  </g>
</svg>
