<svg xmlns="http://www.w3.org/2000/svg" width="24.116" height="37.688" viewBox="0 0 24.116 37.688">
  <g id="Group_25027" data-name="Group 25027" transform="translate(-60.25 -880.25)">
    <g id="Group_25026" data-name="Group 25026" transform="translate(61 881)">
      <g id="Group_25025" data-name="Group 25025" transform="translate(0 0)">
        <line id="Line_123" data-name="Line 123" y2="4.172" transform="translate(6.517 6.388)" fill="none" stroke="#da362c" stroke-linecap="round" stroke-linejoin="round" stroke-width="1.5"/>
        <line id="Line_124" data-name="Line 124" y2="6.301" transform="translate(3.323 3.194)" fill="none" stroke="#da362c" stroke-linecap="round" stroke-linejoin="round" stroke-width="1.5"/>
        <line id="Line_125" data-name="Line 125" y2="8.431" transform="translate(9.711 0)" fill="none" stroke="#da362c" stroke-linecap="round" stroke-linejoin="round" stroke-width="1.5"/>
        <line id="Line_126" data-name="Line 126" y2="2.575" transform="translate(12.905 7.452)" fill="none" stroke="#da362c" stroke-linecap="round" stroke-linejoin="round" stroke-width="1.5"/>
        <path id="Path_20114" data-name="Path 20114" d="M448.927,194.124A11.308,11.308,0,1,1,445,202.69V185.912" transform="translate(-445.002 -177.809)" fill="none" stroke="#da362c" stroke-linecap="round" stroke-linejoin="round" stroke-width="1.5"/>
        <path id="Path_20115" data-name="Path 20115" d="M495,188.567v-11.75" transform="translate(-472.382 -172.829)" fill="none" stroke="#da362c" stroke-linecap="round" stroke-linejoin="round" stroke-width="1.5"/>
        <line id="Line_127" data-name="Line 127" y2="3.267" transform="translate(16.099 5.164)" fill="none" stroke="#da362c" stroke-linecap="round" stroke-linejoin="round" stroke-width="1.5"/>
        <line id="Line_128" data-name="Line 128" y2="4.297" transform="translate(19.292 7.883)" fill="none" stroke="#da362c" stroke-linecap="round" stroke-linejoin="round" stroke-width="1.5"/>
        <path id="Path_20116" data-name="Path 20116" d="M463.1,209.683l1.382,2.8a.694.694,0,0,0,.522.38l3.091.449a.694.694,0,0,1,.384,1.184l-2.236,2.18a.693.693,0,0,0-.2.614l.528,3.078a.694.694,0,0,1-1.007.732l-2.764-1.453a.694.694,0,0,0-.646,0l-2.764,1.453a.694.694,0,0,1-1.007-.732l.528-3.078a.7.7,0,0,0-.2-.614l-2.236-2.18a.694.694,0,0,1,.385-1.184l3.091-.449a.694.694,0,0,0,.522-.38l1.382-2.8A.694.694,0,0,1,463.1,209.683Z" transform="translate(-451.171 -190.616)" fill="none" stroke="#da362c" stroke-linecap="round" stroke-linejoin="round" stroke-width="1.5"/>
      </g>
    </g>
  </g>
</svg>
