<?xml version="1.0" encoding="utf-8"?>
<!-- Generator: Adobe Illustrator 25.0.0, SVG Export Plug-In . SVG Version: 6.00 Build 0)  -->
<svg version="1.1" id="Layer_1" xmlns="http://www.w3.org/2000/svg" xmlns:xlink="http://www.w3.org/1999/xlink" x="0px" y="0px"
	 width="57px" height="57px" viewBox="0 0 200 200" style="enable-background:new 0 0 200 200;" xml:space="preserve">
<style type="text/css">
	.st0{fill:#DE4633;}
	.st1{fill:#C0BFBF;}
</style>
<g>
	<path class="st0" d="M128.9,39.6c25.6,11.5,42.7,39.5,38.9,70.5c-4.2,33.5-32.2,59.5-66.9,60.2c-34,0.6-62.5-23.4-68.6-55.7
		C26,81.3,44,51.6,70.5,39.5c0,0.5,0,0.8,0,1.2c0,10.1,0,20.1,0,30.2c0,0.8-0.2,1.3-0.7,1.9c-6.4,6.7-10.3,14.6-11.3,23.7
		c-1.5,12.9,2.3,24.2,11.2,33.7c6.5,6.9,14.5,11,23.8,12.4c11.9,1.7,22.6-1.1,32-8.6c8.4-6.7,13.6-15.4,15.2-26.1
		c2-13.5-2-25.2-11.2-35.2c-0.3-0.4-0.6-0.9-0.6-1.4c0-10.4,0-20.7,0-31.1C128.8,40,128.9,39.8,128.9,39.6z"/>
	<path class="st0" d="M86.1,81.3c0-18.1,0-36.1,0-54.1c9.1,0,18,0,27.1,0c0,18,0,36,0,54.1C104.2,81.3,95.2,81.3,86.1,81.3z"/>
</g>
<g>
	<path class="st1" d="M162.6,3.5c18.7,0,33.9,15.2,33.9,33.9v124.8c0,18.7-15.2,33.9-33.9,33.9h-125c-18.7,0-33.9-15.2-33.9-33.9
		V37.5c0-18.7,15.2-33.9,33.9-33.9H162.6 M162.6,0.5h-125C17.1,0.5,0.6,17.1,0.6,37.5v124.8c0,20.4,16.5,36.9,36.9,36.9h125
		c20.4,0,36.9-16.5,36.9-36.9V37.5C199.5,17.1,183,0.5,162.6,0.5L162.6,0.5z"/>
</g>
</svg>
