<svg xmlns="http://www.w3.org/2000/svg" width="25.444" height="31.16" viewBox="0 0 47.291 44.388">
  <g id="Group_25228" data-name="Group 25228" transform="translate(-428.728 -301.157)">
    <path id="Path_20193" data-name="Path 20193" d="M439.235,319.856l-6.85,2.495L430,315.462" transform="translate(0 -5.836)" fill="none" stroke="#da362c" stroke-linecap="round" stroke-linejoin="round" stroke-width="2"/>
    <path id="Path_20194" data-name="Path 20194" d="M432.332,336.113a21.129,21.129,0,0,0,40.835,9.5q.07-.19.136-.379" transform="translate(-0.978 -14.936)" fill="none" stroke="#da362c" stroke-linecap="round" stroke-linejoin="round" stroke-width="2"/>
    <path id="Path_20195" data-name="Path 20195" d="M475.3,325.581a21.129,21.129,0,0,0-40.829-9.553c-.044.118-.086.235-.127.353" transform="translate(-1.915 0)" fill="none" stroke="#da362c" stroke-linecap="round" stroke-linejoin="round" stroke-width="2"/>
    <path id="Path_20196" data-name="Path 20196" d="M493.489,354.716l6.85-2.495,2.385,6.889" transform="translate(-27.978 -22.034)" fill="none" stroke="#da362c" stroke-linecap="round" stroke-linejoin="round" stroke-width="2"/>
    <g id="Group_25227" data-name="Group 25227" transform="translate(438.661 309.796)">
      <g id="Group_25226" data-name="Group 25226">
        <path id="Path_20197" data-name="Path 20197" d="M470.026,358.944l-.124-.065-.124.065" transform="translate(-456.191 -334.765)" fill="none" stroke="#da362c" stroke-linecap="round" stroke-linejoin="round" stroke-width="2"/>
        <path id="Path_20198" data-name="Path 20198" d="M458.88,356.5l-.5.261a4.512,4.512,0,0,1-6.547-4.758l.378-2.2" transform="translate(-448.255 -330.766)" fill="none" stroke="#da362c" stroke-linecap="round" stroke-linejoin="round" stroke-width="2" stroke-dasharray="0.499 5.985"/>
        <path id="Path_20199" data-name="Path 20199" d="M453.009,346.67l.024-.138-.1-.1" transform="translate(-448.767 -329.281)" fill="none" stroke="#da362c" stroke-linecap="round" stroke-linejoin="round" stroke-width="2"/>
        <path id="Path_20200" data-name="Path 20200" d="M447.253,335.631l-.4-.392a4.512,4.512,0,0,1,2.5-7.7l2.212-.322" transform="translate(-445.485 -320.813)" fill="none" stroke="#da362c" stroke-linecap="round" stroke-linejoin="round" stroke-width="2" stroke-dasharray="0.499 5.985"/>
        <path id="Path_20201" data-name="Path 20201" d="M459.314,326.675l.138-.02.062-.125" transform="translate(-451.579 -320.509)" fill="none" stroke="#da362c" stroke-linecap="round" stroke-linejoin="round" stroke-width="2"/>
        <path id="Path_20202" data-name="Path 20202" d="M462.321,318.784l.248-.5a4.513,4.513,0,0,1,8.094,0l.988,2" transform="translate(-452.904 -315.766)" fill="none" stroke="#da362c" stroke-linecap="round" stroke-linejoin="round" stroke-width="2" stroke-dasharray="0.499 5.985"/>
        <path id="Path_20203" data-name="Path 20203" d="M480.327,326.529l.062.125.138.02" transform="translate(-460.839 -320.509)" fill="none" stroke="#da362c" stroke-linecap="round" stroke-linejoin="round" stroke-width="2"/>
        <path id="Path_20204" data-name="Path 20204" d="M486.608,327.651l.555.081a4.512,4.512,0,0,1,2.5,7.7l-1.6,1.56" transform="translate(-463.607 -321.003)" fill="none" stroke="#da362c" stroke-linecap="round" stroke-linejoin="round" stroke-width="2" stroke-dasharray="0.499 5.985"/>
        <path id="Path_20205" data-name="Path 20205" d="M486.989,346.435l-.1.1.024.138" transform="translate(-463.73 -329.281)" fill="none" stroke="#da362c" stroke-linecap="round" stroke-linejoin="round" stroke-width="2"/>
        <path id="Path_20206" data-name="Path 20206" d="M481.3,352.754l.1.553a4.51,4.51,0,0,1-6.547,4.758l-1.979-1.041" transform="translate(-457.553 -332.066)" fill="none" stroke="#da362c" stroke-linecap="round" stroke-linejoin="round" stroke-width="2" stroke-dasharray="0.499 5.985"/>
      </g>
    </g>
    <path id="Path_20207" data-name="Path 20207" d="M462.88,322.411l2.3,4.668a1.157,1.157,0,0,0,.871.633l5.151.748a1.157,1.157,0,0,1,.641,1.973l-3.727,3.633a1.157,1.157,0,0,0-.333,1.024l.88,5.13a1.157,1.157,0,0,1-1.678,1.219l-4.607-2.422a1.159,1.159,0,0,0-1.077,0l-4.607,2.422a1.157,1.157,0,0,1-1.678-1.219l.88-5.13a1.157,1.157,0,0,0-.333-1.024l-3.727-3.633a1.157,1.157,0,0,1,.641-1.973l5.151-.748a1.156,1.156,0,0,0,.871-.633l2.3-4.668A1.157,1.157,0,0,1,462.88,322.411Z" transform="translate(-9.469 -8.614)" fill="none" stroke="#da362c" stroke-linecap="round" stroke-linejoin="round" stroke-width="2"/>
  </g>
</svg>
