<svg xmlns="http://www.w3.org/2000/svg" width="15" height="15" viewBox="0 0 15 15">
    <path fill="#FFF" fill-rule="evenodd" d="M7.334 10.884a.75.75 0 1 1-1.501 0 .75.75 0 0 1 1.5 0m-3-7.134a.75.75 0 0 1 .75-.75h4.283c.626 0 1.134.508 1.134 1.134V6c0 .825-.675 1.5-1.5 1.5H7.882a.382.382 0 0 0-.382.382v.752a.75.75 0 1 1-1.5 0v-1.3C6 6.597 6.597 6 7.334 6h.75a.75.75 0 0 0 0-1.5h-3a.75.75 0 0 1-.75-.75m8.416 9.75H2.25a.75.75 0 0 1-.75-.75V2.25a.75.75 0 0 1 .75-.75h10.5a.75.75 0 0 1 .75.75v10.5a.75.75 0 0 1-.75.75M0 1.5v12A1.5 1.5 0 0 0 1.5 15h12a1.5 1.5 0 0 0 1.5-1.5v-12A1.5 1.5 0 0 0 13.5 0h-12A1.5 1.5 0 0 0 0 1.5"/>
</svg>
