<svg xmlns="http://www.w3.org/2000/svg" xmlns:xlink="http://www.w3.org/1999/xlink" width="52" height="42" viewBox="0 0 52 42">
  <defs>
    <clipPath id="clip-Custom_Size_8">
      <rect width="52" height="42"/>
    </clipPath>
  </defs>
  <g id="Custom_Size_8" data-name="Custom Size – 8" clip-path="url(#clip-Custom_Size_8)">
    <g id="Group_24777" data-name="Group 24777">
      <g id="Group_24776" data-name="Group 24776" transform="translate(-672 -163)">
        <g id="Group_24757" data-name="Group 24757" transform="translate(-6598 -157)">
          <rect id="Rectangle_1266" data-name="Rectangle 1266" width="48" height="32" rx="3" transform="translate(7272 323)"/>
          <g id="Group_24728" data-name="Group 24728" transform="translate(7283 333.999)">
            <path id="Path_20110" data-name="Path 20110" d="M2.008,0A2.016,2.016,0,0,0,0,2.009v4.1A2.016,2.016,0,0,0,2.008,8.116H24.5a2.016,2.016,0,0,0,2.009-2.008v-4.1A2.016,2.016,0,0,0,24.5,0Zm0,1.057H24.5a.938.938,0,0,1,.952.951v4.1a.938.938,0,0,1-.952.951H2.008a.938.938,0,0,1-.952-.951v-4.1A.938.938,0,0,1,2.008,1.058Z" transform="translate(0)" fill="#fff"/>
            <path id="Path_20111" data-name="Path 20111" d="M11.1,7.739a2.012,2.012,0,1,0,2.012,2.012A2.019,2.019,0,0,0,11.1,7.739Z" transform="translate(-6.683 -5.693)" fill="#fff"/>
            <path id="Path_20112" data-name="Path 20112" d="M80.655,18.964v1.057H83.45V18.964Z" transform="translate(-59.337 -13.951)" fill="#fff"/>
            <path id="Path_20113" data-name="Path 20113" d="M28.406,7.739a2.012,2.012,0,1,0,2.012,2.012A2.019,2.019,0,0,0,28.406,7.739Z" transform="translate(-19.418 -5.693)" fill="#fff"/>
            <path id="Path_20114" data-name="Path 20114" d="M45.719,7.739a2.012,2.012,0,1,0,2.012,2.012A2.019,2.019,0,0,0,45.719,7.739Z" transform="translate(-32.155 -5.693)" fill="#fff"/>
            <path id="Path_20115" data-name="Path 20115" d="M63.029,7.739a2.012,2.012,0,1,0,2.012,2.012A2.019,2.019,0,0,0,63.029,7.739Z" transform="translate(-44.89 -5.693)" fill="#fff"/>
          </g>
        </g>
      </g>
    </g>
  </g>
</svg>
