<svg xmlns="http://www.w3.org/2000/svg" width="130" height="26" viewBox="0 0 130 26">
    <g fill="none" fill-rule="evenodd">
        <path fill="#DA362C" d="M94.964 2.108v2.297h2.009v2.137h-2.009V16.99c0 1.118.072 1.741.213 1.87.143.126.737.188 1.779.188v2.737h-2.533c-1.43 0-2.093-.047-2.703-.141a3.468 3.468 0 0 1-1.618-.674c-.466-.36-.755-.766-.868-1.222-.115-.455-.172-1.527-.172-3.213V6.542h-1.224V4.405h1.224V2.108h5.902M111.433 7.79c-.198-.59-.564-1.161-1.1-1.714-.537-.555-1.298-1.003-2.284-1.346-.987-.343-2.169-.514-3.543-.514-1.64 0-2.986.267-4.039.801-1.05.534-1.78 1.244-2.184 2.131-.406.887-.607 2.12-.607 3.698v4.35c0 1.443.11 2.524.334 3.244.223.72.594 1.333 1.115 1.838.521.505 1.255.88 2.196 1.13.937.25 2.086.376 3.442.376 1.214 0 2.29-.148 3.226-.442.934-.293 1.7-.75 2.297-1.366.597-.617.987-1.281 1.168-1.992.184-.71.276-1.831.276-3.358v-4.147c0-1.206-.102-2.103-.297-2.69m-5.817 9.227c0 .734-.059 1.213-.178 1.432-.119.22-.365.33-.735.33-.36 0-.605-.122-.728-.366-.124-.244-.186-.763-.186-1.557V9.204c0-.873.062-1.42.186-1.645.123-.225.371-.338.744-.338.37 0 .613.113.726.338.114.225.171.772.171 1.645v7.812M86.014 11.929c-.75-.96-2.557-2.186-5.427-3.683-1.002-.515-1.611-.957-1.83-1.32-.233-.356-.347-.893-.347-1.613 0-.557.1-.974.297-1.247.2-.275.492-.412.878-.412.36 0 .614.104.765.306.155.204.23.678.23 1.422v1.605h5.992v-.86c0-1.714-.192-2.929-.574-3.645-.384-.715-1.165-1.307-2.342-1.777C82.476.235 81.05 0 79.376 0c-1.533 0-2.84.214-3.92.644-1.082.43-1.866 1.027-2.35 1.792-.485.766-.728 1.977-.728 3.632 0 1.145.171 2.085.512 2.82.343.735.773 1.312 1.295 1.732.52.419 1.58 1.089 3.184 2.01 1.6.921 2.606 1.576 3.017 1.964.397.397.597 1.23.597 2.494 0 .57-.104 1.006-.313 1.301-.209.297-.527.444-.955.444-.428 0-.725-.114-.893-.346-.167-.228-.252-.752-.252-1.572v-1.517h-5.992v.761c0 1.626.19 2.426.567 3.306.38.88 1.18 1.604 2.403 2.17 1.22.568 2.695.851 4.425.851 1.574 0 2.955-.245 4.14-.735 1.187-.49 1.986-1.1 2.401-1.832.413-.729.621-1.862.621-3.393 0-2.114-.374-3.648-1.121-4.597M113.838 4.321V26h5.502v-5.84c.525.594 1.106 1.04 1.745 1.34.638.299 1.33.45 2.074.45.937 0 1.734-.196 2.396-.584.661-.39 1.1-.913 1.314-1.573.214-.66.32-1.769.32-3.33v-7.21c0-1.358-.084-2.32-.252-2.886-.17-.564-.595-1.064-1.279-1.499-.68-.434-1.488-.652-2.423-.652-.766 0-1.473.151-2.12.451-.647.3-1.239.756-1.775 1.365l.002-1.71h-5.504zm7.285 12.526c0 .922-.047 1.501-.14 1.735-.092.236-.329.354-.708.354-.39 0-.644-.131-.761-.39-.117-.262-.174-.907-.174-1.94V9.502c0-.992.054-1.617.167-1.879.112-.26.365-.39.755-.39.397 0 .641.113.73.34.088.223.131.867.131 1.929v7.346zM128.451 4.873h.132c.112 0 .216-.007.216-.137 0-.108-.093-.125-.18-.125h-.168v.262zm-.127-.365h.316c.194 0 .286.077.286.234 0 .149-.094.21-.215.224l.234.363h-.137l-.222-.353h-.135v.353h-.127v-.821zm.273 1.01c.323 0 .573-.26.573-.603 0-.337-.25-.596-.573-.596a.577.577 0 0 0-.578.596c0 .344.25.603.578.603zm0-1.302c.38 0 .7.302.7.7 0 .403-.32.706-.7.706a.701.701 0 0 1-.705-.707.7.7 0 0 1 .705-.699z"/>
        <path fill="#000" d="M22.737 9.33c0-.954.052-1.544.152-1.77.102-.226.359-.339.776-.339.362 0 .625.135.781.405.157.27.236.848.236 1.733 0 .708-.072 1.178-.216 1.408-.143.23-1.239.678-3.284 1.342-1.913.618-3.11 1.157-3.593 1.615-.483.461-.724 1.322-.724 2.585v1.394c0 1.713.454 2.821 1.363 3.325s1.907.756 2.995.756c.833 0 1.55-.151 2.148-.453.601-.3 1.092-.755 1.473-1.368v1.513h6.075v-8.512c0-2.805-.109-4.653-.324-5.551-.216-.897-.86-1.653-1.929-2.271-1.07-.617-2.657-.926-4.765-.926-1.76 0-3.19.272-4.29.816-1.1.547-1.833 1.176-2.199 1.887-.365.713-.547 1.275-.547 2.59v.753h5.872V9.33zm1.945 7.575c0 .85-.058 1.375-.176 1.574-.115.2-.366.3-.75.3-.406 0-.677-.126-.813-.38-.137-.254-.206-.82-.206-1.7 0-.76.08-1.343.237-1.748.156-.404.725-.91 1.708-1.515v3.47zM38.971 4.547l-.003 1.627c.474-.652 1.039-1.142 1.696-1.47.657-.326 1.404-.488 2.243-.488 1.636 0 2.922.654 3.862 1.958.511-.652 1.09-1.142 1.734-1.47.643-.326 1.358-.488 2.143-.488 1.036 0 1.892.217 2.572.65.68.434 1.115.967 1.307 1.594.189.629.286 1.651.286 3.067v12.257h-5.942V10.536c0-1.466-.057-2.375-.17-2.73-.115-.355-.38-.531-.798-.531-.427 0-.702.174-.826.523-.123.35-.186 1.261-.186 2.738v11.248h-5.94V10.82c0-1.685-.048-2.697-.145-3.036-.095-.34-.36-.51-.794-.51a.98.98 0 0 0-.694.27.958.958 0 0 0-.317.652c-.022.253-.03.799-.03 1.637v11.95h-5.942V4.548h5.944M70.27 11.057c0-1.647-.226-2.924-.675-3.833-.45-.907-1.232-1.634-2.35-2.185-1.117-.547-2.534-.823-4.251-.823-1.406 0-2.649.227-3.731.683-1.082.457-1.86 1.113-2.334 1.97-.477.857-.713 2.028-.713 3.506v4.94c0 1.266.105 2.227.318 2.888.212.662.593 1.267 1.145 1.816.55.55 1.32.98 2.312 1.294.991.314 2.132.47 3.426.47 1.335 0 2.443-.159 3.326-.475.886-.32 1.617-.794 2.193-1.43.575-.634.941-1.234 1.098-1.795.157-.563.236-1.368.236-2.411V14.67h-5.796v1.975c0 .838-.08 1.402-.238 1.695-.16.29-.473.438-.94.438-.378 0-.635-.11-.767-.33-.133-.22-.199-.71-.199-1.475v-3.666h7.94v-2.251zm-7.94-.366V9.3c0-.955.052-1.542.154-1.756.103-.217.371-.324.806-.324.351 0 .581.127.696.38.112.256.17.822.17 1.7v1.39H62.33zM14.757 8.392H8.404V6.437c0-1.234-.06-2.005-.18-2.317-.121-.31-.408-.466-.86-.466-.393 0-.66.135-.801.406-.141.272-.21.952-.21 2.045v10.354c0 .97.069 1.608.211 1.916.14.304.423.458.847.458.46 0 .776-.173.941-.521.166-.347.25-1.02.25-2.022v-2.555H7.337v-2.756h7.419v11.066h-4.123l-.473-1.534c-.434.665-.979 1.16-1.637 1.486-.659.327-1.435.49-2.329.49a6.723 6.723 0 0 1-2.991-.681c-.93-.457-1.637-1.023-2.119-1.702-.482-.68-.784-1.39-.904-2.13C.061 17.232 0 16.12 0 14.639V8.232c0-2.064.125-3.564.376-4.498.253-.935.973-1.792 2.166-2.57C3.734.387 5.275 0 7.167 0c1.86 0 3.404.336 4.632 1.012 1.226.673 2.027 1.475 2.4 2.403.37.929.558 2.276.558 4.044v.933"/>
    </g>
</svg>
