<?xml version="1.0" encoding="UTF-8"?>
<svg width="170px" height="35px" viewBox="0 0 170 35" version="1.1" xmlns="http://www.w3.org/2000/svg" xmlns:xlink="http://www.w3.org/1999/xlink">
    <title>logo-gs-desktop</title>
    <g id="Page-1" stroke="none" stroke-width="1" fill="none" fill-rule="evenodd">
        <g id="logo-gs-desktop" fill="#EF3124">
            <path d="M124.796,3.734 L124.796,6.712 L127.416,6.712 L127.416,9.483 L124.796,9.483 L124.796,23.027 C124.695591,23.8458661 124.790514,24.6768707 125.073,25.452 C125.820492,25.695941 126.611113,25.7790925 127.393,25.696 L127.393,29.243 L124.093,29.243 C122.914705,29.2755345 121.735684,29.2146775 120.567,29.061 C119.800914,28.9544898 119.074858,28.6536018 118.458,28.187 C117.908644,27.8059964 117.508547,27.2461428 117.326,26.603 C117.123094,25.2242051 117.048109,23.8296025 117.102,22.437 L117.102,9.483 L115.502,9.483 L115.502,6.712 L117.102,6.712 L117.102,3.734 L124.802,3.734" id="Path_5"></path>
            <path d="M138.667,23.062 C138.716514,23.6900023 138.637575,24.3215089 138.435,24.918 C138.223829,25.232809 137.851436,25.3993958 137.476,25.347 C137.093118,25.3929082 136.719875,25.2054994 136.528,24.871 C136.316914,24.2201092 136.234383,23.5343885 136.285,22.852 L136.285,12.932 C136.226458,12.2119619 136.309001,11.4874195 136.528,10.799 C136.74017,10.479129 137.116708,10.3089294 137.497,10.361 C137.871575,10.3064177 138.243034,10.4782225 138.444,10.799 C138.645723,11.4908586 138.721261,12.2133789 138.667,12.932 L138.667,23.061 M146.254,11.098 C145.948152,10.2594298 145.458126,9.50012976 144.82,8.876 C143.975945,8.07093963 142.95601,7.47349574 141.841,7.131 C140.347794,6.65639044 138.786443,6.4316992 137.22,6.466 C135.407214,6.39813904 133.603544,6.75353179 131.952,7.504 C130.711385,8.06745849 129.704779,9.04402176 129.104,10.267 C128.507953,11.792462 128.238156,13.4258908 128.312,15.062 L128.312,20.702 C128.259431,22.117177 128.406203,23.5327133 128.748,24.907 C129.021166,25.8130674 129.52172,26.6341275 130.202,27.292 C131.01664,28.0150408 132.001897,28.5188537 133.065,28.756 C134.534647,29.1079223 136.043074,29.2715677 137.554,29.243 C138.97782,29.2657236 140.396882,29.0728741 141.763,28.671 C142.894476,28.3421468 143.924633,27.7329959 144.758,26.9 C145.484906,26.188469 146.010685,25.297335 146.282,24.317 C146.568757,22.8839711 146.68922,21.4226423 146.641,19.962 L146.641,14.585 C146.687553,13.4098378 146.557094,12.2343571 146.254,11.098" id="Path_6"></path>
            <path d="M113.13,16.466 C112.152667,15.2213333 109.793667,13.6296667 106.053,11.691 C105.133999,11.316049 104.316248,10.7298855 103.666,9.98 C103.320511,9.3398112 103.163774,8.6147283 103.214,7.889 C103.173815,7.32317089 103.308569,6.75866781 103.6,6.272 C103.867566,5.91220615 104.298409,5.71144688 104.746,5.738 C105.124511,5.7010348 105.497399,5.85018997 105.746,6.138 C106.008763,6.71452746 106.112351,7.35090007 106.046,7.981 L106.046,10.061 L113.86,10.061 L113.86,8.948 C113.969709,7.33593438 113.71331,5.71993588 113.11,4.221 C112.390948,3.12203805 111.310807,2.30857246 110.056,1.921 C108.269084,1.26909602 106.375512,0.95904141 104.474,1.007 C102.732771,0.963124865 100.99877,1.24635869 99.362,1.842 C98.118296,2.26984415 97.0439835,3.08416316 96.296,4.166 C95.5611713,5.62147049 95.2336096,7.24856759 95.348,8.875 C95.3034623,10.1275523 95.5310227,11.3748699 96.015,12.531 C96.3961553,13.3969434 96.9721163,14.1631803 97.698,14.77 C99.0244941,15.7270868 100.411377,16.5975627 101.85,17.376 C103.236161,18.1041185 104.553541,18.9562648 105.786,19.922 C106.304,20.4373333 106.563667,21.5153333 106.565,23.156 C106.604412,23.7467989 106.462034,24.3355051 106.157,24.843 C105.867624,25.2354988 105.39742,25.452487 104.911,25.418 C104.473039,25.4676558 104.038342,25.3008664 103.746,24.971 C103.46007,24.3317619 103.346966,23.6286604 103.418,22.932 L103.418,20.965 L95.603,20.965 L95.603,21.953 C95.5189218,23.4191183 95.7720726,24.8849982 96.343,26.238 C97.001692,27.5330807 98.1189068,28.5365777 99.477,29.053 C101.298379,29.8330302 103.267392,30.2083402 105.248,30.153 C107.092935,30.19066 108.927408,29.8669094 110.648,29.2 C111.925452,28.7755931 113.026647,27.9405559 113.78,26.825 C114.407107,25.4470657 114.685295,23.9359219 114.59,22.425 C114.59,19.6843333 114.102333,17.6973333 113.127,16.464" id="Path_7"></path>
            <path d="M158.892,22.843 C158.935495,23.5974245 158.874586,24.3542415 158.711,25.092 C158.589,25.398 158.28,25.552 157.786,25.552 C157.38173,25.6077556 156.985623,25.40531 156.794,25.045 C156.586535,24.2241625 156.509926,23.3757238 156.567,22.531 L156.567,13.318 C156.513259,12.4996124 156.5868,11.6778412 156.785,10.882 C156.973155,10.5234091 157.367382,10.3228868 157.768,10.382 C158.287,10.382 158.605,10.528 158.719,10.821 C158.882052,11.6436782 158.940182,12.4837045 158.892,13.321 L158.892,22.843 Z M149.392,6.602 L149.392,34.71 L156.568,34.71 L156.568,27.139 C157.199146,27.8680965 157.973974,28.4590897 158.844,28.875 C159.691801,29.2671236 160.615939,29.4665682 161.55,29.459 C162.640407,29.4904947 163.719279,29.2287198 164.674,28.701 C165.482936,28.2626524 166.095737,27.5340796 166.389,26.662 C166.728643,25.2494883 166.869003,23.7964053 166.806,22.345 L166.806,12.997 C166.85714,11.7407725 166.746907,10.4831742 166.478,9.255 C166.177183,8.42555791 165.584107,7.73434731 164.81,7.311 C163.859602,6.73101673 162.762028,6.43761256 161.649,6.466 C160.695764,6.45660352 159.75202,6.65593315 158.884,7.05 C157.996459,7.47157053 157.207411,8.0749407 156.568,8.821 L156.568,6.602 L149.392,6.602 Z" id="Path_8"></path>
            <path d="M168.64,6.467 C169.142579,6.47197278 169.546181,6.88303077 169.541954,7.38561621 C169.537728,7.88820166 169.12727,8.29241379 168.624678,8.28893357 C168.122087,8.28545335 167.717266,7.87559578 167.719986,7.373 C167.719986,7.13026842 167.817344,6.89767645 167.990292,6.72736026 C168.16324,6.55704406 168.397297,6.46324918 168.64,6.467 L168.64,6.467 Z M168.64,8.154 C168.956474,8.16417171 169.247542,7.9815295 169.376044,7.6921391 C169.504546,7.40274869 169.444843,7.06434947 169.22507,6.83640388 C169.005296,6.60845829 168.669301,6.53644619 168.375414,6.65430156 C168.081527,6.77215692 167.888384,7.05636515 167.887,7.373 C167.879096,7.57750085 167.954992,7.77636995 168.097133,7.92360776 C168.239275,8.07084557 168.435348,8.1536977 168.64,8.153 L168.64,8.154 Z M168.285,6.843 L168.697,6.843 C168.95,6.843 169.069,6.943 169.069,7.143 C169.073768,7.21944443 169.046321,7.29439484 168.993314,7.34968219 C168.940306,7.40496954 168.866577,7.43554622 168.79,7.434 L169.09,7.904 L168.911,7.904 L168.622,7.447 L168.447,7.447 L168.447,7.904 L168.281,7.904 L168.285,6.843 Z M168.451,7.317 L168.622,7.317 C168.768,7.317 168.903,7.308 168.903,7.141 C168.903,7 168.781,6.978 168.67,6.978 L168.451,6.978 L168.451,7.317 Z" id="Path_9"></path>
            <path d="M33.191,22.919 C33.2501843,23.60771 33.1727004,24.3013271 32.963,24.96 C32.812,25.219 32.484,25.349 31.984,25.349 C31.5647603,25.4038587 31.1516159,25.2113178 30.924,24.855 C30.6887065,24.1469086 30.5975819,23.3988708 30.656,22.655 C30.6244236,21.8870201 30.7290374,21.1195134 30.965,20.388 C31.511188,19.540028 32.2821788,18.8604344 33.192,18.425 L33.191,22.919 Z M30.655,13.097 C30.6048674,12.3269455 30.6723073,11.553747 30.855,10.804 C30.989,10.51 31.323,10.364 31.866,10.364 C32.2779332,10.3306471 32.6730416,10.5342114 32.885,10.889 C33.1503233,11.6065618 33.2551163,12.3735646 33.192,13.136 C33.2457717,13.7580563 33.1494042,14.3839308 32.911,14.961 C32.7243333,15.2596667 31.2966667,15.8393333 28.628,16.7 C26.9534739,17.112531 25.3664017,17.8217349 23.942,18.794 C23.3126667,19.394 22.9976667,20.511 22.997,22.145 L22.997,23.953 C22.997,26.1736667 23.5896667,27.611 24.775,28.265 C25.9714414,28.9210489 27.3165695,29.2581918 28.681,29.244 C29.6472522,29.2695998 30.6061062,29.0689253 31.481,28.658 C32.2755266,28.2592393 32.9413814,27.6443375 33.402,26.884 L33.402,28.845 L41.325,28.845 L41.325,17.809 C41.4124131,15.4010189 41.2707763,12.9901799 40.902,10.609 C40.5156901,9.31733776 39.6030368,8.24821926 38.388,7.664 C34.613119,6.11444515 30.389294,6.06330146 26.578,7.521 C25.3876019,8.01337057 24.3836372,8.86996111 23.71,9.968 C23.1625793,10.9988708 22.9152142,12.1625956 22.996,13.327 L22.996,14.303 L30.655,14.303 L30.655,13.097 Z" id="Path_10"></path>
            <path d="M51.803,6.895 L51.803,9.004 C52.3744921,8.19873427 53.1333115,7.54459144 54.014,7.098 C54.9270631,6.66413662 55.9282622,6.44780915 56.939,6.466 C58.9401044,6.40042655 60.8374405,7.35606321 61.976,9.003 C62.5818145,8.21015198 63.3538974,7.55958172 64.238,7.097 C66.2048667,6.18511892 68.488256,6.26345959 70.388,7.308 C71.1874071,7.76659983 71.7919095,8.50124804 72.088,9.374 C72.3873803,10.6770445 72.5128048,12.0140099 72.461,13.35 L72.461,29.243 L64.712,29.243 L64.712,14.661 C64.7687185,13.4767563 64.6942657,12.2898723 64.49,11.122 C64.3555406,10.6710723 63.9176632,10.3809785 63.45,10.433 C62.9765673,10.3801413 62.5294035,10.6613816 62.372,11.111 C62.1487794,12.2806218 62.0675253,13.4729081 62.13,14.662 L62.13,29.243 L54.384,29.243 L54.384,15.028 C54.4382683,13.7129898 54.3750172,12.3957602 54.195,11.092 C54.0617274,10.6446038 53.6197418,10.3633015 53.158,10.432 C52.8238674,10.4270078 52.5009717,10.5525784 52.258,10.782 C52.0144465,10.9983028 51.8660405,11.3019423 51.845,11.627 C51.816,11.955 51.805,12.662 51.805,13.749 L51.805,29.249 L44.056,29.249 L44.056,6.895 L51.809,6.895" id="Path_11"></path>
            <path d="M82.254,14.861 L82.254,13.061 C82.2004759,12.2955433 82.2679713,11.5264341 82.454,10.782 C82.588,10.501 82.938,10.363 83.505,10.363 C83.8818964,10.3179542 84.2460833,10.5160911 84.413,10.857 C84.6066275,11.5732801 84.6809557,12.3165616 84.633,13.057 L84.633,14.857 L82.254,14.861 Z M92.61,15.336 C92.6918472,13.6346105 92.3907814,11.9365447 91.729,10.367 C91.0527871,9.10632634 89.973692,8.10855948 88.664,7.533 C86.9197956,6.76489847 85.0246804,6.40050585 83.12,6.467 C81.4551783,6.4341309 79.8006363,6.73504946 78.254,7.352 C76.976647,7.82980733 75.9018377,8.73130581 75.209,9.906 C74.5228618,11.3190448 74.2033833,12.8820477 74.28,14.451 L74.28,20.853 C74.2331538,22.114629 74.3729976,23.3762557 74.695,24.597 C74.9933248,25.4919866 75.5054606,26.3006943 76.187,26.953 C77.0436087,27.7450364 78.0774391,28.3204153 79.202,28.631 C80.6519865,29.0603759 82.1589829,29.2660746 83.671,29.241 C85.1413445,29.2809438 86.6079002,29.0726915 88.009,28.625 C89.1011953,28.2529587 90.0839277,27.615557 90.869,26.77 C91.5185925,26.1141215 92.0085653,25.3175735 92.301,24.442 C92.5377218,23.4179285 92.6412441,22.3675807 92.609,21.317 L92.609,20.017 L85.049,20.017 L85.049,22.578 C85.1059675,23.3251221 85.0002027,24.075711 84.739,24.778 C84.472659,25.1868425 83.996057,25.40747 83.512,25.346 C83.125695,25.3953815 82.7429612,25.2315714 82.512,24.918 C82.2845513,24.3078584 82.1960694,23.6546637 82.253,23.006 L82.253,18.253 L92.609,18.253 L92.61,15.336 Z" id="Path_12"></path>
            <path d="M20.246,11.882 L11.961,11.882 L11.961,9.346 C12.0190786,8.33992132 11.9396804,7.33062164 11.725,6.346 C11.4904815,5.98361107 11.0937033,5.75865956 10.6623156,5.74351616 C10.2309279,5.72837276 9.81935246,5.92494788 9.56,6.27 C9.31120761,7.12988994 9.21874221,8.02744791 9.287,8.92 L9.287,22.346 C9.23010229,23.1834384 9.32323119,24.0243076 9.562,24.829 C9.76806871,25.2378439 10.2071142,25.4749285 10.662,25.423 C11.171835,25.4750691 11.6607236,25.2063396 11.89,24.748 C12.1644774,23.9030512 12.2747931,23.0133978 12.215,22.127 L12.215,18.815 L10.567,18.815 L10.567,15.242 L20.242,15.242 L20.242,29.59 L14.865,29.59 L14.248,27.601 C13.7243917,28.4248117 12.986783,29.0908716 12.114,29.528 C11.163659,29.9703384 10.12392,30.1869792 9.076,30.161 C7.7255441,30.1701504 6.39110028,29.8683608 5.176,29.279 C4.08455138,28.7865977 3.13417399,28.0280837 2.412,27.073 C1.81068351,26.2559036 1.40710604,25.3104575 1.233,24.311 C1.04743354,22.8751642 0.96954951,21.4274572 1,19.98 L1,11.673 C0.931748087,9.71607466 1.09657323,7.75797879 1.491,5.84 C1.98905151,4.41867721 2.99529461,3.23184464 4.316,2.508 C6.13801235,1.43222135 8.23308611,0.90836606 10.347,1 C12.4388148,0.923969308 14.5161687,1.3751344 16.388,2.312 C17.762604,2.95413516 18.8697092,4.05628837 19.518,5.428 C20.077004,7.11696569 20.3236967,8.89362728 20.246,10.671 L20.246,11.882" id="Path_13"></path>
        </g>
    </g>
</svg>