<svg xmlns="http://www.w3.org/2000/svg" width="170" height="34" viewBox="0 0 170 34">
    <g fill="none" fill-rule="evenodd">
        <path fill="#DA362C" d="M124.184 2.757V5.76h2.627v2.795h-2.627v13.661c0 1.463.094 2.277.278 2.446.187.164.964.246 2.326.246v3.578h-3.312c-1.87 0-2.736-.06-3.535-.184a4.535 4.535 0 0 1-2.115-.881c-.61-.47-.988-1.001-1.135-1.598-.15-.595-.225-1.997-.225-4.202V8.555h-1.601V5.76h1.601V2.757h7.718M145.72 10.186c-.26-.77-.738-1.517-1.438-2.24-.702-.727-1.698-1.312-2.987-1.76-1.29-.449-2.836-.672-4.633-.672-2.144 0-3.905.348-5.281 1.047-1.375.697-2.328 1.627-2.857 2.787-.53 1.16-.794 2.772-.794 4.836v5.688c0 1.887.145 3.3.437 4.241a5.59 5.59 0 0 0 1.458 2.405c.682.66 1.64 1.151 2.871 1.477 1.226.326 2.729.491 4.501.491 1.588 0 2.996-.192 4.22-.577 1.22-.383 2.223-.98 3.003-1.786.781-.807 1.29-1.676 1.528-2.605.24-.93.36-2.395.36-4.392v-5.423c0-1.577-.132-2.75-.388-3.517m-7.607 12.066c0 .96-.077 1.586-.233 1.872-.155.289-.477.433-.96.433-.472 0-.792-.16-.952-.48-.163-.32-.244-.998-.244-2.036V12.036c0-1.141.08-1.857.244-2.151.16-.295.485-.442.972-.442.484 0 .802.147.95.442.149.294.223 1.01.223 2.15v10.217M112.48 15.6c-.98-1.256-3.344-2.86-7.097-4.817-1.31-.674-2.107-1.25-2.393-1.726-.305-.465-.453-1.167-.453-2.109 0-.73.13-1.274.387-1.631.261-.36.644-.539 1.15-.539.47 0 .801.136 1 .4.201.267.3.887.3 1.86v2.098h7.836V8.013c0-2.242-.251-3.83-.752-4.767-.5-.935-1.522-1.71-3.062-2.324C107.852.307 105.988 0 103.799 0c-2.005 0-3.712.28-5.127.842-1.413.562-2.439 1.343-3.073 2.344-.632 1.002-.95 2.585-.95 4.75 0 1.496.223 2.726.67 3.687.447.96 1.01 1.716 1.692 2.265.68.547 2.067 1.424 4.163 2.628 2.094 1.205 3.408 2.061 3.946 2.568.519.52.78 1.608.78 3.262 0 .746-.135 1.315-.408 1.701-.273.388-.69.58-1.249.58-.56 0-.948-.149-1.168-.451-.218-.299-.33-.984-.33-2.056v-1.984H94.91v.996c0 2.125.248 3.172.742 4.322.496 1.15 1.542 2.097 3.142 2.84 1.594.74 3.524 1.111 5.786 1.111 2.058 0 3.864-.32 5.414-.96 1.552-.643 2.597-1.44 3.14-2.397.54-.953.812-2.435.812-4.437 0-2.764-.49-4.77-1.467-6.012M148.865 5.65V34h7.195v-7.636c.687.776 1.446 1.36 2.282 1.751a6.305 6.305 0 0 0 2.713.589c1.224 0 2.266-.256 3.132-.764.865-.51 1.44-1.194 1.719-2.057.279-.863.418-2.313.418-4.354v-9.428c0-1.776-.11-3.034-.329-3.774-.222-.738-.778-1.393-1.673-1.96-.89-.568-1.945-.853-3.168-.853a6.506 6.506 0 0 0-2.772.59c-.846.391-1.62.987-2.322 1.785l.003-2.238h-7.198zm9.527 16.38c0 1.206-.062 1.964-.182 2.27-.122.308-.432.463-.928.463-.51 0-.84-.172-.994-.512-.154-.34-.228-1.184-.228-2.535v-9.292c0-1.297.07-2.115.219-2.457.146-.34.476-.51.986-.51.52 0 .839.148.954.444.116.292.173 1.135.173 2.523v9.607zM167.975 6.372h.172c.147 0 .282-.009.282-.178 0-.142-.122-.164-.234-.164h-.22v.342zm-.166-.478h.413c.254 0 .373.102.373.307 0 .195-.122.276-.28.293l.305.474h-.18l-.29-.461h-.175v.461h-.166V5.894zm.356 1.322c.423 0 .75-.34.75-.788 0-.441-.327-.78-.75-.78-.428 0-.755.339-.755.78 0 .449.327.788.755.788zm0-1.702c.498 0 .916.395.916.914a.913.913 0 0 1-.916.923.917.917 0 0 1-.922-.923c0-.52.422-.914.922-.914z"/>
        <path fill="#000" d="M29.733 12.2c0-1.247.067-2.018.199-2.313.134-.297.47-.444 1.014-.444.474 0 .818.176 1.022.53.205.354.308 1.109.308 2.266 0 .925-.094 1.54-.282 1.84-.187.302-1.62.887-4.294 1.755-2.501.809-4.068 1.513-4.699 2.113-.631.603-.947 1.729-.947 3.38v1.823c0 2.24.594 3.69 1.783 4.349 1.188.659 2.493.987 3.916.987 1.09 0 2.026-.197 2.81-.591.785-.393 1.427-.988 1.925-1.79v1.979h7.944V16.953c0-3.668-.141-6.085-.424-7.26-.281-1.172-1.123-2.16-2.521-2.97-1.4-.806-3.476-1.21-6.232-1.21-2.301 0-4.17.356-5.61 1.067-1.44.715-2.397 1.538-2.875 2.468-.478.932-.716 1.667-.716 3.388v.984h7.679V12.2zm2.543 9.907c0 1.11-.075 1.798-.23 2.058-.15.26-.479.392-.98.392-.531 0-.885-.164-1.064-.498-.179-.33-.27-1.07-.27-2.221 0-.994.106-1.757.31-2.287.205-.528.95-1.189 2.234-1.98v4.536zM50.963 5.946l-.004 2.127c.62-.852 1.358-1.492 2.216-1.922.86-.425 1.837-.637 2.934-.637 2.139 0 3.82.855 5.05 2.56.67-.853 1.426-1.493 2.268-1.923.841-.425 1.776-.637 2.802-.637 1.355 0 2.475.283 3.364.85.89.567 1.458 1.263 1.71 2.084.246.822.373 2.159.373 4.01v16.028h-7.77V13.778c0-1.917-.075-3.106-.223-3.57-.15-.465-.497-.695-1.043-.695-.558 0-.918.228-1.08.684-.162.458-.244 1.65-.244 3.581v14.708h-7.767V14.15c0-2.204-.063-3.526-.19-3.97-.124-.444-.471-.666-1.039-.666-.354 0-.657.119-.907.353-.252.235-.39.516-.414.852-.029.33-.04 1.044-.04 2.14v15.628h-7.77V5.946h7.774M91.892 14.459c0-2.154-.296-3.824-.883-5.012-.59-1.187-1.612-2.137-3.073-2.858-1.46-.715-3.314-1.075-5.56-1.075-1.838 0-3.463.295-4.878.893-1.415.597-2.432 1.455-3.053 2.576-.623 1.12-.931 2.652-.931 4.584v6.46c0 1.655.137 2.913.416 3.777.277.866.775 1.657 1.496 2.375.719.719 1.727 1.282 3.023 1.692 1.297.41 2.788.615 4.48.615 1.746 0 3.196-.208 4.35-.621 1.16-.419 2.115-1.039 2.868-1.871.752-.829 1.23-1.614 1.436-2.348.205-.735.309-1.787.309-3.152v-1.31h-7.58v2.584c0 1.096-.103 1.833-.31 2.216-.21.38-.619.573-1.231.573-.494 0-.83-.144-1.002-.431-.175-.288-.26-.93-.26-1.929v-4.794h10.383V14.46zm-10.383-.479v-1.816c0-1.25.067-2.018.201-2.298.134-.283.485-.423 1.054-.423.459 0 .76.166.91.498.147.333.221 1.074.221 2.223v1.816H81.51zM19.297 10.975H10.99V8.417c0-1.614-.08-2.622-.237-3.03-.157-.404-.532-.609-1.124-.609-.513 0-.862.177-1.047.532-.184.355-.274 1.245-.274 2.673v13.54c0 1.268.09 2.103.276 2.505.183.399.553.6 1.107.6.602 0 1.014-.227 1.23-.682.218-.454.327-1.335.327-2.644V17.96H9.596v-3.604h9.701v14.471h-5.39l-.62-2.006c-.567.87-1.28 1.517-2.14 1.944-.861.427-1.877.64-3.046.64a8.792 8.792 0 0 1-3.911-.89c-1.217-.598-2.14-1.338-2.77-2.226C.788 25.4.393 24.472.236 23.504.079 22.534 0 21.082 0 19.144v-8.379c0-2.7.164-4.66.492-5.883.33-1.222 1.272-2.343 2.832-3.36C4.884.506 6.898 0 9.372 0c2.433 0 4.452.44 6.057 1.323 1.604.88 2.651 1.93 3.138 3.143.486 1.214.73 2.977.73 5.288v1.22"/>
    </g>
</svg>
