<svg id="Layer_1" data-name="Layer 1" width = "25px" height = "25px" xmlns="http://www.w3.org/2000/svg" viewBox="0 0 26 26"><defs><style>.cls-1{fill:none;stroke:#000;stroke-linecap:round;stroke-linejoin:round;}</style></defs><g id="Group_24584" data-name="Group 24584"><path id="Path_20052" data-name="Path 20052" class="cls-1" d="M6.55,13.15l.34-6.84a.51.51,0,0,1,.51-.48H19a.5.5,0,0,1,.5.48l.72,14.26a.5.5,0,0,1-.48.53H15.47"/><path id="Path_20053" data-name="Path 20053" class="cls-1" d="M10.16,5.82h0c0-2,1.37-3.71,3.05-3.71h0c1.68,0,3,1.66,3,3.71h0"/><line id="Line_74" data-name="Line 74" class="cls-1" x1="6.81" y1="7.93" x2="19.63" y2="7.93"/><path id="Path_20054" data-name="Path 20054" class="cls-1" d="M8.25,21.44,7.19,22A.92.92,0,0,1,6,21.61.9.9,0,0,1,5.86,21l.41-2.4a.7.7,0,0,0-.2-.63L4.32,16.3a.92.92,0,0,1,0-1.3.86.86,0,0,1,.52-.26l2.41-.35A.71.71,0,0,0,7.78,14l1.08-2.19a.91.91,0,0,1,1.64,0L11.58,14a.75.75,0,0,0,.54.39l2.41.35a.91.91,0,0,1,.78,1,1,1,0,0,1-.27.53l-.16.15"/><path id="Path_20055" data-name="Path 20055" class="cls-1" d="M12.34,16l.64,1.3a.41.41,0,0,0,.32.23l1.43.21a.54.54,0,0,1,.46.62.49.49,0,0,1-.16.31l-1,1a.44.44,0,0,0-.13.37l.25,1.43a.55.55,0,0,1-.44.63.54.54,0,0,1-.35-.06l-1.28-.67a.39.39,0,0,0-.39,0L10.37,22a.54.54,0,0,1-.73-.22.48.48,0,0,1-.05-.35L9.83,20a.43.43,0,0,0-.12-.37l-1-1a.55.55,0,0,1,0-.77A.47.47,0,0,1,9,17.73l1.43-.21a.43.43,0,0,0,.32-.23l.64-1.3a.54.54,0,0,1,.73-.25A.51.51,0,0,1,12.34,16Z"/></g></svg>