<svg id="Layer_1" data-name="Layer 1" width = "25px" height = "25px" xmlns="http://www.w3.org/2000/svg" viewBox="0 0 26 26"><defs><style>.cls-1{fill:none;stroke:#000;stroke-linecap:round;stroke-linejoin:round;}</style></defs><g id="Group_24588" data-name="Group 24588"><path id="Path_20059" data-name="Path 20059" class="cls-1" d="M16.34,10.5h3.21a1.57,1.57,0,0,1,1.58,1.57h0v8.36A1.57,1.57,0,0,1,19.56,22H4.45a1.57,1.57,0,0,1-1.58-1.57h0V12.07A1.57,1.57,0,0,1,4.45,10.5H7.73"/><path id="Rectangle_1229" data-name="Rectangle 1229" class="cls-1" d="M5.73,17.66h5.46a.8.8,0,0,1,.79.79h0a.79.79,0,0,1-.79.79H5.73A.78.78,0,0,1,5,18.45H5A.79.79,0,0,1,5.73,17.66Z"/><line id="Line_81" data-name="Line 81" class="cls-1" x1="2.87" y1="13.35" x2="21.13" y2="13.35"/><line id="Line_82" data-name="Line 82" class="cls-1" x1="14.31" y1="17.66" x2="19.05" y2="17.66"/><line id="Line_83" data-name="Line 83" class="cls-1" x1="2.87" y1="15.59" x2="21.13" y2="15.59"/><line id="Line_84" data-name="Line 84" class="cls-1" x1="14.31" y1="19.24" x2="16.09" y2="19.24"/><line id="Line_85" data-name="Line 85" class="cls-1" x1="18.29" y1="5.49" x2="18.58" y2="5.19"/><line id="Line_86" data-name="Line 86" class="cls-1" x1="19.88" y1="3.89" x2="20.18" y2="3.59"/><line id="Line_87" data-name="Line 87" class="cls-1" x1="20.18" y1="5.49" x2="19.88" y2="5.19"/><line id="Line_88" data-name="Line 88" class="cls-1" x1="18.58" y1="3.89" x2="18.29" y2="3.59"/><line id="Line_89" data-name="Line 89" class="cls-1" x1="8.03" y1="2" x2="7.73" y2="2.29"/><line id="Line_90" data-name="Line 90" class="cls-1" x1="6.43" y1="3.59" x2="6.14" y2="3.89"/><line id="Line_91" data-name="Line 91" class="cls-1" x1="6.14" y1="2" x2="6.43" y2="2.29"/><line id="Line_92" data-name="Line 92" class="cls-1" x1="7.73" y1="3.59" x2="8.03" y2="3.89"/><line id="Line_93" data-name="Line 93" class="cls-1" x1="4.98" y1="8.7" x2="5.06" y2="8.78"/><line id="Line_94" data-name="Line 94" class="cls-1" x1="3.82" y1="7.54" x2="3.9" y2="7.62"/><line id="Line_95" data-name="Line 95" class="cls-1" x1="4.98" y1="7.62" x2="5.06" y2="7.54"/><line id="Line_96" data-name="Line 96" class="cls-1" x1="3.82" y1="8.78" x2="3.9" y2="8.7"/><path id="Path_20060" data-name="Path 20060" class="cls-1" d="M12.45,3.6l1,2a.52.52,0,0,0,.38.28l2.26.33a.5.5,0,0,1,.28.86L14.75,8.7a.51.51,0,0,0-.15.45L15,11.4a.51.51,0,0,1-.74.53l-2-1.06a.49.49,0,0,0-.47,0l-2,1.06A.51.51,0,0,1,9,11.4L9.4,9.15a.51.51,0,0,0-.15-.45L7.62,7.11a.5.5,0,0,1,0-.71.54.54,0,0,1,.29-.15l2.26-.33a.5.5,0,0,0,.38-.27l1-2.05a.5.5,0,0,1,.67-.23A.51.51,0,0,1,12.45,3.6Z"/></g></svg>