<svg xmlns="http://www.w3.org/2000/svg" xmlns:xlink="http://www.w3.org/1999/xlink" width="50" height="45" viewBox="8 8 60 55">
  <defs>
    <clipPath id="clip-Custom_Size_1">
      <rect width="68" height="68"/>
    </clipPath>
  </defs>
  <g id="Custom_Size_1" data-name="Custom Size – 1" clip-path="url(#clip-Custom_Size_1)">
    <rect width="68" height="68" fill="none"/>
    <g id="Group_24498" data-name="Group 24498" transform="translate(8 15)">
      <g id="Group_24497" data-name="Group 24497">
        <path id="Path_20005" data-name="Path 20005" d="M467.856,464.5h23.268a.406.406,0,0,1,.406.406v18.282a1.618,1.618,0,0,1-1.619,1.618H462.689a1.618,1.618,0,0,1-1.619-1.618v-11.9" transform="translate(-439.606 -447.407)" fill="none" stroke="#000" stroke-linecap="round" stroke-linejoin="round" stroke-width="2"/>
        <rect id="Rectangle_1215" data-name="Rectangle 1215" width="36.806" height="8.25" rx="1.897" transform="translate(1.568 32.107) rotate(-45)" fill="none" stroke="#000" stroke-linecap="round" stroke-linejoin="round" stroke-width="2"/>
        <path id="Path_20006" data-name="Path 20006" d="M452.812,473.522l-5.834-5.833-.589-.589a2.538,2.538,0,1,1,3.59-3.589l.589.589,5.833,5.834" transform="translate(-434.193 -446.799)" fill="none" stroke="#000" stroke-linecap="round" stroke-linejoin="round" stroke-width="2"/>
        <path id="Path_20007" data-name="Path 20007" d="M459.769,450.281c-.225-5.041-4.678-6.367-7.291-4.041-2.773,2.467-2.631,7.564-1.9,10.474" transform="translate(-435.765 -440.61)" fill="none" stroke="#000" stroke-linecap="round" stroke-linejoin="round" stroke-width="2"/>
        <path id="Path_20008" data-name="Path 20008" d="M433.15,476.9c-5.042-.225-6.367-4.677-4.042-7.291,2.467-2.773,7.564-2.632,10.474-1.9" transform="translate(-428 -448.375)" fill="none" stroke="#000" stroke-linecap="round" stroke-linejoin="round" stroke-width="2"/>
        <line id="Line_17" data-name="Line 17" x2="0.88" y2="4.639" transform="translate(34.475 0)" fill="none" stroke="#000" stroke-linecap="round" stroke-linejoin="round" stroke-width="2"/>
        <line id="Line_18" data-name="Line 18" y1="0.88" x2="4.639" transform="translate(45.933 10.962)" fill="none" stroke="#000" stroke-linecap="round" stroke-linejoin="round" stroke-width="2"/>
        <line id="Line_19" data-name="Line 19" y1="3.512" x2="2.392" transform="translate(41.626 3.286)" fill="none" stroke="#000" stroke-linecap="round" stroke-linejoin="round" stroke-width="2"/>
        <path id="Path_20009" data-name="Path 20009" d="M481.883,471.023l1.286,2.605a.849.849,0,0,0,.639.463l2.875.418a1.093,1.093,0,0,1,.606,1.863l-2.081,2.028a.846.846,0,0,0-.243.75l.491,2.864a1.092,1.092,0,0,1-1.586,1.151l-2.572-1.352a.847.847,0,0,0-.789,0l-2.572,1.352a1.092,1.092,0,0,1-1.586-1.151l.491-2.864a.848.848,0,0,0-.244-.75l-2.08-2.028a1.092,1.092,0,0,1,.606-1.863l2.875-.418a.848.848,0,0,0,.638-.463l1.286-2.605A1.092,1.092,0,0,1,481.883,471.023Z" transform="translate(-444.21 -449.483)" fill="none" stroke="#000" stroke-linecap="round" stroke-linejoin="round" stroke-width="2"/>
      </g>
    </g>
  </g>
</svg>
