<svg xmlns="http://www.w3.org/2000/svg" xmlns:xlink="http://www.w3.org/1999/xlink" width="45" height="40" viewBox="10 10 50 50">
  <defs>
    <clipPath id="clip-Custom_Size_2">
      <rect width="68" height="68"/>
    </clipPath>
  </defs>
  <g id="Custom_Size_2" data-name="Custom Size – 2" clip-path="url(#clip-Custom_Size_2)">
    <rect width="68" height="68" fill="none"/>
    <g id="Group_24496" data-name="Group 24496" transform="translate(13 14)">
      <path id="Path_19998" data-name="Path 19998" d="M206.769,197.092a11.206,11.206,0,0,0-3.581-4.228" transform="translate(-185.546 -182.103)" fill="none" stroke="#000" stroke-linecap="round" stroke-linejoin="round" stroke-width="2"/>
      <path id="Path_19999" data-name="Path 19999" d="M179.287,189.278a11.178,11.178,0,1,0,11.92,15.9" transform="translate(-170 -180.432)" fill="none" stroke="#000" stroke-linecap="round" stroke-linejoin="round" stroke-width="2"/>
      <path id="Path_20000" data-name="Path 20000" d="M192.466,233.309q.115.377.264.746a9.357,9.357,0,0,0,9.662,5.676,9.568,9.568,0,0,0,2.843-.782,9.889,9.889,0,0,0,1.277-.695q.288-.186.564-.391c.041-.031.284-.269.345-.267s.153.173.184.209l.428.508.98,1.165.189.224.556-2.868.887-4.578.2-1.058-2.922.058-4.663.093-1.078.021,1.86,2.211-.019-.021a5.061,5.061,0,0,1-7.668-1.021" transform="translate(-180.517 -200.055)" fill="none" stroke="#000" stroke-linecap="round" stroke-linejoin="round" stroke-width="2"/>
      <path id="Path_20001" data-name="Path 20001" d="M220.492,211.258a11.167,11.167,0,1,0-7.947-2.067" transform="translate(-187.767 -180.293)" fill="none" stroke="#000" stroke-linecap="round" stroke-linejoin="round" stroke-width="2"/>
      <path id="Path_20002" data-name="Path 20002" d="M210.174,179.158c-.032-.108-.066-.216-.1-.323q-.082-.241-.178-.477a9.357,9.357,0,0,0-9.662-5.676,9.568,9.568,0,0,0-2.843.782,9.889,9.889,0,0,0-1.277.695q-.288.186-.564.391c-.041.031-.284.269-.345.267s-.154-.173-.184-.209l-.428-.508-.98-1.165-.189-.224-.556,2.868-.887,4.578-.205,1.058,2.922-.058,4.662-.093,1.078-.021-1.861-2.211.019.021a5.061,5.061,0,0,1,7.781,1.208" transform="translate(-180.192 -172.621)" fill="none" stroke="#000" stroke-linecap="round" stroke-linejoin="round" stroke-width="2"/>
      <path id="Path_20003" data-name="Path 20003" d="M222.567,208.906a3.516,3.516,0,0,0,3.2,1.738c1.9,0,3.438-1.232,3.438-2.751,0-2.063-1.6-2.521-3.438-2.75-2.375-.3-3.438-1.232-3.438-2.751s1.539-2.751,3.438-2.751a3.547,3.547,0,0,1,3.155,1.657" transform="translate(-194.509 -185.275)" fill="none" stroke="#000" stroke-linecap="round" stroke-linejoin="round" stroke-width="2"/>
      <line id="Line_16" data-name="Line 16" y2="14.21" transform="translate(31.255 12.763)" fill="none" stroke="#000" stroke-linecap="round" stroke-linejoin="round" stroke-width="2"/>
      <path id="Path_20004" data-name="Path 20004" d="M185.966,198.476l1.421,2.879a.713.713,0,0,0,.537.39l3.177.462a.713.713,0,0,1,.4,1.217l-2.3,2.241a.711.711,0,0,0-.2.631l.542,3.164a.713.713,0,0,1-1.035.752l-2.842-1.494a.716.716,0,0,0-.664,0l-2.842,1.494a.713.713,0,0,1-1.035-.752l.542-3.164a.711.711,0,0,0-.205-.631l-2.3-2.241a.713.713,0,0,1,.4-1.217l3.177-.462a.713.713,0,0,0,.537-.39l1.421-2.879A.713.713,0,0,1,185.966,198.476Z" transform="translate(-174.192 -184.542)" fill="none" stroke="#000" stroke-linecap="round" stroke-linejoin="round" stroke-width="2"/>
    </g>
  </g>
</svg>
