<svg xmlns="http://www.w3.org/2000/svg" width="20" height="20" viewBox="0 0 20 20">
    <path fill="#000" fill-rule="evenodd" d="M5 18c.55 0 1-.45 1-1 0-.551-.45-1-1-1-.551 0-1 .449-1 1 0 .55.449 1 1 1zm11-6V7a1 1 0 0 0-1-1H6v6h10zm1 6c.55 0 1-.45 1-1 0-.551-.45-1-1-1-.551 0-1 .449-1 1 0 .55.449 1 1 1zM16 4a2 2 0 0 1 2 2v8.184a2.991 2.991 0 0 1-.436 5.765A3.004 3.004 0 0 1 14 16.999a2.99 2.99 0 0 1 2-2.815V14H6v.184a2.991 2.991 0 0 1-.436 5.765A3.004 3.004 0 0 1 2 16.999a2.99 2.99 0 0 1 2-2.815V3a1 1 0 0 0-1-1H1a1 1 0 0 1 0-2h3a2 2 0 0 1 2 2v2h10z"/>
</svg>
