<svg id="Layer_1" data-name="Layer 1" width = "43px" height = "43px" viewBox="0 0 50 50" xmlns="http://www.w3.org/2000/svg"><g id="Group_24606" data-name="Group 24606"><path id="Path_20084" data-name="Path 20084" d="M18,28.13a1,1,0,0,0,0,1.38,1,1,0,0,0,1.37,0l5.85-5.85a1,1,0,0,0,.21-.32.8.8,0,0,0,.05-.21l0-.16a1.55,1.55,0,0,0,0-.21.75.75,0,0,0,0-.16,1.15,1.15,0,0,0-.21-.33l-5.84-5.84A1,1,0,0,0,18,17.81L22.13,22H5a1,1,0,0,0-.06,2h17.2Z"/><path id="Path_20085" data-name="Path 20085" d="M43.66,2a3.44,3.44,0,0,0-.45,0A1.06,1.06,0,0,0,43,2H18.8a5,5,0,0,0-5,5V17a1,1,0,0,0,2,0V7a3,3,0,0,1,3-3H38.07L30.51,7.22a4.31,4.31,0,0,0-2.64,4V42H18.8a4.26,4.26,0,0,1-3-1.41l0-11.59a1,1,0,0,0-1-1h0a1,1,0,0,0-1,1l.05,11.65a1.86,1.86,0,0,0,.63,1.4,6.24,6.24,0,0,0,4.35,2h9.06v1.68a4.36,4.36,0,0,0,6.07,4l11.45-4.87a4.3,4.3,0,0,0,2.63-4V6.32A4.33,4.33,0,0,0,43.66,2ZM46,40.81a2.31,2.31,0,0,1-1.42,2.13L33.13,47.81a2.23,2.23,0,0,1-.92.19,2.32,2.32,0,0,1-2.33-2.32V11.19A2.31,2.31,0,0,1,31.3,9.06L42.74,4.19A2.26,2.26,0,0,1,43.66,4,2.33,2.33,0,0,1,46,6.32Z"/><path id="Path_20086" data-name="Path 20086" d="M33,24.08a1,1,0,0,0-1,1h0V29a1,1,0,0,0,2,0v-3.9A1,1,0,0,0,33,24.08Z"/></g></svg>