<svg xmlns="http://www.w3.org/2000/svg" width="14" height="19" viewBox="0 0 14 19">
    <path fill="#DA362C" fill-rule="evenodd" d="M14 10.091v4.71c0 .743-.627 1.346-1.4 1.346H2.945c-.312 0-.468.361-.247.573l1.177 1.132a.655.655 0 0 1 0 .951.722.722 0 0 1-.99 0L.41 16.424a1.308 1.308 0 0 1 0-1.902l2.475-2.379a.722.722 0 0 1 .99 0 .656.656 0 0 1 0 .952l-1.177 1.132c-.22.211-.065.574.247.574H11.9c.386 0 .7-.302.7-.673V10.09c0-.371.314-.673.7-.673.386 0 .7.302.7.673M0 8.91V4.2c0-.742.627-1.507 1.4-1.507h9.655c.312 0 .468-.282.247-.494L10.125 1.15a.656.656 0 0 1 0-.952.72.72 0 0 1 .99 0c.387.371 2.092 2.01 2.475 2.376a1.306 1.306 0 0 1 0 1.9l-2.475 2.374a.722.722 0 0 1-.99-.01.68.68 0 0 1 0-.972l1.177-1.172c.22-.212.065-.656-.247-.656H2.1c-.386 0-.7.464-.7.836v4.036a.687.687 0 0 1-.7.673c-.386 0-.7-.3-.7-.673"/>
</svg>
