<?xml version="1.0" encoding="utf-8"?>
<!-- Generator: Adobe Illustrator 23.0.4, SVG Export Plug-In . SVG Version: 6.00 Build 0)  -->
<svg version="1.1" id="Layer_1" xmlns="http://www.w3.org/2000/svg" xmlns:xlink="http://www.w3.org/1999/xlink" x="0px" y="0px"
	 viewBox="0 0 64 64" style="enable-background:new 0 0 64 64;" xml:space="preserve">
<style type="text/css">
	.st0{fill:#FFFFFF;}
	.st1{fill:#65AB6B;}
</style>
<circle class="st0" cx="32" cy="32" r="32"/>
<path class="st1" d="M32,18.12c4.53,0,5.1,0,6.94,0.14c4.67,0.14,6.8,2.41,6.94,6.94c0.14,1.84,0.14,2.27,0.14,6.8s0,5.1-0.14,6.8
	c-0.14,4.53-2.41,6.8-6.94,6.94c-1.84,0.14-2.27,0.14-6.94,0.14c-4.53,0-5.1,0-6.8-0.14c-4.67-0.14-6.8-2.41-6.94-6.94
	c-0.14-1.84-0.14-2.27-0.14-6.8s0-5.1,0.14-6.8c0.14-4.53,2.41-6.8,6.94-6.94C26.9,18.12,27.47,18.12,32,18.12z M32,15
	c-4.68,0-5.24,0-6.94,0.14c-6.23,0.28-9.63,3.68-9.92,9.92C15,26.76,15,27.32,15,32s0,5.24,0.14,6.94c0.28,6.23,3.68,9.63,9.92,9.92
	C26.76,49,27.32,49,32,49s5.24,0,6.94-0.14c6.23-0.28,9.63-3.68,9.92-9.92C49,37.24,49,36.67,49,32s0-5.24-0.14-6.94
	c-0.28-6.23-3.68-9.63-9.92-9.92C37.24,15,36.67,15,32,15z M32,23.22c-4.82,0-8.78,3.97-8.78,8.78s3.97,8.78,8.78,8.78
	s8.78-3.97,8.78-8.78S36.82,23.22,32,23.22z M32,37.67c-3.12,0-5.67-2.55-5.67-5.67s2.55-5.67,5.67-5.67s5.67,2.55,5.67,5.67
	S35.12,37.67,32,37.67z M41.07,20.95c-1.13,0-1.98,0.85-1.98,1.98c0,1.13,0.85,1.98,1.98,1.98s1.98-0.85,1.98-1.98
	C43.05,21.8,42.2,20.95,41.07,20.95z"/>
</svg>
