<?xml version="1.0" encoding="utf-8"?>
<!-- Generator: Adobe Illustrator 23.0.4, SVG Export Plug-In . SVG Version: 6.00 Build 0)  -->
<svg version="1.1" id="Layer_1" xmlns="http://www.w3.org/2000/svg" xmlns:xlink="http://www.w3.org/1999/xlink" x="0px" y="0px"
	 viewBox="0 0 64 64" style="enable-background:new 0 0 64 64;" xml:space="preserve">
<style type="text/css">
	.st0{fill:#FFFFFF;}
	.st1{fill-rule:evenodd;clip-rule:evenodd;fill:#65AB6B;}
</style>
<circle class="st0" cx="32" cy="32" r="32"/>
<path class="st1" d="M32,12c-11,0-20,9-20,20c0,8.5,5.33,15.67,12.67,18.67c-0.17-1.5-0.33-4,0-5.67C25,43.5,27,35,27,35
	s-0.5-1.33-0.5-3c0-2.83,1.67-4.83,3.67-4.83c1.67,0,2.5,1.33,2.5,2.83c0,1.67-1.17,4.33-1.67,6.67c-0.5,2,1,3.67,3,3.67
	c3.5,0,6.33-3.67,6.33-9.17c0-4.83-3.5-8.17-8.33-8.17c-5.67,0-9,4.33-9,8.67c0,1.67,0.67,3.5,1.5,4.5c0.17,0.17,0.17,0.33,0.17,0.5
	L24.17,39c-0.17,0.33-0.33,0.5-0.67,0.33c-2.5-1.17-4-4.83-4-7.67c0-6.33,4.67-12.17,13.17-12.17c7,0,12.33,5,12.33,11.5
	c0,6.83-4.33,12.5-10.33,12.5c-2,0-4-1-4.67-2.33L28.83,46c-0.5,1.67-1.67,4-2.5,5.17C28,51.67,30,52,32,52c11,0,20-9,20-20
	S43,12,32,12z"/>
</svg>
