<?xml version="1.0" encoding="utf-8"?>
<!-- Generator: Adobe Illustrator 23.0.4, SVG Export Plug-In . SVG Version: 6.00 Build 0)  -->
<svg version="1.1" id="Layer_1" xmlns="http://www.w3.org/2000/svg" xmlns:xlink="http://www.w3.org/1999/xlink" x="0px" y="0px"
	 viewBox="0 0 64 64" style="enable-background:new 0 0 64 64;" xml:space="preserve">
<style type="text/css">
	.st0{fill:#FFFFFF;}
	.st1{fill:#65AB6B;}
</style>
<circle class="st0" cx="32" cy="32" r="32"/>
<path class="st1" d="M50,20.28c-1.42,0.63-2.85,1.11-4.43,1.27c1.58-0.95,2.85-2.53,3.48-4.27c-1.58,0.95-3.17,1.58-4.91,1.9
	c-1.42-1.58-3.48-2.53-5.7-2.53c-5.07,0-8.71,4.75-7.6,9.5c-6.65-0.32-12.35-3.48-16.15-8.23c-2.06,3.64-1.11,8.23,2.38,10.45
	c-1.27,0-2.53-0.32-3.48-0.95c-0.16,3.64,2.53,6.97,6.18,7.76c-1.11,0.32-2.38,0.32-3.48,0.16c0.95,3.17,3.8,5.38,7.28,5.38
	c-3.33,2.53-7.44,3.64-11.56,3.17c3.48,2.22,7.6,3.48,11.88,3.48c14.41,0,22.64-12.19,22.17-23.12C47.62,23.13,48.89,21.71,50,20.28
	z"/>
</svg>
