<svg xmlns="http://www.w3.org/2000/svg" width="34" height="34" viewBox="0 0 34 34">
    <g fill="none" fill-rule="evenodd" stroke="#000" stroke-linecap="round" stroke-linejoin="round" stroke-width="2.1">
        <path d="M27.247 27.247l5.303 5.303-5.303-5.303a7.35 7.35 0 1 1-10.394-10.394 7.35 7.35 0 0 1 10.394 10.394zM5.25 7.35v10.5-10.5zm4.2 0v6.3-6.3zm8.4 0v4.2-4.2zm4.2 0v3.15-3.15zm4.2 0v4.2-4.2zm-12.6 0v6.3-6.3zm-4.2 10.5h2.1-2.1zM5.25 1.05H3.202A2.152 2.152 0 0 0 1.05 3.202V5.25M30.45 5.25V3.202a2.152 2.152 0 0 0-2.152-2.152H26.25M1.05 19.95v2.048c0 1.189.963 2.152 2.152 2.152H5.25"/>
    </g>
</svg>
