<?xml version="1.0" encoding="utf-8"?>
<!-- Generator: Adobe Illustrator 23.0.2, SVG Export Plug-In . SVG Version: 6.00 Build 0)  -->
<svg version="1.1" id="Layer_1" xmlns="http://www.w3.org/2000/svg" xmlns:xlink="http://www.w3.org/1999/xlink" x="0px" y="0px"
	 viewBox="0 0 30 30" style="enable-background:new 0 0 30 30;" xml:space="preserve">
<style type="text/css">
	.st0{fill:#25336F;}
	.st1{fill:#FFFFFF;}
	.st2{fill:#DE1E36;}
	.st3{fill:#C7C8CA;}
</style>
<g id="XMLID_6638_">
	<path id="XMLID_6660_" class="st0" d="M26.396,6.225c-2.653-3.453-6.822-5.68-11.502-5.68c-4.677,0-8.846,2.226-11.499,5.68
		C3.212,6.46,3.037,6.7,2.871,6.948C2.705,7.192,2.548,7.442,2.399,7.696C2.298,7.866,2.2,8.038,2.109,8.214
		C2.06,8.298,2.018,8.383,1.972,8.471C1.855,8.699,1.744,8.93,1.64,9.168C1.552,9.36,1.471,9.555,1.393,9.753
		c-0.225,0.57-0.414,1.159-0.563,1.764c-0.049,0.192-0.094,0.387-0.137,0.586c-0.098,0.472-0.173,0.957-0.221,1.445
		c-0.036,0.335-0.059,0.674-0.068,1.015c-0.007,0.159-0.01,0.319-0.01,0.482c0,3.317,1.12,6.376,3.001,8.82
		c2.653,3.45,6.822,5.68,11.499,5.68c4.68,0,8.846-2.23,11.499-5.68c1.885-2.444,3.001-5.504,3.001-8.82S28.278,8.67,26.396,6.225z"
		/>
	<g id="XMLID_6645_">
		<path id="XMLID_6659_" class="st0" d="M3.362,12.103l-2.89,1.445c0.049-0.488,0.124-0.973,0.221-1.445H3.362z"/>
		<path id="XMLID_6658_" class="st0" d="M6.796,6.225v2.688L2.871,6.948C3.037,6.7,3.212,6.46,3.395,6.225H6.796z"/>
		<path id="XMLID_6657_" class="st0" d="M3.362,9.168H1.64C1.744,8.93,1.855,8.699,1.972,8.471L3.362,9.168z"/>
		<polygon id="XMLID_6656_" class="st0" points="17.084,9.168 17.084,7.205 13.169,9.168 		"/>
		<polygon id="XMLID_6655_" class="st0" points="15.105,6.222 9.732,6.222 9.732,8.914 		"/>
		<polygon id="XMLID_6654_" class="st0" points="17.084,14.063 17.084,12.103 13.169,12.103 		"/>
		<polygon id="XMLID_6653_" class="st0" points="1.422,15.046 6.796,15.046 6.796,12.354 		"/>
		<polygon id="XMLID_6652_" class="st0" points="9.732,15.046 15.105,15.046 9.732,12.354 		"/>
		<path id="XMLID_6651_" class="st1" d="M17.087,7.205l-3.919,1.963h3.919v2.936h-3.919l3.919,1.959v0.332l-4.583-2.291H11.19
			l5.878,2.942h-1.963l-5.374-2.692v2.692H6.796v-2.692l-5.374,2.692h-0.66l5.881-2.942H5.325l-4.921,2.461
			c0.01-0.342,0.033-0.68,0.068-1.015l2.89-1.445H0.693c0.042-0.199,0.088-0.394,0.137-0.586c0.15-0.605,0.338-1.194,0.563-1.764
			c0.078-0.2,0.159-0.395,0.247-0.587h1.722l-1.39-0.697C2.018,8.383,2.06,8.298,2.109,8.214l1.904,0.954h1.319L2.399,7.696
			c0.15-0.254,0.306-0.504,0.472-0.749l3.926,1.966V6.225h2.935v2.688l5.374-2.688h0.654L9.878,9.168h1.318l5.881-2.942h0.01V7.205z
			"/>
		<path id="XMLID_6650_" class="st2" d="M5.332,9.168H4.013L2.109,8.214C2.2,8.038,2.298,7.866,2.399,7.696L5.332,9.168z"/>
		<polygon id="XMLID_6649_" class="st2" points="11.19,12.103 17.068,15.046 17.084,15.046 17.084,14.395 12.508,12.103 		"/>
		<polygon id="XMLID_6648_" class="st2" points="9.878,9.168 11.196,9.168 17.078,6.222 15.76,6.222 		"/>
		<path id="XMLID_6647_" class="st2" d="M6.643,12.103l-5.881,2.942H0.394c0-0.163,0.003-0.322,0.01-0.482l4.921-2.461h1.318V12.103
			z"/>
		<path id="XMLID_6646_" class="st2" d="M17.087,9.753v1.764H9.146v3.528H7.382v-3.528H0.83c0.15-0.605,0.338-1.194,0.563-1.764
			h5.989V6.225h1.764v3.528H17.087z"/>
	</g>
	<polygon id="XMLID_6644_" class="st1" points="8.261,20.66 7.115,21.842 7.323,20.208 5.686,20.045 7.092,19.192 6.194,17.809 
		7.74,18.375 8.261,16.813 8.785,18.375 10.327,17.809 9.433,19.192 10.838,20.045 9.201,20.208 9.409,21.842 	"/>
	<polygon id="XMLID_6643_" class="st1" points="22.715,21.506 22.165,22.073 22.266,21.288 21.481,21.213 22.155,20.803 
		21.726,20.143 22.464,20.413 22.715,19.664 22.966,20.413 23.704,20.143 23.275,20.803 23.949,21.213 23.164,21.288 23.265,22.073 
			"/>
	<polygon id="XMLID_6642_" class="st1" points="19.584,14.522 19.034,15.085 19.132,14.304 18.347,14.225 19.021,13.819 
		18.594,13.155 19.333,13.428 19.584,12.679 19.831,13.428 20.573,13.155 20.144,13.819 20.817,14.225 20.033,14.304 20.131,15.085 
			"/>
	<polygon id="XMLID_6641_" class="st1" points="22.715,9.744 22.165,10.307 22.263,9.526 21.481,9.447 22.152,9.041 21.726,8.377 
		22.464,8.65 22.715,7.901 22.962,8.65 23.704,8.377 23.275,9.041 23.949,9.447 23.164,9.526 23.262,10.307 	"/>
	<polygon id="XMLID_6640_" class="st1" points="26.627,13.343 26.08,13.91 26.178,13.125 25.394,13.05 26.067,12.64 25.638,11.98 
		26.38,12.25 26.627,11.501 26.878,12.25 27.617,11.98 27.19,12.64 27.864,13.05 27.08,13.125 27.177,13.91 	"/>
	<polygon id="XMLID_6639_" class="st1" points="24.479,16.097 24.033,16.396 24.18,15.879 23.757,15.547 24.294,15.524 
		24.479,15.023 24.665,15.524 25.202,15.547 24.782,15.879 24.925,16.396 	"/>
</g>
<path class="st3" d="M14.894,29.572c-2.418,0-4.811-0.604-6.917-1.748c-0.531-0.285-1.055-0.612-1.555-0.972
	c-0.624-0.446-1.231-0.962-1.803-1.532c-1.555-1.555-2.707-3.383-3.424-5.433c-0.549-1.561-0.828-3.19-0.828-4.843
	c0-1.665,0.278-3.293,0.828-4.842c0.718-2.053,1.87-3.882,3.424-5.436C5.17,4.215,5.777,3.699,6.422,3.233
	c0.502-0.361,1.025-0.688,1.556-0.971c2.08-1.125,4.431-1.728,6.799-1.744h0.234c2.376,0.016,4.728,0.618,6.8,1.741
	c0.533,0.29,1.058,0.618,1.559,0.975c0.651,0.47,1.258,0.986,1.803,1.534c1.549,1.548,2.701,3.377,3.424,5.436l0,0
	c0.549,1.552,0.826,3.181,0.825,4.84c0,1.656-0.277,3.286-0.825,4.843c-0.722,2.056-1.874,3.883-3.424,5.433
	c-0.556,0.56-1.162,1.077-1.803,1.537c-0.509,0.362-1.032,0.688-1.559,0.971C19.704,28.969,17.312,29.572,14.894,29.572z
	 M14.777,0.618c-2.351,0.017-4.686,0.615-6.752,1.732C7.499,2.632,6.979,2.957,6.48,3.314C5.84,3.777,5.237,4.289,4.689,4.837
	c-1.543,1.544-2.687,3.36-3.399,5.399c-0.546,1.538-0.823,3.156-0.823,4.809c0,1.642,0.277,3.26,0.823,4.81
	c0.711,2.035,1.855,3.851,3.399,5.396c0.569,0.566,1.171,1.078,1.792,1.521c0.497,0.357,1.016,0.683,1.544,0.966
	c2.092,1.136,4.468,1.736,6.87,1.736s4.777-0.6,6.87-1.733c0.521-0.28,1.042-0.604,1.547-0.965c0.636-0.456,1.238-0.97,1.791-1.525
	c1.539-1.539,2.683-3.354,3.4-5.396c0.543-1.546,0.819-3.164,0.819-4.81c0.001-1.648-0.274-3.266-0.819-4.807l0,0
	c-0.719-2.044-1.862-3.861-3.4-5.398c-0.542-0.543-1.145-1.056-1.791-1.523c-0.497-0.355-1.018-0.681-1.547-0.968
	c-2.059-1.115-4.394-1.713-6.753-1.729H14.777z"/>
</svg>
