<?xml version="1.0" encoding="utf-8"?>
<!-- Generator: Adobe Illustrator 23.0.2, SVG Export Plug-In . SVG Version: 6.00 Build 0)  -->
<svg version="1.1" id="Layer_1" xmlns="http://www.w3.org/2000/svg" xmlns:xlink="http://www.w3.org/1999/xlink" x="0px" y="0px"
	 viewBox="0 0 30 30" style="enable-background:new 0 0 30 30;" xml:space="preserve">
<style type="text/css">
	.st0{fill:#D42E27;}
	.st1{fill:#FFFFFF;}
	.st2{fill:#C7C8CA;}
</style>
<g id="XMLID_6299_">
	<g id="XMLID_6302_">
		<path id="XMLID_6307_" class="st0" d="M4.231,5.37v19.316c-2.3-2.563-3.699-5.95-3.699-9.658C0.532,11.323,1.931,7.937,4.231,5.37
			z"/>
		<path id="XMLID_6306_" class="st1" d="M25.837,5.374v19.313c-2.654,2.97-6.516,4.84-10.803,4.84s-8.149-1.87-10.803-4.84V5.37
			c2.654-2.967,6.516-4.84,10.803-4.84S23.183,2.404,25.837,5.374z"/>
		<path id="XMLID_6303_" class="st0" d="M29.533,15.028c0,3.708-1.399,7.091-3.695,9.658V5.374
			C28.134,7.94,29.533,11.323,29.533,15.028z"/>
	</g>
	<path id="XMLID_6300_" class="st0" d="M19.4,18.389l4.089-3.321l-0.953-0.41c-0.134-0.055-0.205-0.202-0.166-0.342l0.758-2.716
		l-2.456,0.527c-0.156,0.033-0.309-0.065-0.345-0.218l-0.267-1.155l-1.988,2.209c-0.241,0.267-0.68,0.042-0.608-0.309l0.914-4.479
		l-1.327,0.68c-0.195,0.101-0.436,0.026-0.54-0.169L15.034,5.95l-1.477,2.736c-0.108,0.195-0.345,0.27-0.544,0.169l-1.327-0.68
		l0.914,4.479c0.075,0.351-0.364,0.576-0.605,0.309l-1.991-2.209l-0.267,1.155c-0.036,0.153-0.189,0.25-0.342,0.218L6.937,11.6
		l0.758,2.716c0.039,0.14-0.033,0.286-0.163,0.342l-0.956,0.41l4.089,3.321c0.185,0.153,0.257,0.4,0.179,0.628l-0.368,1.054
		l3.962-0.524c0.192-0.026,0.364,0.127,0.358,0.322l-0.117,4.239h0.706l-0.117-4.239c-0.003-0.195,0.166-0.348,0.358-0.322
		l3.965,0.524l-0.368-1.054C19.143,18.789,19.214,18.541,19.4,18.389z"/>
</g>
<path class="st2" d="M15.033,29.554c-2.418,0-4.811-0.604-6.917-1.748c-0.536-0.288-1.06-0.614-1.556-0.971
	c-0.631-0.452-1.237-0.968-1.803-1.533c-1.555-1.553-2.707-3.381-3.424-5.433c-0.549-1.561-0.827-3.189-0.827-4.842
	c0-1.664,0.278-3.293,0.827-4.843C2.052,8.13,3.204,6.302,4.758,4.749c0.549-0.55,1.156-1.065,1.803-1.533
	c0.5-0.359,1.024-0.686,1.556-0.97c2.08-1.125,4.431-1.729,6.799-1.745h0.235c2.376,0.016,4.728,0.618,6.799,1.741
	c0.536,0.292,1.061,0.62,1.559,0.975c0.645,0.465,1.252,0.98,1.804,1.533c1.549,1.548,2.701,3.377,3.424,5.436l0,0
	c0.547,1.551,0.824,3.18,0.824,4.841c0,1.659-0.277,3.288-0.824,4.842c-0.722,2.055-1.873,3.883-3.424,5.433
	c-0.557,0.561-1.164,1.078-1.804,1.537c-0.503,0.359-1.027,0.686-1.559,0.971C19.844,28.95,17.452,29.554,15.033,29.554z
	 M14.916,0.601c-2.352,0.017-4.687,0.616-6.752,1.733C7.635,2.617,7.116,2.941,6.619,3.297C5.977,3.761,5.375,4.273,4.828,4.819
	c-1.542,1.542-2.687,3.358-3.4,5.398c-0.545,1.539-0.822,3.157-0.822,4.81c0,1.641,0.277,3.259,0.822,4.809
	c0.712,2.037,1.856,3.853,3.4,5.396c0.562,0.562,1.165,1.073,1.791,1.521c0.492,0.354,1.012,0.679,1.544,0.965
	c2.092,1.136,4.468,1.736,6.87,1.736c2.402,0,4.777-0.6,6.869-1.733c0.527-0.283,1.048-0.607,1.547-0.965
	c0.636-0.455,1.238-0.969,1.792-1.525c1.539-1.54,2.684-3.354,3.4-5.396c0.543-1.543,0.818-3.161,0.818-4.809
	c0-1.65-0.275-3.267-0.818-4.808l0,0c-0.719-2.044-1.862-3.861-3.4-5.398c-0.549-0.548-1.151-1.06-1.792-1.522
	c-0.494-0.353-1.015-0.679-1.547-0.968c-2.058-1.115-4.393-1.713-6.752-1.729H14.916z"/>
</svg>
