<svg version="1.1" role="img" aria-label="Clarion Pointe" id="clarion-point-logo" xmlns="http://www.w3.org/2000/svg" xmlns:xlink="http://www.w3.org/1999/xlink" x="0px" y="0px"
	 viewBox="0 0 500 500" style="enable-background:new 0 0 500 500;" xml:space="preserve">
<style type="text/css">
	.st0{fill:#083B5C;}
	.st1{fill:#FFFFFF;}
	.st2{fill:#00A2B7;}
	.st3{fill:none;stroke:#FFFFFF;stroke-width:0.2027;stroke-miterlimit:10;}
</style>
<path class="st0" d="M63.09,0.09h374c63,0,63,63,63,63v374c0,63-63,63-63,63h-374c-63,0-63-63-63-63v-374
	C0.09,0.09,63.09,0.09,63.09,0.09L63.09,0.09z"/>
<path class="st1" d="M62.99,329.15c0-19.17,14.54-33.97,34.1-33.97c12.48,0,23.55,6.56,29.08,16.47l-16.86,9.78
	c-2.19-4.5-6.82-7.21-12.48-7.21c-8.36,0-14.54,6.05-14.54,14.93c0,8.88,6.18,14.93,14.54,14.93c5.66,0,10.42-2.7,12.48-7.21
	l16.86,9.65c-5.53,10.04-16.47,16.6-29.08,16.6C77.54,363.12,62.99,348.32,62.99,329.15"/>
<path class="st1" d="M130.89,267.38h19.3v93.93h-19.3V267.38L130.89,267.38z"/>
<path class="st1" d="M205.23,329.15c0-9.65-6.43-15.7-15.31-15.7c-8.88,0-15.31,6.05-15.31,15.7c0,9.65,6.43,15.7,15.31,15.7
	C198.79,344.85,205.23,338.8,205.23,329.15 M224.53,296.98v64.34h-19.3v-6.05c-4.25,4.89-10.55,7.85-19.17,7.85
	c-16.86,0-30.75-14.8-30.75-33.97c0-19.17,13.9-33.97,30.75-33.97c8.62,0,14.93,2.96,19.17,7.85v-6.05H224.53L224.53,296.98z"/>
<path class="st1" d="M269.77,295.69v21.88c-7.98-1.29-19.3,1.93-19.3,14.67v29.08h-19.3v-64.34h19.3v11.45
	C253.04,299.81,261.66,295.69,269.77,295.69"/>
<path class="st1" d="M276,296.98h19.3v64.34H276V296.98L276,296.98z M274.07,279.74c0-6.3,5.28-11.58,11.58-11.58
	c6.31,0,11.58,5.28,11.58,11.58c0,6.31-5.28,11.58-11.58,11.58C279.35,291.32,274.07,286.04,274.07,279.74"/>
<path class="st1" d="M349.93,329.15c0-9.14-6.43-15.18-14.8-15.18c-8.36,0-14.8,6.05-14.8,15.18c0,9.13,6.43,15.18,14.8,15.18
	C343.49,344.33,349.93,338.28,349.93,329.15 M301.03,329.15c0-19.17,15.18-33.97,34.1-33.97c18.92,0,34.1,14.8,34.1,33.97
	c0,19.17-15.18,33.97-34.1,33.97C316.22,363.12,301.03,348.32,301.03,329.15"/>
<path class="st1" d="M437.19,321.81v39.5h-19.3v-36.67c0-7.98-5.02-11.71-11.19-11.71c-7.08,0-11.97,4.12-11.97,13.25v35.13h-19.3
	v-64.34h19.3v6.05c3.47-4.76,9.9-7.85,18.4-7.85C426.13,295.18,437.19,304.44,437.19,321.81"/>
<path class="st2" d="M292.16,94.23l-131.92,32.72c10.05-40.68,46.79-70.85,90.58-70.85c45.9,0,84.06,33.14,91.85,76.81
	c-33.62,9.27-124.25,37.25-124.25,18.59c0-18.16,73.75-39.67,73.75-39.67V94.23L292.16,94.23z"/>
<path class="st2" d="M291.33,186.97l49.12-11.57c-11.26,38.88-47.12,67.3-89.63,67.3c-51.53,0-93.3-41.77-93.3-93.3
	c0-4.18,0.28-8.29,0.81-12.33l67.63-16.31c0,0-53.08,25.14-44.7,57.83C190.8,215.79,291.33,186.97,291.33,186.97L291.33,186.97z"/>
<path class="st1" d="M339.46,442.14l0.49-0.08v-4.6l-0.63,0.05c-4.5,0.4-7.82,0.57-9.44-0.92c-0.96-0.88-1.4-2.38-1.4-4.74V407.4
	h11.48v-4.93h-11.48v-10.98l-5.09,1.49v9.48h-8.47v4.93h8.47v24.45c0,3.89,1,6.64,3.06,8.41c1.8,1.55,4.35,2.31,7.83,2.31
	C335.81,442.58,337.53,442.43,339.46,442.14L339.46,442.14z"/>
<path class="st1" d="M288.87,442.14h5.09v-24.53c0-9.71-6.09-15.99-15.53-15.99c-5.74,0-10.26,2.28-13.21,6.63v-5.78h-5.01v39.67
	h5.01v-20.92c0-9.23,4.82-14.75,12.9-14.75c6.72,0,10.74,4.16,10.74,11.13V442.14L288.87,442.14z"/>
<path class="st1" d="M235.27,390.65c0-1.94-1.68-3.58-3.66-3.58c-1.98,0-3.66,1.64-3.66,3.58c0,2.02,1.64,3.66,3.66,3.66
	C233.63,394.31,235.27,392.67,235.27,390.65L235.27,390.65z"/>
<path class="st1" d="M184.85,401.62c-11.68,0-20.83,9.08-20.83,20.68c0,11.6,9.15,20.69,20.83,20.69c11.64,0,20.76-9.09,20.76-20.69
	C205.61,410.71,196.49,401.62,184.85,401.62z M184.85,438.13c-8.83,0-15.75-6.95-15.75-15.83c0-8.87,6.92-15.83,15.75-15.83
	c8.79,0,15.67,6.95,15.67,15.83C200.52,431.18,193.64,438.13,184.85,438.13z"/>
<path class="st1" d="M234.11,402.47h-5.01v39.67h5.01V402.47L234.11,402.47z"/>
<path class="st1" d="M379.04,401.62c-11.9,0-20.53,8.7-20.53,20.68c0,11.99,8.76,20.69,20.84,20.69c7.54,0,13.85-3.28,17.29-8.99
	l0.3-0.5l-4.41-2.6l-0.29,0.53c-2.29,4.2-7.09,6.71-12.81,6.71c-8.32,0-14.54-5.29-15.67-13.24h34.81v-0.58
	c0-0.3,0.02-0.59,0.04-0.89c0.02-0.32,0.04-0.64,0.04-0.96C398.64,412.36,391.77,401.62,379.04,401.62z M363.74,419.95
	c1.01-7.97,7.21-13.48,15.3-13.48c7.68,0,13.39,5.39,14.37,13.48H363.74z"/>
<path class="st3" d="M393.41,419.95h-29.67c1.01-7.97,7.21-13.48,15.3-13.48C386.72,406.48,392.42,411.87,393.41,419.95
	L393.41,419.95z"/>
<path class="st3" d="M339.46,442.14l0.49-0.08v-4.6l-0.63,0.05c-4.5,0.4-7.82,0.57-9.44-0.92c-0.96-0.88-1.4-2.38-1.4-4.74V407.4
	h11.48v-4.93h-11.48v-10.98l-5.09,1.49v9.48h-8.47v4.93h8.47v24.45c0,3.89,1,6.64,3.06,8.41c1.8,1.55,4.35,2.31,7.83,2.31
	C335.81,442.58,337.53,442.43,339.46,442.14L339.46,442.14z"/>
<path class="st3" d="M288.87,442.14h5.09v-24.53c0-9.71-6.09-15.99-15.53-15.99c-5.74,0-10.26,2.28-13.21,6.63v-5.78h-5.01v39.67
	h5.01v-20.92c0-9.23,4.82-14.75,12.9-14.75c6.72,0,10.74,4.16,10.74,11.13V442.14L288.87,442.14z"/>
<path class="st3" d="M235.27,390.65c0-1.94-1.68-3.58-3.66-3.58c-1.98,0-3.66,1.64-3.66,3.58c0,2.02,1.64,3.66,3.66,3.66
	C233.63,394.31,235.27,392.67,235.27,390.65L235.27,390.65z"/>
<path class="st3" d="M205.61,422.3c0-11.6-9.12-20.68-20.76-20.68c-11.68,0-20.83,9.08-20.83,20.68c0,11.6,9.15,20.69,20.83,20.69
	C196.49,442.99,205.61,433.91,205.61,422.3L205.61,422.3z"/>
<path class="st3" d="M200.52,422.3c0,8.88-6.88,15.83-15.67,15.83c-8.83,0-15.75-6.95-15.75-15.83c0-8.87,6.92-15.83,15.75-15.83
	C193.64,406.48,200.52,413.43,200.52,422.3L200.52,422.3z"/>
<path class="st1" d="M122.54,401.62c-6.7,0-12.42,2.99-15.98,8.27v-7.42h-5.01v55.08h5.01v-22.83c3.56,5.28,9.28,8.27,15.98,8.27
	c11.51,0,20.53-9.09,20.53-20.69C143.07,410.71,134.05,401.62,122.54,401.62z M122.31,438.13c-8.83,0-15.75-6.95-15.75-15.83
	c0-8.87,6.92-15.83,15.75-15.83c8.83,0,15.75,6.95,15.75,15.83C138.06,431.18,131.14,438.13,122.31,438.13z"/>
<path class="st3" d="M106.56,422.3c0-8.87,6.92-15.83,15.75-15.83c8.83,0,15.75,6.95,15.75,15.83c0,8.88-6.92,15.83-15.75,15.83
	C113.48,438.13,106.56,431.18,106.56,422.3L106.56,422.3z"/>
<polygon class="st3" points="234.11,402.47 229.1,402.47 229.1,442.14 234.11,442.14 234.11,402.47 "/>
</svg>
