<svg id="Layer_1" xmlns="http://www.w3.org/2000/svg" viewBox="0 0 56 56">
  <style>
    .st1{fill:#fff}.st2{fill:#ff9b0f}
  </style>
  <switch>
    <g>
      <path id="Rectangle-Copy-2" d="M7.004-.011h42c3.9 0 7 3.1 7 7v42c0 3.9-3.1 7-7 7h-42c-3.9 0-7-3.1-7-7v-42c0-3.9 3.1-7 7-7z" fill="#00145f"/>
      <path class="st1" d="M20.159 41.692a2.571 2.571 0 0 0-.609-.853 2.69 2.69 0 0 0-.911-.546c-.35-.127-.722-.191-1.118-.191s-.768.064-1.118.191a2.68 2.68 0 0 0-.911.546c-.258.237-.461.521-.609.853s-.222.703-.222 1.113.074.781.222 1.112c.148.332.351.616.609.853s.562.419.911.546c.35.127.722.191 1.118.191s.768-.064 1.118-.191a2.68 2.68 0 0 0 .911-.546c.258-.237.461-.521.609-.853.148-.332.223-.703.223-1.112a2.72 2.72 0 0 0-.223-1.113zm-1.701 2.055c-.223.24-.535.36-.938.36s-.715-.12-.938-.36c-.222-.24-.334-.554-.334-.943 0-.388.111-.703.334-.943s.535-.36.938-.36.715.12.938.36.334.555.334.943c0 .389-.111.703-.334.943zM21.071 40.229h1.526v.699h.021c.049-.099.12-.198.212-.297s.201-.187.328-.265a1.825 1.825 0 0 1 .964-.265c.36 0 .68.074.959.223.279.148.489.382.63.699.184-.332.406-.569.667-.71s.583-.212.964-.212c.346 0 .637.058.874.175s.424.275.562.477c.138.201.237.438.297.71.06.272.09.563.09.874v3.041h-1.589V42.38c0-.24-.051-.447-.154-.62-.103-.173-.284-.26-.546-.26-.184 0-.338.03-.461.09a.756.756 0 0 0-.297.249c-.074.106-.127.23-.159.371s-.048.29-.048.445v2.723h-1.589v-2.723c0-.092-.004-.205-.011-.339s-.032-.261-.074-.381-.111-.223-.207-.307c-.095-.085-.235-.127-.419-.127a.982.982 0 0 0-.498.111c-.127.074-.224.173-.291.297s-.111.263-.132.419a3.633 3.633 0 0 0-.032.487v2.564h-1.589l.002-5.15zM30.8 41.501h-1.049v-1.272H30.8v-.911c0-.282.025-.549.074-.8s.145-.471.286-.662c.141-.191.344-.341.609-.45s.613-.164 1.044-.164c.162 0 .321.007.477.021.155.014.307.039.456.074l-.073 1.325-.255-.058a1.242 1.242 0 0 0-.265-.027c-.254 0-.445.055-.572.164-.127.11-.191.334-.191.673v.816h1.176v1.272H32.39v3.878H30.8v-3.879zM39.306 41.692a2.571 2.571 0 0 0-.609-.853 2.68 2.68 0 0 0-.911-.546c-.35-.127-.722-.191-1.118-.191s-.768.064-1.118.191a2.68 2.68 0 0 0-.911.546 2.557 2.557 0 0 0-.609.853c-.148.332-.222.703-.222 1.113s.074.781.222 1.112c.148.332.351.616.609.853s.562.419.911.546c.35.127.722.191 1.118.191.395 0 .768-.064 1.118-.191a2.68 2.68 0 0 0 .911-.546c.258-.237.461-.521.609-.853.148-.332.223-.703.223-1.112a2.72 2.72 0 0 0-.223-1.113zm-1.701 2.055c-.223.24-.535.36-.938.36s-.715-.12-.938-.36c-.222-.24-.334-.554-.334-.943 0-.388.111-.703.334-.943s.535-.36.938-.36.715.12.938.36c.222.24.334.555.334.943 0 .389-.112.703-.334.943zM40.306 40.229h1.589v.826h.021c.169-.318.371-.556.604-.715s.526-.238.879-.238c.092 0 .183.004.275.011.092.007.176.021.133.042v1.407l-.212-.035a2.243 2.243 0 0 0-.344-.026c-.304 0-.544.042-.721.127-.177.085-.313.203-.408.355s-.157.334-.185.546-.042.445-.042.699v2.151h-1.589v-5.15zM48.272 41.501h-1.399v1.716c0 .141.007.27.021.387s.046.217.095.302.125.15.228.196c.102.046.238.069.408.069a2.7 2.7 0 0 0 .334-.027.56.56 0 0 0 .313-.122v1.324c-.177.064-.36.106-.551.127a5.139 5.139 0 0 1-.562.032 3.03 3.03 0 0 1-.742-.085 1.687 1.687 0 0 1-.593-.27 1.258 1.258 0 0 1-.397-.482 1.653 1.653 0 0 1-.143-.72V41.5h-1.017v-1.272h1.017v-1.526h1.589v1.526h1.399v1.273zM12.472 43.832a1.868 1.868 0 0 1-.901.212c-.297 0-.574-.06-.832-.18s-.482-.288-.673-.503-.341-.47-.45-.763a2.739 2.739 0 0 1-.164-.97c0-.346.055-.667.164-.964.109-.297.261-.553.456-.768a2.068 2.068 0 0 1 1.552-.683c.311 0 .584.053.821.159.168.075.316.174.446.296l1.398-.909a2.55 2.55 0 0 0-.525-.489 3.061 3.061 0 0 0-.641-.339 3.594 3.594 0 0 0-.678-.186 3.953 3.953 0 0 0-.662-.058c-.586 0-1.127.092-1.621.275a3.726 3.726 0 0 0-1.282.789c-.36.343-.641.758-.842 1.245s-.302 1.031-.302 1.632c0 .6.101 1.144.302 1.632.201.487.482.902.842 1.245s.788.606 1.282.789a4.612 4.612 0 0 0 1.621.275c.516 0 1.017-.106 1.505-.318.48-.209.878-.531 1.194-.967l-1.444-.939a1.784 1.784 0 0 1-.566.487z"/>
      <path class="st2" d="M40.759 7.272c-1.686-1.443-3.581-2.391-5.487-2.847a11.334 11.334 0 0 0-2.993-.312c-2.131.067-4.151.772-5.777 2.1-.016.013-.029.028-.045.041l-.521.423-7.404 6.014a9.18 9.18 0 0 0-1.521 1.576c-1.162 1.533-1.807 3.357-1.965 5.269a12.006 12.006 0 0 0 .149 3.066c.523 2.976 2.138 5.924 4.713 8.127 1.686 1.442 3.58 2.389 5.486 2.845.231.055.461.103.692.143 2.136.379 4.261.142 6.11-.704a.448.448 0 0 0 .094-.058l7.985-6.486h-.001a.44.44 0 0 1-.089.054l-.001-.004c.255-.117.337-.44.183-.724a.657.657 0 0 0-.417-.327.497.497 0 0 0-.323.027c-1.671.765-3.596.98-5.53.637a9.933 9.933 0 0 1-.626-.129c-1.725-.412-3.435-1.269-4.964-2.576-2.332-1.995-3.789-4.656-4.264-7.353-.164-.93-.21-1.863-.135-2.775a9.708 9.708 0 0 1 .266-1.58h.001l-.001.002c.037-.005.074-.007.111-.008a10.27 10.27 0 0 1 2.71.283c1.726.413 3.435 1.268 4.964 2.575a.635.635 0 0 0 .262.136.478.478 0 0 0 .417-.084l7.971-6.479a.44.44 0 0 1-.162.073l-.039.006a.514.514 0 0 1-.199-.005l-.003-.001.003-.001a.514.514 0 0 0 .199.005l.039-.006a.438.438 0 0 0 .251-.158c.169-.222.107-.573-.139-.785z"/>
      <g>
        <path d="M32.837 14.623a.478.478 0 0 1-.417.084.635.635 0 0 1-.262-.136c-1.529-1.307-3.238-2.162-4.964-2.575a10.27 10.27 0 0 0-2.71-.283 1.036 1.036 0 0 0-.111.008 8.803 8.803 0 0 1 1.511-3.187 8.215 8.215 0 0 1 2.046-1.91c.067-.044.135-.084.203-.125.18-.111.364-.215.551-.311.074-.038.149-.077.224-.113.238-.113.479-.218.727-.309l.05-.02c.265-.095.536-.174.811-.243.079-.02.159-.036.238-.054a9.39 9.39 0 0 1 .877-.154c.284-.035.571-.062.861-.071.891-.029 1.803.066 2.71.283 1.726.413 3.435 1.267 4.964 2.575a.63.63 0 0 0 .262.136.514.514 0 0 0 .199.005l.039-.006a.44.44 0 0 0 .162-.073l-7.971 6.479z" fill="#ffb900"/>
        <path d="M32.29 32.955a.448.448 0 0 1-.094.058c-1.849.846-3.974 1.083-6.11.704-.231-.04-.461-.088-.692-.143-1.906-.456-3.8-1.403-5.486-2.845-2.575-2.203-4.19-5.151-4.713-8.127a12.006 12.006 0 0 1-.149-3.066c.158-1.912.803-3.736 1.965-5.269a9.18 9.18 0 0 1 1.521-1.576l7.404-6.014.567-.46c-.181.148-.35.314-.52.477-.089.085-.184.16-.269.249a9.155 9.155 0 0 0-1.126 1.422 9.616 9.616 0 0 0-.816 1.581c-.25.612-.439 1.248-.567 1.901-.032.162-.065.323-.089.486-.035.236-.062.473-.082.712a12.051 12.051 0 0 0 .149 3.066c.065.372.148.744.247 1.114.199.74.464 1.472.795 2.185a14.218 14.218 0 0 0 3.671 4.829c1.686 1.442 3.58 2.389 5.486 2.845a11.656 11.656 0 0 0 2.288.312 10.593 10.593 0 0 0 2.332-.179 9.642 9.642 0 0 0 2.183-.694.44.44 0 0 0 .089-.054h.001l-7.985 6.486z" fill="#ff5f03"/>
        <path class="st2" d="M40.898 8.057a.438.438 0 0 1-.251.158l-.039.006a.514.514 0 0 1-.199-.005.635.635 0 0 1-.262-.136c-1.529-1.307-3.238-2.162-4.964-2.575a10.27 10.27 0 0 0-2.71-.283c-.29.009-.577.036-.861.071-.084.01-.166.024-.249.036a8.795 8.795 0 0 0-.628.118c-.079.018-.159.034-.238.054a9.01 9.01 0 0 0-.811.243l-.05.02c-.248.091-.49.195-.727.309-.076.036-.15.075-.224.113-.187.096-.371.2-.551.311-.068.042-.136.081-.203.125a8.25 8.25 0 0 0-2.046 1.91 8.786 8.786 0 0 0-1.511 3.187 9.708 9.708 0 0 0-.266 1.58c-.075.912-.029 1.845.135 2.775.475 2.697 1.932 5.358 4.264 7.353 1.529 1.307 3.239 2.164 4.964 2.576.209.05.417.093.626.129 1.934.343 3.859.128 5.53-.637a.497.497 0 0 1 .323-.027c.167.04.324.156.417.327.154.284.072.607-.183.724a9.576 9.576 0 0 1-2.183.694 10.593 10.593 0 0 1-3.128.123 11.656 11.656 0 0 1-1.492-.256c-1.906-.456-3.8-1.403-5.486-2.845a14.24 14.24 0 0 1-3.671-4.829 13.52 13.52 0 0 1-.795-2.185 12.83 12.83 0 0 1-.247-1.114 12.006 12.006 0 0 1-.149-3.066c.02-.239.047-.477.082-.712.024-.163.057-.325.089-.486.128-.653.317-1.289.567-1.901a9.54 9.54 0 0 1 .816-1.581 9.293 9.293 0 0 1 1.126-1.422c.086-.089.181-.164.269-.249.171-.163.339-.33.52-.477 1.626-1.328 3.646-2.033 5.777-2.1.983-.031 1.99.072 2.993.312 1.906.456 3.801 1.404 5.487 2.847.245.212.308.563.139.785z"/>
      </g>
      <g>
        <path class="st1" d="M20.647 48.274h1.22v5.023h-1.22zM27.237 53.297l-2.021-3.284h-.022l.029 3.284h-1.178v-5.023h1.383l2.015 3.278h.021l-.028-3.278h1.178v5.023zM33.984 53.297l-2.022-3.284h-.021l.029 3.284h-1.178v-5.023h1.383l2.015 3.278h.021l-.028-3.278h1.178v5.023z"/>
      </g>
    </g>
  </switch>
</svg>
