<svg xmlns="http://www.w3.org/2000/svg" viewBox="0 0 411.73 170.8"><defs><style>.a{fill:#f57f29;}.b{fill:#ffce34;}.c{fill:#6a634d;}.d{fill:#aba596;}.e{fill:#231f20;}</style></defs>
<path class="a" d="M95.81,153.08V98.39h4.32v5a17.45,17.45,0,0,1,13.13-5.74,18.2,18.2,0,0,1,11.39,4,19.11,19.11,0,0,1,6.68,14.69A18.19,18.19,0,0,1,113,135a15.8,15.8,0,0,1-12.73-5.9v24Zm4.48-30.17c2.83,4.87,7.54,7.85,12.81,7.85a13.85,13.85,0,0,0,13.75-14.46,14.62,14.62,0,0,0-5-11.39,13.83,13.83,0,0,0-8.64-3.06,15.77,15.77,0,0,0-12.89,7.22Z"/>
<path class="a" d="M159.39,101.92a21,21,0,0,0-2.12-.08A12.48,12.48,0,0,0,146,109.78v24.44h-4.48V98.39H146v4.71a13.78,13.78,0,0,1,11.32-5.5c.62,0,2.2.08,2.67.16Z"/>
<path class="a" d="M171.26,82a4,4,0,0,1,4,4,4,4,0,0,1-4,3.93A3.89,3.89,0,0,1,167.33,86a4,4,0,0,1,3.93-4m-2.2,16.43h4.48v35.83h-4.48Z"/><polygon class="a" points="198.05 134.22 181.39 98.39 186.27 98.39 199.47 126.99 212.67 98.39 217.54 98.39 200.96 134.22 198.05 134.22"/>
<path class="a" d="M227.6,82a4,4,0,0,1,4,4,4,4,0,0,1-4,3.93A3.89,3.89,0,0,1,223.67,86a4,4,0,0,1,3.93-4m-2.2,16.43h4.48v35.83H225.4Z"/><rect class="a" x="243.24" y="78.43" width="4.48" height="55.79"/>
<path class="a" d="M290.55,128.41a18.58,18.58,0,0,1-14.62,6.6c-10.05,0-18-7.55-18-18.7,0-10.3,7-18.71,17.13-18.71,9.59,0,16.66,7.54,16.66,17.53a13.33,13.33,0,0,1-.08,1.57H262.42c.31,7.62,5.26,14.06,13.51,14.06a14.32,14.32,0,0,0,11.48-5.34Zm-27.9-15.8h24.44c-.94-6.29-5.81-10.77-12-10.77-6.37,0-11.08,4.56-12.42,10.77"/>
<path class="a" d="M332.75,145.62c-2.59,4.87-7.7,8.25-15.56,8.25a19.07,19.07,0,0,1-16.27-8.57l3.54-2.59a14.57,14.57,0,0,0,12.81,6.91c6.05,0,9.74-2.59,11.55-6.13,1.1-2.2,1.42-4.79,1.42-9.27v-5.1A15.83,15.83,0,0,1,317.51,135a18.19,18.19,0,0,1-18.31-18.7,19.11,19.11,0,0,1,6.68-14.7,18.2,18.2,0,0,1,11.39-4,17.41,17.41,0,0,1,13.12,5.74v-5h4.33v35.67c0,5.27-.48,8.73-2,11.56m-2.51-36.55a15.79,15.79,0,0,0-12.89-7.23,13.84,13.84,0,0,0-8.64,3.07,14.63,14.63,0,0,0-5,11.4,13.83,13.83,0,0,0,13.75,14.45c5.26,0,10-3,12.81-7.85Z"/>
<path class="a" d="M377.55,128.41a18.59,18.59,0,0,1-14.62,6.6c-10.06,0-18-7.55-18-18.7,0-10.3,7-18.71,17.13-18.71,9.58,0,16.66,7.54,16.66,17.53a13.33,13.33,0,0,1-.08,1.57H349.41c.32,7.62,5.27,14.06,13.52,14.06a14.31,14.31,0,0,0,11.47-5.34Zm-27.9-15.8h24.44c-.94-6.29-5.82-10.77-12-10.77-6.37,0-11.09,4.56-12.42,10.77"/>
<path class="a" d="M388.16,126.44A16.92,16.92,0,0,0,399,130.76c4.48,0,8.25-2.51,8.25-6.28,0-9.2-20.66-4.17-20.66-16.43,0-6.52,6.13-10.45,12.18-10.45a20.74,20.74,0,0,1,11.55,3.46L408,104.75c-3.06-2-5.26-2.91-9-2.91s-7.94,2-7.94,6.14c0,7.93,20.67,3.69,20.67,16.26,0,6.68-5.65,10.77-12.41,10.77a20.29,20.29,0,0,1-13.91-5.11Z"/>
<path class="b" d="M40.74,0V35.79h0a31.09,31.09,0,0,0,31.09-31V0Z"/>
<path class="b" d="M71.85,73.68V37.89h0a31.1,31.1,0,0,0-31.09,31v4.82Z"/>
<path class="a" d="M30.11,73.68A37.59,37.59,0,0,1,30.11,0Z"/>
<path class="c" d="M124.79,66.67c-10.26,0-18.45-3.15-24.35-9.34a29,29,0,0,1-8-20.75,31.2,31.2,0,0,1,8.69-22.25C107.6,7.49,116.37,4,127.21,4A38.94,38.94,0,0,1,144.8,7.87a.64.64,0,0,1,.36.58V21.2a.63.63,0,0,1-.53.63l-.13,0a.62.62,0,0,1-.59-.42c-3.08-7.66-9.14-11.37-18.54-11.37-7.24,0-13.06,2.59-17.28,7.67a25.75,25.75,0,0,0-5.85,17.08,26.47,26.47,0,0,0,6,17.51c4.43,5.27,10.51,7.93,18.07,7.93,7.18,0,13.67-3,19.25-8.93a.68.68,0,0,1,.48-.2.85.85,0,0,1,.23,0,.65.65,0,0,1,.41.61v5.71a.66.66,0,0,1-.19.46c-5.57,5.78-12.88,8.72-21.73,8.72"/>
<path class="c" d="M247.56,10c-8.62,0-15.78,2.77-21.3,8.24A28,28,0,0,0,218,38.85c0,8,2.62,14.71,7.78,19.89s12,7.81,20.26,7.81c8.68,0,15.88-2.83,21.39-8.43,5.34-5.4,8-12.27,8-20.44,0-8-2.59-14.71-7.7-19.89S255.84,10,247.56,10M266.7,39.49c0,6.22-1.77,11.33-5.29,15.18a17.74,17.74,0,0,1-13.68,5.75,19.13,19.13,0,0,1-15.09-6.6c-3.84-4.42-5.78-10.22-5.78-17.24,0-6.12,1.76-11.13,5.24-14.87s8.09-5.6,13.73-5.6c6.26,0,11.35,2.19,15.13,6.53s5.74,10,5.74,16.85"/>
<path class="c" d="M296.59,16.89c0-.13,0-.28,0-.41A4.22,4.22,0,0,1,299.94,13l.1,0a.92.92,0,0,0,.67-.95.9.9,0,0,0-.9-.83H284.59a.91.91,0,0,0-.9.83.92.92,0,0,0,.73.95l0,0a4.21,4.21,0,0,1,3.37,4.11V59.5a4.19,4.19,0,0,1-3.39,4.11s0,0,0,0a.55.55,0,0,0-.38.18,1,1,0,0,0-.26.73.9.9,0,0,0,.9.83h15.14a.91.91,0,0,0,.91-.9.77.77,0,0,0-.63-.82s-.06,0-.09,0a4.19,4.19,0,0,1-3.45-4.11V17.14c0-.09,0-.17,0-.25"/>
<path class="c" d="M357.57,52.16a.89.89,0,0,0-1,.22c-4.93,5.23-10.64,7.88-17,7.88-6.67,0-12-2.34-15.9-7a23.32,23.32,0,0,1-5.33-15.45,22.65,22.65,0,0,1,5.16-15c3.71-4.49,8.83-6.75,15.21-6.75C347,16,352.32,19.29,355,26a.89.89,0,0,0,1,.55.91.91,0,0,0,.72-.89V14.26a.88.88,0,0,0-.5-.8A35.05,35.05,0,0,0,340.39,10c-9.78,0-17.71,3.14-23.57,9.32A28.23,28.23,0,0,0,309,39.4a26.2,26.2,0,0,0,7.25,18.78c5.34,5.6,12.74,8.45,22,8.45,8,0,14.61-2.65,19.67-7.9a.93.93,0,0,0,.25-.63V53a.88.88,0,0,0-.57-.83"/>
<path class="c" d="M408.91,51.58a.92.92,0,0,0-1.09.52,2.69,2.69,0,0,1-.17.34,10.87,10.87,0,0,1-10.13,7.11H380v-19h16.22c3.38,0,5.18,1,5.5,2.94a.92.92,0,0,0,.89.76h.08a.92.92,0,0,0,.84-.9V32.1a.91.91,0,0,0-.82-.9.89.89,0,0,0-1,.7c-.42,2-2.25,3-5.6,3H380V16.4h18.28a7.62,7.62,0,0,1,7.45,6.18.37.37,0,0,1,.05.11,1,1,0,0,0,.88.71h.1a.9.9,0,0,0,.81-.9V12.13a.91.91,0,0,0-.9-.9H367.64a.9.9,0,0,0-.91.84.92.92,0,0,0,.75,1h.12a4.2,4.2,0,0,1,3.61,4.13V59.44a4.19,4.19,0,0,1-3.27,4.08h0l-.1,0h-.07a.91.91,0,0,0,.14,1.8h38.78a.89.89,0,0,0,.89-.75l2-12a.9.9,0,0,0-.64-1"/>
<path class="c" d="M206.7,17.14A4.2,4.2,0,0,1,210,13l0,0a.91.91,0,0,0,.7-.94.92.92,0,0,0-.91-.84H194.66a.9.9,0,0,0-.18,1.78l0,0a4.17,4.17,0,0,1,3.3,4.11V34.88H168.16V17.33h0v-.18A4.21,4.21,0,0,1,171.62,13l0,0a.86.86,0,0,0,.64-.92.9.9,0,0,0-.9-.84H156.1a.9.9,0,0,0-.24,1.77,2.41,2.41,0,0,1,.39.12,4.15,4.15,0,0,1,3,3.45c0,.13,0,.28,0,.42s0,.1,0,.15v42h0v.27a4.2,4.2,0,0,1-3.25,4.06v0l-.34.14a.87.87,0,0,0-.55.89.9.9,0,0,0,.89.83h15.3a.89.89,0,0,0,.9-.83.87.87,0,0,0-.56-.9l-.34-.12v0a4.2,4.2,0,0,1-3.22-4.06V59s0,0,0-.05V40.7h29.66s0,17.94,0,18.27a5.11,5.11,0,0,1-.2,1.89,4.24,4.24,0,0,1-3,2.64l-.35.15a.92.92,0,0,0-.52.89.9.9,0,0,0,.9.83h15.22a.91.91,0,0,0,.91-.9.9.9,0,0,0-.5-.81l-.36-.17a4.2,4.2,0,0,1-3.23-4.06Z"/>
<path class="d" d="M142.09,155.05H149a6.24,6.24,0,0,1,4.48,1.55,4.69,4.69,0,0,1,1.28,3.35v0a4.66,4.66,0,0,1-3.68,4.71l4.19,5.88h-3.23l-3.82-5.42h-3.42v5.42h-2.73Zm6.73,7.7c2,0,3.19-1,3.19-2.6v-.05c0-1.66-1.2-2.57-3.22-2.57h-4v5.22Z"/>
<path class="d" d="M160.58,155.05h11.51v2.44h-8.78v4h7.78V164h-7.78v4.17h8.89v2.44H160.58Z"/>
<path class="d" d="M176.69,155.05h2.95l3.7,11.51L187.16,155h2.31l3.81,11.56L197,155.05h2.86l-5.39,15.64h-2.38l-3.81-11.16-3.82,11.16H182.1Z"/>
<path class="d" d="M207.68,154.94h2.53l6.84,15.64h-2.89l-1.57-3.75h-7.35l-1.59,3.75h-2.8Zm3.91,9.47-2.69-6.21-2.66,6.21Z"/>
<path class="d" d="M221.93,155.05h6.92a6.24,6.24,0,0,1,4.48,1.55,4.7,4.7,0,0,1,1.29,3.35v0a4.66,4.66,0,0,1-3.68,4.71l4.19,5.88h-3.24l-3.82-5.42h-3.41v5.42h-2.73Zm6.72,7.7c1.95,0,3.2-1,3.2-2.6v-.05c0-1.66-1.2-2.57-3.22-2.57h-4v5.22Z"/>
<path class="d" d="M240.19,155.05H246c4.88,0,8.25,3.35,8.25,7.72v0c0,4.37-3.37,7.77-8.25,7.77h-5.79Zm2.73,2.48v10.56H246a5.06,5.06,0,0,0,5.39-5.23v-.05a5.1,5.1,0,0,0-5.39-5.28Z"/>
<path class="d" d="M258.48,168.31l1.64-1.95a7.16,7.16,0,0,0,4.9,2c1.69,0,2.75-.8,2.75-1.95v-.05c0-1.11-.62-1.7-3.5-2.37-3.31-.8-5.17-1.78-5.17-4.64v0c0-2.66,2.21-4.51,5.3-4.51a8.57,8.57,0,0,1,5.63,2l-1.46,2.06a7.09,7.09,0,0,0-4.22-1.6c-1.59,0-2.53.82-2.53,1.84v0c0,1.2.71,1.73,3.71,2.44,3.28.8,5,2,5,4.55v0c0,2.91-2.29,4.64-5.55,4.64A9.52,9.52,0,0,1,258.48,168.31Z"/>
<path class="e" d="M272.27,169.23a1.54,1.54,0,0,1,.12-.61,1.7,1.7,0,0,1,.34-.5,1.56,1.56,0,0,1,.5-.33,1.47,1.47,0,0,1,1.21,0,1.56,1.56,0,0,1,.5.33,1.7,1.7,0,0,1,.34.5,1.61,1.61,0,0,1,0,1.22,1.58,1.58,0,0,1-.34.5,1.56,1.56,0,0,1-.5.33,1.47,1.47,0,0,1-1.21,0,1.56,1.56,0,0,1-.5-.33,1.58,1.58,0,0,1-.34-.5A1.54,1.54,0,0,1,272.27,169.23Zm.28,0a1.31,1.31,0,0,0,.37.91,1.42,1.42,0,0,0,.41.28,1.25,1.25,0,0,0,.51.1,1.24,1.24,0,0,0,.5-.1,1.42,1.42,0,0,0,.41-.28,1.31,1.31,0,0,0,.37-.91,1.21,1.21,0,0,0-.1-.5,1.17,1.17,0,0,0-.27-.41,1.42,1.42,0,0,0-.41-.28,1.33,1.33,0,0,0-1,0,1.42,1.42,0,0,0-.41.28,1.17,1.17,0,0,0-.27.41A1.21,1.21,0,0,0,272.55,169.23Zm.68-.9h.69a.71.71,0,0,1,.48.13.54.54,0,0,1,.16.4.45.45,0,0,1-.13.36.53.53,0,0,1-.3.14l.46.76h-.34l-.45-.74h-.24v.74h-.33Zm.33.78H274l.14,0a.25.25,0,0,0,.1-.08.26.26,0,0,0,0-.14.29.29,0,0,0,0-.14.23.23,0,0,0-.1-.07.32.32,0,0,0-.14,0h-.39Z"/>
</svg>