<?xml version="1.0" encoding="utf-8"?>
<!-- Generator: Adobe Illustrator 23.0.2, SVG Export Plug-In . SVG Version: 6.00 Build 0)  -->
<svg version="1.1" id="Layer_1" xmlns="http://www.w3.org/2000/svg" xmlns:xlink="http://www.w3.org/1999/xlink" x="0px" y="0px"
	 viewBox="0 0 30 30" style="enable-background:new 0 0 30 30;" xml:space="preserve">
<style type="text/css">
	.st0{fill:#010101;}
	.st1{fill:#DA1F26;}
	.st2{fill:#FECE1B;}
	.st3{fill:#C7C8CA;}
</style>
<g id="XMLID_2406_">
	<path id="XMLID_2409_" class="st0" d="M14.93,0.576c-6.302,0-11.678,4.039-13.67,9.667H28.6C26.605,4.615,21.231,0.576,14.93,0.576
		z"/>
	<path id="XMLID_2408_" class="st1" d="M29.43,15.076c0-1.696-0.293-3.323-0.83-4.833H1.26c-0.537,1.51-0.83,3.138-0.83,4.833
		c0,1.692,0.293,3.32,0.83,4.833H28.6C29.137,18.395,29.43,16.768,29.43,15.076z"/>
	<path id="XMLID_2407_" class="st2" d="M1.26,19.909c1.992,5.624,7.368,9.667,13.67,9.667c6.301,0,11.675-4.042,13.67-9.667H1.26z"
		/>
</g>
<path class="st3" d="M14.929,29.603c-2.418,0-4.811-0.604-6.917-1.748c-0.531-0.284-1.054-0.61-1.556-0.971
	c-0.629-0.451-1.236-0.967-1.803-1.532c-1.555-1.554-2.707-3.382-3.424-5.433c-0.549-1.562-0.827-3.19-0.827-4.843
	c0-1.664,0.278-3.293,0.827-4.843C1.948,8.181,3.1,6.352,4.655,4.797c0.554-0.554,1.161-1.069,1.803-1.531
	c0.5-0.359,1.024-0.687,1.556-0.972c2.079-1.125,4.43-1.729,6.799-1.745h0.234c2.377,0.016,4.728,0.618,6.8,1.741
	c0.534,0.291,1.059,0.619,1.559,0.976c0.649,0.469,1.256,0.985,1.803,1.532c1.549,1.549,2.701,3.377,3.424,5.436l0,0
	c0.549,1.553,0.826,3.183,0.824,4.842c0,1.656-0.277,3.286-0.825,4.843c-0.722,2.056-1.874,3.883-3.424,5.433
	c-0.554,0.558-1.16,1.074-1.803,1.536c-0.507,0.361-1.03,0.688-1.559,0.972C19.738,29,17.347,29.603,14.929,29.603z M14.813,0.649
	c-2.352,0.017-4.687,0.616-6.752,1.733C7.533,2.666,7.013,2.99,6.516,3.347c-0.638,0.458-1.24,0.97-1.791,1.521
	c-1.544,1.544-2.688,3.361-3.401,5.399c-0.545,1.539-0.822,3.157-0.822,4.81c0,1.641,0.277,3.259,0.822,4.81
	c0.712,2.036,1.856,3.852,3.4,5.396c0.563,0.562,1.166,1.073,1.791,1.521c0.498,0.358,1.017,0.683,1.544,0.965
	c2.092,1.136,4.468,1.736,6.87,1.736c2.401,0,4.777-0.6,6.87-1.732c0.523-0.281,1.044-0.606,1.547-0.966
	c0.639-0.458,1.241-0.971,1.791-1.524c1.539-1.539,2.683-3.354,3.4-5.396c0.543-1.546,0.819-3.164,0.819-4.81
	c0.002-1.648-0.273-3.266-0.818-4.809l0,0c-0.719-2.044-1.862-3.86-3.4-5.398c-0.543-0.543-1.146-1.055-1.791-1.521
	c-0.496-0.354-1.017-0.68-1.547-0.969c-2.059-1.115-4.394-1.712-6.753-1.729H14.813z"/>
</svg>
