<?xml version="1.0" encoding="utf-8"?>
<!-- Generator: Adobe Illustrator 23.0.2, SVG Export Plug-In . SVG Version: 6.00 Build 0)  -->
<svg version="1.1" id="Layer_1" xmlns="http://www.w3.org/2000/svg" xmlns:xlink="http://www.w3.org/1999/xlink" x="0px" y="0px"
	 viewBox="0 0 30 30" style="enable-background:new 0 0 30 30;" xml:space="preserve">
<style type="text/css">
	.st0{fill:#293688;}
	.st1{fill:#EB2D39;}
	.st2{fill:#FFFFFF;}
	.st3{fill:#C7C8CA;}
</style>
<path id="XMLID_5537_" class="st0" d="M0.551,15.093c0,6.301,4.039,11.675,9.667,13.67V1.423C4.59,3.415,0.551,8.792,0.551,15.093z"
	/>
<path id="XMLID_5536_" class="st1" d="M29.551,15.093c0-6.301-4.042-11.678-9.667-13.67v27.34
	C25.509,26.768,29.551,21.394,29.551,15.093z"/>
<path id="XMLID_5535_" class="st2" d="M15.051,0.593c-1.696,0-3.323,0.293-4.834,0.83v27.34c1.51,0.537,3.138,0.83,4.834,0.83
	c1.692,0,3.32-0.293,4.833-0.83V1.423C18.371,0.886,16.744,0.593,15.051,0.593z"/>
<path class="st3" d="M15.051,29.62c-2.419,0-4.811-0.604-6.917-1.748c-0.531-0.285-1.054-0.611-1.556-0.971
	c-0.631-0.452-1.237-0.968-1.803-1.533c-1.556-1.556-2.708-3.384-3.424-5.433c-0.549-1.561-0.827-3.189-0.827-4.843
	c0-1.664,0.278-3.292,0.827-4.842c0.718-2.053,1.87-3.881,3.424-5.436c0.548-0.55,1.155-1.066,1.803-1.534
	c0.501-0.36,1.025-0.687,1.557-0.97c2.08-1.125,4.431-1.729,6.799-1.745h0.234c2.376,0.016,4.728,0.618,6.8,1.741
	c0.54,0.294,1.064,0.623,1.559,0.976c0.647,0.467,1.254,0.983,1.803,1.532c1.549,1.549,2.701,3.377,3.424,5.436l0,0
	c0.548,1.554,0.825,3.183,0.824,4.841c0,1.657-0.277,3.287-0.825,4.843c-0.722,2.055-1.873,3.883-3.424,5.433
	c-0.556,0.56-1.162,1.077-1.803,1.537c-0.506,0.359-1.029,0.687-1.559,0.971C19.861,29.017,17.47,29.62,15.051,29.62z M14.935,0.666
	c-2.351,0.016-4.686,0.615-6.752,1.733C7.655,2.681,7.135,3.005,6.637,3.362C5.994,3.827,5.391,4.339,4.846,4.885
	c-1.543,1.544-2.688,3.36-3.4,5.398c-0.545,1.539-0.822,3.157-0.822,4.809c0,1.642,0.277,3.26,0.822,4.81
	c0.711,2.035,1.855,3.851,3.4,5.396c0.562,0.562,1.165,1.073,1.791,1.521c0.498,0.357,1.017,0.682,1.544,0.965
	c2.092,1.136,4.467,1.736,6.869,1.736s4.777-0.6,6.87-1.733c0.524-0.282,1.045-0.606,1.547-0.965
	c0.636-0.456,1.238-0.97,1.791-1.525c1.539-1.54,2.684-3.354,3.4-5.396c0.543-1.545,0.819-3.163,0.819-4.81
	c0.001-1.647-0.274-3.265-0.818-4.808l0,0c-0.719-2.044-1.862-3.86-3.4-5.398c-0.545-0.545-1.147-1.057-1.791-1.521
	c-0.49-0.351-1.011-0.676-1.547-0.969c-2.06-1.115-4.395-1.713-6.753-1.729H14.935z"/>
</svg>
