<?xml version="1.0" encoding="utf-8"?>
<!-- Generator: Adobe Illustrator 23.0.2, SVG Export Plug-In . SVG Version: 6.00 Build 0)  -->
<svg version="1.1" id="Layer_1" xmlns="http://www.w3.org/2000/svg" xmlns:xlink="http://www.w3.org/1999/xlink" x="0px" y="0px"
	 viewBox="0 0 30 30" style="enable-background:new 0 0 30 30;" xml:space="preserve">
<style type="text/css">
	.st0{fill:#F68842;}
	.st1{fill:#FFFFFF;}
	.st2{fill:#159B63;}
	.st3{fill:#C7C8CA;}
</style>
<g id="XMLID_1457_">
	<path id="XMLID_1460_" class="st0" d="M29.491,15.037c0-6.301-4.043-11.675-9.667-13.67v27.34
		C25.448,26.712,29.491,21.338,29.491,15.037z"/>
	<path id="XMLID_1459_" class="st1" d="M14.991,29.537c1.692,0,3.32-0.293,4.834-0.83V1.367c-1.514-0.537-3.141-0.83-4.834-0.83
		c-1.696,0-3.323,0.293-4.833,0.83v27.34C11.668,29.244,13.295,29.537,14.991,29.537z"/>
	<path id="XMLID_1458_" class="st2" d="M10.158,1.367C4.53,3.362,0.491,8.736,0.491,15.037s4.039,11.675,9.667,13.67V1.367z"/>
</g>
<path class="st3" d="M14.992,29.563c-2.418,0-4.81-0.604-6.917-1.747c-0.533-0.286-1.056-0.613-1.556-0.972
	c-0.629-0.451-1.236-0.967-1.803-1.532c-1.555-1.554-2.707-3.382-3.424-5.433c-0.549-1.562-0.827-3.19-0.827-4.843
	c0-1.664,0.278-3.293,0.827-4.843c0.719-2.053,1.871-3.882,3.424-5.436C5.265,4.21,5.872,3.694,6.52,3.227
	c0.5-0.359,1.024-0.687,1.556-0.972c2.08-1.125,4.431-1.729,6.799-1.745h0.235c2.377,0.016,4.728,0.618,6.799,1.741
	c0.537,0.292,1.062,0.62,1.56,0.976c0.646,0.467,1.253,0.982,1.803,1.532c1.549,1.549,2.701,3.377,3.424,5.436l0,0
	c0.547,1.551,0.824,3.181,0.824,4.842c0,1.658-0.277,3.288-0.824,4.843c-0.722,2.056-1.874,3.883-3.424,5.433
	c-0.561,0.563-1.167,1.08-1.803,1.536c-0.505,0.36-1.029,0.688-1.56,0.972C19.802,28.961,17.41,29.563,14.992,29.563z M14.875,0.61
	c-2.351,0.017-4.686,0.616-6.752,1.733C7.595,2.626,7.075,2.951,6.578,3.308C5.935,3.772,5.332,4.285,4.787,4.829
	c-1.542,1.543-2.687,3.359-3.4,5.398c-0.545,1.539-0.822,3.157-0.822,4.81c0,1.641,0.277,3.259,0.822,4.81
	c0.712,2.036,1.856,3.852,3.4,5.396c0.563,0.562,1.166,1.073,1.791,1.521c0.496,0.357,1.016,0.682,1.544,0.966
	c2.093,1.135,4.468,1.735,6.87,1.735s4.776-0.6,6.869-1.732c0.526-0.282,1.047-0.607,1.548-0.966
	c0.632-0.452,1.234-0.965,1.791-1.524c1.539-1.539,2.683-3.354,3.4-5.396c0.543-1.544,0.818-3.162,0.818-4.81
	c0-1.65-0.275-3.268-0.818-4.809l0,0c-0.719-2.044-1.862-3.86-3.4-5.398c-0.547-0.546-1.149-1.058-1.791-1.521
	c-0.494-0.353-1.016-0.679-1.548-0.969c-2.058-1.115-4.392-1.712-6.752-1.729H14.875z"/>
</svg>
