<?xml version="1.0" encoding="utf-8"?>
<!-- Generator: Adobe Illustrator 23.0.2, SVG Export Plug-In . SVG Version: 6.00 Build 0)  -->
<svg version="1.1" id="Layer_1" xmlns="http://www.w3.org/2000/svg" xmlns:xlink="http://www.w3.org/1999/xlink" x="0px" y="0px"
	 viewBox="0 0 30 30" style="enable-background:new 0 0 30 30;" xml:space="preserve">
<style type="text/css">
	.st0{fill:#CE2B37;}
	.st1{fill:#FFFFFF;}
	.st2{fill:#079247;}
	.st3{fill:#C7C8CA;}
</style>
<g id="XMLID_2462_">
	<path id="XMLID_2465_" class="st0" d="M29.429,15.005c0-6.301-4.039-11.675-9.667-13.67v27.34
		C25.39,26.679,29.429,21.306,29.429,15.005z"/>
	<path id="XMLID_2464_" class="st1" d="M14.929,29.505c1.696,0,3.32-0.293,4.833-0.83V1.335c-1.513-0.537-3.138-0.83-4.833-0.83
		c-1.692,0-3.32,0.293-4.833,0.83v27.34C11.609,29.212,13.236,29.505,14.929,29.505z"/>
	<path id="XMLID_2463_" class="st2" d="M10.095,1.335C4.471,3.33,0.429,8.703,0.429,15.005s4.042,11.675,9.667,13.67L10.095,1.335
		L10.095,1.335z"/>
</g>
<path class="st3" d="M14.928,29.532c-2.419,0-4.811-0.604-6.917-1.748c-0.531-0.285-1.054-0.611-1.556-0.971
	c-0.627-0.45-1.234-0.966-1.803-1.533c-1.555-1.555-2.708-3.383-3.424-5.433c-0.549-1.561-0.827-3.189-0.827-4.843
	c0-1.664,0.278-3.293,0.827-4.842C1.947,8.109,3.099,6.28,4.654,4.727c0.548-0.549,1.154-1.064,1.803-1.533
	c0.499-0.358,1.022-0.685,1.556-0.971c2.08-1.125,4.431-1.729,6.799-1.745h0.234c2.376,0.016,4.728,0.618,6.8,1.741
	c0.536,0.292,1.061,0.62,1.559,0.975c0.65,0.47,1.257,0.985,1.803,1.533c1.549,1.548,2.701,3.377,3.424,5.436l0,0
	c0.549,1.553,0.826,3.182,0.824,4.841c0,1.656-0.277,3.286-0.825,4.843c-0.722,2.056-1.874,3.883-3.424,5.433
	c-0.553,0.558-1.159,1.074-1.803,1.537c-0.506,0.359-1.029,0.687-1.559,0.971C19.738,28.929,17.347,29.532,14.928,29.532z
	 M14.812,0.578C12.46,0.594,10.125,1.193,8.06,2.311C7.53,2.596,7.01,2.92,6.515,3.275C5.871,3.741,5.269,4.253,4.724,4.797
	C3.181,6.34,2.036,8.156,1.323,10.196c-0.545,1.539-0.822,3.157-0.822,4.809c0,1.642,0.277,3.26,0.822,4.81
	c0.712,2.036,1.855,3.851,3.4,5.396c0.565,0.563,1.168,1.075,1.791,1.521c0.498,0.357,1.017,0.682,1.544,0.965
	c2.092,1.136,4.467,1.736,6.87,1.736c2.402,0,4.777-0.6,6.87-1.733c0.524-0.282,1.045-0.606,1.547-0.965
	c0.64-0.458,1.242-0.972,1.791-1.525c1.539-1.539,2.683-3.354,3.4-5.396c0.543-1.546,0.819-3.164,0.819-4.81
	c0.002-1.648-0.273-3.266-0.818-4.808l0,0c-0.719-2.044-1.862-3.861-3.4-5.398c-0.543-0.543-1.146-1.056-1.791-1.522
	c-0.494-0.353-1.015-0.679-1.547-0.968c-2.059-1.115-4.394-1.713-6.753-1.729H14.812z"/>
</svg>
