<?xml version="1.0" encoding="utf-8"?>
<!-- Generator: Adobe Illustrator 20.0.0, SVG Export Plug-In . SVG Version: 6.00 Build 0)  -->
<svg role="img" aria-label="Lowest Price Guarantee" id="lowest-price-guarantee-svg"
   version="1.1" xmlns="http://www.w3.org/2000/svg" xmlns:xlink="http://www.w3.org/1999/xlink" x="0px" y="0px"
   viewBox="0 0 600 99" style="enable-background:new 0 0 600 99;" xml:space="preserve">
<style type="text/css">
  .st0lpg{fill:#8AAA3E;}
  .st1lpg{fill:#036162;}
</style>
<g id="Layer_2">
</g>
<g>
  <g>
    <path class="st0lpg" d="M10.8,34.6H19v22.2h14.2v7.1H10.8V34.6z"/>
    <path class="st0lpg" d="M32.6,49.3L32.6,49.3c0-8.5,6.8-15.3,15.9-15.3s15.8,6.8,15.8,15.2v0.1c0,8.4-6.8,15.3-15.9,15.3
      C39.3,64.5,32.6,57.8,32.6,49.3z M55.9,49.3L55.9,49.3c0-4.4-3-8-7.5-8s-7.5,3.6-7.5,7.8v0.1c0,4.2,3.1,7.9,7.6,7.9
      C52.9,57.2,55.9,53.6,55.9,49.3z"/>
    <path class="st0lpg" d="M63.3,34.6h8.6l5.1,17l5.7-17.1h7l5.7,17.1l5.1-17h8.4l-9.8,29.6H92l-5.9-16.9l-5.9,16.9h-7.1L63.3,34.6z"/>
    <path class="st0lpg" d="M110.7,34.6h23.6v6.9h-15.6V46h14.1v6.4h-14.1V57h15.8v6.9h-23.8V34.6z"/>
    <path class="st0lpg" d="M135,59.6l4.5-5.4c2.9,2.3,6.1,3.5,9.5,3.5c2.2,0,3.4-0.8,3.4-2v-0.1c0-1.3-1-1.9-5-2.9
      c-6.3-1.4-11.1-3.2-11.1-9.2v-0.1c0-5.5,4.3-9.4,11.4-9.4c5,0,8.9,1.3,12.1,3.9l-4.1,5.7c-2.7-1.9-5.6-2.9-8.2-2.9
      c-2,0-2.9,0.8-2.9,1.9v0.1c0,1.3,1,1.9,5.1,2.9c6.7,1.5,10.9,3.7,10.9,9.1v0.1c0,6-4.7,9.6-11.9,9.6
      C143.6,64.4,138.7,62.8,135,59.6z"/>
    <path class="st0lpg" d="M169.5,41.7h-8.8v-7.1h25.7v7.1h-8.8v22.2h-8.1L169.5,41.7L169.5,41.7z"/>
    <path class="st0lpg" d="M198.7,34.6h12.6c7.4,0,12.2,3.8,12.2,10.3V45c0,7-5.3,10.6-12.6,10.6h-4.1V64h-8.1L198.7,34.6L198.7,34.6z
       M210.7,49.2c2.9,0,4.7-1.6,4.7-3.9v-0.1c0-2.5-1.8-3.8-4.7-3.8h-3.9v7.8H210.7z"/>
    <path class="st0lpg" d="M225.5,34.6h13.9c4.5,0,7.6,1.2,9.6,3.1c1.7,1.7,2.6,3.9,2.6,6.8v0.1c0,4.5-2.4,7.5-6,9.1l7,10.2h-9.4
      l-5.9-8.9h-3.6v8.9h-8.1V34.6H225.5z M239,48.6c2.7,0,4.4-1.3,4.4-3.5V45c0-2.3-1.7-3.5-4.4-3.5h-5.4v7.1H239z"/>
    <path class="st0lpg" d="M254.4,34.6h8.1V64h-8.1V34.6z"/>
    <path class="st0lpg" d="M265.4,49.3L265.4,49.3c0-8.6,6.5-15.4,15.4-15.4c6,0,9.9,2.5,12.5,6.1l-6.1,4.7c-1.7-2.1-3.6-3.4-6.4-3.4
      c-4.1,0-7,3.5-7,7.8v0.1c0,4.4,2.9,7.8,7,7.8c3.1,0,4.9-1.4,6.6-3.6l6.1,4.4c-2.8,3.8-6.5,6.6-13,6.6
      C272.2,64.5,265.4,58.1,265.4,49.3z"/>
    <path class="st0lpg" d="M295.6,34.6h23.6v6.9h-15.6V46h14.1v6.4h-14.1V57h15.8v6.9h-23.8V34.6z"/>
    <path class="st1lpg" d="M331.4,49.3L331.4,49.3c0-8.6,6.7-15.4,15.8-15.4c5.2,0,8.8,1.6,11.9,4.2l-4.8,5.8c-2.1-1.8-4.2-2.8-7.1-2.8
      c-4.2,0-7.5,3.5-7.5,8v0.1c0,4.8,3.3,8.2,8,8.2c2,0,3.5-0.4,4.7-1.2v-3.6h-5.7v-6h13.5v13.2c-3.1,2.6-7.4,4.6-12.8,4.6
      C338.2,64.5,331.4,58.2,331.4,49.3z"/>
    <path class="st1lpg" d="M362.8,51V34.6h8.2v16.3c0,4.2,2.1,6.3,5.4,6.3s5.5-1.9,5.5-6V34.6h8.2v16.3c0,9.4-5.4,13.6-13.8,13.6
      C368,64.5,362.8,60.2,362.8,51z"/>
    <path class="st1lpg" d="M402.4,34.3h7.8l12.5,29.6H414l-2.1-5.3h-11.4l-2.1,5.3H390L402.4,34.3z M409.6,52.3l-3.3-8.3l-3.3,8.3H409.6
      z"/>
    <path class="st1lpg" d="M424.2,34.6h13.9c4.5,0,7.6,1.2,9.6,3.1c1.7,1.7,2.6,3.9,2.6,6.8v0.1c0,4.5-2.4,7.5-6,9.1l7,10.2h-9.4L436,55
      h-3.6v8.9h-8.1L424.2,34.6L424.2,34.6z M437.7,48.6c2.7,0,4.4-1.3,4.4-3.5V45c0-2.3-1.7-3.5-4.4-3.5h-5.4v7.1H437.7z"/>
    <path class="st1lpg" d="M462.5,34.3h7.8l12.5,29.6h-8.7l-2.1-5.3h-11.4l-2.1,5.3H450L462.5,34.3z M469.6,52.3l-3.3-8.3l-3.3,8.3
      H469.6z"/>
    <path class="st1lpg" d="M484.2,34.6h7.6l12.1,15.5V34.6h8.1V64h-7.1l-12.6-16.1V64h-8.1L484.2,34.6L484.2,34.6z"/>
    <path class="st1lpg" d="M522.8,41.7H514v-7.1h25.7v7.1H531v22.2h-8.1V41.7H522.8z"/>
    <path class="st1lpg" d="M541.9,34.6h23.6v6.9H550V46h14v6.4h-14V57h15.8v6.9H542L541.9,34.6L541.9,34.6z"/>
    <path class="st1lpg" d="M568.5,34.6h23.6v6.9h-15.6V46h14.1v6.4h-14.1V57h15.8v6.9h-23.8V34.6z"/>
  </g>
</g>
</svg>

