<?xml version="1.0" encoding="utf-8"?>
<!-- Generator: Adobe Illustrator 23.0.2, SVG Export Plug-In . SVG Version: 6.00 Build 0)  -->
<svg version="1.1" id="Layer_1" xmlns="http://www.w3.org/2000/svg" xmlns:xlink="http://www.w3.org/1999/xlink" x="0px" y="0px"
	 viewBox="0 0 30 30" style="enable-background:new 0 0 30 30;" xml:space="preserve">
<style type="text/css">
	.st0{fill:#273476;}
	.st1{fill:#FFFFFF;}
	.st2{fill:#CB202C;}
	.st3{fill:#C9CACC;}
</style>
<g id="XMLID_3133_">
	<path id="XMLID_3174_" class="st0" d="M26.448,6.208c-2.653-3.45-6.822-5.68-11.502-5.68c-4.677,0-8.846,2.23-11.499,5.68
		C3.19,6.54,2.952,6.882,2.724,7.234C2.568,7.481,2.415,7.738,2.272,7.995c-0.098,0.17-0.189,0.342-0.277,0.521
		c-0.046,0.085-0.088,0.173-0.13,0.26C1.806,8.9,1.748,9.024,1.692,9.151c-0.084,0.195-0.169,0.39-0.247,0.586
		c-0.225,0.573-0.414,1.162-0.563,1.767c-0.049,0.192-0.094,0.387-0.137,0.586c-0.068,0.335-0.127,0.677-0.173,1.019
		c-0.046,0.338-0.078,0.684-0.101,1.032c-0.013,0.221-0.02,0.449-0.023,0.674c-0.003,0.072-0.003,0.143-0.003,0.215
		c0,3.317,1.12,6.376,3.001,8.824c2.653,3.45,6.822,5.68,11.499,5.68c4.68,0,8.85-2.23,11.502-5.68
		c1.882-2.448,2.998-5.507,2.998-8.824S28.329,8.656,26.448,6.208z"/>
	<g id="XMLID_3159_">
		<path id="XMLID_3173_" class="st0" d="M2.613,12.09l-2.041,1.019c0.046-0.342,0.104-0.684,0.173-1.019H2.613z"/>
		<path id="XMLID_3172_" class="st0" d="M6.05,6.208V8.9L2.724,7.234C2.952,6.882,3.19,6.54,3.447,6.208H6.05z"/>
		<path id="XMLID_3171_" class="st0" d="M2.613,9.151H1.692C1.748,9.024,1.806,8.9,1.865,8.777L2.613,9.151z"/>
		<polygon id="XMLID_3170_" class="st0" points="16.339,9.151 16.339,7.191 12.42,9.151 		"/>
		<polygon id="XMLID_3169_" class="st0" points="14.36,6.208 8.986,6.208 8.986,8.9 		"/>
		<polygon id="XMLID_3168_" class="st0" points="16.339,14.049 16.339,12.087 12.42,12.087 		"/>
		<polygon id="XMLID_3167_" class="st0" points="0.677,15.032 6.05,15.032 6.05,12.34 		"/>
		<polygon id="XMLID_3166_" class="st0" points="8.986,15.032 14.36,15.032 8.986,12.34 		"/>
		<path id="XMLID_3165_" class="st1" d="M16.339,7.191l-3.919,1.96h3.919v2.939H12.42l3.919,1.959v0.332L11.76,12.09h-1.318
			l5.878,2.939h-1.96L8.986,12.34v2.688H6.05V12.34l-5.374,2.688h-0.23c0-0.072,0-0.143,0.003-0.215l5.445-2.724H4.576L0.472,14.14
			c0.023-0.348,0.055-0.693,0.101-1.032l2.041-1.019H0.745c0.042-0.199,0.088-0.394,0.137-0.586c0.15-0.605,0.338-1.195,0.563-1.767
			C1.523,9.541,1.608,9.345,1.692,9.15h0.921L1.865,8.777c0.042-0.088,0.085-0.176,0.13-0.26l1.273,0.635h1.318L2.272,7.995
			c0.143-0.257,0.296-0.514,0.452-0.762L6.05,8.9V6.208h2.936V8.9l5.374-2.692h0.651L9.133,9.151h1.318l5.878-2.942h0.01V7.191z"/>
		<path id="XMLID_3164_" class="st2" d="M4.586,9.151H3.268L1.995,8.516c0.088-0.179,0.179-0.352,0.277-0.521L4.586,9.151z"/>
		<polygon id="XMLID_3163_" class="st2" points="10.441,12.087 16.322,15.032 16.339,15.032 16.339,14.381 11.759,12.087 		"/>
		<polygon id="XMLID_3162_" class="st2" points="9.133,9.151 10.451,9.151 16.329,6.208 15.011,6.208 		"/>
		<path id="XMLID_3161_" class="st2" d="M5.894,12.09l-5.445,2.724c0.003-0.225,0.01-0.452,0.023-0.674l4.104-2.051L5.894,12.09
			L5.894,12.09z"/>
		<path id="XMLID_3160_" class="st2" d="M16.339,9.737v1.767H8.4v3.525H6.636v-3.525H0.882c0.15-0.605,0.338-1.195,0.563-1.767
			h5.191V6.208H8.4v3.528h7.939V9.737z"/>
	</g>
	<g id="XMLID_3134_">
		<g id="XMLID_3153_">
			<polygon id="XMLID_3158_" class="st2" points="23.096,20.861 22.314,21.405 22.591,20.494 21.833,19.921 22.783,19.901 
				23.096,19.006 23.408,19.901 24.355,19.921 23.6,20.494 23.873,21.405 			"/>
			<path id="XMLID_3154_" class="st1" d="M24.596,19.843l-1.129-0.023l-0.371-1.068l-0.371,1.068l-1.129,0.023l0.898,0.684
				l-0.325,1.081l0.928-0.644l0.928,0.644l-0.329-1.081L24.596,19.843z M23.096,20.761L22.464,21.2l0.221-0.736l-0.612-0.465
				l0.768-0.016l0.254-0.726l0.251,0.726l0.768,0.016l-0.612,0.465l0.225,0.736L23.096,20.761z"/>
		</g>
		<g id="XMLID_3147_">
			<polygon id="XMLID_3152_" class="st2" points="23.096,10.202 22.392,10.69 22.64,9.87 21.956,9.353 22.812,9.336 23.096,8.526 
				23.375,9.336 24.231,9.353 23.551,9.87 23.799,10.69 			"/>
			<path id="XMLID_3148_" class="st1" d="M24.472,9.274l-1.038-0.02l-0.338-0.98l-0.342,0.98l-1.038,0.02l0.83,0.628l-0.302,0.993
				l0.852-0.592l0.849,0.592l-0.299-0.993L24.472,9.274z M23.096,10.101l-0.557,0.384l0.199-0.644l-0.54-0.41l0.674-0.013
				l0.225-0.638l0.222,0.638l0.677,0.013l-0.54,0.41l0.195,0.644L23.096,10.101z"/>
		</g>
		<g id="XMLID_3141_">
			<polygon id="XMLID_3146_" class="st2" points="18.988,14.329 18.275,14.827 18.526,13.994 17.836,13.47 18.702,13.454 
				18.988,12.633 19.271,13.454 20.14,13.47 19.447,13.994 19.701,14.827 			"/>
			<path id="XMLID_3142_" class="st1" d="M20.378,13.392l-1.045-0.02l-0.345-0.989l-0.345,0.989l-1.048,0.02l0.836,0.635
				l-0.306,1.002l0.863-0.599l0.859,0.599l-0.303-1.002L20.378,13.392z M18.988,14.228l-0.567,0.394l0.199-0.657l-0.547-0.417
				l0.687-0.013l0.228-0.651l0.224,0.651l0.687,0.013l-0.547,0.417l0.199,0.657L18.988,14.228z"/>
		</g>
		<g id="XMLID_3135_">
			<polygon id="XMLID_3140_" class="st2" points="26.578,13.216 25.956,13.649 26.175,12.926 25.572,12.467 26.327,12.454 
				26.578,11.738 26.825,12.454 27.581,12.467 26.978,12.926 27.196,13.649 			"/>
			<path id="XMLID_3136_" class="st1" d="M27.821,12.389l-0.937-0.016l-0.306-0.885l-0.309,0.885l-0.937,0.016l0.749,0.566
				l-0.273,0.898l0.771-0.537l0.768,0.537l-0.27-0.898L27.821,12.389z M26.578,13.115l-0.475,0.332l0.169-0.553l-0.459-0.348
				l0.576-0.01l0.189-0.544l0.189,0.544l0.576,0.01l-0.459,0.348l0.166,0.553L26.578,13.115z"/>
		</g>
	</g>
</g>
<path class="st3" d="M14.946,29.559c-2.419,0-4.811-0.604-6.917-1.748c-0.535-0.286-1.058-0.613-1.556-0.974
	c-0.631-0.451-1.237-0.967-1.803-1.532c-1.555-1.554-2.707-3.381-3.424-5.432c-0.549-1.562-0.827-3.19-0.827-4.843
	c0-1.664,0.278-3.293,0.827-4.843c0.718-2.053,1.87-3.881,3.424-5.436c0.549-0.55,1.156-1.065,1.803-1.533
	c0.5-0.36,1.024-0.687,1.556-0.97c2.08-1.125,4.431-1.729,6.799-1.745h0.235c2.376,0.016,4.728,0.618,6.799,1.741
	c0.537,0.292,1.062,0.62,1.559,0.976c0.644,0.464,1.251,0.979,1.804,1.532c1.55,1.551,2.702,3.379,3.423,5.436l0,0
	c0.549,1.55,0.826,3.179,0.825,4.843c0,1.659-0.277,3.289-0.825,4.843c-0.721,2.054-1.872,3.881-3.423,5.433
	c-0.558,0.561-1.165,1.078-1.804,1.536c-0.508,0.363-1.032,0.689-1.559,0.971C19.757,28.955,17.365,29.559,14.946,29.559z
	 M14.829,0.604c-2.351,0.016-4.686,0.615-6.752,1.733C7.548,2.619,7.029,2.943,6.532,3.3C5.89,3.764,5.288,4.276,4.741,4.822
	c-1.543,1.544-2.688,3.36-3.4,5.398c-0.545,1.539-0.822,3.157-0.822,4.81c0,1.641,0.277,3.259,0.822,4.81
	c0.712,2.036,1.856,3.851,3.4,5.395c0.562,0.562,1.165,1.073,1.791,1.521c0.494,0.357,1.014,0.683,1.544,0.967
	c2.092,1.136,4.467,1.736,6.869,1.736c2.403,0,4.778-0.6,6.87-1.733c0.522-0.279,1.043-0.604,1.547-0.965
	c0.635-0.454,1.237-0.968,1.792-1.524c1.54-1.541,2.684-3.356,3.399-5.396c0.543-1.543,0.819-3.161,0.819-4.81
	c0.001-1.652-0.274-3.271-0.819-4.81l0,0c-0.717-2.042-1.86-3.858-3.399-5.398c-0.55-0.548-1.152-1.061-1.792-1.521
	c-0.493-0.353-1.014-0.679-1.547-0.969c-2.059-1.115-4.393-1.713-6.752-1.729H14.829z"/>
</svg>
