<?xml version="1.0" encoding="utf-8"?>
<!-- Generator: Adobe Illustrator 23.0.2, SVG Export Plug-In . SVG Version: 6.00 Build 0)  -->
<svg version="1.1" id="Layer_1" xmlns="http://www.w3.org/2000/svg" xmlns:xlink="http://www.w3.org/1999/xlink" x="0px" y="0px"
	 viewBox="0 0 30 30" style="enable-background:new 0 0 30 30;" xml:space="preserve">
<style type="text/css">
	.st0{fill:#273374;}
	.st1{fill:#FFFFFF;}
	.st2{fill:#CE202B;}
	.st3{fill:#C7C8CA;}
</style>
<g id="XMLID_6562_">
	<path id="XMLID_6572_" class="st0" d="M10.186,1.411v8.016L3.608,6.135C5.296,3.991,7.567,2.335,10.186,1.411z"/>
	<path id="XMLID_6571_" class="st0" d="M26.413,6.135l-6.578,3.292V1.411C22.454,2.335,24.728,3.991,26.413,6.135z"/>
	<path id="XMLID_6570_" class="st0" d="M10.186,20.742v8.013c-2.619-0.924-4.893-2.58-6.578-4.724L10.186,20.742z"/>
	<path id="XMLID_6569_" class="st0" d="M26.413,24.032c-1.685,2.144-3.959,3.8-6.578,4.724v-8.013L26.413,24.032z"/>
	<path id="XMLID_6568_" class="st1" d="M29.51,15.085c0,0.992-0.101,1.962-0.29,2.899c-0.137,0.66-0.316,1.301-0.537,1.926h-4.057
		l3.344,1.675c-0.439,0.869-0.959,1.688-1.558,2.446l-6.578-3.289v8.013c-0.621,0.224-1.266,0.403-1.923,0.537
		c-0.937,0.192-1.906,0.293-2.902,0.293c-0.992,0-1.962-0.101-2.898-0.293c-0.661-0.133-1.301-0.312-1.926-0.537v-8.013
		l-6.578,3.289c-0.202-0.257-0.397-0.524-0.582-0.797l6.65-3.325H5.342L2.04,21.562c-0.56-1.119-0.979-2.32-1.236-3.579
		c-0.192-0.937-0.293-1.906-0.293-2.899c0-0.996,0.101-1.965,0.293-2.902c0.133-0.657,0.313-1.301,0.534-1.926h4.034L2.046,8.595
		c0.439-0.875,0.966-1.698,1.562-2.46l6.578,3.292V1.411c0.625-0.224,1.266-0.403,1.926-0.537c0.937-0.192,1.906-0.293,2.898-0.293
		c0.996,0,1.965,0.101,2.902,0.293c0.657,0.133,1.301,0.312,1.923,0.537v8.016l6.578-3.292c0.202,0.254,0.394,0.517,0.576,0.784
		l-6.669,3.338h4.333l3.322-1.662c0.566,1.122,0.989,2.326,1.246,3.588C29.409,13.12,29.51,14.089,29.51,15.085z"/>
	<path id="XMLID_6567_" class="st2" d="M5.371,10.257H1.337c0.202-0.573,0.439-1.126,0.709-1.662L5.371,10.257z"/>
	<path id="XMLID_6566_" class="st2" d="M28.684,19.91c-0.202,0.576-0.442,1.135-0.712,1.675l-3.344-1.675H28.684z"/>
	<path id="XMLID_6565_" class="st2" d="M27.975,8.595l-3.322,1.662H20.32l6.669-3.338C27.353,7.453,27.685,8.012,27.975,8.595z"/>
	<path id="XMLID_6564_" class="st2" d="M9.675,19.91l-6.65,3.325c-0.364-0.53-0.693-1.09-0.986-1.672l3.302-1.653H9.675z"/>
	<path id="XMLID_6563_" class="st2" d="M29.51,15.085c0,0.992-0.101,1.962-0.29,2.899H17.912v11.309
		c-0.937,0.192-1.906,0.293-2.902,0.293c-0.992,0-1.962-0.101-2.898-0.293V17.984H0.803c-0.192-0.937-0.293-1.906-0.293-2.899
		c0-0.996,0.101-1.965,0.293-2.902h11.309V0.875c0.937-0.192,1.906-0.293,2.898-0.293c0.996,0,1.965,0.101,2.902,0.293v11.309H29.22
		C29.409,13.12,29.51,14.089,29.51,15.085z"/>
</g>
<path class="st3" d="M15.01,29.609c-2.42,0-4.812-0.604-6.917-1.747c-0.533-0.286-1.056-0.613-1.556-0.972
	c-0.626-0.448-1.233-0.963-1.803-1.532c-1.555-1.555-2.708-3.383-3.424-5.433c-0.549-1.562-0.827-3.19-0.827-4.843
	c0-1.664,0.278-3.293,0.827-4.843c0.718-2.053,1.87-3.881,3.424-5.436c0.552-0.551,1.158-1.067,1.803-1.532
	C7.04,2.911,7.563,2.584,8.095,2.301c2.08-1.125,4.431-1.729,6.799-1.745h0.234c2.376,0.016,4.728,0.618,6.8,1.741
	c0.538,0.293,1.062,0.621,1.559,0.976c0.649,0.469,1.256,0.985,1.803,1.532c1.549,1.549,2.701,3.377,3.424,5.436l0,0
	c0.548,1.554,0.825,3.184,0.824,4.842c0,1.656-0.277,3.286-0.825,4.843c-0.722,2.056-1.874,3.883-3.424,5.433
	c-0.557,0.562-1.164,1.078-1.803,1.536c-0.504,0.359-1.027,0.687-1.559,0.972C19.821,29.007,17.43,29.609,15.01,29.609z
	 M14.894,0.656c-2.352,0.017-4.687,0.616-6.752,1.733C7.615,2.67,7.095,2.995,6.596,3.354c-0.64,0.462-1.243,0.975-1.791,1.521
	c-1.543,1.544-2.688,3.36-3.4,5.398c-0.545,1.539-0.822,3.157-0.822,4.81c0,1.641,0.277,3.259,0.822,4.81
	c0.712,2.036,1.855,3.851,3.4,5.396c0.566,0.564,1.169,1.076,1.791,1.521c0.496,0.357,1.016,0.682,1.544,0.966
	c2.091,1.135,4.466,1.735,6.869,1.735s4.778-0.6,6.87-1.732c0.526-0.283,1.047-0.608,1.547-0.966
	c0.635-0.454,1.237-0.968,1.791-1.524c1.539-1.539,2.683-3.354,3.4-5.396c0.543-1.546,0.819-3.164,0.819-4.81
	c0.001-1.647-0.274-3.265-0.818-4.809l0,0c-0.719-2.044-1.862-3.86-3.4-5.398c-0.543-0.543-1.146-1.055-1.791-1.521
	c-0.493-0.352-1.014-0.678-1.547-0.969c-2.059-1.115-4.395-1.712-6.753-1.729H14.894z"/>
</svg>
