<?xml version="1.0" encoding="utf-8"?>
<!-- Generator: Adobe Illustrator 23.0.2, SVG Export Plug-In . SVG Version: 6.00 Build 0)  -->
<svg version="1.1" id="Layer_1" xmlns="http://www.w3.org/2000/svg" xmlns:xlink="http://www.w3.org/1999/xlink" x="0px" y="0px"
	 viewBox="0 0 30 30" style="enable-background:new 0 0 30 30;" xml:space="preserve">
<style type="text/css">
	.st0{fill:#FFFFFF;}
	.st1{fill:#B12434;}
	.st2{fill:#3E3C6E;}
	.st3{fill:#C7C8CA;}
</style>
<g id="XMLID_6321_">
	<g id="XMLID_6369_">
		<path id="XMLID_6382_" class="st0" d="M28.377,20.671c-0.325,0.781-0.719,1.526-1.171,2.229H2.78
			c-0.452-0.703-0.846-1.448-1.171-2.229H28.377z"/>
		<path id="XMLID_6381_" class="st1" d="M29.102,18.439c-0.179,0.771-0.426,1.516-0.725,2.232H1.609
			c-0.299-0.716-0.543-1.461-0.725-2.232H29.102z"/>
		<path id="XMLID_6380_" class="st0" d="M29.45,16.207c-0.059,0.761-0.176,1.506-0.348,2.232H0.883
			c-0.172-0.725-0.289-1.47-0.348-2.232H29.45z"/>
		<path id="XMLID_6379_" class="st1" d="M27.206,22.899c-0.511,0.804-1.103,1.549-1.76,2.232H4.54
			c-0.657-0.683-1.246-1.428-1.76-2.232H27.206z"/>
		<path id="XMLID_6378_" class="st1" d="M22.713,27.363c-2.235,1.412-4.883,2.232-7.72,2.232s-5.482-0.82-7.72-2.232H22.713z"/>
		<path id="XMLID_6377_" class="st0" d="M25.445,25.131c-0.813,0.849-1.731,1.601-2.733,2.232H7.273
			c-0.999-0.631-1.916-1.383-2.733-2.232H25.445z"/>
		<path id="XMLID_6376_" class="st0" d="M25.445,5.055H4.54c0.817-0.849,1.734-1.601,2.736-2.232H22.71
			C23.711,3.454,24.629,4.206,25.445,5.055z"/>
		<path id="XMLID_6375_" class="st1" d="M22.709,2.823H7.276C7.734,2.53,8.213,2.267,8.707,2.026c0.046-0.02,0.091-0.042,0.14-0.065
			c0.166-0.078,0.335-0.153,0.508-0.228C9.43,1.7,9.508,1.671,9.583,1.642c1.672-0.677,3.497-1.051,5.407-1.051
			c0.003,0,0.003,0,0.003,0C17.829,0.591,20.474,1.411,22.709,2.823z"/>
		<path id="XMLID_6374_" class="st1" d="M27.206,7.283H2.78c0.127-0.198,0.26-0.397,0.4-0.589c0.01-0.016,0.023-0.033,0.036-0.049
			C3.62,6.085,4.062,5.552,4.54,5.054h20.906C26.103,5.738,26.695,6.483,27.206,7.283z"/>
		<path id="XMLID_6373_" class="st1" d="M29.102,11.747H0.883c0.182-0.768,0.426-1.513,0.725-2.232h26.768
			C28.676,10.234,28.923,10.979,29.102,11.747z"/>
		<path id="XMLID_6372_" class="st0" d="M28.377,9.515H1.609c0.059-0.143,0.12-0.286,0.189-0.429
			c0.156-0.342,0.325-0.68,0.507-1.005c0.15-0.27,0.309-0.537,0.475-0.797h24.426C27.658,7.989,28.052,8.734,28.377,9.515z"/>
		<path id="XMLID_6371_" class="st0" d="M29.45,13.979H0.535c0.007-0.094,0.016-0.185,0.026-0.277
			c0.022-0.273,0.058-0.543,0.098-0.813c0.058-0.384,0.133-0.768,0.224-1.142h28.219C29.274,12.469,29.392,13.217,29.45,13.979z"/>
		<path id="XMLID_6370_" class="st1" d="M29.492,15.091c0,0.377-0.013,0.748-0.042,1.116H0.535
			c-0.029-0.368-0.042-0.739-0.042-1.116c0-0.374,0.013-0.745,0.042-1.113H29.45C29.479,14.346,29.492,14.717,29.492,15.091z"/>
	</g>
	<g id="XMLID_6322_">
		<path id="XMLID_6368_" class="st2" d="M14.989,0.591v15.616H0.535c-0.029-0.368-0.042-0.739-0.042-1.116
			c0-0.374,0.013-0.745,0.042-1.113c0.007-0.094,0.016-0.185,0.026-0.277c0.022-0.273,0.058-0.543,0.098-0.813
			c0.058-0.384,0.133-0.768,0.224-1.142c0.182-0.768,0.426-1.513,0.725-2.232c0.059-0.143,0.12-0.286,0.189-0.429
			c0.156-0.342,0.325-0.68,0.507-1.005c0.15-0.27,0.309-0.537,0.475-0.797c0.127-0.198,0.26-0.397,0.4-0.589
			c0.01-0.016,0.023-0.033,0.036-0.049c0.404-0.56,0.846-1.093,1.324-1.591c0.817-0.849,1.734-1.601,2.736-2.232
			C7.734,2.53,8.213,2.267,8.707,2.026c0.046-0.02,0.091-0.042,0.14-0.065c0.166-0.078,0.335-0.153,0.508-0.228
			C9.43,1.7,9.508,1.671,9.583,1.642C11.255,0.965,13.08,0.591,14.989,0.591z"/>
		<g id="XMLID_6323_">
			<g id="XMLID_6365_">
				<polygon id="XMLID_6367_" class="st0" points="13.154,1.336 13.359,1.961 14.02,1.961 13.486,2.351 13.691,2.979 13.154,2.589 
					12.621,2.979 12.826,2.351 12.292,1.961 12.953,1.961 				"/>
				<path id="XMLID_6366_" class="st0" d="M9.969,2.823l0.049,0.156L9.807,2.823L9.485,2.589L9.163,2.823L8.951,2.979L9,2.823
					l0.153-0.472L8.707,2.026c0.046-0.02,0.091-0.042,0.14-0.065H9.28l0.075-0.228C9.43,1.7,9.508,1.671,9.583,1.642L9.69,1.961
					h0.657l-0.53,0.39L9.969,2.823z"/>
			</g>
			<g id="XMLID_6361_">
				<polygon id="XMLID_6364_" class="st0" points="13.154,4.456 13.359,5.084 14.02,5.084 13.486,5.471 13.691,6.099 13.154,5.712 
					12.621,6.099 12.826,5.471 12.292,5.084 12.953,5.084 				"/>
				<polygon id="XMLID_6363_" class="st0" points="9.485,4.456 9.69,5.084 10.347,5.084 9.813,5.471 10.018,6.099 9.485,5.712 
					8.951,6.099 9.156,5.471 8.619,5.084 9.28,5.084 				"/>
				<polygon id="XMLID_6362_" class="st0" points="5.815,4.456 6.017,5.084 6.677,5.084 6.144,5.471 6.349,6.099 5.815,5.712 
					5.279,6.099 5.483,5.471 4.95,5.084 5.61,5.084 				"/>
			</g>
			<g id="XMLID_6354_">
				<polygon id="XMLID_6358_" class="st0" points="13.154,7.579 13.359,8.207 14.02,8.207 13.486,8.594 13.691,9.222 13.154,8.835 
					12.621,9.222 12.826,8.594 12.292,8.207 12.953,8.207 				"/>
				<polygon id="XMLID_6357_" class="st0" points="9.485,7.579 9.69,8.207 10.347,8.207 9.813,8.594 10.018,9.222 9.485,8.835 
					8.951,9.222 9.156,8.594 8.619,8.207 9.28,8.207 				"/>
				<polygon id="XMLID_6356_" class="st0" points="5.815,7.579 6.017,8.207 6.677,8.207 6.144,8.594 6.349,9.222 5.815,8.835 
					5.279,9.222 5.483,8.594 4.95,8.207 5.61,8.207 				"/>
				<path id="XMLID_6355_" class="st0" d="M2.474,8.594l0.202,0.628L2.142,8.835L1.798,9.086c0.156-0.342,0.325-0.68,0.507-1.005
					l0.042,0.127h0.657L2.474,8.594z"/>
			</g>
			<g id="XMLID_6347_">
				<polygon id="XMLID_6353_" class="st0" points="13.154,10.699 13.359,11.327 14.02,11.327 13.486,11.717 13.691,12.342 
					13.154,11.955 12.621,12.342 12.826,11.717 12.292,11.327 12.953,11.327 				"/>
				<polygon id="XMLID_6352_" class="st0" points="9.485,10.699 9.69,11.327 10.347,11.327 9.813,11.717 10.018,12.342 
					9.485,11.955 8.951,12.342 9.156,11.717 8.619,11.327 9.28,11.327 				"/>
				<polygon id="XMLID_6351_" class="st0" points="5.815,10.699 6.017,11.327 6.677,11.327 6.144,11.717 6.349,12.342 5.815,11.955 
					5.279,12.342 5.483,11.717 4.95,11.327 5.61,11.327 				"/>
				<polygon id="XMLID_6348_" class="st0" points="2.142,10.699 2.347,11.327 3.007,11.327 2.471,11.717 2.676,12.342 2.142,11.955 
					1.609,12.342 1.814,11.717 1.28,11.327 1.937,11.327 				"/>
			</g>
			<g id="XMLID_6342_">
				<polygon id="XMLID_6346_" class="st0" points="13.154,13.822 13.359,14.45 14.02,14.45 13.486,14.837 13.691,15.465 
					13.154,15.078 12.621,15.465 12.826,14.837 12.292,14.45 12.953,14.45 				"/>
				<polygon id="XMLID_6345_" class="st0" points="9.485,13.822 9.69,14.45 10.347,14.45 9.813,14.837 10.018,15.465 9.485,15.078 
					8.951,15.465 9.156,14.837 8.619,14.45 9.28,14.45 				"/>
				<polygon id="XMLID_6344_" class="st0" points="5.815,13.822 6.017,14.45 6.677,14.45 6.144,14.837 6.349,15.465 5.815,15.078 
					5.279,15.465 5.483,14.837 4.95,14.45 5.61,14.45 				"/>
				<polygon id="XMLID_6343_" class="st0" points="2.142,13.822 2.347,14.45 3.007,14.45 2.471,14.837 2.676,15.465 2.142,15.078 
					1.609,15.465 1.814,14.837 1.28,14.45 1.937,14.45 				"/>
			</g>
			<g id="XMLID_6337_">
				<polygon id="XMLID_6341_" class="st0" points="11.32,12.261 11.525,12.889 12.185,12.889 11.651,13.276 11.853,13.904 
					11.32,13.517 10.786,13.904 10.991,13.276 10.457,12.889 11.118,12.889 				"/>
				<polygon id="XMLID_6340_" class="st0" points="7.65,12.261 7.852,12.889 8.512,12.889 7.979,13.276 8.183,13.904 7.65,13.517 
					7.116,13.904 7.318,13.276 6.785,12.889 7.445,12.889 				"/>
				<polygon id="XMLID_6339_" class="st0" points="3.977,12.261 4.182,12.889 4.842,12.889 4.309,13.276 4.51,13.904 3.977,13.517 
					3.443,13.904 3.648,13.276 3.115,12.889 3.775,12.889 				"/>
				<path id="XMLID_6338_" class="st0" d="M0.636,13.276l0.205,0.628l-0.279-0.202c0.022-0.273,0.058-0.543,0.098-0.813h0.51
					L0.636,13.276z"/>
			</g>
			<g id="XMLID_6333_">
				<polygon id="XMLID_6336_" class="st0" points="11.32,9.141 11.525,9.769 12.185,9.769 11.651,10.156 11.853,10.784 
					11.32,10.393 10.786,10.784 10.991,10.156 10.457,9.769 11.118,9.769 				"/>
				<polygon id="XMLID_6335_" class="st0" points="7.65,9.141 7.852,9.769 8.512,9.769 7.979,10.156 8.183,10.784 7.65,10.393 
					7.116,10.784 7.318,10.156 6.785,9.769 7.445,9.769 				"/>
				<polygon id="XMLID_6334_" class="st0" points="3.977,9.141 4.182,9.769 4.842,9.769 4.309,10.156 4.51,10.784 3.977,10.393 
					3.443,10.784 3.648,10.156 3.115,9.769 3.775,9.769 				"/>
			</g>
			<g id="XMLID_6327_">
				<polygon id="XMLID_6332_" class="st0" points="11.32,6.018 11.525,6.646 12.185,6.646 11.651,7.033 11.853,7.661 11.32,7.273 
					10.786,7.661 10.991,7.033 10.457,6.646 11.118,6.646 				"/>
				<polygon id="XMLID_6329_" class="st0" points="7.65,6.018 7.852,6.646 8.512,6.646 7.979,7.033 8.183,7.661 7.65,7.273 
					7.116,7.661 7.318,7.033 6.785,6.646 7.445,6.646 				"/>
				<path id="XMLID_6328_" class="st0" d="M4.39,7.283L4.514,7.66L3.993,7.283l-0.016-0.01L3.96,7.283L3.443,7.661l0.124-0.377
					l0.081-0.251L3.18,6.694c0.01-0.016,0.023-0.033,0.036-0.049h0.556l0.205-0.628l0.205,0.628h0.66L4.309,7.033L4.39,7.283z"/>
			</g>
			<g id="XMLID_6324_">
				<polygon id="XMLID_6326_" class="st0" points="11.32,2.894 11.525,3.522 12.185,3.522 11.651,3.913 11.853,4.537 11.32,4.15 
					10.786,4.537 10.991,3.913 10.457,3.522 11.118,3.522 				"/>
				<polygon id="XMLID_6325_" class="st0" points="7.65,2.894 7.852,3.522 8.512,3.522 7.979,3.913 8.183,4.537 7.65,4.15 
					7.116,4.537 7.318,3.913 6.785,3.522 7.445,3.522 				"/>
			</g>
		</g>
	</g>
</g>
<path class="st3" d="M14.993,29.619c-2.418,0-4.811-0.604-6.917-1.748C7.545,27.586,7.022,27.26,6.521,26.9
	c-0.631-0.452-1.237-0.968-1.803-1.533c-1.555-1.555-2.707-3.383-3.424-5.433c-0.549-1.561-0.827-3.189-0.827-4.843
	c0-1.664,0.278-3.292,0.827-4.842c0.719-2.053,1.871-3.882,3.424-5.436c0.549-0.55,1.156-1.065,1.803-1.533
	C7.024,2.919,7.548,2.593,8.077,2.31c2.08-1.125,4.431-1.729,6.799-1.745h0.235c2.375,0.016,4.726,0.618,6.799,1.742
	c0.54,0.293,1.064,0.622,1.56,0.976c0.645,0.465,1.251,0.98,1.803,1.532c1.549,1.549,2.701,3.377,3.424,5.436l0,0
	c0.547,1.55,0.824,3.179,0.824,4.84c0,1.659-0.277,3.289-0.824,4.843c-0.722,2.055-1.873,3.883-3.424,5.433
	c-0.556,0.56-1.162,1.077-1.803,1.537c-0.507,0.36-1.031,0.688-1.56,0.971C19.804,29.016,17.412,29.619,14.993,29.619z
	 M14.876,0.665C12.525,0.681,10.19,1.28,8.124,2.398C7.599,2.679,7.079,3.003,6.579,3.362C5.937,3.826,5.334,4.338,4.788,4.884
	c-1.542,1.543-2.687,3.359-3.4,5.398c-0.545,1.539-0.822,3.157-0.822,4.809c0,1.642,0.277,3.26,0.822,4.81
	c0.712,2.036,1.856,3.852,3.4,5.396c0.562,0.562,1.165,1.073,1.791,1.521c0.498,0.357,1.017,0.682,1.544,0.965
	c2.092,1.136,4.468,1.736,6.87,1.736c2.402,0,4.777-0.6,6.869-1.733c0.524-0.281,1.045-0.606,1.548-0.965
	c0.636-0.456,1.238-0.97,1.791-1.525c1.539-1.54,2.684-3.354,3.4-5.396c0.543-1.543,0.818-3.161,0.818-4.81
	c0-1.65-0.275-3.267-0.818-4.807l0,0c-0.719-2.044-1.862-3.86-3.4-5.398c-0.549-0.548-1.151-1.06-1.791-1.521
	c-0.491-0.351-1.013-0.677-1.548-0.969c-2.06-1.116-4.395-1.714-6.752-1.73H14.876z"/>
</svg>
