<svg xmlns="http://www.w3.org/2000/svg" xmlns:xlink="http://www.w3.org/1999/xlink" width="17" height="17" viewBox="0 0 17 17" version="1.1">
	<g>
	<path style="stroke:none;fill-rule:nonzero;fill-opacity:1;" d="M 8.441406 1.074219 C 10.625 1.074219 12.34375 2.691406 12.34375 4.734375 C 12.34375 6.777344 10.625 8.390625 8.441406 8.390625 C 6.261719 8.390625 4.539062 6.777344 4.539062 4.734375 C 4.539062 2.691406 6.375 1.074219 8.441406 1.074219 M 8.441406 0 C 5.6875 0 3.394531 2.152344 3.394531 4.734375 C 3.394531 6.5625 4.539062 8.175781 6.261719 8.929688 C 2.703125 9.898438 0.0664062 12.804688 0.0664062 16.460938 C 0.0664062 16.785156 0.292969 17 0.636719 17 C 0.984375 17 1.210938 16.785156 1.210938 16.460938 C 1.210938 12.695312 4.425781 9.683594 8.441406 9.683594 C 12.460938 9.683594 15.671875 12.695312 15.671875 16.460938 C 15.671875 16.785156 15.902344 17 16.246094 17 C 16.589844 17 16.820312 16.785156 16.820312 16.460938 C 16.820312 12.804688 14.179688 9.898438 10.625 8.929688 C 12.34375 8.175781 13.492188 6.5625 13.492188 4.734375 C 13.605469 2.152344 11.3125 0 8.441406 0 "></path>
	</g>
</svg>