<svg version="1.1" id="Layer_1" xmlns="http://www.w3.org/2000/svg" xmlns:xlink="http://www.w3.org/1999/xlink" x="0px" y="0px" viewBox="7.199999809265137 5.299999237060547 22.599998474121094 26.399999618530273" style="enable-background:new 0 0 37 37;" xml:space="preserve">
<path class="st0" d="M28.3,11.2c0-0.1-0.1-0.3-0.3-0.3h-2.5c-0.1,0-0.3-0.1-0.3-0.3c-0.9-3.1-3.5-5.2-6.8-5.3
	c-3.2,0.1-5.9,2.2-6.8,5.3c0,0.2-0.2,0.3-0.3,0.3H9c-0.2,0-0.3,0.2-0.3,0.3L7.2,31.4c0,0.2,0.2,0.3,0.3,0.3h11h11
	c0.1,0,0.3-0.1,0.3-0.3L28.3,11.2z M18.5,6.6c2.5,0,5,1.9,5.5,4.3h-5.5H13C13.5,8.5,16,6.6,18.5,6.6z M18.5,30.4H8.7l1.2-18.1h2.4
	h0.5h5.8h5.8h0.5h2.4l1.2,18.1H18.5z"></path>
</svg>