<?xml version="1.0" encoding="UTF-8"?>
<svg width="17px" height="16px" viewBox="0 0 17 16" version="1.1" xmlns="http://www.w3.org/2000/svg" xmlns:xlink="http://www.w3.org/1999/xlink">
    <!-- Generator: Sketch 61.2 (89653) - https://sketch.com -->
    <title>Wishlist</title>
    <desc>Created with Sketch.</desc>
    <g id="Symbols" stroke="none" stroke-width="1" fill="none" fill-rule="evenodd">
        <g id="Header/desktop" transform="translate(-1309.000000, -26.000000)" fill="#000000" fill-rule="nonzero">
            <g id="Icone" transform="translate(1276.000000, 25.000000)">
                <g id="Wishlist" transform="translate(33.000000, 1.000000)">
                    <path d="M4.38767606,0.00905549296 C3.26232394,0.00905549296 2.13697183,0.46398507 1.275,1.37384423 C-0.425,3.19356254 -0.425,6.09074563 1.275,7.91046394 L8.02711268,15.1414499 C8.21866197,15.3329992 8.50598592,15.3329992 8.69753521,15.1653935 C8.69753521,15.1653935 8.72147887,15.1414499 8.72147887,15.1414499 C10.9721831,12.72314 13.2228873,10.3287738 15.4735915,7.91046394 C17.1735915,6.09074563 17.1735915,3.19356254 15.4735915,1.37384423 C13.7735915,-0.445874085 10.9721831,-0.445874085 9.2721831,1.37384423 L8.36232394,2.3315907 L7.45246479,1.37384423 C6.63838028,0.46398507 5.51302817,0.00905549296 4.38767606,0.00905549296 L4.38767606,0.00905549296 Z M4.38767606,0.94285831 C5.24964789,0.94285831 6.11161972,1.30201324 6.78204225,2.0203231 L8.02711268,3.36116817 C8.21866197,3.55271746 8.50598592,3.55271746 8.69753521,3.38511183 C8.69753521,3.38511183 8.72147887,3.36116817 8.72147887,3.36116817 L9.9665493,2.0203231 C11.3073944,0.58370338 13.4144366,0.58370338 14.7792254,2.0203231 C16.1200704,3.45694282 16.1200704,5.82736535 14.7792254,7.26398507 C12.6482394,9.56257662 10.5172535,11.8372245 8.36232394,14.1358161 L1.94542254,7.26398507 C0.604577465,5.82736535 0.604577465,3.45694282 1.94542254,2.0203231 C2.66373239,1.30201324 3.52570423,0.94285831 4.38767606,0.94285831 Z" id="Shape"></path>
                </g>
            </g>
        </g>
    </g>
</svg>