<svg width="86" height="62" viewBox="0 0 86 62" xmlns="http://www.w3.org/2000/svg"><g fill="none"><path fill-opacity=".9" fill="#5C8691" d="M0 0h86v62H0z"/><g fill="#FEFEFE"><path d="M39.843 14.305a3.205 3.205 0 11-6.409-.001 3.205 3.205 0 016.409.001"/><path d="M46.344 14.305a3.205 3.205 0 11-6.41-.002 3.205 3.205 0 016.41.002" opacity=".5"/><path d="M52.845 14.305a3.204 3.204 0 11-6.407.113 3.204 3.204 0 016.407-.113m0 12.995a3.203 3.203 0 11-6.406 0 3.203 3.203 0 016.406 0zm-13.002-6.496a3.203 3.203 0 01-3.205 3.202 3.203 3.203 0 113.205-3.202m6.501 0a3.203 3.203 0 11-6.406-.002 3.203 3.203 0 016.406.002"/><path d="M52.845 20.804a3.203 3.203 0 11-6.406-.002 3.203 3.203 0 016.406.002M39.843 27.3a3.203 3.203 0 01-3.205 3.203 3.203 3.203 0 113.205-3.203"/><path d="M46.344 27.3a3.202 3.202 0 01-3.204 3.203 3.203 3.203 0 113.204-3.203" opacity=".5"/><path d="M31.875 48.208h-.988v-1.727h1.014c.327 0 1.086.083 1.086.85v.013c0 .525-.436.864-1.112.864zm.066-2.486h-1.853v4.85h.8v-1.611h.968c1.158 0 1.937-.658 1.937-1.636v-.013c0-.966-.727-1.59-1.852-1.59zm4.549 4.091v-4.091h-.8v4.85h3.372v-.759H36.49zm7.631-1.193h-1.646l.826-1.842.82 1.841v.001zm-.48-2.93h-.666l-2.211 4.883h.84l.542-1.208h2.303l.536 1.208h.866l-2.21-4.884v.001zm7.399 3.487l-.1.095c-.39.372-.773.62-1.378.62-.913 0-1.628-.767-1.628-1.745v-.013c0-.987.7-1.731 1.628-1.731.505 0 .905.176 1.34.587l.103.099.546-.586-.103-.097c-.42-.396-.939-.763-1.88-.763-1.375 0-2.452 1.1-2.452 2.504v.013c0 1.42 1.046 2.491 2.433 2.491.965 0 1.517-.427 1.93-.845l.099-.1-.539-.529h.001zm3.234.643v-1.316h2.494v-.753h-2.494v-1.277h2.788v-.752h-3.587v4.85h3.62v-.752h-2.821zM29.18 36.615v3.031h-4.094v-3.031H24.5v6.648h.586v-3.069h4.095v3.07h.585v-6.65l-.586.001zm9.011 0l-2.436 3.48-2.427-3.48h-.73l2.855 4.023v2.625h.586V40.63l2.855-4.014h-.703v-.001zm3.548 4.276c.06-.132 1.57-3.437 1.655-3.62l1.646 3.62h-3.301zm1.93-4.323h-.531l-3.098 6.695h.615l.833-1.834h3.803l.833 1.834h.643l-3.098-6.695zm9.978.047v.548h-2.284v6.1h-.586v-6.1h-2.284v-.548h5.154zm7.845 0v.548h-2.284v6.1h-.586v-6.1h-2.284v-.548h5.154zm-2.244 10.32a.646.646 0 00.652-.649.646.646 0 00-.652-.649.646.646 0 00-.65.649c0 .362.287.649.65.649m0-1.192a.54.54 0 01.544.543.54.54 0 01-.544.543.541.541 0 01-.545-.543.54.54 0 01.545-.543"/><path d="M59.285 46.26c.083 0 .134-.042.134-.106v-.005c0-.065-.051-.104-.134-.104h-.169v.215h.17-.001zm-.299-.334h.304c.088 0 .16.028.207.076a.188.188 0 01.054.14v.005a.203.203 0 01-.158.204l.184.256h-.155l-.164-.234h-.142v.234h-.13v-.681z"/></g></g></svg>