<svg width="86" height="62" viewBox="0 0 86 62" xmlns="http://www.w3.org/2000/svg"><g fill="none"><path fill-opacity=".9" fill="#57B1D8" d="M0 0h86v62H0z"/><g fill="#FEFEFE"><path d="M21.728 40.024l-.778-.673c-.792.828-1.745 1.294-2.925 1.294-.78 0-1.5-.238-2.1-.64-.964-.599-1.637-1.595-1.766-2.752h-.977l.002.017h-.002c.094 1.243.644 2.253 1.596 3.147l3.207 3.042s3.481-3.13 3.743-3.435zm3.976-2.69h3.96v-.838h-3.96v.838z"/><path d="M25.065 33.437h4.842V32.6h-5.864v8.631h5.94v-.838h-4.918v-6.956zm13.918 6.253l-4.88-7.091h-1.189l5.929 8.631h1.15V32.6h-1.01v7.09zm-6.069 1.54h1.01v-6.04l-1.01-1.455v7.496-.001zm9.306-7.793h7.461V32.6H42.22v.837zm3.22 7.793h1.022v-7.176H45.44v7.176zm12.206-1.257l-1.457-2.602c1.137-.333 1.904-1.258 1.904-2.355 0-1.43-1.099-2.417-2.747-2.417h-3.437v8.631h1.022v-7.805h2.3c1.175 0 1.827.69 1.827 1.616 0 .85-.6 1.615-1.866 1.615h-1.61v.838h1.547l1.648 2.935c.37.654.677.801 1.367.801h.575v-.838h-.41c-.293 0-.472-.086-.663-.42v.001zm3.556 1.257h1.022V32.6h-1.022v8.63zm8.211-8.767c-2.427 0-4.446 1.776-4.625 4.106h1.035c.179-1.8 1.7-3.23 3.577-3.23 1.125 0 2.032.444 2.786 1.233l.74-.641c-.855-1-2.145-1.468-3.513-1.468zM69.4 40.49a3.593 3.593 0 01-3.577-3.23h-1.035c.18 2.33 2.198 4.106 4.625 4.106a4.649 4.649 0 003.45-1.48l-.69-.604c-.728.752-1.648 1.209-2.773 1.209v-.001zM29.916 23.962h-4.204v.85h4.204v4.045h1.021v-8.63h-1.021v3.735zm6.303 4.895h1.035V25.11l-2.99-4.883h-1.163l3.118 4.957v3.674-.001zm-12.169 0h1.023v-8.63H24.05v8.63zm13.063-5.142l.524.851 2.76-4.34H39.26l-2.147 3.49v-.001zm8.914 2.664l-.332-.826h-2.913l1.763-4.291 3.118 7.595h1.086l-3.642-8.693h-1.073l-3.641 8.693h1.035l1.009-2.478h3.59zm15.158 2.478h1.022v-7.176h-1.022v7.176zm-3.22-7.793h7.462v-.838h-7.462v.838zm-5.839 7.793h1.022v-7.176h-1.022v7.176zm-3.22-7.793h7.462v-.838h-7.462v.838zm-32.98 12.764a3.753 3.753 0 012.099-.64c1.18 0 2.133.466 2.925 1.294l.778-.673c-.9-1.048-2.254-1.54-3.69-1.54-2.548 0-4.668 1.864-4.856 4.311h.977c.129-1.156.802-2.153 1.767-2.752zm59.142-.587h-.209v-.268h.204c.104 0 .168.045.168.135 0 .079-.057.133-.163.133zm.374-.144c0-.19-.145-.302-.371-.302h-.422v.914h.21v-.294h.164l.203.294h.243l-.23-.328a.285.285 0 00.203-.284z"/><path d="M75.016 34.002a.752.752 0 01-.764-.738c0-.406.343-.737.764-.737.422 0 .765.33.765.737a.752.752 0 01-.765.738zm0-1.63c-.51 0-.924.4-.924.892 0 .493.415.893.924.893.51 0 .925-.4.925-.893 0-.492-.415-.892-.925-.892z"/></g></g></svg>