<svg width="86" height="62" viewBox="0 0 86 62" xmlns="http://www.w3.org/2000/svg"><g fill="none" fill-rule="evenodd"><path fill-opacity=".9" fill="#191937" d="M0 0h86v62H0z"/><g fill-rule="nonzero" fill="#FFF"><path d="M60.776 13.882c0 .647-.52 1.153-1.184 1.153a1.138 1.138 0 01-1.168-1.153c0-.66.502-1.157 1.168-1.157a1.2 1.2 0 01.836.326c.225.215.348.51.348.831m-.261.006c0-.572-.393-.923-.923-.923-.524 0-.906.351-.906.923 0 .555.382.911.906.911.53 0 .923-.356.923-.911"/><path d="M59.638 13.862c.11 0 .18-.055.18-.17 0-.1-.07-.149-.18-.149h-.207v.32h.207zm-.45-.554h.45c.29 0 .449.16.449.38 0 .164-.08.284-.22.339l.24.414h-.29l-.21-.374h-.176v.374h-.242v-1.133zM23.48 30.845a19.37 19.37 0 01.393-3.778l-.413-.084a19.8 19.8 0 00-.402 3.86c-.015 2.638.49 5.2 1.464 7.57l.398-.142a19.163 19.163 0 01-1.44-7.426zm1.22-3.608a18.523 18.523 0 00-.376 3.612 18.317 18.317 0 001.394 7.139l.399-.142a17.895 17.895 0 01-1.37-6.995c.006-1.2.132-2.38.367-3.53l-.413-.084zm4.473 14.949l-.741.152c-.203.042-.5.14-.502.14l-.123.04.067-.11c.002-.002.169-.277.252-.46l.317-.694-.301-.384-.71 1.654-.718.562.272.347.747-.585.012-.002 1.699-.314-.271-.346zm-2.8-2.284l.562-.327.232.399c.058.099.077.19.058.27a.316.316 0 01-.162.197.335.335 0 01-.168.05c-.082 0-.2-.037-.303-.213l-.219-.376zm.007.922a.348.348 0 01-.174.23.387.387 0 01-.196.057.361.361 0 01-.313-.194l-.27-.465.637-.37.255.438a.43.43 0 01.061.304zm.215-.242l.133.136a.462.462 0 00.334.141c.09 0 .18-.025.263-.073.344-.2.414-.57.183-.967l-.471-.81-2.152 1.253.502.862c.163.28.394.435.65.435a.686.686 0 00.348-.099c.268-.155.354-.383.263-.696l-.053-.182zm7.386-27.84c.038-.014.112.02.127.06l.942 2.383c.015.037-.01.109-.054.126l-.252.1.104.264 1.107-.437-.105-.265-.44.174-.913-2.31 2.632 1.907.026.02.32-.128-1.082-2.738a.115.115 0 01.007-.078c.012-.025.029-.045.046-.052l.252-.099-.106-.269-1.093.432.106.269.427-.17.858 2.172-2.515-1.827-.752.298.106.268.252-.1zm-2.117 32.022l-.699.843-.925-.766.699-.844-.337-.279-1.59 1.918.338.28.647-.783.925.767-.647.782.336.279 1.59-1.918-.337-.279zm-1.369-29.917a.08.08 0 01.044-.01c.037 0 .077.018.093.042l.984 1.509c.245.374.547.564.899.564.246 0 .516-.094.8-.28.682-.446.813-1 .39-1.648l-.985-1.508a.11.11 0 01-.01-.074.105.105 0 01.036-.064l.211-.138-.158-.242-.961.628.158.242.385-.251 1.042 1.596c.318.487.236.851-.267 1.18-.211.137-.395.204-.563.204-.24 0-.449-.14-.636-.426l-1.043-1.597.385-.251-.158-.242-1.015.663.158.241.211-.138zm-6.45 10.435l-.644-.274.28-.767 2.495.91c.037.013.074.08.058.124l-.104.284.267.098.412-1.13-.267-.098-.105.29c-.012.03-.056.056-.098.056a.074.074 0 01-.025-.003l-2.494-.91.28-.768.67.2.107-.294-.936-.341-.941 2.58.936.341.109-.298zm2.98-7.065c.027-.03.111-.03.141-.004l1.904 1.717c.014.014.025.04.026.068a.098.098 0 01-.02.07l-.18.2.21.19 1.711-1.896-.702-.633-.213.235.454.465-.954 1.057-.946-.853.497-.55.331.25.202-.224-.831-.75-.203.224.28.3-.497.55-.867-.781.917-1.017.471.363.206-.229-.661-.596-1.67 1.852.214.193.18-.2zm-2.318 3.514c.014-.024.053-.04.093-.04a.09.09 0 01.044.01l2.196 1.321c.034.02.057.093.033.133l-.14.232.244.147.641-1.066-.243-.147-.244.405-1.099-.66.87-1.446 1.099.662-.242.401.243.147.642-1.066-.243-.147-.142.236c-.015.025-.054.042-.092.042a.082.082 0 01-.041-.01l-2.196-1.321c-.035-.021-.06-.096-.037-.135l.142-.236-.247-.15-.642 1.067.247.149.242-.402 1.008.607-.87 1.445-1.008-.607.244-.405-.247-.149-.642 1.066.247.149.14-.232zM39.05 48.472l.73.107-.306 2.096.433.063.306-2.096.73.107.054-.37-1.893-.275-.054.368zm21.408-8.413c-.013.025-.051.043-.091.043a.092.092 0 01-.042-.009l-2.262-1.204c-.036-.02-.064-.087-.042-.127l.148-.28-.25-.133-.576 1.082.25.133.149-.279c.014-.026.056-.047.096-.047.014 0 .026.002.035.007l2.263 1.204a.11.11 0 01.044.06c.01.028.01.056 0 .074l-.149.279.255.136.576-1.082-.255-.136-.149.28zm-1.757 2.821a1.05 1.05 0 01-.855.447c-.298 0-.622-.123-.935-.355-.349-.259-.567-.563-.632-.88-.06-.295.012-.59.207-.854.218-.294.525-.456.864-.456.295 0 .614.122.924.352.685.508.849 1.177.427 1.746zm-.177-2.075c-.344-.255-.716-.39-1.075-.39-.47 0-.913.232-1.213.637-.46.62-.505 1.558.432 2.254.345.256.718.391 1.079.391.467 0 .906-.23 1.204-.631a1.53 1.53 0 00.304-1.142c-.065-.425-.318-.812-.731-1.12zm-24.416 5.439l-.638.406c-.175.111-.417.308-.42.31l-.1.082.024-.127c0-.004.059-.32.071-.52l.048-.762-.418-.251-.073 1.798-.47.781.378.228.49-.813 1.484-.906-.376-.226zm22.835-1.239a.09.09 0 01-.06.018c-.032 0-.065-.012-.08-.029l-1.708-1.912a.1.1 0 01-.019-.069c.001-.028.011-.054.027-.068l.202-.18-.19-.212-.887.792.19.213.353-.316 1.654 1.852-3.16-.889-.256.23 1.961 2.196a.11.11 0 01.02.072c0 .029-.01.055-.025.068l-.201.18.192.216.877-.783-.193-.215-.342.306-1.556-1.742 2.992.846.603-.538-.193-.216-.201.18zm4.321-12.37a2.597 2.597 0 00-.418-.036c-.825 0-1.374.463-1.507 1.269-.083.5-.01.878.234 1.226l.014.02.288.048.04-.244-.023-.022c-.23-.215-.316-.55-.247-.968.099-.602.499-.92 1.157-.92a2.5 2.5 0 01.404.036c.447.073.773.244.97.505.175.233.238.531.183.863a1.084 1.084 0 01-.343.655l-.505-.03-.05.307 1.01.167.05-.3-.055-.012a.135.135 0 01-.061-.033 1.7 1.7 0 00.263-.707c.155-.942-.396-1.658-1.404-1.824zm-.081 3.802l.645.27-.276.769-2.5-.896a.108.108 0 01-.05-.053.097.097 0 01-.008-.07l.102-.286-.267-.096-.406 1.132.267.096.104-.29c.011-.03.056-.057.098-.057.01 0 .017.001.024.004l2.5.896-.276.769-.67-.197-.106.295.937.336.927-2.585-.938-.337-.107.3zm-21.076 4.928h.026c1.758-.006 3.13-.521 4.077-1.533a4.5 4.5 0 00.757-1.108h-.475a4.005 4.005 0 01-.59.82c-.867.925-2.139 1.396-3.782 1.398-1.643-.002-2.915-.473-3.782-1.399-.785-.84-1.2-2.037-1.2-3.463v-8.86a.855.855 0 00-.86-.865h-1.04v.423h.981c.304 0 .497.21.497.531v8.77c0 1.535.454 2.833 1.314 3.752.948 1.012 2.32 1.527 4.077 1.532zm-4.9 6.392c-.005.03-.04.296-.043.478l-.01.496-.711-.314.359-.341c.078-.077.183-.192.31-.343l.012-.014.103-.114-.02.152zm-1.68 1.02l.374.166.273-.262.977.43-.009.379.415.183-.029-2.74-2.001 1.845zm3.072-.983l.707.21-.6 2.03.418.124.601-2.03.708.209.105-.357-1.833-.543-.106.357zm2.236-36.576c.106-.02.197-.03.28-.03.31 0 .481.143.54.45.037.2 0 .355-.116.474-.104.108-.273.185-.5.228l-.497.094-.213-1.12.506-.096zm1.246 1.878c.042.221.003.401-.116.536-.113.127-.298.216-.55.264l-.574.11-.243-1.279.524-.1c.589-.111.875.026.959.469zm-2.246-1.702c.048-.009.107.043.114.082l.479 2.518a.105.105 0 01-.02.07.098.098 0 01-.057.044l-.266.05.053.28 1.336-.254c.354-.068.622-.194.798-.376.197-.204.267-.466.207-.779-.078-.412-.35-.654-.77-.693a.709.709 0 00.332-.776c-.106-.56-.53-.778-1.258-.64l-1.268.241.054.284.266-.05zm8.176 38.454a19.374 19.374 0 01-3.76.292v.422c1.27.024 2.553-.072 3.833-.298a19.583 19.583 0 007.185-2.8l-.23-.356a19.161 19.161 0 01-7.028 2.74zm7.377-35.841c.38.247.594.504.652.788.06.297-.042.645-.314 1.063-.326.504-.652.739-1.026.739-.237 0-.5-.096-.802-.292l-.456-.295 1.49-2.299.456.296zm-.844-.438l-1.395 2.151c-.022.034-.1.05-.134.029l-.227-.148-.155.239 1.102.715c.388.251.734.373 1.058.373.489 0 .907-.278 1.278-.851.316-.487.423-.914.327-1.305-.092-.373-.367-.703-.84-1.01l-1.11-.72-.157.242.227.147c.038.025.048.104.026.138zM33.238 25.512h5.277v-.422h-5.277v.422zm6.88 14.587h.019c2.008-.022 2.865-.769 3.314-1.375h-.51s-.74.953-2.803.953h-.014c-1.383-.002-2.387-.381-2.984-1.127-.495-.617-.735-1.487-.736-2.66h.001v-9.11h2.11v-.423h-2.532v9.534c0 1.273.27 2.23.827 2.924.678.846 1.786 1.278 3.292 1.285h.017zm16.29-19.907l.025.001.215-.196-.166-.183-.032.005c-.314.048-.624-.091-.912-.407-.489-.537-.391-1.166.275-1.773.326-.297.654-.447.974-.447.3 0 .581.135.814.391.242.266.293.53.3.676l-.335.377.209.23.757-.69-.204-.223-.044.034a.13.13 0 01-.064.028 1.699 1.699 0 00-.391-.645c-.317-.348-.72-.54-1.132-.54-.398 0-.802.177-1.169.51-.786.716-.871 1.567-.227 2.275.341.375.683.553 1.107.577zm3.333.287c.17.28.213.581.124.871-.095.312-.342.596-.713.822-.297.18-.584.272-.853.272-.38 0-.705-.189-.914-.532-.368-.605-.147-1.255.577-1.695.297-.18.585-.272.856-.272.386 0 .714.19.923.534zm-1.99-.617c-.997.606-1.036 1.548-.632 2.212.288.474.754.745 1.278.745.322 0 .65-.1.973-.297.44-.267.728-.629.832-1.044a1.517 1.517 0 00-.194-1.16c-.29-.478-.76-.752-1.287-.752-.32 0-.647.1-.97.296zM46.767 37.879c1.151 0 2.034-.098 2.698-.3a4.231 4.231 0 002.144-1.516 4.26 4.26 0 00.845-2.563s.061-1.42-.765-2.546c-.441-.601-.994-1.094-1.657-1.407l-.012-.007a4.035 4.035 0 001.258-2.932c0-1.21-.421-2.237-1.218-2.972-.75-.693-1.808-1.075-2.979-1.079h-6.876v.422h6.86c2.267 0 3.79 1.458 3.79 3.629 0 1.08-.476 2.096-1.307 2.788-.77.624-1.691.888-2.2.888h-1.773v.422h1.537s1.57-.046 2.222.348a2.653 2.653 0 011.446 2.345c-.015 1.181-.735 2.214-1.801 2.576-.285.097-.9.216-2.212.216h-2.88v-9.835h-.41v10.257h3.29v-.002.002c1.1 0 1.888-.087 2.348-.238 1.344-.443 2.087-1.765 2.087-2.976 0-1.418-1.075-2.723-2.483-2.993h.001l-.023-.004-.008-.002h-.006a.353.353 0 00-.04-.006s.555-.2 1.011-.552c2.383 1.025 2.378 3.332 2.378 3.658a3.86 3.86 0 01-.762 2.311 3.806 3.806 0 01-1.928 1.364c-.624.19-1.466.282-2.575.282h-6.562v.422h6.562zm15.78-8.173l-2.564.038c-.04 0-.097-.05-.097-.096l-.004-.27-.285.004.038 2.553.946-.013-.005-.318-.649-.032-.02-1.423 1.273-.02.01.742-.412.043.004.302 1.12-.017-.004-.302-.41-.03-.01-.741 1.167-.017.02 1.369-.592.054.005.308.89-.013-.036-2.494-.289.004.004.27c0 .046-.06.099-.1.1zm-.515-3.444l-2.517.485c-.044.009-.105-.035-.113-.077l-.052-.266-.279.054.473 2.453.992-.19-.061-.317-.707.094-.258-1.339 2.698-.52.096.501.284-.054-.242-1.258-.284.054.051.266c.004.02-.004.046-.021.07a.11.11 0 01-.06.044zm-1.135-3.68l.096.253c.017.042-.022.112-.06.126l-2.396.912a.067.067 0 01-.023.004c-.042 0-.09-.028-.101-.06l-.097-.253-.265.102.889 2.335.944-.36-.115-.301-.68.215-.485-1.275 2.568-.978.181.477.27-.103-.456-1.197-.27.103zm-14.091 6.436h-1.23v.422h1.23c1.93 0 3.184-1.195 3.205-2.849.022-1.654-1.118-2.768-3.016-2.768h-6.79v.423h6.458c1.84 0 2.927.719 2.927 2.34 0 1.434-1.167 2.45-2.784 2.432zM41.628 11.2a1.06 1.06 0 01.811-.354h.012c.696 0 1.133.526 1.14 1.373.008.848-.424 1.378-1.127 1.384h-.012c-.701 0-1.142-.522-1.149-1.363-.004-.434.108-.794.325-1.04zm.823 2.715h.016a1.516 1.516 0 001.088-.446c.298-.308.454-.743.45-1.258-.011-1.158-.788-1.677-1.553-1.677h-.015c-.778.008-1.557.537-1.547 1.705.01 1.158.791 1.676 1.56 1.676zm-.755 22.274h-1.492v.423h1.572c.491 0 .855-.39.855-.839v-9.418h-.422v9.316c0 .33-.201.518-.513.518zm.555 12.683v.422a18.522 18.522 0 003.612-.278 18.318 18.318 0 006.719-2.62l-.23-.355A17.896 17.896 0 0145.79 48.6a18.094 18.094 0 01-3.54.272zm5.505-34.534l-.252-.1-.105.264 1.105.44.105-.264-.44-.176.918-2.307.616 3.224.32.127 1.089-2.735c.015-.04.09-.074.127-.059l.252.1.107-.268-1.092-.435-.107.269.427.17-.864 2.169-.579-3.054-.751-.3-.107.27.252.1c.042.016.067.091.052.13l-.948 2.38c-.015.039-.087.07-.125.055zm-2.914-.566c.178.21.462.353.845.423.127.023.247.035.358.035.585 0 .941-.324 1.058-.962l.324-1.772c.007-.039.066-.092.113-.082l.248.045.052-.284-1.129-.206-.052.284.452.082-.343 1.876c-.087.477-.318.7-.725.7-.085 0-.177-.01-.28-.029-.593-.108-.82-.421-.718-.986l.343-1.876.452.083.052-.284-1.192-.218-.052.284.248.045c.022.004.043.02.059.045a.11.11 0 01.018.072l-.324 1.772c-.072.396-.007.716.193.953z"/></g></g></svg>