<svg width="86" height="62" viewBox="0 0 86 62" xmlns="http://www.w3.org/2000/svg"><g fill="none" fill-rule="evenodd"><path fill-opacity=".9" fill="#FFF" d="M0 0h86v62H0z"/><path d="M36.157 19.582h6.388V17h-6.388zm3.774 5.464h2.618v-4.532H39.93zm-3.775.001h2.615v-4.533h-2.615zm-7.547 0h6.387v-2.582H28.61zm-.004-3.514h2.618v-4.532h-2.618zm3.778 0h2.614V17h-2.614zm18.873-1.951h6.388V17h-6.388zm3.774 5.464h2.617v-4.532H55.03zm-3.775.001h2.615v-4.533h-2.615zm-7.547 0h6.388v-2.582h-6.388zm-.004-3.514h2.618v-4.532h-2.618zm3.778 0h2.615V17h-2.615zM39.785 41.4v.402h1.128v1.957h.5v-1.957h1.13V41.4zm10.875 0v2.359h2.75v-.444h-2.257V41.4zm4.758 0h-.002v1.355h2.077v.56h-2.077v.444h2.578V42.35h-2.077v-.547h2.077V41.4zm-10.241 0v2.359h2.749v-.444h-2.249v-.56h1.738v-.404h-1.738v-.55h2.249V41.4zm-10.939 2.358h2.837V41.4h-2.837v2.358zm.5-.443h1.836v-1.51H34.74v1.51zM30.764 41.4v.95h-1.738v-.95h-.5v2.359h.5v-1.004h1.738v1.004h.503V41.4zm15.515-8.605v4.025h.854v-1.568h3.41v-2.457h-4.264zm.854 1.739h2.558V33.48h-2.558v1.053zM6.5 32.795v.685h1.917v3.34h.854v-3.34h1.926v-.685zm33.544 0l-1.677 2.976-1.674-2.976H35.67v4.024h.854v-2.81l1.592 2.81h.504l1.592-2.81v2.81h.854v-4.024zm25.877 3.268h3.132v-2.578H65.92v2.578zm-.854.757h4.841v-4.025h-4.84v4.025zm-38.417-.757h3.132v-2.578H26.65v2.578zm-.854.757h4.84v-4.025h-4.84v4.025zm30.805-3.335h3.544v-.69h-4.398v2.313h3.544v.955h-3.544v.757h4.398v-2.402h-3.544zm-36.891-.69v1.621h-2.966v-1.62h-.854v4.023h.854v-1.712h2.965v1.712h.858v-4.024zm58.936 0h-.001l.001 2.722-3.298-2.722h-.65v4.025h.854v-2.734l3.299 2.734h.649v-4.025z" fill="#000"/></g></svg>