<svg width="86" height="62" viewBox="0 0 86 62" xmlns="http://www.w3.org/2000/svg" xmlns:xlink="http://www.w3.org/1999/xlink"><defs><path id="a" d="M.003.193h7.4v10.762h-7.4z"/><path id="c" d="M0 .133h4.382v10.44H0z"/></defs><g fill="none" fill-rule="evenodd"><path fill-opacity=".9" fill="#133D8C" d="M0 0h86v62H0z"/><path fill="#FFF" d="M20.09 38.883v1.022h-.255v-2.271h.256v1.01h1.311v-1.01h.257v2.271h-.257v-1.022zm3.916-1.051c-.52 0-.89.415-.89.935 0 .519.377.94.896.94.52 0 .89-.415.89-.934 0-.519-.377-.941-.896-.941m0 2.113c-.692 0-1.156-.543-1.156-1.172 0-.63.47-1.178 1.162-1.178.691 0 1.155.542 1.155 1.172 0 .629-.47 1.178-1.161 1.178m3.044-.039h-.26V37.87h-.762v-.237h1.785v.237h-.763zm3.494-2.038h-1.386v.775h1.24v.234h-1.24v.795h1.402v.234h-1.658v-2.272h1.642zm1.141-.234h.256v2.035h1.279v.237h-1.535zm3.492 1.012c.506.111.74.296.74.646 0 .393-.325.646-.776.646-.36 0-.656-.12-.928-.363l.159-.189c.237.215.464.322.779.322.305 0 .506-.16.506-.39 0-.214-.114-.334-.59-.435-.523-.113-.763-.282-.763-.659 0-.363.315-.622.746-.622.331 0 .568.093.798.278l-.149.199a1 1 0 00-.655-.247c-.296 0-.484.162-.484.37 0 .217.117.338.617.444m14.373-.776h-.7v.922h.697c.34 0 .584-.175.584-.47 0-.282-.214-.451-.58-.451zm.607 2.036l-.66-.883h-.648v.883h-.257v-2.272h.978c.5 0 .82.27.82.678 0 .38-.259.6-.616.666l.698.928h-.315zm3.076-2.038h-1.386v.775h1.24v.234h-1.24v.795h1.402v.234H51.59v-2.272h1.643zm1.993.778c.507.111.74.296.74.646 0 .393-.324.646-.775.646-.361 0-.656-.12-.929-.363l.16-.189c.236.215.464.322.778.322.305 0 .507-.16.507-.39 0-.214-.114-.334-.591-.435-.523-.113-.763-.282-.763-.659 0-.363.315-.622.747-.622.33 0 .567.093.798.278l-.15.199a.998.998 0 00-.655-.247c-.295 0-.483.162-.483.37 0 .217.117.338.616.444m2.927-.814c-.519 0-.89.415-.89.935 0 .519.378.94.897.94.52 0 .89-.415.89-.934 0-.519-.377-.941-.897-.941m0 2.113c-.691 0-1.155-.543-1.155-1.172 0-.63.471-1.178 1.162-1.178s1.156.542 1.156 1.172c0 .629-.47 1.178-1.163 1.178m3.314-2.075h-.7v.922h.697c.34 0 .584-.175.584-.47 0-.282-.214-.451-.581-.451zm.607 2.036l-.659-.883h-.649v.883h-.256v-2.272h.977c.5 0 .82.27.82.678 0 .38-.26.6-.616.666l.698.928h-.315zm2.229 0h-.26V37.87h-.762v-.237h1.785v.237h-.763zm2.648-1.26c.506.111.74.296.74.646 0 .393-.324.646-.776.646-.36 0-.655-.12-.928-.363l.16-.189c.236.215.464.322.778.322.305 0 .506-.16.506-.39 0-.214-.113-.334-.59-.435-.523-.113-.763-.282-.763-.659 0-.363.315-.622.747-.622.33 0 .568.093.798.278l-.15.199a.997.997 0 00-.655-.247c-.295 0-.484.162-.484.37 0 .217.117.338.617.444m-24.709-.587a.628.628 0 111.084.62l-1.084 1.21h.003l-1.084-1.21a.628.628 0 111.084-.62h-.003z"/><path d="M42.243 36.4a2.212 2.212 0 00-2.209 2.21c0 1.218.991 2.21 2.209 2.21s2.21-.992 2.21-2.21-.992-2.21-2.21-2.21m0 5.374a3.167 3.167 0 01-3.164-3.164 3.168 3.168 0 013.164-3.165 3.168 3.168 0 013.165 3.165 3.168 3.168 0 01-3.165 3.164" fill="#FFF"/><g transform="translate(34.037 20.145)"><mask id="b" fill="#fff"><use xlink:href="#a"/></mask><path d="M4.915 2.899c0-1.66-.2-1.942-1.311-1.942V.608L6.092.193V8.25c0 1.66.215 1.942 1.312 1.942v.349l-2.208.415c-.083-.166-.216-.747-.266-1.012-.464.58-1.128 1.012-2.04 1.012-1.577 0-2.887-1.378-2.887-3.053 0-1.677 1.31-3.038 2.887-3.038.83 0 1.526.365 2.025.98V2.899zm0 3.94c-.3-.78-.93-1.31-1.677-1.31-1.294 0-1.891 1.045-1.891 2.373 0 1.327.597 2.39 1.89 2.39.748 0 1.378-.532 1.678-1.313V6.84z" fill="#FFF" mask="url(#b)"/></g><path d="M45.187 30.402c.548 0 1.344-.315 1.826-.763l.299.366c-.581.613-1.594 1.094-2.54 1.094-1.827 0-3.071-1.377-3.071-3.052 0-1.76 1.526-3.038 3.07-3.038 1.479 0 2.658 1.195 2.259 2.622h-4.002c-.2 1.56.448 2.771 2.159 2.771zm.697-3.385c.184-.53-.1-1.344-1.195-1.344-.715 0-1.329.531-1.561 1.344h2.756zm-35.1-3.634a.74.74 0 010-1.477.739.739 0 010 1.477M16.09 31.1c-1.842 0-3.353-1.378-3.353-3.053 0-1.677 1.51-3.038 3.352-3.038 1.842 0 3.352 1.361 3.352 3.038 0 1.675-1.51 3.052-3.352 3.052m0-5.459c-1.36 0-2.008 1.078-2.008 2.407 0 1.327.647 2.405 2.008 2.405 1.377 0 2.007-1.078 2.007-2.405 0-1.329-.63-2.407-2.007-2.407m5.92-2.257a.74.74 0 010-1.477.738.738 0 010 1.477m5.786 7.019c.548 0 1.345-.315 1.826-.763l.298.366c-.581.613-1.592 1.094-2.539 1.094-1.824 0-3.07-1.377-3.07-3.052 0-1.76 1.527-3.038 3.07-3.038 1.478 0 2.656 1.195 2.257 2.622h-3.999c-.199 1.56.448 2.771 2.157 2.771zm.697-3.385c.182-.53-.1-1.344-1.195-1.344-.713 0-1.327.531-1.56 1.344h2.755zm49.384 3.385c.547 0 1.345-.315 1.824-.763l.3.366c-.58.613-1.593 1.094-2.539 1.094-1.825 0-3.07-1.377-3.07-3.052 0-1.76 1.527-3.038 3.07-3.038 1.478 0 2.654 1.195 2.257 2.622h-4c-.198 1.56.448 2.771 2.158 2.771zm.697-3.385c.183-.53-.099-1.344-1.195-1.344-.714 0-1.327.531-1.559 1.344h2.754zM57.928 25.62c1.085.001 1.3.27 1.3 1.924v1.282c0 1.66-.216 1.941-1.31 1.941v.349h3.798v-.349c-1.112 0-1.31-.28-1.31-1.941v-3.817l-2.477.281-.001.33zm1.881-2.237a.738.738 0 100-1.477.74.74 0 000 1.477m12.935 1.627c.912 0 1.31.612 1.31 1.029 0 .364-.148.78-.663.78-.316 0-.58-.283-.58-.598 0-.35-.2-.548-.532-.548-.382 0-1.278.614-1.278 1.942v1.211c0 1.66.2 1.941 1.31 1.941v.35h-3.799v-.35c1.095 0 1.311-.28 1.311-1.94v-1.28c0-1.658-.216-1.925-1.31-1.925v-.33l2.206-.283c.084.167.232.846.282 1.195.332-.664 1.08-1.195 1.743-1.195" fill="#FFF"/><g transform="translate(7 24.876)"><mask id="d" fill="#fff"><use xlink:href="#c"/></mask><path d="M1.943 10.573C.68 10.573 0 9.76 0 9.212c0-.265.167-.481.483-.481.88 0 .365 1.295 1.542 1.295.648 0 1.179-.499 1.179-2.588V2.82c0-1.659-.216-1.925-1.311-1.925V.547L4.382.133v7.305c0 2.206-1.178 3.135-2.44 3.135" fill="#FFF" mask="url(#d)"/></g><path d="M20.117 31.116v-.349c1.096 0 1.311-.28 1.311-1.94v-1.13c0-1.658-.215-1.925-1.31-1.925v-.348l2.489-.415v3.817c0 1.66.198 1.941 1.31 1.941v.35h-3.8zm37.225-5.494v-.33h-2.456v.33c.73 0 .78.267.48.98l-1.11 2.656-1.18-2.655c-.33-.797-.23-.98.532-.98v-.331h-2.954v.33c.564 0 .83.267 1.145.98l2.024 4.514h.333l1.875-4.513c.298-.732.73-.98 1.31-.98zm10.639 0v-.33h-2.456v.33c.73 0 .78.267.48.98l-1.11 2.656-1.178-2.655c-.332-.797-.232-.98.53-.98v-.331h-2.953v.33c.564 0 .83.267 1.145.98l2.024 4.514h.332l1.876-4.513c.297-.732.73-.98 1.31-.98z" fill="#FFF"/></g></svg>