<svg width="86" height="62" viewBox="0 0 86 62" xmlns="http://www.w3.org/2000/svg"><defs><linearGradient x1=".21%" y1="49.92%" x2="97.974%" y2="49.92%" id="a"><stop stop-color="#FFF" stop-opacity=".6" offset="0%"/><stop stop-color="#FFF" stop-opacity=".8" offset="53.37%"/><stop stop-color="#FFF" offset="100%"/></linearGradient><linearGradient x1="-.087%" y1="50.017%" x2="99.628%" y2="50.017%" id="b"><stop stop-color="#FFF" offset="0%"/><stop stop-color="#FFF" stop-opacity=".8" offset="53.37%"/><stop stop-color="#FFF" stop-opacity=".6" offset="100%"/></linearGradient><linearGradient x1="-.031%" y1="49.894%" x2="99.967%" y2="49.894%" id="c"><stop stop-color="#FFF" offset="0%"/><stop stop-color="#FFF" stop-opacity=".8" offset="53.37%"/><stop stop-color="#FFF" stop-opacity=".6" offset="100%"/></linearGradient><linearGradient x1=".257%" y1="49.94%" x2="100.28%" y2="49.94%" id="d"><stop stop-color="#FFF" stop-opacity=".6" offset="0%"/><stop stop-color="#FFF" stop-opacity=".8" offset="53.37%"/><stop stop-color="#FFF" offset="100%"/></linearGradient></defs><g fill="none"><path fill-opacity=".9" fill="#564E8E" d="M0 0h86v62H0z"/><path d="M32.073 26.688v3.11h-1.16V23.08h1.16v2.523h3.163V23.08h1.16v6.717h-1.16v-3.109h-3.163zm25.044 3.08h-1.19v-5.603h-2.263V23.08h5.687v1.085h-2.234v5.603zm7.342 0h-1.19v-5.603h-2.264V23.08h5.688v1.085H64.46l-.001 5.603zM41.853 26.19s0-.089.058-.177c.116-.264 1.799-2.933 1.799-2.933h1.364l-2.641 4.077v2.64h-1.19v-2.64l-2.64-4.077h1.363s1.683 2.67 1.8 2.933c.058.118.058.176.087.176v.001zm9.576 3.578h1.248l-2.931-6.776h-1.074l-2.93 6.776h1.189l.784-1.877h2.901l.813 1.877zm-3.25-2.963l.986-2.376.987 2.376h-1.973zm-14.104 9.563c1.132-.176 1.8-.88 1.8-1.848v-.088c0-1.115-.93-1.848-2.293-1.848h-2.699v6.453h.552v-2.581h1.973l2.002 2.552v.03h.726l-2.06-2.67h-.001zm-2.611-.41V33.14h2.089c1.103 0 1.77.499 1.77 1.35v.088c0 .85-.696 1.408-1.8 1.408h-2.06v-.03l.001.002zm7.109 2.552v-2.435h3.599v-.528h-3.599V33.14h4.005v-.528h-4.556v6.424h4.614v-.528l-4.063.002zm8.793-2.993v.528h2.09v1.878a3.102 3.102 0 01-1.945.704c-1.596 0-2.64-1.144-2.64-2.816v-.03c0-1.554 1.131-2.786 2.553-2.786 1.016 0 1.567.381 2.003.762l.029.03.377-.44-.03-.03c-.725-.586-1.392-.85-2.32-.85-1.974 0-3.164 1.701-3.164 3.344v.029c0 1.965 1.335 3.315 3.221 3.315 1.277 0 2.177-.675 2.496-.968h.03v-2.64h-2.7v-.03zm5.485 2.993v-2.435h3.598v-.528h-3.598V33.14h4.005v-.528H52.27v6.424h4.614v-.528l-4.033.002zm11.144-5.897v5.427l-4.266-5.427h-.523v6.424h.552v-5.544l4.353 5.544h.435v-6.424h-.551zm7.69 5.017l-.03.029c-.696.704-1.305.968-2.118.968-1.45 0-2.612-1.232-2.612-2.816v-.03c0-1.584 1.132-2.786 2.612-2.786 1.016 0 1.625.469 2.09.909l.029.03.406-.411-.03-.03c-.667-.616-1.334-1.026-2.466-1.026-1.799 0-3.192 1.466-3.192 3.344v.029c0 1.877 1.364 3.315 3.163 3.315 1.248 0 1.974-.558 2.525-1.115l.029-.03-.406-.38zm6.529-5.017l-2.292 3.374-2.293-3.374h-.725l2.727 3.902v2.522h.58v-2.552l2.7-3.872h-.697z" fill="#FFF"/><g fill="#FFF"><path d="M80.304 32.73c.319 0 .58.235.58.587a.585.585 0 01-.997.419.567.567 0 01-.163-.419c0-.352.26-.586.58-.586v-.001zm0 1.262a.66.66 0 00.667-.675.66.66 0 00-.667-.674.685.685 0 00-.697.674c.03.352.32.675.697.675z"/><path d="M80.042 32.907h.32c.087 0 .174.029.203.088.036.04.057.092.058.146 0 .118-.058.176-.174.206l.203.264h-.174l-.174-.235h-.146v.235h-.145v-.704h.03-.001zm.29.352c.088 0 .146-.03.146-.118 0-.058-.058-.117-.145-.117h-.175v.235h.175-.001z"/></g><path d="M1.968 11.791c-.68 0-1.338-.088-1.968-.248v4.86l9.2 5.368.002-.004a8.117 8.117 0 00.753-3.422 8.112 8.112 0 00-.753-3.422 8.062 8.062 0 00-3.853-3.892 7.88 7.88 0 01-3.381.76" fill="url(#a)" transform="translate(7 20)"/><path d="M9.2.294L0 5.661v5.883c.63.16 1.289.248 1.968.248a7.88 7.88 0 003.381-.76 8.062 8.062 0 003.853-3.891A8.093 8.093 0 018.45 3.72c0-1.224.27-2.383.752-3.423L9.2.293v.001z" fill="url(#b)" transform="translate(7 20)"/><path d="M9.204.293l-.002.003a8.101 8.101 0 00-.752 3.423 8.1 8.1 0 00.752 3.42 8.053 8.053 0 003.851 3.892 7.92 7.92 0 015.35-.511V5.662L9.203.293h.001z" fill="url(#c)" transform="translate(7 20)"/><path d="M13.053 11.031a8.055 8.055 0 00-3.85 3.892 8.112 8.112 0 01.752 3.422 8.117 8.117 0 01-.753 3.422l.002.004 9.2-5.369V10.52a7.951 7.951 0 00-1.969-.248c-1.17 0-2.325.259-3.382.76" fill="url(#d)" transform="translate(7 20)"/></g></svg>