<svg width="86" height="62" viewBox="0 0 86 62" xmlns="http://www.w3.org/2000/svg"><g fill="none"><path fill-opacity=".9" fill="#00A3DA" d="M0 0h86v62H0z"/><g fill="#FEFEFE"><path d="M39.03 17.321v-6.794h-6.047v19.568h6.048v-7.049h8.206v7.05h6.046V17.32H39.031"/><path d="M47.253 16.377c3.562.043 6.078-2.831 6.03-5.85h-6.03v5.85zM30.979 50.338h-.934v-5.702h.934v2.153c.26-.288.64-.538 1.273-.538.918 0 1.451.606 1.451 1.54v2.547h-.934v-2.275c0-.622-.316-.978-.872-.978-.54 0-.918.371-.918.993v2.26zm6.731-3.284c-.749 0-1.227.577-1.227 1.282 0 .713.517 1.297 1.242 1.297.756 0 1.235-.577 1.235-1.282 0-.713-.517-1.297-1.25-1.297zm0 3.375c-1.243 0-2.16-.933-2.16-2.078 0-1.152.925-2.1 2.175-2.1 1.25 0 2.168.932 2.168 2.085 0 1.145-.925 2.093-2.183 2.093zm5.838-.842c.555 0 .872-.356.872-.978v-2.275h.933v2.548c0 .933-.68 1.54-1.726 1.54h-.16c-1.05 0-1.727-.607-1.727-1.54v-2.548h.933v2.275c0 .622.317.978.872.978h.003zm5.471.826c-.579 0-1.22-.204-1.729-.598l.417-.622c.44.326.918.493 1.335.493.401 0 .632-.167.632-.433v-.015c0-.31-.431-.417-.91-.56-.602-.168-1.273-.41-1.273-1.176v-.015c0-.759.64-1.221 1.45-1.221.51 0 1.065.174 1.497.455l-.37.652c-.394-.235-.81-.38-1.15-.38-.363 0-.57.168-.57.403v.015c0 .288.44.41.917.561.594.182 1.266.447 1.266 1.168v.015c0 .842-.664 1.258-1.512 1.258zm6.268-2.357C55.225 47.464 54.87 47 54.253 47c-.572 0-.973.433-1.058 1.055h2.092v.001zm-.911 1.622c.455 0 .78-.167 1.103-.478l.548.478c-.385.455-.918.75-1.666.75-1.181 0-2.092-.84-2.092-2.084 0-1.153.826-2.093 1.991-2.093 1.296 0 1.952 1 1.952 2.16 0 .084-.007.16-.015.251h-2.994c.108.652.571 1.016 1.173 1.016zM28.812 36.26v3.057h-4.2V36.26h-.601v6.706h.6V39.87h4.201v3.095h.601V36.26h-.601zm9.244 0l-2.499 3.51-2.49-3.51h-.749l2.929 4.057v2.648h.6v-2.657l2.93-4.049h-.72l-.001.001zm3.64 4.312l1.698-3.651 1.688 3.651h-3.386zm1.98-4.36h-.545l-3.178 6.753h.63s.83-1.792.855-1.85h3.901l.855 1.85h.66l-3.178-6.753zm4.949.048v.552h2.343v6.153h.601v-6.153h2.344v-.553h-5.288v.001zm8.048 0v.552h2.343v6.153h.601v-6.153h2.344v-.553h-5.288v.001zm1.422 11.538c.46 0 .827-.359.827-.812a.817.817 0 00-.827-.815.817.817 0 00-.83.815c0 .453.364.812.83.812zm0-1.492a.68.68 0 010 1.36.684.684 0 01-.696-.68c0-.387.315-.68.696-.68z"/><path d="M58.137 46.966c.103 0 .171-.053.171-.137v-.005c0-.085-.068-.136-.171-.136h-.213v.278h.213zm-.378-.432h.383c.113 0 .204.037.26.099a.241.241 0 01.07.182v.006c0 .139-.08.23-.198.265l.231.328h-.195l-.206-.302h-.18v.302h-.165v-.88z"/></g></g></svg>