<svg width="86" height="62" viewBox="0 0 86 62" xmlns="http://www.w3.org/2000/svg" xmlns:xlink="http://www.w3.org/1999/xlink"><defs><path id="a" d="M0 .11h73.81v20.652H0z"/></defs><g fill="none" fill-rule="evenodd"><path fill-opacity=".9" fill="#000" fill-rule="nonzero" d="M0 0h86v62H0z"/><g transform="translate(6 20)"><mask id="b" fill="#fff"><use xlink:href="#a"/></mask><path d="M1.462 10.569c.105.024.284.063.438.063.886 0 1.455-.588 1.455-1.389 0-.62-.252-1.23-1.332-1.23-.187 0-.366 0-.561.03v2.526zm0 1.54c0 .444.138.612.65.612h.268v.15H.13v-.15h.114c.423 0 .545-.088.545-.46V8.505c0-.295-.098-.422-.383-.422H0v-.15c.227-.008.626-.033 1.024-.05.398-.014.788-.023 1.007-.023 1.699 0 2.088.794 2.088 1.407 0 .93-.764 1.516-1.966 1.516a3.37 3.37 0 01-.691-.062v1.388z" fill="#FEFEFE" fill-rule="nonzero" mask="url(#b)"/></g><path d="M14.54 28.48l-.69 1.85h1.405l-.715-1.85zm-.828 2.2l-.472 1.247c-.056.15-.161.39-.161.5 0 .215.21.294.657.294h.13v.15H11.99v-.15c.528-.008.618-.096.878-.787l1.478-3.947-.073-.174h.708l1.698 4.408c.161.42.332.5.738.5v.15h-2.235v-.15h.211c.464 0 .635-.047.635-.27 0-.127-.057-.246-.09-.325l-.545-1.446h-1.681zm7.231-.048c.195.024.317.016.504.016.901 0 1.495-.373 1.495-1.326 0-.738-.342-1.31-1.593-1.31-.155 0-.26 0-.406.015v2.605zm0 1.494c0 .476.195.595.65.595h.187v.15h-2.3v-.15h.138c.48 0 .65-.127.65-.659v-3.344c0-.492-.137-.635-.608-.635h-.18v-.15c.196 0 .69-.032 1.025-.049.331-.015.495-.023 1.023-.023 1.503 0 2.178.602 2.178 1.413 0 .596-.415 1.096-1.082 1.287.302.23.545.453.927.825l.642.628c.479.47.975.763 1.6.803v.142c-1.421.064-1.788-.238-2.51-.945l-.536-.523c-.358-.35-.642-.581-.837-.708-.203.008-.333.017-.553.017-.178 0-.284-.009-.414-.017v1.343zm10.067.746v-.15c.373-.009.529-.073.529-.223 0-.135-.18-.405-1-1.207-.65-.636-.845-.755-1.203-.715v1.485c0 .5.146.66.65.66h.106v.15h-2.227v-.15h.147c.52 0 .65-.175.65-.582v-3.486c0-.476-.22-.571-.65-.571h-.147v-.151h2.194v.15h-.073c-.487 0-.65.152-.65.629v1.714c.317-.03.568-.173.91-.507.633-.62 1.13-1.335 1.13-1.59 0-.181-.122-.245-.561-.245v-.151h2.137v.15c-.578.01-.83.088-1.074.327-.25.245-.762 1.238-1.616 1.874.146.024.292.142.65.492.854.834 1.309 1.454 1.576 1.716.139.134.35.23.902.23v.15h-2.38v.001zm10.628-2.359v1.509c0 .517.105.7.65.7h.024v.15h-2.04v-.15h.048c.48 0 .644-.127.644-.58v-3.496c0-.413-.14-.533-.587-.564v-.15h1.935v.15c-.577 0-.674.15-.674.763v1.381h3.184v-1.564c0-.42-.138-.58-.642-.58h-.153v-.15h2.088v.15c-.488.017-.618.16-.618.653v3.296c0 .564.162.69.65.69h.081v.15h-2.3v-.15h.252c.528 0 .642-.182.642-.596v-1.612h-3.184zm10.854-1.859c.261-.436.107-.571-.414-.571v-.15h1.836v.15c-.552.04-.788.254-1.015.627l-1.35 2.232v1.19c0 .422.155.59.65.59h.107v.15h-2.235v-.15h.155c.503 0 .65-.183.65-.573V31.03l-1.446-2.209c-.399-.612-.586-.721-1.114-.738v-.15h2.16v.15c-.632 0-.674.15-.429.517l1.301 1.96 1.144-1.906zm5.071-.174l-.691 1.85h1.406l-.715-1.85zm-.83 2.2l-.47 1.247c-.057.15-.163.39-.163.5 0 .215.211.294.658.294h.13v.15h-1.877v-.15c.529-.008.618-.096.878-.787l1.479-3.947-.074-.174H58l1.699 4.408c.162.42.332.5.739.5v.15h-2.234v-.15h.21c.464 0 .635-.047.635-.27 0-.127-.057-.246-.09-.325l-.544-1.446h-1.683.001zm8.581 1.46c0 .43.146.581.642.581h.3v.151h-2.56v-.15h.301c.496 0 .642-.152.642-.581v-3.923h-1.413c-.326 0-.472.183-.593.881h-.147l.13-1.286h.154c.009.048.041.08.089.095a.55.55 0 00.163.025h3.908c.114 0 .236-.025.251-.12h.156l.13 1.286h-.147c-.122-.698-.268-.881-.593-.881h-1.413v3.923-.001zm7.858 0c0 .43.145.581.64.581h.3v.151h-2.56v-.15h.301c.497 0 .643-.152.643-.581v-3.923h-1.414c-.325 0-.47.183-.593.881h-.147l.131-1.286h.153c.01.048.042.08.09.095a.538.538 0 00.163.025h3.908c.113 0 .236-.025.252-.12h.155l.129 1.286h-.146c-.121-.698-.268-.881-.594-.881h-1.411v3.923-.001zm-11.31-11.454H20.137v-.576h41.725v.576zm.002 20.027H20.137v-.576h41.727v.576zM77.976 29.22h.287c.243 0 .466-.012.466-.286 0-.23-.203-.265-.388-.265h-.365v.551zm-.277-.77h.685c.421 0 .622.164.622.496 0 .314-.205.444-.468.471l.507.766h-.296l-.482-.745h-.29v.745h-.278V28.45zm.592 2.134c.702 0 1.245-.547 1.245-1.272 0-.709-.543-1.257-1.245-1.257-.71 0-1.252.548-1.252 1.257 0 .725.543 1.272 1.252 1.272zm0-2.746c.826 0 1.52.636 1.52 1.474 0 .852-.694 1.49-1.52 1.49-.83 0-1.528-.638-1.528-1.49 0-.838.697-1.474 1.528-1.474z" fill="#FEFEFE" fill-rule="nonzero"/></g></svg>