<svg width="86" height="62" viewBox="0 0 86 62" xmlns="http://www.w3.org/2000/svg"><g fill="none"><path fill-opacity=".9" fill="#D79100" d="M0 0h86v62H0z"/><path d="M50.225 25.094h9.98v2.38H56.51V38h-2.518V27.474h-3.766v-2.38h-.001zm11.966 0h9.981v2.38h-3.767V38h-2.518V27.474h-3.696v-2.38zM43.21 25h2.396l5.23 13h-2.619l-1.357-3.546h-4.979l-1.355 3.545h-2.548L43.21 25zm1.161 2.947l-1.621 4.239h3.243l-1.622-4.239zm-8.426-2.853h2.845l-4.783 7.749V38h-2.519v-5.1l-4.784-7.806h2.936l3.125 5.441 3.18-5.441zm-13.965 0h2.52V38h-2.52v-5.659h-5.463V38H14V25.094h2.518v4.869h5.463v-4.87l-.001.001zM73.893 25c.585 0 1.076.47 1.076 1.088a1.08 1.08 0 01-1.076 1.099c-.587 0-1.08-.47-1.08-1.1A1.08 1.08 0 0173.893 25zm0 2.026c.498 0 .881-.403.881-.938 0-.523-.383-.928-.88-.928-.502 0-.886.405-.886.928 0 .535.384.938.885.938zm-.418-1.574h.484c.299 0 .44.12.44.366 0 .232-.145.328-.33.348l.358.564h-.21l-.34-.55h-.206v.55h-.196v-1.278zm.196.568h.203c.172 0 .33-.009.33-.211 0-.17-.144-.196-.275-.196h-.258v.407z" fill="#FEFEFE"/></g></svg>