<svg width="140" height="40" viewBox="0 0 140 40" xmlns="http://www.w3.org/2000/svg"><title>master-hc</title><path d="M133.237 9.785a2.924 2.924 0 0 1-2.173.917 2.93 2.93 0 0 1-2.175-.917 3.049 3.049 0 0 1-.888-2.205c0-.856.299-1.589.899-2.196a2.931 2.931 0 0 1 2.164-.909c.851 0 1.575.304 2.173.909.602.602.902 1.337.902 2.196 0 .858-.3 1.593-.902 2.205zm-.302-4.099a2.546 2.546 0 0 0-1.871-.785c-.729 0-1.349.263-1.865.785a2.604 2.604 0 0 0-.771 1.897c0 .745.254 1.381.766 1.905a2.51 2.51 0 0 0 1.87.789c.732 0 1.355-.261 1.871-.789.511-.524.77-1.16.77-1.905 0-.74-.259-1.373-.77-1.897zm-.722 2.337a.979.979 0 0 1 .181.531v.248c0 .081.003.166.008.254a.573.573 0 0 0 .029.181l.021.041h-.552a.594.594 0 0 1-.01-.033c-.004-.012-.004-.027-.007-.041l-.014-.11v-.271c0-.393-.111-.654-.32-.781-.128-.071-.344-.111-.661-.111h-.466v1.347h-.598V5.862h1.182c.415 0 .722.041.919.121.348.148.521.439.521.867 0 .304-.109.529-.327.676a1.266 1.266 0 0 1-.488.162c.269.041.458.154.582.335zm-.34-1.123c0-.248-.079-.414-.228-.5-.149-.088-.389-.131-.717-.131h-.506v1.243h.534c.254 0 .44-.027.568-.077a.537.537 0 0 0 .349-.535zm-15.909 22.419h-3.102V6.946h-7.498V4.465h18.095v2.481h-7.495v22.373zm-25.963-3.456c7.393 2.091 14.33 5.133 21.333 9.139v.676c-10.906-4.802-23.17-8.36-37.582-9.56l4.388 10.793h-3.397l-4.332-11.026c-2.42-.136-4.902-.212-7.446-.212-1.805 0-3.578.038-5.321.108l-4.373 11.13h-3.399l4.45-10.95c-15.288 1.016-28.307 4.684-39.742 9.714v-.68c7.631-4.314 15.18-7.534 23.327-9.638v-6.625L28.731 4.465h3.409l7.283 11.854 7.284-11.854h3.405l-9.174 14.267-.002 5.899c4.662-1.026 9.538-1.703 14.75-2.024l7.563-18.614h1.515l7.624 18.762c5.115.414 9.912 1.176 14.509 2.292V6.946H79.4V4.465h18.096v2.481h-7.495v18.917zM64.008 9.58L58.95 22.453c1.316-.041 2.647-.065 4.008-.065 2.101 0 4.146.051 6.14.152l-5.09-12.96zm-47.524 7.477H3.104v12.262H.001V4.465h3.103v10.113h13.38V4.465h3.102v24.854l-3.102.003V17.057z" fill="#FFF" fill-rule="evenodd"/></svg>