<?xml version="1.0" encoding="UTF-8"?>
<svg width="20px" height="18px" viewBox="0 0 20 18" version="1.1" xmlns="http://www.w3.org/2000/svg" xmlns:xlink="http://www.w3.org/1999/xlink">
    <!-- Generator: Sketch 53.2 (72643) - https://sketchapp.com -->
    <title>H</title>
    <desc>Created with Sketch.</desc>
    <g id="H" stroke="none" stroke-width="1" fill="none" fill-rule="evenodd">
        <path d="M13.2417579,12.6913588 L13.2417579,6.9367029 L5.73797194,6.9367029 L5.73797194,12.7186577 C5.13870171,12.803489 4.53397797,12.9030794 4,13 L4.05104957,1 L5.75618438,1 L5.73797194,5.63565488 L13.2417579,5.63565488 L13.2599704,1 L15,1 L14.9823763,12.9689097 C14.4236278,12.8619154 13.818122,12.766737 13.2417579,12.6913588 Z" id="Combined-Shape" stroke="#DEDEDE" stroke-width="0.5" fill="#DEDEDE"></path>
        <path d="M14.8107154,15.5252074 C13.9140139,15.3111874 12.3563438,15.120515 11.3519672,15.0583691 L10.3660533,15.0164807 L9.30673134,15 L8.07193887,15.0360515 C7.04850859,15.0842346 5.49630355,15.2951645 4.58084377,15.4493276 C2.98078313,15.7654363 1.49858905,16.2490987 0,16.8973391 L0,16.9994278 C2.24552034,16.2437196 4.79885259,15.6988269 7.80090487,15.5461516 C8.01226708,15.53402 8.22983279,15.523834 8.45493132,15.516166 C8.7973056,15.5055222 9.147065,15.4967096 9.50140317,15.4967096 C9.51632112,15.4967096 9.53050056,15.4971674 9.5454185,15.4971674 C9.56240428,15.4971674 9.57850385,15.496824 9.59563734,15.496824 C10.4629461,15.496824 11.2247954,15.5271531 11.8955122,15.5834621 C14.6062952,15.7802003 16.9286208,16.3020887 19,17 L19,16.8983691 C17.6247425,16.2964807 16.2624828,15.839485 14.8107154,15.5252074" id="Fill-4" stroke="#DEDEDE" stroke-width="0.625" fill="#DEDEDE"></path>
    </g>
</svg>