<?xml version="1.0" encoding="utf-8"?>
<!-- Generator: Adobe Illustrator 23.1.1, SVG Export Plug-In . SVG Version: 6.00 Build 0)  -->
<svg version="1.1" id="Layer_1" xmlns="http://www.w3.org/2000/svg" xmlns:xlink="http://www.w3.org/1999/xlink" x="0px" y="0px"
	 viewBox="0 0 17.3 17.4" style="enable-background:new 0 0 17.3 17.4;" xml:space="preserve">
<style type="text/css">
	.st0{fill:#FFB612;}
</style>
<title>Fill 2 Copy 4</title>
<desc>Created with Sketch.</desc>
<path class="st0" d="M17.1,6.6c-0.1-0.2-0.3-0.3-0.5-0.3h-5.7L9.1,0.5C9,0.3,8.8,0.2,8.6,0.2S8.2,0.3,8.1,0.5L6.4,6.3H0.6
	c-0.2,0-0.4,0.1-0.5,0.3s0,0.4,0.2,0.6L5,10.8l-1.8,5.8c-0.1,0.2,0,0.4,0.2,0.6c0.1,0.1,0.2,0.1,0.3,0.1c0.1,0,0.2,0,0.3-0.1
	l4.6-3.5l4.6,3.5c0.2,0.1,0.4,0.1,0.6,0c0.2-0.1,0.3-0.3,0.2-0.6l-1.8-5.8l4.7-3.6C17.1,7.1,17.2,6.8,17.1,6.6z"/>
</svg>
