<?xml version="1.0" encoding="UTF-8"?><svg xmlns="http://www.w3.org/2000/svg" class="header" enable-background="new 0 0 218 44" height="42px" id="Layer_1" preserveAspectRatio="xMidYMid meet" viewBox="0 0 218 44" width="204px"><defs><style>.cls-1{fill:#2f2d2e;}.cls-2{fill:#c60039;}.cls-3{fill:#8f0c3e;}</style></defs><title/><path class="cls-1" d="M101.1,34.88H99.26V41.1h-.87V34.88H96.56v-.76h4.54Z"/><path class="cls-1" d="M102.86,36.44a1.58,1.58,0,0,1,.54-.46,1.53,1.53,0,0,1,1.27-.06,1.09,1.09,0,0,1,.44.33,1.57,1.57,0,0,1,.28.58,3.15,3.15,0,0,1,.1.87v3.4h-.84V37.69a1.39,1.39,0,0,0-.21-.87.72.72,0,0,0-.61-.25.87.87,0,0,0-.57.21,1.54,1.54,0,0,0-.4.55V41.1H102V33.73h.85Z"/><path class="cls-1" d="M108.61,41.19a2.25,2.25,0,0,1-.84-.14,1.62,1.62,0,0,1-.64-.42,1.93,1.93,0,0,1-.4-.72,3.51,3.51,0,0,1-.14-1v-.59a3.49,3.49,0,0,1,.17-1.15,2,2,0,0,1,.43-.77,1.51,1.51,0,0,1,.61-.43,2.13,2.13,0,0,1,.71-.13,1.89,1.89,0,0,1,.83.17,1.37,1.37,0,0,1,.57.47,2.1,2.1,0,0,1,.32.76,4.8,4.8,0,0,1,.1,1v.5h-2.89v.12a1.89,1.89,0,0,0,.31,1.21,1.11,1.11,0,0,0,.9.38,2.13,2.13,0,0,0,.39,0,1.13,1.13,0,0,0,.32-.13,1.51,1.51,0,0,0,.26-.18,2.61,2.61,0,0,0,.23-.24l.44.54a1.69,1.69,0,0,1-.26.28,1.16,1.16,0,0,1-.35.25,2.87,2.87,0,0,1-.47.18A2.77,2.77,0,0,1,108.61,41.19Zm-.1-4.65a1.35,1.35,0,0,0-.41.07.82.82,0,0,0-.33.24,1.16,1.16,0,0,0-.22.46,2.73,2.73,0,0,0-.11.72h2v-.12a4.41,4.41,0,0,0-.06-.55,1.54,1.54,0,0,0-.16-.43.81.81,0,0,0-.29-.29A1,1,0,0,0,108.51,36.54Z"/><path class="cls-1" d="M117.35,38.75a4.33,4.33,0,0,1-.11,1.08,2,2,0,0,1-.33.76,1.35,1.35,0,0,1-.53.45,1.7,1.7,0,0,1-.73.15,1.39,1.39,0,0,1-.73-.18,1.42,1.42,0,0,1-.5-.53l0,.62h-.77V33.73h.84v2.75a1.46,1.46,0,0,1,.5-.49,1.3,1.3,0,0,1,.7-.18,1.67,1.67,0,0,1,.73.15,1.22,1.22,0,0,1,.54.44,2,2,0,0,1,.33.77,4.44,4.44,0,0,1,.11,1.1Zm-.84-.48a5.32,5.32,0,0,0-.05-.75,1.5,1.5,0,0,0-.19-.53.78.78,0,0,0-.33-.32,1.15,1.15,0,0,0-.52-.1.87.87,0,0,0-.6.2,1.42,1.42,0,0,0-.38.51v2.47a1.53,1.53,0,0,0,.17.27,1.15,1.15,0,0,0,.21.23.87.87,0,0,0,.27.14.93.93,0,0,0,.34.06.9.9,0,0,0,.83-.41,2.56,2.56,0,0,0,.25-1.29Z"/><path class="cls-1" d="M120.29,41.19a2.25,2.25,0,0,1-.84-.14,1.52,1.52,0,0,1-.63-.42,1.8,1.8,0,0,1-.4-.72,3.51,3.51,0,0,1-.14-1v-.59a3.51,3.51,0,0,1,.16-1.15,2.18,2.18,0,0,1,.43-.77,1.59,1.59,0,0,1,.61-.43,2.18,2.18,0,0,1,.72-.13A1.92,1.92,0,0,1,121,36a1.37,1.37,0,0,1,.57.47,2.29,2.29,0,0,1,.32.76,5.51,5.51,0,0,1,.1,1v.5h-2.9v.12a1.88,1.88,0,0,0,.32,1.21,1.11,1.11,0,0,0,.9.38,2.34,2.34,0,0,0,.39,0,1.07,1.07,0,0,0,.31-.13,1.27,1.27,0,0,0,.27-.18,2.5,2.5,0,0,0,.22-.24l.44.54a1.62,1.62,0,0,1-.25.28,1.48,1.48,0,0,1-.35.25,2.67,2.67,0,0,1-.48.18A2.64,2.64,0,0,1,120.29,41.19Zm-.09-4.65a1.3,1.3,0,0,0-.41.07.71.71,0,0,0-.33.24,1.31,1.31,0,0,0-.23.46,3.28,3.28,0,0,0-.1.72h2v-.12a3.06,3.06,0,0,0-.07-.55,1.28,1.28,0,0,0-.15-.43.89.89,0,0,0-.29-.29A1,1,0,0,0,120.2,36.54Z"/><path class="cls-1" d="M125.56,39.77a.55.55,0,0,0-.06-.26.6.6,0,0,0-.17-.23,1.66,1.66,0,0,0-.31-.21,5.21,5.21,0,0,0-.47-.23l-.64-.29a2.67,2.67,0,0,1-.48-.32,1.27,1.27,0,0,1-.3-.4,1.33,1.33,0,0,1-.1-.54,1.4,1.4,0,0,1,.12-.58,1.38,1.38,0,0,1,.33-.47,1.67,1.67,0,0,1,.52-.31,1.78,1.78,0,0,1,.67-.12,2,2,0,0,1,.71.12,1.61,1.61,0,0,1,.53.34,1.56,1.56,0,0,1,.33.5,1.8,1.8,0,0,1,.11.62h-.84a.81.81,0,0,0-.06-.31.74.74,0,0,0-.16-.27.7.7,0,0,0-.26-.19.8.8,0,0,0-.36-.08,1,1,0,0,0-.36.06.77.77,0,0,0-.25.16.68.68,0,0,0-.14.23.81.81,0,0,0,0,.27.8.8,0,0,0,0,.24.55.55,0,0,0,.15.2,1,1,0,0,0,.27.18l.45.21c.26.1.49.21.7.31a2.51,2.51,0,0,1,.51.34,1.27,1.27,0,0,1,.31.42,1.35,1.35,0,0,1,.1.55,1.51,1.51,0,0,1-.12.61,1.26,1.26,0,0,1-.35.47,1.57,1.57,0,0,1-.54.3,2.19,2.19,0,0,1-.7.1,2.13,2.13,0,0,1-.78-.13,1.65,1.65,0,0,1-.57-.37,1.54,1.54,0,0,1-.35-.52,1.66,1.66,0,0,1-.11-.62h.85a1.15,1.15,0,0,0,.1.45.81.81,0,0,0,.23.28.85.85,0,0,0,.3.15,1.24,1.24,0,0,0,.33,0,.92.92,0,0,0,.64-.19A.65.65,0,0,0,125.56,39.77Z"/><path class="cls-1" d="M128.62,34.65v1.26h.78v.69h-.78v3.21a1,1,0,0,0,0,.33.49.49,0,0,0,.1.19.29.29,0,0,0,.14.08.45.45,0,0,0,.16,0l.2,0,.14,0v.72l-.22.06a1.86,1.86,0,0,1-.36,0,1.09,1.09,0,0,1-.4-.07.79.79,0,0,1-.33-.23,1.16,1.16,0,0,1-.22-.43,2,2,0,0,1-.09-.65V36.6H127v-.69h.79V34.65Z"/><path class="cls-1" d="M133.77,34.65v1.26h.78v.69h-.78v3.21a1.48,1.48,0,0,0,0,.33.5.5,0,0,0,.11.19.25.25,0,0,0,.14.08.41.41,0,0,0,.16,0l.19,0,.15,0v.72l-.22.06a1.9,1.9,0,0,1-.37,0,1,1,0,0,1-.39-.07.79.79,0,0,1-.33-.23,1.16,1.16,0,0,1-.22-.43,2,2,0,0,1-.09-.65V36.6h-.79v-.69h.79V34.65Z"/><path class="cls-1" d="M137.7,36.71l-.19,0h-.2a.84.84,0,0,0-.56.19,1.26,1.26,0,0,0-.35.53V41.1h-.85V35.91h.83v.53a1.39,1.39,0,0,1,.4-.46,1,1,0,0,1,.57-.17h.09l.09,0,.09,0,.06,0Z"/><path class="cls-1" d="M138.56,34.53a.56.56,0,0,1,.12-.36.51.51,0,0,1,.72,0,.56.56,0,0,1,.12.36.52.52,0,0,1-.12.36.51.51,0,0,1-.72,0A.52.52,0,0,1,138.56,34.53Zm.9,6.57h-.85V35.91h.85Z"/><path class="cls-1" d="M144.54,38.75a3.08,3.08,0,0,1-.45,1.84,1.45,1.45,0,0,1-1.25.6,1.51,1.51,0,0,1-.7-.15,1.32,1.32,0,0,1-.5-.44v2.49h-.85V35.91h.77l0,.58a1.43,1.43,0,0,1,.51-.5,1.37,1.37,0,0,1,.72-.18,1.7,1.7,0,0,1,.73.15,1.34,1.34,0,0,1,.54.44,2.18,2.18,0,0,1,.32.77,4.4,4.4,0,0,1,.12,1.1Zm-.85-.48a2.54,2.54,0,0,0-.26-1.29,1,1,0,0,0-.87-.41.89.89,0,0,0-.56.17,1.2,1.2,0,0,0-.36.44v2.69a1.17,1.17,0,0,0,.36.43.92.92,0,0,0,.57.17.93.93,0,0,0,.85-.42,2.47,2.47,0,0,0,.27-1.3Z"/><path class="cls-1" d="M148.15,39.77a.71.71,0,0,0-.05-.26.72.72,0,0,0-.17-.23,2.08,2.08,0,0,0-.31-.21l-.47-.23-.65-.29a2.26,2.26,0,0,1-.47-.32,1.27,1.27,0,0,1-.3-.4,1.33,1.33,0,0,1-.1-.54,1.4,1.4,0,0,1,.11-.58,1.41,1.41,0,0,1,.34-.47,1.62,1.62,0,0,1,.51-.31,1.83,1.83,0,0,1,.68-.12,1.9,1.9,0,0,1,.7.12,1.51,1.51,0,0,1,.53.34,1.41,1.41,0,0,1,.33.5,1.59,1.59,0,0,1,.12.62h-.85a1.06,1.06,0,0,0,0-.31.92.92,0,0,0-.16-.27.74.74,0,0,0-.27-.19.78.78,0,0,0-.35-.08,1,1,0,0,0-.37.06.72.72,0,0,0-.24.16.57.57,0,0,0-.15.23.8.8,0,0,0,0,.27.57.57,0,0,0,0,.24.52.52,0,0,0,.14.2,1.36,1.36,0,0,0,.28.18l.44.21a6.87,6.87,0,0,1,.7.31,2.26,2.26,0,0,1,.51.34,1.15,1.15,0,0,1,.31.42,1.35,1.35,0,0,1,.11.55,1.51,1.51,0,0,1-.12.61,1.26,1.26,0,0,1-.35.47,1.57,1.57,0,0,1-.54.3,2.24,2.24,0,0,1-.7.1,2.06,2.06,0,0,1-.78-.13,1.65,1.65,0,0,1-.57-.37,1.41,1.41,0,0,1-.35-.52,1.67,1.67,0,0,1-.12-.62h.85a1,1,0,0,0,.11.45.78.78,0,0,0,.22.28.89.89,0,0,0,.31.15,1.24,1.24,0,0,0,.33,0,.94.94,0,0,0,.64-.19A.64.64,0,0,0,148.15,39.77Z"/><path class="cls-1" d="M152.37,34.53a.56.56,0,0,1,.12-.36.51.51,0,0,1,.72,0,.56.56,0,0,1,.12.36.52.52,0,0,1-.12.36.51.51,0,0,1-.72,0A.52.52,0,0,1,152.37,34.53Zm.9,6.57h-.85V35.91h.85Z"/><path class="cls-1" d="M155.4,35.91l0,.56A1.6,1.6,0,0,1,156,36a1.38,1.38,0,0,1,.7-.18,1.54,1.54,0,0,1,.58.11,1.09,1.09,0,0,1,.44.33,1.74,1.74,0,0,1,.28.58,3.15,3.15,0,0,1,.1.87v3.4h-.85V37.69a1.39,1.39,0,0,0-.2-.87.74.74,0,0,0-.61-.25.87.87,0,0,0-.57.21,1.43,1.43,0,0,0-.4.55V41.1h-.85V35.91Z"/><path class="cls-1" d="M162.51,41.1h-.85V33.73h.85Z"/><path class="cls-1" d="M163.86,34.53a.56.56,0,0,1,.12-.36.51.51,0,0,1,.72,0,.52.52,0,0,1,.13.36.52.52,0,0,1-.12.36.44.44,0,0,1-.37.15.43.43,0,0,1-.36-.15A.52.52,0,0,1,163.86,34.53Zm.9,6.57h-.85V35.91h.85Z"/><path class="cls-1" d="M166.47,41.1V36.6h-.68v-.69h.68v-.55a2.45,2.45,0,0,1,.1-.74,1.74,1.74,0,0,1,.29-.54,1.18,1.18,0,0,1,.47-.33,1.61,1.61,0,0,1,.63-.12,1.52,1.52,0,0,1,.51.09l0,.71-.19,0H168a.67.67,0,0,0-.54.25,1.24,1.24,0,0,0-.18.72v.55h.88v.69h-.88v4.5Z"/><path class="cls-1" d="M170.94,41.19a2.25,2.25,0,0,1-.84-.14,1.62,1.62,0,0,1-.64-.42,2.08,2.08,0,0,1-.4-.72,3.53,3.53,0,0,1-.13-1v-.59a3.51,3.51,0,0,1,.16-1.15,2.18,2.18,0,0,1,.43-.77,1.51,1.51,0,0,1,.61-.43,2.17,2.17,0,0,1,.71-.13,1.93,1.93,0,0,1,.84.17,1.28,1.28,0,0,1,.56.47,1.94,1.94,0,0,1,.32.76,4.8,4.8,0,0,1,.1,1v.5h-2.89v.12a1.89,1.89,0,0,0,.31,1.21,1.12,1.12,0,0,0,.91.38,2.34,2.34,0,0,0,.39,0,1.07,1.07,0,0,0,.31-.13,1.27,1.27,0,0,0,.27-.18c.07-.08.15-.15.22-.24l.44.54a1.62,1.62,0,0,1-.25.28A1.36,1.36,0,0,1,172,41a2.31,2.31,0,0,1-.47.18A2.77,2.77,0,0,1,170.94,41.19Zm-.1-4.65a1.29,1.29,0,0,0-.4.07.71.71,0,0,0-.33.24,1.16,1.16,0,0,0-.23.46,3.22,3.22,0,0,0-.11.72h2v-.12a4.34,4.34,0,0,0-.07-.55,1.1,1.1,0,0,0-.16-.43.81.81,0,0,0-.29-.29A1,1,0,0,0,170.84,36.54Z"/><path class="cls-1" d="M178.6,41.1a1.26,1.26,0,0,1-.07-.25,3.11,3.11,0,0,1,0-.32A1.58,1.58,0,0,1,178,41a1.83,1.83,0,0,1-.32.14,1,1,0,0,1-.36,0,2,2,0,0,1-.62-.09,1.33,1.33,0,0,1-.47-.29,1.35,1.35,0,0,1-.3-.47,1.9,1.9,0,0,1-.11-.66A1.93,1.93,0,0,1,176,39a1.5,1.5,0,0,1,.39-.54,1.7,1.7,0,0,1,.63-.37,3,3,0,0,1,.89-.13h.59V37.4a.87.87,0,0,0-.2-.66.9.9,0,0,0-.63-.2,1.06,1.06,0,0,0-.37.07,1,1,0,0,0-.27.17.9.9,0,0,0-.17.26,1.06,1.06,0,0,0-.05.31h-.85a1.33,1.33,0,0,1,.12-.55,1.56,1.56,0,0,1,.35-.5,1.86,1.86,0,0,1,1.28-.49,2.29,2.29,0,0,1,.66.09,1.38,1.38,0,0,1,.52.28,1.23,1.23,0,0,1,.34.49,2,2,0,0,1,.12.74V40a2.62,2.62,0,0,0,0,.27,1.33,1.33,0,0,0,0,.28,2.56,2.56,0,0,0,0,.27c0,.08.05.16.07.23v.08Zm-1.13-.68a1.14,1.14,0,0,0,.33-.05,1.3,1.3,0,0,0,.29-.14,1.06,1.06,0,0,0,.23-.19,1,1,0,0,0,.15-.22V38.58H178a2,2,0,0,0-.56.07,1.35,1.35,0,0,0-.42.19,1,1,0,0,0-.27.32.93.93,0,0,0-.09.42,1.5,1.5,0,0,0,.05.4.53.53,0,0,0,.38.4A1.25,1.25,0,0,0,177.47,40.42Z"/><path class="cls-1" d="M182.77,36.71a.62.62,0,0,0-.18,0h-.2a.89.89,0,0,0-.57.19,1.25,1.25,0,0,0-.34.53V41.1h-.85V35.91h.83v.53a1.39,1.39,0,0,1,.4-.46.93.93,0,0,1,.56-.17h.09l.1,0,.09,0,.06,0Z"/><path class="cls-1" d="M185.38,41.19a2.25,2.25,0,0,1-.84-.14,1.52,1.52,0,0,1-.63-.42,1.8,1.8,0,0,1-.4-.72,3.21,3.21,0,0,1-.14-1v-.59a3.51,3.51,0,0,1,.16-1.15,2.18,2.18,0,0,1,.43-.77,1.59,1.59,0,0,1,.61-.43,2.18,2.18,0,0,1,.72-.13,1.92,1.92,0,0,1,.83.17,1.28,1.28,0,0,1,.56.47,2.11,2.11,0,0,1,.33.76,5.51,5.51,0,0,1,.1,1v.5h-2.9v.12a1.88,1.88,0,0,0,.32,1.21,1.1,1.1,0,0,0,.9.38,2.34,2.34,0,0,0,.39,0,1.07,1.07,0,0,0,.31-.13,1.27,1.27,0,0,0,.27-.18,2.5,2.5,0,0,0,.22-.24l.44.54a1.62,1.62,0,0,1-.25.28,1.36,1.36,0,0,1-.36.25,2.31,2.31,0,0,1-.47.18A2.71,2.71,0,0,1,185.38,41.19Zm-.09-4.65a1.3,1.3,0,0,0-.41.07.71.71,0,0,0-.33.24,1.31,1.31,0,0,0-.23.46,2.77,2.77,0,0,0-.1.72h2v-.12a3.06,3.06,0,0,0-.07-.55,1.28,1.28,0,0,0-.15-.43.89.89,0,0,0-.29-.29A1.08,1.08,0,0,0,185.29,36.54Z"/><path class="cls-1" d="M192.17,40.47a1,1,0,0,0,.36-.06.92.92,0,0,0,.3-.18.87.87,0,0,0,.2-.31,1.25,1.25,0,0,0,.1-.46h.8a2,2,0,0,1-.16.71,2,2,0,0,1-.39.55,1.57,1.57,0,0,1-.55.35,1.76,1.76,0,0,1-.66.12,2.14,2.14,0,0,1-.87-.16,1.7,1.7,0,0,1-.62-.47,2.09,2.09,0,0,1-.36-.75,3.94,3.94,0,0,1-.12-1v-.59a3.89,3.89,0,0,1,.12-1,2.18,2.18,0,0,1,.36-.75,1.6,1.6,0,0,1,.62-.47,2.08,2.08,0,0,1,.87-.17,2,2,0,0,1,.71.13,1.72,1.72,0,0,1,.55.37,1.65,1.65,0,0,1,.35.59,2.47,2.47,0,0,1,.15.79h-.8a1.38,1.38,0,0,0-.28-.86.85.85,0,0,0-.68-.29,1.09,1.09,0,0,0-.55.12,1,1,0,0,0-.35.34,1.57,1.57,0,0,0-.17.53,3.56,3.56,0,0,0,0,.68v.59a4.93,4.93,0,0,0,0,.69,1.66,1.66,0,0,0,.18.53.9.9,0,0,0,.34.33A1.19,1.19,0,0,0,192.17,40.47Z"/><path class="cls-1" d="M195.75,36.44a1.71,1.71,0,0,1,.55-.46,1.47,1.47,0,0,1,.69-.17,1.58,1.58,0,0,1,.58.11,1.09,1.09,0,0,1,.44.33,1.74,1.74,0,0,1,.28.58,3.59,3.59,0,0,1,.1.87v3.4h-.85V37.69a1.46,1.46,0,0,0-.2-.87.74.74,0,0,0-.61-.25.87.87,0,0,0-.57.21,1.56,1.56,0,0,0-.41.55V41.1h-.84V33.73h.84Z"/><path class="cls-1" d="M201.5,41.19a2.25,2.25,0,0,1-.84-.14,1.52,1.52,0,0,1-.63-.42,1.8,1.8,0,0,1-.4-.72,3.21,3.21,0,0,1-.14-1v-.59a3.51,3.51,0,0,1,.16-1.15,2.18,2.18,0,0,1,.43-.77,1.59,1.59,0,0,1,.61-.43,2.18,2.18,0,0,1,.72-.13,1.92,1.92,0,0,1,.83.17,1.28,1.28,0,0,1,.56.47,2.11,2.11,0,0,1,.33.76,5.51,5.51,0,0,1,.1,1v.5h-2.9v.12a1.88,1.88,0,0,0,.32,1.21,1.1,1.1,0,0,0,.9.38,2.34,2.34,0,0,0,.39,0,1.07,1.07,0,0,0,.31-.13,1.27,1.27,0,0,0,.27-.18,2.5,2.5,0,0,0,.22-.24l.44.54a1.62,1.62,0,0,1-.25.28,1.36,1.36,0,0,1-.36.25,2.31,2.31,0,0,1-.47.18A2.71,2.71,0,0,1,201.5,41.19Zm-.09-4.65a1.3,1.3,0,0,0-.41.07.71.71,0,0,0-.33.24,1.31,1.31,0,0,0-.23.46,2.77,2.77,0,0,0-.1.72h2v-.12a3.06,3.06,0,0,0-.07-.55,1.28,1.28,0,0,0-.15-.43.89.89,0,0,0-.29-.29A1.08,1.08,0,0,0,201.41,36.54Z"/><path class="cls-1" d="M206.91,41.1a1.26,1.26,0,0,1-.07-.25c0-.1,0-.21,0-.32a1.71,1.71,0,0,1-.21.26,1.09,1.09,0,0,1-.26.21,1.55,1.55,0,0,1-.32.14,1,1,0,0,1-.36,0,2,2,0,0,1-.61-.09,1.37,1.37,0,0,1-.48-.29,1.35,1.35,0,0,1-.3-.47,1.91,1.91,0,0,1-.1-.66,1.73,1.73,0,0,1,.13-.69,1.36,1.36,0,0,1,.38-.54,1.74,1.74,0,0,1,.64-.37,2.93,2.93,0,0,1,.89-.13h.59V37.4a.87.87,0,0,0-.21-.66.88.88,0,0,0-.63-.2,1,1,0,0,0-.36.07.74.74,0,0,0-.44.43.81.81,0,0,0-.06.31h-.85a1.2,1.2,0,0,1,.13-.55,1.42,1.42,0,0,1,.35-.5,1.79,1.79,0,0,1,.55-.35,1.9,1.9,0,0,1,.73-.14,2.29,2.29,0,0,1,.66.09,1.27,1.27,0,0,1,.51.28,1.23,1.23,0,0,1,.34.49,2,2,0,0,1,.12.74V40c0,.08,0,.17,0,.27l0,.28a2.61,2.61,0,0,0,.06.27l.06.23v.08Zm-1.13-.68a1.27,1.27,0,0,0,.34-.05,1.22,1.22,0,0,0,.28-.14.87.87,0,0,0,.23-.19,1,1,0,0,0,.16-.22V38.58h-.45a1.88,1.88,0,0,0-.55.07,1.16,1.16,0,0,0-.42.19.83.83,0,0,0-.27.32.93.93,0,0,0-.09.42,1.54,1.54,0,0,0,0,.4.74.74,0,0,0,.15.26.57.57,0,0,0,.24.14A1.18,1.18,0,0,0,205.78,40.42Z"/><path class="cls-1" d="M212.69,38.75a3.08,3.08,0,0,1-.44,1.84,1.47,1.47,0,0,1-1.25.6,1.58,1.58,0,0,1-.71-.15,1.49,1.49,0,0,1-.5-.44v2.49H209V35.91h.77l0,.58a1.43,1.43,0,0,1,.51-.5,1.34,1.34,0,0,1,.71-.18,1.72,1.72,0,0,1,.74.15,1.25,1.25,0,0,1,.53.44,2,2,0,0,1,.33.77,4.44,4.44,0,0,1,.11,1.1Zm-.84-.48a2.43,2.43,0,0,0-.27-1.29,1,1,0,0,0-.86-.41.87.87,0,0,0-.56.17,1.34,1.34,0,0,0-.37.44v2.69a1.4,1.4,0,0,0,.36.43,1,1,0,0,0,.58.17.93.93,0,0,0,.85-.42,2.47,2.47,0,0,0,.27-1.3Z"/><path class="cls-1" d="M214.21,34h-.57v1.53h-.38V34h-.55v-.3h1.5Z"/><path class="cls-1" d="M214.92,33.72l.47,1.33.47-1.33h.49v1.83H216v-.5l0-.86-.49,1.36h-.26l-.5-1.36,0,.86v.5h-.38V33.72Z"/><path class="cls-2" d="M42.83,29.09H38.3v-10A5,5,0,0,0,37.52,16a2.63,2.63,0,0,0-2.2-1,3.47,3.47,0,0,0-1.29.27,5,5,0,0,0-1.29.76,6.57,6.57,0,0,0-1.12,1.17,4.83,4.83,0,0,0-.74,1.49V29.09H26.34V3.81h4.54V14.63A6.8,6.8,0,0,1,33.54,12,7.49,7.49,0,0,1,37.25,11a5.92,5.92,0,0,1,2.81.59,4.52,4.52,0,0,1,1.69,1.58,6.43,6.43,0,0,1,.85,2.23A14.65,14.65,0,0,1,42.83,18Z"/><path class="cls-2" d="M54.19,29.13a9.82,9.82,0,0,1-3.8-.71,8.56,8.56,0,0,1-4.75-4.82A9.22,9.22,0,0,1,45,20.17a9.76,9.76,0,0,1,.64-3.51,8.6,8.6,0,0,1,1.83-2.9,8.83,8.83,0,0,1,2.91-2,9.72,9.72,0,0,1,3.85-.73,9.42,9.42,0,0,1,3.81.73,8.89,8.89,0,0,1,2.87,2,8.27,8.27,0,0,1,1.8,2.86,9.56,9.56,0,0,1,.61,3.4c0,.29,0,.56,0,.83a3.63,3.63,0,0,1-.09.67H49.72a5.35,5.35,0,0,0,.5,1.83,4.4,4.4,0,0,0,1,1.36,4.47,4.47,0,0,0,1.43.87,4.69,4.69,0,0,0,1.66.3,5.2,5.2,0,0,0,2.52-.65,3.39,3.39,0,0,0,1.61-1.72l3.83,1.07a7.74,7.74,0,0,1-3.08,3.28A9.49,9.49,0,0,1,54.19,29.13Zm4.53-10.52a4.71,4.71,0,0,0-1.45-3.15,4.44,4.44,0,0,0-3.12-1.18,4.26,4.26,0,0,0-1.68.32,4.33,4.33,0,0,0-1.38.88,4.51,4.51,0,0,0-1,1.36,4.72,4.72,0,0,0-.45,1.77Z"/><path class="cls-2" d="M71.09,29.13a6.78,6.78,0,0,1-2.37-.41,5.73,5.73,0,0,1-1.9-1.17,5.44,5.44,0,0,1-1.25-1.75,5.28,5.28,0,0,1-.45-2.2,4.8,4.8,0,0,1,.55-2.28,5.32,5.32,0,0,1,1.53-1.78,7.69,7.69,0,0,1,2.35-1.15,10.16,10.16,0,0,1,3-.42,13.15,13.15,0,0,1,2.28.2,8.82,8.82,0,0,1,2,.57v-1a3.49,3.49,0,0,0-1-2.67,4.07,4.07,0,0,0-2.91-.93,7.76,7.76,0,0,0-2.73.5,12.5,12.5,0,0,0-2.74,1.47l-1.36-2.84A12.85,12.85,0,0,1,73.35,11a8.53,8.53,0,0,1,5.85,1.85,6.77,6.77,0,0,1,2.08,5.35v5.43a1.61,1.61,0,0,0,.25,1,1.1,1.1,0,0,0,.82.33v3.8a9.62,9.62,0,0,1-2,.23,3,3,0,0,1-1.95-.56,2.47,2.47,0,0,1-.85-1.5l-.1-1a7.65,7.65,0,0,1-2.83,2.33A8,8,0,0,1,71.09,29.13Zm1.26-3.26a6,6,0,0,0,2.15-.4,3.81,3.81,0,0,0,1.58-1.07,1.61,1.61,0,0,0,.74-1.26v-2a11.88,11.88,0,0,0-1.74-.49,9.47,9.47,0,0,0-1.8-.18,4.8,4.8,0,0,0-2.83.78,2.4,2.4,0,0,0-.23,3.87A3.15,3.15,0,0,0,72.35,25.87Z"/><path class="cls-2" d="M95.79,29.07a6.83,6.83,0,0,1-3.58-.91,6.44,6.44,0,0,1-2.39-2.47V36H85.37V11h3.88v3.29a7.09,7.09,0,0,1,2.49-2.41A6.89,6.89,0,0,1,95.26,11a7.55,7.55,0,0,1,3.26.71,8.16,8.16,0,0,1,2.57,1.93,9,9,0,0,1,1.69,2.86A9.79,9.79,0,0,1,103.4,20a10.87,10.87,0,0,1-.57,3.55,9,9,0,0,1-1.57,2.89,7.48,7.48,0,0,1-2.41,1.93A6.81,6.81,0,0,1,95.79,29.07ZM94.3,25.29a4.08,4.08,0,0,0,1.84-.43,4.46,4.46,0,0,0,1.45-1.17A5.32,5.32,0,0,0,98.52,22a6.11,6.11,0,0,0,.33-2A5.57,5.57,0,0,0,98.48,18a5.08,5.08,0,0,0-1-1.64,4.83,4.83,0,0,0-1.53-1.1A4.63,4.63,0,0,0,94,14.83a4.24,4.24,0,0,0-1.29.21,4.74,4.74,0,0,0-1.23.62,4.94,4.94,0,0,0-1,.93,3.69,3.69,0,0,0-.68,1.16v4.08a5.86,5.86,0,0,0,1.82,2.48A4.21,4.21,0,0,0,94.3,25.29Z"/><path class="cls-3" d="M118.62,7.92h-7.39V29.09h-4.64V7.92H99.2V3.83h19.42Z"/><rect class="cls-3" height="18.04" width="4.54" x="116.19" y="11.05"/><path class="cls-3" d="M123.66,20.05a9.53,9.53,0,0,1,.63-3.46,8.44,8.44,0,0,1,1.83-2.86,9,9,0,0,1,2.89-2,9.55,9.55,0,0,1,3.83-.73,9.17,9.17,0,0,1,4.87,1.23,7.91,7.91,0,0,1,3,3.23l-4.36,1.33a3.87,3.87,0,0,0-1.5-1.48,4.1,4.1,0,0,0-2.06-.52,4.29,4.29,0,0,0-1.79.38,4.38,4.38,0,0,0-1.45,1.07,4.83,4.83,0,0,0-1,1.64,6.1,6.1,0,0,0-.35,2.13,6,6,0,0,0,.36,2.13,5.44,5.44,0,0,0,1,1.66A4.24,4.24,0,0,0,131,24.92a4.08,4.08,0,0,0,1.76.39,4.24,4.24,0,0,0,2.21-.6,3.38,3.38,0,0,0,1.42-1.47l4.35,1.33a7.19,7.19,0,0,1-3,3.26,9.2,9.2,0,0,1-4.95,1.27,9.76,9.76,0,0,1-3.83-.73,8.84,8.84,0,0,1-2.89-2,8.69,8.69,0,0,1-1.84-2.9A9.11,9.11,0,0,1,123.66,20.05Z"/><path class="cls-3" d="M155.17,29.09,150,21.4l-2.44,2.41v5.28H143V3.81h4.54V19.37l7.11-8.29h4.85l-6.61,7.82L160,29.09Z"/><path class="cls-3" d="M168.76,29.1a9.64,9.64,0,0,1-3.8-.72,8.6,8.6,0,0,1-2.89-1.94,8.7,8.7,0,0,1-1.85-2.86,9.25,9.25,0,0,1-.64-3.43,9.76,9.76,0,0,1,.63-3.51A8.56,8.56,0,0,1,162,13.75a8.73,8.73,0,0,1,2.91-2,9.63,9.63,0,0,1,3.84-.73,9.42,9.42,0,0,1,3.81.73,8.82,8.82,0,0,1,2.86,2,8.49,8.49,0,0,1,1.79,2.86,9.57,9.57,0,0,1,.62,3.4c0,.29,0,.56,0,.83a3.6,3.6,0,0,1-.08.66H164.3a5.14,5.14,0,0,0,.5,1.83,4.53,4.53,0,0,0,1,1.37,4.65,4.65,0,0,0,3.09,1.16,5.13,5.13,0,0,0,2.51-.65,3.43,3.43,0,0,0,1.62-1.71l3.82,1.06a7.74,7.74,0,0,1-3.08,3.28A9.52,9.52,0,0,1,168.76,29.1Zm4.52-10.51a4.62,4.62,0,0,0-1.45-3.14,4.69,4.69,0,0,0-4.79-.87,4.51,4.51,0,0,0-1.38.88,4.74,4.74,0,0,0-1,1.37,5,5,0,0,0-.45,1.76Z"/><path class="cls-3" d="M190.52,27.88a20.48,20.48,0,0,1-2.24.81,9.38,9.38,0,0,1-2.77.41,6.33,6.33,0,0,1-1.78-.24,3.92,3.92,0,0,1-1.46-.76,3.73,3.73,0,0,1-1-1.35,4.93,4.93,0,0,1-.37-2V14.54h-2.34V11.05h2.34V3.84h4.54v7.21h3.72v3.49h-3.72v8.67a1.58,1.58,0,0,0,.49,1.33,1.88,1.88,0,0,0,1.2.39,4.1,4.1,0,0,0,1.39-.23c.45-.16.81-.3,1.08-.41Z"/><path class="cls-3" d="M199.9,29.07a13.34,13.34,0,0,1-4.29-.7,10.35,10.35,0,0,1-3.59-2l1.67-2.79a13.57,13.57,0,0,0,3.1,1.71,8.29,8.29,0,0,0,3,.58,3.83,3.83,0,0,0,2.09-.49,1.61,1.61,0,0,0,.76-1.43,1.42,1.42,0,0,0-.9-1.36,19.09,19.09,0,0,0-2.92-1c-1.13-.31-2.09-.61-2.89-.9a7,7,0,0,1-1.92-1A3.35,3.35,0,0,1,193,18.46a4,4,0,0,1-.33-1.71,5.34,5.34,0,0,1,.52-2.39,5.16,5.16,0,0,1,1.44-1.81,6.77,6.77,0,0,1,2.18-1.15,9,9,0,0,1,2.7-.39,11.52,11.52,0,0,1,3.67.56,9,9,0,0,1,3.14,1.83l-1.79,2.69a10.34,10.34,0,0,0-2.58-1.46,7,7,0,0,0-2.47-.47,3.58,3.58,0,0,0-1.89.47,1.61,1.61,0,0,0-.77,1.49,1.34,1.34,0,0,0,.19.76,1.61,1.61,0,0,0,.58.54,5.59,5.59,0,0,0,1,.44c.44.15,1,.3,1.61.45,1.2.31,2.22.62,3.08.93a8.64,8.64,0,0,1,2.09,1.06,3.76,3.76,0,0,1,1.19,1.38,4.18,4.18,0,0,1,.39,1.88,4.84,4.84,0,0,1-1.9,4A8.12,8.12,0,0,1,199.9,29.07Z"/><path class="cls-2" d="M20.36,21.14a5.58,5.58,0,0,1-1.15,1.77,6.52,6.52,0,0,1-1.55,1.2,6.68,6.68,0,0,1-1.77.68A7.61,7.61,0,0,1,14.1,25a6.45,6.45,0,0,1-3-.72,7.76,7.76,0,0,1-2.36-1.9,8.75,8.75,0,0,1-1.52-2.73,9.83,9.83,0,0,1-.53-3.24,10.26,10.26,0,0,1,.46-3A8.51,8.51,0,0,1,8.5,10.68a7.1,7.1,0,0,1,2.29-1.95A6.69,6.69,0,0,1,14,8a8.24,8.24,0,0,1,1.75.2,6.71,6.71,0,0,1,1.72.63A5.94,5.94,0,0,1,19,10a6.51,6.51,0,0,1,1.21,1.81l3.8-2.61a9.8,9.8,0,0,0-3.82-4,10.52,10.52,0,0,0-4.17-1.41V.91l-4.64.94v2a10.75,10.75,0,0,0-2.55.84,12.35,12.35,0,0,0-6.38,7,13.16,13.16,0,0,0-.84,4.6,13,13,0,0,0,.91,4.77A13.75,13.75,0,0,0,5.1,25.24a13,13,0,0,0,3.88,3,10.27,10.27,0,0,0,2.44.87v2l4.64.94V29.19c.35-.06.69-.13,1-.21a13,13,0,0,0,3-1.15A11.07,11.07,0,0,0,22.67,26a7.62,7.62,0,0,0,1.73-2.52Z"/><g id="R-Ball"><path class="cls-3" d="M210.39,9.89a1.81,1.81,0,0,1-.63-.11,1.64,1.64,0,0,1-.51-.32,1.51,1.51,0,0,1-.33-.49,1.5,1.5,0,0,1-.12-.6,1.54,1.54,0,0,1,.12-.61,1.58,1.58,0,0,1,.33-.48,1.64,1.64,0,0,1,.51-.32A1.86,1.86,0,0,1,211,7a1.64,1.64,0,0,1,.51.32,1.61,1.61,0,0,1,.34.48,1.54,1.54,0,0,1,.12.61,1.5,1.5,0,0,1-.12.6,1.54,1.54,0,0,1-.34.49,1.64,1.64,0,0,1-.51.32A1.81,1.81,0,0,1,210.39,9.89Zm0-.2a1.51,1.51,0,0,0,.53-.1,1.62,1.62,0,0,0,.44-.27,1.57,1.57,0,0,0,.29-.42,1.32,1.32,0,0,0,.1-.53,1.26,1.26,0,0,0-.39-.93,1.28,1.28,0,0,0-.43-.28,1.51,1.51,0,0,0-1.08,0,1.28,1.28,0,0,0-.43.28,1.3,1.3,0,0,0-.28.41,1.27,1.27,0,0,0-.1.52,1.25,1.25,0,0,0,.1.51,1.34,1.34,0,0,0,.28.42,1.15,1.15,0,0,0,.43.28A1.33,1.33,0,0,0,210.39,9.69Zm-.68-2.26h.82a.46.46,0,0,1,.23.06.45.45,0,0,1,.19.14.82.82,0,0,1,.12.2.59.59,0,0,1,.05.22.63.63,0,0,1-.09.33.56.56,0,0,1-.25.21l.44.7h-.46l-.38-.63h-.27v.63h-.4Zm.78.89a.21.21,0,0,0,.17-.07.3.3,0,0,0,.06-.2.26.26,0,0,0-.07-.2.23.23,0,0,0-.16-.06h-.38v.53Z"/></g></svg>