<svg fill="none" xmlns="http://www.w3.org/2000/svg" viewBox="0 0 24 24"><path d="M12 24c6.628 0 12-5.372 12-12 0-6.627-5.372-12-12-12C5.373 0 0 5.373 0 12c0 6.628 5.373 12 12 12z" fill="#084D84"/><path d="M6.375 12.908v5.166c0 .372.3.676.667.676h8.077c.578 0 .83-.108 1.31-.43l1.57-1.046v-5.288l-2.214.922h-9.41zm5.296 3.562h-1.182l.265-1.337a.647.647 0 01-.243-.242.685.685 0 01-.091-.338c0-.368.293-.666.657-.666.363 0 .657.298.657.666-.001.12-.033.236-.091.338a.647.647 0 01-.244.242l.272 1.337zm6.494-6.796c-.455-1.093-1.54-1.328-1.926-1.328H7.48l-.382.558 1.273 2.634c.185-.1.435-.16.713-.16.187 0 .36.028.508.073.044-.3.493-.534 1.037-.534.195 0 .375.032.533.083.107-.259.52-.45 1.013-.45.494 0 .906.191 1.014.45a1.73 1.73 0 01.534-.083c.546 0 .991.236 1.035.534a1.72 1.72 0 01.508-.073c.575 0 1.042.263 1.042.586 0 .006 0 .016-.002.022h1.69l-.01-.016c.003.003.006.003.006.007.385-.318.543-1.415.173-2.302zm-5.393-5.271l-.735-.653-.736.652.736 2.645.735-2.644zm2.441 1.127l-.717.086-.64 1.917 1.534-1.295-.177-.708zm-5.605.086l-.714-.086-.18.708 1.535 1.295-.64-1.917z" fill="#fff"/></svg>