<svg xmlns="http://www.w3.org/2000/svg" viewBox="0 0 100 114" width="100" height="114"><path d="M100 36.5v69.3c-.1.2-.3.5-.3.7-1.5 5-4.4 7.1-9.5 7.1H9.7c-1 0-2 0-2.9-.3-4.3-1-6.8-4.5-6.8-9.3V38.3c0-.5.1-1 .1-1.6h73.4c8.9-.1 17.7-.1 26.5-.2zm-75.1 7H7v17.9h17.9V43.5zm4.7 17.9h17.9V43.5H29.6v17.9zm40.7 0V43.5h-18v17.9h18zm4.7 0h17.9V43.6H75v17.8zm-27.4 4.7H30.7c-1.2 0-1.2.8-1.2 1.6v16.5h18c.1-6 .1-11.9.1-18.1zm4.8 0v18h18v-17c0-.3-.7-1-1.1-1H52.4zm-27.6.2H7v17.9h17.8V66.3zm50.3 17.8h17.7V66.2H75.1v17.9zM7 88.9v17.8h17.8V88.9H7zm22.6 17.9h17.9V89H29.6v17.8zm22.7-17.9v17.8h17.9V88.9H52.3zm40.6.1H75.1v17.8h17.8V89zM26 .3h2.8c1.6 1.3 2.1 2.9 2 5-.2 2.8 0 5.6 0 8.5h38.6c0-2.9.1-5.7 0-8.5-.1-2 .3-3.7 2-4.9h2.8c1.6 1.1 2.1 2.6 2 4.5-.1 2.9 0 5.9 0 9 .9 0 1.6.1 2.3.1h12.4c3.7 0 6.4 1.6 8.2 4.8.5.9.8 1.9 1.2 2.9v10.6c-.7 0-1.4-.1-2.2-.1H.3c0-3.3-.1-6.3 0-9.4.2-5 4-8.7 9-8.8 3.1-.1 6.3 0 9.5 0h5.3c0-3.1.1-5.9 0-8.7-.4-2.1.1-3.8 1.9-5zm43.3 17.2c-2.8 1.6-4 4.6-3.1 7.5.9 2.9 4 5.1 6.9 4.8 3.4-.3 5.9-2.8 6.4-6.2.3-2.5-1.2-5.2-3.3-6 0 .1-.1.2-.1.4v4.5c0 2.6-1.2 3.9-3.4 3.8-2.2 0-3.3-1.3-3.4-3.9-.1-1.6 0-3.1 0-4.9zm-38.7-.3v5.4c0 .6-.1 1.3-.3 1.9-.7 1.5-2 2-3.6 1.8-1.6-.2-2.7-1.2-2.8-2.8-.1-1.9 0-3.9 0-6-2.8 1.6-3.9 4.2-3.3 6.9.7 3.2 3.3 5.4 6.4 5.5 2.8.1 5.7-1.8 6.7-4.6 1-3 0-5.9-3.1-8.1z" fill="#999"/></svg>