<?xml version="1.0" encoding="utf-8"?>
<!-- Generator: Adobe Illustrator 21.1.0, SVG Export Plug-In . SVG Version: 6.00 Build 0)  -->
<svg version="1.1" id="Layer_1" xmlns="http://www.w3.org/2000/svg" xmlns:xlink="http://www.w3.org/1999/xlink" x="0px" y="0px"
	 viewBox="0 0 48 40.2" xml:space="preserve">
<path id="XMLID_65_" fill="#3572a1" d="M7,40.2c-0.4-0.1-0.9-0.2-1.2-0.4C4.6,39.2,4,38.2,3.9,37s0-2.6-0.1-3.9c0-0.2,0-0.5,0-0.8
	c-1.3,0-2.6,0-3.8,0c0-0.1,0-0.2,0-0.3c0-4.2,0-8.4,0-12.6c0-2.5,1.2-4.2,3.4-5.3c0.2-0.1,0.5-0.2,0.7-0.2c0.2,0,0.3-0.1,0.3-0.3
	C5.7,10.3,7,7,8.3,3.8c0.7-1.9,2-3.1,4-3.5c0.5-0.1,0.9-0.2,1.4-0.2c6.9,0,13.7,0,20.6,0c1.3,0,2.6,0.3,3.7,1.2
	c0.8,0.6,1.3,1.4,1.7,2.3c1.3,3.3,2.6,6.7,3.9,10c0.1,0.2,0.2,0.3,0.4,0.3c2.1,0.6,3.4,2,3.9,4.1c0.1,0.5,0.2,1,0.2,1.5
	c0,4.2,0,8.3,0,12.5c0,0.1,0,0.2,0,0.3c-1.3,0-2.5,0-3.8,0c0,0.1,0,0.2,0,0.3c0,1.4,0,2.8,0,4.1c-0.1,1.9-1.2,3.1-3,3.4
	c0,0-0.1,0-0.1,0c-0.3,0-0.6,0-0.9,0c-0.1,0-0.1,0-0.2-0.1c-0.7-0.1-1.3-0.4-1.8-0.8c-0.9-0.8-1.2-1.8-1.2-2.9c0-1.3,0-2.6,0-3.9
	c0-0.1,0-0.2,0-0.3c-8.6,0-17.3,0-25.9,0c0,0.1,0,0.2,0,0.3c0,1.4,0,2.8,0,4.1c-0.1,1.3-0.7,2.4-1.9,3c-0.4,0.2-0.9,0.3-1.3,0.4
	C7.6,40.2,7.3,40.2,7,40.2z M39.5,13.8c0-0.1,0-0.1,0-0.2c-1-2.8-2-5.5-3.1-8.3c-0.4-1.1-1.1-1.5-2.3-1.5c-6.8,0-13.5,0-20.3,0
	c-0.2,0-0.4,0-0.5,0c-0.5,0.1-0.9,0.2-1.2,0.6c-0.2,0.3-0.5,0.7-0.6,1c-1,2.7-2,5.3-3,8c0,0.1-0.1,0.2-0.1,0.3
	C18.8,13.8,29.2,13.8,39.5,13.8z M40.4,24.5c1.8,0,3.3-1.5,3.3-3.4c0-1.9-1.5-3.4-3.3-3.4c-1.9,0-3.4,1.5-3.4,3.4
	C37.1,23,38.6,24.5,40.4,24.5z M10.9,21.1c0-1.9-1.5-3.4-3.3-3.4c-1.9,0-3.3,1.5-3.3,3.4s1.5,3.4,3.3,3.4
	C9.4,24.5,10.9,23,10.9,21.1z"/>
</svg>
