<?xml version="1.0" encoding="utf-8"?>
<svg version="1.1" id="Layer_1" xmlns="http://www.w3.org/2000/svg" xmlns:xlink="http://www.w3.org/1999/xlink" x="0px" y="0px"
	 viewBox="0 0 24 24" xml:space="preserve">

<path class="st0" d="M22.15,17.67c-1.71-1.78-2.08-4.4-2.44-6.95c-0.53-3.77-1.14-8-6.51-8.56V1.49c0-0.68-0.56-1.24-1.24-1.24
	c-0.68,0-1.24,0.56-1.24,1.24v0.68C5.4,2.73,4.8,6.96,4.27,10.73c-0.36,2.54-0.73,5.17-2.42,6.95c-0.34,0.36-0.44,0.89-0.24,1.34
	c0.2,0.46,0.64,0.75,1.14,0.75h5.19c0.03,2.2,1.82,3.98,4.03,3.98s4-1.78,4.03-3.98h5.27c0.5,0,0.95-0.3,1.14-0.75
	C22.59,18.56,22.5,18.03,22.15,17.67z M11.96,21.27c-0.84,0-1.52-0.67-1.54-1.5h1.54h1.54C13.48,20.6,12.8,21.27,11.96,21.27z
	 M11.96,17.29H5.12c1.01-1.97,1.32-4.19,1.61-6.22c0.62-4.38,1.1-6.49,5.24-6.49c4.19,0,4.67,2.11,5.29,6.49
	c0.29,2.03,0.6,4.25,1.62,6.22H11.96z"  fill="#fff"/>
</svg>

