<?xml version="1.0" encoding="utf-8"?>
<!-- Generator: Adobe Illustrator 21.1.0, SVG Export Plug-In . SVG Version: 6.00 Build 0)  -->
<svg version="1.1" id="Layer_1" xmlns="http://www.w3.org/2000/svg" xmlns:xlink="http://www.w3.org/1999/xlink" x="0px" y="0px"
	 viewBox="0 0 19.2 19" xml:space="preserve">
<g>
	<path fill="#3572a1" d="M18.5,17.6V0.3L9.4,3.2V7H5.2v3.6H0v1h1.1v5.8H0.6V19h18.6v-1.4L18.5,17.6L18.5,17.6z M14.6,4.1h2.6v2.2h-2.6
		V4.1L14.6,4.1z M14.6,7.4h2.6v2.2h-2.6V7.4L14.6,7.4z M14.6,10.9h2.6V13h-2.6V10.9L14.6,10.9z M14.6,14.2h2.6v2.2h-2.6V14.2
		L14.6,14.2z M10.6,4.1h2.6v2.2h-2.6V4.1L10.6,4.1z M10.6,7.4h2.6v2.2h-2.6V7.4L10.6,7.4z M10.6,10.9h2.6V13h-2.6V10.9L10.6,10.9z
		 M10.6,14.2h2.6v2.2h-2.6V14.2L10.6,14.2z M7.6,8.2h1.2v8.5H7.6V8.2L7.6,8.2z M4.5,12.6h1.8v1.5H4.5V12.6L4.5,12.6z M4.5,15h1.8
		v1.5H4.5V15L4.5,15z M1.8,12.6h1.8v1.5H1.8V12.6L1.8,12.6z M1.8,15h1.8v1.5H1.8V15L1.8,15z"/>
</g>
</svg>
