<?xml version="1.0" encoding="utf-8"?>
<svg version="1.1" xmlns="http://www.w3.org/2000/svg" xmlns:xlink="http://www.w3.org/1999/xlink" x="0px" y="0px"
	 viewBox="0 0 24 24" xml:space="preserve">
<g id="Layer_1">
</g>
<g id="Layer_2">
	<g>
		<path d="M3.41,6.77c1.44,0,2.64-1.04,2.9-2.4h16.92c0.3,0,0.55-0.25,0.55-0.55s-0.25-0.55-0.55-0.55H6.31
			c-0.26-1.37-1.46-2.4-2.9-2.4c-1.63,0-2.95,1.32-2.95,2.95C0.46,5.45,1.79,6.77,3.41,6.77z M3.41,1.86c1.08,0,1.96,0.88,1.96,1.96
			c0,1.08-0.88,1.96-1.96,1.96c-1.08,0-1.96-0.88-1.96-1.96C1.45,2.74,2.33,1.86,3.41,1.86z"/>
		<path d="M20.52,17.23c-1.44,0-2.64,1.04-2.9,2.4H0.77c-0.3,0-0.55,0.25-0.55,0.55c0,0.3,0.25,0.55,0.55,0.55h16.85
			c0.26,1.37,1.46,2.4,2.9,2.4c1.63,0,2.95-1.32,2.95-2.95C23.47,18.55,22.15,17.23,20.52,17.23z M20.52,22.14
			c-1.08,0-1.96-0.88-1.96-1.96c0-1.08,0.88-1.96,1.96-1.96c1.08,0,1.96,0.88,1.96,1.96C22.48,21.26,21.6,22.14,20.52,22.14z"/>
		<path d="M23.23,11.45c-2.82,0-5.64,0-8.46,0c-0.26-1.37-1.46-2.4-2.9-2.4c-1.44,0-2.64,1.04-2.9,2.4c-2.73,0-5.47,0-8.2,0
			c-0.3,0-0.55,0.25-0.55,0.55c0,0.25,0.23,0.49,0.55,0.55c2.73,0,5.47,0,8.2,0c0.26,1.36,1.46,2.4,2.9,2.4
			c1.44,0,2.64-1.04,2.9-2.4c2.82,0,5.64,0,8.46,0c0.3,0,0.55-0.25,0.55-0.55c0-0.15-0.06-0.29-0.16-0.39
			C23.46,11.46,23.26,11.45,23.23,11.45z M11.87,13.96c-1.08,0-1.96-0.88-1.96-1.96s0.88-1.96,1.96-1.96c1.08,0,1.96,0.88,1.96,1.96
			S12.95,13.96,11.87,13.96z"/>
	</g>
	<rect y="0" fill="none" width="24" height="24"/>
</g>
</svg>
