<svg width="147" height="24" viewBox="0 0 147 24" fill="none" xmlns="http://www.w3.org/2000/svg">
<rect x="0.400024" width="146" height="24" fill="#009CE3"/>
<rect x="5.40002" width="136" height="24" fill="#009CE3"/>
<path d="M28.3398 16.7826C28.49 16.6529 28.6213 16.4939 28.7256 16.308C28.731 16.2985 28.7361 16.2887 28.7408 16.2786L28.8086 16.1322C29.0773 15.5527 28.9658 14.8585 28.5307 14.403L28.4106 14.2772C28.0834 13.9346 27.5951 13.8238 27.1618 13.994C27.0064 14.055 26.8318 14.0278 26.7002 13.9219L26.0899 13.431C26.2073 12.9966 26.2701 12.5384 26.2701 12.0655C26.2701 12.0458 26.2686 12.0264 26.2657 12.0076C26.2236 11.6786 26.4024 11.3618 26.6986 11.2421L26.9936 11.1229C27.2386 11.0239 27.5096 11.0215 27.7562 11.1161L28.1279 11.2586C28.3986 11.3625 28.6902 11.3921 28.975 11.3446C30.0162 11.171 30.6531 10.0523 30.3037 9.01065L30.2951 8.98516C29.9426 7.93414 28.7576 7.48665 27.8455 8.06011L26.1538 9.12375C25.8175 9.33524 25.382 9.23663 25.1592 8.89851L25.1543 8.90203C24.3301 7.86961 23.1103 7.14354 21.7293 7.06813V7.02594C21.7293 6.64057 21.8053 6.26257 21.9525 5.91494L22.0825 5.608C22.1717 5.39764 22.22 5.16977 22.2249 4.93683C22.2488 3.79098 21.2499 2.864 20.1553 3.01647L20.05 3.03114C20.0229 3.03492 19.997 3.04185 19.9727 3.05152C18.9768 3.30487 18.4976 4.49087 19.0504 5.45834L19.8279 6.81907C19.9174 6.97573 19.9713 7.14412 19.9913 7.31323C19.8244 7.37098 19.6615 7.4381 19.5033 7.514L20.4347 8.48932C20.788 7.89635 20.8017 7.11956 20.4303 6.46968L19.6528 5.10895C19.3255 4.53617 19.6426 3.82695 20.2646 3.73921L20.2786 3.73726C20.9357 3.64574 21.5353 4.20217 21.5209 4.88999C21.518 5.02981 21.489 5.1666 21.4355 5.29287L21.3055 5.59981C21.1206 6.03629 21.0252 6.5109 21.0252 6.99477V7.18109C21.0252 7.78526 21.1438 8.38842 21.3737 8.95424L21.4007 9.02063C21.477 9.20853 21.6839 9.3034 21.8627 9.23252C22.0415 9.16165 22.1246 8.95188 22.0482 8.76398L22.0212 8.69758C21.9041 8.40929 21.8214 8.10942 21.7747 7.80483C22.9608 7.89642 24.0148 8.55641 24.7121 9.49405C24.7406 9.53239 24.7749 9.56318 24.8128 9.58609C25.274 10.0155 25.9625 10.0982 26.5138 9.75153L28.2055 8.68789C28.7377 8.35329 29.429 8.61418 29.6351 9.22717L29.6353 9.22783L29.6439 9.25332C29.8487 9.86392 29.4754 10.5197 28.865 10.6214C28.6981 10.6493 28.5271 10.6319 28.3684 10.5711L27.9967 10.4285C27.591 10.2728 27.145 10.2768 26.7419 10.4397L26.4469 10.5589C25.8533 10.7987 25.4931 11.4304 25.5707 12.0893C25.5683 12.5563 25.4944 13.005 25.3601 13.4242C25.334 13.5059 25.3369 13.5905 25.363 13.6656L25.7918 14.1146L26.2742 14.5026C26.5974 14.7625 27.0258 14.8295 27.4074 14.6796C27.5839 14.6103 27.7828 14.6554 27.9161 14.795L28.0362 14.9207C28.2606 15.1556 28.3181 15.5136 28.1795 15.8124L28.1179 15.9453C28.0449 16.073 27.9501 16.1788 27.8413 16.2606L28.3398 16.7826Z" fill="white"/>
<path fill-rule="evenodd" clip-rule="evenodd" d="M18.5774 12.6757C18.5774 12.0016 19.0993 11.4552 19.743 11.4552C20.3867 11.4552 20.9085 12.0016 20.9085 12.6757C20.9085 13.3497 20.3867 13.8961 19.743 13.8961C19.0993 13.8961 18.5774 13.3497 18.5774 12.6757ZM19.743 12.1875C19.4855 12.1875 19.2768 12.4061 19.2768 12.6757C19.2768 12.9453 19.4855 13.1638 19.743 13.1638C20.0005 13.1638 20.2092 12.9453 20.2092 12.6757C20.2092 12.4061 20.0005 12.1875 19.743 12.1875Z" fill="white"/>
<path fill-rule="evenodd" clip-rule="evenodd" d="M28.6602 18.554L23.9458 13.6176C23.9295 13.6005 23.9147 13.5826 23.9012 13.5639L19.1377 8.57604C19.1393 8.5748 19.141 8.57356 19.1427 8.57233L18.642 8.04809C18.6404 8.04937 18.6387 8.05064 18.6371 8.05192L15.1308 4.38046C14.9942 4.23748 14.7728 4.23748 14.6363 4.38046C14.4997 4.52344 14.4997 4.75527 14.6363 4.89825L18.1072 8.5326C17.2454 9.43756 16.7126 10.6862 16.7126 12.0655C16.7126 12.0855 16.7141 12.1051 16.717 12.1242C16.6688 12.3854 16.4679 12.5994 16.2008 12.6401L15.8319 12.6964C15.6466 12.7247 15.4573 12.6965 15.2868 12.6153L14.7908 12.3789C14.5284 12.2538 14.2398 12.2011 13.9524 12.2258C12.9016 12.3162 12.1855 13.381 12.4583 14.4474L12.465 14.4735C12.7407 15.5508 13.888 16.0953 14.8434 15.6023L16.9478 14.5165C17.0998 14.438 17.2733 14.476 17.3842 14.5905C17.3927 14.628 17.407 14.6647 17.4274 14.6993C18.2626 16.1094 19.7498 17.0536 21.4489 17.0691C21.4487 17.095 21.4478 17.1208 21.4462 17.1465L21.4347 17.3254C21.4231 17.5055 21.3859 17.6829 21.3244 17.8516L21.1016 18.4633C21.0299 18.66 20.9906 18.868 20.9854 19.0784L20.9834 19.161C20.9557 20.2788 21.9016 21.1498 22.9567 20.9784C24.0016 20.8086 24.6184 19.6587 24.213 18.6362L23.4232 16.6434C23.9643 16.3927 24.4523 16.0401 24.8653 15.609L28.1284 19.0257C28.2649 19.1687 28.4863 19.1687 28.6229 19.0257C28.7456 18.8973 28.758 18.6971 28.6602 18.554ZM18.6016 9.05032L24.3708 15.0912C24.0218 15.4554 23.6104 15.7536 23.155 15.9669L23.0524 15.7082C22.9555 15.4635 22.9298 15.1943 22.9786 14.9344L22.9999 14.8211C23.0372 14.6227 22.9138 14.4302 22.7243 14.3912C22.5348 14.3521 22.351 14.4813 22.3137 14.6797L22.2924 14.7931C22.217 15.1947 22.2567 15.6108 22.4065 15.9889L23.5671 18.9169C23.7987 19.501 23.4464 20.1578 22.8495 20.2548C22.2255 20.3562 21.6661 19.841 21.6825 19.18L21.6845 19.0974C21.6877 18.9698 21.7115 18.8436 21.755 18.7243L21.9778 18.1126C22.064 17.876 22.1161 17.6273 22.1324 17.3746L22.1439 17.1958C22.1796 16.642 21.984 16.1228 21.8127 15.7045C21.7028 15.4363 21.4709 15.2063 21.3103 15.065C21.2233 14.9885 21.142 14.9252 21.0826 14.881C21.0527 14.8588 21.0102 14.8287 21.0102 14.8287L20.9891 14.814L20.9828 14.8098L20.9809 14.8084L20.9802 14.808L20.9799 14.8078L20.9797 14.8077C20.8167 14.6992 20.6006 14.7494 20.497 14.9199C20.3933 15.0905 20.4413 15.3168 20.6041 15.4254L20.6072 15.4275C20.6102 15.4295 20.615 15.4328 20.6214 15.4373C20.6343 15.4464 20.6537 15.4601 20.6777 15.478C20.7259 15.5139 20.7914 15.565 20.8605 15.6257C21.0121 15.7591 21.1298 15.8952 21.17 15.9931C21.2178 16.1098 21.262 16.2227 21.3005 16.3324C19.9869 16.2691 18.8353 15.5555 18.1326 14.4905C17.9176 13.8626 17.2221 13.5585 16.6387 13.8596L14.5342 14.9455C13.9747 15.2342 13.3029 14.9157 13.1408 14.2852L13.1405 14.284L13.1338 14.2579C12.9739 13.6328 13.3937 13.0086 14.0096 12.9556C14.1781 12.9412 14.3473 12.972 14.5011 13.0453L14.9971 13.2817C15.2898 13.4212 15.6146 13.4696 15.9328 13.421L16.3016 13.3647C17.0129 13.2562 17.5044 12.5723 17.4177 11.8349C17.4728 10.75 17.9147 9.77222 18.6016 9.05032Z" fill="white"/>
<path d="M26.2468 5.07668C26.8604 5.56122 26.9827 6.47484 26.52 7.11732C26.152 7.62824 25.5087 7.82795 24.9342 7.60962L24.876 7.58751C24.6945 7.51852 24.6008 7.30851 24.6666 7.11843C24.7325 6.92835 24.9331 6.83019 25.1146 6.89918L25.1728 6.92129C25.4586 7.0299 25.7786 6.93055 25.9616 6.67641C26.1918 6.35682 26.131 5.90235 25.8258 5.66133L25.3533 5.28828C25.0295 5.03255 24.569 5.10013 24.3248 5.43922C24.1452 5.68849 24.1275 6.02668 24.2798 6.29508L24.4442 6.58486C24.5429 6.75869 24.4882 6.98335 24.3222 7.08665C24.1562 7.18994 23.9417 7.13276 23.843 6.95892L23.6786 6.66915C23.3812 6.14517 23.4159 5.48494 23.7664 4.99831C24.2432 4.33633 25.1422 4.2044 25.7744 4.70364L25.9933 4.87645L25.9938 4.87685L26.2468 5.07668Z" fill="white"/>
<path d="M16.2538 16.847C15.8077 17.5022 15.9534 18.4121 16.5793 18.8791L17.0611 19.2387C17.7059 19.72 18.6012 19.5627 19.0608 18.8876C19.3986 18.3912 19.4164 17.7303 19.1056 17.2148L18.9338 16.9298C18.8307 16.7588 18.6148 16.7077 18.4515 16.8156C18.2882 16.9236 18.2394 17.1497 18.3424 17.3207L18.5143 17.6057C18.6734 17.8697 18.6644 18.2083 18.4913 18.4625C18.2559 18.8084 17.7973 18.8889 17.467 18.6424L16.9852 18.2828C16.6738 18.0505 16.6014 17.5979 16.8232 17.272C16.9997 17.0127 17.317 16.9044 17.6055 17.0049L17.6642 17.0254C17.8474 17.0892 18.0454 16.9854 18.1064 16.7936C18.1673 16.6017 18.0682 16.3944 17.885 16.3306L17.8263 16.3101C17.2464 16.1081 16.6085 16.3258 16.2538 16.847Z" fill="white"/>
<path d="M14.0027 8.10986C14.007 8.09787 14.012 8.08602 14.0176 8.07438C14.0248 8.05958 14.0327 8.04547 14.0415 8.0321L14.146 7.86501C14.5565 7.20831 15.38 6.99191 16.038 7.36776L16.075 7.38885C16.3896 7.56856 16.6223 7.87295 16.7207 8.2338C16.7699 8.414 16.889 8.56431 17.0491 8.64812L17.1265 8.68865C17.2993 8.77908 17.3693 8.99901 17.2829 9.17987C17.1965 9.36073 16.9865 9.43404 16.8138 9.34361L16.7364 9.30308C16.401 9.12747 16.1513 8.81253 16.0483 8.43498C16.0013 8.26275 15.8903 8.11748 15.7401 8.03171L15.7032 8.01061C15.3651 7.81751 14.942 7.92869 14.7311 8.26609L14.6415 8.4094L14.5401 8.67463C14.4389 8.93947 14.5252 9.24242 14.7483 9.406L14.9476 9.55207C15.0371 9.61762 15.1566 9.61539 15.2438 9.54657C15.5738 9.28591 16.0268 9.2783 16.3647 9.52775L16.5889 9.69326C16.7467 9.80979 16.7844 10.0382 16.6732 10.2035C16.5619 10.3687 16.3437 10.4082 16.1859 10.2917L15.9617 10.1262C15.8722 10.0601 15.7523 10.0622 15.6649 10.1312C15.3358 10.3911 14.8843 10.3995 14.5466 10.152L14.3473 10.0059C13.8581 9.64729 13.669 8.98319 13.8908 8.40261L14.0027 8.10986Z" fill="white"/>
<path fill-rule="evenodd" clip-rule="evenodd" d="M23.4728 9.50253C22.829 9.50253 22.3072 10.0489 22.3072 10.723C22.3072 11.397 22.829 11.9434 23.4728 11.9434C24.1165 11.9434 24.6383 11.397 24.6383 10.723C24.6383 10.0489 24.1165 9.50253 23.4728 9.50253ZM23.0065 10.723C23.0065 10.4534 23.2153 10.2348 23.4728 10.2348C23.7302 10.2348 23.939 10.4534 23.939 10.723C23.939 10.9926 23.7302 11.2111 23.4728 11.2111C23.2153 11.2111 23.0065 10.9926 23.0065 10.723Z" fill="white"/>
<path d="M28.3398 16.7826C28.49 16.6529 28.6213 16.4939 28.7256 16.308C28.731 16.2985 28.7361 16.2887 28.7408 16.2786L28.8086 16.1322C29.0773 15.5527 28.9658 14.8585 28.5307 14.403L28.4106 14.2772C28.0834 13.9346 27.5951 13.8238 27.1618 13.994C27.0064 14.055 26.8318 14.0278 26.7002 13.9219L26.0899 13.431C26.2073 12.9966 26.2701 12.5384 26.2701 12.0655C26.2701 12.0458 26.2686 12.0264 26.2657 12.0076C26.2236 11.6786 26.4024 11.3618 26.6986 11.2421L26.9936 11.1229C27.2386 11.0239 27.5096 11.0215 27.7562 11.1161L28.1279 11.2586C28.3986 11.3625 28.6902 11.3921 28.975 11.3446C30.0162 11.171 30.6531 10.0523 30.3037 9.01065L30.2951 8.98516C29.9426 7.93414 28.7576 7.48665 27.8455 8.06011L26.1538 9.12375C25.8175 9.33524 25.382 9.23663 25.1592 8.89851L25.1543 8.90203C24.3301 7.86961 23.1103 7.14354 21.7293 7.06813V7.02594C21.7293 6.64057 21.8053 6.26257 21.9525 5.91494L22.0825 5.608C22.1717 5.39764 22.22 5.16977 22.2249 4.93683C22.2488 3.79098 21.2499 2.864 20.1553 3.01647L20.05 3.03114C20.0229 3.03492 19.997 3.04185 19.9727 3.05152C18.9768 3.30487 18.4976 4.49087 19.0504 5.45834L19.8279 6.81907C19.9174 6.97573 19.9713 7.14412 19.9913 7.31323C19.8244 7.37098 19.6615 7.4381 19.5033 7.514L20.4347 8.48932C20.788 7.89635 20.8017 7.11956 20.4303 6.46968L19.6528 5.10895C19.3255 4.53617 19.6426 3.82695 20.2646 3.73921L20.2786 3.73726C20.9357 3.64574 21.5353 4.20217 21.5209 4.88999C21.518 5.02981 21.489 5.1666 21.4355 5.29287L21.3055 5.59981C21.1206 6.03629 21.0252 6.5109 21.0252 6.99477V7.18109C21.0252 7.78526 21.1438 8.38842 21.3737 8.95424L21.4007 9.02063C21.477 9.20853 21.6839 9.3034 21.8627 9.23252C22.0415 9.16165 22.1246 8.95188 22.0482 8.76398L22.0212 8.69758C21.9041 8.40929 21.8214 8.10942 21.7747 7.80483C22.9608 7.89642 24.0148 8.55641 24.7121 9.49405C24.7406 9.53239 24.7749 9.56318 24.8128 9.58609C25.274 10.0155 25.9625 10.0982 26.5138 9.75153L28.2055 8.68789C28.7377 8.35329 29.429 8.61418 29.6351 9.22717L29.6353 9.22783L29.6439 9.25332C29.8487 9.86392 29.4754 10.5197 28.865 10.6214C28.6981 10.6493 28.5271 10.6319 28.3684 10.5711L27.9967 10.4285C27.591 10.2728 27.145 10.2768 26.7419 10.4397L26.4469 10.5589C25.8533 10.7987 25.4931 11.4304 25.5707 12.0893C25.5683 12.5563 25.4944 13.005 25.3601 13.4242C25.334 13.5059 25.3369 13.5905 25.363 13.6656L25.7918 14.1146L26.2742 14.5026C26.5974 14.7625 27.0258 14.8295 27.4074 14.6796C27.5839 14.6103 27.7828 14.6554 27.9161 14.795L28.0362 14.9207C28.2606 15.1556 28.3181 15.5136 28.1795 15.8124L28.1179 15.9453C28.0449 16.073 27.9501 16.1788 27.8413 16.2606L28.3398 16.7826Z" stroke="white" stroke-width="0.3"/>
<path fill-rule="evenodd" clip-rule="evenodd" d="M18.5774 12.6757C18.5774 12.0016 19.0993 11.4552 19.743 11.4552C20.3867 11.4552 20.9085 12.0016 20.9085 12.6757C20.9085 13.3497 20.3867 13.8961 19.743 13.8961C19.0993 13.8961 18.5774 13.3497 18.5774 12.6757ZM19.743 12.1875C19.4855 12.1875 19.2768 12.4061 19.2768 12.6757C19.2768 12.9453 19.4855 13.1638 19.743 13.1638C20.0005 13.1638 20.2092 12.9453 20.2092 12.6757C20.2092 12.4061 20.0005 12.1875 19.743 12.1875Z" stroke="white" stroke-width="0.3"/>
<path fill-rule="evenodd" clip-rule="evenodd" d="M28.6602 18.554L23.9458 13.6176C23.9295 13.6005 23.9147 13.5826 23.9012 13.5639L19.1377 8.57604C19.1393 8.5748 19.141 8.57356 19.1427 8.57233L18.642 8.04809C18.6404 8.04937 18.6387 8.05064 18.6371 8.05192L15.1308 4.38046C14.9942 4.23748 14.7728 4.23748 14.6363 4.38046C14.4997 4.52344 14.4997 4.75527 14.6363 4.89825L18.1072 8.5326C17.2454 9.43756 16.7126 10.6862 16.7126 12.0655C16.7126 12.0855 16.7141 12.1051 16.717 12.1242C16.6688 12.3854 16.4679 12.5994 16.2008 12.6401L15.8319 12.6964C15.6466 12.7247 15.4573 12.6965 15.2868 12.6153L14.7908 12.3789C14.5284 12.2538 14.2398 12.2011 13.9524 12.2258C12.9016 12.3162 12.1855 13.381 12.4583 14.4474L12.465 14.4735C12.7407 15.5508 13.888 16.0953 14.8434 15.6023L16.9478 14.5165C17.0998 14.438 17.2733 14.476 17.3842 14.5905C17.3927 14.628 17.407 14.6647 17.4274 14.6993C18.2626 16.1094 19.7498 17.0536 21.4489 17.0691C21.4487 17.095 21.4478 17.1208 21.4462 17.1465L21.4347 17.3254C21.4231 17.5055 21.3859 17.6829 21.3244 17.8516L21.1016 18.4633C21.0299 18.66 20.9906 18.868 20.9854 19.0784L20.9834 19.161C20.9557 20.2788 21.9016 21.1498 22.9567 20.9784C24.0016 20.8086 24.6184 19.6587 24.213 18.6362L23.4232 16.6434C23.9643 16.3927 24.4523 16.0401 24.8653 15.609L28.1284 19.0257C28.2649 19.1687 28.4863 19.1687 28.6229 19.0257C28.7456 18.8973 28.758 18.6971 28.6602 18.554ZM18.6016 9.05032L24.3708 15.0912C24.0218 15.4554 23.6104 15.7536 23.155 15.9669L23.0524 15.7082C22.9555 15.4635 22.9298 15.1943 22.9786 14.9344L22.9999 14.8211C23.0372 14.6227 22.9138 14.4302 22.7243 14.3912C22.5348 14.3521 22.351 14.4813 22.3137 14.6797L22.2924 14.7931C22.217 15.1947 22.2567 15.6108 22.4065 15.9889L23.5671 18.9169C23.7987 19.501 23.4464 20.1578 22.8495 20.2548C22.2255 20.3562 21.6661 19.841 21.6825 19.18L21.6845 19.0974C21.6877 18.9698 21.7115 18.8436 21.755 18.7243L21.9778 18.1126C22.064 17.876 22.1161 17.6273 22.1324 17.3746L22.1439 17.1958C22.1796 16.642 21.984 16.1228 21.8127 15.7045C21.7028 15.4363 21.4709 15.2063 21.3103 15.065C21.2233 14.9885 21.142 14.9252 21.0826 14.881C21.0527 14.8588 21.0102 14.8287 21.0102 14.8287L20.9891 14.814L20.9828 14.8098L20.9809 14.8084L20.9802 14.808L20.9799 14.8078L20.9797 14.8077C20.8167 14.6992 20.6006 14.7494 20.497 14.9199C20.3933 15.0905 20.4413 15.3168 20.6041 15.4254L20.6072 15.4275C20.6102 15.4295 20.615 15.4328 20.6214 15.4373C20.6343 15.4464 20.6537 15.4601 20.6777 15.478C20.7259 15.5139 20.7914 15.565 20.8605 15.6257C21.0121 15.7591 21.1298 15.8952 21.17 15.9931C21.2178 16.1098 21.262 16.2227 21.3005 16.3324C19.9869 16.2691 18.8353 15.5555 18.1326 14.4905C17.9176 13.8626 17.2221 13.5585 16.6387 13.8596L14.5342 14.9455C13.9747 15.2342 13.3029 14.9157 13.1408 14.2852L13.1405 14.284L13.1338 14.2579C12.9739 13.6328 13.3937 13.0086 14.0096 12.9556C14.1781 12.9412 14.3473 12.972 14.5011 13.0453L14.9971 13.2817C15.2898 13.4212 15.6146 13.4696 15.9328 13.421L16.3016 13.3647C17.0129 13.2562 17.5044 12.5723 17.4177 11.8349C17.4728 10.75 17.9147 9.77222 18.6016 9.05032Z" stroke="white" stroke-width="0.3"/>
<path d="M26.2468 5.07668C26.8604 5.56122 26.9827 6.47484 26.52 7.11732C26.152 7.62824 25.5087 7.82795 24.9342 7.60962L24.876 7.58751C24.6945 7.51852 24.6008 7.30851 24.6666 7.11843C24.7325 6.92835 24.9331 6.83019 25.1146 6.89918L25.1728 6.92129C25.4586 7.0299 25.7786 6.93055 25.9616 6.67641C26.1918 6.35682 26.131 5.90235 25.8258 5.66133L25.3533 5.28828C25.0295 5.03255 24.569 5.10013 24.3248 5.43922C24.1452 5.68849 24.1275 6.02668 24.2798 6.29508L24.4442 6.58486C24.5429 6.75869 24.4882 6.98335 24.3222 7.08665C24.1562 7.18994 23.9417 7.13276 23.843 6.95892L23.6786 6.66915C23.3812 6.14517 23.4159 5.48494 23.7664 4.99831C24.2432 4.33633 25.1422 4.2044 25.7744 4.70364L25.9933 4.87645L25.9938 4.87685L26.2468 5.07668Z" stroke="white" stroke-width="0.3"/>
<path d="M16.2538 16.847C15.8077 17.5022 15.9534 18.4121 16.5793 18.8791L17.0611 19.2387C17.7059 19.72 18.6012 19.5627 19.0608 18.8876C19.3986 18.3912 19.4164 17.7303 19.1056 17.2148L18.9338 16.9298C18.8307 16.7588 18.6148 16.7077 18.4515 16.8156C18.2882 16.9236 18.2394 17.1497 18.3424 17.3207L18.5143 17.6057C18.6734 17.8697 18.6644 18.2083 18.4913 18.4625C18.2559 18.8084 17.7973 18.8889 17.467 18.6424L16.9852 18.2828C16.6738 18.0505 16.6014 17.5979 16.8232 17.272C16.9997 17.0127 17.317 16.9044 17.6055 17.0049L17.6642 17.0254C17.8474 17.0892 18.0454 16.9854 18.1064 16.7936C18.1673 16.6017 18.0682 16.3944 17.885 16.3306L17.8263 16.3101C17.2464 16.1081 16.6085 16.3258 16.2538 16.847Z" stroke="white" stroke-width="0.3"/>
<path d="M14.0027 8.10986C14.007 8.09787 14.012 8.08602 14.0176 8.07438C14.0248 8.05958 14.0327 8.04547 14.0415 8.0321L14.146 7.86501C14.5565 7.20831 15.38 6.99191 16.038 7.36776L16.075 7.38885C16.3896 7.56856 16.6223 7.87295 16.7207 8.2338C16.7699 8.414 16.889 8.56431 17.0491 8.64812L17.1265 8.68865C17.2993 8.77908 17.3693 8.99901 17.2829 9.17987C17.1965 9.36073 16.9865 9.43404 16.8138 9.34361L16.7364 9.30308C16.401 9.12747 16.1513 8.81253 16.0483 8.43498C16.0013 8.26275 15.8903 8.11748 15.7401 8.03171L15.7032 8.01061C15.3651 7.81751 14.942 7.92869 14.7311 8.26609L14.6415 8.4094L14.5401 8.67463C14.4389 8.93947 14.5252 9.24242 14.7483 9.406L14.9476 9.55207C15.0371 9.61762 15.1566 9.61539 15.2438 9.54657C15.5738 9.28591 16.0268 9.2783 16.3647 9.52775L16.5889 9.69326C16.7467 9.80979 16.7844 10.0382 16.6732 10.2035C16.5619 10.3687 16.3437 10.4082 16.1859 10.2917L15.9617 10.1262C15.8722 10.0601 15.7523 10.0622 15.6649 10.1312C15.3358 10.3911 14.8843 10.3995 14.5466 10.152L14.3473 10.0059C13.8581 9.64729 13.669 8.98319 13.8908 8.40261L14.0027 8.10986Z" stroke="white" stroke-width="0.3"/>
<path fill-rule="evenodd" clip-rule="evenodd" d="M23.4728 9.50253C22.829 9.50253 22.3072 10.0489 22.3072 10.723C22.3072 11.397 22.829 11.9434 23.4728 11.9434C24.1165 11.9434 24.6383 11.397 24.6383 10.723C24.6383 10.0489 24.1165 9.50253 23.4728 9.50253ZM23.0065 10.723C23.0065 10.4534 23.2153 10.2348 23.4728 10.2348C23.7302 10.2348 23.939 10.4534 23.939 10.723C23.939 10.9926 23.7302 11.2111 23.4728 11.2111C23.2153 11.2111 23.0065 10.9926 23.0065 10.723Z" stroke="white" stroke-width="0.3"/>
<path d="M38.052 14.524V12.028H41.556V10.672H38.052V8.5H42.18L42.156 7H36.396V16H42.336L42.372 14.524H38.052ZM48.0731 16H49.8612L47.6651 12.316L49.8012 8.776H48.0851L47.0291 10.756L46.5971 11.62H46.5611L46.1171 10.768L45.0491 8.776H43.2611L45.4691 12.352L43.2131 16H44.9171L46.0331 13.9L46.4651 13.024H46.5011L46.9331 13.888L48.0731 16ZM57.2562 12.376C57.2562 9.604 56.2842 8.656 54.5082 8.656C53.7042 8.656 52.9842 8.944 52.4682 9.436L52.1682 8.752L51.0882 8.824V17.812H52.6362V16.444L52.6122 15.472L52.6482 15.46C53.1282 15.964 53.7642 16.132 54.4482 16.132C56.1642 16.132 57.2562 14.98 57.2562 12.376ZM55.6842 12.364C55.6842 14.368 55.0242 14.824 54.0642 14.824C53.3562 14.824 52.8882 14.5 52.6362 14.092V10.744C52.9482 10.3 53.4642 10.036 54.1122 10.036C55.1682 10.036 55.6842 10.528 55.6842 12.364ZM61.7434 16.132C62.6434 16.132 63.4354 15.94 64.0474 15.64L63.8674 14.38C63.2554 14.644 62.6314 14.776 61.9234 14.776C60.5434 14.776 59.9074 14.248 59.8354 12.736H64.2274C64.2514 12.52 64.2634 12.232 64.2634 12.004C64.2634 9.7 63.1234 8.656 61.3474 8.656C59.2594 8.656 58.2514 9.964 58.2514 12.256C58.2514 14.848 59.3074 16.132 61.7434 16.132ZM59.7994 11.704C59.8714 10.48 60.3154 9.952 61.3594 9.952C62.2594 9.952 62.8354 10.432 62.8594 11.704H59.7994ZM67.1318 16V12.364C67.1318 11.008 67.9358 10.192 68.9798 10.192C69.2438 10.192 69.5078 10.24 69.7358 10.312L69.8318 8.764C69.6398 8.704 69.3758 8.668 69.0758 8.668C68.1878 8.668 67.4438 9.172 66.9998 10.108H66.9638L66.8318 8.752L65.6078 8.824V16H67.1318ZM74.6213 9.952V8.776H72.9293V6.964L71.7293 7.084L71.4533 8.776H70.5053V9.952H71.4053V14.008C71.4053 15.34 72.0773 16.12 73.4333 16.12C73.8773 16.12 74.3213 16.036 74.5613 15.928L74.4653 14.788C74.3333 14.836 74.0693 14.872 73.8773 14.872C73.2653 14.872 72.9293 14.608 72.9293 13.972V9.952H74.6213ZM81.0132 16V8.74L79.4652 8.824V16H81.0132ZM81.1572 7.108C81.1572 6.64 80.8692 6.376 80.2452 6.376C79.6332 6.376 79.3332 6.64 79.3332 7.108C79.3332 7.636 79.6332 7.816 80.2452 7.816C80.8692 7.816 81.1572 7.588 81.1572 7.108ZM88.8781 16V11.32C88.8781 9.568 87.9181 8.644 86.3941 8.644C85.6141 8.644 84.8821 8.92 84.3421 9.424L84.1021 8.728L83.0101 8.812V16H84.5341V10.696C84.8341 10.276 85.4341 10.036 85.9741 10.036C86.8621 10.036 87.3541 10.42 87.3541 11.332V16H88.8781ZM95.1421 13.804C95.1421 11.296 91.6741 12.004 91.6741 10.732C91.6741 10.252 92.1061 9.964 92.8261 9.964C93.3781 9.964 94.1221 10.084 94.7221 10.336L94.8541 9.064C94.2541 8.8 93.5701 8.656 92.8501 8.656C91.0861 8.656 90.2101 9.532 90.2101 10.792C90.2101 13.288 93.7261 12.58 93.7261 13.948C93.7261 14.476 93.3541 14.872 92.4781 14.872C91.8181 14.872 90.9781 14.68 90.4141 14.308L90.2341 15.604C90.8341 15.964 91.6141 16.144 92.4781 16.144C94.3501 16.144 95.1421 15.208 95.1421 13.804ZM102.62 12.376C102.62 9.604 101.648 8.656 99.8715 8.656C99.0675 8.656 98.3475 8.944 97.8315 9.436L97.5315 8.752L96.4515 8.824V17.812H97.9995V16.444L97.9755 15.472L98.0115 15.46C98.4915 15.964 99.1275 16.132 99.8115 16.132C101.528 16.132 102.62 14.98 102.62 12.376ZM101.048 12.364C101.048 14.368 100.388 14.824 99.4275 14.824C98.7195 14.824 98.2515 14.5 97.9995 14.092V10.744C98.3115 10.3 98.8275 10.036 99.4755 10.036C100.532 10.036 101.048 10.528 101.048 12.364ZM107.107 16.132C108.007 16.132 108.799 15.94 109.411 15.64L109.231 14.38C108.619 14.644 107.995 14.776 107.287 14.776C105.907 14.776 105.271 14.248 105.199 12.736H109.591C109.615 12.52 109.627 12.232 109.627 12.004C109.627 9.7 108.487 8.656 106.711 8.656C104.623 8.656 103.615 9.964 103.615 12.256C103.615 14.848 104.671 16.132 107.107 16.132ZM105.163 11.704C105.235 10.48 105.679 9.952 106.723 9.952C107.623 9.952 108.199 10.432 108.223 11.704H105.163ZM115.567 8.992C115.099 8.8 114.439 8.668 113.815 8.668C111.571 8.668 110.599 9.964 110.599 12.376C110.599 14.956 111.691 16.156 113.779 16.156C114.547 16.156 115.207 15.976 115.627 15.7L115.519 14.476C115.123 14.692 114.619 14.812 114.103 14.812C112.867 14.812 112.183 14.14 112.183 12.376C112.183 10.708 112.687 10.06 114.139 10.06C114.595 10.06 115.075 10.168 115.471 10.336L115.567 8.992ZM120.465 9.952V8.776H118.773V6.964L117.573 7.084L117.297 8.776H116.349V9.952H117.249V14.008C117.249 15.34 117.921 16.12 119.277 16.12C119.721 16.12 120.165 16.036 120.405 15.928L120.309 14.788C120.177 14.836 119.913 14.872 119.721 14.872C119.109 14.872 118.773 14.608 118.773 13.972V9.952H120.465ZM124.673 16.132C125.573 16.132 126.365 15.94 126.977 15.64L126.797 14.38C126.185 14.644 125.561 14.776 124.853 14.776C123.473 14.776 122.837 14.248 122.765 12.736H127.157C127.181 12.52 127.193 12.232 127.193 12.004C127.193 9.7 126.053 8.656 124.277 8.656C122.189 8.656 121.181 9.964 121.181 12.256C121.181 14.848 122.237 16.132 124.673 16.132ZM122.729 11.704C122.801 10.48 123.245 9.952 124.289 9.952C125.189 9.952 125.765 10.432 125.789 11.704H122.729ZM134.345 16V6.52L132.821 6.604V8.392L132.845 9.352L132.821 9.376C132.329 8.896 131.657 8.644 130.925 8.644C129.053 8.644 128.165 9.964 128.165 12.364C128.165 14.944 129.041 16.144 130.937 16.144C131.861 16.144 132.509 15.844 132.953 15.304L132.989 15.316L133.157 16H134.345ZM132.821 14.152C132.629 14.488 132.185 14.872 131.357 14.872C130.133 14.872 129.749 14.26 129.749 12.424C129.749 10.672 130.181 10.048 131.369 10.048C132.029 10.048 132.557 10.312 132.821 10.708V14.152Z" fill="white"/>
</svg>
