<?xml version="1.0" encoding="UTF-8" standalone="no"?>
<svg width="118px" height="33px" viewBox="0 0 118 33" version="1.1" xmlns="http://www.w3.org/2000/svg" xmlns:xlink="http://www.w3.org/1999/xlink">
    <!-- Generator: Sketch 41.2 (35397) - http://www.bohemiancoding.com/sketch -->
    <title>HRS_White_sRGB</title>
    <desc>Created with Sketch.</desc>
    <defs></defs>
    <g id="Page-1" stroke="none" stroke-width="1" fill="none" fill-rule="evenodd">
        <g id="https://issues.int.hrs.com/jira/secure/attachment/109696/header.png" transform="translate(-91.000000, -42.000000)">
            <g id="HRS_White_sRGB" transform="translate(91.000000, 42.000000)">
                <g id="Group">
                    <g id="BoundingBox">
                        <rect id="Rectangle-path" x="0" y="0" width="118" height="33"></rect>
                    </g>
                    <g id="HRS_Bild-Wortmarke" fill="#FFFFFF">
                        <path d="M18.547663,19.1989725 L18.547663,18.618165 C18.547663,17.9223675 18.0939716,17.4741225 17.1594116,17.249265 L7.57502855,14.89746 L13.0069916,13.36743 L13.0620731,13.375485 L23.3034341,15.3925725 C23.6071023,15.4518975 23.8194503,15.6774825 23.8194503,15.9418875 L23.8194503,16.7343675 L18.547663,19.1989725 Z M26.7901782,10.69263 C26.785102,10.019535 26.7684336,9.818115 26.1701587,9.768315 C26.1701587,9.768315 14.9659697,8.44629 14.899296,8.4375075 C14.7050635,8.4118725 14.5659126,8.4887775 14.5659126,8.75538 L14.5659126,12.58155 L24.7058158,14.4426375 C25.1381263,14.538585 25.3421401,14.828625 25.3421401,15.3413175 L25.3421401,17.3195925 L17.1039738,21.46875 C17.1039738,21.46875 17.1032465,19.5666525 17.1039738,19.440675 C17.1039738,19.001955 16.9535869,18.584475 16.494463,18.44019 L5.4015205,15.5229525 C4.80070755,15.36255 4.82462667,15.8510775 4.82462667,15.8510775 L4.82462667,21.2622075 C4.82462667,21.2622075 4.76881786,21.74121 5.58125899,21.74121 C6.28063535,21.74121 6.2226595,21.2622075 6.2226595,21.2622075 L6.2226595,20.8403325 L15.5885347,24.1464825 L15.5885347,25.034175 C15.5885347,25.034175 15.5508489,25.53222 16.4045975,25.53222 C17.1441977,25.53222 17.102163,25.034175 17.102163,25.034175 L17.1010795,24.00366 L25.4385439,19.30371 L25.4385439,19.538085 C25.4385439,19.538085 25.4048434,19.9746075 26.1661883,19.9746075 C26.8249845,19.9746075 26.7891096,19.538085 26.7891096,19.538085 L26.7901782,10.69263 Z M32.4576811,16.5 C32.4576811,7.45752 25.2044364,0.128175 16.2567413,0.128175 C7.30977346,0.128175 0.0565286792,7.45752 0.0565286792,16.5 C0.0565286792,25.54248 7.30977346,32.87256 16.2567413,32.87256 C25.2044364,32.87256 32.4576811,25.54248 32.4576811,16.5 Z M30.3015688,16.500735 C30.3015688,24.3391125 24.0136828,30.694335 16.2567487,30.694335 C8.49981459,30.694335 2.21155748,24.3391125 2.21155748,16.500735 C2.21155748,8.6616225 8.49979975,2.3064 16.2567413,2.3064 C24.0136828,2.3064 30.3015688,8.6616225 30.3015688,16.500735 Z" id="Shape"></path>
                        <path d="M106.992582,28.134525 C101.930968,28.134525 99.0232919,27.4284675 96.6403302,26.6623575 L97.7477416,22.3718325 C100.07272,22.965825 102.897774,23.5957125 107.024471,23.5957125 C110.239437,23.5957125 111.606307,23.503425 112.649939,23.2163175 C113.452955,23.0119725 113.951583,22.613535 113.951583,21.2607525 C113.951583,20.1181725 113.648642,19.62159 112.835474,19.43043 C111.970126,19.2407325 110.546734,19.1096325 108.89866,18.9587475 C106.408437,18.73023 103.307983,18.446055 100.540906,17.8220325 C99.3958083,17.5583625 98.524664,17.0507925 97.8796419,16.268565 C96.9911019,15.1926375 96.5417668,13.583505 96.5417668,11.4851175 C96.5417668,7.20558 98.5638044,6.07032 100.542353,5.524665 C102.293339,5.02515 104.019679,4.86402 107.646302,4.86402 C111.600504,4.86402 114.876354,5.6110875 116.938972,6.2417025 L115.892438,10.56153 C114.727051,10.2531825 111.709212,9.4650975 107.304213,9.4650975 C104.882118,9.4650975 102.925307,9.5800875 101.932408,9.7807725 C101.032275,9.97926 100.594532,10.516125 100.594532,11.4221325 C100.594532,12.412365 100.784416,13.1132925 101.712089,13.3147125 C102.612221,13.5234525 104.600922,13.7285325 106.904156,13.9665675 C109.439315,14.228775 112.3122,14.5254075 114.289301,14.8916175 C114.982154,15.01833 115.991002,15.2973825 116.75343,16.2473325 C117.125947,16.7109525 117.414393,17.3049525 117.611528,18.0117375 C117.831854,18.80715 117.943464,19.7724825 117.943464,20.8821 C117.943464,21.9829275 117.818807,22.9585125 117.573842,23.7817575 C117.356418,24.512715 117.037528,25.1455275 116.624424,25.662615 C115.782268,26.7180375 114.671962,27.1472325 113.909534,27.3786825 C112.228138,27.8803725 109.901705,28.134525 106.992582,28.134525 Z M94.2428745,27.50244 L88.3622962,27.50244 L83.4630253,19.8720675 L77.20268,19.8720675 L77.20268,27.50244 L71.7772478,27.50244 L71.7772478,5.4946275 L84.5994247,5.4946275 C85.9938358,5.4946275 88.0115245,5.5437 89.427673,5.9670375 C90.9829723,6.4233375 92.028059,7.085445 92.7136613,8.0515125 C93.4789914,9.12744 93.8355667,10.5996075 93.8355667,12.6833475 C93.8355667,14.5539525 93.4688464,16.090575 92.7441038,17.25 C92.1324185,18.22998 91.2656231,18.9191925 90.2379396,19.2429225 C89.8857133,19.369635 89.398685,19.4355525 89.008773,19.488285 C88.9160057,19.50147 88.8261401,19.513185 88.744965,19.525635 L88.6927853,19.53369 L94.2428745,27.50244 Z M77.20268,9.5910675 L77.20268,15.9960975 L84.9125106,15.9960975 C85.3067716,15.9960975 86.5069503,15.9960975 87.0432566,15.837165 C87.6201504,15.679695 88.0289054,15.34278 88.2912662,14.80665 C88.5376784,14.3049375 88.6579864,13.6201275 88.6579864,12.71412 C88.6579864,11.959725 88.5565213,11.3701275 88.3463477,10.91163 C88.0955865,10.360845 87.6781337,9.990975 87.1055814,9.813 C86.6605878,9.663585 85.9227984,9.591075 84.8501784,9.591075 L77.20268,9.591075 L77.20268,9.5910675 Z M67.537493,27.50244 L62.1120533,27.50244 L62.1120533,18.8122575 L49.1898585,18.8122575 L49.1898585,27.50244 L43.7948614,27.50244 L43.7948614,5.4946275 L49.1898585,5.4946275 L49.1898585,14.3562 L62.1120533,14.3562 L62.1120533,5.4946275 L67.537493,5.4946275 L67.537493,27.50244 Z" id="Shape"></path>
                    </g>
                </g>
            </g>
        </g>
    </g>
</svg>