<?xml version="1.0" encoding="utf-8"?>
<!-- Generator: Adobe Illustrator 22.0.1, SVG Export Plug-In . SVG Version: 6.00 Build 0)  -->
<svg version="1.1" id="Layer_1" xmlns="http://www.w3.org/2000/svg" xmlns:xlink="http://www.w3.org/1999/xlink" x="0px" y="0px"
	 viewBox="0 0 187 76" style="enable-background:new 0 0 187 76;" xml:space="preserve">
<style type="text/css">
	.st0{fill:#24CC67;}
	.st1{fill:#194920;}
</style>
<g>
	<g>
		<path class="st0" d="M102,36.8v18.5c0,1-0.6,1.6-1.6,1.6h-9.3c-1,0-1.6-0.6-1.6-1.6V38.6c0-4.6-2.7-7.6-6.6-7.6
			c-4.1,0-7,2.9-7,7.6v16.7c0,1-0.6,1.6-1.6,1.6H65c-1,0-1.6-0.6-1.6-1.6V22.1c0-1,0.6-1.6,1.6-1.6h5.6c0.9,0,1.5,0.6,1.6,1.5
			l0.4,4.4c2.1-3.8,6.6-6.6,13.3-6.6C95.8,19.8,102,26.4,102,36.8z"/>
		<path class="st0" d="M148.1,36.8v18.5c0,1-0.6,1.6-1.6,1.6h-9.3c-1,0-1.6-0.6-1.6-1.6V38.6c0-4.6-2.8-7.6-6.6-7.6
			c-4.1,0-6.9,2.9-6.9,7.6v16.7c0,1-0.6,1.6-1.6,1.6h-9.3c-1,0-1.6-0.6-1.6-1.6V2c0-1,0.6-1.6,1.6-1.6h9.3c1,0,1.6,0.6,1.6,1.6v20.8
			c2.1-1.8,5.3-3,9.4-3C141.2,19.8,148.1,26.6,148.1,36.8z"/>
		<path class="st0" d="M153.6,38.7c0-10.6,8.6-18.9,20.1-18.9c6.3,0,10.3,1.8,12.5,3.2c0.9,0.6,1,1.3,0.5,2.4l-3.3,6.5
			c-0.5,0.9-1.3,1-2.3,0.6c-1.2-0.6-3.2-1.4-5.8-1.4c-5.4,0-8.8,3.2-8.8,7.6s3.5,7.6,8.8,7.6c2.7,0,4.7-0.7,6.1-1.5
			c0.9-0.5,1.7-0.3,2.1,0.6l3.3,6.5c0.5,0.9,0.3,1.6-0.5,2.1c-1.3,0.9-5.4,3.6-12.6,3.6C162.2,57.6,153.6,49.3,153.6,38.7z"/>
	</g>
	<g>
		<path class="st0" d="M75.8,68.5v5c0,0.2-0.1,0.4-0.2,0.5c-0.6,0.5-2.2,1.5-5.1,1.5c-4.4,0-7.5-3.2-7.5-7.2s3.1-7.1,7.6-7.1
			c2.4,0,3.9,0.7,4.6,1.2c0.2,0.1,0.3,0.3,0.1,0.5l-1.1,1.9c-0.1,0.2-0.3,0.3-0.5,0.2c-0.6-0.3-1.6-0.7-3-0.7c-2.5,0-4.2,1.5-4.2,4
			s1.9,4.2,4.2,4.2c0.8,0,1.5-0.1,2.1-0.4v-3.6c0-0.3,0.1-0.4,0.4-0.4h2.3C75.6,68.1,75.8,68.3,75.8,68.5z"/>
		<path class="st0" d="M117.9,75.4h-3c-0.2,0-0.4-0.1-0.5-0.3l-2.4-3.5l0,0h-1.7V75c0,0.3-0.1,0.4-0.4,0.4h-2.5
			c-0.3,0-0.4-0.1-0.4-0.4V61.8c0-0.3,0.1-0.4,0.4-0.4h4.8c3.5,0,5.8,2.1,5.8,5.2c0,1.9-1,3.5-2.6,4.3l2.8,4
			C118.3,75.2,118.2,75.4,117.9,75.4z M110.4,68.7h1.6c1.6,0,2.6-0.8,2.6-2.1c0-1.3-1-2.3-2.6-2.3h-1.6V68.7z"/>
		<path class="st0" d="M105,75.4h-2.7c-0.2,0-0.4-0.1-0.5-0.3l-0.9-2.2h-5.4L94.7,75c-0.1,0.2-0.2,0.3-0.5,0.3h-2.7
			c-0.3,0-0.4-0.2-0.3-0.5l5.9-13.2c0.1-0.2,0.3-0.3,0.5-0.3H99c0.2,0,0.4,0.1,0.5,0.3l5.8,13.2C105.4,75.2,105.3,75.4,105,75.4z
			 M96.6,70.1h3.3l-1.6-3.9L96.6,70.1z"/>
		<path class="st0" d="M133.6,75.4h-2.7c-0.2,0-0.4-0.1-0.5-0.3l-0.9-2.2h-5.4l-0.8,2.1c-0.1,0.2-0.2,0.3-0.5,0.3h-2.7
			c-0.3,0-0.4-0.2-0.3-0.5l5.9-13.2c0.1-0.2,0.3-0.3,0.5-0.3h1.4c0.2,0,0.4,0.1,0.5,0.3l5.8,13.2C134,75.2,133.9,75.4,133.6,75.4z
			 M125.2,70.1h3.3l-1.6-3.9L125.2,70.1z"/>
		<path class="st0" d="M78.1,69.2v-7.4c0-0.3,0.1-0.4,0.4-0.4H81c0.3,0,0.4,0.1,0.4,0.4v7.7c0,1.5,0.9,3.1,3,3.1s3-1.5,3-3.1v-7.7
			c0-0.3,0.1-0.4,0.4-0.4h2.5c0.3,0,0.4,0.1,0.4,0.4v7.4c0,4.1-2.5,6.3-6.3,6.3C80.6,75.5,78.1,73.4,78.1,69.2z"/>
		<path class="st0" d="M148.6,61.8v13.3c0,0.3-0.1,0.4-0.4,0.4H147c-0.2,0-0.4-0.1-0.5-0.2l-7.6-8.2V75c0,0.3-0.1,0.4-0.4,0.4H136
			c-0.3,0-0.4-0.1-0.4-0.4V61.7c0-0.3,0.1-0.4,0.4-0.4h1.1c0.2,0,0.4,0.1,0.5,0.2l7.6,8.1v-7.8c0-0.3,0.1-0.4,0.4-0.4h2.5
			C148.4,61.4,148.6,61.5,148.6,61.8z"/>
		<path class="st0" d="M162.5,61.8v2.1c0,0.3-0.1,0.4-0.4,0.4H158V75c0,0.3-0.1,0.4-0.4,0.4H155c-0.3,0-0.4-0.1-0.4-0.4V64.3h-4.1
			c-0.3,0-0.4-0.1-0.4-0.4v-2.1c0-0.3,0.1-0.4,0.4-0.4h11.6C162.4,61.4,162.5,61.5,162.5,61.8z"/>
		<path class="st0" d="M173.9,72.8V75c0,0.3-0.1,0.4-0.4,0.4h-9.1c-0.3,0-0.4-0.1-0.4-0.4V61.8c0-0.3,0.1-0.4,0.4-0.4h9
			c0.3,0,0.4,0.1,0.4,0.4v2.1c0,0.3-0.1,0.4-0.4,0.4h-6.1v2.5h5.3c0.3,0,0.4,0.1,0.4,0.4v2.1c0,0.3-0.1,0.4-0.4,0.4h-5.3v2.6h6.2
			C173.8,72.4,173.9,72.6,173.9,72.8z"/>
		<path class="st0" d="M186.4,72.8V75c0,0.3-0.1,0.4-0.4,0.4h-9.1c-0.3,0-0.4-0.1-0.4-0.4V61.8c0-0.3,0.1-0.4,0.4-0.4h9
			c0.3,0,0.4,0.1,0.4,0.4v2.1c0,0.3-0.1,0.4-0.4,0.4h-6.1v2.5h5.3c0.3,0,0.4,0.1,0.4,0.4v2.1c0,0.3-0.1,0.4-0.4,0.4h-5.3v2.6h6.2
			C186.3,72.4,186.4,72.6,186.4,72.8z"/>
	</g>
	<g>
		<path class="st1" d="M36.1,40.1l-4.5-4.5c-0.5-0.5-1.3-0.5-1.8,0L12,53.4c-0.6,0.6-1.7,0.4-2-0.4c-0.5-1.2-0.9-2.5-1.1-3.7
			c-0.1-0.7-0.7-1.1-1.4-1l-6.3,0.9C0.5,49.3,0,50,0.1,50.7C1,55.9,3.5,60.8,7.3,64.6C8,65.2,8.8,66,9.7,66.7
			c0.5,0.4,1.2,0.3,1.7-0.1l2.1-2.1l0,0l22.6-22.6C36.6,41.4,36.6,40.6,36.1,40.1z"/>
		<path class="st0" d="M55.9,19.7l-0.3-2.6c-0.1-0.6-0.5-1.1-1.1-1.1l-2.6-0.3C50.7,15.6,22.2,13,7.2,28c-1.9,1.9-3.5,4.1-4.7,6.5
			C2.1,35.2,2.6,36,3.4,36h8.1c0.3,0,0.6-0.1,0.8-0.4c0.4-0.5,0.8-0.9,1.2-1.3c8.7-8.7,24.4-9.9,32.5-9.9l0,0c0.7,0,1.3,0.6,1.3,1.2
			c0,8.1-1.2,23.8-9.9,32.5C34.2,61.3,30,63,25.5,63c-1.2,0-2.3-0.1-3.5-0.4c-0.4-0.1-0.9,0-1.2,0.3L15.7,68
			c-0.6,0.6-0.4,1.7,0.4,2.1c2.9,1.1,6.1,1.7,9.3,1.7c6.9,0,13.4-2.7,18.2-7.5C58.6,49.5,56.1,20.9,55.9,19.7z"/>
	</g>
</g>
</svg>
