<?xml version="1.0" encoding="UTF-8"?>
<svg width="41px" height="38px" viewBox="0 0 41 38" version="1.1" xmlns="http://www.w3.org/2000/svg" xmlns:xlink="http://www.w3.org/1999/xlink">
    <!-- Generator: Sketch 52.4 (67378) - http://www.bohemiancoding.com/sketch -->
    <title>NoSellData_Icon</title>
    <desc>Created with Sketch.</desc>
    <defs>
        <path d="M14.4516129,28 C6.28138495,28 0,21.7196757 0,14.4516129 C0,6.28138495 6.28138495,0 14.4516129,0 C21.7196757,0 28,6.28138495 28,14.4516129 C28,21.7196757 21.7196757,28 14.4516129,28 Z" id="path-1"></path>
        <path d="M32.2903226,38 C27.0380332,38 23,33.9626487 23,29.2903226 C23,24.0380332 27.0380332,20 32.2903226,20 C36.9626487,20 41,24.0380332 41,29.2903226 C41,33.9626487 36.9626487,38 32.2903226,38 Z" id="path-3"></path>
        <rect id="path-5" x="0" y="0" width="8" height="6" rx="1"></rect>
    </defs>
    <g id="Page-1" stroke="none" stroke-width="1" fill="none" fill-rule="evenodd">
        <g id="Buttons" transform="translate(-937.000000, -332.000000)">
            <g id="Icon" transform="translate(937.000000, 332.000000)">
                <g id="Combined-Shape" stroke-width="1" fill-rule="evenodd" transform="translate(3.000000, 3.000000)">
                    <mask id="mask-2" fill="white">
                        <use xlink:href="#path-1"></use>
                    </mask>
                    <g id="Mask">
                        <path stroke="#999999" stroke-width="3" d="M14.4516129,29.5 C5.61022895,29.5 -1.5,22.6998894 -1.5,14.4516129 C-1.5,5.45295783 5.45295783,-1.5 14.4516129,-1.5 C22.6998894,-1.5 29.5,5.61022895 29.5,14.4516129 C29.5,22.5481029 22.5481029,29.5 14.4516129,29.5 Z" fill="#FFFFFF" fill-rule="evenodd"></path>
                        <path stroke="#6CC04A" stroke-width="2" d="M14.4516129,29 C5.88150643,29 -1,22.418636 -1,14.4516129 C-1,5.7291002 5.7291002,-1 14.4516129,-1 C22.418636,-1 29,5.88150643 29,14.4516129 C29,22.2719605 22.2719605,29 14.4516129,29 Z"></path>
                    </g>
                    <path d="M8.4498271,18.8171077 C4.24102818,19.8891388 3.37617986,21.4412295 3.26175461,27.1702042 C3.25136464,27.6899594 3.24734355,27.9218428 3.24610421,28.1504306 C3.2945356,28.2094566 3.36707711,28.2892972 3.46802652,28.3862172 C3.8060393,28.710738 4.28940755,29.0438848 4.94529373,29.361516 C6.89281767,30.304659 9.843914,30.8793619 14.0001603,30.8793619 C18.1562178,30.8793619 21.1072123,30.3046599 23.0547027,29.3615178 C23.7105793,29.043886 24.1939471,28.7107379 24.5319659,28.3862149 C24.6326538,28.289547 24.7050826,28.2098688 24.753516,28.1508865 C24.7521098,27.9850519 24.748789,27.7652825 24.7423772,27.3823977 C24.6421427,21.4572568 23.7998506,19.8987721 19.5503212,18.8170843 C17.9600782,20.144302 16.0303064,20.8769381 14.0001603,20.8769381 C11.9698576,20.8769381 10.0400524,20.1443196 8.4498271,18.8171077 Z M14.0001603,18.3231619 C16.9646037,18.3231619 19.4024892,15.551953 19.4024892,12.0969 C19.4024892,7.72305824 18.1114282,5.87063811 14.0001603,5.87063811 C9.88862334,5.87063811 8.59783138,7.72278691 8.59783138,12.0969 C8.59783138,15.5520831 11.0355128,18.3231619 14.0001603,18.3231619 Z" stroke="#6CC04A" stroke-width="1.24127623" fill="#EFEEEE" mask="url(#mask-2)"></path>
                </g>
                <mask id="mask-4" fill="white">
                    <use xlink:href="#path-3"></use>
                </mask>
                <path stroke="#999999" stroke-width="1" d="M32.2903226,37.5 C36.6865063,37.5 40.5,33.6865063 40.5,29.2903226 C40.5,24.4010312 36.7691154,20.5 32.2903226,20.5 C27.3141756,20.5 23.5,24.3141756 23.5,29.2903226 C23.5,33.7691154 27.4010312,37.5 32.2903226,37.5 Z"></path>
                <rect id="Rectangle" stroke="#6CC04A" stroke-width="1" mask="url(#mask-4)" x="29.5" y="24.5" width="5" height="7" rx="2.5"></rect>
                <g id="Rectangle" stroke-width="1" fill-rule="evenodd" mask="url(#mask-4)">
                    <g transform="translate(28.000000, 28.000000)">
                        <mask id="mask-6" fill="white">
                            <use xlink:href="#path-5"></use>
                        </mask>
                        <use id="Mask" stroke="none" fill="#BBBBBB" fill-rule="evenodd" xlink:href="#path-5"></use>
                        <rect id="Rectangle" stroke="none" fill="#949494" fill-rule="evenodd" mask="url(#mask-6)" x="4" y="-1" width="4" height="8" rx="1"></rect>
                    </g>
                </g>
                <path d="M32.5,30 L32.5,31.5 C32.5,31.7761424 32.2761424,32 32,32 C31.7238576,32 31.5,31.7761424 31.5,31.5 L31.5,30 C31.2238576,30 31,29.7761424 31,29.5 C31,29.2238576 31.2238576,29 31.5,29 L32.5,29 C32.7761424,29 33,29.2238576 33,29.5 C33,29.7761424 32.7761424,30 32.5,30 Z" id="Combined-Shape" fill="#4C4C4F" fill-rule="evenodd" mask="url(#mask-4)"></path>
            </g>
        </g>
    </g>
</svg>