<svg xmlns="http://www.w3.org/2000/svg" width="25.537" height="26.5" viewBox="0 0 25.537 26.5">
    <defs>
        <style>
            .cls-1{fill:none;stroke:#000;stroke-linecap:round;stroke-linejoin:round}
        </style>
    </defs>
    <g id="bag" transform="translate(-.731 -.25)">
        <path id="Path_5" d="M22.8 12.06L22 8.52a1.5 1.5 0 0 0-1.5-1.15h-14A1.5 1.5 0 0 0 5 8.52L1.28 24.41a1.49 1.49 0 0 0 1.45 1.84h21.54a1.49 1.49 0 0 0 1.45-1.84l-2.21-9.32z" class="cls-1" data-name="Path 5"/>
        <path id="Path_6" d="M8.25 10.27V6A5.25 5.25 0 0 1 13.5.75 5.25 5.25 0 0 1 18.75 6v4.27" class="cls-1" data-name="Path 6"/>
    </g>
</svg>
