<svg xmlns="http://www.w3.org/2000/svg" viewBox="0 0 432 432"><path fill="#fff" d="M432 216L216 432 0 216.01 216 0l216 216z" data-name="Layer 2"/><g data-name="Layer 1"><path fill="#fff" d="M215.75 412.23L20.25 216.74 215.74 21.25l195.5 195.49-195.49 195.49z"/><path d="M215.75 414.2L18.28 216.74 215.74 19.29l1 1 196.47 196.45zM22.22 216.74l193.53 193.52 193.52-193.52L215.74 23.22z" fill="#ef3e33"/><path d="M139.81 185.63a82.14 82.14 0 0 1 152 0h3a84.91 84.91 0 0 0-158 0zM293.52 243.47a82.14 82.14 0 0 1-155.43 0h-2.94a84.93 84.93 0 0 0 161.31 0z" fill="#ef3e33"/><path d="M304.59 184.48a2.45 2.45 0 1 1 3.31-1 2.45 2.45 0 0 1-3.31 1z" fill="#008357"/><path d="M129.29 183.72l2.51-4.83-15-7.79s13.34-1.33 13.56-1.53-7.48-13.1-7.48-13.1 15.7 9.09 15.92 8.9 2.17-4.21 2.38-4.41-24.35-14.08-24.35-14.08l-2.51 4.83 6.28 12.47s-13.79 2.33-13.57 2.14a32.81 32.81 0 0 1-2.39 4.58l24.62 12.81z" fill="#008357" fill-rule="evenodd"/><path d="M143.64 156.69a2.91 2.91 0 1 1 3.92-1.24 2.91 2.91 0 0 1-3.92 1.24zM133.45 134.35a5.37 5.37 0 0 0-4.34-1 7 7 0 0 0-4.65 2.68 8.24 8.24 0 0 0-1.15 7.61c.87 2.84 2.52 4.19 5.12 5.62a7.87 7.87 0 0 0 9.53-1 6.09 6.09 0 0 0 2.21-3.79 6 6 0 0 0-1.74-5.81l-2.92 2.82c1.54 2.48.71 3.54-.1 4.23-1 .9-2.6.73-4.37 0a7 7 0 0 1-3.78-3.57 3.43 3.43 0 0 1 .58-3.8c.67-.82 2.32-1.2 4.35-.21l1.26-3.83zM157.46 145.45s-17.67-22-17.46-22.22 4.72-3.65 4.72-3.65l17.09 22.33-4.35 3.54zM151.18 114.38l5.16-3.11 12.54 19.3 6.91-3.72 2.21 3.95-11.48 6.53-15.34-22.95zM180.21 130.12c-.15-.08-9.9-26.22-9.9-26.22l5.41-2.06 3.06 7.79 7.85-2.6c.3-.47-2.21-7.65-2.21-7.65l5.58-1.31 8 26.73s-4.87 1.42-5.14 1-4-13.25-4.2-13.33-8.55 2.54-8.33 2.35 4.81 13.34 4.81 13.34-4.8 2.07-4.95 2zM200.1 95.64l17.33-.85.05 4.9-11.16.49.33 4.35 8.79-.42.11 5.07-8.65.55.45 8.83 10.69-.44.24 4.75-15.91.91-2.27-28.14zM225.88 95.22l6 .72 6.24 17.35 3.67-15.48 5.57 1.11-7.07 27.28s-4.2-.78-4-1-6.29-18.43-6.29-18.43-2.07 17-2.22 16.91-5.55-.53-5.55-.53l3.62-27.92zM269.33 139.61s7.07-8.87 7-9.19 1.33-19.32 1.33-19.32l5.62 3.91s-.9 11.54-.68 11.35 10.72-4.16 10.72-4.16l4.52 4.25-16.6 6.89s-7.3 9.68-7.45 9.59-4.51-3.32-4.51-3.32zM308.35 152.58c3.26-3.26 8-8 3.24-13.84-3.27-4-9.21-4.54-18.47 3-8 6.46-9.79 12.79-5.71 17.41 4.61 5.23 10.19 2.33 14.42-1.09l-2.72-3.26c-3.57 2.76-6.25 3-7.62 1.36s-2.26-4.15 5.71-10.61c8.25-6.68 9.48-3.78 10.34-2.72 1 1.25 1.3 2.73-2.72 6l3.54 3.81z" fill="#008357"/><path d="M307.86 160.82c4.74-3 10-3.1 11.76-.29s-.68 7.47-5.42 10.47-10 3.1-11.77.29.68-7.48 5.42-10.44zm-2.4-3.9c7-4.38 15.18-4 18.23.92s-.15 12.41-7.16 16.79-15.18 4-18.24-.92.16-12.41 7.17-16.79z" fill="#008357" fill-rule="evenodd"/><path d="M255.65 101.32l5.63 2.09 2 18.33 7.18-14.19 5.16 2.38-13.37 24.75s-3.77-1.62-3.51-1.76-1.74-19.4-1.74-19.4-6 16-6.11 15.92-5.27-1.81-5.27-1.81l10-26.3z" fill="#008357"/><path d="M102.06 258.1l2.29 4.7 8.13-4 2.73 5.6c1.11 2.75 3.46 4.55 7.24 4.52a11.19 11.19 0 0 0 6.93-3.34c2.93-3.37 1.22-6.87.43-8.5L124.87 247l-22.81 11.1zm21.19-4.52l2.46 5c.56 1.16.94 2.56-.3 3.83a5.71 5.71 0 0 1-3.28 1.37 3.22 3.22 0 0 1-3.16-1.64l-2.56-5.25 6.85-3.34z" fill="#008357" fill-rule="evenodd"/><path fill="#008357" d="M133.62 266.05l-20.27 15.27 11.42 15.16 3.47-2.62-8.27-10.98 5.22-3.94 7.32 9.7 3.47-2.62-7.31-9.7 4.61-3.48 7.92 10.51 3.48-2.62-11.06-14.68z"/><path d="M129.12 301.43l3.88 3.5 6.06-6.73 4.63 4.17c2.06 2.14 4.91 2.92 8.41 1.48a11.19 11.19 0 0 0 5.17-5.69c1.45-4.22-1.44-6.83-2.79-8l-8.38-7.55-17 18.86zm17.95-12.13l4.17 3.75c1 .86 1.83 2 1.15 3.66a5.72 5.72 0 0 1-2.53 2.5 3.21 3.21 0 0 1-3.54-.33L142 295l5.1-5.67zM148.78 317.79l4.47 2.69 4.66-7.76 5.34 3.21c2.43 1.7 5.38 1.93 8.54-.15a11.2 11.2 0 0 0 4-6.58c.62-4.42-2.72-6.43-4.27-7.36l-9.67-5.84-13.07 21.75zm15.31-15.33l4.8 2.89c1.1.66 2.18 1.64 1.83 3.38a5.72 5.72 0 0 1-2 2.94 3.22 3.22 0 0 1-3.54.35l-5-3 3.93-6.54z" fill="#008357" fill-rule="evenodd"/><path fill="#008357" d="M179.69 306l-8.27 24 17.94 6.17 1.42-4.11-13-4.48 2.13-6.19 11.49 3.96 1.41-4.11-11.49-3.96 1.89-5.47 12.44 4.29 1.41-4.12-17.37-5.98z"/><path d="M196.12 337.4l5.21.27.52-10 6.15.33c1.81.09 3 1 3 2.7s-.27 3.85-.27 5.11a5.81 5.81 0 0 0 .57 2.4l5.6.29v-.94c-.54-.38-.94-.71-.86-2.14s.14-4.63.05-5.68c-.16-2.31-1.79-3-2.63-3.66 1.76-.92 2.91-1.66 3.65-3.82a8.56 8.56 0 0 0 0-5.12c-.59-2.78-3.1-4.1-5.63-4.34l-14.08-.74-1.33 25.34zm6.31-20.72l7.06.37c2.33.12 3.11 1.21 3 3a3.36 3.36 0 0 1-3.29 3.63l-7.13-.37.35-6.64z" fill="#008357" fill-rule="evenodd"/><path d="M249.35 315.56a7.16 7.16 0 0 0-2.6-4.41c-3.16-2.44-7.78-1.4-9.1-1.07-6 1.5-8.12 5.11-7.55 9.13s3.26 5.47 6.16 5.71c3.44.29 8.31-.92 10.35.36a3 3 0 0 1 .94 4.18 6.78 6.78 0 0 1-3.63 2.13 6.31 6.31 0 0 1-5-.3 3.8 3.8 0 0 1-1.68-2.27l-4.93 1.23a8.81 8.81 0 0 0 5 5.49 12 12 0 0 0 6.48.21c2.73-.72 5.52-1.77 7.27-3.64 2.58-2.76 2.44-8.93-1.14-11.2-1.95-1.2-5-1.08-6.42-1-1 .07-5.83.49-6.56 0-1.23-.16-1.88-.36-2.17-2.08-.34-2.07 1.28-3.37 3.75-3.95 3.5-.8 5.6.61 6 2.62l4.76-1.19z" fill="#008357"/><path d="M261 301.58l-5.41 2.64 3.18 26.69 4.79-2.33-.63-5.34 8.45-4.12 3.79 3.8 4.78-2.33-18.95-19zm0 6.79l7.35 7.37-5.85 2.85-1.5-10.22z" fill="#008357" fill-rule="evenodd"/><path d="M281.12 287.71l10.58 14c1 1.28 1.87 3.69-1.44 6.19s-5.27.88-6.29-.36l-10.58-14-4.17 3.14 10.54 14c1.51 2 4.15 3.76 8.91 3.09a14.41 14.41 0 0 0 4.42-2.29 13 13 0 0 0 3.51-4 7.86 7.86 0 0 0-.78-9l-10.54-14-4.17 3.14zM308.26 280.95a4.75 4.75 0 0 1 1.43 5.91 6.84 6.84 0 0 1-1.1 1.92 5.14 5.14 0 0 1-1.57 1.39 6.73 6.73 0 0 1-4.81.48 12.38 12.38 0 0 1-4.74-2.57 16.12 16.12 0 0 1-3-3.28 6 6 0 0 1-.19-6.46c2.75-4.29 6.33-3.08 7.55-2.33l3-4a8.24 8.24 0 0 0-7.94-1.15 11.22 11.22 0 0 0-5.69 4.26c-4 5.25-2.81 9.91.11 13.9a18 18 0 0 0 3.54 3.41 20.23 20.23 0 0 0 3.85 2.29c5.1 2.14 10.36 1.18 13.61-3.43a13.58 13.58 0 0 0 2.53-7.46 9.73 9.73 0 0 0-3.54-6.93l-3 4zM298.49 265.23l22.81 11.12 8.31-17.05-3.91-1.91-6.03 12.36-5.88-2.87 5.33-10.91-3.91-1.91-5.33 10.92-5.2-2.54 5.77-11.82-3.91-1.91-8.05 16.52z" fill="#008357"/><path d="M168.93 155.46l-2 1.48 3.74 11 1.73-1.31-.75-2.2 3.06-2.31 1.89 1.33 1.73-1.31-9.46-6.65zm.62 2.84l3.67 2.58-2.12 1.6-1.55-4.18z" fill="#ef3e33" fill-rule="evenodd"/><path fill="#ef3e33" d="M177.91 149.51l2.33 8.29-6.24-5.94-1.83 1.11 8.67 7.62 1.57-.94-2.67-11.24-1.83 1.1zM181.87 147.41l4.13 10.2 7.16-2.9-.7-1.75-5.2 2.1-1.06-2.63 4.59-1.86-.71-1.74-4.59 1.85-.94-2.32 4.98-2.01-.71-1.75-6.95 2.81z"/><path d="M194.68 154.3l2-.59-1.2-4.18 2.4-.69a1.12 1.12 0 0 1 1.53.71c.19.78.44 1.62.61 2.13a2.64 2.64 0 0 0 .56.91l2.2-.63-.11-.39c-.26-.08-.46-.17-.63-.76s-.59-1.92-.77-2.34a2 2 0 0 0-1.52-1.15 2.62 2.62 0 0 0 .87-2.06 3.93 3.93 0 0 0-.71-2.11 2.4 2.4 0 0 0-2.77-1l-5.52 1.58 3 10.58zm-.47-9.35l2.77-.79a1.1 1.1 0 0 1 1.58.83 1.43 1.43 0 0 1-.76 1.93l-2.8.8-.79-2.77z" fill="#ef3e33" fill-rule="evenodd"/><path fill="#ef3e33" d="M207.64 140.46l-1.39 4.95-2.66-4.45-2.35.29 4.22 6.46.5 4.04 2.11-.26-.5-4.04 2.44-7.28-2.37.29zM219.02 140.3l-2.13-.03-.19 11 2.13.04.19-11.01zM229 144.87a3.25 3.25 0 0 0-.29-2.19 4.4 4.4 0 0 0-3.26-1.88c-2.5-.35-3.86.77-4.27 2.48a2.67 2.67 0 0 0 1.43 3.28c1.25.66 3.28.95 3.85 1.79a1.37 1.37 0 0 1-.3 1.83 2.64 2.64 0 0 1-1.7.28 2.47 2.47 0 0 1-1.83-.91 1.72 1.72 0 0 1-.28-1.18l-2-.29a3.88 3.88 0 0 0 1 3 4.66 4.66 0 0 0 2.41 1.12 5.92 5.92 0 0 0 3.31-.31c1.4-.7 2.32-3.21 1.32-4.69a4.68 4.68 0 0 0-2.27-1.42 10.47 10.47 0 0 1-2.48-1c-.44-.26-.65-.44-.49-1.18s1-1.15 2-1c1.44.23 2 1.14 1.86 2l2 .28zM232.33 142.22l-3.03 10.58 6.8 1.95.52-1.81-4.76-1.37 2.52-8.76-2.05-.59z"/><path d="M246.4 147.09l-2.24-1-7.77 8.59 2 .88 1.56-1.72 3.5 1.56-.25 2.3 2 .88 1.24-11.5zm-2.19 1.91l-.48 4.46-2.42-1.08 2.9-3.38z" fill="#ef3e33" fill-rule="evenodd"/><path fill="#ef3e33" d="M251.56 149.54l-5.99 9.23 1.78 1.16 4.18-6.43-.66 8.71 1.75 1.14 6-9.22-1.79-1.16-4.12 6.34.61-8.62-1.76-1.15z"/><path d="M253.81 164l3.53 3.06a3.7 3.7 0 0 0 3.49.48 7.85 7.85 0 0 0 3.38-2.44 6 6 0 0 0 1.26-2.14c.64-2.12 0-3.41-.81-4.11l-3.66-3.12-7.19 8.27zm7.59-5.49l1.45 1.26a1.9 1.9 0 0 1 .74 2 4.63 4.63 0 0 1-1.18 2.16 6 6 0 0 1-1.81 1.52 2.22 2.22 0 0 1-2.65-.34l-1.29-1.11 4.74-5.46z" fill="#ef3e33" fill-rule="evenodd"/><path fill="#ef3e33" d="M205.52 158.9v11h7.08v-1.88h-4.95v-9.12h-2.13z"/><path d="M220.54 158.9h-2.46l-3.6 11h2.17l.72-2.2h3.83l.71 2.2h2.17l-3.55-11zm-1.22 2.64l1.38 4.27H218l1.28-4.27z" fill="#ef3e33" fill-rule="evenodd"/><path fill="#ef3e33" d="M226.32 169.9h2.13v-2.2h-2.13v2.2z"/><circle cx="215.76" cy="181.34" r="2.53" fill="#ef3e33"/><path d="M194 178.93c-8.83 0-20.85 1.13-25.37 1.55l-1.86.17h-.31v.46h.29l2.15.2c5 .47 18.16 1.73 26.93 1.73 7.94 0 8.86-1 8.86-1.81.01-.99-1.1-2.3-10.69-2.3zM265 180.65h-.29l-1.86-.17c-4.52-.42-16.54-1.55-25.37-1.55-9.6 0-10.71 1.31-10.71 2.29 0 .78.92 1.81 8.86 1.81 8.76 0 22-1.26 26.93-1.73l2.15-.2h.31z" fill="#ef3e33"/><path d="M165.9 273.54h9.75c1.36 0 3.76-.21 5.25-1.48a5.87 5.87 0 0 0 2.25-4.56 6.87 6.87 0 0 0-2.58-5.45 5.81 5.81 0 0 0 2-4.44c0-.89-.41-5.66-7.79-5.66h-8.88v21.6zm4.44-17.9h5.27c1.54 0 2.76.59 2.76 2.46 0 1.72-1.1 2.46-3 2.46h-5v-4.92zm0 8.62h6c.83 0 2.52.12 2.52 2.55 0 3-2 3-3.35 3h-5.21v-5.57zM187.09 273.54h4.44V265h5.21c1.54 0 2.61.71 2.67 2.16s-.06 3.29 0 4.36a5 5 0 0 0 .59 2h4.77v-.8c-.47-.29-.83-.56-.83-1.77s-.09-3.94-.21-4.83c-.24-2-1.66-2.49-2.4-3a5.23 5.23 0 0 0 2.93-3.41 7.27 7.27 0 0 0-.21-4.35c-.62-2.34-2.81-3.35-5-3.44h-12v21.6zm4.44-17.9h6c2 0 2.7.89 2.7 2.43a2.86 2.86 0 0 1-2.64 3.23h-6.07v-5.66zM219.38 251.94h-5.13l-7.53 21.6h4.53l1.51-4.33h8l1.48 4.33h4.53l-7.41-21.6zm-2.55 5.18l2.88 8.39h-5.54l2.66-8.39z" fill="#ef3e33" fill-rule="evenodd"/><path fill="#ef3e33" d="M229.21 251.94v21.61h4.45v-15.06l8.74 15.06h4.38v-21.61h-4.44v14.85l-8.74-14.85h-4.39z"/><path d="M250.72 273.54h9.75a7.78 7.78 0 0 0 6.16-3.79 14.7 14.7 0 0 0 2-8 11.25 11.25 0 0 0-.95-4.8c-1.9-4-4.68-5-6.9-5h-10v21.6zm4.45-17.9h4a4 4 0 0 1 3.88 2 8.65 8.65 0 0 1 1.1 4.71 11.15 11.15 0 0 1-.77 4.59 4.66 4.66 0 0 1-4.65 2.9h-3.56v-14.19z" fill="#ef3e33" fill-rule="evenodd"/><path d="M114.26 187.86h6.94l20 53.3h-10.56l-4.72-12.49h-16.1c.14-.1-4.44 12.49-4.72 12.49h-10l19.15-53.3zm3.33 19.14c-.08.07 4.92 13.12 5 13h-9.53c0 .07 4.46-13 4.54-13z" fill="#008357" fill-rule="evenodd"/><path d="M308.92 185.27c7.13-.06 12.45 3.84 16.06 10.78 0 0-6.66 4.44-7.13 4.6-2.76-3-4.56-6.14-8.69-6-7.5.28-9.91 12.41-9.83 21.87.07 8.19 4 18.66 10.29 18.3 6.12-.35 9.07-6.89 9.81-13l7.5 4.44c-1 9.41-7.84 17.79-16.69 17.58-15-.37-20.39-15.08-20.51-28.87s5.4-29.63 19.19-29.75zM263.08 186.06a21.09 21.09 0 0 1 12.22 4.72l-3.89 6.94s-4.6-2.81-8.33-2.78c-3.2 0-7 2.63-6.94 5.83.05 5.73 7.41 6.06 12.77 8.05 7.5 2.78 13.33 9.25 13.33 15.82 0 10.55-6.66 18-16.94 18.88-10.53.86-19.43-6.39-22.76-15.27l8.33-3.88c3 5.58 6.86 10.29 11.66 10.55 3.34.18 8.09-.19 10.27-5.27 3.33-7.77-6.58-12.15-13.6-14.16-3.89-1.11-12.36-4.55-12.77-14.43-.38-9.26 8.26-15.29 16.66-15z" fill="#008357"/><path d="M389.65 225.53a8.05 8.05 0 1 0-8.08-8.07 8 8 0 0 0 8.08 8.07zm0-1.06a7 7 0 1 1 6.75-7 6.75 6.75 0 0 1-6.75 7zm1.29-6.65c1.6 0 2.83-.7 2.83-2.46 0-1.49-.81-2.38-3.19-2.38h-3.93v9h1.11v-4.14h2l2.57 4.14h1.32l-2.72-4.14zm-3.19-.87v-3.19h2.57c1.1 0 2.25.17 2.25 1.57 0 1.83-1.87 1.62-3.15 1.62z" fill="#008357" fill-rule="evenodd"/><path fill="#008357" d="M54.52 188.02h41.64v8.61H81.45v44.69H71.18v-44.69l-16.71.02.05-8.63z"/><path d="M149.18 188h20.54c8.33 0 13.88 6.1 13.88 12.77a15.09 15.09 0 0 1-4.72 11.38c6.94 2.78 8.61 9.44 8.05 15.55-.7 7.74-6 13.6-14.16 13.6h-23.6V188zm9.16 8.67l6.93-.06c3.9 0 7.23.62 7.78 6.11.28 2.78-2.48 6.39-5.27 6.39h-9.44v-12.42zm.28 21.41l13.32-.09c4.16.55 6.08 4.24 6.11 7.77 0 4.4-3.61 7.84-8.61 7.84-4.16 0-11 .15-10.83 0v-15.5zM210.61 188h6.94l20 53.3H227l-4.72-12.49h-16.1c.14-.1-4.44 12.49-4.72 12.49h-10l19.15-53.3zm3.33 19.15c-.08.07 4.92 13.12 5 13h-9.54c0 .07 4.46-13 4.54-13zM344 214.23c0-11.42 5.45-19.78 12.2-19.78s12.23 8.35 12.23 19.78-5.51 19.57-12.25 19.57S344 225.65 344 214.23zm-9.14-.07c0-16.71 9.42-29.5 21.08-29.5s21.12 12.79 21.12 29.5-9.49 29.15-21.14 29.15-21.06-12.44-21.06-29.15z" fill="#008357" fill-rule="evenodd"/><path d="M89.69 185.63c14-56.61 65.24-98.7 126.11-98.7s112.1 42.07 126.12 98.7h2.87c-14.08-58.16-66.56-101.48-129-101.48s-114.9 43.33-129 101.48zM343 243.47c-12.32 58.91-64.65 103.29-127.17 103.29S101 302.38 88.64 243.47h-2.85c12.36 60.45 66 106.08 130 106.08s117.65-45.62 130-106.08z" fill="#ef3e33"/></g></svg>